<svg width="32" height="32" viewBox="0 0 32 32" fill="none" xmlns="http://www.w3.org/2000/svg">
<g clip-path="url(#clip0_850_54563)">
<path d="M26.6107 25.9085L26.6013 25.67L29.3259 21.4803L28.5797 17.6211L28.2981 16.4966C27.6388 16.8141 27.061 17.298 26.63 17.9148L24.8811 20.4191L24.559 20.4678C23.1035 20.6867 21.8859 21.6822 21.3814 23.0649C21.3788 23.0743 21.3762 23.0838 21.3738 23.0933C20.9976 24.5172 22.0861 25.9086 23.5589 25.9086H26.6107V25.9085Z" fill="#FFCEBF"/>
<path d="M7.98975 25.6249C9.69922 25.6249 10.8056 23.772 9.94656 22.294C9.89516 22.2055 9.84059 22.1269 9.78285 22.0602C8.95036 21.1002 8.18493 20.5792 7.44349 20.4676L7.12077 20.4189L5.3717 17.9143C4.94086 17.2977 4.36313 16.8139 3.70386 16.4963L3.42219 17.6209L2.45898 22.2751L5.4533 25.5544L5.44848 25.6247H7.98975V25.6249Z" fill="#FFCEBF"/>
<path d="M13.2516 11.64C13.2967 11.331 13.4426 11.0556 13.6558 10.8487C13.9123 10.5988 14.2658 10.448 14.654 10.4577C15.4085 10.4763 16.001 11.1151 16.001 11.8699V17.956V22.1299V23.7124C16.001 24.6338 15.6894 25.5291 15.1165 26.2512L13.4489 28.3552V31.3519C13.4489 31.7098 13.1588 32 12.8008 32H5.51802C5.1309 32 4.83007 31.6628 4.87417 31.2781L5.33972 27.2131L5.4533 25.5545L2.45898 22.2752L3.42219 17.621L5.48122 9.40011C5.67348 8.85252 6.18935 8.48957 6.76423 8.48957C6.79088 8.48957 6.81816 8.4902 6.84545 8.49211C7.66081 8.54097 8.24965 9.29224 8.10244 10.0955L8.4914 8.01177C8.63798 7.26367 9.36641 6.77889 10.1132 6.93245C10.7567 7.06506 11.2059 7.63233 11.2059 8.27256C11.2059 8.33284 11.2021 8.39376 11.1938 8.4553L11.0422 9.95215L11.0536 9.95342C11.0949 9.86839 11.1463 9.78907 11.2059 9.71737C11.4407 9.43501 11.8036 9.26813 12.1951 9.29795C12.8055 9.34491 13.2757 9.8538 13.2757 10.4636C13.2757 10.4744 13.2757 10.4858 13.2751 10.4972L13.2516 11.64C13.244 11.6926 13.2389 11.7459 13.2376 11.8005L13.2516 11.64Z" fill="#FFDFCF"/>
<path d="M10.2735 7.66723C10.331 7.45872 10.4368 7.27281 10.5748 7.11957C10.4376 7.03181 10.2823 6.96722 10.1139 6.93245C9.36707 6.77889 8.63864 7.26367 8.49206 8.01177L8.11382 10.0382L6.94922 17.9893C7.94041 18.0194 8.80317 17.3168 8.97456 16.3401L10.2735 7.66723Z" fill="#FFCEBF"/>
<path d="M12.1902 16.7224L12.8102 9.52984C12.6374 9.39963 12.4268 9.31569 12.1962 9.29798C11.8047 9.26816 11.4417 9.43504 11.2069 9.7174C11.1477 9.78853 11.0968 9.86722 11.0557 9.95148L10.8117 11.9162L10.2734 18.4344C11.2549 18.4344 12.0799 17.6976 12.1902 16.7224Z" fill="#FFCEBF"/>
<path d="M14.6192 17.5463L15.0839 10.5388C14.9495 10.4896 14.8054 10.4615 14.6547 10.4577C14.2666 10.4481 13.9131 10.5989 13.6566 10.8488C13.453 11.0463 13.3118 11.3066 13.2602 11.5987L13.2429 11.7487L12.7188 19.2593C13.6975 19.2594 14.518 18.5198 14.6192 17.5463Z" fill="#FFCEBF"/>
<path d="M23.9005 10.0955C23.7533 9.29224 24.3421 8.54097 25.1575 8.49211C25.1848 8.4902 25.2121 8.48957 25.2387 8.48957C25.8136 8.48957 26.3295 8.85252 26.5217 9.40011L28.5808 17.621L29.327 21.4802L26.6023 25.6699L26.6632 27.2131L27.1543 31.5016C27.1847 31.7671 26.9771 32 26.7098 32H19.0015C18.7543 32 18.554 31.7996 18.554 31.5525V28.3552L16.8865 26.2512C16.3135 25.5291 16.002 24.6338 16.002 23.7124V11.8392C16.002 11.4572 16.1568 11.1121 16.4068 10.8621C16.6568 10.6121 17.002 10.4572 17.3839 10.4572C18.0775 10.4572 18.6543 10.9693 18.7513 11.64L18.7279 10.4972C18.7272 10.4858 18.7272 10.4744 18.7272 10.4636C18.7272 9.8538 19.1974 9.34491 19.8078 9.29795C20.2761 9.26242 20.7038 9.50798 20.9195 9.89631L20.9544 9.8925L20.8091 8.4553C20.8009 8.39376 20.7971 8.33284 20.7971 8.27256C20.7971 7.63233 21.2463 7.06506 21.8897 6.93245C22.6365 6.77889 23.365 7.26367 23.5115 8.01177L23.9005 10.0955Z" fill="#FFDFCF"/>
<path d="M27.0233 26.5538C26.7771 26.6509 26.6267 26.9009 26.6565 27.1636L26.6566 27.2131L25.7035 27.2076C24.3574 27.1998 23.209 26.382 22.7115 25.223C22.4035 24.5053 22.5305 23.6722 23.0274 23.0697C23.4972 22.5 24.1737 21.8088 24.7479 21.7225L25.6096 21.5924L27.6705 18.6412C28.2492 17.8132 29.1889 17.3373 30.1718 17.3373C30.3945 17.3373 30.6198 17.3614 30.8431 17.4122C31.3463 17.5257 31.6515 18.0391 31.51 18.5353L30.0474 23.6813C29.708 24.8754 28.831 25.8424 27.6762 26.2968L27.0233 26.5538Z" fill="#FFDFCF"/>
<path d="M20.392 31.6041V28.8543C20.392 28.5646 20.2941 28.2833 20.1142 28.0562L18.7245 26.3028C18.1515 25.5807 17.84 24.6854 17.84 23.7641V11.8909C17.84 11.5089 17.9948 11.1637 18.2448 10.9137C18.272 10.8865 18.3009 10.8591 18.3303 10.8342C18.0825 10.6 17.7489 10.4573 17.382 10.4573C17 10.4573 16.6548 10.6121 16.4048 10.8621C16.1548 11.1121 16 11.4573 16 11.8393V23.7125C16 24.6338 16.3116 25.5291 16.8845 26.2512L18.5521 28.3553V31.5525C18.5521 31.7997 18.7524 32 18.9995 32H20.6312C20.4891 31.925 20.392 31.776 20.392 31.6041Z" fill="#FFCEBF"/>
<path d="M6.59748 31.4284L7.06303 27.3634L7.17661 25.7047L4.18229 22.4255L5.1455 17.7713L7.20453 9.55036C7.30269 9.27072 7.48619 9.03957 7.71792 8.87998C7.49285 8.65841 7.18917 8.51278 6.84545 8.49216C6.81816 8.49026 6.79088 8.48962 6.76423 8.48962C6.18935 8.48962 5.67348 8.85257 5.48122 9.40017L3.42219 17.6211L2.45898 22.2753L5.4533 25.5545L5.33972 27.2132L4.87417 31.2782C4.83014 31.6628 5.1309 31.9999 5.51802 31.9999H6.82775C6.66632 31.8656 6.57146 31.6556 6.59748 31.4284Z" fill="#FFCEBF"/>
<path d="M20.2917 10.2265C20.2849 9.93916 20.3509 9.67024 20.4696 9.4448C20.2744 9.33477 20.0463 9.27982 19.8072 9.29797C19.1967 9.34492 18.7266 9.85381 18.7266 10.4636C18.7266 10.4744 18.8711 19.2037 18.8711 19.2037C19.7391 19.1832 20.4263 18.4629 20.4057 17.5949L20.2917 10.2265Z" fill="#FFCEBF"/>
<path d="M21.5056 18.3209C22.4712 18.0952 23.1245 17.1946 23.0391 16.2066L22.3919 6.94097C22.392 6.93513 22.393 6.92904 22.3931 6.9232C22.2305 6.89572 22.0598 6.89731 21.8884 6.93253C21.2684 7.06032 20.83 7.59199 20.7988 8.20335L21.5056 18.3209Z" fill="#FFCEBF"/>
<path d="M24.6789 18.1497C25.6332 17.8799 26.2444 16.9502 26.1137 15.9672L25.4007 8.49943C25.3458 8.49264 25.2898 8.49194 25.2335 8.49194C25.2069 8.49194 25.1796 8.49258 25.1523 8.49448C24.3936 8.53998 23.8314 9.19366 23.8755 9.93142L24.6789 18.1497Z" fill="#FFCEBF"/>
<path d="M9.49046 24.8555C9.40918 26.1803 8.31107 27.2131 6.98384 27.2131H5.33947L5.34518 27.1636C5.375 26.901 5.22462 26.6509 4.97843 26.5539L4.3255 26.2969C3.17067 25.8426 2.29376 24.8755 1.95429 23.6814L0.491707 18.5354C0.350208 18.0392 0.655414 17.5259 1.15859 17.4123C1.38194 17.3615 1.6072 17.3374 1.82992 17.3374C2.8128 17.3374 3.75253 17.8133 4.33121 18.6414L6.39215 21.5925L7.25383 21.7226C7.76913 21.8001 8.36691 22.3649 8.82371 22.8916C9.29376 23.4338 9.5345 24.1373 9.49053 24.8536L9.49046 24.8555Z" fill="#FFDFCF"/>
<path d="M7.078 27.1636C7.10783 26.901 6.95744 26.6509 6.71125 26.5539L6.05832 26.2969C4.90349 25.8426 4.02658 24.8755 3.68711 23.6814L2.22453 18.5354C2.1001 18.099 2.32136 17.6495 2.71889 17.4703C2.43291 17.3831 2.13347 17.3374 1.82992 17.3374C1.6072 17.3374 1.38194 17.3615 1.15859 17.4123C0.655414 17.5259 0.350208 18.0392 0.491707 18.5354L1.95429 23.6814C2.29376 24.8755 3.17067 25.8426 4.3255 26.2969L4.97843 26.5539C5.22462 26.6509 5.375 26.901 5.34518 27.1636L5.33947 27.2131H6.98384C7.0136 27.2131 7.04311 27.212 7.07261 27.211L7.078 27.1636Z" fill="#FFCEBF"/>
<path d="M9.49046 24.8555C9.40918 26.1803 8.31107 27.2131 6.98384 27.2131H5.33947L5.34518 27.1636C5.375 26.901 5.22462 26.6509 4.97843 26.5539L4.3255 26.2969C3.17067 25.8426 2.29376 24.8755 1.95429 23.6814L0.491707 18.5354C0.350208 18.0392 0.655414 17.5259 1.15859 17.4123C1.38194 17.3615 1.6072 17.3374 1.82992 17.3374C2.8128 17.3374 3.75253 17.8133 4.33121 18.6414L6.39215 21.5925L7.25383 21.7226C7.76913 21.8001 8.36691 22.3649 8.82371 22.8916C9.29376 23.4338 9.5345 24.1373 9.49053 24.8536L9.49046 24.8555Z" fill="#FFDFCF"/>
<path d="M7.078 27.1636C7.10783 26.901 6.95744 26.6509 6.71125 26.5539L6.05832 26.2969C4.90349 25.8426 4.02658 24.8755 3.68711 23.6814L2.22453 18.5354C2.1001 18.099 2.32136 17.6495 2.71889 17.4703C2.43291 17.3831 2.13347 17.3374 1.82992 17.3374C1.6072 17.3374 1.38194 17.3615 1.15859 17.4123C0.655414 17.5259 0.350208 18.0392 0.491707 18.5354L1.95429 23.6814C2.29376 24.8755 3.17067 25.8426 4.3255 26.2969L4.97843 26.5539C5.22462 26.6509 5.375 26.901 5.34518 27.1636L5.33947 27.2131H6.98384C7.0136 27.2131 7.04311 27.212 7.07261 27.211L7.078 27.1636Z" fill="#FFCEBF"/>
<path d="M13.6676 7.63929C12.8149 7.63929 12.1211 6.9455 12.1211 6.09283V5.02213C12.1211 4.75925 12.3341 4.54624 12.597 4.54624C12.8599 4.54624 13.0729 4.75925 13.0729 5.02213V6.09276C13.0729 6.42069 13.3397 6.68744 13.6676 6.68744C13.9955 6.68744 14.2623 6.42069 14.2623 6.09276V0.475893C14.2623 0.21301 14.4753 0 14.7382 0C15.0011 0 15.2141 0.21301 15.2141 0.475893V6.09276C15.2141 6.9455 14.5203 7.63929 13.6676 7.63929Z" fill="#99E6FC"/>
<path d="M11.0826 4.20531C10.1248 4.20531 9.3457 3.42618 9.3457 2.46849V1.58821C9.3457 1.32533 9.55871 1.11232 9.8216 1.11232C10.0845 1.11232 10.2975 1.32533 10.2975 1.58821V2.46849C10.2975 2.90136 10.6497 3.25352 11.0826 3.25352C11.5155 3.25352 11.8676 2.90136 11.8676 2.46849V0.475893C11.8676 0.21301 12.0806 0 12.3435 0C12.6064 0 12.8194 0.21301 12.8194 0.475893V2.46849C12.8194 3.42618 12.0402 4.20531 11.0826 4.20531Z" fill="#99E6FC"/>
<path d="M18.3961 7.63929C17.5434 7.63929 16.8496 6.9455 16.8496 6.09283V0.475893C16.8496 0.21301 17.0626 0 17.3255 0C17.5884 0 17.8014 0.21301 17.8014 0.475893V6.09276C17.8014 6.42069 18.0682 6.68744 18.3961 6.68744C18.724 6.68744 18.9908 6.42069 18.9908 6.09276V5.02213C18.9908 4.75925 19.2038 4.54624 19.4667 4.54624C19.7296 4.54624 19.9426 4.75925 19.9426 5.02213V6.09276C19.9426 6.9455 19.2488 7.63929 18.3961 7.63929Z" fill="#99E6FC"/>
<path d="M20.981 4.20531C20.0233 4.20531 19.2441 3.42618 19.2441 2.46849V0.475893C19.2441 0.21301 19.4572 0 19.72 0C19.9829 0 20.1959 0.21301 20.1959 0.475893V2.46849C20.1959 2.90136 20.5481 3.25352 20.981 3.25352C21.4138 3.25352 21.7661 2.90136 21.7661 2.46849V1.58821C21.7661 1.32533 21.9791 1.11232 22.2419 1.11232C22.5048 1.11232 22.7178 1.32533 22.7178 1.58821V2.46849C22.7178 3.42618 21.9387 4.20531 20.981 4.20531Z" fill="#99E6FC"/>
<path d="M20.6211 11.6057L20.6351 11.7662C20.6338 11.7117 20.6287 11.6584 20.6211 11.6057Z" fill="#FFCEBF"/>
</g>
<defs>
<clipPath id="clip0_850_54563">
<rect width="32" height="32" fill="white"/>
</clipPath>
</defs>
</svg>
