<svg width="32" height="32" viewBox="0 0 32 32" fill="none" xmlns="http://www.w3.org/2000/svg">
<g clip-path="url(#clip0_850_54549)">
<path d="M9.16686 11.1089C9.56448 14.2261 11.7523 17.5135 16.0005 17.5135C20.2487 17.5135 22.4471 14.2812 22.8447 11.1639C22.8559 11.0768 22.8545 10.5585 22.8545 10.5585C22.508 6.35642 18.5609 2.23155 16.2175 0.0844219C16.0947 -0.0281406 15.9062 -0.0281406 15.7834 0.0844219C13.44 2.23155 9.49298 6.35642 9.14648 10.5585C9.14648 10.5585 9.15573 11.0218 9.16686 11.1089Z" fill="#8BCAFF"/>
<path d="M22.8266 10.82C22.4289 13.9373 20.2481 16.951 15.9999 16.951C11.7517 16.951 9.57093 13.9373 9.17331 10.82C9.16218 10.7329 9.15337 10.6455 9.14587 10.5582C9.10662 11.0338 9.11274 11.5104 9.17331 11.9852C9.57093 15.1024 11.7517 18.1162 15.9999 18.1162C20.2481 18.1162 22.4289 15.1024 22.8266 11.9852C22.8871 11.5104 22.8932 11.0338 22.854 10.5582C22.8464 10.6455 22.8377 10.7329 22.8266 10.82Z" fill="#71BFF4"/>
<path d="M29.2233 21.2741C28.8777 20.7887 28.2287 20.6341 27.7031 20.912L25.2184 22.2259L25.7878 20.8119C25.7605 20.7286 25.7234 20.6471 25.6762 20.5688C25.3514 20.0302 24.6632 19.8425 24.1121 20.1423L21.8968 21.3473L22.4411 19.7785C22.4047 19.6933 22.3579 19.6106 22.3006 19.5323C21.9416 19.0421 21.2803 18.8887 20.7438 19.171L14.3352 22.5434L11.3594 26.5282L18.2196 29.3782L28.472 24.0819L28.8333 23.0141L29.3377 21.4722C29.3066 21.4039 29.2686 21.3376 29.2233 21.2741Z" fill="#F7B081"/>
<path d="M22.1145 23.8668L25.2175 22.2259C25.7359 21.9518 25.9625 21.3468 25.7869 20.8119L21.7558 22.9608L21.3809 23.4346L22.1145 23.8668Z" fill="#DB9975"/>
<path d="M28.8335 23.014C29.3866 22.7055 29.5915 22.027 29.3379 21.4722L21.7249 25.5657L18.906 25.4412L16.8549 25.2729L11.4766 25.9832L13.8309 27.13C17.0783 27.5227 22.1804 27.5903 25.0404 25.9951L29.1685 23.5945L28.8335 23.014Z" fill="#DB9975"/>
<path d="M19.6971 22.5434L21.8959 21.3474C22.4658 21.0374 22.6838 20.3493 22.4401 19.7786L17.4141 22.5434L18.6968 23.1059L19.6971 22.5434Z" fill="#DB9975"/>
<path d="M3.50538 24.5649C3.50538 24.5649 5.90275 22.5303 8.87344 21.9752C11.8441 21.4202 14.3359 22.5433 14.3359 22.5433H20.7993C21.5265 22.5433 22.116 23.1358 22.116 23.8667C22.116 24.5334 21.6226 25.096 20.9644 25.1796L12.7724 26.2206L16.2516 26.6414C19.499 27.0341 22.7869 26.3867 25.6469 24.7916L29.9998 22.3637C30.551 22.0721 31.2224 22.1945 31.6374 22.6464C31.6676 22.6793 31.6391 23.8667 31.6391 23.8667L24.9223 27.6994C21.7318 29.4438 18.0996 31.7306 14.4821 31.4066L3.50538 30.4234H0.885063L0 29.6734V24.8885C0 24.7097 0.144438 24.5649 0.322563 24.5649H3.50538Z" fill="#FFC89F"/>
<path d="M31.7239 22.7505C31.6965 22.7141 31.6673 22.6797 31.637 22.6467C31.5399 22.984 31.3149 23.2857 30.979 23.4694L24.6139 26.9495C21.4235 28.6939 17.7913 30.9807 14.1737 30.6567L3.197 29.6735H0V30.6624C0 30.8411 0.144437 30.986 0.322562 30.986H3.50537L14.4821 31.9691C18.0996 32.2931 21.7319 30.0064 24.9223 28.262L31.2874 24.7819C32.0201 24.3812 32.2268 23.4194 31.7239 22.7505Z" fill="#F7B081"/>
</g>
<defs>
<clipPath id="clip0_850_54549">
<rect width="32" height="32" fill="white"/>
</clipPath>
</defs>
</svg>
