<svg width="19" height="19" viewBox="0 0 19 19" fill="none" xmlns="http://www.w3.org/2000/svg">
<path d="M16.5721 0H2.42788C1.08912 0 0 1.08916 0 2.42792V16.5721C0 17.9108 1.08912 19 2.42788 19H16.5721C17.9109 19 19 17.9108 19 16.5721V2.42792C19 1.08916 17.9109 0 16.5721 0ZM17.8809 16.5721C17.8809 17.2938 17.2937 17.8809 16.5721 17.8809H2.42788C1.70621 17.8809 1.11911 17.2937 1.11911 16.5721V14.5308L4.8024 11.3969C4.93681 11.2825 5.13289 11.2815 5.26857 11.3941L7.5758 13.31C7.79827 13.4947 8.12484 13.4796 8.32927 13.2749L13.8114 7.78443C13.9105 7.68517 14.026 7.67552 14.0863 7.6786C14.1464 7.68168 14.2605 7.70313 14.349 7.81204L17.8809 12.1609L17.8809 16.5721ZM17.8809 10.3856L15.2177 7.10641C14.9536 6.78118 14.5621 6.58235 14.1436 6.56086C13.7255 6.53971 13.3155 6.69713 13.0195 6.99363L7.89806 12.1229L5.98359 10.5332C5.42847 10.0722 4.62676 10.077 4.07717 10.5446L1.11911 13.0615V2.42792C1.11911 1.70625 1.70621 1.11914 2.42788 1.11914H16.5721C17.2938 1.11914 17.8809 1.70625 17.8809 2.42792V10.3856Z" fill="#4B3AFF"/>
</svg>
