<svg width="18" height="18" viewBox="0 0 18 18" fill="none" xmlns="http://www.w3.org/2000/svg">
<g clip-path="url(#clip0_523_43179)">
<path d="M17.7253 9.82499L17.7133 9.822H17.701C17.4514 9.822 16.2392 9.77792 15.0926 9.10474C13.9541 8.43635 12.8679 7.14107 12.8679 4.60947C12.8679 4.39799 12.6892 4.21929 12.4778 4.21929C12.2663 4.21929 12.0876 4.39799 12.0876 4.60947C12.0876 7.14108 11.0014 8.4364 9.86563 9.10479C8.72179 9.77796 7.5151 9.822 7.27683 9.822C7.19472 9.822 7.10543 9.8476 7.03877 9.90761C7.00655 9.92683 6.98387 9.95106 6.96842 9.96959C6.96148 9.97792 6.95479 9.98664 6.94995 9.99295C6.94884 9.9944 6.94783 9.99572 6.94693 9.99688L6.94056 10.0049C6.93892 10.0069 6.93822 10.0076 6.93826 10.0075L6.92679 10.019L6.91953 10.0335C6.86081 10.151 6.86081 10.2957 6.91953 10.4132C6.98261 10.5393 7.13083 10.6247 7.27683 10.6247H7.29915C7.5487 10.6247 8.75528 10.6688 9.89624 11.3418C11.029 12.0101 12.1099 13.3054 12.1099 15.8372C12.1099 16.0487 12.2886 16.2274 12.5001 16.2274C12.7116 16.2274 12.8903 16.0487 12.8903 15.8372C12.8903 13.3167 13.971 12.0213 15.1041 11.3501C16.2452 10.6742 17.452 10.6247 17.701 10.6247C17.8569 10.6247 17.9723 10.5305 18.0489 10.4284L18.0543 10.4212L18.0583 10.4132C18.1163 10.2972 18.1193 10.1478 18.0317 10.0253C17.997 9.96117 17.9422 9.91749 17.8895 9.88786C17.8343 9.8568 17.7748 9.83737 17.7253 9.82499ZM2.83484 3.57197H2.82773L2.8207 3.57297C2.62276 3.60125 2.46698 3.74883 2.46698 3.96215C2.46698 4.17362 2.64568 4.35233 2.85716 4.35233C2.99554 4.35233 3.64385 4.37422 4.25444 4.73465C4.85681 5.09024 5.43575 5.78264 5.43575 7.15413C5.43575 7.36293 5.60995 7.53978 5.81791 7.54422C5.92066 7.5582 6.0152 7.51364 6.08079 7.44806C6.14851 7.38034 6.19379 7.28283 6.19379 7.17645C6.19379 5.80538 6.77793 5.11286 7.3833 4.75707C7.99686 4.39647 8.64539 4.37465 8.77237 4.37465H8.7947C9.01095 4.37465 9.18488 4.19105 9.18488 3.96215C9.18488 3.75067 9.00618 3.57197 8.7947 3.57197C8.66771 3.57197 8.01919 3.55015 7.40562 3.18954C6.80025 2.83375 6.21611 2.14123 6.21611 0.770161C6.21611 0.558681 6.03741 0.37998 5.82593 0.37998C5.61445 0.37998 5.43575 0.558681 5.43575 0.770161C5.43575 2.14123 4.85161 2.83375 4.24623 3.18954C3.63267 3.55015 2.98415 3.57197 2.85716 3.57197H2.83484ZM0.267859 13.639H0.260752L0.253717 13.64C0.0557852 13.6683 -0.1 13.8159 -0.1 14.0292C-0.1 14.2407 0.0787005 14.4194 0.29018 14.4194C0.428559 14.4194 1.07687 14.4412 1.68746 14.8017C2.28984 15.1573 2.86877 15.8497 2.86877 17.2212C2.86877 17.4274 3.03874 17.6025 3.24332 17.611C3.34742 17.6389 3.44596 17.5997 3.51381 17.5318C3.58434 17.4613 3.62681 17.357 3.62681 17.2435C3.62681 15.8724 4.21095 15.1799 4.81632 14.8241C5.42988 14.4635 6.07841 14.4417 6.20539 14.4417H6.22772C6.44397 14.4417 6.6179 14.2581 6.6179 14.0292C6.6179 13.8177 6.4392 13.639 6.22772 13.639C6.10073 13.639 5.45221 13.6172 4.83864 13.2566C4.23327 12.9008 3.64913 12.2083 3.64913 10.8372C3.64913 10.6257 3.47043 10.447 3.25895 10.447C3.04747 10.447 2.86877 10.6257 2.86877 10.8372C2.86877 12.2083 2.28463 12.9008 1.67925 13.2566C1.06569 13.6172 0.417167 13.639 0.29018 13.639H0.267859ZM15.6539 10.2122C14.4951 10.6415 13.1355 11.5201 12.4778 13.3337C11.82 11.5201 10.4604 10.6415 9.30163 10.2122C10.4604 9.78282 11.82 8.9043 12.4778 7.09066C13.1355 8.9043 14.4951 9.78283 15.6539 10.2122ZM7.17437 3.95998C6.63457 4.22901 6.14003 4.67196 5.80552 5.31293C5.4667 4.64248 4.94452 4.22674 4.43284 3.96431C4.97264 3.69528 5.46718 3.25233 5.80169 2.61136C6.14052 3.28181 6.66269 3.69756 7.17437 3.95998ZM4.60739 14.0493C4.06642 14.3189 3.5709 14.7632 3.23636 15.4065C2.88499 14.7347 2.3762 14.3175 1.86553 14.0538C2.40546 13.7848 2.90014 13.3418 3.23471 12.7007C3.57354 13.3712 4.09571 13.7869 4.60739 14.0493Z" fill="white" stroke="white" stroke-width="0.2"/>
</g>
<defs>
<clipPath id="clip0_523_43179">
<rect width="18" height="18" fill="white"/>
</clipPath>
</defs>
</svg>
