<svg width="22" height="21" viewBox="0 0 22 21" fill="none" xmlns="http://www.w3.org/2000/svg">
<path d="M15.6753 3.57936L18.167 5.95777M17.2776 1.48407L10.54 7.91824C10.1919 8.25023 9.95449 8.6732 9.8577 9.13385L9.23535 12.1088L12.3506 11.5134C12.833 11.4213 13.2753 11.1954 13.6235 10.8629L20.3611 4.42871C20.5636 4.23536 20.7242 4.00583 20.8338 3.75321C20.9433 3.50058 20.9997 3.22983 20.9997 2.95639C20.9997 2.68296 20.9433 2.4122 20.8338 2.15958C20.7242 1.90696 20.5636 1.67742 20.3611 1.48407C20.1586 1.29072 19.9183 1.13735 19.6538 1.03271C19.3892 0.928071 19.1057 0.874214 18.8194 0.874214C18.533 0.874214 18.2495 0.928071 17.985 1.03271C17.7204 1.13735 17.4801 1.29072 17.2776 1.48407Z" stroke="#4B3AFF" stroke-width="1.6" stroke-linecap="round" stroke-linejoin="round"/>
<path d="M18.6469 14.3558V17.7262C18.6469 18.3222 18.399 18.8937 17.9577 19.3151C17.5165 19.7365 16.918 19.9732 16.294 19.9732H3.35292C2.72888 19.9732 2.13041 19.7365 1.68915 19.3151C1.2479 18.8937 1 18.3222 1 17.7262V5.36795C1 4.77202 1.2479 4.20049 1.68915 3.77911C2.13041 3.35772 2.72888 3.12099 3.35292 3.12099H6.88229" stroke="#4B3AFF" stroke-width="1.6" stroke-linecap="round" stroke-linejoin="round"/>
</svg>
