<svg width="17" height="13" viewBox="0 0 17 13" fill="none" xmlns="http://www.w3.org/2000/svg">
<path d="M1.41667 2.25004C1.41667 1.87432 1.56592 1.51398 1.8316 1.24831C2.09727 0.982629 2.45761 0.833374 2.83333 0.833374H14.1667C14.5424 0.833374 14.9027 0.982629 15.1684 1.24831C15.4341 1.51398 15.5833 1.87432 15.5833 2.25004V10.75C15.5833 11.1258 15.4341 11.4861 15.1684 11.7518C14.9027 12.0175 14.5424 12.1667 14.1667 12.1667H2.83333C2.45761 12.1667 2.09727 12.0175 1.8316 11.7518C1.56592 11.4861 1.41667 11.1258 1.41667 10.75V2.25004Z" stroke="#4B3AFF" stroke-width="1.41667" stroke-linecap="round" stroke-linejoin="round"/>
<path d="M1.41667 3.66675L6.72987 7.91746C7.23229 8.31944 7.85656 8.53845 8.5 8.53845C9.14344 8.53845 9.76771 8.31944 10.2701 7.91746L15.5833 3.66675" stroke="#4B3AFF" stroke-width="1.41667" stroke-linejoin="round"/>
</svg>
