<svg width="16" height="17" viewBox="0 0 16 17" fill="none" xmlns="http://www.w3.org/2000/svg">
<path d="M15.125 14.5417V9.21137C15.125 8.78186 15.0376 8.35683 14.8682 7.96214C14.6987 7.56746 14.4508 7.21137 14.1394 6.91554L9.09092 2.12042C8.79666 1.84087 8.40627 1.685 8.0004 1.685C7.59452 1.685 7.20414 1.84087 6.90988 2.12042L1.86062 6.91554C1.54922 7.21137 1.30126 7.56746 1.13182 7.96214C0.962378 8.35683 0.875 8.78186 0.875 9.21137V14.5417C0.875 14.9616 1.04181 15.3643 1.33875 15.6613C1.63568 15.9582 2.03841 16.125 2.45833 16.125H13.5417C13.9616 16.125 14.3643 15.9582 14.6613 15.6613C14.9582 15.3643 15.125 14.9616 15.125 14.5417Z" stroke="#4B3AFF" stroke-width="1.58333" stroke-linecap="round" stroke-linejoin="round"/>
</svg>
