<svg width="23" height="22" viewBox="0 0 23 22" fill="none" xmlns="http://www.w3.org/2000/svg">
<path d="M18.5993 4.58337C19.1463 4.58337 19.6709 4.80067 20.0577 5.18747C20.4445 5.57426 20.6618 6.09887 20.6618 6.64587V15.3588C20.6618 15.9058 20.4445 16.4304 20.0577 16.8172C19.6709 17.204 19.1463 17.4213 18.5993 17.4213H4.39551C4.12466 17.4213 3.85646 17.3679 3.60622 17.2643C3.35599 17.1606 3.12862 17.0087 2.9371 16.8172C2.74558 16.6257 2.59366 16.3983 2.49001 16.1481C2.38636 15.8978 2.33301 15.6296 2.33301 15.3588L2.33301 6.64587C2.33301 6.09887 2.55031 5.57426 2.9371 5.18747C3.32389 4.80067 3.8485 4.58337 4.39551 4.58337L18.5993 4.58337ZM18.5993 5.95837L4.39551 5.95837C4.21317 5.95837 4.0383 6.03081 3.90937 6.15974C3.78044 6.28867 3.70801 6.46354 3.70801 6.64587L3.70801 15.3588C3.70801 15.7383 4.01601 16.0463 4.39551 16.0463H18.5993C18.7816 16.0463 18.9565 15.9739 19.0854 15.8449C19.2143 15.716 19.2868 15.5411 19.2868 15.3588V6.64587C19.2868 6.46354 19.2143 6.28867 19.0854 6.15974C18.9565 6.03081 18.7816 5.95837 18.5993 5.95837ZM6.68717 13.2917H16.3122C16.4864 13.2918 16.654 13.3579 16.7813 13.4768C16.9086 13.5958 16.986 13.7586 16.9979 13.9323C17.0097 14.1061 16.9552 14.2779 16.8453 14.4131C16.7354 14.5482 16.5782 14.6365 16.4057 14.6603L16.3122 14.6667H6.68717C6.51299 14.6667 6.34531 14.6005 6.21803 14.4816C6.09075 14.3626 6.01336 14.1999 6.00148 14.0261C5.98961 13.8523 6.04415 13.6805 6.15407 13.5454C6.264 13.4102 6.42111 13.3219 6.59367 13.2981L6.68717 13.2917ZM15.6247 10.0834C15.8678 10.0834 16.1009 10.18 16.2729 10.3519C16.4448 10.5238 16.5413 10.7569 16.5413 11C16.5413 11.2432 16.4448 11.4763 16.2729 11.6482C16.1009 11.8201 15.8678 11.9167 15.6247 11.9167C15.3816 11.9167 15.1484 11.8201 14.9765 11.6482C14.8046 11.4763 14.708 11.2432 14.708 11C14.708 10.7569 14.8046 10.5238 14.9765 10.3519C15.1484 10.18 15.3816 10.0834 15.6247 10.0834ZM10.1293 10.0834C10.3724 10.0834 10.6055 10.18 10.7774 10.3519C10.9493 10.5238 11.0459 10.7569 11.0459 11C11.0459 11.2432 10.9493 11.4763 10.7774 11.6482C10.6055 11.8201 10.3724 11.9167 10.1293 11.9167C9.88614 11.9167 9.65299 11.8201 9.48108 11.6482C9.30917 11.4763 9.21259 11.2432 9.21259 11C9.21259 10.7569 9.30917 10.5238 9.48108 10.3519C9.65299 10.18 9.88614 10.0834 10.1293 10.0834ZM7.37926 10.0834C7.62237 10.0834 7.85553 10.18 8.02744 10.3519C8.19935 10.5238 8.29592 10.7569 8.29592 11C8.29592 11.2432 8.19935 11.4763 8.02744 11.6482C7.85553 11.8201 7.62237 11.9167 7.37926 11.9167C7.13614 11.9167 6.90298 11.8201 6.73108 11.6482C6.55917 11.4763 6.46259 11.2432 6.46259 11C6.46259 10.7569 6.55917 10.5238 6.73108 10.3519C6.90298 10.18 7.13614 10.0834 7.37926 10.0834ZM12.8793 10.0834C13.1224 10.0834 13.3555 10.18 13.5274 10.3519C13.6993 10.5238 13.7959 10.7569 13.7959 11C13.7959 11.2432 13.6993 11.4763 13.5274 11.6482C13.3555 11.8201 13.1224 11.9167 12.8793 11.9167C12.6361 11.9167 12.403 11.8201 12.2311 11.6482C12.0592 11.4763 11.9626 11.2432 11.9626 11C11.9626 10.7569 12.0592 10.5238 12.2311 10.3519C12.403 10.18 12.6361 10.0834 12.8793 10.0834ZM5.99967 7.33337C6.24279 7.33337 6.47595 7.42995 6.64786 7.60186C6.81976 7.77377 6.91634 8.00693 6.91634 8.25004C6.91634 8.49316 6.81976 8.72631 6.64786 8.89822C6.47595 9.07013 6.24279 9.16671 5.99967 9.16671C5.75656 9.16671 5.5234 9.07013 5.35149 8.89822C5.17959 8.72631 5.08301 8.49316 5.08301 8.25004C5.08301 8.00693 5.17959 7.77377 5.35149 7.60186C5.5234 7.42995 5.75656 7.33337 5.99967 7.33337ZM8.74509 7.33337C8.98821 7.33337 9.22136 7.42995 9.39327 7.60186C9.56518 7.77377 9.66176 8.00693 9.66176 8.25004C9.66176 8.49316 9.56518 8.72631 9.39327 8.89822C9.22136 9.07013 8.98821 9.16671 8.74509 9.16671C8.50198 9.16671 8.26882 9.07013 8.09691 8.89822C7.925 8.72631 7.82842 8.49316 7.82842 8.25004C7.82842 8.00693 7.925 7.77377 8.09691 7.60186C8.26882 7.42995 8.50198 7.33337 8.74509 7.33337ZM11.4951 7.33337C11.7382 7.33337 11.9714 7.42995 12.1433 7.60186C12.3152 7.77377 12.4118 8.00693 12.4118 8.25004C12.4118 8.49316 12.3152 8.72631 12.1433 8.89822C11.9714 9.07013 11.7382 9.16671 11.4951 9.16671C11.252 9.16671 11.0188 9.07013 10.8469 8.89822C10.675 8.72631 10.5784 8.49316 10.5784 8.25004C10.5784 8.00693 10.675 7.77377 10.8469 7.60186C11.0188 7.42995 11.252 7.33337 11.4951 7.33337ZM14.2451 7.33337C14.4882 7.33337 14.7214 7.42995 14.8933 7.60186C15.0652 7.77377 15.1618 8.00693 15.1618 8.25004C15.1618 8.49316 15.0652 8.72631 14.8933 8.89822C14.7214 9.07013 14.4882 9.16671 14.2451 9.16671C14.002 9.16671 13.7688 9.07013 13.5969 8.89822C13.425 8.72631 13.3284 8.49316 13.3284 8.25004C13.3284 8.00693 13.425 7.77377 13.5969 7.60186C13.7688 7.42995 14.002 7.33337 14.2451 7.33337ZM16.9951 7.33337C17.2382 7.33337 17.4714 7.42995 17.6433 7.60186C17.8152 7.77377 17.9118 8.00693 17.9118 8.25004C17.9118 8.49316 17.8152 8.72631 17.6433 8.89822C17.4714 9.07013 17.2382 9.16671 16.9951 9.16671C16.752 9.16671 16.5188 9.07013 16.3469 8.89822C16.175 8.72631 16.0784 8.49316 16.0784 8.25004C16.0784 8.00693 16.175 7.77377 16.3469 7.60186C16.5188 7.42995 16.752 7.33337 16.9951 7.33337Z" fill="#4B3AFF"/>
</svg>
