<svg width="19" height="14" viewBox="0 0 19 14" fill="none" xmlns="http://www.w3.org/2000/svg">
<path d="M16.5993 0.583313C17.1463 0.583313 17.6709 0.800612 18.0577 1.18741C18.4445 1.5742 18.6618 2.0988 18.6618 2.64581V11.3587C18.6618 11.9057 18.4445 12.4303 18.0577 12.8171C17.6709 13.2039 17.1463 13.4212 16.5993 13.4212L2.39551 13.4212C2.12466 13.4212 1.85646 13.3679 1.60622 13.2642C1.35599 13.1606 1.12862 13.0087 0.9371 12.8171C0.745579 12.6256 0.593657 12.3982 0.490006 12.148C0.386356 11.8978 0.333008 11.6296 0.333008 11.3587L0.333008 2.64581C0.333008 2.0988 0.550306 1.5742 0.9371 1.18741C1.32389 0.800612 1.8485 0.583313 2.39551 0.583313L16.5993 0.583313ZM16.5993 1.95831L2.39551 1.95831C2.21317 1.95831 2.0383 2.03075 1.90937 2.15968C1.78044 2.28861 1.70801 2.46348 1.70801 2.64581L1.70801 11.3587C1.70801 11.7382 2.01601 12.0462 2.39551 12.0462L16.5993 12.0462C16.7816 12.0462 16.9565 11.9738 17.0854 11.8449C17.2143 11.7159 17.2868 11.5411 17.2868 11.3587V2.64581C17.2868 2.46348 17.2143 2.28861 17.0854 2.15968C16.9565 2.03075 16.7816 1.95831 16.5993 1.95831ZM4.68717 9.29165H14.3122C14.4864 9.2917 14.654 9.35787 14.7813 9.47679C14.9086 9.59571 14.986 9.7585 14.9979 9.93229C15.0097 10.1061 14.9552 10.2779 14.8453 10.413C14.7354 10.5481 14.5782 10.6365 14.4057 10.6602L14.3122 10.6666H4.68717C4.51299 10.6666 4.34531 10.6004 4.21803 10.4815C4.09075 10.3626 4.01336 10.1998 4.00148 10.026C3.98961 9.85222 4.04415 9.68041 4.15407 9.54529C4.264 9.41017 4.42111 9.32181 4.59367 9.29806L4.68717 9.29165ZM13.6247 6.08331C13.8678 6.08331 14.1009 6.17989 14.2729 6.3518C14.4448 6.52371 14.5413 6.75686 14.5413 6.99998C14.5413 7.24309 14.4448 7.47625 14.2729 7.64816C14.1009 7.82007 13.8678 7.91665 13.6247 7.91665C13.3816 7.91665 13.1484 7.82007 12.9765 7.64816C12.8046 7.47625 12.708 7.24309 12.708 6.99998C12.708 6.75686 12.8046 6.52371 12.9765 6.3518C13.1484 6.17989 13.3816 6.08331 13.6247 6.08331ZM8.12926 6.08331C8.37237 6.08331 8.60553 6.17989 8.77744 6.3518C8.94935 6.52371 9.04593 6.75686 9.04593 6.99998C9.04593 7.24309 8.94935 7.47625 8.77744 7.64816C8.60553 7.82007 8.37237 7.91665 8.12926 7.91665C7.88614 7.91665 7.65299 7.82007 7.48108 7.64816C7.30917 7.47625 7.21259 7.24309 7.21259 6.99998C7.21259 6.75686 7.30917 6.52371 7.48108 6.3518C7.65299 6.17989 7.88614 6.08331 8.12926 6.08331ZM5.37926 6.08331C5.62237 6.08331 5.85553 6.17989 6.02744 6.3518C6.19935 6.52371 6.29592 6.75686 6.29592 6.99998C6.29592 7.24309 6.19935 7.47625 6.02744 7.64816C5.85553 7.82007 5.62237 7.91665 5.37926 7.91665C5.13614 7.91665 4.90299 7.82007 4.73108 7.64816C4.55917 7.47625 4.46259 7.24309 4.46259 6.99998C4.46259 6.75686 4.55917 6.52371 4.73108 6.3518C4.90299 6.17989 5.13614 6.08331 5.37926 6.08331ZM10.8793 6.08331C11.1224 6.08331 11.3555 6.17989 11.5274 6.3518C11.6993 6.52371 11.7959 6.75686 11.7959 6.99998C11.7959 7.24309 11.6993 7.47625 11.5274 7.64816C11.3555 7.82007 11.1224 7.91665 10.8793 7.91665C10.6361 7.91665 10.403 7.82007 10.2311 7.64816C10.0592 7.47625 9.96259 7.24309 9.96259 6.99998C9.96259 6.75686 10.0592 6.52371 10.2311 6.3518C10.403 6.17989 10.6361 6.08331 10.8793 6.08331ZM3.99967 3.33331C4.24279 3.33331 4.47595 3.42989 4.64786 3.6018C4.81976 3.77371 4.91634 4.00686 4.91634 4.24998C4.91634 4.49309 4.81976 4.72625 4.64786 4.89816C4.47595 5.07007 4.24279 5.16665 3.99967 5.16665C3.75656 5.16665 3.5234 5.07007 3.35149 4.89816C3.17959 4.72625 3.08301 4.49309 3.08301 4.24998C3.08301 4.00686 3.17959 3.77371 3.35149 3.6018C3.5234 3.42989 3.75656 3.33331 3.99967 3.33331ZM6.74509 3.33331C6.98821 3.33331 7.22136 3.42989 7.39327 3.6018C7.56518 3.77371 7.66176 4.00686 7.66176 4.24998C7.66176 4.49309 7.56518 4.72625 7.39327 4.89816C7.22136 5.07007 6.98821 5.16665 6.74509 5.16665C6.50198 5.16665 6.26882 5.07007 6.09691 4.89816C5.925 4.72625 5.82842 4.49309 5.82842 4.24998C5.82842 4.00686 5.925 3.77371 6.09691 3.6018C6.26882 3.42989 6.50198 3.33331 6.74509 3.33331ZM9.49509 3.33331C9.73821 3.33331 9.97136 3.42989 10.1433 3.6018C10.3152 3.77371 10.4118 4.00686 10.4118 4.24998C10.4118 4.49309 10.3152 4.72625 10.1433 4.89816C9.97136 5.07007 9.73821 5.16665 9.49509 5.16665C9.25198 5.16665 9.01882 5.07007 8.84691 4.89816C8.675 4.72625 8.57842 4.49309 8.57842 4.24998C8.57842 4.00686 8.675 3.77371 8.84691 3.6018C9.01882 3.42989 9.25198 3.33331 9.49509 3.33331ZM12.2451 3.33331C12.4882 3.33331 12.7214 3.42989 12.8933 3.6018C13.0652 3.77371 13.1618 4.00686 13.1618 4.24998C13.1618 4.49309 13.0652 4.72625 12.8933 4.89816C12.7214 5.07007 12.4882 5.16665 12.2451 5.16665C12.002 5.16665 11.7688 5.07007 11.5969 4.89816C11.425 4.72625 11.3284 4.49309 11.3284 4.24998C11.3284 4.00686 11.425 3.77371 11.5969 3.6018C11.7688 3.42989 12.002 3.33331 12.2451 3.33331ZM14.9951 3.33331C15.2382 3.33331 15.4714 3.42989 15.6433 3.6018C15.8152 3.77371 15.9118 4.00686 15.9118 4.24998C15.9118 4.49309 15.8152 4.72625 15.6433 4.89816C15.4714 5.07007 15.2382 5.16665 14.9951 5.16665C14.752 5.16665 14.5188 5.07007 14.3469 4.89816C14.175 4.72625 14.0784 4.49309 14.0784 4.24998C14.0784 4.00686 14.175 3.77371 14.3469 3.6018C14.5188 3.42989 14.752 3.33331 14.9951 3.33331Z" fill="#CCCCCC"/>
</svg>
