<svg width="130" height="31" viewBox="0 0 130 31" fill="none" xmlns="http://www.w3.org/2000/svg">
<path fill-rule="evenodd" clip-rule="evenodd" d="M27.1692 13.5813C27.1692 11.7797 26.8103 10.0011 26.1154 8.337C25.4206 6.68051 24.405 5.16906 23.1222 3.90952C21.8394 2.64234 20.3199 1.64998 18.6477 0.97822C16.9754 0.306464 15.1887 -0.0217804 13.3866 0.00112041C6.07155 0.100357 0.100386 6.06982 0.00112073 13.3828C-0.0217866 15.1843 0.306551 16.9706 0.978498 18.6423C1.65045 20.3141 2.6431 21.8332 3.91063 23.1156C5.17053 24.3981 6.68241 25.4133 8.33937 26.108C10.004 26.8026 11.7831 27.1614 13.5851 27.1614V29.3828C13.5851 29.5202 13.6233 29.6652 13.6997 29.7797C13.776 29.9019 13.8829 30.0011 14.0127 30.0622C14.1426 30.1233 14.2876 30.1462 14.4251 30.1309C14.5702 30.1156 14.7 30.0622 14.8145 29.9706L21.2744 24.7721C21.4118 24.6754 21.5492 24.5762 21.6867 24.4744C21.8241 24.3726 21.959 24.2683 22.0914 24.1614C22.2237 24.0546 22.3535 23.9451 22.4808 23.8332C22.6132 23.7212 22.7404 23.6093 22.8626 23.4973C23.5422 22.8637 24.153 22.1614 24.6875 21.4057C25.222 20.65 25.6802 19.8332 26.0467 18.9859C26.4132 18.1385 26.6957 17.2454 26.8866 16.337C27.0699 15.4362 27.1692 14.5049 27.1692 13.5813Z" fill="#4B3AFF"/>
<path d="M7.11765 10.963C7.11765 10.3065 7.65216 9.77211 8.30883 9.77211H10.485C11.1417 9.77211 11.6762 10.3065 11.6762 10.963C11.6762 11.6194 11.1417 12.1462 10.485 12.1462H8.30883C7.65216 12.1462 7.11765 11.6194 7.11765 10.963Z" fill="white"/>
<path d="M7.11765 14.4897C7.11765 13.8332 7.65216 13.3065 8.30883 13.3065H18.8615C19.5181 13.3065 20.0526 13.8332 20.0526 14.4897C20.0526 15.1462 19.5181 15.6805 18.8615 15.6805H8.30883C7.65216 15.6805 7.11765 15.1462 7.11765 14.4897Z" fill="white"/>
<path fill-rule="evenodd" clip-rule="evenodd" d="M12.8292 16.8408H14.3334C14.6542 16.8332 14.9672 16.9477 15.1963 17.1767C15.4254 17.3981 15.5552 17.7034 15.5552 18.024C15.5552 18.3446 15.4254 18.6576 15.1963 18.879C14.9672 19.1004 14.6542 19.2225 14.3334 19.2149H12.8292C12.5085 19.2225 12.1954 19.1004 11.9664 18.879C11.7373 18.6576 11.6075 18.3446 11.6075 18.024C11.6075 17.7034 11.7373 17.3981 11.9664 17.1767C12.1954 16.9477 12.5085 16.8332 12.8292 16.8408Z" fill="white"/>
<path d="M39.7453 8.87135C39.6689 8.8459 39.5926 8.823 39.5162 8.80265C39.4347 8.78738 39.3559 8.77211 39.2795 8.75685C39.2031 8.74667 39.1242 8.73903 39.0428 8.73394C38.9664 8.72886 38.8875 8.72377 38.8061 8.71868C37.5614 8.71868 37.2942 9.71868 37.2942 10.6729V11.711H39.5926V14.2683H37.2942V22.0546H33.881V14.2683H31.995V11.711H33.8886V10.7187C33.8886 8.18433 34.8813 5.96295 38.3327 5.96295C38.913 5.96295 39.5162 6.02402 39.9743 6.16906L39.7453 8.87135ZM41.0052 22.0546V6.3599H44.4565V22.0546H41.0052Z" fill="#4B3AFF"/>
<path fill-rule="evenodd" clip-rule="evenodd" d="M57.3992 17.8179H49.9008C50.0001 18.963 51.1455 19.7721 52.3672 19.7721C53.4515 19.7721 54.1998 19.3141 54.6579 18.6881L57.025 20.1843C56.0476 21.5965 54.4288 22.3828 52.329 22.3828C49.2136 22.3828 46.6404 20.4133 46.6404 16.9248C46.6404 13.5431 49.0914 11.3828 52.2221 11.3828C55.2764 11.3828 57.4144 13.4744 57.4144 17.0088C57.4221 17.2759 57.4221 17.566 57.3992 17.8179ZM54.2838 15.6958C54.2838 14.6194 53.5965 13.7263 52.245 13.7263C50.9393 13.7263 49.9848 14.6423 49.9008 15.6958H54.2838Z" fill="#4B3AFF"/>
<path d="M66.1421 22.0546L63.9201 18.879L61.637 22.0546H57.6893L61.8203 16.6347L58.0787 11.711H62.0493L63.9812 14.4744L65.9359 11.711H69.7767L66.0581 16.6347L70.1509 22.0546H66.1421Z" fill="#4B3AFF"/>
<path d="M77.5041 14.7645C76.962 14.2454 76.1755 13.8332 75.3432 13.8332C74.7018 13.8332 74.0527 14.0622 74.0527 14.6576C74.0527 15.2454 74.6178 15.4057 75.9464 15.6958C77.527 16.0546 79.2527 16.8408 79.2527 18.8561C79.2527 21.4744 76.9467 22.3828 74.824 22.3828C73.1441 22.3828 71.3955 21.8255 70.3189 20.7874L72.2278 18.7721C72.8234 19.4362 73.7626 19.9401 74.7552 19.9401C75.3203 19.9401 75.977 19.711 75.977 19.0469C75.977 18.3981 75.3356 18.192 73.9229 17.8637C72.4874 17.5278 70.9145 16.8026 70.9145 14.8484C70.9145 12.3752 73.2357 11.3828 75.2134 11.3828C76.7482 11.3828 78.3517 11.879 79.3672 12.8332L77.5041 14.7645Z" fill="#4B3AFF"/>
<path fill-rule="evenodd" clip-rule="evenodd" d="M87.8124 22.3446C86.5449 22.3446 85.3231 21.8026 84.6741 20.9095H84.6359V27.0393H81.2304V11.711H84.4679V12.9782H84.529C85.1552 12.1462 86.3158 11.421 87.8353 11.421C90.8438 11.421 92.7375 13.9553 92.7375 16.8408C92.7375 19.7263 90.9278 22.3446 87.8124 22.3446ZM84.5137 16.8637C84.5137 18.2149 85.4682 19.5202 87.003 19.5202C88.6218 19.5202 89.4388 18.192 89.4388 16.8408C89.4312 15.5126 88.6218 14.2072 87.003 14.2072C85.4682 14.2072 84.5137 15.5584 84.5137 16.8637Z" fill="#4B3AFF"/>
<path fill-rule="evenodd" clip-rule="evenodd" d="M105.115 17.8179H97.6167C97.716 18.963 98.8614 19.7721 100.091 19.7721C101.167 19.7721 101.916 19.3141 102.374 18.6881L104.741 20.1843C103.764 21.5965 102.145 22.3828 100.045 22.3828C96.9295 22.3828 94.3562 20.4133 94.3562 16.9248C94.3562 13.5431 96.8073 11.3828 99.938 11.3828C102.992 11.3828 105.13 13.4744 105.13 17.0088C105.138 17.2759 105.138 17.566 105.115 17.8179ZM102 15.6958C102 14.6194 101.312 13.7263 99.9609 13.7263C98.6552 13.7263 97.7007 14.6423 97.6167 15.6958H102Z" fill="#4B3AFF"/>
<path fill-rule="evenodd" clip-rule="evenodd" d="M106.986 13.1233C108.192 11.9782 109.91 11.3828 111.598 11.3828C115.064 11.3828 116.355 13.0851 116.355 16.8408V22.0546H113.239V20.9553H113.178C112.659 21.8026 111.476 22.3065 110.246 22.3065C108.605 22.3065 106.489 21.4973 106.489 19.0622C106.489 16.0775 110.124 15.5736 113.133 15.5736V15.4133C113.133 14.3904 112.323 13.9172 111.269 13.9172C110.292 13.9172 109.338 14.3904 108.711 14.9706L106.986 13.1233ZM113.239 17.5507H112.804C111.308 17.5507 109.62 17.7416 109.62 18.963C109.62 19.7568 110.414 20.024 111.101 20.024C112.476 20.024 113.239 19.192 113.239 17.9095V17.5507Z" fill="#4B3AFF"/>
<path d="M130 22.0546H125.785L122.395 17.0927H122.334V22.0546H118.905V6.35227H122.334V15.9095H122.395L125.701 11.711H129.832L125.846 16.3828L130 22.0546Z" fill="#4B3AFF"/>
</svg>
