<svg width="18" height="18" viewBox="0 0 18 18" fill="none" xmlns="http://www.w3.org/2000/svg">
<mask id="path-1-inside-1_80_15689" fill="white">
<path fill-rule="evenodd" clip-rule="evenodd" d="M9.14343 1.125C6.97049 1.125 5.20593 2.88956 5.20593 5.0625C5.20593 7.23544 6.97049 9 9.14343 9C11.3164 9 13.0809 7.23544 13.0809 5.0625C13.0809 2.88956 11.3164 1.125 9.14343 1.125ZM9.14343 2.25C10.6959 2.25 11.9559 3.51 11.9559 5.0625C11.9559 6.615 10.6959 7.875 9.14343 7.875C7.59093 7.875 6.33093 6.615 6.33093 5.0625C6.33093 3.51 7.59093 2.25 9.14343 2.25Z"/>
</mask>
<path fill-rule="evenodd" clip-rule="evenodd" d="M9.14343 1.125C6.97049 1.125 5.20593 2.88956 5.20593 5.0625C5.20593 7.23544 6.97049 9 9.14343 9C11.3164 9 13.0809 7.23544 13.0809 5.0625C13.0809 2.88956 11.3164 1.125 9.14343 1.125ZM9.14343 2.25C10.6959 2.25 11.9559 3.51 11.9559 5.0625C11.9559 6.615 10.6959 7.875 9.14343 7.875C7.59093 7.875 6.33093 6.615 6.33093 5.0625C6.33093 3.51 7.59093 2.25 9.14343 2.25Z" fill="#4B3AFF"/>
<path d="M9.14343 -0.375C6.14207 -0.375 3.70593 2.06114 3.70593 5.0625H6.70593C6.70593 3.71799 7.79892 2.625 9.14343 2.625V-0.375ZM3.70593 5.0625C3.70593 8.06386 6.14207 10.5 9.14343 10.5V7.5C7.79892 7.5 6.70593 6.40701 6.70593 5.0625H3.70593ZM9.14343 10.5C12.1448 10.5 14.5809 8.06386 14.5809 5.0625H11.5809C11.5809 6.40701 10.4879 7.5 9.14343 7.5V10.5ZM14.5809 5.0625C14.5809 2.06114 12.1448 -0.375 9.14343 -0.375V2.625C10.4879 2.625 11.5809 3.71799 11.5809 5.0625H14.5809ZM9.14343 3.75C9.86751 3.75 10.4559 4.33843 10.4559 5.0625H13.4559C13.4559 2.68157 11.5244 0.75 9.14343 0.75V3.75ZM10.4559 5.0625C10.4559 5.78657 9.86751 6.375 9.14343 6.375V9.375C11.5244 9.375 13.4559 7.44343 13.4559 5.0625H10.4559ZM9.14343 6.375C8.41936 6.375 7.83093 5.78657 7.83093 5.0625H4.83093C4.83093 7.44343 6.7625 9.375 9.14343 9.375V6.375ZM7.83093 5.0625C7.83093 4.33843 8.41936 3.75 9.14343 3.75V0.75C6.7625 0.75 4.83093 2.68157 4.83093 5.0625H7.83093Z" fill="#4B3AFF" mask="url(#path-1-inside-1_80_15689)"/>
<mask id="path-3-inside-2_80_15689" fill="white">
<path fill-rule="evenodd" clip-rule="evenodd" d="M2.39343 15.75H9.14343C9.45393 15.75 9.70593 16.002 9.70593 16.3125C9.70593 16.623 9.45393 16.875 9.14343 16.875H1.83093C1.52043 16.875 1.26843 16.623 1.26843 16.3125C1.26843 16.3125 1.26843 15.8484 1.26843 15.1875C1.26843 12.3913 3.53474 10.125 6.33093 10.125H9C9.3105 10.125 9.5625 10.377 9.5625 10.6875C9.5625 10.998 9.3105 11.25 9 11.25H6.33093C4.15631 11.25 2.39343 13.0129 2.39343 15.1875V15.75Z"/>
</mask>
<path fill-rule="evenodd" clip-rule="evenodd" d="M2.39343 15.75H9.14343C9.45393 15.75 9.70593 16.002 9.70593 16.3125C9.70593 16.623 9.45393 16.875 9.14343 16.875H1.83093C1.52043 16.875 1.26843 16.623 1.26843 16.3125C1.26843 16.3125 1.26843 15.8484 1.26843 15.1875C1.26843 12.3913 3.53474 10.125 6.33093 10.125H9C9.3105 10.125 9.5625 10.377 9.5625 10.6875C9.5625 10.998 9.3105 11.25 9 11.25H6.33093C4.15631 11.25 2.39343 13.0129 2.39343 15.1875V15.75Z" fill="#4B3AFF"/>
<path d="M2.39343 15.75H0.893433V17.25H2.39343V15.75ZM2.39343 17.25H9.14343V14.25H2.39343V17.25ZM9.14343 17.25C8.6255 17.25 8.20593 16.8304 8.20593 16.3125H11.2059C11.2059 15.1736 10.2824 14.25 9.14343 14.25V17.25ZM8.20593 16.3125C8.20593 15.7946 8.6255 15.375 9.14343 15.375V18.375C10.2824 18.375 11.2059 17.4514 11.2059 16.3125H8.20593ZM9.14343 15.375H1.83093V18.375H9.14343V15.375ZM1.83093 15.375C2.34886 15.375 2.76843 15.7946 2.76843 16.3125H-0.231567C-0.231567 17.4514 0.692006 18.375 1.83093 18.375V15.375ZM1.26843 16.3125C2.76843 16.3125 2.76843 16.3125 2.76843 16.3125C2.76843 16.3125 2.76843 16.3125 2.76843 16.3125C2.76843 16.3125 2.76843 16.3125 2.76843 16.3125C2.76843 16.3124 2.76843 16.3124 2.76843 16.3124C2.76843 16.3124 2.76843 16.3124 2.76843 16.3124C2.76843 16.3123 2.76843 16.3123 2.76843 16.3123C2.76843 16.3123 2.76843 16.3123 2.76843 16.3122C2.76843 16.3122 2.76843 16.3122 2.76843 16.3122C2.76843 16.3121 2.76843 16.3121 2.76843 16.3121C2.76843 16.312 2.76843 16.312 2.76843 16.312C2.76843 16.3119 2.76843 16.3119 2.76843 16.3119C2.76843 16.3118 2.76843 16.3118 2.76843 16.3117C2.76843 16.3117 2.76843 16.3117 2.76843 16.3116C2.76843 16.3116 2.76843 16.3115 2.76843 16.3115C2.76843 16.3114 2.76843 16.3114 2.76843 16.3113C2.76843 16.3113 2.76843 16.3112 2.76843 16.3111C2.76843 16.3111 2.76843 16.311 2.76843 16.311C2.76843 16.3109 2.76843 16.3109 2.76843 16.3108C2.76843 16.3107 2.76843 16.3107 2.76843 16.3106C2.76843 16.3105 2.76843 16.3105 2.76843 16.3104C2.76843 16.3103 2.76843 16.3102 2.76843 16.3102C2.76843 16.3101 2.76843 16.31 2.76843 16.31C2.76843 16.3099 2.76843 16.3098 2.76843 16.3097C2.76843 16.3096 2.76843 16.3096 2.76843 16.3095C2.76843 16.3094 2.76843 16.3093 2.76843 16.3092C2.76843 16.3091 2.76843 16.309 2.76843 16.3089C2.76843 16.3089 2.76843 16.3088 2.76843 16.3087C2.76843 16.3086 2.76843 16.3085 2.76843 16.3084C2.76843 16.3083 2.76843 16.3082 2.76843 16.3081C2.76843 16.308 2.76843 16.3079 2.76843 16.3078C2.76843 16.3077 2.76843 16.3076 2.76843 16.3075C2.76843 16.3073 2.76843 16.3072 2.76843 16.3071C2.76843 16.307 2.76843 16.3069 2.76843 16.3068C2.76843 16.3067 2.76843 16.3066 2.76843 16.3064C2.76843 16.3063 2.76843 16.3062 2.76843 16.3061C2.76843 16.306 2.76843 16.3058 2.76843 16.3057C2.76843 16.3056 2.76843 16.3055 2.76843 16.3053C2.76843 16.3052 2.76843 16.3051 2.76843 16.3049C2.76843 16.3048 2.76843 16.3047 2.76843 16.3045C2.76843 16.3044 2.76843 16.3043 2.76843 16.3041C2.76843 16.304 2.76843 16.3039 2.76843 16.3037C2.76843 16.3036 2.76843 16.3034 2.76843 16.3033C2.76843 16.3031 2.76843 16.303 2.76843 16.3028C2.76843 16.3027 2.76843 16.3025 2.76843 16.3024C2.76843 16.3022 2.76843 16.3021 2.76843 16.3019C2.76843 16.3018 2.76843 16.3016 2.76843 16.3015C2.76843 16.3013 2.76843 16.3011 2.76843 16.301C2.76843 16.3008 2.76843 16.3006 2.76843 16.3005C2.76843 16.3003 2.76843 16.3002 2.76843 16.3C2.76843 16.2998 2.76843 16.2996 2.76843 16.2995C2.76843 16.2993 2.76843 16.2991 2.76843 16.299C2.76843 16.2988 2.76843 16.2986 2.76843 16.2984C2.76843 16.2982 2.76843 16.2981 2.76843 16.2979C2.76843 16.2977 2.76843 16.2975 2.76843 16.2973C2.76843 16.2971 2.76843 16.297 2.76843 16.2968C2.76843 16.2966 2.76843 16.2964 2.76843 16.2962C2.76843 16.296 2.76843 16.2958 2.76843 16.2956C2.76843 16.2954 2.76843 16.2952 2.76843 16.295C2.76843 16.2948 2.76843 16.2946 2.76843 16.2944C2.76843 16.2942 2.76843 16.294 2.76843 16.2938C2.76843 16.2936 2.76843 16.2934 2.76843 16.2932C2.76843 16.293 2.76843 16.2928 2.76843 16.2926C2.76843 16.2923 2.76843 16.2921 2.76843 16.2919C2.76843 16.2917 2.76843 16.2915 2.76843 16.2913C2.76843 16.2911 2.76843 16.2908 2.76843 16.2906C2.76843 16.2904 2.76843 16.2902 2.76843 16.2899C2.76843 16.2897 2.76843 16.2895 2.76843 16.2893C2.76843 16.289 2.76843 16.2888 2.76843 16.2886C2.76843 16.2883 2.76843 16.2881 2.76843 16.2879C2.76843 16.2876 2.76843 16.2874 2.76843 16.2872C2.76843 16.2869 2.76843 16.2867 2.76843 16.2864C2.76843 16.2862 2.76843 16.286 2.76843 16.2857C2.76843 16.2855 2.76843 16.2852 2.76843 16.285C2.76843 16.2847 2.76843 16.2845 2.76843 16.2842C2.76843 16.284 2.76843 16.2837 2.76843 16.2835C2.76843 16.2832 2.76843 16.283 2.76843 16.2827C2.76843 16.2824 2.76843 16.2822 2.76843 16.2819C2.76843 16.2817 2.76843 16.2814 2.76843 16.2811C2.76843 16.2809 2.76843 16.2806 2.76843 16.2803C2.76843 16.2801 2.76843 16.2798 2.76843 16.2795C2.76843 16.2793 2.76843 16.279 2.76843 16.2787C2.76843 16.2784 2.76843 16.2782 2.76843 16.2779C2.76843 16.2776 2.76843 16.2773 2.76843 16.2771C2.76843 16.2768 2.76843 16.2765 2.76843 16.2762C2.76843 16.2759 2.76843 16.2756 2.76843 16.2754C2.76843 16.2751 2.76843 16.2748 2.76843 16.2745C2.76843 16.2742 2.76843 16.2739 2.76843 16.2736C2.76843 16.2733 2.76843 16.273 2.76843 16.2727C2.76843 16.2724 2.76843 16.2721 2.76843 16.2718C2.76843 16.2715 2.76843 16.2712 2.76843 16.2709C2.76843 16.2706 2.76843 16.2703 2.76843 16.27C2.76843 16.2697 2.76843 16.2694 2.76843 16.2691C2.76843 16.2688 2.76843 16.2685 2.76843 16.2682C2.76843 16.2679 2.76843 16.2675 2.76843 16.2672C2.76843 16.2669 2.76843 16.2666 2.76843 16.2663C2.76843 16.266 2.76843 16.2656 2.76843 16.2653C2.76843 16.265 2.76843 16.2647 2.76843 16.2643C2.76843 16.264 2.76843 16.2637 2.76843 16.2634C2.76843 16.263 2.76843 16.2627 2.76843 16.2624C2.76843 16.262 2.76843 16.2617 2.76843 16.2614C2.76843 16.261 2.76843 16.2607 2.76843 16.2604C2.76843 16.26 2.76843 16.2597 2.76843 16.2594C2.76843 16.259 2.76843 16.2587 2.76843 16.2583C2.76843 16.258 2.76843 16.2576 2.76843 16.2573C2.76843 16.257 2.76843 16.2566 2.76843 16.2563C2.76843 16.2559 2.76843 16.2556 2.76843 16.2552C2.76843 16.2548 2.76843 16.2545 2.76843 16.2541C2.76843 16.2538 2.76843 16.2534 2.76843 16.2531C2.76843 16.2527 2.76843 16.2523 2.76843 16.252C2.76843 16.2516 2.76843 16.2513 2.76843 16.2509C2.76843 16.2505 2.76843 16.2502 2.76843 16.2498C2.76843 16.2494 2.76843 16.2491 2.76843 16.2487C2.76843 16.2483 2.76843 16.2479 2.76843 16.2476C2.76843 16.2472 2.76843 16.2468 2.76843 16.2464C2.76843 16.2461 2.76843 16.2457 2.76843 16.2453C2.76843 16.2449 2.76843 16.2445 2.76843 16.2441C2.76843 16.2438 2.76843 16.2434 2.76843 16.243C2.76843 16.2426 2.76843 16.2422 2.76843 16.2418C2.76843 16.2414 2.76843 16.241 2.76843 16.2406C2.76843 16.2403 2.76843 16.2399 2.76843 16.2395C2.76843 16.2391 2.76843 16.2387 2.76843 16.2383C2.76843 16.2379 2.76843 16.2375 2.76843 16.2371C2.76843 16.2367 2.76843 16.2363 2.76843 16.2359C2.76843 16.2355 2.76843 16.235 2.76843 16.2346C2.76843 16.2342 2.76843 16.2338 2.76843 16.2334C2.76843 16.233 2.76843 16.2326 2.76843 16.2322C2.76843 16.2318 2.76843 16.2313 2.76843 16.2309C2.76843 16.2305 2.76843 16.2301 2.76843 16.2297C2.76843 16.2292 2.76843 16.2288 2.76843 16.2284C2.76843 16.228 2.76843 16.2275 2.76843 16.2271C2.76843 16.2267 2.76843 16.2263 2.76843 16.2258C2.76843 16.2254 2.76843 16.225 2.76843 16.2245C2.76843 16.2241 2.76843 16.2237 2.76843 16.2232C2.76843 16.2228 2.76843 16.2224 2.76843 16.2219C2.76843 16.2215 2.76843 16.2211 2.76843 16.2206C2.76843 16.2202 2.76843 16.2197 2.76843 16.2193C2.76843 16.2188 2.76843 16.2184 2.76843 16.2179C2.76843 16.2175 2.76843 16.217 2.76843 16.2166C2.76843 16.2161 2.76843 16.2157 2.76843 16.2152C2.76843 16.2148 2.76843 16.2143 2.76843 16.2139C2.76843 16.2134 2.76843 16.213 2.76843 16.2125C2.76843 16.212 2.76843 16.2116 2.76843 16.2111C2.76843 16.2107 2.76843 16.2102 2.76843 16.2097C2.76843 16.2093 2.76843 16.2088 2.76843 16.2083C2.76843 16.2079 2.76843 16.2074 2.76843 16.2069C2.76843 16.2064 2.76843 16.206 2.76843 16.2055C2.76843 16.205 2.76843 16.2045 2.76843 16.2041C2.76843 16.2036 2.76843 16.2031 2.76843 16.2026C2.76843 16.2021 2.76843 16.2017 2.76843 16.2012C2.76843 16.2007 2.76843 16.2002 2.76843 16.1997C2.76843 16.1992 2.76843 16.1988 2.76843 16.1983C2.76843 16.1978 2.76843 16.1973 2.76843 16.1968C2.76843 16.1963 2.76843 16.1958 2.76843 16.1953C2.76843 16.1948 2.76843 16.1943 2.76843 16.1938C2.76843 16.1933 2.76843 16.1928 2.76843 16.1923C2.76843 16.1918 2.76843 16.1913 2.76843 16.1908C2.76843 16.1903 2.76843 16.1898 2.76843 16.1893C2.76843 16.1888 2.76843 16.1883 2.76843 16.1878C2.76843 16.1873 2.76843 16.1868 2.76843 16.1862C2.76843 16.1857 2.76843 16.1852 2.76843 16.1847C2.76843 16.1842 2.76843 16.1837 2.76843 16.1831C2.76843 16.1826 2.76843 16.1821 2.76843 16.1816C2.76843 16.1811 2.76843 16.1805 2.76843 16.18C2.76843 16.1795 2.76843 16.179 2.76843 16.1784C2.76843 16.1779 2.76843 16.1774 2.76843 16.1769C2.76843 16.1763 2.76843 16.1758 2.76843 16.1753C2.76843 16.1747 2.76843 16.1742 2.76843 16.1737C2.76843 16.1731 2.76843 16.1726 2.76843 16.172C2.76843 16.1715 2.76843 16.171 2.76843 16.1704C2.76843 16.1699 2.76843 16.1693 2.76843 16.1688C2.76843 16.1683 2.76843 16.1677 2.76843 16.1672C2.76843 16.1666 2.76843 16.1661 2.76843 16.1655C2.76843 16.165 2.76843 16.1644 2.76843 16.1639C2.76843 16.1633 2.76843 16.1628 2.76843 16.1622C2.76843 16.1616 2.76843 16.1611 2.76843 16.1605C2.76843 16.16 2.76843 16.1594 2.76843 16.1588C2.76843 16.1583 2.76843 16.1577 2.76843 16.1572C2.76843 16.1566 2.76843 16.156 2.76843 16.1555C2.76843 16.1549 2.76843 16.1543 2.76843 16.1538C2.76843 16.1532 2.76843 16.1526 2.76843 16.152C2.76843 16.1515 2.76843 16.1509 2.76843 16.1503C2.76843 16.1497 2.76843 16.1492 2.76843 16.1486C2.76843 16.148 2.76843 16.1474 2.76843 16.1468C2.76843 16.1463 2.76843 16.1457 2.76843 16.1451C2.76843 16.1445 2.76843 16.1439 2.76843 16.1433C2.76843 16.1428 2.76843 16.1422 2.76843 16.1416C2.76843 16.141 2.76843 16.1404 2.76843 16.1398C2.76843 16.1392 2.76843 16.1386 2.76843 16.138C2.76843 16.1374 2.76843 16.1368 2.76843 16.1362C2.76843 16.1356 2.76843 16.135 2.76843 16.1344C2.76843 16.1338 2.76843 16.1332 2.76843 16.1326C2.76843 16.132 2.76843 16.1314 2.76843 16.1308C2.76843 16.1302 2.76843 16.1296 2.76843 16.129C2.76843 16.1284 2.76843 16.1278 2.76843 16.1272C2.76843 16.1265 2.76843 16.1259 2.76843 16.1253C2.76843 16.1247 2.76843 16.1241 2.76843 16.1235C2.76843 16.1229 2.76843 16.1222 2.76843 16.1216C2.76843 16.121 2.76843 16.1204 2.76843 16.1197C2.76843 16.1191 2.76843 16.1185 2.76843 16.1179C2.76843 16.1173 2.76843 16.1166 2.76843 16.116C2.76843 16.1154 2.76843 16.1147 2.76843 16.1141C2.76843 16.1135 2.76843 16.1128 2.76843 16.1122C2.76843 16.1116 2.76843 16.1109 2.76843 16.1103C2.76843 16.1097 2.76843 16.109 2.76843 16.1084C2.76843 16.1077 2.76843 16.1071 2.76843 16.1065C2.76843 16.1058 2.76843 16.1052 2.76843 16.1045C2.76843 16.1039 2.76843 16.1032 2.76843 16.1026C2.76843 16.1019 2.76843 16.1013 2.76843 16.1006C2.76843 16.1 2.76843 16.0993 2.76843 16.0987C2.76843 16.098 2.76843 16.0974 2.76843 16.0967C2.76843 16.0961 2.76843 16.0954 2.76843 16.0948C2.76843 16.0941 2.76843 16.0934 2.76843 16.0928C2.76843 16.0921 2.76843 16.0915 2.76843 16.0908C2.76843 16.0901 2.76843 16.0895 2.76843 16.0888C2.76843 16.0881 2.76843 16.0875 2.76843 16.0868C2.76843 16.0861 2.76843 16.0855 2.76843 16.0848C2.76843 16.0841 2.76843 16.0834 2.76843 16.0828C2.76843 16.0821 2.76843 16.0814 2.76843 16.0807C2.76843 16.0801 2.76843 16.0794 2.76843 16.0787C2.76843 16.078 2.76843 16.0773 2.76843 16.0767C2.76843 16.076 2.76843 16.0753 2.76843 16.0746C2.76843 16.0739 2.76843 16.0732 2.76843 16.0725C2.76843 16.0719 2.76843 16.0712 2.76843 16.0705C2.76843 16.0698 2.76843 16.0691 2.76843 16.0684C2.76843 16.0677 2.76843 16.067 2.76843 16.0663C2.76843 16.0656 2.76843 16.0649 2.76843 16.0642C2.76843 16.0635 2.76843 16.0628 2.76843 16.0621C2.76843 16.0614 2.76843 16.0607 2.76843 16.06C2.76843 16.0593 2.76843 16.0586 2.76843 16.0579C2.76843 16.0572 2.76843 16.0565 2.76843 16.0558C2.76843 16.0551 2.76843 16.0544 2.76843 16.0536C2.76843 16.0529 2.76843 16.0522 2.76843 16.0515C2.76843 16.0508 2.76843 16.0501 2.76843 16.0494C2.76843 16.0486 2.76843 16.0479 2.76843 16.0472C2.76843 16.0465 2.76843 16.0458 2.76843 16.045C2.76843 16.0443 2.76843 16.0436 2.76843 16.0429C2.76843 16.0422 2.76843 16.0414 2.76843 16.0407C2.76843 16.04 2.76843 16.0392 2.76843 16.0385C2.76843 16.0378 2.76843 16.0371 2.76843 16.0363C2.76843 16.0356 2.76843 16.0349 2.76843 16.0341C2.76843 16.0334 2.76843 16.0326 2.76843 16.0319C2.76843 16.0312 2.76843 16.0304 2.76843 16.0297C2.76843 16.029 2.76843 16.0282 2.76843 16.0275C2.76843 16.0267 2.76843 16.026 2.76843 16.0252C2.76843 16.0245 2.76843 16.0237 2.76843 16.023C2.76843 16.0222 2.76843 16.0215 2.76843 16.0207C2.76843 16.02 2.76843 16.0192 2.76843 16.0185C2.76843 16.0177 2.76843 16.017 2.76843 16.0162C2.76843 16.0155 2.76843 16.0147 2.76843 16.014C2.76843 16.0132 2.76843 16.0124 2.76843 16.0117C2.76843 16.0109 2.76843 16.0102 2.76843 16.0094C2.76843 16.0086 2.76843 16.0079 2.76843 16.0071C2.76843 16.0063 2.76843 16.0056 2.76843 16.0048C2.76843 16.004 2.76843 16.0033 2.76843 16.0025C2.76843 16.0017 2.76843 16.0009 2.76843 16.0002C2.76843 15.9994 2.76843 15.9986 2.76843 15.9979C2.76843 15.9971 2.76843 15.9963 2.76843 15.9955C2.76843 15.9947 2.76843 15.994 2.76843 15.9932C2.76843 15.9924 2.76843 15.9916 2.76843 15.9908C2.76843 15.9901 2.76843 15.9893 2.76843 15.9885C2.76843 15.9877 2.76843 15.9869 2.76843 15.9861C2.76843 15.9853 2.76843 15.9845 2.76843 15.9837C2.76843 15.983 2.76843 15.9822 2.76843 15.9814C2.76843 15.9806 2.76843 15.9798 2.76843 15.979C2.76843 15.9782 2.76843 15.9774 2.76843 15.9766C2.76843 15.9758 2.76843 15.975 2.76843 15.9742C2.76843 15.9734 2.76843 15.9726 2.76843 15.9718C2.76843 15.971 2.76843 15.9702 2.76843 15.9694C2.76843 15.9686 2.76843 15.9678 2.76843 15.967C2.76843 15.9661 2.76843 15.9653 2.76843 15.9645C2.76843 15.9637 2.76843 15.9629 2.76843 15.9621C2.76843 15.9613 2.76843 15.9605 2.76843 15.9596C2.76843 15.9588 2.76843 15.958 2.76843 15.9572C2.76843 15.9564 2.76843 15.9556 2.76843 15.9547C2.76843 15.9539 2.76843 15.9531 2.76843 15.9523C2.76843 15.9514 2.76843 15.9506 2.76843 15.9498C2.76843 15.949 2.76843 15.9481 2.76843 15.9473C2.76843 15.9465 2.76843 15.9457 2.76843 15.9448C2.76843 15.944 2.76843 15.9432 2.76843 15.9423C2.76843 15.9415 2.76843 15.9407 2.76843 15.9398C2.76843 15.939 2.76843 15.9382 2.76843 15.9373C2.76843 15.9365 2.76843 15.9356 2.76843 15.9348C2.76843 15.934 2.76843 15.9331 2.76843 15.9323C2.76843 15.9314 2.76843 15.9306 2.76843 15.9298C2.76843 15.9289 2.76843 15.9281 2.76843 15.9272C2.76843 15.9264 2.76843 15.9255 2.76843 15.9247C2.76843 15.9238 2.76843 15.923 2.76843 15.9221C2.76843 15.9213 2.76843 15.9204 2.76843 15.9196C2.76843 15.9187 2.76843 15.9178 2.76843 15.917C2.76843 15.9161 2.76843 15.9153 2.76843 15.9144C2.76843 15.9136 2.76843 15.9127 2.76843 15.9118C2.76843 15.911 2.76843 15.9101 2.76843 15.9092C2.76843 15.9084 2.76843 15.9075 2.76843 15.9066C2.76843 15.9058 2.76843 15.9049 2.76843 15.904C2.76843 15.9032 2.76843 15.9023 2.76843 15.9014C2.76843 15.9006 2.76843 15.8997 2.76843 15.8988C2.76843 15.8979 2.76843 15.8971 2.76843 15.8962C2.76843 15.8953 2.76843 15.8944 2.76843 15.8936C2.76843 15.8927 2.76843 15.8918 2.76843 15.8909C2.76843 15.89 2.76843 15.8892 2.76843 15.8883C2.76843 15.8874 2.76843 15.8865 2.76843 15.8856C2.76843 15.8847 2.76843 15.8839 2.76843 15.883C2.76843 15.8821 2.76843 15.8812 2.76843 15.8803C2.76843 15.8794 2.76843 15.8785 2.76843 15.8776C2.76843 15.8767 2.76843 15.8758 2.76843 15.8749C2.76843 15.8741 2.76843 15.8732 2.76843 15.8723C2.76843 15.8714 2.76843 15.8705 2.76843 15.8696C2.76843 15.8687 2.76843 15.8678 2.76843 15.8669C2.76843 15.866 2.76843 15.8651 2.76843 15.8642C2.76843 15.8633 2.76843 15.8623 2.76843 15.8614C2.76843 15.8605 2.76843 15.8596 2.76843 15.8587C2.76843 15.8578 2.76843 15.8569 2.76843 15.856C2.76843 15.8551 2.76843 15.8542 2.76843 15.8533C2.76843 15.8523 2.76843 15.8514 2.76843 15.8505C2.76843 15.8496 2.76843 15.8487 2.76843 15.8478C2.76843 15.8468 2.76843 15.8459 2.76843 15.845C2.76843 15.8441 2.76843 15.8432 2.76843 15.8422C2.76843 15.8413 2.76843 15.8404 2.76843 15.8395C2.76843 15.8385 2.76843 15.8376 2.76843 15.8367C2.76843 15.8358 2.76843 15.8348 2.76843 15.8339C2.76843 15.833 2.76843 15.832 2.76843 15.8311C2.76843 15.8302 2.76843 15.8293 2.76843 15.8283C2.76843 15.8274 2.76843 15.8265 2.76843 15.8255C2.76843 15.8246 2.76843 15.8236 2.76843 15.8227C2.76843 15.8218 2.76843 15.8208 2.76843 15.8199C2.76843 15.8189 2.76843 15.818 2.76843 15.8171C2.76843 15.8161 2.76843 15.8152 2.76843 15.8142C2.76843 15.8133 2.76843 15.8123 2.76843 15.8114C2.76843 15.8104 2.76843 15.8095 2.76843 15.8085C2.76843 15.8076 2.76843 15.8066 2.76843 15.8057C2.76843 15.8047 2.76843 15.8038 2.76843 15.8028C2.76843 15.8019 2.76843 15.8009 2.76843 15.8C2.76843 15.799 2.76843 15.7981 2.76843 15.7971C2.76843 15.7961 2.76843 15.7952 2.76843 15.7942C2.76843 15.7933 2.76843 15.7923 2.76843 15.7913C2.76843 15.7904 2.76843 15.7894 2.76843 15.7884C2.76843 15.7875 2.76843 15.7865 2.76843 15.7856C2.76843 15.7846 2.76843 15.7836 2.76843 15.7826C2.76843 15.7817 2.76843 15.7807 2.76843 15.7797C2.76843 15.7788 2.76843 15.7778 2.76843 15.7768C2.76843 15.7758 2.76843 15.7749 2.76843 15.7739C2.76843 15.7729 2.76843 15.7719 2.76843 15.771C2.76843 15.77 2.76843 15.769 2.76843 15.768C2.76843 15.767 2.76843 15.7661 2.76843 15.7651C2.76843 15.7641 2.76843 15.7631 2.76843 15.7621C2.76843 15.7611 2.76843 15.7602 2.76843 15.7592C2.76843 15.7582 2.76843 15.7572 2.76843 15.7562C2.76843 15.7552 2.76843 15.7542 2.76843 15.7532C2.76843 15.7522 2.76843 15.7513 2.76843 15.7503C2.76843 15.7493 2.76843 15.7483 2.76843 15.7473C2.76843 15.7463 2.76843 15.7453 2.76843 15.7443C2.76843 15.7433 2.76843 15.7423 2.76843 15.7413C2.76843 15.7403 2.76843 15.7393 2.76843 15.7383C2.76843 15.7373 2.76843 15.7363 2.76843 15.7353C2.76843 15.7343 2.76843 15.7333 2.76843 15.7323C2.76843 15.7313 2.76843 15.7303 2.76843 15.7293C2.76843 15.7282 2.76843 15.7272 2.76843 15.7262C2.76843 15.7252 2.76843 15.7242 2.76843 15.7232C2.76843 15.7222 2.76843 15.7212 2.76843 15.7201C2.76843 15.7191 2.76843 15.7181 2.76843 15.7171C2.76843 15.7161 2.76843 15.7151 2.76843 15.714C2.76843 15.713 2.76843 15.712 2.76843 15.711C2.76843 15.71 2.76843 15.7089 2.76843 15.7079C2.76843 15.7069 2.76843 15.7059 2.76843 15.7049C2.76843 15.7038 2.76843 15.7028 2.76843 15.7018C2.76843 15.7007 2.76843 15.6997 2.76843 15.6987C2.76843 15.6977 2.76843 15.6966 2.76843 15.6956C2.76843 15.6946 2.76843 15.6935 2.76843 15.6925C2.76843 15.6915 2.76843 15.6904 2.76843 15.6894C2.76843 15.6884 2.76843 15.6873 2.76843 15.6863C2.76843 15.6853 2.76843 15.6842 2.76843 15.6832C2.76843 15.6821 2.76843 15.6811 2.76843 15.6801C2.76843 15.679 2.76843 15.678 2.76843 15.6769C2.76843 15.6759 2.76843 15.6748 2.76843 15.6738C2.76843 15.6727 2.76843 15.6717 2.76843 15.6707C2.76843 15.6696 2.76843 15.6686 2.76843 15.6675C2.76843 15.6665 2.76843 15.6654 2.76843 15.6644C2.76843 15.6633 2.76843 15.6622 2.76843 15.6612C2.76843 15.6601 2.76843 15.6591 2.76843 15.658C2.76843 15.657 2.76843 15.6559 2.76843 15.6549C2.76843 15.6538 2.76843 15.6527 2.76843 15.6517C2.76843 15.6506 2.76843 15.6496 2.76843 15.6485C2.76843 15.6474 2.76843 15.6464 2.76843 15.6453C2.76843 15.6442 2.76843 15.6432 2.76843 15.6421C2.76843 15.641 2.76843 15.64 2.76843 15.6389C2.76843 15.6378 2.76843 15.6368 2.76843 15.6357C2.76843 15.6346 2.76843 15.6336 2.76843 15.6325C2.76843 15.6314 2.76843 15.6303 2.76843 15.6293C2.76843 15.6282 2.76843 15.6271 2.76843 15.626C2.76843 15.625 2.76843 15.6239 2.76843 15.6228C2.76843 15.6217 2.76843 15.6207 2.76843 15.6196C2.76843 15.6185 2.76843 15.6174 2.76843 15.6163C2.76843 15.6153 2.76843 15.6142 2.76843 15.6131C2.76843 15.612 2.76843 15.6109 2.76843 15.6098C2.76843 15.6087 2.76843 15.6077 2.76843 15.6066C2.76843 15.6055 2.76843 15.6044 2.76843 15.6033C2.76843 15.6022 2.76843 15.6011 2.76843 15.6C2.76843 15.5989 2.76843 15.5978 2.76843 15.5968C2.76843 15.5957 2.76843 15.5946 2.76843 15.5935C2.76843 15.5924 2.76843 15.5913 2.76843 15.5902C2.76843 15.5891 2.76843 15.588 2.76843 15.5869C2.76843 15.5858 2.76843 15.5847 2.76843 15.5836C2.76843 15.5825 2.76843 15.5814 2.76843 15.5803C2.76843 15.5792 2.76843 15.5781 2.76843 15.577C2.76843 15.5759 2.76843 15.5748 2.76843 15.5736C2.76843 15.5725 2.76843 15.5714 2.76843 15.5703C2.76843 15.5692 2.76843 15.5681 2.76843 15.567C2.76843 15.5659 2.76843 15.5648 2.76843 15.5637C2.76843 15.5625 2.76843 15.5614 2.76843 15.5603C2.76843 15.5592 2.76843 15.5581 2.76843 15.557C2.76843 15.5558 2.76843 15.5547 2.76843 15.5536C2.76843 15.5525 2.76843 15.5514 2.76843 15.5502C2.76843 15.5491 2.76843 15.548 2.76843 15.5469C2.76843 15.5458 2.76843 15.5446 2.76843 15.5435C2.76843 15.5424 2.76843 15.5413 2.76843 15.5401C2.76843 15.539 2.76843 15.5379 2.76843 15.5368C2.76843 15.5356 2.76843 15.5345 2.76843 15.5334C2.76843 15.5322 2.76843 15.5311 2.76843 15.53C2.76843 15.5288 2.76843 15.5277 2.76843 15.5266C2.76843 15.5254 2.76843 15.5243 2.76843 15.5232C2.76843 15.522 2.76843 15.5209 2.76843 15.5198C2.76843 15.5186 2.76843 15.5175 2.76843 15.5163C2.76843 15.5152 2.76843 15.5141 2.76843 15.5129C2.76843 15.5118 2.76843 15.5106 2.76843 15.5095C2.76843 15.5083 2.76843 15.5072 2.76843 15.5061C2.76843 15.5049 2.76843 15.5038 2.76843 15.5026C2.76843 15.5015 2.76843 15.5003 2.76843 15.4992C2.76843 15.498 2.76843 15.4969 2.76843 15.4957C2.76843 15.4946 2.76843 15.4934 2.76843 15.4923C2.76843 15.4911 2.76843 15.49 2.76843 15.4888C2.76843 15.4877 2.76843 15.4865 2.76843 15.4853C2.76843 15.4842 2.76843 15.483 2.76843 15.4819C2.76843 15.4807 2.76843 15.4796 2.76843 15.4784C2.76843 15.4772 2.76843 15.4761 2.76843 15.4749C2.76843 15.4738 2.76843 15.4726 2.76843 15.4714C2.76843 15.4703 2.76843 15.4691 2.76843 15.4679C2.76843 15.4668 2.76843 15.4656 2.76843 15.4644C2.76843 15.4633 2.76843 15.4621 2.76843 15.4609C2.76843 15.4598 2.76843 15.4586 2.76843 15.4574C2.76843 15.4563 2.76843 15.4551 2.76843 15.4539C2.76843 15.4527 2.76843 15.4516 2.76843 15.4504C2.76843 15.4492 2.76843 15.448 2.76843 15.4469C2.76843 15.4457 2.76843 15.4445 2.76843 15.4433C2.76843 15.4422 2.76843 15.441 2.76843 15.4398C2.76843 15.4386 2.76843 15.4374 2.76843 15.4363C2.76843 15.4351 2.76843 15.4339 2.76843 15.4327C2.76843 15.4315 2.76843 15.4303 2.76843 15.4292C2.76843 15.428 2.76843 15.4268 2.76843 15.4256C2.76843 15.4244 2.76843 15.4232 2.76843 15.422C2.76843 15.4209 2.76843 15.4197 2.76843 15.4185C2.76843 15.4173 2.76843 15.4161 2.76843 15.4149C2.76843 15.4137 2.76843 15.4125 2.76843 15.4113C2.76843 15.4101 2.76843 15.4089 2.76843 15.4077C2.76843 15.4065 2.76843 15.4053 2.76843 15.4041C2.76843 15.403 2.76843 15.4018 2.76843 15.4006C2.76843 15.3994 2.76843 15.3982 2.76843 15.397C2.76843 15.3958 2.76843 15.3946 2.76843 15.3934C2.76843 15.3921 2.76843 15.3909 2.76843 15.3897C2.76843 15.3885 2.76843 15.3873 2.76843 15.3861C2.76843 15.3849 2.76843 15.3837 2.76843 15.3825C2.76843 15.3813 2.76843 15.3801 2.76843 15.3789C2.76843 15.3777 2.76843 15.3765 2.76843 15.3753C2.76843 15.374 2.76843 15.3728 2.76843 15.3716C2.76843 15.3704 2.76843 15.3692 2.76843 15.368C2.76843 15.3668 2.76843 15.3655 2.76843 15.3643C2.76843 15.3631 2.76843 15.3619 2.76843 15.3607C2.76843 15.3595 2.76843 15.3582 2.76843 15.357C2.76843 15.3558 2.76843 15.3546 2.76843 15.3534C2.76843 15.3521 2.76843 15.3509 2.76843 15.3497C2.76843 15.3485 2.76843 15.3473 2.76843 15.346C2.76843 15.3448 2.76843 15.3436 2.76843 15.3424C2.76843 15.3411 2.76843 15.3399 2.76843 15.3387C2.76843 15.3374 2.76843 15.3362 2.76843 15.335C2.76843 15.3338 2.76843 15.3325 2.76843 15.3313C2.76843 15.3301 2.76843 15.3288 2.76843 15.3276C2.76843 15.3264 2.76843 15.3251 2.76843 15.3239C2.76843 15.3227 2.76843 15.3214 2.76843 15.3202C2.76843 15.319 2.76843 15.3177 2.76843 15.3165C2.76843 15.3153 2.76843 15.314 2.76843 15.3128C2.76843 15.3115 2.76843 15.3103 2.76843 15.3091C2.76843 15.3078 2.76843 15.3066 2.76843 15.3053C2.76843 15.3041 2.76843 15.3028 2.76843 15.3016C2.76843 15.3004 2.76843 15.2991 2.76843 15.2979C2.76843 15.2966 2.76843 15.2954 2.76843 15.2941C2.76843 15.2929 2.76843 15.2916 2.76843 15.2904C2.76843 15.2891 2.76843 15.2879 2.76843 15.2866C2.76843 15.2854 2.76843 15.2841 2.76843 15.2829C2.76843 15.2816 2.76843 15.2804 2.76843 15.2791C2.76843 15.2779 2.76843 15.2766 2.76843 15.2754C2.76843 15.2741 2.76843 15.2728 2.76843 15.2716C2.76843 15.2703 2.76843 15.2691 2.76843 15.2678C2.76843 15.2666 2.76843 15.2653 2.76843 15.264C2.76843 15.2628 2.76843 15.2615 2.76843 15.2603C2.76843 15.259 2.76843 15.2577 2.76843 15.2565C2.76843 15.2552 2.76843 15.2539 2.76843 15.2527C2.76843 15.2514 2.76843 15.2501 2.76843 15.2489C2.76843 15.2476 2.76843 15.2463 2.76843 15.2451C2.76843 15.2438 2.76843 15.2425 2.76843 15.2413C2.76843 15.24 2.76843 15.2387 2.76843 15.2375C2.76843 15.2362 2.76843 15.2349 2.76843 15.2336C2.76843 15.2324 2.76843 15.2311 2.76843 15.2298C2.76843 15.2285 2.76843 15.2273 2.76843 15.226C2.76843 15.2247 2.76843 15.2234 2.76843 15.2222C2.76843 15.2209 2.76843 15.2196 2.76843 15.2183C2.76843 15.2171 2.76843 15.2158 2.76843 15.2145C2.76843 15.2132 2.76843 15.2119 2.76843 15.2107C2.76843 15.2094 2.76843 15.2081 2.76843 15.2068C2.76843 15.2055 2.76843 15.2042 2.76843 15.203C2.76843 15.2017 2.76843 15.2004 2.76843 15.1991C2.76843 15.1978 2.76843 15.1965 2.76843 15.1952C2.76843 15.1939 2.76843 15.1927 2.76843 15.1914C2.76843 15.1901 2.76843 15.1888 2.76843 15.1875H-0.231567C-0.231567 15.1888 -0.231567 15.1901 -0.231567 15.1914C-0.231567 15.1927 -0.231567 15.1939 -0.231567 15.1952C-0.231567 15.1965 -0.231567 15.1978 -0.231567 15.1991C-0.231567 15.2004 -0.231567 15.2017 -0.231567 15.203C-0.231567 15.2042 -0.231567 15.2055 -0.231567 15.2068C-0.231567 15.2081 -0.231567 15.2094 -0.231567 15.2107C-0.231567 15.2119 -0.231567 15.2132 -0.231567 15.2145C-0.231567 15.2158 -0.231567 15.2171 -0.231567 15.2183C-0.231567 15.2196 -0.231567 15.2209 -0.231567 15.2222C-0.231567 15.2234 -0.231567 15.2247 -0.231567 15.226C-0.231567 15.2273 -0.231567 15.2285 -0.231567 15.2298C-0.231567 15.2311 -0.231567 15.2324 -0.231567 15.2336C-0.231567 15.2349 -0.231567 15.2362 -0.231567 15.2375C-0.231567 15.2387 -0.231567 15.24 -0.231567 15.2413C-0.231567 15.2425 -0.231567 15.2438 -0.231567 15.2451C-0.231567 15.2463 -0.231567 15.2476 -0.231567 15.2489C-0.231567 15.2501 -0.231567 15.2514 -0.231567 15.2527C-0.231567 15.2539 -0.231567 15.2552 -0.231567 15.2565C-0.231567 15.2577 -0.231567 15.259 -0.231567 15.2603C-0.231567 15.2615 -0.231567 15.2628 -0.231567 15.264C-0.231567 15.2653 -0.231567 15.2666 -0.231567 15.2678C-0.231567 15.2691 -0.231567 15.2703 -0.231567 15.2716C-0.231567 15.2728 -0.231567 15.2741 -0.231567 15.2754C-0.231567 15.2766 -0.231567 15.2779 -0.231567 15.2791C-0.231567 15.2804 -0.231567 15.2816 -0.231567 15.2829C-0.231567 15.2841 -0.231567 15.2854 -0.231567 15.2866C-0.231567 15.2879 -0.231567 15.2891 -0.231567 15.2904C-0.231567 15.2916 -0.231567 15.2929 -0.231567 15.2941C-0.231567 15.2954 -0.231567 15.2966 -0.231567 15.2979C-0.231567 15.2991 -0.231567 15.3004 -0.231567 15.3016C-0.231567 15.3028 -0.231567 15.3041 -0.231567 15.3053C-0.231567 15.3066 -0.231567 15.3078 -0.231567 15.3091C-0.231567 15.3103 -0.231567 15.3115 -0.231567 15.3128C-0.231567 15.314 -0.231567 15.3153 -0.231567 15.3165C-0.231567 15.3177 -0.231567 15.319 -0.231567 15.3202C-0.231567 15.3214 -0.231567 15.3227 -0.231567 15.3239C-0.231567 15.3251 -0.231567 15.3264 -0.231567 15.3276C-0.231567 15.3288 -0.231567 15.3301 -0.231567 15.3313C-0.231567 15.3325 -0.231567 15.3338 -0.231567 15.335C-0.231567 15.3362 -0.231567 15.3374 -0.231567 15.3387C-0.231567 15.3399 -0.231567 15.3411 -0.231567 15.3424C-0.231567 15.3436 -0.231567 15.3448 -0.231567 15.346C-0.231567 15.3473 -0.231567 15.3485 -0.231567 15.3497C-0.231567 15.3509 -0.231567 15.3521 -0.231567 15.3534C-0.231567 15.3546 -0.231567 15.3558 -0.231567 15.357C-0.231567 15.3582 -0.231567 15.3595 -0.231567 15.3607C-0.231567 15.3619 -0.231567 15.3631 -0.231567 15.3643C-0.231567 15.3655 -0.231567 15.3668 -0.231567 15.368C-0.231567 15.3692 -0.231567 15.3704 -0.231567 15.3716C-0.231567 15.3728 -0.231567 15.374 -0.231567 15.3753C-0.231567 15.3765 -0.231567 15.3777 -0.231567 15.3789C-0.231567 15.3801 -0.231567 15.3813 -0.231567 15.3825C-0.231567 15.3837 -0.231567 15.3849 -0.231567 15.3861C-0.231567 15.3873 -0.231567 15.3885 -0.231567 15.3897C-0.231567 15.3909 -0.231567 15.3921 -0.231567 15.3934C-0.231567 15.3946 -0.231567 15.3958 -0.231567 15.397C-0.231567 15.3982 -0.231567 15.3994 -0.231567 15.4006C-0.231567 15.4018 -0.231567 15.403 -0.231567 15.4041C-0.231567 15.4053 -0.231567 15.4065 -0.231567 15.4077C-0.231567 15.4089 -0.231567 15.4101 -0.231567 15.4113C-0.231567 15.4125 -0.231567 15.4137 -0.231567 15.4149C-0.231567 15.4161 -0.231567 15.4173 -0.231567 15.4185C-0.231567 15.4197 -0.231567 15.4209 -0.231567 15.422C-0.231567 15.4232 -0.231567 15.4244 -0.231567 15.4256C-0.231567 15.4268 -0.231567 15.428 -0.231567 15.4292C-0.231567 15.4303 -0.231567 15.4315 -0.231567 15.4327C-0.231567 15.4339 -0.231567 15.4351 -0.231567 15.4363C-0.231567 15.4374 -0.231567 15.4386 -0.231567 15.4398C-0.231567 15.441 -0.231567 15.4422 -0.231567 15.4433C-0.231567 15.4445 -0.231567 15.4457 -0.231567 15.4469C-0.231567 15.448 -0.231567 15.4492 -0.231567 15.4504C-0.231567 15.4516 -0.231567 15.4527 -0.231567 15.4539C-0.231567 15.4551 -0.231567 15.4563 -0.231567 15.4574C-0.231567 15.4586 -0.231567 15.4598 -0.231567 15.4609C-0.231567 15.4621 -0.231567 15.4633 -0.231567 15.4644C-0.231567 15.4656 -0.231567 15.4668 -0.231567 15.4679C-0.231567 15.4691 -0.231567 15.4703 -0.231567 15.4714C-0.231567 15.4726 -0.231567 15.4738 -0.231567 15.4749C-0.231567 15.4761 -0.231567 15.4772 -0.231567 15.4784C-0.231567 15.4796 -0.231567 15.4807 -0.231567 15.4819C-0.231567 15.483 -0.231567 15.4842 -0.231567 15.4853C-0.231567 15.4865 -0.231567 15.4877 -0.231567 15.4888C-0.231567 15.49 -0.231567 15.4911 -0.231567 15.4923C-0.231567 15.4934 -0.231567 15.4946 -0.231567 15.4957C-0.231567 15.4969 -0.231567 15.498 -0.231567 15.4992C-0.231567 15.5003 -0.231567 15.5015 -0.231567 15.5026C-0.231567 15.5038 -0.231567 15.5049 -0.231567 15.5061C-0.231567 15.5072 -0.231567 15.5083 -0.231567 15.5095C-0.231567 15.5106 -0.231567 15.5118 -0.231567 15.5129C-0.231567 15.5141 -0.231567 15.5152 -0.231567 15.5163C-0.231567 15.5175 -0.231567 15.5186 -0.231567 15.5198C-0.231567 15.5209 -0.231567 15.522 -0.231567 15.5232C-0.231567 15.5243 -0.231567 15.5254 -0.231567 15.5266C-0.231567 15.5277 -0.231567 15.5288 -0.231567 15.53C-0.231567 15.5311 -0.231567 15.5322 -0.231567 15.5334C-0.231567 15.5345 -0.231567 15.5356 -0.231567 15.5368C-0.231567 15.5379 -0.231567 15.539 -0.231567 15.5401C-0.231567 15.5413 -0.231567 15.5424 -0.231567 15.5435C-0.231567 15.5446 -0.231567 15.5458 -0.231567 15.5469C-0.231567 15.548 -0.231567 15.5491 -0.231567 15.5502C-0.231567 15.5514 -0.231567 15.5525 -0.231567 15.5536C-0.231567 15.5547 -0.231567 15.5558 -0.231567 15.557C-0.231567 15.5581 -0.231567 15.5592 -0.231567 15.5603C-0.231567 15.5614 -0.231567 15.5625 -0.231567 15.5637C-0.231567 15.5648 -0.231567 15.5659 -0.231567 15.567C-0.231567 15.5681 -0.231567 15.5692 -0.231567 15.5703C-0.231567 15.5714 -0.231567 15.5725 -0.231567 15.5736C-0.231567 15.5748 -0.231567 15.5759 -0.231567 15.577C-0.231567 15.5781 -0.231567 15.5792 -0.231567 15.5803C-0.231567 15.5814 -0.231567 15.5825 -0.231567 15.5836C-0.231567 15.5847 -0.231567 15.5858 -0.231567 15.5869C-0.231567 15.588 -0.231567 15.5891 -0.231567 15.5902C-0.231567 15.5913 -0.231567 15.5924 -0.231567 15.5935C-0.231567 15.5946 -0.231567 15.5957 -0.231567 15.5968C-0.231567 15.5978 -0.231567 15.5989 -0.231567 15.6C-0.231567 15.6011 -0.231567 15.6022 -0.231567 15.6033C-0.231567 15.6044 -0.231567 15.6055 -0.231567 15.6066C-0.231567 15.6077 -0.231567 15.6087 -0.231567 15.6098C-0.231567 15.6109 -0.231567 15.612 -0.231567 15.6131C-0.231567 15.6142 -0.231567 15.6153 -0.231567 15.6163C-0.231567 15.6174 -0.231567 15.6185 -0.231567 15.6196C-0.231567 15.6207 -0.231567 15.6217 -0.231567 15.6228C-0.231567 15.6239 -0.231567 15.625 -0.231567 15.626C-0.231567 15.6271 -0.231567 15.6282 -0.231567 15.6293C-0.231567 15.6303 -0.231567 15.6314 -0.231567 15.6325C-0.231567 15.6336 -0.231567 15.6346 -0.231567 15.6357C-0.231567 15.6368 -0.231567 15.6378 -0.231567 15.6389C-0.231567 15.64 -0.231567 15.641 -0.231567 15.6421C-0.231567 15.6432 -0.231567 15.6442 -0.231567 15.6453C-0.231567 15.6464 -0.231567 15.6474 -0.231567 15.6485C-0.231567 15.6496 -0.231567 15.6506 -0.231567 15.6517C-0.231567 15.6527 -0.231567 15.6538 -0.231567 15.6549C-0.231567 15.6559 -0.231567 15.657 -0.231567 15.658C-0.231567 15.6591 -0.231567 15.6601 -0.231567 15.6612C-0.231567 15.6622 -0.231567 15.6633 -0.231567 15.6644C-0.231567 15.6654 -0.231567 15.6665 -0.231567 15.6675C-0.231567 15.6686 -0.231567 15.6696 -0.231567 15.6707C-0.231567 15.6717 -0.231567 15.6727 -0.231567 15.6738C-0.231567 15.6748 -0.231567 15.6759 -0.231567 15.6769C-0.231567 15.678 -0.231567 15.679 -0.231567 15.6801C-0.231567 15.6811 -0.231567 15.6821 -0.231567 15.6832C-0.231567 15.6842 -0.231567 15.6853 -0.231567 15.6863C-0.231567 15.6873 -0.231567 15.6884 -0.231567 15.6894C-0.231567 15.6904 -0.231567 15.6915 -0.231567 15.6925C-0.231567 15.6935 -0.231567 15.6946 -0.231567 15.6956C-0.231567 15.6966 -0.231567 15.6977 -0.231567 15.6987C-0.231567 15.6997 -0.231567 15.7007 -0.231567 15.7018C-0.231567 15.7028 -0.231567 15.7038 -0.231567 15.7049C-0.231567 15.7059 -0.231567 15.7069 -0.231567 15.7079C-0.231567 15.7089 -0.231567 15.71 -0.231567 15.711C-0.231567 15.712 -0.231567 15.713 -0.231567 15.714C-0.231567 15.7151 -0.231567 15.7161 -0.231567 15.7171C-0.231567 15.7181 -0.231567 15.7191 -0.231567 15.7201C-0.231567 15.7212 -0.231567 15.7222 -0.231567 15.7232C-0.231567 15.7242 -0.231567 15.7252 -0.231567 15.7262C-0.231567 15.7272 -0.231567 15.7282 -0.231567 15.7293C-0.231567 15.7303 -0.231567 15.7313 -0.231567 15.7323C-0.231567 15.7333 -0.231567 15.7343 -0.231567 15.7353C-0.231567 15.7363 -0.231567 15.7373 -0.231567 15.7383C-0.231567 15.7393 -0.231567 15.7403 -0.231567 15.7413C-0.231567 15.7423 -0.231567 15.7433 -0.231567 15.7443C-0.231567 15.7453 -0.231567 15.7463 -0.231567 15.7473C-0.231567 15.7483 -0.231567 15.7493 -0.231567 15.7503C-0.231567 15.7513 -0.231567 15.7522 -0.231567 15.7532C-0.231567 15.7542 -0.231567 15.7552 -0.231567 15.7562C-0.231567 15.7572 -0.231567 15.7582 -0.231567 15.7592C-0.231567 15.7602 -0.231567 15.7611 -0.231567 15.7621C-0.231567 15.7631 -0.231567 15.7641 -0.231567 15.7651C-0.231567 15.7661 -0.231567 15.767 -0.231567 15.768C-0.231567 15.769 -0.231567 15.77 -0.231567 15.771C-0.231567 15.7719 -0.231567 15.7729 -0.231567 15.7739C-0.231567 15.7749 -0.231567 15.7758 -0.231567 15.7768C-0.231567 15.7778 -0.231567 15.7788 -0.231567 15.7797C-0.231567 15.7807 -0.231567 15.7817 -0.231567 15.7826C-0.231567 15.7836 -0.231567 15.7846 -0.231567 15.7856C-0.231567 15.7865 -0.231567 15.7875 -0.231567 15.7884C-0.231567 15.7894 -0.231567 15.7904 -0.231567 15.7913C-0.231567 15.7923 -0.231567 15.7933 -0.231567 15.7942C-0.231567 15.7952 -0.231567 15.7961 -0.231567 15.7971C-0.231567 15.7981 -0.231567 15.799 -0.231567 15.8C-0.231567 15.8009 -0.231567 15.8019 -0.231567 15.8028C-0.231567 15.8038 -0.231567 15.8047 -0.231567 15.8057C-0.231567 15.8066 -0.231567 15.8076 -0.231567 15.8085C-0.231567 15.8095 -0.231567 15.8104 -0.231567 15.8114C-0.231567 15.8123 -0.231567 15.8133 -0.231567 15.8142C-0.231567 15.8152 -0.231567 15.8161 -0.231567 15.8171C-0.231567 15.818 -0.231567 15.8189 -0.231567 15.8199C-0.231567 15.8208 -0.231567 15.8218 -0.231567 15.8227C-0.231567 15.8236 -0.231567 15.8246 -0.231567 15.8255C-0.231567 15.8265 -0.231567 15.8274 -0.231567 15.8283C-0.231567 15.8293 -0.231567 15.8302 -0.231567 15.8311C-0.231567 15.832 -0.231567 15.833 -0.231567 15.8339C-0.231567 15.8348 -0.231567 15.8358 -0.231567 15.8367C-0.231567 15.8376 -0.231567 15.8385 -0.231567 15.8395C-0.231567 15.8404 -0.231567 15.8413 -0.231567 15.8422C-0.231567 15.8432 -0.231567 15.8441 -0.231567 15.845C-0.231567 15.8459 -0.231567 15.8468 -0.231567 15.8478C-0.231567 15.8487 -0.231567 15.8496 -0.231567 15.8505C-0.231567 15.8514 -0.231567 15.8523 -0.231567 15.8533C-0.231567 15.8542 -0.231567 15.8551 -0.231567 15.856C-0.231567 15.8569 -0.231567 15.8578 -0.231567 15.8587C-0.231567 15.8596 -0.231567 15.8605 -0.231567 15.8614C-0.231567 15.8623 -0.231567 15.8633 -0.231567 15.8642C-0.231567 15.8651 -0.231567 15.866 -0.231567 15.8669C-0.231567 15.8678 -0.231567 15.8687 -0.231567 15.8696C-0.231567 15.8705 -0.231567 15.8714 -0.231567 15.8723C-0.231567 15.8732 -0.231567 15.8741 -0.231567 15.8749C-0.231567 15.8758 -0.231567 15.8767 -0.231567 15.8776C-0.231567 15.8785 -0.231567 15.8794 -0.231567 15.8803C-0.231567 15.8812 -0.231567 15.8821 -0.231567 15.883C-0.231567 15.8839 -0.231567 15.8847 -0.231567 15.8856C-0.231567 15.8865 -0.231567 15.8874 -0.231567 15.8883C-0.231567 15.8892 -0.231567 15.89 -0.231567 15.8909C-0.231567 15.8918 -0.231567 15.8927 -0.231567 15.8936C-0.231567 15.8944 -0.231567 15.8953 -0.231567 15.8962C-0.231567 15.8971 -0.231567 15.8979 -0.231567 15.8988C-0.231567 15.8997 -0.231567 15.9006 -0.231567 15.9014C-0.231567 15.9023 -0.231567 15.9032 -0.231567 15.904C-0.231567 15.9049 -0.231567 15.9058 -0.231567 15.9066C-0.231567 15.9075 -0.231567 15.9084 -0.231567 15.9092C-0.231567 15.9101 -0.231567 15.911 -0.231567 15.9118C-0.231567 15.9127 -0.231567 15.9136 -0.231567 15.9144C-0.231567 15.9153 -0.231567 15.9161 -0.231567 15.917C-0.231567 15.9178 -0.231567 15.9187 -0.231567 15.9196C-0.231567 15.9204 -0.231567 15.9213 -0.231567 15.9221C-0.231567 15.923 -0.231567 15.9238 -0.231567 15.9247C-0.231567 15.9255 -0.231567 15.9264 -0.231567 15.9272C-0.231567 15.9281 -0.231567 15.9289 -0.231567 15.9298C-0.231567 15.9306 -0.231567 15.9314 -0.231567 15.9323C-0.231567 15.9331 -0.231567 15.934 -0.231567 15.9348C-0.231567 15.9356 -0.231567 15.9365 -0.231567 15.9373C-0.231567 15.9382 -0.231567 15.939 -0.231567 15.9398C-0.231567 15.9407 -0.231567 15.9415 -0.231567 15.9423C-0.231567 15.9432 -0.231567 15.944 -0.231567 15.9448C-0.231567 15.9457 -0.231567 15.9465 -0.231567 15.9473C-0.231567 15.9481 -0.231567 15.949 -0.231567 15.9498C-0.231567 15.9506 -0.231567 15.9514 -0.231567 15.9523C-0.231567 15.9531 -0.231567 15.9539 -0.231567 15.9547C-0.231567 15.9556 -0.231567 15.9564 -0.231567 15.9572C-0.231567 15.958 -0.231567 15.9588 -0.231567 15.9596C-0.231567 15.9605 -0.231567 15.9613 -0.231567 15.9621C-0.231567 15.9629 -0.231567 15.9637 -0.231567 15.9645C-0.231567 15.9653 -0.231567 15.9661 -0.231567 15.967C-0.231567 15.9678 -0.231567 15.9686 -0.231567 15.9694C-0.231567 15.9702 -0.231567 15.971 -0.231567 15.9718C-0.231567 15.9726 -0.231567 15.9734 -0.231567 15.9742C-0.231567 15.975 -0.231567 15.9758 -0.231567 15.9766C-0.231567 15.9774 -0.231567 15.9782 -0.231567 15.979C-0.231567 15.9798 -0.231567 15.9806 -0.231567 15.9814C-0.231567 15.9822 -0.231567 15.983 -0.231567 15.9837C-0.231567 15.9845 -0.231567 15.9853 -0.231567 15.9861C-0.231567 15.9869 -0.231567 15.9877 -0.231567 15.9885C-0.231567 15.9893 -0.231567 15.9901 -0.231567 15.9908C-0.231567 15.9916 -0.231567 15.9924 -0.231567 15.9932C-0.231567 15.994 -0.231567 15.9947 -0.231567 15.9955C-0.231567 15.9963 -0.231567 15.9971 -0.231567 15.9979C-0.231567 15.9986 -0.231567 15.9994 -0.231567 16.0002C-0.231567 16.0009 -0.231567 16.0017 -0.231567 16.0025C-0.231567 16.0033 -0.231567 16.004 -0.231567 16.0048C-0.231567 16.0056 -0.231567 16.0063 -0.231567 16.0071C-0.231567 16.0079 -0.231567 16.0086 -0.231567 16.0094C-0.231567 16.0102 -0.231567 16.0109 -0.231567 16.0117C-0.231567 16.0124 -0.231567 16.0132 -0.231567 16.014C-0.231567 16.0147 -0.231567 16.0155 -0.231567 16.0162C-0.231567 16.017 -0.231567 16.0177 -0.231567 16.0185C-0.231567 16.0192 -0.231567 16.02 -0.231567 16.0207C-0.231567 16.0215 -0.231567 16.0222 -0.231567 16.023C-0.231567 16.0237 -0.231567 16.0245 -0.231567 16.0252C-0.231567 16.026 -0.231567 16.0267 -0.231567 16.0275C-0.231567 16.0282 -0.231567 16.029 -0.231567 16.0297C-0.231567 16.0304 -0.231567 16.0312 -0.231567 16.0319C-0.231567 16.0326 -0.231567 16.0334 -0.231567 16.0341C-0.231567 16.0349 -0.231567 16.0356 -0.231567 16.0363C-0.231567 16.0371 -0.231567 16.0378 -0.231567 16.0385C-0.231567 16.0392 -0.231567 16.04 -0.231567 16.0407C-0.231567 16.0414 -0.231567 16.0422 -0.231567 16.0429C-0.231567 16.0436 -0.231567 16.0443 -0.231567 16.045C-0.231567 16.0458 -0.231567 16.0465 -0.231567 16.0472C-0.231567 16.0479 -0.231567 16.0486 -0.231567 16.0494C-0.231567 16.0501 -0.231567 16.0508 -0.231567 16.0515C-0.231567 16.0522 -0.231567 16.0529 -0.231567 16.0536C-0.231567 16.0544 -0.231567 16.0551 -0.231567 16.0558C-0.231567 16.0565 -0.231567 16.0572 -0.231567 16.0579C-0.231567 16.0586 -0.231567 16.0593 -0.231567 16.06C-0.231567 16.0607 -0.231567 16.0614 -0.231567 16.0621C-0.231567 16.0628 -0.231567 16.0635 -0.231567 16.0642C-0.231567 16.0649 -0.231567 16.0656 -0.231567 16.0663C-0.231567 16.067 -0.231567 16.0677 -0.231567 16.0684C-0.231567 16.0691 -0.231567 16.0698 -0.231567 16.0705C-0.231567 16.0712 -0.231567 16.0719 -0.231567 16.0725C-0.231567 16.0732 -0.231567 16.0739 -0.231567 16.0746C-0.231567 16.0753 -0.231567 16.076 -0.231567 16.0767C-0.231567 16.0773 -0.231567 16.078 -0.231567 16.0787C-0.231567 16.0794 -0.231567 16.0801 -0.231567 16.0807C-0.231567 16.0814 -0.231567 16.0821 -0.231567 16.0828C-0.231567 16.0834 -0.231567 16.0841 -0.231567 16.0848C-0.231567 16.0855 -0.231567 16.0861 -0.231567 16.0868C-0.231567 16.0875 -0.231567 16.0881 -0.231567 16.0888C-0.231567 16.0895 -0.231567 16.0901 -0.231567 16.0908C-0.231567 16.0915 -0.231567 16.0921 -0.231567 16.0928C-0.231567 16.0934 -0.231567 16.0941 -0.231567 16.0948C-0.231567 16.0954 -0.231567 16.0961 -0.231567 16.0967C-0.231567 16.0974 -0.231567 16.098 -0.231567 16.0987C-0.231567 16.0993 -0.231567 16.1 -0.231567 16.1006C-0.231567 16.1013 -0.231567 16.1019 -0.231567 16.1026C-0.231567 16.1032 -0.231567 16.1039 -0.231567 16.1045C-0.231567 16.1052 -0.231567 16.1058 -0.231567 16.1065C-0.231567 16.1071 -0.231567 16.1077 -0.231567 16.1084C-0.231567 16.109 -0.231567 16.1097 -0.231567 16.1103C-0.231567 16.1109 -0.231567 16.1116 -0.231567 16.1122C-0.231567 16.1128 -0.231567 16.1135 -0.231567 16.1141C-0.231567 16.1147 -0.231567 16.1154 -0.231567 16.116C-0.231567 16.1166 -0.231567 16.1173 -0.231567 16.1179C-0.231567 16.1185 -0.231567 16.1191 -0.231567 16.1197C-0.231567 16.1204 -0.231567 16.121 -0.231567 16.1216C-0.231567 16.1222 -0.231567 16.1229 -0.231567 16.1235C-0.231567 16.1241 -0.231567 16.1247 -0.231567 16.1253C-0.231567 16.1259 -0.231567 16.1265 -0.231567 16.1272C-0.231567 16.1278 -0.231567 16.1284 -0.231567 16.129C-0.231567 16.1296 -0.231567 16.1302 -0.231567 16.1308C-0.231567 16.1314 -0.231567 16.132 -0.231567 16.1326C-0.231567 16.1332 -0.231567 16.1338 -0.231567 16.1344C-0.231567 16.135 -0.231567 16.1356 -0.231567 16.1362C-0.231567 16.1368 -0.231567 16.1374 -0.231567 16.138C-0.231567 16.1386 -0.231567 16.1392 -0.231567 16.1398C-0.231567 16.1404 -0.231567 16.141 -0.231567 16.1416C-0.231567 16.1422 -0.231567 16.1428 -0.231567 16.1433C-0.231567 16.1439 -0.231567 16.1445 -0.231567 16.1451C-0.231567 16.1457 -0.231567 16.1463 -0.231567 16.1468C-0.231567 16.1474 -0.231567 16.148 -0.231567 16.1486C-0.231567 16.1492 -0.231567 16.1497 -0.231567 16.1503C-0.231567 16.1509 -0.231567 16.1515 -0.231567 16.152C-0.231567 16.1526 -0.231567 16.1532 -0.231567 16.1538C-0.231567 16.1543 -0.231567 16.1549 -0.231567 16.1555C-0.231567 16.156 -0.231567 16.1566 -0.231567 16.1572C-0.231567 16.1577 -0.231567 16.1583 -0.231567 16.1588C-0.231567 16.1594 -0.231567 16.16 -0.231567 16.1605C-0.231567 16.1611 -0.231567 16.1616 -0.231567 16.1622C-0.231567 16.1628 -0.231567 16.1633 -0.231567 16.1639C-0.231567 16.1644 -0.231567 16.165 -0.231567 16.1655C-0.231567 16.1661 -0.231567 16.1666 -0.231567 16.1672C-0.231567 16.1677 -0.231567 16.1683 -0.231567 16.1688C-0.231567 16.1693 -0.231567 16.1699 -0.231567 16.1704C-0.231567 16.171 -0.231567 16.1715 -0.231567 16.172C-0.231567 16.1726 -0.231567 16.1731 -0.231567 16.1737C-0.231567 16.1742 -0.231567 16.1747 -0.231567 16.1753C-0.231567 16.1758 -0.231567 16.1763 -0.231567 16.1769C-0.231567 16.1774 -0.231567 16.1779 -0.231567 16.1784C-0.231567 16.179 -0.231567 16.1795 -0.231567 16.18C-0.231567 16.1805 -0.231567 16.1811 -0.231567 16.1816C-0.231567 16.1821 -0.231567 16.1826 -0.231567 16.1831C-0.231567 16.1837 -0.231567 16.1842 -0.231567 16.1847C-0.231567 16.1852 -0.231567 16.1857 -0.231567 16.1862C-0.231567 16.1868 -0.231567 16.1873 -0.231567 16.1878C-0.231567 16.1883 -0.231567 16.1888 -0.231567 16.1893C-0.231567 16.1898 -0.231567 16.1903 -0.231567 16.1908C-0.231567 16.1913 -0.231567 16.1918 -0.231567 16.1923C-0.231567 16.1928 -0.231567 16.1933 -0.231567 16.1938C-0.231567 16.1943 -0.231567 16.1948 -0.231567 16.1953C-0.231567 16.1958 -0.231567 16.1963 -0.231567 16.1968C-0.231567 16.1973 -0.231567 16.1978 -0.231567 16.1983C-0.231567 16.1988 -0.231567 16.1992 -0.231567 16.1997C-0.231567 16.2002 -0.231567 16.2007 -0.231567 16.2012C-0.231567 16.2017 -0.231567 16.2021 -0.231567 16.2026C-0.231567 16.2031 -0.231567 16.2036 -0.231567 16.2041C-0.231567 16.2045 -0.231567 16.205 -0.231567 16.2055C-0.231567 16.206 -0.231567 16.2064 -0.231567 16.2069C-0.231567 16.2074 -0.231567 16.2079 -0.231567 16.2083C-0.231567 16.2088 -0.231567 16.2093 -0.231567 16.2097C-0.231567 16.2102 -0.231567 16.2107 -0.231567 16.2111C-0.231567 16.2116 -0.231567 16.212 -0.231567 16.2125C-0.231567 16.213 -0.231567 16.2134 -0.231567 16.2139C-0.231567 16.2143 -0.231567 16.2148 -0.231567 16.2152C-0.231567 16.2157 -0.231567 16.2161 -0.231567 16.2166C-0.231567 16.217 -0.231567 16.2175 -0.231567 16.2179C-0.231567 16.2184 -0.231567 16.2188 -0.231567 16.2193C-0.231567 16.2197 -0.231567 16.2202 -0.231567 16.2206C-0.231567 16.2211 -0.231567 16.2215 -0.231567 16.2219C-0.231567 16.2224 -0.231567 16.2228 -0.231567 16.2232C-0.231567 16.2237 -0.231567 16.2241 -0.231567 16.2245C-0.231567 16.225 -0.231567 16.2254 -0.231567 16.2258C-0.231567 16.2263 -0.231567 16.2267 -0.231567 16.2271C-0.231567 16.2275 -0.231567 16.228 -0.231567 16.2284C-0.231567 16.2288 -0.231567 16.2292 -0.231567 16.2297C-0.231567 16.2301 -0.231567 16.2305 -0.231567 16.2309C-0.231567 16.2313 -0.231567 16.2318 -0.231567 16.2322C-0.231567 16.2326 -0.231567 16.233 -0.231567 16.2334C-0.231567 16.2338 -0.231567 16.2342 -0.231567 16.2346C-0.231567 16.235 -0.231567 16.2355 -0.231567 16.2359C-0.231567 16.2363 -0.231567 16.2367 -0.231567 16.2371C-0.231567 16.2375 -0.231567 16.2379 -0.231567 16.2383C-0.231567 16.2387 -0.231567 16.2391 -0.231567 16.2395C-0.231567 16.2399 -0.231567 16.2403 -0.231567 16.2406C-0.231567 16.241 -0.231567 16.2414 -0.231567 16.2418C-0.231567 16.2422 -0.231567 16.2426 -0.231567 16.243C-0.231567 16.2434 -0.231567 16.2438 -0.231567 16.2441C-0.231567 16.2445 -0.231567 16.2449 -0.231567 16.2453C-0.231567 16.2457 -0.231567 16.2461 -0.231567 16.2464C-0.231567 16.2468 -0.231567 16.2472 -0.231567 16.2476C-0.231567 16.2479 -0.231567 16.2483 -0.231567 16.2487C-0.231567 16.2491 -0.231567 16.2494 -0.231567 16.2498C-0.231567 16.2502 -0.231567 16.2505 -0.231567 16.2509C-0.231567 16.2513 -0.231567 16.2516 -0.231567 16.252C-0.231567 16.2523 -0.231567 16.2527 -0.231567 16.2531C-0.231567 16.2534 -0.231567 16.2538 -0.231567 16.2541C-0.231567 16.2545 -0.231567 16.2548 -0.231567 16.2552C-0.231567 16.2556 -0.231567 16.2559 -0.231567 16.2563C-0.231567 16.2566 -0.231567 16.257 -0.231567 16.2573C-0.231567 16.2576 -0.231567 16.258 -0.231567 16.2583C-0.231567 16.2587 -0.231567 16.259 -0.231567 16.2594C-0.231567 16.2597 -0.231567 16.26 -0.231567 16.2604C-0.231567 16.2607 -0.231567 16.261 -0.231567 16.2614C-0.231567 16.2617 -0.231567 16.262 -0.231567 16.2624C-0.231567 16.2627 -0.231567 16.263 -0.231567 16.2634C-0.231567 16.2637 -0.231567 16.264 -0.231567 16.2643C-0.231567 16.2647 -0.231567 16.265 -0.231567 16.2653C-0.231567 16.2656 -0.231567 16.266 -0.231567 16.2663C-0.231567 16.2666 -0.231567 16.2669 -0.231567 16.2672C-0.231567 16.2675 -0.231567 16.2679 -0.231567 16.2682C-0.231567 16.2685 -0.231567 16.2688 -0.231567 16.2691C-0.231567 16.2694 -0.231567 16.2697 -0.231567 16.27C-0.231567 16.2703 -0.231567 16.2706 -0.231567 16.2709C-0.231567 16.2712 -0.231567 16.2715 -0.231567 16.2718C-0.231567 16.2721 -0.231567 16.2724 -0.231567 16.2727C-0.231567 16.273 -0.231567 16.2733 -0.231567 16.2736C-0.231567 16.2739 -0.231567 16.2742 -0.231567 16.2745C-0.231567 16.2748 -0.231567 16.2751 -0.231567 16.2754C-0.231567 16.2756 -0.231567 16.2759 -0.231567 16.2762C-0.231567 16.2765 -0.231567 16.2768 -0.231567 16.2771C-0.231567 16.2773 -0.231567 16.2776 -0.231567 16.2779C-0.231567 16.2782 -0.231567 16.2784 -0.231567 16.2787C-0.231567 16.279 -0.231567 16.2793 -0.231567 16.2795C-0.231567 16.2798 -0.231567 16.2801 -0.231567 16.2803C-0.231567 16.2806 -0.231567 16.2809 -0.231567 16.2811C-0.231567 16.2814 -0.231567 16.2817 -0.231567 16.2819C-0.231567 16.2822 -0.231567 16.2824 -0.231567 16.2827C-0.231567 16.283 -0.231567 16.2832 -0.231567 16.2835C-0.231567 16.2837 -0.231567 16.284 -0.231567 16.2842C-0.231567 16.2845 -0.231567 16.2847 -0.231567 16.285C-0.231567 16.2852 -0.231567 16.2855 -0.231567 16.2857C-0.231567 16.286 -0.231567 16.2862 -0.231567 16.2864C-0.231567 16.2867 -0.231567 16.2869 -0.231567 16.2872C-0.231567 16.2874 -0.231567 16.2876 -0.231567 16.2879C-0.231567 16.2881 -0.231567 16.2883 -0.231567 16.2886C-0.231567 16.2888 -0.231567 16.289 -0.231567 16.2893C-0.231567 16.2895 -0.231567 16.2897 -0.231567 16.2899C-0.231567 16.2902 -0.231567 16.2904 -0.231567 16.2906C-0.231567 16.2908 -0.231567 16.2911 -0.231567 16.2913C-0.231567 16.2915 -0.231567 16.2917 -0.231567 16.2919C-0.231567 16.2921 -0.231567 16.2923 -0.231567 16.2926C-0.231567 16.2928 -0.231567 16.293 -0.231567 16.2932C-0.231567 16.2934 -0.231567 16.2936 -0.231567 16.2938C-0.231567 16.294 -0.231567 16.2942 -0.231567 16.2944C-0.231567 16.2946 -0.231567 16.2948 -0.231567 16.295C-0.231567 16.2952 -0.231567 16.2954 -0.231567 16.2956C-0.231567 16.2958 -0.231567 16.296 -0.231567 16.2962C-0.231567 16.2964 -0.231567 16.2966 -0.231567 16.2968C-0.231567 16.297 -0.231567 16.2971 -0.231567 16.2973C-0.231567 16.2975 -0.231567 16.2977 -0.231567 16.2979C-0.231567 16.2981 -0.231567 16.2982 -0.231567 16.2984C-0.231567 16.2986 -0.231567 16.2988 -0.231567 16.299C-0.231567 16.2991 -0.231567 16.2993 -0.231567 16.2995C-0.231567 16.2996 -0.231567 16.2998 -0.231567 16.3C-0.231567 16.3002 -0.231567 16.3003 -0.231567 16.3005C-0.231567 16.3006 -0.231567 16.3008 -0.231567 16.301C-0.231567 16.3011 -0.231567 16.3013 -0.231567 16.3015C-0.231567 16.3016 -0.231567 16.3018 -0.231567 16.3019C-0.231567 16.3021 -0.231567 16.3022 -0.231567 16.3024C-0.231567 16.3025 -0.231567 16.3027 -0.231567 16.3028C-0.231567 16.303 -0.231567 16.3031 -0.231567 16.3033C-0.231567 16.3034 -0.231567 16.3036 -0.231567 16.3037C-0.231567 16.3039 -0.231567 16.304 -0.231567 16.3041C-0.231567 16.3043 -0.231567 16.3044 -0.231567 16.3045C-0.231567 16.3047 -0.231567 16.3048 -0.231567 16.3049C-0.231567 16.3051 -0.231567 16.3052 -0.231567 16.3053C-0.231567 16.3055 -0.231567 16.3056 -0.231567 16.3057C-0.231567 16.3058 -0.231567 16.306 -0.231567 16.3061C-0.231567 16.3062 -0.231567 16.3063 -0.231567 16.3064C-0.231567 16.3066 -0.231567 16.3067 -0.231567 16.3068C-0.231567 16.3069 -0.231567 16.307 -0.231567 16.3071C-0.231567 16.3072 -0.231567 16.3073 -0.231567 16.3075C-0.231567 16.3076 -0.231567 16.3077 -0.231567 16.3078C-0.231567 16.3079 -0.231567 16.308 -0.231567 16.3081C-0.231567 16.3082 -0.231567 16.3083 -0.231567 16.3084C-0.231567 16.3085 -0.231567 16.3086 -0.231567 16.3087C-0.231567 16.3088 -0.231567 16.3089 -0.231567 16.3089C-0.231567 16.309 -0.231567 16.3091 -0.231567 16.3092C-0.231567 16.3093 -0.231567 16.3094 -0.231567 16.3095C-0.231567 16.3096 -0.231567 16.3096 -0.231567 16.3097C-0.231567 16.3098 -0.231567 16.3099 -0.231567 16.31C-0.231567 16.31 -0.231567 16.3101 -0.231567 16.3102C-0.231567 16.3102 -0.231567 16.3103 -0.231567 16.3104C-0.231567 16.3105 -0.231567 16.3105 -0.231567 16.3106C-0.231567 16.3107 -0.231567 16.3107 -0.231567 16.3108C-0.231567 16.3109 -0.231567 16.3109 -0.231567 16.311C-0.231567 16.311 -0.231567 16.3111 -0.231567 16.3111C-0.231567 16.3112 -0.231567 16.3113 -0.231567 16.3113C-0.231567 16.3114 -0.231567 16.3114 -0.231567 16.3115C-0.231567 16.3115 -0.231567 16.3116 -0.231567 16.3116C-0.231567 16.3117 -0.231567 16.3117 -0.231567 16.3117C-0.231567 16.3118 -0.231567 16.3118 -0.231567 16.3119C-0.231567 16.3119 -0.231567 16.3119 -0.231567 16.312C-0.231567 16.312 -0.231567 16.312 -0.231567 16.3121C-0.231567 16.3121 -0.231567 16.3121 -0.231567 16.3122C-0.231567 16.3122 -0.231567 16.3122 -0.231567 16.3122C-0.231567 16.3123 -0.231567 16.3123 -0.231567 16.3123C-0.231567 16.3123 -0.231567 16.3123 -0.231567 16.3124C-0.231567 16.3124 -0.231567 16.3124 -0.231567 16.3124C-0.231567 16.3124 -0.231567 16.3124 -0.231567 16.3125C-0.231567 16.3125 -0.231567 16.3125 -0.231567 16.3125C-0.231567 16.3125 -0.231567 16.3125 -0.231567 16.3125C-0.231567 16.3125 -0.231567 16.3125 1.26843 16.3125ZM2.76843 15.1875C2.76843 13.2197 4.36317 11.625 6.33093 11.625V8.625C2.70632 8.625 -0.231567 11.5629 -0.231567 15.1875H2.76843ZM6.33093 11.625H9V8.625H6.33093V11.625ZM9 11.625C8.48207 11.625 8.0625 11.2054 8.0625 10.6875H11.0625C11.0625 9.54857 10.1389 8.625 9 8.625V11.625ZM8.0625 10.6875C8.0625 10.1696 8.48207 9.75 9 9.75V12.75C10.1389 12.75 11.0625 11.8264 11.0625 10.6875H8.0625ZM9 9.75H6.33093V12.75H9V9.75ZM6.33093 9.75C3.32788 9.75 0.893433 12.1844 0.893433 15.1875H3.89343C3.89343 13.8413 4.98473 12.75 6.33093 12.75V9.75ZM0.893433 15.1875V15.75H3.89343V15.1875H0.893433Z" fill="#4B3AFF" mask="url(#path-3-inside-2_80_15689)"/>
<mask id="path-5-inside-3_80_15689" fill="white">
<path fill-rule="evenodd" clip-rule="evenodd" d="M14.0625 10.2892C12.2001 10.2892 10.6875 11.8012 10.6875 13.6642C10.6875 15.5267 12.2001 17.0392 14.0625 17.0392C15.9249 17.0392 17.4375 15.5267 17.4375 13.6642C17.4375 11.8012 15.9249 10.2892 14.0625 10.2892ZM14.0625 11.4142C15.3045 11.4142 16.3125 12.4222 16.3125 13.6642C16.3125 14.9057 15.3045 15.9142 14.0625 15.9142C12.8205 15.9142 11.8125 14.9057 11.8125 13.6642C11.8125 12.4222 12.8205 11.4142 14.0625 11.4142Z"/>
</mask>
<path fill-rule="evenodd" clip-rule="evenodd" d="M14.0625 10.2892C12.2001 10.2892 10.6875 11.8012 10.6875 13.6642C10.6875 15.5267 12.2001 17.0392 14.0625 17.0392C15.9249 17.0392 17.4375 15.5267 17.4375 13.6642C17.4375 11.8012 15.9249 10.2892 14.0625 10.2892ZM14.0625 11.4142C15.3045 11.4142 16.3125 12.4222 16.3125 13.6642C16.3125 14.9057 15.3045 15.9142 14.0625 15.9142C12.8205 15.9142 11.8125 14.9057 11.8125 13.6642C11.8125 12.4222 12.8205 11.4142 14.0625 11.4142Z" fill="#4B3AFF"/>
<path d="M14.0625 8.78925C11.3718 8.78925 9.1875 10.9727 9.1875 13.6642H12.1875C12.1875 12.6298 13.0283 11.7892 14.0625 11.7892V8.78925ZM9.1875 13.6642C9.1875 16.3551 11.3716 18.5392 14.0625 18.5392V15.5392C13.0285 15.5392 12.1875 14.6983 12.1875 13.6642H9.1875ZM14.0625 18.5392C16.7534 18.5392 18.9375 16.3551 18.9375 13.6642H15.9375C15.9375 14.6983 15.0965 15.5392 14.0625 15.5392V18.5392ZM18.9375 13.6642C18.9375 10.9727 16.7532 8.78925 14.0625 8.78925V11.7892C15.0967 11.7892 15.9375 12.6298 15.9375 13.6642H18.9375ZM14.0625 12.9142C14.4761 12.9142 14.8125 13.2507 14.8125 13.6642H17.8125C17.8125 11.5938 16.1329 9.91425 14.0625 9.91425V12.9142ZM14.8125 13.6642C14.8125 14.0775 14.4758 14.4142 14.0625 14.4142V17.4142C16.1332 17.4142 17.8125 15.7339 17.8125 13.6642H14.8125ZM14.0625 14.4142C13.6492 14.4142 13.3125 14.0775 13.3125 13.6642H10.3125C10.3125 15.7339 11.9918 17.4142 14.0625 17.4142V14.4142ZM13.3125 13.6642C13.3125 13.2507 13.6489 12.9142 14.0625 12.9142V9.91425C11.9921 9.91425 10.3125 11.5938 10.3125 13.6642H13.3125Z" fill="#4B3AFF" mask="url(#path-5-inside-3_80_15689)"/>
<mask id="path-7-inside-4_80_15689" fill="white">
<path fill-rule="evenodd" clip-rule="evenodd" d="M14.625 14.9102V13.7616C14.625 13.4511 14.373 13.1991 14.0625 13.1991C13.752 13.1991 13.5 13.4511 13.5 13.7616V14.9102C13.5 15.2207 13.752 15.4727 14.0625 15.4727C14.373 15.4727 14.625 15.2207 14.625 14.9102Z"/>
</mask>
<path fill-rule="evenodd" clip-rule="evenodd" d="M14.625 14.9102V13.7616C14.625 13.4511 14.373 13.1991 14.0625 13.1991C13.752 13.1991 13.5 13.4511 13.5 13.7616V14.9102C13.5 15.2207 13.752 15.4727 14.0625 15.4727C14.373 15.4727 14.625 15.2207 14.625 14.9102Z" fill="#4B3AFF"/>
<path d="M16.125 14.9102V13.7616H13.125V14.9102H16.125ZM16.125 13.7616C16.125 12.6226 15.2014 11.6991 14.0625 11.6991V14.6991C13.5446 14.6991 13.125 14.2795 13.125 13.7616H16.125ZM14.0625 11.6991C12.9236 11.6991 12 12.6226 12 13.7616H15C15 14.2795 14.5804 14.6991 14.0625 14.6991V11.6991ZM12 13.7616V14.9102H15V13.7616H12ZM12 14.9102C12 16.0491 12.9236 16.9727 14.0625 16.9727V13.9727C14.5804 13.9727 15 14.3923 15 14.9102H12ZM14.0625 16.9727C15.2014 16.9727 16.125 16.0491 16.125 14.9102H13.125C13.125 14.3923 13.5446 13.9727 14.0625 13.9727V16.9727Z" fill="#4B3AFF" mask="url(#path-7-inside-4_80_15689)"/>
<path d="M13.875 12.4909C13.875 12.3873 13.9589 12.3034 14.0625 12.3034C14.1661 12.3034 14.25 12.3873 14.25 12.4909C14.25 12.5944 14.1661 12.6784 14.0625 12.6784C13.9589 12.6784 13.875 12.5944 13.875 12.4909Z" fill="#4B3AFF" stroke="#4B3AFF" stroke-width="1.5"/>
</svg>
