<svg width="21" height="18" viewBox="0 0 21 18" fill="none" xmlns="http://www.w3.org/2000/svg">
<path d="M14.5835 11.75L9.0835 6.25M14.5835 6.25L9.0835 11.75" stroke="#717171" stroke-width="1.83333" stroke-linecap="round"/>
<path d="M5.78341 2.4C5.95418 2.17231 6.17562 1.9875 6.43019 1.86022C6.68476 1.73293 6.96547 1.66667 7.25008 1.66667L17.3334 1.66667C17.8196 1.66667 18.286 1.85982 18.6298 2.20364C18.9736 2.54745 19.1667 3.01377 19.1667 3.5V14.5C19.1667 14.9862 18.9736 15.4525 18.6298 15.7964C18.286 16.1402 17.8196 16.3333 17.3334 16.3333H7.25008C6.96547 16.3333 6.68476 16.2671 6.43019 16.1398C6.17562 16.0125 5.95418 15.8277 5.78341 15.6L1.65841 10.1C1.42041 9.78266 1.29175 9.39668 1.29175 9C1.29175 8.60332 1.42041 8.21734 1.65841 7.9L5.78341 2.4Z" stroke="#717171" stroke-width="1.83333" stroke-linecap="round" stroke-linejoin="round"/>
</svg>
