<svg width="20" height="20" viewBox="0 0 20 20" fill="none" xmlns="http://www.w3.org/2000/svg">
<mask id="mask0_409_517" style="mask-type:luminance" maskUnits="userSpaceOnUse" x="0" y="0" width="20" height="20">
<path d="M0.5 0.500002H19.5V19.5H0.5V0.500002Z" fill="white"/>
</mask>
<g mask="url(#mask0_409_517)">
<path d="M11.7887 3.07098C12.4448 3.24031 13.0646 3.50026 13.6337 3.83684C13.6337 3.83684 13.9079 3.56256 14.2159 3.25459C14.4395 3.03075 14.7429 2.90521 15.0593 2.90521C15.3752 2.90521 15.6787 3.03075 15.9023 3.25459C16.1736 3.5259 16.4741 3.82637 16.7454 4.09768C16.9693 4.32127 17.0948 4.62475 17.0948 4.94073C17.0948 5.25705 16.9693 5.5605 16.7454 5.78408C16.4374 6.09205 16.1632 6.36629 16.1632 6.36629C16.4997 6.9354 16.7597 7.55516 16.929 8.21133H17.7509C18.4094 8.21133 18.9434 8.74526 18.9434 9.40376V10.5962C18.9434 11.2547 18.4094 11.7887 17.7509 11.7887H16.929C16.7597 12.4448 16.4997 13.0646 16.1632 13.6337C16.1632 13.6337 16.4374 13.908 16.7454 14.2159C16.9693 14.4395 17.0948 14.743 17.0948 15.0593C17.0948 15.3753 16.9693 15.6787 16.7454 15.9023C16.4741 16.1736 16.1736 16.4741 15.9023 16.7454C15.6787 16.9693 15.3752 17.0948 15.0593 17.0948C14.7429 17.0948 14.4395 16.9693 14.2159 16.7454C13.9079 16.4374 13.6337 16.1632 13.6337 16.1632C13.0646 16.4997 12.4448 16.7597 11.7887 16.929V17.7509C11.7887 18.4094 11.2547 18.9434 10.5962 18.9434H9.40376C8.74522 18.9434 8.21133 18.4094 8.21133 17.7509V16.929C7.5552 16.7597 6.9354 16.4997 6.36629 16.1632C6.36629 16.1632 6.09205 16.4374 5.78408 16.7454C5.56049 16.9693 5.25701 17.0948 4.94073 17.0948C4.62474 17.0948 4.32123 16.9693 4.09768 16.7454C3.82641 16.4741 3.5259 16.1736 3.25459 15.9023C3.03075 15.6787 2.90521 15.3753 2.90521 15.0593C2.90521 14.743 3.03075 14.4395 3.25459 14.2159C3.56256 13.908 3.83684 13.6337 3.83684 13.6337C3.50026 13.0646 3.24034 12.4448 3.07097 11.7887H2.24911C1.59057 11.7887 1.05664 11.2547 1.05664 10.5962V9.40376C1.05664 8.74526 1.59057 8.21133 2.24911 8.21133H3.07097C3.24034 7.55516 3.50026 6.9354 3.83684 6.36629C3.83684 6.36629 3.56256 6.09205 3.25459 5.78408C3.03075 5.5605 2.90521 5.25705 2.90521 4.94073C2.90521 4.62475 3.03075 4.32127 3.25459 4.09768C3.5259 3.82637 3.82641 3.5259 4.09768 3.25459C4.32123 3.03075 4.62474 2.90521 4.94073 2.90521C5.25701 2.90521 5.56049 3.03075 5.78408 3.25459C6.09205 3.56256 6.36629 3.83684 6.36629 3.83684C6.9354 3.50026 7.5552 3.24031 8.21133 3.07098V2.24908C8.21133 1.59053 8.74522 1.05664 9.40376 1.05664H10.5962C11.2547 1.05664 11.7887 1.59053 11.7887 2.24908V3.07098Z" stroke="#4B3AFF" stroke-width="1.4" stroke-miterlimit="10" stroke-linecap="round" stroke-linejoin="round"/>
<path d="M10.0002 6.42264C11.9746 6.42264 13.5775 8.02558 13.5775 9.99999C13.5775 11.9744 11.9746 13.5773 10.0002 13.5773C8.02579 13.5773 6.42285 11.9744 6.42285 9.99999C6.42285 8.02558 8.02579 6.42264 10.0002 6.42264Z" stroke="#4B3AFF" stroke-width="1.4" stroke-miterlimit="10" stroke-linecap="round" stroke-linejoin="round"/>
</g>
</svg>
