<svg width="17" height="14" viewBox="0 0 17 14" fill="none" xmlns="http://www.w3.org/2000/svg">
<path d="M11.5 4.37501C12.4997 5.70851 12.4997 8.29151 11.5 9.62501M13.75 1.75001C16.741 4.60601 16.759 9.41276 13.75 12.25M1 9.21926V4.78001C1 4.34951 1.336 4.00001 1.75 4.00001H4.4395C4.53875 3.99966 4.6369 3.97921 4.72803 3.93989C4.81916 3.90058 4.90139 3.84321 4.96975 3.77126L7.21975 1.23026C7.69225 0.73826 8.5 1.08701 8.5 1.78226V12.2178C8.5 12.9183 7.6825 13.264 7.213 12.7623L4.9705 10.2355C4.90194 10.1615 4.81889 10.1024 4.7265 10.0619C4.63412 10.0214 4.53438 10.0003 4.4335 10H1.75C1.336 10 1 9.65051 1 9.21926Z" stroke="#4B3AFF" stroke-width="1.2" stroke-linecap="round" stroke-linejoin="round"/>
</svg>
