<svg width="16" height="15" viewBox="0 0 16 15" fill="none" xmlns="http://www.w3.org/2000/svg">
<g clip-path="url(#clip0_369_1220)">
<path d="M14 8.125C13.8342 8.125 13.6753 8.19085 13.5581 8.30806C13.4408 8.42527 13.375 8.58424 13.375 8.75V11.3831C13.3745 11.8449 13.1908 12.2877 12.8643 12.6143C12.5377 12.9408 12.0949 13.1245 11.6331 13.125H3.86688C3.40505 13.1245 2.96229 12.9408 2.63573 12.6143C2.30917 12.2877 2.1255 11.8449 2.125 11.3831V8.75C2.125 8.58424 2.05915 8.42527 1.94194 8.30806C1.82473 8.19085 1.66576 8.125 1.5 8.125C1.33424 8.125 1.17527 8.19085 1.05806 8.30806C0.940848 8.42527 0.875 8.58424 0.875 8.75V11.3831C0.875827 12.1764 1.19131 12.9369 1.75221 13.4978C2.31312 14.0587 3.07363 14.3742 3.86688 14.375H11.6331C12.4264 14.3742 13.1869 14.0587 13.7478 13.4978C14.3087 12.9369 14.6242 12.1764 14.625 11.3831V8.75C14.625 8.58424 14.5592 8.42527 14.4419 8.30806C14.3247 8.19085 14.1658 8.125 14 8.125Z" fill="#4B3AFF"/>
<path d="M4.44201 5.44186L7.12513 2.75874V10.625C7.12513 10.7907 7.19098 10.9497 7.30819 11.0669C7.4254 11.1841 7.58437 11.25 7.75013 11.25C7.91589 11.25 8.07486 11.1841 8.19207 11.0669C8.30928 10.9497 8.37513 10.7907 8.37513 10.625V2.75874L11.0583 5.44186C11.1761 5.55571 11.334 5.61871 11.4979 5.61728C11.6618 5.61586 11.8185 5.55013 11.9344 5.43425C12.0503 5.31837 12.116 5.16161 12.1174 4.99774C12.1189 4.83387 12.0559 4.67599 11.942 4.55811L8.19201 0.808114C8.0748 0.690944 7.91586 0.625122 7.75013 0.625122C7.5844 0.625122 7.42546 0.690944 7.30826 0.808114L3.55826 4.55811C3.44441 4.67599 3.38141 4.83387 3.38284 4.99774C3.38426 5.16161 3.44999 5.31837 3.56587 5.43425C3.68175 5.55013 3.83851 5.61586 4.00238 5.61728C4.16625 5.61871 4.32413 5.55571 4.44201 5.44186Z" fill="#4B3AFF"/>
</g>
<defs>
<clipPath id="clip0_369_1220">
<rect width="15" height="15" fill="white" transform="translate(0.25)"/>
</clipPath>
</defs>
</svg>
