<svg width="15" height="15" viewBox="0 0 15 15" fill="none" xmlns="http://www.w3.org/2000/svg">
<g clip-path="url(#clip0_544_45242)">
<path d="M13.75 8.125C13.5842 8.125 13.4253 8.19085 13.3081 8.30806C13.1908 8.42527 13.125 8.58424 13.125 8.75V11.3831C13.1245 11.8449 12.9408 12.2877 12.6143 12.6143C12.2877 12.9408 11.8449 13.1245 11.3831 13.125H3.61688C3.15505 13.1245 2.71229 12.9408 2.38573 12.6143C2.05917 12.2877 1.8755 11.8449 1.875 11.3831V8.75C1.875 8.58424 1.80915 8.42527 1.69194 8.30806C1.57473 8.19085 1.41576 8.125 1.25 8.125C1.08424 8.125 0.925269 8.19085 0.808058 8.30806C0.690848 8.42527 0.625 8.58424 0.625 8.75V11.3831C0.625827 12.1764 0.941307 12.9369 1.50221 13.4978C2.06312 14.0587 2.82363 14.3742 3.61688 14.375H11.3831C12.1764 14.3742 12.9369 14.0587 13.4978 13.4978C14.0587 12.9369 14.3742 12.1764 14.375 11.3831V8.75C14.375 8.58424 14.3092 8.42527 14.1919 8.30806C14.0747 8.19085 13.9158 8.125 13.75 8.125Z" fill="#4B3AFF"/>
<path d="M4.19201 5.44199L6.87513 2.75886V10.6251C6.87513 10.7909 6.94098 10.9498 7.05819 11.0671C7.1754 11.1843 7.33437 11.2501 7.50013 11.2501C7.66589 11.2501 7.82486 11.1843 7.94207 11.0671C8.05928 10.9498 8.12513 10.7909 8.12513 10.6251V2.75886L10.8083 5.44199C10.9261 5.55583 11.084 5.61883 11.2479 5.61741C11.4118 5.61598 11.5685 5.55025 11.6844 5.43437C11.8003 5.31849 11.866 5.16173 11.8674 4.99786C11.8689 4.83399 11.8059 4.67611 11.692 4.55824L7.94201 0.808236C7.8248 0.691066 7.66586 0.625244 7.50013 0.625244C7.3344 0.625244 7.17546 0.691066 7.05826 0.808236L3.30826 4.55824C3.19441 4.67611 3.13141 4.83399 3.13284 4.99786C3.13426 5.16173 3.19999 5.31849 3.31587 5.43437C3.43175 5.55025 3.58851 5.61598 3.75238 5.61741C3.91625 5.61883 4.07413 5.55583 4.19201 5.44199Z" fill="#4B3AFF"/>
</g>
<defs>
<clipPath id="clip0_544_45242">
<rect width="15" height="15" fill="white"/>
</clipPath>
</defs>
</svg>
