<svg width="15" height="17" viewBox="0 0 15 17" fill="none" xmlns="http://www.w3.org/2000/svg">
<path d="M7.5 8.49999C9.45601 8.49999 11.0417 6.91433 11.0417 4.95832C11.0417 3.00231 9.45601 1.41666 7.5 1.41666C5.54399 1.41666 3.95833 3.00231 3.95833 4.95832C3.95833 6.91433 5.54399 8.49999 7.5 8.49999Z" stroke="#4B3AFF" stroke-width="1.41667"/>
<path d="M11.0417 9.91666H11.291C11.8088 9.9168 12.3088 10.106 12.697 10.4488C13.0851 10.7916 13.3348 11.2643 13.399 11.7782L13.676 13.991C13.7009 14.1903 13.6831 14.3927 13.6238 14.5847C13.5645 14.7766 13.4651 14.9538 13.3322 15.1043C13.1992 15.2549 13.0357 15.3755 12.8526 15.4581C12.6694 15.5407 12.4708 15.5834 12.2699 15.5833H2.73008C2.52919 15.5834 2.33058 15.5407 2.14744 15.4581C1.9643 15.3755 1.80082 15.2549 1.66785 15.1043C1.53488 14.9538 1.43545 14.7766 1.37618 14.5847C1.3169 14.3927 1.29913 14.1903 1.32404 13.991L1.60029 11.7782C1.66454 11.2641 1.91438 10.7912 2.30284 10.4483C2.6913 10.1055 3.19162 9.91646 3.70971 9.91666H3.95833" stroke="#4B3AFF" stroke-width="1.41667" stroke-linecap="round" stroke-linejoin="round"/>
</svg>
