<svg width="433" height="495" viewBox="0 0 433 495" fill="none" xmlns="http://www.w3.org/2000/svg">
<g clip-path="url(#clip0_1_43)">
<path d="M207.793 464.37L207.242 451.952C207.184 451.921 207.127 451.891 207.069 451.861C201.156 448.755 194.379 454.377 196.268 460.787C198.045 466.819 199.239 473.322 202.492 478.601C204.414 481.668 207 484.262 210.06 486.192C213.12 488.122 216.575 489.338 220.168 489.75L227.68 494.354C228.711 488.602 228.484 482.695 227.014 477.039C225.544 471.384 222.867 466.115 219.167 461.594C217.066 459.079 214.657 456.839 211.996 454.926C210.197 459.675 207.793 464.37 207.793 464.37Z" fill="#F2F2F2"/>
<path d="M140.533 338.34C126.069 323.411 105.11 314.849 83.0279 314.849L82.1762 314.851C67.6316 314.856 53.3466 310.995 40.7821 303.662L39.4747 302.9L40.5277 301.814C46.2287 295.91 50.9891 289.165 54.642 281.813C52.0476 284.234 48.9533 286.055 45.5781 287.146C42.2028 288.237 38.6291 288.573 35.11 288.129C31.3946 287.685 27.8278 286.406 24.677 284.386C21.5263 282.366 18.8734 279.658 16.9174 276.466C9.19966 263.933 0 246.149 0 232.601C0.0120138 221.15 2.40759 209.827 7.03403 199.354C11.6605 188.88 18.4163 179.487 26.8709 171.771C32.2233 166.941 36.4986 161.036 39.4179 154.441C42.3372 147.845 43.835 140.709 43.8137 133.495L43.8094 132.469C43.8079 122.972 44.9674 113.51 47.2621 104.296L47.4951 103.365L48.4516 103.398C54.6202 103.609 60.7919 103.091 66.8395 101.857C61.1669 101.16 55.6175 99.6829 50.3487 97.4667L49.3197 97.05L49.6689 95.9946C73.7428 81.0758 128.085 88.8015 159.626 16.5729C185.202 -41.9947 275.443 68.5634 275.443 132.469C275.443 138.989 268.995 147.607 273.822 151.916C325.999 198.507 289.997 228.424 278.647 258.528C275.954 265.671 281.793 273.512 281.793 281.24C281.793 282.551 281.76 283.904 281.694 285.262L281.593 287.35L279.853 286.192C276.412 283.935 273.222 281.316 270.337 278.379C273.33 285.271 274.74 292.747 274.464 300.256C274.188 307.766 272.234 315.118 268.745 321.771C263.277 332.101 257.987 339.496 253.022 343.75C237.117 357.372 216.614 364.399 195.704 363.394C174.795 362.388 155.059 353.426 140.533 338.34Z" fill="#6658F9"/>
<path d="M227.888 493.741C228.244 493.741 228.587 493.612 228.856 493.379C229.124 493.145 229.299 492.823 229.349 492.47C229.412 492.029 235.562 447.635 230.039 388.635C224.938 334.146 208.557 255.664 159.486 191.207C159.369 191.052 159.222 190.922 159.054 190.824C158.886 190.726 158.701 190.662 158.508 190.636C158.316 190.61 158.12 190.622 157.932 190.672C157.744 190.721 157.568 190.808 157.414 190.925C157.259 191.043 157.129 191.19 157.032 191.359C156.934 191.527 156.871 191.712 156.845 191.905C156.819 192.098 156.831 192.294 156.881 192.481C156.931 192.669 157.017 192.846 157.135 193C205.782 256.9 222.031 334.807 227.096 388.911C232.587 447.568 226.485 491.615 226.423 492.053C226.393 492.263 226.409 492.477 226.469 492.68C226.529 492.884 226.632 493.072 226.771 493.232C226.91 493.392 227.082 493.52 227.274 493.608C227.467 493.696 227.676 493.741 227.888 493.741Z" fill="#B3AFDD"/>
<path d="M187.843 282.126C188.156 282.126 188.46 282.027 188.712 281.844C188.965 281.661 189.153 281.402 189.25 281.105C189.346 280.807 189.347 280.487 189.25 280.19C189.154 279.893 188.966 279.634 188.713 279.45C188.535 279.321 170.584 266.375 143.746 256.539C118.937 247.449 81.2115 239.207 42.3733 251.579C42.1881 251.638 42.0163 251.732 41.8676 251.858C41.719 251.983 41.5965 252.136 41.5071 252.309C41.4177 252.481 41.3633 252.67 41.3468 252.864C41.3303 253.057 41.3521 253.252 41.411 253.438C41.4699 253.623 41.5647 253.795 41.6901 253.943C41.8154 254.092 41.9688 254.214 42.1414 254.303C42.314 254.393 42.5025 254.447 42.6961 254.463C42.8897 254.479 43.0845 254.457 43.2696 254.398C81.312 242.28 118.354 250.385 142.73 259.318C169.184 269.012 186.801 281.716 186.976 281.843C187.228 282.027 187.532 282.126 187.843 282.126Z" fill="#B3AFDD"/>
<path d="M255.483 113.514C255.505 113.202 255.429 112.891 255.264 112.626C255.1 112.361 254.855 112.154 254.566 112.036C254.277 111.918 253.958 111.895 253.655 111.97C253.352 112.045 253.08 112.214 252.879 112.453C252.737 112.621 238.543 129.61 226.809 155.692C215.964 179.804 205.034 216.872 214.566 256.534C214.657 256.915 214.897 257.245 215.231 257.449C215.565 257.654 215.967 257.718 216.348 257.626C216.729 257.534 217.058 257.295 217.263 256.96C217.467 256.626 217.531 256.224 217.439 255.842C208.103 216.992 218.848 180.598 229.505 156.907C241.071 131.196 254.999 114.525 255.138 114.36C255.34 114.121 255.46 113.825 255.483 113.514Z" fill="#B3AFDD"/>
<path d="M253.483 189.785C254.729 199.854 261.7 208.156 271.837 208.156C276.705 208.156 281.374 206.22 284.816 202.775C288.258 199.33 290.192 194.657 290.192 189.785C290.192 179.639 281.931 172.352 271.837 171.414C261.127 170.418 251.882 176.857 253.483 189.785Z" fill="#2F2E41"/>
<path d="M280.339 485.65L287.328 485.649L290.653 458.665L280.337 458.666L280.339 485.65Z" fill="#FFB6B6"/>
<path d="M280.093 492.948L301.587 492.947V492.675C301.587 490.454 300.705 488.324 299.137 486.754C297.568 485.184 295.44 484.301 293.221 484.301L289.294 481.32L281.969 484.302L280.093 484.302L280.093 492.948Z" fill="#2F2E41"/>
<path d="M252.806 485.65L259.796 485.649L263.121 458.665L252.805 458.666L252.806 485.65Z" fill="#FFB6B6"/>
<path d="M252.561 492.948L274.055 492.947V492.675C274.055 490.454 273.173 488.324 271.604 486.754C270.035 485.184 267.907 484.301 265.689 484.301L261.762 481.32L254.437 484.302L252.56 484.302L252.561 492.948Z" fill="#2F2E41"/>
<path d="M304.392 316.643L309.334 333.601L303.512 405.421C303.512 405.421 306.51 409.911 304.392 409.911C302.274 409.911 299.558 410.907 301.269 413.588C302.98 416.27 297.132 425.898 297.132 425.898L288.861 477.036L278.322 476.88C278.322 476.88 272.963 473.892 275.97 470.871C278.978 467.85 281.095 467.85 278.272 465.024C275.448 462.198 275.448 463.049 275.448 460.857C275.448 458.665 272.619 431.876 279.328 421.6L277.306 379.703L272.545 420.799L262.741 475.623L252.588 475.539C252.588 475.539 247.898 471.015 247.907 467.666C247.915 464.317 250.804 464.039 248.654 462.058C246.504 460.078 246.504 429.651 252.857 412.737C252.857 412.737 256.451 403.288 252.849 400.049C249.247 396.811 252.845 393.106 252.845 393.106C252.845 393.106 258.55 391.042 252.839 385.095C247.129 379.147 252.809 337.083 252.809 337.083C252.809 337.083 246.566 320.104 252.888 313.427C259.211 306.751 304.392 316.643 304.392 316.643Z" fill="#2F2E41"/>
<path d="M216.377 345.859L225.194 324.533L232.141 328.396L227.946 350.09C228.366 351.464 228.394 352.929 228.029 354.319C227.663 355.709 226.917 356.969 225.875 357.958C224.833 358.947 223.535 359.625 222.129 359.916C220.723 360.208 219.264 360.101 217.915 359.608C216.566 359.114 215.381 358.254 214.494 357.124C213.607 355.994 213.052 354.638 212.892 353.21C212.733 351.782 212.974 350.337 213.59 349.038C214.205 347.74 215.171 346.639 216.377 345.859Z" fill="#FFB6B6"/>
<path d="M364.327 177.22L350.912 195.992L345.02 190.655L354.018 170.476C353.92 169.043 354.223 167.61 354.894 166.339C355.565 165.068 356.577 164.01 357.816 163.283C359.055 162.556 360.471 162.19 361.907 162.225C363.343 162.26 364.74 162.695 365.942 163.481C367.144 164.268 368.103 165.374 368.712 166.676C369.32 167.978 369.553 169.424 369.385 170.851C369.218 172.279 368.655 173.631 367.762 174.756C366.868 175.881 365.679 176.735 364.327 177.22Z" fill="#FFB6B6"/>
<path d="M305.723 318.381C314.425 331.89 270.686 349.033 253.903 342.151C250.964 340.946 240.855 336.965 247.765 331.446C254.675 325.928 246.964 325.151 246.782 321.559C246.66 319.157 248.518 313.888 246.579 314.114C244.641 314.34 242.372 311.018 246.594 309.589C250.816 308.16 246.639 306.856 246.676 305.499C247.08 290.693 258.43 267.142 258.43 267.142L237.978 319.468C237.978 319.468 238.129 328.521 235.521 325.755C232.913 322.988 233.102 331.942 233.102 331.942C233.102 331.942 229.224 334.651 231.454 336.159C233.684 337.666 229.053 342.301 229.053 342.301L218.247 341.529C218.247 341.529 218.417 333.495 220.262 331.718C222.107 329.941 221.2 327.145 221.2 327.145C221.2 327.145 226.004 322.889 222.784 319.434C218.642 314.989 233.743 239.923 238.955 240.666C239.691 237.077 241.405 233.762 243.907 231.087C246.409 228.412 249.601 226.481 253.13 225.509L264.801 222.292L266.874 214.063H283.307L286.17 219.47L298.664 225.113C301.017 221.79 302.776 218.288 312.413 217.153C312.413 217.153 338.379 193.506 337.112 191.659C335.844 189.813 339.869 185.49 339.869 185.49C339.869 185.49 343.307 184.364 341.367 183.763C339.427 183.162 343.094 181.772 343.094 181.772C343.094 181.772 346.49 180.878 344.888 179.703C343.286 178.527 350.233 177.754 350.233 177.754L359.246 185.114L357.424 188.206C357.424 188.206 358.535 192.416 357.085 190.879C355.636 189.342 355.363 193.802 355.363 193.802C355.363 193.802 354.623 198.686 350.233 200.157C345.843 201.629 342.515 215.608 342.515 215.608C332.162 229.08 319.944 239.59 305.466 246.509C311.109 252.991 305.723 318.381 305.723 318.381Z" fill="white"/>
<path d="M273.866 209.246C282.855 209.246 290.143 201.953 290.143 192.956C290.143 183.959 282.855 176.665 273.866 176.665C264.877 176.665 257.59 183.959 257.59 192.956C257.59 201.953 264.877 209.246 273.866 209.246Z" fill="#FFB6B6"/>
<path d="M257.012 194.731C257.528 198.271 260.542 203.21 259.836 203.21C259.13 203.21 254.111 188.616 259.13 187.665C262.771 186.975 263.585 187.58 266.987 186.103L266.507 186.556C268.759 188.195 271.894 187.184 274.464 186.117C277.04 185.058 280.168 184.047 282.427 185.679C283.846 186.704 284.446 188.484 285.328 189.997C286.211 191.516 287.841 192.95 289.522 192.484C290.87 192.109 291.647 190.597 291.639 189.198C291.632 187.799 289.812 186.468 290.425 185.213C292.242 181.493 290.608 178.958 286.648 177.208C285.208 176.988 283.768 176.765 282.328 176.536C283.083 175.49 283.997 174.57 285.039 173.809C284.599 172.68 283.838 171.705 282.85 171.004C281.7 170.318 280.274 170.368 278.939 170.439C275.96 170.594 272.983 170.749 270.009 170.905C267.806 171.018 265.526 171.152 263.557 172.163C261.1 173.427 259.49 175.893 258.318 178.402C255.692 184.04 256.109 188.576 257.012 194.731Z" fill="#2F2E41"/>
<path d="M189.304 494.783L349.379 495C349.602 495 349.816 494.911 349.974 494.754C350.131 494.596 350.22 494.382 350.22 494.159C350.22 493.936 350.131 493.722 349.974 493.564C349.816 493.406 349.602 493.317 349.379 493.317L189.304 493.1C189.081 493.1 188.867 493.189 188.709 493.347C188.552 493.504 188.463 493.718 188.463 493.942C188.463 494.165 188.552 494.379 188.709 494.536C188.867 494.694 189.081 494.783 189.304 494.783Z" fill="#CACACA"/>
<path d="M131.408 421.447C131.704 419.417 129.579 417.427 126.664 417.002C123.748 416.578 121.145 417.879 120.85 419.909C120.555 421.939 122.68 423.929 125.595 424.353C128.511 424.778 131.113 423.477 131.408 421.447Z" fill="#E6E6E6"/>
<path d="M166.121 418.056C166.416 416.026 164.292 414.037 161.377 413.612C158.461 413.187 155.858 414.489 155.563 416.519C155.268 418.549 157.392 420.539 160.308 420.963C163.223 421.388 165.826 420.086 166.121 418.056Z" fill="#B3AFDD"/>
<path d="M121.903 393.319C122.198 391.289 120.074 389.299 117.158 388.875C114.243 388.45 111.64 389.752 111.345 391.782C111.05 393.812 113.174 395.801 116.09 396.226C119.005 396.65 121.608 395.349 121.903 393.319Z" fill="#FF6584"/>
<path d="M106.819 381.798C106.833 379.934 105.795 378.415 104.5 378.405C103.204 378.396 102.143 379.898 102.129 381.762C102.115 383.626 103.153 385.144 104.449 385.154C105.744 385.164 106.805 383.661 106.819 381.798Z" fill="#E6E6E6"/>
<path d="M101.704 360.338C101.718 358.474 100.68 356.955 99.3844 356.946C98.0891 356.936 97.0276 358.439 97.0135 360.302C96.9995 362.166 98.0381 363.685 99.3334 363.694C100.629 363.704 101.69 362.201 101.704 360.338Z" fill="#B3AFDD"/>
<path d="M141.481 398.106C141.495 396.242 140.457 394.723 139.162 394.713C137.866 394.704 136.805 396.206 136.791 398.07C136.777 399.934 137.815 401.452 139.111 401.462C140.406 401.472 141.467 399.969 141.481 398.106Z" fill="#E6E6E6"/>
<path d="M124.707 406.488C124.721 404.625 123.682 403.106 122.387 403.096C121.091 403.087 120.03 404.589 120.016 406.453C120.002 408.317 121.04 409.835 122.336 409.845C123.631 409.855 124.693 408.352 124.707 406.488Z" fill="#FF6584"/>
<path d="M148.058 421.982C148.072 420.118 147.033 418.6 145.738 418.59C144.443 418.58 143.381 420.083 143.367 421.947C143.353 423.81 144.392 425.329 145.687 425.339C146.982 425.348 148.044 423.846 148.058 421.982Z" fill="#B3AFDD"/>
<path d="M398.26 312.634C398.555 310.604 396.431 308.614 393.515 308.189C390.599 307.765 387.997 309.066 387.702 311.096C387.406 313.126 389.531 315.116 392.446 315.541C395.362 315.965 397.965 314.664 398.26 312.634Z" fill="#E6E6E6"/>
<path d="M432.973 309.244C433.268 307.214 431.143 305.224 428.228 304.799C425.312 304.375 422.71 305.676 422.414 307.706C422.119 309.736 424.244 311.726 427.159 312.15C430.075 312.575 432.678 311.274 432.973 309.244Z" fill="#B3AFDD"/>
<path d="M388.754 284.506C389.049 282.476 386.925 280.487 384.009 280.062C381.093 279.637 378.491 280.939 378.196 282.969C377.9 284.999 380.025 286.989 382.94 287.413C385.856 287.838 388.459 286.536 388.754 284.506Z" fill="#FF6584"/>
<path d="M373.671 272.985C373.685 271.121 372.646 269.603 371.351 269.593C370.056 269.583 368.994 271.086 368.98 272.949C368.966 274.813 370.005 276.332 371.3 276.341C372.595 276.351 373.657 274.848 373.671 272.985Z" fill="#E6E6E6"/>
<path d="M368.555 251.525C368.57 249.661 367.531 248.143 366.236 248.133C364.94 248.123 363.879 249.626 363.865 251.489C363.851 253.353 364.889 254.872 366.185 254.882C367.48 254.891 368.541 253.389 368.555 251.525Z" fill="#B3AFDD"/>
<path d="M408.333 289.293C408.347 287.429 407.308 285.911 406.013 285.901C404.718 285.891 403.656 287.394 403.642 289.257C403.628 291.121 404.667 292.64 405.962 292.649C407.257 292.659 408.319 291.156 408.333 289.293Z" fill="#E6E6E6"/>
<path d="M391.558 297.676C391.572 295.812 390.533 294.293 389.238 294.284C387.943 294.274 386.881 295.776 386.867 297.64C386.853 299.504 387.892 301.022 389.187 301.032C390.482 301.042 391.544 299.539 391.558 297.676Z" fill="#FF6584"/>
<path d="M414.909 313.169C414.923 311.306 413.884 309.787 412.589 309.777C411.294 309.767 410.232 311.27 410.218 313.134C410.204 314.997 411.243 316.516 412.538 316.526C413.833 316.536 414.895 315.033 414.909 313.169Z" fill="#B3AFDD"/>
<path d="M269.07 111.259C269.365 109.229 267.241 107.24 264.325 106.815C261.409 106.391 258.807 107.692 258.512 109.722C258.217 111.752 260.341 113.742 263.256 114.166C266.172 114.591 268.775 113.289 269.07 111.259Z" fill="white"/>
<path d="M303.783 107.869C304.078 105.839 301.954 103.85 299.038 103.425C296.122 103 293.52 104.302 293.225 106.332C292.929 108.362 295.054 110.352 297.969 110.776C300.885 111.201 303.488 109.899 303.783 107.869Z" fill="#B3AFDD"/>
<path d="M259.564 83.132C259.86 81.102 257.735 79.1122 254.82 78.6876C251.904 78.263 249.301 79.5645 249.006 81.5945C248.711 83.6245 250.835 85.6143 253.751 86.0389C256.667 86.4635 259.269 85.162 259.564 83.132Z" fill="#FF6584"/>
<path d="M244.481 71.6106C244.495 69.7469 243.456 68.2282 242.161 68.2184C240.866 68.2086 239.804 69.7114 239.79 71.5751C239.776 73.4387 240.815 74.9574 242.11 74.9672C243.405 74.977 244.467 73.4742 244.481 71.6106Z" fill="#E6E6E6"/>
<path d="M239.366 50.1507C239.38 48.2871 238.341 46.7684 237.046 46.7586C235.75 46.7488 234.689 48.2516 234.675 50.1152C234.661 51.9788 235.699 53.4975 236.995 53.5073C238.29 53.5171 239.351 52.0143 239.366 50.1507Z" fill="#B3AFDD"/>
<path d="M279.143 87.9186C279.157 86.0549 278.118 84.5362 276.823 84.5264C275.528 84.5166 274.466 86.0194 274.452 87.8831C274.438 89.7467 275.477 91.2654 276.772 91.2752C278.067 91.285 279.129 89.7822 279.143 87.9186Z" fill="#E6E6E6"/>
<path d="M262.368 96.3014C262.382 94.4378 261.343 92.9191 260.048 92.9093C258.753 92.8995 257.691 94.4023 257.677 96.2659C257.663 98.1295 258.702 99.6482 259.997 99.658C261.292 99.6678 262.354 98.165 262.368 96.3014Z" fill="#FF6584"/>
<path d="M285.719 111.795C285.733 109.931 284.695 108.413 283.399 108.403C282.104 108.393 281.043 109.896 281.028 111.759C281.014 113.623 282.053 115.142 283.348 115.152C284.644 115.161 285.705 113.659 285.719 111.795Z" fill="#B3AFDD"/>
</g>
<defs>
<clipPath id="clip0_1_43">
<rect width="433" height="495" fill="white"/>
</clipPath>
</defs>
</svg>
