<svg id="Capa_1" enable-background="new 0 0 512 512" height="512" viewBox="0 0 512 512" width="512" xmlns="http://www.w3.org/2000/svg"><g><g><path clip-rule="evenodd" d="m399.17 302.834c-9.526 75.233-7.286 163.317 2.399 204.685.456 1.948-1.005 3.815-3.005 3.815h-285.159c-2 0-3.461-1.867-3.005-3.815 9.685-41.367 11.926-129.452 2.41-204.685l-40.184 206c-.283 1.452-1.555 2.499-3.034 2.499h-66.5c-1.733 0-3.127-1.424-3.091-3.156l2.696-129.277 3.328-142.603c1.69-72.688 30.161-115.667 102.539-137.111 53.877-15.953 69.206-50.246 84.295-96.383.416-1.271 1.601-2.138 2.938-2.138h120.377c1.337 0 2.521.866 2.938 2.136 15.119 46.137 30.447 80.431 84.325 96.385 72.378 21.444 100.849 64.423 102.539 137.111l3.328 142.603 2.696 129.277c.036 1.732-1.358 3.156-3.091 3.156h-66.5c-1.479 0-2.751-1.048-3.034-2.499z" fill="#fed2a4" fill-rule="evenodd"/></g><g><path clip-rule="evenodd" d="m280.002 20.78c15.318 47.216 30.281 82.317 84.994 98.519 72.377 21.446 100.847 64.426 102.539 137.145l3.325 142.595 2.345 112.293h35.704c1.733 0 3.127-1.424 3.091-3.156l-2.695-129.28-3.325-142.595c-1.692-72.69-30.162-115.67-102.539-137.116-53.885-15.957-69.213-50.245-84.326-96.383-.416-1.27-1.601-2.136-2.938-2.136h-38.282z" fill="#ffbd86" fill-rule="evenodd"/></g><g><path d="m112.795 310.56c-3.75 0-7.042-2.734-7.629-6.555-5.467-35.57-13.71-66.482-24.5-91.872-1.669-3.929.162-8.467 4.091-10.135 3.929-1.672 8.466.162 10.135 4.09 11.265 26.511 19.848 58.575 25.511 95.305.582 3.776-1.539 7.578-5.167 8.776-.821.269-1.641.391-2.441.391z" fill="#ffbd86"/></g><g><path d="m263.718 256.32v255.013h-15.457v-255.333c0-4.338 3.57-7.846 7.947-7.725 4.237.116 7.51 3.807 7.51 8.045z" fill="#ffbd86"/></g><g><path d="m160.131 287.988c-2.281 0-4.544-1.005-6.073-2.943-2.631-3.335-1.919-8.234 1.368-10.924 25.522-20.894 38.218-42.269 39.93-67.225v-78.476c0-4.232 3.261-7.922 7.49-8.049 4.377-.131 7.966 3.377 7.966 7.725v79.058c-.005.165-.011.331-.016.497-1.947 29.705-16.494 54.678-45.781 78.595-1.436 1.171-3.166 1.742-4.884 1.742z" fill="#ffbd86"/></g><g><path d="m197.404 473.268c-3.673 0-6.93-2.627-7.599-6.37-1.151-6.441-3.471-12.131-6.897-16.911-3.421-4.835-7.861-8.744-13.594-11.984-3.626-2.049-5.202-6.638-3.315-10.351 2.001-3.935 6.851-5.384 10.667-3.248 7.771 4.349 14.107 9.939 18.832 16.617 4.717 6.581 7.918 14.321 9.489 22.971.66 3.631-1.265 7.364-4.697 8.721-.967.383-1.94.555-2.886.555z" fill="#ffbd86"/></g><g><path d="m399.175 310.56c-.48 0-.967-.045-1.459-.137-4.123-.773-6.797-4.849-6.154-8.994 5.718-36.895 14.314-68.974 25.549-95.348 1.672-3.927 6.212-5.752 10.139-4.082 3.927 1.673 5.754 6.213 4.081 10.139-10.754 25.244-19.006 56.155-24.528 91.872-.59 3.819-3.881 6.55-7.628 6.55z" fill="#ffbd86"/></g><g><path d="m351.869 287.988c-1.717 0-3.446-.57-4.88-1.739-29.288-23.887-43.836-48.862-45.785-78.598-.005-.165-.011-.331-.016-.497v-78.734c0-4.232 3.261-7.922 7.49-8.049 4.377-.131 7.966 3.377 7.966 7.725v78.8c1.714 24.984 14.409 46.357 39.927 67.222 3.288 2.689 4.003 7.587 1.373 10.923-1.528 1.94-3.792 2.947-6.075 2.947z" fill="#ffbd86"/></g><g><path d="m314.596 473.268c-.997 0-2.025-.19-3.044-.627-3.343-1.436-5.172-5.125-4.53-8.707 1.548-8.635 4.751-16.363 9.522-22.972 4.64-6.558 10.905-12.113 18.58-16.456 3.423-1.937 7.882-1.108 10.191 2.075 2.768 3.816 1.536 9.064-2.45 11.304-5.82 3.27-10.316 7.217-13.746 12.063-3.483 4.826-5.797 10.499-6.919 16.92-.656 3.756-3.919 6.4-7.604 6.4z" fill="#ffbd86"/></g></g></svg>