<svg width="2400" height="2400" viewBox="0 0 2400 2400" fill="none" xmlns="http://www.w3.org/2000/svg">
<g clip-path="url(#clip0_716_23932)">
<path d="M1898.06 1385.63C1908.47 1425.45 1919.7 1479.38 1931.13 1540.82L1930.4 1540.93L1675.5 1601.05L1665.62 1603.34C1650.86 1537.8 1637.14 1481.13 1625.63 1442.07C1587.33 1479.27 1583.49 1579.51 1580.73 1608.87C1574.49 1675.64 1582 2102.76 1582.65 2195.6L1569.16 2195.69L1189.37 2196.25L809.582 2196.82C809.582 2133.37 818.106 1669.32 811.586 1599.49C808.82 1570.11 804.982 1469.93 766.685 1432.7H766.656C755.622 1470.21 742.526 1523.94 728.443 1586.17L728.133 1586.09L461.349 1530.52L461.377 1530.41C472.75 1469.39 483.898 1415.82 494.256 1376.23C562.243 1116.27 618.236 1040.27 672.564 999.066C708.293 971.973 892.725 954.165 942.961 942.537C988.144 932.095 1029.18 851.013 1037.03 834.672C1080.01 870.345 1131.01 891.004 1185.7 891.004C1247.2 891.004 1304.01 864.898 1350.01 820.759C1357.18 837.579 1403.15 941.267 1449.35 951.935C1499.59 963.563 1684.02 981.371 1719.75 1008.46C1774.08 1049.64 1830.07 1125.64 1898.06 1385.63ZM1457 1444.07C1457 1427.71 1445.09 1414.41 1430.44 1414.41C1415.77 1414.41 1403.89 1427.71 1403.89 1444.07C1403.89 1460.47 1415.77 1473.77 1430.44 1473.77C1445.09 1473.76 1457 1460.47 1457 1444.07ZM991.531 1444.07C991.531 1427.71 979.649 1414.41 964.974 1414.41C950.327 1414.41 938.417 1427.71 938.417 1444.07C938.417 1460.47 950.327 1473.77 964.974 1473.77C979.649 1473.76 991.531 1460.47 991.531 1444.07Z" fill="#FFEEC8"/>
<path d="M1430.44 1414.41C1445.09 1414.41 1457 1427.71 1457 1444.07C1457 1460.47 1445.09 1473.77 1430.44 1473.77C1415.77 1473.77 1403.89 1460.47 1403.89 1444.07C1403.89 1427.71 1415.77 1414.41 1430.44 1414.41Z" fill="#FFEEC8"/>
<path d="M1350.01 820.759C1304.01 864.898 1247.2 891.004 1185.7 891.004C1131.01 891.004 1080.01 870.345 1037.03 834.672C959.555 770.41 908.163 657.408 908.163 528.715C908.163 328.591 1032.42 166.398 1185.7 166.398C1339.03 166.398 1463.29 328.591 1463.29 528.715C1463.29 648.547 1418.73 754.803 1350.01 820.759Z" fill="#FFEEC8"/>
<path d="M964.974 1414.41C979.649 1414.41 991.531 1427.71 991.531 1444.07C991.531 1460.47 979.649 1473.77 964.974 1473.77C950.327 1473.77 938.417 1460.47 938.417 1444.07C938.417 1427.71 950.327 1414.41 964.974 1414.41Z" fill="#FFEEC8"/>
<path d="M1349.02 818.444C1349.02 818.444 1349.36 819.263 1350.01 820.758C1357.18 837.579 1403.15 941.267 1449.35 951.935C1499.59 963.563 1684.02 981.371 1719.75 1008.46C1774.08 1049.64 1830.07 1125.64 1898.06 1385.63C1908.47 1425.45 1919.71 1479.38 1931.14 1540.82M1610.11 1397.62C1614.62 1407.27 1619.84 1422.46 1625.63 1442.07C1637.14 1481.13 1650.86 1537.8 1665.62 1603.34" stroke="#231F20" stroke-width="14"/>
<path d="M1626.08 1441.62C1625.94 1441.76 1625.77 1441.9 1625.63 1442.07C1587.33 1479.27 1583.49 1579.51 1580.73 1608.87C1574.49 1675.64 1582 2102.76 1582.65 2195.6C1582.68 2199.87 1582.7 2203.42 1582.7 2206.22M1038.41 831.793C1038.41 831.793 1037.93 832.809 1037.03 834.672C1029.18 851.013 988.144 932.095 942.961 942.537C892.725 954.165 708.293 971.973 672.564 999.066C618.236 1040.27 562.243 1116.27 494.256 1376.23C483.898 1415.82 472.75 1469.39 461.377 1530.41M766.656 1432.7C755.621 1470.21 742.526 1523.94 728.443 1586.17M782.207 1388.22C777.663 1397.91 772.442 1413.09 766.685 1432.7" stroke="#231F20" stroke-width="14"/>
<path d="M766.205 1432.25C766.346 1432.39 766.515 1432.53 766.656 1432.7H766.685C804.982 1469.92 808.82 1570.11 811.586 1599.49C818.106 1669.32 809.582 2133.37 809.582 2196.82M1037.03 834.672C959.555 770.41 908.163 657.408 908.163 528.715C908.163 328.591 1032.42 166.398 1185.7 166.398C1339.03 166.398 1463.29 328.591 1463.29 528.715C1463.29 648.546 1418.73 754.803 1350.01 820.758C1304 864.898 1247.19 891.004 1185.7 891.004C1131.01 891.004 1080.01 870.345 1037.03 834.672Z" stroke="#231F20" stroke-width="14"/>
<path d="M430.972 1790.22L1025.85 1542.53Z" fill="white"/>
<path d="M430.972 1790.22L1025.85 1542.53" stroke="#231F20" stroke-width="34.714"/>
<path d="M828.169 1474.95L1028.85 1541.84L934.688 1731.44" stroke="#231F20" stroke-width="34.714"/>
</g>
<defs>
<clipPath id="clip0_716_23932">
<rect width="2400" height="2400" fill="white"/>
</clipPath>
</defs>
</svg>
