<svg width="2400" height="2400" viewBox="0 0 2400 2400" fill="none" xmlns="http://www.w3.org/2000/svg">
<g clip-path="url(#clip0_716_23916)">
<path d="M733.693 1560.77C723.166 1606.21 711.99 1657.24 700.616 1710.41L699.911 1710.27L440.266 1665.11L436.823 1664.52C456.043 1549.63 475.742 1443.23 493.211 1376.48C561.312 1116.13 617.389 1040.01 671.801 998.781C707.559 971.631 892.273 953.795 942.565 942.167C987.806 931.697 1028.87 850.586 1036.77 834.133C1079.81 869.862 1130.92 890.549 1185.7 890.549C1253.94 890.549 1310.36 874.349 1354.13 840.652C1354.13 840.652 1399.34 939.91 1449.72 951.565C1500.04 963.221 1684.73 981.029 1720.51 1008.18C1774.92 1049.41 1831 1125.53 1899.1 1385.88C1914.09 1443.17 1930.71 1529.64 1947.28 1625.6L1687.69 1692.88L1685.97 1693.25C1676.09 1647.58 1666.47 1604.01 1657.38 1564.78L1656.81 1564.92C1656.81 1564.92 1651.25 1687.41 1564.19 1742.89L1574.8 1744.13C1574.01 1893.48 1581.4 2120.22 1582.39 2189.9L1574.8 2190.04L809.018 2198.31C809.018 2148.7 813.646 1898.4 812.8 1738.49L817.174 1731.94C739.817 1673.78 734.681 1561 734.681 1561L733.693 1560.77ZM1453.44 1598.53C1453.44 1582.13 1441.56 1568.82 1426.89 1568.82C1412.18 1568.82 1400.3 1582.14 1400.3 1598.53C1400.3 1614.96 1412.18 1628.28 1426.89 1628.28C1441.56 1628.28 1453.44 1614.96 1453.44 1598.53ZM991.221 1594.61C991.221 1578.21 979.311 1564.9 964.635 1564.9C949.96 1564.9 938.05 1578.22 938.05 1594.61C938.05 1611.04 949.96 1624.36 964.635 1624.36C979.311 1624.36 991.221 1611.04 991.221 1594.61Z" fill="#FFEEC8"/>
<path d="M1426.89 1568.82C1441.56 1568.82 1453.44 1582.14 1453.44 1598.53C1453.44 1614.96 1441.56 1628.28 1426.89 1628.28C1412.18 1628.28 1400.3 1614.96 1400.3 1598.53C1400.3 1582.14 1412.18 1568.82 1426.89 1568.82Z" fill="#FFEEC8"/>
<path d="M1036.77 834.136C959.188 769.761 907.711 656.59 907.711 527.699C907.711 327.321 1032.17 164.874 1185.7 164.874C1339.23 164.874 1463.69 327.321 1463.69 527.699C1463.69 682.949 1425.96 785.368 1354.13 840.655C1310.36 874.352 1253.94 890.552 1185.7 890.552C1130.92 890.552 1079.81 869.865 1036.77 834.136Z" fill="#FFEEC8"/>
<path d="M964.635 1564.89C979.311 1564.89 991.221 1578.21 991.221 1594.61C991.221 1611.03 979.311 1624.35 964.635 1624.35C949.96 1624.35 938.05 1611.03 938.05 1594.61C938.05 1578.21 949.96 1564.89 964.635 1564.89Z" fill="#FFEEC8"/>
<path d="M1354.13 840.655C1354.13 840.655 1399.34 939.913 1449.72 951.569C1500.04 963.224 1684.73 981.033 1720.51 1008.18C1774.92 1049.41 1831 1125.53 1899.1 1385.88C1914.09 1443.17 1930.71 1529.64 1947.28 1625.6M1610.7 1397.9C1622.41 1422.88 1638.81 1484.86 1657.38 1564.78C1666.47 1604.01 1676.09 1647.58 1685.97 1693.25M1038.15 831.229C1038.15 831.229 1037.67 832.273 1036.77 834.136C1028.87 850.589 987.806 931.7 942.565 942.171C892.273 953.798 707.559 971.634 671.801 998.784C617.389 1040.02 561.312 1116.13 493.211 1376.48C475.742 1443.23 456.043 1549.63 436.823 1664.52M781.586 1388.5C769.62 1414.05 752.743 1478.22 733.693 1560.77C723.166 1606.21 711.99 1657.24 700.616 1710.41" stroke="#231F20" stroke-width="14"/>
<path d="M1036.77 834.136C959.188 769.761 907.711 656.59 907.711 527.699C907.711 327.321 1032.17 164.874 1185.7 164.874C1339.23 164.874 1463.69 327.321 1463.69 527.699C1463.69 682.949 1425.96 785.368 1354.13 840.655C1310.36 874.352 1253.94 890.552 1185.7 890.552C1130.92 890.552 1079.81 869.865 1036.77 834.136Z" stroke="#231F20" stroke-width="14"/>
<path d="M812.8 1738.49C813.646 1898.4 809.018 2148.7 809.018 2198.31" stroke="#231F20" stroke-width="14"/>
<path d="M734.681 1561C734.681 1561 739.817 1673.77 817.174 1731.94C856.826 1761.74 915.472 1777.21 1002.17 1755.73C1128.27 1724.52 1157.03 1582.11 1157.03 1582.11" stroke="#231F20" stroke-width="14" stroke-linecap="round" stroke-linejoin="round"/>
<path d="M1574.8 1744.13C1574.01 1893.48 1581.4 2120.22 1582.39 2189.9C1582.47 2194.81 1582.5 2198.96 1582.5 2202.24" stroke="#231F20" stroke-width="14"/>
<path d="M1656.81 1564.92C1656.81 1564.92 1651.25 1687.41 1564.19 1742.89C1524.85 1767.96 1468.91 1779.36 1389.33 1759.66C1263.26 1728.44 1234.47 1586.03 1234.47 1586.03" stroke="#231F20" stroke-width="14" stroke-linecap="round" stroke-linejoin="round"/>
<path d="M388.869 1365.48L1032.75 1340.11Z" fill="white"/>
<path d="M388.869 1365.48L1032.75 1340.11" stroke="#231F20" stroke-width="34.714"/>
<path d="M870.911 1208.01L1035.81 1340.51L881.588 1485.53" stroke="#231F20" stroke-width="34.714"/>
</g>
<defs>
<clipPath id="clip0_716_23916">
<rect width="2400" height="2400" fill="white"/>
</clipPath>
</defs>
</svg>
