<svg id="Capa_1" enable-background="new 0 0 497 497" height="512" viewBox="0 0 497 497" width="512" xmlns="http://www.w3.org/2000/svg"><g><path d="m496 400.555v.011c0 31.293-18.779 56.965-46.527 67.195-7.826 2.887-16.3 4.467-25.135 4.467l-27.088 1h-371.138c-14.421 0-26.112-11.691-26.112-26.112 0-14.415 11.686-26.101 26.101-26.101 14.293 0 28.448-2.789 41.672-8.21l163.011-66.823c18.191-7.928 33.436-20.455 44.613-35.866 15.422-21.265 22.206-47.592 19.854-73.755l-18.135-201.693c-.526-5.853 4.083-10.896 9.96-10.896h143.924l27.534 1c5.876 0 9.486 4.042 8.96 9.895l-17.203 191.433c-4.13 45.958 6.602 92.214 31.501 131.062.686 1.07 1.381 2.135 2.086 3.194 7.659 11.513 12.122 25.334 12.122 40.199z" fill="#fed2a4"/><g fill="#ffbd86"><path d="m370.405 330.434c-19.143 0-34.717-15.574-34.717-34.717 0-4.143 3.357-7.5 7.5-7.5s7.5 3.357 7.5 7.5c0 10.872 8.845 19.717 19.717 19.717s19.717-8.845 19.717-19.717c0-4.143 3.357-7.5 7.5-7.5 4.142 0 7.5 3.357 7.5 7.5 0 19.142-15.574 34.717-34.717 34.717z"/><path d="m497 400.55v.02c0 31.29-19.78 57.96-47.53 68.19-7.82 2.89-16.3 4.47-25.13 4.47h-30c8.83 0 17.31-1.58 25.13-4.47 27.75-10.23 47.53-36.9 47.53-68.19v-.02c0-14.86-4.46-28.68-12.12-40.19-.71-1.06-1.4-2.13-2.09-3.2-24.9-38.85-35.63-85.1-31.5-131.06l17.2-191.43c.53-5.86-4.08-10.9-9.96-10.9h30c5.88 0 10.49 5.04 9.96 10.9l-17.2 191.43c-4.13 45.96 6.6 92.21 31.5 131.06.69 1.07 1.38 2.14 2.09 3.2 7.66 11.51 12.12 25.33 12.12 40.19z"/></g></g></svg>