<svg id="Capa_1" enable-background="new 0 0 512 512" height="512" viewBox="0 0 512 512" width="512" xmlns="http://www.w3.org/2000/svg"><path d="m280.279 461.088h-47.916c-21.46 0-38.858-17.397-38.858-38.858v-58.179h125.631v58.179c0 21.461-17.397 38.858-38.857 38.858z" fill="#fcd0a3"/><path d="m404.517 290.581h.207c17.821 0 32.261-14.452 32.261-32.261 0-17.821-14.44-32.273-32.261-32.273-.232 0-.464 0-.696.012h-295.416c-.232-.012-.464-.012-.696-.012-17.821 0-32.261 14.452-32.261 32.273 0 17.809 14.44 32.261 32.261 32.261h.208" fill="#ffb983"/><path d="m410.514 450.684v61.316h-308.374s0-17.529 0-61.316c0-29.074 40.291-43.916 67.358-50.592h.012c13.692-3.379 23.994-4.681 23.994-4.681h125.635c-.001 0 91.375 11.486 91.375 55.273z" fill="#d82e3d"/><path d="m177.464 512h-75.324s0-17.529 0-61.316c0-29.074 40.291-43.916 67.358-50.592-7.896 21.225-4.341 65.997 7.966 111.908z" fill="#c32430"/><path d="m319.131 417.419v4.816c0 21.463-17.389 38.852-38.852 38.852h-21.057c-21.449 0-38.852-17.389-38.852-38.852v-3.906c32.915.826 65.845.518 98.761-.91z" fill="#fcd0a3"/><path d="m319.135 364.057v53.371l-.014-.014c-32.916 1.428-65.846 1.736-98.762.91v3.906c0 21.463 17.403 38.852 38.852 38.852h-26.854c-21.449 0-38.852-17.389-38.852-38.852v-58.174h125.63z" fill="#ffb983"/><path d="m397.096 141.8c-93.85-9.099-187.701-9.099-281.551 0-7.283 58.353-9.428 116.705-6.435 175.058 2.179 42.478 36.169 76.288 78.655 78.294 45.704 2.158 91.407 2.158 137.111 0 42.486-2.006 76.477-35.817 78.655-78.294 2.993-58.352.848-116.705-6.435-175.058z" fill="#fcd0a3"/><path d="m115.551 141.791c46.917-4.55 93.848-6.818 140.779-6.818-23.76 0-47.519 2.296-71.279 6.889-3.696 58.916-4.774 117.831-3.262 176.733.994 38.768 15.163 70.383 33.756 77.593-9.255-.252-18.523-.602-27.778-1.036-42.479-2.002-76.473-35.814-78.657-78.293-2.982-58.356-.84-116.712 6.441-175.068z" fill="#ffb983"/><path d="m403.237 199.911c-29.962 29.976-89.298-29.962-89.298-29.962 1.68 10.851-1.372 21.421-13.133 29.822-8.331 5.95-17.753 8.569-27.512 8.961-39.104 1.568-83.431-32.818-83.431-32.818-7.897 21.715-31.194 21.281-50.501 16.521-17.767-4.382-32.776-16.143-41.345-32.314-14.729-27.792-34.694-74.807-14.337-95.164 29.822-29.822 66.812 0 66.812 0s35.926-13.483 81.779-23.031c.014 0 .042-.014.056-.014 54.869-11.425 123.936-17.249 162.732 12.321 40.044 30.521 38.154 115.716 8.178 145.678z" fill="#695e66"/><path d="m273.295 208.732c-39.104 1.568-83.431-32.818-83.431-32.818-7.897 21.715-31.194 21.281-50.501 16.521-17.767-4.382-32.776-16.143-41.345-32.314-14.729-27.792-34.694-74.807-14.337-95.164 29.822-29.822 66.812 0 66.812 0s35.926-13.483 81.779-23.031c-59.28 15.568-10.683 148.241 41.023 166.806z" fill="#453e43"/><path d="m187.627 227.049c-7.376 0-13.377 8.944-13.377 19.938s6.001 19.939 13.377 19.939 13.377-8.945 13.377-19.939-6.001-19.938-13.377-19.938z" fill="#453e43"/><path d="m325.015 227.049c-7.376 0-13.377 8.944-13.377 19.938s6.001 19.939 13.377 19.939 13.377-8.945 13.377-19.939-6.001-19.938-13.377-19.938z" fill="#453e43"/><path d="m290.245 289.471c-3.797-1.803-8.338-.185-10.14 3.612-4.337 9.138-13.673 15.043-23.785 15.043s-19.448-5.905-23.785-15.043c-1.802-3.797-6.342-5.416-10.14-3.612-3.798 1.802-5.415 6.342-3.613 10.14 6.844 14.421 21.578 23.739 37.537 23.739 15.958 0 30.693-9.318 37.537-23.739 1.805-3.798.187-8.338-3.611-10.14z" fill="#efa26f"/><g fill="#d82e3d"><path d="m75.625 429.404h-19.722c-23.345 0-42.337-18.992-42.337-42.337v-41.152c0-4.204 3.408-7.612 7.612-7.612s7.612 3.408 7.612 7.612v41.152c0 14.951 12.163 27.114 27.114 27.114h19.722c4.204 0 7.612 3.408 7.612 7.612s-3.41 7.611-7.613 7.611z"/><path d="m490.823 91.1c-4.204 0-7.612-3.408-7.612-7.612v-41.151c0-14.95-12.163-27.114-27.114-27.114h-19.722c-4.204 0-7.612-3.408-7.612-7.612s3.409-7.611 7.612-7.611h19.722c23.345 0 42.337 18.992 42.337 42.337v41.152c0 4.204-3.408 7.611-7.611 7.611z"/><path d="m21.177 91.1c-4.204 0-7.612-3.408-7.612-7.612v-41.151c.001-23.345 18.993-42.337 42.338-42.337h19.722c4.204 0 7.612 3.408 7.612 7.612s-3.408 7.612-7.612 7.612h-19.722c-14.951 0-27.114 12.164-27.114 27.114v41.152c0 4.203-3.408 7.61-7.612 7.61z"/><path d="m456.097 429.404h-19.722c-4.204 0-7.612-3.408-7.612-7.612s3.408-7.612 7.612-7.612h19.722c14.951 0 27.114-12.164 27.114-27.114v-41.152c0-4.204 3.408-7.612 7.612-7.612s7.612 3.408 7.612 7.612v41.152c-.001 23.346-18.993 42.338-42.338 42.338z"/></g></svg>