<svg height="512pt" viewBox="-65 0 512 512" width="512pt" xmlns="http://www.w3.org/2000/svg"><path d="m73.976562 499.121094h-42.386718c-5.691406 0-10.304688-4.609375-10.304688-10.300782v-22.664062h52.691406zm0 0" fill="#204982"/><path d="m359.1875 499.121094h-42.390625v-32.964844h52.691406v22.664062c0 5.691407-4.613281 10.300782-10.300781 10.300782zm0 0" fill="#204982"/><path d="m369.488281 466.15625v22.664062c0 5.6875-4.617187 10.300782-10.300781 10.300782h-18.03125c5.6875 0 10.304688-4.613282 10.304688-10.300782v-22.664062zm0 0" fill="#0d396d"/><path d="m382.941406 256.710938v201.210937c0 5.679687-4.613281 10.296875-10.300781 10.296875h-53.78125v33.480469c0 5.679687-4.609375 10.300781-10.308594 10.300781h-226.332031c-5.6875 0-10.296875-4.621094-10.296875-10.300781v-33.480469h-53.78125c-5.691406 0-10.3125-4.617188-10.3125-10.296875v-201.210937c0-67.390626 54.640625-122.019532 122.03125-122.019532h131.0625c67.378906 0 122.019531 54.628906 122.019531 122.019532zm0 0" fill="#ef4b5f"/><g fill="#db383c"><path d="m72 210.671875v257.546875h-15.449219v-257.546875c0-4.273437 3.460938-7.722656 7.730469-7.722656 4.257812 0 7.71875 3.449219 7.71875 7.722656zm0 0"/><path d="m334.417969 210.671875v257.546875h-15.457031v-257.546875c0-4.273437 3.457031-7.722656 7.726562-7.722656 4.273438 0 7.730469 3.449219 7.730469 7.722656zm0 0"/><path d="m382.941406 256.710938v201.203124c0 5.6875-4.613281 10.304688-10.300781 10.304688h-19.234375c5.6875 0 10.300781-4.617188 10.300781-10.304688v-201.203124c0-67.394532-54.640625-122.023438-122.023437-122.023438h19.234375c67.382812 0 122.023437 54.628906 122.023437 122.023438zm0 0"/></g><path d="m382.941406 293.199219v164.722656c0 5.679687-4.613281 10.296875-10.300781 10.296875h-53.78125v33.480469c0 5.679687-4.609375 10.300781-10.308594 10.300781h-226.332031c-5.6875 0-10.296875-4.621094-10.296875-10.300781v-11.648438c46.15625-53.929687 126.046875-131.121093 247.039063-176.839843 5.078124-1.929688 10.230468-3.789063 15.460937-5.589844 9.519531-3.300782 19.277344-6.390625 29.289063-9.261719 5.277343-1.507813 10.628906-2.96875 16.050781-4.359375 1.058593-.261719 2.109375-.539062 3.179687-.800781zm0 0" fill="#b4f2f5"/><path d="m382.941406 293.199219v164.714843c0 5.6875-4.613281 10.304688-10.300781 10.304688h-19.234375c5.6875 0 10.300781-4.617188 10.300781-10.304688v-159.554687c5.285157-1.511719 10.632813-2.964844 16.050781-4.355469 1.0625-.269531 2.113282-.546875 3.183594-.804687zm0 0" fill="#87eaf9"/><path d="m382.941406 360.710938v97.210937c0 5.679687-4.613281 10.296875-10.300781 10.296875h-53.78125v33.480469c0 5.679687-4.609375 10.300781-10.308594 10.300781h-167.128906c29.9375-36.578125 87.019531-92.660156 177.539063-129.960938.328124-.140624.667968-.269531 1-.410156 4.730468-1.949218 9.550781-3.828125 14.460937-5.640625.328125-.128906.667969-.257812 1-.378906 9.109375-3.378906 18.539063-6.550781 28.289063-9.5 5.25-1.597656 10.597656-3.121094 16.050781-4.570313 1.058593-.277343 2.117187-.558593 3.179687-.828124zm0 0" fill="#3078bf"/><path d="m382.941406 360.707031v97.207031c0 5.6875-4.613281 10.304688-10.300781 10.304688h-19.234375c5.6875 0 10.300781-4.617188 10.300781-10.304688v-91.808593c5.253907-1.597657 10.601563-3.109375 16.050781-4.5625 1.0625-.277344 2.125-.566407 3.183594-.835938zm0 0" fill="#2766b0"/><path d="m195.386719 179.121094c-23.007813 0-45.277344-5.394532-64.398438-15.601563-36.6875-19.550781-58.597656-54.875-58.597656-94.488281 0-12.664062 5.5625-36.453125 42.808594-53.527344 21.808593-9.996094 50.289062-15.503906 80.1875-15.503906 29.902343 0 58.378906 5.507812 80.1875 15.503906 37.25 17.074219 42.8125 40.867188 42.8125 53.527344 0 39.613281-21.914063 74.9375-58.613281 94.496094-19.105469 10.199218-41.375 15.59375-64.386719 15.59375zm0 0" fill="#ef4b5f"/><path d="m295.027344 69.03125c0 32.503906-18.441406 59.0625-46.234375 73.886719-6.800781 3.613281-14.144531 6.542969-21.933594 8.671875-8.980469 2.472656-16.925781 7.777344-22.386719 15.332031-4.476562 6.183594-13.691406 6.183594-18.171875 0-5.460937-7.554687-13.402343-12.859375-22.386719-15.332031-7.785156-2.128906-15.132812-5.058594-21.933593-8.671875-27.792969-14.824219-46.234375-41.382813-46.234375-73.886719 0-25.21875 44.617187-45.667969 99.640625-45.667969 55.023437 0 99.640625 20.449219 99.640625 45.667969zm0 0" fill="#87eaf9"/><path d="m248.789062 83.070312v59.851563c-6.800781 3.609375-14.140624 6.539063-21.929687 8.667969-8.980469 2.46875-16.929687 7.78125-22.390625 15.332031-.410156.566406-.867188 1.089844-1.359375 1.558594-2.148437 2.058593-4.929687 3.078125-7.71875 3.078125s-5.582031-1.019532-7.730469-3.078125c-.488281-.46875-.949218-.992188-1.359375-1.558594-2.730469-3.78125-6.082031-6.992187-9.871093-9.570313-3.789063-2.582031-8.019532-4.53125-12.507813-5.761718-7.792969-2.128906-15.140625-5.058594-21.941406-8.667969v-59.851563zm0 0" fill="#2766b0"/><path d="m248.789062 83.078125c0-10.84375-23.910156-19.632813-53.402343-19.632813-29.492188 0-53.398438 8.789063-53.398438 19.632813 0 10.839844 23.90625 19.632813 53.398438 19.632813 29.492187 0 53.402343-8.792969 53.402343-19.632813zm0 0" fill="#204982"/><path d="m203.109375 111.5v56.980469c-2.148437 2.058593-4.929687 3.078125-7.71875 3.078125s-5.582031-1.019532-7.730469-3.078125v-56.980469zm0 0" fill="#e3f4ff"/><path d="m211.355469 512h-31.9375v-330.140625c0-5.6875 4.613281-10.300781 10.304687-10.300781h11.332032c5.6875 0 10.300781 4.613281 10.300781 10.300781zm0 0" fill="#2766b0"/><path d="m211.355469 181.859375v330.140625h-13.90625v-330.140625c0-5.253906-3.9375-9.59375-9.015625-10.21875.421875-.050781.855468-.082031 1.289062-.082031h11.332032c5.683593-.003906 10.300781 4.613281 10.300781 10.300781zm0 0" fill="#204982"/><path d="m247.054688 218.398438c-4.269532 0-7.726563-3.460938-7.726563-7.726563 0-22.785156-10.664063-33.359375-10.769531-33.460937-3.121094-2.910157-3.292969-7.796876-.382813-10.921876 2.90625-3.117187 7.796875-3.292968 10.917969-.382812.640625.597656 15.6875 14.960938 15.6875 44.765625-.003906 4.265625-3.460938 7.726563-7.726562 7.726563zm0 0" fill="#2766b0"/><path d="m143.722656 218.398438c-4.269531 0-7.726562-3.460938-7.726562-7.726563 0-12.175781 2.582031-23.632813 7.46875-33.132813 3.816406-7.417968 7.777344-11.222656 8.21875-11.632812 3.121094-2.910156 8.007812-2.734375 10.917968.382812 2.894532 3.105469 2.742188 7.957032-.328124 10.871094-.558594.546875-10.824219 10.953125-10.824219 33.511719 0 4.265625-3.460938 7.726563-7.726563 7.726563zm0 0" fill="#2766b0"/><path d="m72 247.441406v41.867188h-61.699219c-5.691406 0-10.300781-4.609375-10.300781-10.296875v-21.273438c0-5.6875 4.609375-10.296875 10.300781-10.296875zm0 0" fill="#bddff4"/><path d="m201.054688 120.53125h-11.332032c-5.691406 0-10.300781-4.613281-10.300781-10.300781v-2.46875c0-5.6875 4.609375-10.300781 10.300781-10.300781h11.332032c5.6875 0 10.300781 4.613281 10.300781 10.300781v2.46875c0 5.6875-4.613281 10.300781-10.300781 10.300781zm0 0" fill="#bddff4"/><path d="m101.804688 301.730469c-2.675782 0-5.277344-1.390625-6.703126-3.875-2.128906-3.699219-.855468-8.421875 2.84375-10.550781l44.574219-25.628907c3.699219-2.125 8.421875-.851562 10.550781 2.847657 2.125 3.699218.851563 8.421874-2.847656 10.546874l-44.574218 25.628907c-1.210938.699219-2.539063 1.03125-3.84375 1.03125zm0 0" fill="#db383c"/><path d="m288.96875 301.730469c-1.304688 0-2.628906-.332031-3.84375-1.03125l-44.574219-25.628907c-3.699219-2.125-4.972656-6.847656-2.847656-10.546874 2.128906-3.699219 6.855469-4.972657 10.550781-2.847657l44.574219 25.628907c3.699219 2.128906 4.972656 6.851562 2.847656 10.550781-1.429687 2.484375-4.03125 3.875-6.707031 3.875zm0 0" fill="#db383c"/><path d="m56.550781 247.441406h15.449219v41.867188h-15.449219zm0 0" fill="#9cc6db"/><path d="m334.417969 307.621094v160.597656h-15.457031v-155.007812c5.078124-1.929688 10.230468-3.789063 15.457031-5.589844zm0 0" fill="#87eaf9"/><path d="m334.417969 375.988281v92.230469h-15.457031v-86.179688c.328124-.140624.667968-.269531 1-.410156 4.730468-1.949218 9.550781-3.828125 14.457031-5.640625zm0 0" fill="#2766b0"/></svg>