<svg id="Capa_1" enable-background="new 0 0 512 512" height="512" viewBox="0 0 512 512" width="512" xmlns="http://www.w3.org/2000/svg"><path d="m457.719 0h-260.633c-37.016 0-67.216 29.644-67.908 66.654-7.207 385.273-6.506 341.979-6.379 352.432.18 14.702-12.245 17.167-32.346 41.162-3.896 4.642-9.039 8.088-14.836 9.816l-44.702 13.425c-24.603 7.43-16.929 28.506-3.395 28.506h163.226c14.294 0 25.72-11.862 25.227-26.148-1.607-46.59-15.179-163.205-15.07-162.183-.629-5.923 1.607-11.814 6.069-15.759 67.4-59.589 52.741-141.879 41.526-178.595-1.395-4.566 3.984-8.132 7.649-5.073 57.305 47.831 154.759 43.82 206.431 37.479 19.739-2.423 34.548-19.221 34.548-39.108v-83.2c.002-21.764-17.642-39.408-39.407-39.408z" fill="#ffcdbe"/><path d="m233.68.005c-37.018 0-67.221 29.638-67.911 66.646-7.213 385.279-6.513 341.978-6.377 352.432.178 14.709-12.252 17.166-32.345 41.169-3.9 4.642-9.043 8.081-14.845 9.816l-44.692 13.423c-24.567 7.412-16.967 28.436-3.47 28.509h-36.517c-13.538 0-21.212-21.086 3.398-28.509l44.692-13.423c5.802-1.735 10.946-5.175 14.845-9.816 20.093-24.003 32.523-26.46 32.345-41.169-.136-10.454-.836 32.847 6.377-352.432.69-37.008 30.892-66.646 67.911-66.646h36.589z" fill="#fcb19f"/></svg>