<svg id="Capa_1" enable-background="new 0 0 512 512" height="512" viewBox="0 0 512 512" width="512" xmlns="http://www.w3.org/2000/svg"><g><path d="m292.303 97.367h-72.606c-80.395 0-145.568 65.173-145.568 145.568v17.873c0 80.395 65.173 145.568 145.568 145.568h72.606c80.395 0 145.568-65.173 145.568-145.568v-17.873c0-80.395-65.173-145.568-145.568-145.568z" fill="#ff5f7a"/><path d="m391.287 72.719-279.39 9.862c-28.544 33.232-45.832 84.4-45.832 148.645v41.291c0 12.944 2.2 41.29 2.2 41.29l39.09 33.032 41.29-8.258c0-10.169-4.621-19.28-11.871-25.345-1.449-1.212-4.928-3.83-4.928-9.801 0-16.58-15.931-31.076-32.592-30.92-9.194.086-16.674-7.341-16.674-16.515v-17.168c0-10.367 8.433-17.906 18.679-16.329 1.986.305 4.021.466 6.095.466h8.258c18.243 0 33.032-14.789 33.032-33.032v-4.432c9.863-5.722 16.516-16.399 16.516-28.601v-12.411c3.984-4.706 6.653-10.387 7.726-16.496 5.339-2.96 9.766-7.355 12.774-12.657 1.395.181 2.823.274 4.274.274 5.184 0 10.051-1.247 14.389-3.418 6.66-3.334 14.087-4.839 21.535-4.839h60.281c7.448 0 14.875 1.505 21.535 4.839 4.338 2.172 9.205 3.418 14.389 3.418 1.452 0 2.879-.093 4.274-.274 3.008 5.302 7.435 9.698 12.774 12.657 1.073 6.109 3.742 11.79 7.726 16.496v12.411c0 12.202 6.653 22.879 16.516 28.601v4.431c0 18.243 14.789 33.032 33.032 33.032h8.258l.28-.001c13.514-.049 24.494 10.893 24.494 24.406v7.987c0 9.308-7.616 17.046-16.924 17.159-15.434.187-28.32 10.957-31.737 25.391-1.111 4.694-2.494 9.319-4.422 13.74l-.46 1.055c-7.623 6.057-12.522 15.406-12.522 25.876v24.774l80.384-47.922s2.196-10.425 2.196-42.917c0-10.323 0-41.291 0-41.291.003-116.154-54.645-158.506-54.645-158.506z" fill="#fb4455"/><path d="m364.159 297.29-8.789-50.289c-4.932-28.218-29.433-48.808-58.079-48.808-13.705 0-24.735 11.118-24.774 24.824-.026 9.099-7.411 16.467-16.516 16.467s-16.489-7.368-16.516-16.467c-.04-13.705-11.069-24.824-24.774-24.824-28.646 0-53.147 20.59-58.079 48.808l-8.789 50.289z" fill="#fb4455"/><path d="m371.613 340.157c0-56.23-24.774-74.977-57.806-74.977-5.909 0-11.31-.749-16.228-.459-14.417.85-24.683 2.733-31.407 4.438-6.688 1.696-13.654 1.696-20.342 0-9.018-2.287-24.406-4.9-47.636-4.9-33.032 0-66.065 19.669-66.065 75.899v72.746l123.871 57.806 115.613-57.806z" fill="#ff7e92"/><path d="m173.419 404.645-16.516-16.516h-8.258l-16.516-33.032-16.516-33.032-16.516-33.032h-14.94c-8.112 0-14.977 5.338-17.273 12.693l15.336 88.096 99.692 68.416v-40.181z" fill="#fff6e8"/><path d="m313.806 264.258c-5.914 0-11.307.172-16.228.463 21.617.822 49.261 7.795 49.261 131.666h33.032v-56.23c0-56.23-33.032-75.899-66.065-75.899z" fill="#ff5f7a"/><path d="m256 338.581c-4.564 0-8.258 3.698-8.258 8.258v90.839h16.516v-90.839c0-4.561-3.694-8.258-8.258-8.258z" fill="#ff5f7a"/><path d="m427.843 289.032h-14.94c-9.122 0-16.516 7.395-16.516 16.516v16.516c-9.122 0-16.516 7.395-16.516 16.516v16.516c-9.122 0-16.516 7.395-16.516 16.516v16.516h-8.258c-9.122 0-16.516 7.395-16.516 16.516-9.121 0-16.516 7.394-16.516 16.516v11.632l43.485 7.092 63.312-53.104 16.163-85.342c-2.384-7.206-9.176-12.406-17.182-12.406z" fill="#fff6e8"/><g><path d="m132.129 338.581c0-9.122-7.394-16.516-16.516-16.516v33.032h16.516z" fill="#f8ebcc"/></g><path d="m148.645 388.129v-16.516c0-9.122-7.395-16.516-16.516-16.516v49.548c0-9.122 7.395-16.516 16.516-16.516z" fill="#f8ebcc"/><g fill="#fff6e8"><path d="m239.484 421.161c-9.122 0-16.516 7.394-16.516 16.516v5.031l24.537 13.14.652-23.693z"/><path d="m206.452 421.161c-7.482 0-13.802 4.975-15.832 11.797l16.107 9.696 8.796-8.796z"/><path d="m272.516 421.161c-9.122 0-16.516 7.394-16.516 16.516v8.258l24.029 9.262v-17.52z"/><path d="m305.548 421.161c-9.122 0-16.516 7.394-16.516 16.516v4.93l23.902 4.933v-9.864z"/><path d="m383.468 67.18-49.738-13.792 4.85 29.192v16.516l16.516 10.979v11.845c0 .601.053 1.363.109 1.95l8.149 8.576v24.456l9.362 8.354h13.927c9.941 0 18-8.059 18-18v-35.77z"/><path d="m182.129 33.032-99.548 90.839v57.806c0 2.895.496 5.674 1.409 8.256l11.913 8.323h21.719l38.117-99.312 17.68-16.364 25.325 5.776 7.708-14.034 8.663 8.831h15.194c9.122 0 16.516-7.395 16.516-16.516l9.175 7.686 8.663 8.831h15.194c9.122 0 16.516-7.395 16.516-16.516v-33.606z"/></g><path d="m173.419 82.581c0 9.121 7.394 16.516 16.516 16.516 9.118 0 16.51-7.39 16.515-16.507 0-.003.001-.007.001-.009v-41.291h-16.516v24.774c0 9.122-7.394 16.517-16.516 16.517z" fill="#f8ebcc"/><path d="m156.903 57.806v24.774c0 9.122-7.394 16.516-16.516 16.516v6.309c0 10.198-8.268 18.466-18.466 18.466h-4.359c-.606 0-1.179-.122-1.771-.178.842 8.711 7.659 15.668 16.338 16.585v.11c0 9.121-7.395 16.516-16.516 16.516h-14.907c2.491 6.992 7.959 12.558 14.907 15.065v1.451c0 9.121-7.395 16.516-16.516 16.516h-15.113c3.413 9.6 12.599 16.516 23.371 16.516h8.258c9.121 0 16.516-7.395 16.516-16.516v-16.516c9.121 0 16.516-7.395 16.516-16.516v-19.599c4.975-3.308 8.258-8.96 8.258-15.383v-6.309c9.118 0 16.51-7.39 16.515-16.507 0-.003.001-.007.001-.009v-41.29h-16.516z" fill="#f8ebcc"/><path d="m379.87 165.895v24.041l10.765 8.553h17.647c6.627 0 12-5.373 12-12v-40.792z" fill="#fff6e8"/><g><path d="m379.871 72.671v32.734c0 10.198-8.268 18.466-18.466 18.466h-6.2c.982 9.273 8.823 16.516 18.356 16.516h4.359c10.198 0 18.466-8.268 18.466-18.466v26.724c0 4.561-3.697 8.258-8.258 8.258h-24.775c0 9.121 7.395 16.516 16.516 16.516h8.258c13.682 0 24.774-11.092 24.774-24.774l.001-.009v33.041c0 4.561-3.697 8.258-8.258 8.258h-24.774c0 9.121 7.395 16.516 16.516 16.516h8.258c13.682 0 24.774-11.092 24.774-24.774v-57.806z" fill="#f8ebcc"/></g><path d="m299.631 41.29 5.917 33.033v8.258l23.839 9.468v-50.759z" fill="#fff6e8"/><path d="m222.968 90.839h16.516c9.122 0 16.516-7.395 16.516-16.516v-41.29h-16.516v24.774c0 9.122-7.395 16.516-16.516 16.516h-16.516c0 9.121 7.394 16.516 16.516 16.516z" fill="#f8ebcc"/><path d="m272.516 90.839h16.516c9.122 0 16.516-7.395 16.516-16.516v-41.29h-16.516v24.774c0 9.122-7.395 16.516-16.516 16.516h-16.516c0 9.121 7.394 16.516 16.516 16.516z" fill="#f8ebcc"/><path d="m305.548 82.581c0 9.121 7.394 16.516 16.516 16.516 9.118 0 16.51-7.39 16.515-16.507 0-.003 0-.007 0-.009v-41.291h-16.516v24.774c.001 9.122-7.393 16.517-16.515 16.517z" fill="#f8ebcc"/><path d="m338.581 99.097c0 9.121 7.394 16.516 16.516 16.516 9.118 0 16.51-7.39 16.515-16.507 0-.003 0-.007 0-.009v-41.29h-16.516v24.774c0 9.121-7.394 16.516-16.515 16.516z" fill="#f8ebcc"/><path d="m428.579 289.106c-1.186 12.426-3.721 24.449-7.415 35.959-2.42-1.562-5.23-2.576-8.26-2.842v17.113c0 4.529-1.099 8.991-3.196 13.005-1.186 2.271-2.422 4.512-3.705 6.722-2.695-2.112-6-3.49-9.615-3.807v13.053c0 3.245-.91 6.445-2.688 9.14-4.291 5.61-8.909 10.958-13.829 16.01 0 0-1.652 1.675-2.489 2.497-2.913-4.693-8.098-7.828-14.027-7.828v12.028c0 5.369-2.582 10.427-6.971 13.52-.785.553-1.581 1.091-2.373 1.635-2.364-6.23-8.372-10.667-15.43-10.667v10.096c0 6.466-3.757 12.351-9.633 15.051-2.271 1.044-4.567 2.042-6.884 3v4.885c0-9.122-7.395-16.516-16.516-16.516v9.919c0 4.531-3.085 8.5-7.489 9.565-2.983.722-5.996 1.367-9.027 1.962v-4.93c0-9.122-7.395-16.516-16.516-16.516v14.763c0 5.241-4.1 9.602-9.335 9.842-2.381.109-4.774.169-7.181.169v-8.258c0-9.122-7.395-16.516-16.516-16.516v12.714c0 6.086-5.461 10.722-11.467 9.736-1.691-.277-3.374-.579-5.049-.903v-5.031c0-9.122-7.395-16.516-16.516-16.516v3.575c0 6.975-7.039 11.715-13.523 9.143-.746-.296-1.567-.618-2.309-.922-.447 1.498-.684 3.075-.684 4.719v-16.516c0-9.122-7.395-16.516-16.516-16.516v66.065h182.465l76.887-98.698 12.43-69.996c-2.143-7.255-8.738-12.585-16.623-12.908z" fill="#f8ebcc"/><path d="m395.572 401.34c-34.702 37.578-84.389 61.112-139.572 61.112-104.899 0-189.936-85.037-189.936-189.936v49.548c0 99.305 76.21 180.811 173.335 189.22 0 0 11.009.137 16.601.003 56.771-1.357 122.099-43.126 155.812-95.837z" fill="#ff7e92"/><path d="m256 .61c-6.704-.326-12.502-.205-12.502-.205-99.071 6.437-177.434 88.832-177.434 189.53v41.29c0-104.898 85.037-189.935 189.936-189.935 60.507 0 114.471 28.465 149.254 72.542l3.626-15.919c-13.466-33.882-84.151-93.963-152.88-97.303z" fill="#ff7e92"/><path d="m256 0c-4.166 0-8.403.141-12.502.405 72.481 4.671 133.983 50.012 161.756 113.427 25.454 32.317 40.682 73.064 40.682 117.393v-41.29c-.001-104.898-85.037-189.935-189.936-189.935z" fill="#ff5f7a"/><path d="m395.572 401.34c-27.848 60.584-86.678 103.954-156.172 109.945 5.447.469 11.03.715 16.6.715 104.899 0 189.935-85.037 189.935-189.935v-49.548c0 49.694-19.123 94.973-50.363 128.823z" fill="#ff5f7a"/><path d="m173.419 404.645c0-9.122-7.395-16.516-16.516-16.516v33.032c0-9.122 7.395-16.516 16.516-16.516z" fill="#f8ebcc"/><g><path d="m115.613 305.548c0-9.122-7.395-16.516-16.516-16.516v33.032h16.516z" fill="#f8ebcc"/></g></g></svg>