<svg id="Capa_1" enable-background="new 0 0 512 512" height="512" viewBox="0 0 512 512" width="512" xmlns="http://www.w3.org/2000/svg"><g><path d="m506.694 209.52-167.11-66.844c-20.636-8.254-44.012-5.82-62.505 6.508l-2.36 1.573c-11.335 7.557-26.103 7.557-37.438 0l-2.36-1.573c-18.492-12.329-41.869-14.762-62.504-6.508l-161.449 64.579-4.493 9.054 76.9 91.318c32.06 38.071 79.293 60.046 129.065 60.046h96.098l69.06-10.395c21.087-10.213 40.064-24.823 55.517-43.172l76.9-91.318c3.703-4.399 2.018-11.133-3.321-13.268z" fill="#ff5f7a"/><path d="m433.169 230.729c0-17.174-12.417-31.832-29.358-34.655l-32.689-5.448c-34.661-5.775-70.484-8.931-106.883-9.376-2.744.033-13.726.033-16.881 0-35.996.445-71.818 3.6-106.479 9.376l-32.689 5.448c-16.941 2.823-29.357 17.48-29.357 34.655z" fill="#fb4455"/><path d="m450.397 220.946-40.297-6.716h-308.2l-40.297 6.716c-2.971.496-3.854 4.341-1.396 6.083l34.868 24.698c45.801 32.442 107.4 48.724 160.925 50.344 53.525-1.62 115.124-17.902 160.925-50.344l34.869-24.698c2.457-1.742 1.575-5.588-1.397-6.083z" fill="#a12e3a"/><path d="m207.951 357.279c-44.902 0-87.233-19.695-116.152-54.039l-80.832-95.985-5.662 2.265c-5.339 2.136-7.024 8.87-3.32 13.268l76.9 91.319c32.06 38.071 79.293 60.046 129.065 60.046h96.097c25.749 0 50.908-5.925 73.549-16.873h-169.645z" fill="#fb4455"/><path d="m256 247.603c59.438 0 113.54-12.659 154.1-33.373l-41.755-6.959c-34.408-5.734-69.146-8.717-103.908-9.146-2.813.035-14.06.035-16.873 0-34.762.429-69.5 3.412-103.908 9.146l-41.756 6.959c40.56 20.714 94.662 33.373 154.1 33.373z" fill="#fff"/></g></svg>