<svg id="Capa_1" enable-background="new 0 0 512 512" height="512" viewBox="0 0 512 512" width="512" xmlns="http://www.w3.org/2000/svg"><g><path d="m384.512 333.994c-17.245-5.802-29.695-20.897-32.11-38.931l-31.962-238.677c-4.323-32.284-31.868-56.386-64.44-56.386-32.571 0-60.116 24.102-64.439 56.386l-31.962 238.678c-2.415 18.033-14.865 33.129-32.11 38.93-33.687 11.334-56.377 42.908-56.377 78.451v29.198c0 23.148 18.765 41.913 41.913 41.913h77.864c9.462 0 18.529 3.903 24.948 10.855 10.09 10.929 24.499 17.589 40.163 17.589 15.664 0 30.073-6.66 40.164-17.589 6.419-6.952 15.486-10.855 24.948-10.855h77.864c23.148 0 41.913-18.765 41.913-41.913v-29.198c0-35.543-22.691-67.117-56.377-78.451z" fill="#f1b0a2"/><path d="m384.512 333.994c-17.245-5.802-29.695-20.897-32.11-38.931l-31.962-238.677c-4.028-30.083-28.222-53.062-57.856-56.054 8.801 9.535 14.813 21.756 16.647 35.45l31.962 238.678c2.415 18.033 14.865 33.129 32.11 38.93 33.687 11.334 56.377 42.908 56.377 78.451v9.43c0 34.065-27.615 61.681-61.681 61.681h-261.075c7.296 12.333 20.732 20.604 36.1 20.604h77.864c9.462 0 18.529 3.903 24.948 10.855 10.091 10.929 24.5 17.589 40.164 17.589 15.664 0 30.073-6.66 40.164-17.589 6.419-6.952 15.486-10.855 24.948-10.855h77.864c23.148 0 41.913-18.765 41.913-41.913v-29.198c0-35.543-22.691-67.117-56.377-78.451z" fill="#eb9c8d"/><path d="m202.985 470.607c-4.21-16.84-19.341-28.654-36.7-28.654-21.54 0-39.649 18.19-37.72 41.603h62.322c9.448 0 18.502 3.892 24.919 10.824-6.048-6.561-10.542-14.657-12.821-23.773z" fill="#d78878"/><path d="m128.566 483.556h62.322c9.448 0 18.502 3.892 24.919 10.824-6.048-6.561-10.542-14.657-12.821-23.772-.672-2.69-1.624-5.251-2.818-7.656h-67.764c-2.995 6.032-4.461 13.046-3.838 20.604z" fill="#ca6e59"/><path d="m309.015 470.607c4.21-16.84 19.341-28.654 36.7-28.654 21.54 0 39.649 18.19 37.72 41.603h-62.322c-9.448 0-18.502 3.892-24.919 10.824 6.048-6.561 10.542-14.657 12.821-23.773z" fill="#d78878"/><path d="m372.101 452.675c-9.768 6.493-21.493 10.277-34.102 10.277h-26.166c-1.194 2.406-2.145 4.966-2.818 7.656-2.279 9.116-6.773 17.211-12.821 23.772 6.417-6.932 15.471-10.824 24.919-10.824h62.322c1.021-12.402-3.579-23.338-11.334-30.881z" fill="#ca6e59"/><path d="m159.599 295.063c-1.773 13.243-8.958 24.901-19.479 32.458l-7.315 54.622c-.55 4.105 2.333 7.879 6.438 8.429.338.045.673.067 1.005.067 3.7 0 6.92-2.738 7.424-6.505z" fill="#eb9c8d"/><path d="m364.328 384.134c.504 3.768 3.725 6.505 7.424 6.505.332 0 .667-.022 1.005-.067 4.105-.55 6.988-4.324 6.438-8.429l-7.314-54.622c-10.521-7.557-17.706-19.215-19.479-32.458z" fill="#eb9c8d"/><path d="m355.558 318.642c6.084 3.21 11.679 7.134 16.693 11.644l-.37-2.765c-10.521-7.557-17.706-19.215-19.479-32.458z" fill="#d78878"/></g></svg>