<?xml version="1.0" encoding="iso-8859-1"?>
<!-- Generator: Adobe Illustrator 19.0.0, SVG Export Plug-In . SVG Version: 6.00 Build 0)  -->
<svg version="1.1" id="Capa_1" xmlns="http://www.w3.org/2000/svg" xmlns:xlink="http://www.w3.org/1999/xlink" x="0px" y="0px"
	 viewBox="0 0 512 512" style="enable-background:new 0 0 512 512;" xml:space="preserve">
<path style="fill:#F996B1;" d="M461.307,380.115c0,16.783-6.403,33.556-19.21,46.363c-25.603,25.603-67.112,25.603-92.726,0
	l-92.488-92.488c-22.97-22.97-35.88-54.13-35.88-86.622V15.255C221.003,6.827,227.841,0,236.269,0h100.606
	c8.428,0,15.265,6.827,15.265,15.255v221.249c0,4.668,1.849,9.14,5.153,12.445l84.804,84.804
	C454.904,346.559,461.307,363.332,461.307,380.115z"/>
<g>
	<path style="fill:#EF687E;" d="M308.527,294.93c0-38.902-31.536-70.439-70.439-70.439c-5.893,0-11.613,0.734-17.083,2.098v20.778
		c0,32.492,12.907,63.652,35.882,86.627l19.829,19.829C295.871,341.233,308.527,319.565,308.527,294.93z"/>
	<path style="fill:#EF687E;" d="M442.101,426.479L442.101,426.479c25.605-25.606,25.605-67.12,0-92.726l-92.726,92.726
		C374.98,452.085,416.495,452.085,442.101,426.479z"/>
	<path style="fill:#EF687E;" d="M352.14,15.255v48.108H221.003V15.255C221.003,6.827,227.841,0,236.269,0h100.606
		C345.302,0,352.14,6.827,352.14,15.255z"/>
</g>
<g>
	<rect x="246.04" style="fill:#E63952;" width="15.492" height="63.36"/>
	<rect x="278.83" style="fill:#E63952;" width="15.492" height="63.36"/>
	<rect x="311.61" style="fill:#E63952;" width="15.492" height="63.36"/>
</g>
<path style="fill:#F996B1;" d="M290.987,446.432c0,16.783-6.404,33.566-19.2,46.363c-25.603,25.603-67.122,25.603-92.725,0
	l-92.488-92.488c-22.969-22.97-35.88-54.13-35.88-86.622V81.571c0-8.428,6.837-15.255,15.265-15.255h100.606
	c8.428,0,15.265,6.827,15.265,15.255V302.82c0,4.668,1.849,9.14,5.153,12.445l84.804,84.804
	C284.583,412.866,290.987,429.649,290.987,446.432z"/>
<g>
	<path style="fill:#EF687E;" d="M138.215,361.246c0-38.902-31.536-70.439-70.439-70.439c-5.893,0-11.613,0.734-17.083,2.098v20.778
		c0,32.492,12.907,63.652,35.882,86.627l19.829,19.829C125.559,407.55,138.215,385.881,138.215,361.246z"/>
	<path style="fill:#EF687E;" d="M271.788,492.796L271.788,492.796c25.605-25.606,25.605-67.12,0-92.726l-92.726,92.726
		C204.668,518.401,246.183,518.401,271.788,492.796z"/>
	<path style="fill:#EF687E;" d="M181.829,81.571v48.108H50.693V81.571c0-8.428,6.837-15.255,15.265-15.255h100.606
		C174.992,66.317,181.829,73.144,181.829,81.571z"/>
</g>
<g>
	<rect x="75.73" y="66.32" style="fill:#E63952;" width="15.492" height="63.36"/>
	<rect x="108.51" y="66.32" style="fill:#E63952;" width="15.492" height="63.36"/>
	<rect x="141.3" y="66.32" style="fill:#E63952;" width="15.492" height="63.36"/>
</g>
<g>
</g>
<g>
</g>
<g>
</g>
<g>
</g>
<g>
</g>
<g>
</g>
<g>
</g>
<g>
</g>
<g>
</g>
<g>
</g>
<g>
</g>
<g>
</g>
<g>
</g>
<g>
</g>
<g>
</g>
</svg>
