<svg height="512pt" viewBox="-40 0 512 512.00007" width="512pt" xmlns="http://www.w3.org/2000/svg"><path d="m101.890625 15.453125v212.445313l-79.867187 79.863281c-29.363282 29.367187-29.363282 76.976562 0 106.34375 14.683593 14.679687 33.925781 22.023437 53.171874 22.023437 19.242188 0 38.488282-7.34375 53.171876-22.023437l101.886718-101.890625c14.101563-14.101563 22.023438-33.226563 22.023438-53.167969v-243.59375c0-8.535156-6.917969-15.453125-15.453125-15.453125h-119.484375c-8.53125 0-15.449219 6.917969-15.449219 15.453125zm0 0" fill="#e9e3d5"/><g fill="#d3cdbf"><path d="m236.824219 0h-15.453125v202.757812c-36.007813 12.726563-61.808594 47.066407-61.808594 87.433594 0 14.3125 3.246094 27.867188 9.035156 39.972656l-62.085937 62.085938c-3.019531 3.019531-6.398438 5.539062-10.039063 7.539062-14.113281-37.414062-49.355468-64.46875-91.195312-66.550781-10.691406 27.03125-5.117188 59.003907 16.746094 80.867188 21.363281 21.363281 53.207031 27.710937 80.925781 16.71875h.007812c9.25-3.671875 17.921875-9.234375 25.40625-16.71875l101.890625-101.890625c10.574219-10.574219 17.675782-23.976563 20.5625-38.433594.964844-4.816406 1.460938-9.75 1.460938-14.738281v-243.589844c0-8.535156-6.917969-15.453125-15.453125-15.453125zm0 0"/><path d="m124.242188 57.679688c0 4.265624 3.457031 7.722656 7.726562 7.722656 4.265625 0 7.726562-3.457032 7.726562-7.722656v-57.679688h-15.453124zm0 0"/><path d="m154.320312 57.679688c0 4.265624 3.457032 7.722656 7.726563 7.722656 4.265625 0 7.726563-3.457032 7.726563-7.722656v-57.679688h-15.453126zm0 0"/><path d="m184.394531 0v57.679688c0 4.265624 3.460938 7.722656 7.726563 7.722656 4.269531 0 7.726562-3.457032 7.726562-7.722656v-57.679688zm0 0"/></g><path d="m75.195312 405.222656c-14.890624 0-27.316406 10.53125-30.25 24.550782 18.355469 8.0625 39.269532 8.480468 58.003907 1.050781h.007812c-.550781-10.882813-2.8125-21.300781-6.484375-31.035157-6.449218 3.542969-13.714844 5.433594-21.277344 5.433594zm0 0" fill="#c4bfb1"/><path d="m221.375 202.757812v56.285157c0 11.832031-4.609375 22.953125-12.976562 31.320312l-39.800782 39.800781c4.570313 9.546876 10.722656 18.191407 18.121094 25.585938l43.535156-43.535156c14.101563-14.101563 22.023438-33.226563 22.023438-53.171875v-61.566407c-10.835938 0-21.238282 1.863282-30.902344 5.28125zm0 0" fill="#c4bfb1"/><path d="m282.457031 91.324219v212.445312l-79.863281 79.867188c-29.363281 29.363281-29.363281 76.976562 0 106.339843 14.683594 14.679688 33.929688 22.023438 53.171875 22.023438s38.488281-7.34375 53.171875-22.023438l101.886719-101.890624c14.101562-14.101563 22.023437-33.226563 22.023437-53.167969v-243.59375c0-8.53125-6.917968-15.453125-15.453125-15.453125h-119.484375c-8.53125 0-15.453125 6.917968-15.453125 15.453125zm0 0" fill="#e9e3d5"/><path d="m417.394531 75.871094h-15.453125v202.761718c-36.007812 12.726563-61.808594 47.0625-61.808594 87.433594 0 14.3125 3.246094 27.867188 9.035157 39.96875l-62.085938 62.085938c-3.019531 3.019531-6.398437 5.539062-10.039062 7.542968-14.113281-37.417968-49.355469-64.46875-91.195313-66.550781-10.6875 27.03125-5.113281 59 16.746094 80.863281 21.363281 21.363282 53.207031 27.714844 80.925781 16.722657.003907-.003907.003907-.003907.007813-.003907 9.25-3.667968 17.921875-9.234374 25.410156-16.71875l101.886719-101.886718c10.578125-10.578125 17.675781-23.980469 20.566406-38.433594.960937-4.820312 1.457031-9.753906 1.457031-14.738281v-243.59375c0-8.53125-6.917968-15.453125-15.453125-15.453125zm0 0" fill="#d3cdbf"/><path d="m304.8125 133.550781c0 4.269531 3.457031 7.726563 7.726562 7.726563 4.265626 0 7.722657-3.457032 7.722657-7.726563v-57.679687h-15.449219zm0 0" fill="#d3cdbf"/><path d="m334.890625 133.550781c0 4.269531 3.457031 7.726563 7.726563 7.726563 4.265624 0 7.722656-3.457032 7.722656-7.726563v-57.679687h-15.449219zm0 0" fill="#d3cdbf"/><path d="m364.964844 75.871094v57.679687c0 4.269531 3.460937 7.726563 7.726562 7.726563 4.269532 0 7.726563-3.457032 7.726563-7.726563v-57.679687zm0 0" fill="#d3cdbf"/><path d="m255.765625 481.09375c-14.890625 0-27.316406 10.53125-30.25 24.550781 18.355469 8.0625 39.269531 8.484375 58.003906 1.050781h.007813c-.550782-10.878906-2.816406-21.300781-6.484375-31.035156-6.449219 3.542969-13.714844 5.433594-21.277344 5.433594zm0 0" fill="#c4bfb1"/><path d="m401.945312 278.632812v56.285157c0 11.828125-4.609374 22.949219-12.976562 31.316406l-39.800781 39.800781c4.570312 9.546875 10.722656 18.191406 18.121093 25.589844l43.535157-43.539062c14.101562-14.101563 22.023437-33.226563 22.023437-53.167969v-61.570313c-10.835937 0-21.238281 1.867188-30.902344 5.285156zm0 0" fill="#c4bfb1"/></svg>