<svg id="Capa_1" enable-background="new 0 0 512 512" height="512" viewBox="0 0 512 512" width="512" xmlns="http://www.w3.org/2000/svg"><g><g><path d="m255.997 345.9 14.432 91.312c.767 4.853 4.83 8.495 9.737 8.746 27.773 1.418 119.992 2.037 216.192-42.694 3.292-1.531 7.037-11.532 6.089-16.144l-56.358-264.656-8.149-3.54-181.94.494-199.429-6.295-56.357 273.997c-.948 4.611 1.324 9.296 5.541 11.39 89.918 44.667 178.173 48.552 215.697 47.808 4.082-.081 10.012-4.253 10.779-9.106l23.772-91.312z" fill="#8bcaff"/><g fill="#60b8ff"><path d="m255.997 345.9c-10.754 0-19.91 7.823-21.589 18.445-4.101 25.947-11.263 71.263-12.955 81.973 4.079-.081 7.567-.215 10.383-.359 4.907-.251 8.97-3.893 9.737-8.746l14.422-91.251z"/><path d="m511.786 387.12-56.358-273.997s-6.294 2.342-17.489 5.8l58.417 284.338c3.293-1.531 6.59-3.112 9.89-4.751 4.216-2.095 6.489-6.779 5.54-11.39z"/></g><path d="m444.753 106.066-3.048-23.572c-1.079-6.925-11.291-14.371-13.723-13.433-30.227 11.665-93.475 31.654-171.982 31.654-84.825 0-151.837-23.336-178.629-34.294-6.487-2.653-13.746 1.438-14.825 8.363l-5.975 38.339s92.157 34.316 199.429 34.316v139.979l16.917-5.193c23.645-13.674 30.685-136.928 30.685-136.928 59.204-5.192 109.172-18.605 134.338-26.375z" fill="#9c8f9a"/><g><path d="m430.772 74.784 7.167 44.139c11.195-3.458 17.489-5.8 17.489-5.8l-5.975-38.339c-1.079-6.925-8.338-11.016-14.825-8.363-1.994.816-4.216 1.701-6.647 2.639 1.424 1.52 2.44 3.467 2.791 5.724z" fill="#8c808a"/></g><path d="m303.417 145.314c-10.452.913-18.497 9.614-18.497 20.105v78.207c0 19.658-11.918 36.529-28.92 43.791v3.81c26.289 0 47.601-21.312 47.601-47.601v-98.329c-.061.006-.122.011-.184.017z" fill="#8c808a"/></g></g></svg>