<svg id="Capa_1" enable-background="new 0 0 497 497" height="512" viewBox="0 0 497 497" width="512" xmlns="http://www.w3.org/2000/svg"><g><path d="m458.206 68.228h-25.115c8.866 0 16.062 7.196 16.062 16.062v50.878h25.116v-50.878c-.001-8.866-7.197-16.062-16.063-16.062z" fill="#acc8e8"/><path d="m409.45 342.758c-8.133 6.033-106.551 86.014-106.551 86.014h-108.801l-128.265-112.605c-9.232-6.84-64.649-32.985-64.649-32.985-1.357-5.946-1.573-12.194-.517-18.421l22.062-129.593 225.77-16.668 225.769 16.668 22.062 129.593c1.058 6.224.844 12.471-.509 18.415z" fill="#8d9ca8"/><path d="m496.33 264.761-22.062-129.593-15.059-7.502-10.056 7.502 22.062 129.593c2.984 17.559-4.147 35.301-18.453 45.901l-146.873 108.824c-8.133 6.033-17.99 9.286-28.105 9.286h25.116c10.115 0 19.972-3.253 28.105-9.286l146.872-108.823c14.306-10.601 21.437-28.343 18.453-45.902z" fill="#7a8c98"/><g><path d="m157.966 341.731c-.865 0-1.745-.151-2.604-.469-3.883-1.438-5.866-5.75-4.43-9.633.318-.863 33.054-94.11-14.08-126.988-3.397-2.37-4.23-7.045-1.86-10.442s7.044-4.229 10.442-1.86c23.763 16.576 34.892 45.822 32.186 84.578-1.973 28.248-12.258 58.941-12.62 59.918-1.121 3.024-3.986 4.896-7.034 4.896z" fill="#7a8c98"/></g><g><path d="m111.67 289.472c-.829 0-1.671-.138-2.497-.43-3.906-1.379-5.955-5.663-4.576-9.569l51.828-146.802c1.378-3.906 5.664-5.956 9.569-4.576 3.906 1.379 5.955 5.663 4.576 9.569l-51.828 146.802c-1.087 3.081-3.981 5.006-7.072 5.006z" fill="#7a8c98"/></g><g><path d="m385.71 289.472c-3.091 0-5.985-1.925-7.072-5.005l-51.828-146.802c-1.379-3.906.669-8.19 4.576-9.569 3.904-1.379 8.189.669 9.569 4.576l51.828 146.802c1.379 3.906-.669 8.19-4.576 9.569-.825.291-1.668.429-2.497.429z" fill="#7a8c98"/></g><path d="m474.268 84.29v50.878h-451.539v-50.878c0-8.866 7.196-16.062 16.062-16.062h145.008l64.7 12.605 64.699-12.605h145.009c8.865 0 16.061 7.196 16.061 16.062z" fill="#c0d6f2"/><path d="m313.198 68.228v20.874c0 6.957-5.64 12.596-12.596 12.596h-104.206c-6.957 0-12.596-5.64-12.596-12.596v-20.874z" fill="#e9b665"/><path d="m288.083 68.228v20.874c0 6.957-5.64 12.596-12.596 12.596h25.115c6.957 0 12.596-5.64 12.596-12.596v-20.874z" fill="#d8aa5e"/><path d="m194.098 428.772c-10.115 0-19.972-3.253-28.105-9.286l-146.873-108.823c-9.232-6.841-15.48-16.654-17.936-27.481 10.611-3.393 90.112-26.942 134.764 14.123 47.916 44.048 58.15 131.467 58.15 131.467z" fill="#7a8c98"/><path d="m110.832 297.305c39.124 35.966 53.123 100.837 56.944 123.436 7.771 5.225 16.933 8.031 26.321 8.031 0 0-10.234-87.419-58.15-131.467-23.725-21.819-57.289-25.397-85.13-23.449 21.249 1.631 43.125 7.915 60.015 23.449z" fill="#6a7b84"/><path d="m302.906 428.772c10.115 0 19.972-3.253 28.105-9.286l146.872-108.824c9.232-6.841 15.48-16.654 17.936-27.481-10.611-3.393-90.112-26.942-134.764 14.123-47.915 44.049-58.149 131.468-58.149 131.468z" fill="#7a8c98"/><path d="m421.07 273.856c13.991.979 28.091 3.262 41.688 6.973 4.611 1.259 7.121 6.301 5.22 10.686-3.24 7.471-8.417 14.114-15.21 19.147l-146.872 108.824c-.585.434-1.182.85-1.784 1.255-.859 5.079-1.206 8.031-1.206 8.031 10.115 0 19.972-3.253 28.105-9.286l146.872-108.823c9.232-6.841 15.48-16.654 17.936-27.481-6.597-2.11-39.824-12.007-74.749-9.326z" fill="#6a7b84"/></g></svg>