<svg width="32" height="32" viewBox="0 0 32 32" fill="none" xmlns="http://www.w3.org/2000/svg">
<path d="M31.5004 29.4999V31.5C25.0004 31.5 22.0003 29.9999 22.0003 29.9999C22.0003 29.9999 20.5003 31 14.5002 31C8.50012 31 2.00002 25.9999 2.00002 25.9999H0.5V24.4999L5.50007 4.99958L14.0002 0.499512L17.5002 4.99958L15.9202 6.4046L14.3452 7.80462L13.0002 8.99963L12.0002 7.49961C12.0002 8.49963 9.50013 8.49963 9.50013 8.49963L10.7651 17.3398C15.0752 14.7697 17.9003 16.1547 19.5653 17.9148C24.5603 11.0497 31.5004 16.9997 31.5004 16.9997V29.4999Z" fill="#FFDAAA"/>
<path d="M11.5014 2.99955L14.874 7.33561L15.9215 6.4046L17.5015 4.99958L14.0015 0.499512L5.50135 4.99958L5.15234 6.3611L11.5014 2.99955Z" fill="#FFB680"/>
<path d="M19.5652 17.9148C17.9002 16.1547 15.0751 14.7697 10.7651 17.3398L9.77354 10.4097L9.50004 8.49963C9.50004 9.49965 7 10.9997 7 10.9997L8.26502 19.8398C12.5751 17.2698 15.4001 18.6548 17.0651 20.4148C22.0602 13.5497 29.0003 19.4998 29.0003 19.4998V31.419C29.7693 31.469 30.6003 31.5 31.5004 31.5V16.9998C31.5004 16.9998 24.5603 11.0497 19.5652 17.9148Z" fill="#FFB680"/>
<path d="M31.826 16.6203C31.687 16.5013 28.3799 13.7072 24.5624 14.1547C22.6353 14.3802 20.9433 15.4003 19.5178 17.1693C17.8223 15.6103 15.0997 14.4747 11.1557 16.5538L10.0731 8.97567C10.755 8.95268 11.42 8.75856 12.0072 8.41116L12.5842 9.27717C12.6238 9.33696 12.6758 9.38752 12.7367 9.42542C12.7976 9.46332 12.866 9.48768 12.9371 9.49683C13.0083 9.50599 13.0806 9.49973 13.1491 9.47848C13.2176 9.45723 13.2807 9.42148 13.3342 9.37367L17.8343 5.37362C17.9291 5.28929 17.9883 5.17207 17.9999 5.04571C18.0115 4.91934 17.9746 4.79329 17.8968 4.69311L14.3967 0.193042C14.3245 0.100242 14.222 0.0358402 14.107 0.011151C13.9921 -0.0135382 13.8721 0.00306368 13.7682 0.0580404L5.26808 4.5581C5.2066 4.59072 5.15262 4.6358 5.10957 4.69047C5.06652 4.74515 5.03536 4.8082 5.01807 4.87561L0.0180003 24.3759C0.00699501 24.4163 0.000950546 24.458 0 24.4999L0 25.9999C0 26.1325 0.0526792 26.2597 0.146449 26.3535C0.240218 26.4472 0.367397 26.4999 0.500007 26.4999H1.83253C2.83504 27.2444 8.81263 31.5 14.5002 31.5C19.3713 31.5 21.3573 30.854 22.0158 30.5545C22.8568 30.909 25.9004 32 31.5005 32C31.6331 32 31.7602 31.9473 31.854 31.8536C31.9478 31.7598 32.0005 31.6326 32.0005 31.5V16.9998C32.0005 16.9277 31.9849 16.8564 31.9547 16.7909C31.9246 16.7254 31.8807 16.6672 31.826 16.6203ZM22.2258 29.5525C22.148 29.5154 22.0621 29.4983 21.976 29.5029C21.8899 29.5074 21.8063 29.5334 21.7328 29.5785C21.7158 29.588 20.1663 30.5 14.5002 30.5C8.74313 30.5 2.36853 25.6524 2.30453 25.6034C2.2172 25.5363 2.11016 25.4999 2.00003 25.4999H1.00001V24.5629L5.92909 5.33812L13.8632 1.13806L16.8182 4.93811L15.9837 5.67962L14.5907 3.9371L14.9502 3.22309L14.0552 2.77608L13.5552 3.77609C13.5126 3.86149 13.4953 3.95729 13.5054 4.05218C13.5155 4.14707 13.5526 4.23709 13.6122 4.3116L15.2357 6.34563L14.4082 7.08114L13.0932 5.43712L13.4502 4.72311L12.5552 4.2761L12.0552 5.27612C12.0125 5.36162 11.9953 5.45754 12.0055 5.55253C12.0157 5.64752 12.0529 5.73761 12.1127 5.81212L13.6597 7.74665L13.0997 8.24666L12.4187 7.22464C12.3597 7.1344 12.2731 7.06564 12.1718 7.02863C12.0706 6.99161 11.96 6.98832 11.8568 7.01925C11.7535 7.05017 11.6629 7.11365 11.5987 7.20023C11.5344 7.2868 11.4999 7.39183 11.5002 7.49965C11.5002 7.71665 10.5302 7.99965 9.50014 7.99965C9.42851 7.99972 9.35774 8.01517 9.2926 8.04496C9.22746 8.07475 9.16949 8.11819 9.1226 8.17233C9.07571 8.22647 9.041 8.29006 9.02082 8.35878C9.00064 8.42751 8.99546 8.49976 9.00563 8.57066L10.4557 18.7138L8.77663 19.5498L9.22363 20.4448L11.2237 19.4448C11.3175 19.3979 11.3942 19.3227 11.4429 19.2299C11.4916 19.137 11.5099 19.0311 11.4952 18.9273L11.3067 17.6063C14.4567 15.8318 17.1112 16.0458 19.2028 18.2563C19.9875 19.1027 20.6068 20.0886 21.0288 21.1628L21.9718 20.8308C21.5576 19.7585 20.9647 18.7641 20.2183 17.8898C21.4903 16.2733 22.9848 15.3448 24.6734 15.1453C27.5864 14.8023 30.3004 16.6998 31.0004 17.2403V28.9905C28.8353 28.9191 26.7042 28.4315 24.7234 27.5544L24.2769 28.4494C26.3941 29.4024 28.6795 29.9257 31.0004 29.989V30.997C25.0669 30.924 22.2503 29.5665 22.2238 29.5525H22.2258Z" fill="black"/>
<path d="M14.5003 28.4999C11.2297 28.4999 8.3502 26.1394 8.3202 26.1154L7.67969 26.8844C7.80819 26.9904 10.8612 29.4999 14.5003 29.4999C16.6067 29.5177 18.7001 29.1672 20.6859 28.4644L20.3154 27.5354C18.446 28.1853 16.4794 28.5114 14.5003 28.4999Z" fill="black"/>
<path d="M27.1462 18.3533L27.8532 17.6463C27.0747 16.9273 26.0592 16.5193 24.9997 16.4998C23.2996 16.4998 21.7686 18.4743 21.5996 18.6998L22.3996 19.2998C22.7766 18.7998 23.9786 17.4998 24.9997 17.4998C25.7936 17.5214 26.5541 17.8239 27.1462 18.3533Z" fill="black"/>
<path d="M19 12.9997H20V11.9997H21V10.9996H20V9.99963H19V10.9996H18V11.9997H19V12.9997Z" fill="black"/>
<path d="M21 5.49955H22V4.49954H23V3.49953H22V2.49951H21V3.49953H20V4.49954H21V5.49955Z" fill="black"/>
<path d="M28 13.4997H29V12.4997H30V11.4996H29V10.4996H28V11.4996H27V12.4997H28V13.4997Z" fill="black"/>
</svg>
