<svg width="36" height="35" viewBox="0 0 36 35" fill="none" xmlns="http://www.w3.org/2000/svg">
<path d="M13.1324 2.44847C13.4159 1.87498 13.9502 1.46613 14.5778 1.34234L18.7228 0.52478L21.4987 1.11163L21.9443 3.33341L20.779 3.64342L20.3801 4.7222C20.017 5.70426 18.9738 6.25664 17.9574 6.00502L15.9932 5.46087L15.3094 14.9223L21.9663 14.6409C24.9116 14.5164 27.7943 13.731 30.384 12.3225C31.8522 11.524 34.7616 11.5257 34.7616 11.5257V34.4859H30.6448L30.3364 27.6972C28.3801 25.0015 27.1921 21.5287 27.1921 21.5287L12.619 22.174C9.82912 22.1804 7.84265 19.466 8.69263 16.8086L13.1324 2.44847Z" fill="#FFCFC5"/>
<path d="M33.3906 11.5978V34.4859H34.7615V11.5258C34.7615 11.5258 34.1723 11.5255 33.3906 11.5978Z" fill="#FFAC9A"/>
<path d="M20.1291 1.11176L20.5746 3.33353L19.4094 3.64354L19.0105 4.72232C18.7906 5.31692 18.3213 5.75353 17.7598 5.95004L17.9586 6.00514C18.975 6.25676 20.0181 5.70445 20.3813 4.72232L20.7803 3.64354L21.9455 3.33353L21.4999 1.11176L18.724 0.524902L18.0148 0.664796L20.1291 1.11176Z" fill="#FFAC9A"/>
<path d="M15.9941 5.46087L14.6233 4.98108L13.9395 15.0594L15.3103 14.9223L15.9941 5.46087Z" fill="#FFAC9A"/>
<path d="M25.8221 21.5288L12.0625 22.1381C12.2442 22.162 12.4302 22.1746 12.6199 22.1741L25.8431 21.5886C25.8291 21.5495 25.8221 21.5288 25.8221 21.5288Z" fill="#FFAC9A"/>
<path d="M6.42895 29.7951C9.69586 29.7951 12.3442 27.1468 12.3442 23.8799C12.3442 20.613 9.69586 17.9646 6.42895 17.9646C3.16203 17.9646 0.513672 20.613 0.513672 23.8799C0.513672 27.1468 3.16203 29.7951 6.42895 29.7951Z" fill="#8AE897"/>
<path d="M6.42956 17.9646C6.19754 17.9646 5.96916 17.9794 5.74414 18.0054C8.68793 18.3453 10.974 20.8449 10.974 23.8799C10.974 26.9148 8.68793 29.4145 5.74414 29.7544C5.96916 29.7803 6.19754 29.7951 6.42956 29.7951C9.69645 29.7951 12.3448 27.1468 12.3448 23.8799C12.3448 20.613 9.69645 17.9646 6.42956 17.9646Z" fill="#00CE8B"/>
<path d="M27.6791 21.3622L27.6788 21.3611L27.6772 21.3566L27.5544 20.998H27.5536L26.9845 19.3463L26.0124 19.6812L26.4825 21.0454L12.6082 21.6599C12.5596 21.6599 12.5111 21.6574 12.4626 21.6555C12.3434 21.3317 12.1982 21.0174 12.0277 20.7163L11.1331 21.2229C11.5894 22.0288 11.8305 22.9475 11.8305 23.8798C11.8305 26.858 9.40754 29.281 6.42927 29.281C3.451 29.281 1.02812 26.858 1.02812 23.8798C1.02812 20.9015 3.45114 18.4785 6.42934 18.4785C8.04479 18.4785 9.56251 19.1933 10.5934 20.4395L11.3857 19.7842C10.7342 18.9966 9.91927 18.3874 9.01027 17.9892C9.01795 17.6445 9.07573 17.3004 9.1845 16.9604L11.9207 8.11054L10.9384 7.80676L8.20374 16.652C8.09935 16.9782 8.03266 17.3102 8.00154 17.6445C7.49324 17.5168 6.96581 17.4504 6.42934 17.4504C2.88423 17.4504 0 20.3347 0 23.8798C0 27.4249 2.88423 30.3091 6.42934 30.3091C9.97444 30.3091 12.8587 27.4249 12.8587 23.8798C12.8587 23.4769 12.8203 23.0761 12.746 22.683L26.838 22.0589C27.0512 22.6294 27.5168 23.8047 28.1977 25.1395L29.1135 24.6723C28.2091 22.8993 27.6843 21.3773 27.6791 21.3622Z" fill="black"/>
<path d="M34.7622 11.0116C34.7617 11.0116 34.7612 11.0116 34.7607 11.0116C34.6156 11.0116 31.6979 11.0229 30.1387 11.8708C27.6476 13.2258 24.8143 14.006 21.945 14.1273L15.864 14.3843L16.461 6.12371L17.8205 6.50034L17.8342 6.50398C18.0415 6.55532 18.2494 6.57992 18.4545 6.57992C19.5079 6.57978 20.4822 5.92919 20.8626 4.90045L21.1691 4.07157L22.5436 3.70591L21.9366 0.67863L18.7267 0L14.4786 0.837989C13.6993 0.991659 13.0239 1.50853 12.6719 2.22068L12.6537 2.25742L11.2402 6.82907L12.2225 7.13285L13.6108 2.64235C13.8264 2.2326 14.2224 1.93644 14.6775 1.84672L18.7194 1.04937L21.0614 1.54458L21.3455 2.96086L20.84 3.09527L19.4405 2.3651L18.965 3.27663L20.1401 3.88973L19.8982 4.54389C19.6262 5.27941 18.8486 5.69258 18.0874 5.50759L15.5259 4.79791L14.8202 14.5614C14.2325 14.8167 13.0042 15.4794 12.1698 16.8255L13.0437 17.3671C13.845 16.0742 15.1256 15.5382 15.4081 15.4325L21.9882 15.1545C25.0134 15.0266 28.0016 14.2035 30.6298 12.7741C31.6139 12.2387 33.3778 12.0936 34.2477 12.0543V20.0521L33.4825 21.0445C33.1755 21.4427 32.7116 21.6602 32.2087 21.6442C31.7061 21.6271 31.2578 21.3774 30.9786 20.9592L30.5125 20.2609L29.6574 20.8317L30.1235 21.53C30.5888 22.227 31.3361 22.6431 32.1737 22.6717C32.2042 22.6727 32.2347 22.6732 32.2651 22.6732C33.0415 22.6732 33.7555 22.3338 34.2477 21.7323V33.9718H31.1361L30.843 27.5199L30.7525 27.3952C30.359 26.853 29.9665 26.2344 29.5859 25.5565L28.6894 26.0599C29.0605 26.7208 29.4437 27.3299 29.8299 27.873L30.033 32.3428L30.0192 32.3435L30.1314 34.9888L30.1532 34.9878L30.1537 35H35.2758V11.012L34.7622 11.0116Z" fill="black"/>
<path d="M6.42941 25.9226C7.06116 25.9226 7.67056 26.1103 8.19175 26.4654L8.77058 25.6157C8.07804 25.1439 7.26843 24.8945 6.42934 24.8945C5.59012 24.8945 4.7805 25.144 4.08789 25.6159L4.66679 26.4655C5.18812 26.1103 5.79752 25.9226 6.42941 25.9226Z" fill="black"/>
<path d="M3.86719 22.6118H4.88674V23.6399H3.86719V22.6118Z" fill="black"/>
<path d="M7.9707 22.6118H8.99026V23.6399H7.9707V22.6118Z" fill="black"/>
<path d="M23.6668 23.9169C23.3747 24.1197 23.1636 24.2663 22.6718 24.2848C22.1796 24.3035 21.9585 24.173 21.6519 23.9928C21.3012 23.7865 20.8647 23.5297 20.0722 23.5596C19.2798 23.5896 18.8639 23.8784 18.5297 24.1104C18.2376 24.3133 18.0266 24.4599 17.5348 24.4783C17.0428 24.4974 16.8216 24.3667 16.5152 24.1864C16.1644 23.98 15.7282 23.7235 14.9355 23.7532L14.9742 24.7806C15.4661 24.7619 15.6874 24.8924 15.9939 25.0726C16.3258 25.2678 16.7344 25.5081 17.4487 25.5081C17.4893 25.5081 17.5309 25.5073 17.5735 25.5057C18.3659 25.4758 18.7818 25.187 19.116 24.955C19.4081 24.7521 19.6191 24.6055 20.1108 24.5871C20.6026 24.568 20.8242 24.6987 21.1307 24.8791C21.4814 25.0854 21.9183 25.3421 22.7104 25.3122C23.5029 25.2822 23.9189 24.9935 24.2531 24.7614C24.5452 24.5586 24.7563 24.412 25.2481 24.3935L25.2094 23.3661C24.417 23.396 24.0011 23.6849 23.6668 23.9169Z" fill="black"/>
<path d="M22.3691 10.5113C21.5767 10.5413 21.1608 10.83 20.8266 11.0622C20.5345 11.265 20.3236 11.4116 19.8318 11.43C19.3398 11.4493 19.1186 11.3183 18.8121 11.1381C18.4614 10.9317 18.0249 10.6755 17.2324 10.7049L17.2711 11.7324C17.7629 11.7133 17.9843 11.844 18.2908 12.0243C18.6227 12.2195 19.0313 12.4598 19.7456 12.4598C19.7862 12.4598 19.8279 12.4591 19.8704 12.4575C20.6629 12.4275 21.0788 12.1388 21.413 11.9066C21.705 11.7038 21.916 11.5572 22.4078 11.5387C22.9005 11.5198 23.1211 11.6505 23.4276 11.8307C23.7784 12.037 24.2151 12.2941 25.0074 12.2639C25.7998 12.234 26.2158 11.9451 26.55 11.713C26.8422 11.5102 27.0531 11.3636 27.545 11.3452L27.5064 10.3177C26.7139 10.3477 26.2979 10.6365 25.9637 10.8686C25.6715 11.0714 25.4605 11.218 24.9687 11.2365C24.476 11.2551 24.2554 11.1248 23.9489 10.9445C23.5982 10.7383 23.1615 10.4814 22.3691 10.5113Z" fill="black"/>
</svg>
