<svg width="35" height="35" viewBox="0 0 35 35" fill="none" xmlns="http://www.w3.org/2000/svg">
<g clip-path="url(#clip0_850_52199)">
<path d="M4.70297 5.97054C4.04627 5.55288 3.1793 5.97034 3.09647 6.74418C3.0531 7.14908 2.77934 7.49236 2.39421 7.62481C1.65818 7.87784 1.44406 8.81591 1.9974 9.36321C2.28694 9.64959 2.38467 10.0776 2.24803 10.4613C1.9869 11.1945 2.58684 11.9468 3.35979 11.8554C3.76422 11.8076 4.15978 11.9981 4.37459 12.3441C4.78505 13.0054 5.74727 13.0054 6.15774 12.3441C6.37254 11.9981 6.76811 11.8076 7.17253 11.8554C7.94541 11.9468 8.54535 11.1945 8.28429 10.4613C8.14766 10.0777 8.24538 9.64959 8.53492 9.36321C9.08826 8.81591 8.87415 7.87784 8.13812 7.62481C7.75298 7.49243 7.47923 7.14915 7.43585 6.74418C7.35295 5.97034 6.48605 5.55281 5.82935 5.97054C5.48567 6.18912 5.04659 6.18912 4.70297 5.97054Z" fill="url(#paint0_linear_850_52199)"/>
<path d="M4.70297 5.97054C4.04627 5.55288 3.1793 5.97034 3.09647 6.74418C3.0531 7.14908 2.77934 7.49236 2.39421 7.62481C1.65818 7.87784 1.44406 8.81591 1.9974 9.36321C2.28694 9.64959 2.38467 10.0776 2.24803 10.4613C1.9869 11.1945 2.58684 11.9468 3.35979 11.8554C3.76422 11.8076 4.15978 11.9981 4.37459 12.3441C4.78505 13.0054 5.74727 13.0054 6.15774 12.3441C6.37254 11.9981 6.76811 11.8076 7.17253 11.8554C7.94541 11.9468 8.54535 11.1945 8.28429 10.4613C8.14766 10.0777 8.24538 9.64959 8.53492 9.36321C9.08826 8.81591 8.87415 7.87784 8.13812 7.62481C7.75298 7.49243 7.47923 7.14915 7.43585 6.74418C7.35295 5.97034 6.48605 5.55281 5.82935 5.97054C5.48567 6.18912 5.04659 6.18912 4.70297 5.97054Z" fill="url(#paint1_linear_850_52199)"/>
<path d="M27.5286 14.7691L25.1883 7.35097C24.6192 5.54731 23.2928 4.08101 21.555 3.33469C19.8752 2.61321 17.9857 3.76526 17.8578 5.58896C17.7254 7.4756 18.4213 9.32635 19.7641 10.6582L25.2865 16.136C26.2893 17.1307 27.9535 16.1159 27.5286 14.7691Z" fill="url(#paint2_linear_850_52199)"/>
<path d="M27.5286 14.7691L25.1883 7.35097C24.6192 5.54731 23.2928 4.08101 21.555 3.33469C19.8752 2.61321 17.9857 3.76526 17.8578 5.58896C17.7254 7.4756 18.4213 9.32635 19.7641 10.6582L25.2865 16.136C26.2893 17.1307 27.9535 16.1159 27.5286 14.7691Z" fill="url(#paint3_linear_850_52199)"/>
<path d="M19.7636 10.6583L25.2861 16.1362C26.2888 17.1308 27.9531 16.116 27.5281 14.7692L25.8155 9.34094H18.7402C19.0208 9.81756 19.3632 10.2611 19.7636 10.6583Z" fill="url(#paint4_linear_850_52199)"/>
<path d="M23.1225 17.1024L15.9036 11.0734C11.0517 7.02114 3.65147 8.9738 1.43034 14.8922C0.964634 16.1332 0.786134 17.3925 0.851536 18.6094C0.59384 19.0875 0.387065 19.6027 0.240958 20.1504C-0.734307 23.8069 1.33721 27.5583 4.89568 28.7108L16.6529 31.8558C17.3184 32.0339 17.8596 31.3074 17.4987 30.7207C16.5573 29.1901 14.9986 28.143 13.2258 27.85L12.395 27.7127C12.1858 27.6781 12.0493 27.5193 12.017 27.3392L19.2209 27.4992L23.1225 17.1024Z" fill="url(#paint5_linear_850_52199)"/>
<path d="M23.1222 17.1027L19.2209 27.4989L12.0164 27.3389C11.9884 27.3335 10.4205 27.3902 8.88477 27.4524V9.0104C11.2871 8.70625 13.8283 9.3405 15.9033 11.0731L23.1222 17.1027Z" fill="url(#paint6_linear_850_52199)"/>
<path d="M0.240958 20.1504C1.24889 16.3715 5.12943 14.1252 8.90833 15.133C12.6813 16.1393 14.9403 20.0622 13.9177 23.8307C13.5891 25.0412 12.9653 26.0931 12.1447 26.9297C11.8811 27.1985 12.0237 27.6512 12.395 27.7126L13.2258 27.8498C14.9986 28.1428 16.5573 29.19 17.4987 30.7205C17.8596 31.3073 17.3184 32.0337 16.6529 31.8557L4.89568 28.7108C1.33721 27.5582 -0.734307 23.8068 0.240958 20.1504Z" fill="url(#paint7_linear_850_52199)"/>
<path d="M8.89483 29.7804L12.8084 30.8281C12.3484 31.0708 11.8741 31.2956 11.3854 31.5021C10.4532 31.8957 9.3801 31.4248 9.02262 30.4775L9.01102 30.4468C8.92901 30.2294 8.89071 30.0032 8.89483 29.7804Z" fill="url(#paint8_linear_850_52199)"/>
<path d="M8.89483 29.7804L12.8084 30.8281C12.3484 31.0708 11.8741 31.2956 11.3854 31.5021C10.4532 31.8957 9.3801 31.4248 9.02262 30.4775L9.01102 30.4468C8.92901 30.2294 8.89071 30.0032 8.89483 29.7804Z" fill="url(#paint9_linear_850_52199)"/>
<path d="M20.3216 23.079C19.1344 25.385 17.6062 27.3254 15.7438 28.8686C14.9981 28.3533 14.141 28.0013 13.2259 27.8503L12.3948 27.7129C12.0237 27.6514 11.8816 27.1983 12.1447 26.9296C12.9655 26.0931 13.5896 25.0412 13.9176 23.8308C13.9306 23.7829 13.9428 23.7358 13.9545 23.6879C15.1137 22.3394 17.0253 21.833 18.7374 22.4809C19.2657 22.6798 19.7933 22.8794 20.3216 23.079Z" fill="url(#paint10_linear_850_52199)"/>
<path d="M20.3216 23.079C19.1344 25.385 17.6062 27.3254 15.7438 28.8686C14.9981 28.3533 14.141 28.0013 13.2259 27.8503L12.3948 27.7129C12.0237 27.6514 11.8816 27.1983 12.1447 26.9296C12.9655 26.0931 13.5896 25.0412 13.9176 23.8308C13.9306 23.7829 13.9428 23.7358 13.9545 23.6879C15.1137 22.3394 17.0253 21.833 18.7374 22.4809C19.2657 22.6798 19.7933 22.8794 20.3216 23.079Z" fill="url(#paint11_linear_850_52199)"/>
<path d="M33.0719 19.7803L29.841 16.5494C28.0791 14.7875 25.9022 14.025 23.7797 14.0658L21.6863 7.43068C21.1173 5.62702 19.7908 4.16072 18.053 3.4144C16.3732 2.69292 14.4838 3.84497 14.3558 5.66867C14.2234 7.55531 14.9194 9.40599 16.2621 10.7379L20.3928 14.8352C17.5862 16.1066 15.4494 18.8674 15.4494 22.5107C15.4494 25.6839 18.0217 28.2562 21.1949 28.2562H29.5611C33.9844 28.2562 36.1997 22.9081 33.0719 19.7803Z" fill="url(#paint12_linear_850_52199)"/>
<path d="M29.8414 16.5494C29.1255 15.8334 28.341 15.2825 27.5195 14.8834V28.2562H29.5614C33.9849 28.2562 36.2001 22.908 33.0722 19.7802L29.8414 16.5494Z" fill="url(#paint13_linear_850_52199)"/>
<path d="M20.3927 14.8351C17.586 16.1064 15.4492 18.8672 15.4492 22.5105C15.4492 25.6837 18.0216 28.2561 21.1948 28.2561H29.5609C30.8088 28.2561 31.8808 27.8304 32.7068 27.1491L20.3927 14.8351Z" fill="url(#paint14_linear_850_52199)"/>
<path d="M15.4492 22.5105C15.4492 25.6837 18.0216 28.2562 21.1948 28.2562H29.5609C33.4398 28.2562 35.6203 24.1439 33.9895 21.0223H15.5743C15.4933 21.4999 15.4492 21.9961 15.4492 22.5105Z" fill="url(#paint15_linear_850_52199)"/>
<path d="M22.4228 13.1185L20.9173 8.34658C20.5512 7.18636 19.6979 6.24307 18.58 5.76296C17.4994 5.29883 16.284 6.03994 16.2017 7.21306C16.1165 8.42666 16.5642 9.61721 17.428 10.474L20.9805 13.9978C21.6256 14.6377 22.6962 13.9849 22.4228 13.1185Z" fill="url(#paint16_linear_850_52199)"/>
<path d="M32.7207 24.8532C32.1053 24.308 32.4909 23.2913 33.3131 23.2913H34.1379C34.6882 23.2913 35.1007 23.8012 34.9793 24.3379C34.9109 24.6402 34.8188 24.9367 34.7044 25.2244C34.5401 25.6377 34.0562 25.8294 33.661 25.6253C33.5534 25.5698 33.451 25.5002 33.3566 25.4167L32.7207 24.8532Z" fill="url(#paint17_linear_850_52199)"/>
<path d="M4.89546 28.7107L16.6526 31.8558C17.3181 32.0338 17.8594 31.3074 17.4985 30.7206C16.5571 29.1901 14.9984 28.1429 13.2255 27.8499L12.3948 27.7127C12.0234 27.6513 11.8809 27.1986 12.1445 26.9299C12.9651 26.0932 13.5889 25.0413 13.9174 23.8309C14.1886 22.8316 14.229 21.8216 14.0716 20.8579H0.0899546C-0.461124 24.2796 1.56634 27.6325 4.89546 28.7107Z" fill="url(#paint18_linear_850_52199)"/>
<path d="M29.9218 23.492C30.6499 23.492 31.24 22.9018 31.24 22.1738V21.4977C31.24 20.7696 30.6499 20.1794 29.9218 20.1794C29.1937 20.1794 28.6035 20.7696 28.6035 21.4977V22.1738C28.6035 22.9018 29.1937 23.492 29.9218 23.492Z" fill="url(#paint19_linear_850_52199)"/>
<path d="M10.1389 6.49055C10.8116 6.44547 11.4532 6.4397 12.0458 6.47333C12.332 6.48959 12.5764 6.27102 12.5925 5.98525C12.6087 5.69955 12.3902 5.45476 12.1044 5.43856C11.4694 5.40253 10.7847 5.40857 10.0696 5.45648C10.0385 5.4586 10.0081 5.46334 9.97884 5.47061C9.73974 5.52991 9.57009 5.75377 9.58711 6.00817C9.60633 6.29366 9.85339 6.50963 10.1389 6.49055Z" fill="url(#paint20_linear_850_52199)"/>
<path d="M17.3705 29.0633C17.7523 29.6189 18.0846 30.1678 18.3579 30.6946C18.4899 30.9491 18.8025 31.0478 19.0566 30.916C19.3106 30.7842 19.4097 30.4714 19.2779 30.2174C18.985 29.6528 18.6306 29.067 18.2247 28.4762C18.207 28.4506 18.1875 28.4269 18.1663 28.4054C17.9933 28.23 17.7142 28.1982 17.5041 28.3426C17.2682 28.5047 17.2084 28.8274 17.3705 29.0633Z" fill="url(#paint21_linear_850_52199)"/>
<path d="M13.4265 7.13406C12.4616 7.0292 11.4322 6.97656 10.3544 6.97656C10.0152 6.97656 9.67112 6.98178 9.32297 6.99228C9.03693 7.00086 8.81197 7.23975 8.82055 7.52579C8.8292 7.8119 9.06706 8.03747 9.35413 8.02821C10.7607 7.986 12.0934 8.03178 13.3147 8.16444C13.5996 8.19504 13.8549 7.98971 13.8858 7.70525C13.9167 7.42065 13.7111 7.16495 13.4265 7.13406Z" fill="url(#paint22_linear_850_52199)"/>
</g>
<defs>
<linearGradient id="paint0_linear_850_52199" x1="3.90778" y1="7.92739" x2="6.00895" y2="10.0286" gradientUnits="userSpaceOnUse">
<stop stop-color="#F9F5F3"/>
<stop offset="1" stop-color="#EFE2DD"/>
</linearGradient>
<linearGradient id="paint1_linear_850_52199" x1="5.35576" y1="7.99258" x2="4.45543" y2="14.2948" gradientUnits="userSpaceOnUse">
<stop stop-color="#9E9797" stop-opacity="0"/>
<stop offset="0.3046" stop-color="#9A9393" stop-opacity="0.305"/>
<stop offset="0.6321" stop-color="#8D8686" stop-opacity="0.632"/>
<stop offset="0.9691" stop-color="#787070" stop-opacity="0.969"/>
<stop offset="1" stop-color="#766E6E"/>
</linearGradient>
<linearGradient id="paint2_linear_850_52199" x1="21.691" y1="6.02536" x2="22.8757" y2="11.6298" gradientUnits="userSpaceOnUse">
<stop stop-color="#F9F5F3"/>
<stop offset="1" stop-color="#EFE2DD"/>
</linearGradient>
<linearGradient id="paint3_linear_850_52199" x1="24.2849" y1="9.33945" x2="17.8787" y2="12.2828" gradientUnits="userSpaceOnUse">
<stop stop-color="#9E9797" stop-opacity="0"/>
<stop offset="0.3104" stop-color="#968F8F" stop-opacity="0.31"/>
<stop offset="0.7849" stop-color="#827A7A" stop-opacity="0.785"/>
<stop offset="1" stop-color="#766E6E"/>
</linearGradient>
<linearGradient id="paint4_linear_850_52199" x1="23.3393" y1="11.7575" x2="22.4043" y2="15.0472" gradientUnits="userSpaceOnUse">
<stop stop-color="#9E9797" stop-opacity="0"/>
<stop offset="0.3104" stop-color="#968F8F" stop-opacity="0.31"/>
<stop offset="0.7849" stop-color="#827A7A" stop-opacity="0.785"/>
<stop offset="1" stop-color="#766E6E"/>
</linearGradient>
<linearGradient id="paint5_linear_850_52199" x1="11.5613" y1="12.5244" x2="11.5613" y2="26.9241" gradientUnits="userSpaceOnUse">
<stop stop-color="#F9F5F3"/>
<stop offset="1" stop-color="#EFE2DD"/>
</linearGradient>
<linearGradient id="paint6_linear_850_52199" x1="12.3741" y1="18.8895" x2="22.6945" y2="22.136" gradientUnits="userSpaceOnUse">
<stop stop-color="#9E9797" stop-opacity="0"/>
<stop offset="0.3046" stop-color="#9A9393" stop-opacity="0.305"/>
<stop offset="0.6321" stop-color="#8D8686" stop-opacity="0.632"/>
<stop offset="0.9691" stop-color="#787070" stop-opacity="0.969"/>
<stop offset="1" stop-color="#766E6E"/>
</linearGradient>
<linearGradient id="paint7_linear_850_52199" x1="10.7104" y1="23.6349" x2="21.699" y2="20.0336" gradientUnits="userSpaceOnUse">
<stop stop-color="#9E9797" stop-opacity="0"/>
<stop offset="0.3104" stop-color="#968F8F" stop-opacity="0.31"/>
<stop offset="0.7849" stop-color="#827A7A" stop-opacity="0.785"/>
<stop offset="1" stop-color="#766E6E"/>
</linearGradient>
<linearGradient id="paint8_linear_850_52199" x1="9.98772" y1="29.6207" x2="11.3605" y2="31.264" gradientUnits="userSpaceOnUse">
<stop stop-color="#F9F5F3"/>
<stop offset="1" stop-color="#EFE2DD"/>
</linearGradient>
<linearGradient id="paint9_linear_850_52199" x1="10.4989" y1="29.4536" x2="11.3874" y2="32.0166" gradientUnits="userSpaceOnUse">
<stop stop-color="#9E9797" stop-opacity="0"/>
<stop offset="0.3046" stop-color="#9A9393" stop-opacity="0.305"/>
<stop offset="0.6321" stop-color="#8D8686" stop-opacity="0.632"/>
<stop offset="0.9691" stop-color="#787070" stop-opacity="0.969"/>
<stop offset="1" stop-color="#766E6E"/>
</linearGradient>
<linearGradient id="paint10_linear_850_52199" x1="14.3543" y1="23.6652" x2="17.3957" y2="26.3649" gradientUnits="userSpaceOnUse">
<stop stop-color="#F9F5F3"/>
<stop offset="1" stop-color="#EFE2DD"/>
</linearGradient>
<linearGradient id="paint11_linear_850_52199" x1="14.5688" y1="25.5721" x2="18.0203" y2="25.5038" gradientUnits="userSpaceOnUse">
<stop stop-color="#9E9797" stop-opacity="0"/>
<stop offset="0.3046" stop-color="#9A9393" stop-opacity="0.305"/>
<stop offset="0.6321" stop-color="#8D8686" stop-opacity="0.632"/>
<stop offset="0.9691" stop-color="#787070" stop-opacity="0.969"/>
<stop offset="1" stop-color="#766E6E"/>
</linearGradient>
<linearGradient id="paint12_linear_850_52199" x1="20.3188" y1="16.2348" x2="25.2129" y2="23.345" gradientUnits="userSpaceOnUse">
<stop stop-color="#F9F5F3"/>
<stop offset="1" stop-color="#EFE2DD"/>
</linearGradient>
<linearGradient id="paint13_linear_850_52199" x1="30.4641" y1="22.2338" x2="35.1116" y2="23.2818" gradientUnits="userSpaceOnUse">
<stop stop-color="#9E9797" stop-opacity="0"/>
<stop offset="0.3046" stop-color="#9A9393" stop-opacity="0.305"/>
<stop offset="0.6321" stop-color="#8D8686" stop-opacity="0.632"/>
<stop offset="0.9691" stop-color="#787070" stop-opacity="0.969"/>
<stop offset="1" stop-color="#766E6E"/>
</linearGradient>
<linearGradient id="paint14_linear_850_52199" x1="24.078" y1="18.7441" x2="24.078" y2="11.891" gradientUnits="userSpaceOnUse">
<stop stop-color="#9E9797" stop-opacity="0"/>
<stop offset="0.3046" stop-color="#9A9393" stop-opacity="0.305"/>
<stop offset="0.6321" stop-color="#8D8686" stop-opacity="0.632"/>
<stop offset="0.9691" stop-color="#787070" stop-opacity="0.969"/>
<stop offset="1" stop-color="#766E6E"/>
</linearGradient>
<linearGradient id="paint15_linear_850_52199" x1="24.9925" y1="25.6244" x2="24.9925" y2="29.7708" gradientUnits="userSpaceOnUse">
<stop stop-color="#9E9797" stop-opacity="0"/>
<stop offset="0.3046" stop-color="#9A9393" stop-opacity="0.305"/>
<stop offset="0.6321" stop-color="#8D8686" stop-opacity="0.632"/>
<stop offset="0.9691" stop-color="#787070" stop-opacity="0.969"/>
<stop offset="1" stop-color="#766E6E"/>
</linearGradient>
<linearGradient id="paint16_linear_850_52199" x1="16.6668" y1="9.30571" x2="21.3827" y2="10.2626" gradientUnits="userSpaceOnUse">
<stop stop-color="#FFA1AE"/>
<stop offset="1" stop-color="#FF4565"/>
</linearGradient>
<linearGradient id="paint17_linear_850_52199" x1="33.1689" y1="23.1959" x2="34.1258" y2="24.9273" gradientUnits="userSpaceOnUse">
<stop stop-color="#FFA1AE"/>
<stop offset="1" stop-color="#FF4565"/>
</linearGradient>
<linearGradient id="paint18_linear_850_52199" x1="8.47705" y1="27.5336" x2="7.74802" y2="30.4498" gradientUnits="userSpaceOnUse">
<stop stop-color="#9E9797" stop-opacity="0"/>
<stop offset="0.3104" stop-color="#968F8F" stop-opacity="0.31"/>
<stop offset="0.7849" stop-color="#827A7A" stop-opacity="0.785"/>
<stop offset="1" stop-color="#766E6E"/>
</linearGradient>
<linearGradient id="paint19_linear_850_52199" x1="30.7816" y1="21.2028" x2="28.9513" y2="22.5502" gradientUnits="userSpaceOnUse">
<stop stop-color="#5A5A5A"/>
<stop offset="1" stop-color="#444444"/>
</linearGradient>
<linearGradient id="paint20_linear_850_52199" x1="10.1203" y1="4.96455" x2="14.4439" y2="9.42534" gradientUnits="userSpaceOnUse">
<stop stop-color="#DEECF1"/>
<stop offset="1" stop-color="#D9B1EE"/>
</linearGradient>
<linearGradient id="paint21_linear_850_52199" x1="18.6603" y1="28.2804" x2="17.029" y2="34.2736" gradientUnits="userSpaceOnUse">
<stop stop-color="#DEECF1"/>
<stop offset="1" stop-color="#D9B1EE"/>
</linearGradient>
<linearGradient id="paint22_linear_850_52199" x1="9.44938" y1="5.61438" x2="13.7729" y2="10.0752" gradientUnits="userSpaceOnUse">
<stop stop-color="#DEECF1"/>
<stop offset="1" stop-color="#D9B1EE"/>
</linearGradient>
<clipPath id="clip0_850_52199">
<rect width="35" height="35" fill="white"/>
</clipPath>
</defs>
</svg>
