<svg width="35" height="35" viewBox="0 0 35 35" fill="none" xmlns="http://www.w3.org/2000/svg">
<g clip-path="url(#clip0_850_52237)">
<path d="M34.361 14.0294C30.0108 17.2483 28.8216 24.7964 28.497 28.6503C28.3823 30.0068 26.8937 30.7868 25.7147 30.1056C25.2075 29.8126 24.6331 29.5616 23.646 29.5616C21.2815 29.5616 21.2815 31.0047 18.9169 31.0047C16.5524 31.0047 16.5524 29.5616 14.1878 29.5616C13.7361 29.5616 13.3703 29.6143 13.0579 29.7001C11.7367 30.0609 11.3716 31.0047 9.45944 31.0047C7.09415 31.0047 7.09415 29.5616 4.72968 29.5616C3.7343 29.5616 3.15789 29.8173 2.6478 30.1135C1.52917 30.7629 0.312173 29.4111 1.07718 28.3681C1.82052 27.3547 3.0745 26.2842 5.18789 25.6263L9.72864 23.3252L23.366 16.4134C24.2189 14.2762 25.61 12.0797 27.8664 10.957C30.9012 9.44681 33.1027 10.4245 34.4188 11.5147C35.2146 12.1743 35.1923 13.4139 34.361 14.0294Z" fill="#FFDFCF"/>
<path d="M13.0579 29.7002C11.7367 30.061 11.3716 31.0048 9.45948 31.0048C7.09417 31.0048 7.09417 29.5617 4.72969 29.5617C3.73431 29.5617 3.1579 29.8174 2.64781 30.1136C1.52917 30.763 0.312171 29.4112 1.07718 28.3683C1.82052 27.3548 3.07451 26.2843 5.1879 25.6264L9.72868 23.3253L11.8428 24.6075C11.8428 24.6075 9.18242 26.6632 13.0579 29.7002Z" fill="#FFCEBF"/>
<path d="M32.4038 10.4087C31.9557 10.5328 31.486 10.7125 30.9946 10.9571C28.7382 12.0798 27.3471 14.2763 26.4942 16.4135L25.2201 20.22C24.7584 21.5995 23.4665 22.5294 22.0117 22.5294H13.7595L13.3027 21.5135L23.3655 16.4135C24.2184 14.2763 25.6096 12.0798 27.8659 10.9571C29.6799 10.0544 31.1966 10.0407 32.4038 10.4087Z" fill="#FFCEBF"/>
<path d="M31.8586 11.1542C31.8535 11.1542 31.8485 11.1541 31.8434 11.154C31.5519 11.1458 31.3222 10.903 31.3303 10.6115C31.3347 10.4538 31.4563 6.73181 33.1199 5.06828C33.3262 4.86204 33.6607 4.86197 33.867 5.06828C34.0733 5.27452 34.0733 5.609 33.867 5.81531C32.501 7.18127 32.3873 10.6066 32.3864 10.641C32.3781 10.9274 32.1433 11.1542 31.8586 11.1542Z" fill="#537983"/>
<path d="M28.3742 11.564C28.3691 11.564 28.3641 11.5639 28.359 11.5638C28.0675 11.5556 27.8378 11.3129 27.8459 11.0213C27.8503 10.8637 27.9719 7.14164 29.6356 5.47804C29.8418 5.2718 30.1763 5.2718 30.3826 5.47804C30.5889 5.68428 30.5889 6.01877 30.3826 6.22508C29.0166 7.59103 28.903 11.0164 28.902 11.0508C28.8937 11.3373 28.6589 11.564 28.3742 11.564Z" fill="#537983"/>
<path d="M23.3879 15.6893C23.3879 19.632 21.4371 23.1188 18.4473 25.2373C16.5401 26.5889 14.2097 27.3833 11.6939 27.3833C10.6177 27.3833 9.57615 27.2383 8.58659 26.9657C3.63623 25.605 0 21.0715 0 15.6893C0 9.23105 5.23562 3.99536 11.6939 3.99536C18.1522 3.99536 23.3879 9.23105 23.3879 15.6893Z" fill="#F99675"/>
<path d="M13.4401 21.1689C13.1002 21.2685 12.7409 21.3211 12.3685 21.3211C9.72263 21.3211 7.57812 19.1766 7.57812 16.5315C7.57812 13.2246 10.2587 10.5439 13.5656 10.5439C13.974 10.5439 14.3745 10.5764 14.7656 10.6407C11.971 11.1458 9.85176 13.5911 9.85176 16.5315C9.85176 18.7618 11.3764 20.6364 13.4401 21.1689Z" fill="#F68157"/>
<path d="M13.2081 27.2856C12.7123 27.3499 12.2065 27.383 11.6935 27.383C5.23555 27.383 0 22.1474 0 15.6895C0 9.23086 5.23562 3.99524 11.6935 3.99524C12.2065 3.99524 12.7123 4.02846 13.2081 4.09265C7.46522 4.83585 3.02906 9.74458 3.02906 15.6895C3.02913 21.6337 7.46522 26.5424 13.2081 27.2856Z" fill="#F68157"/>
<path d="M21.578 18.0282C21.578 20.8686 20.3737 23.4329 18.4482 25.2373C16.541 26.5888 14.2105 27.3833 11.6948 27.3833C10.6186 27.3833 9.577 27.2382 8.58743 26.9656C8.67685 26.8959 8.78813 26.8551 8.91002 26.8551H11.6948C16.5621 26.8551 20.5216 22.8956 20.5216 18.0282C20.5216 14.1927 17.4016 11.0727 13.566 11.0727C10.5559 11.0727 8.10714 13.5215 8.10714 16.5316C8.10714 18.8811 10.0186 20.7932 12.3688 20.7932C14.1901 20.7932 15.6719 19.3107 15.6719 17.4894C15.6719 16.09 14.5338 14.9519 13.1351 14.9519C12.8436 14.9519 12.6069 14.7159 12.6069 14.4236C12.6069 14.1321 12.8436 13.8954 13.1351 13.8954C15.1163 13.8954 16.7284 15.5075 16.7284 17.4894C16.7284 19.8938 14.7726 21.8497 12.3689 21.8497C9.43618 21.8497 7.05078 19.4635 7.05078 16.5316C7.05078 12.939 9.97355 10.0162 13.5661 10.0162C17.984 10.0162 21.578 13.6102 21.578 18.0282Z" fill="#D6694B"/>
</g>
<defs>
<clipPath id="clip0_850_52237">
<rect width="35" height="35" fill="white"/>
</clipPath>
</defs>
</svg>
