<svg id="Layer_1" height="512" viewBox="0 0 190.0101 238.1763" width="512" xmlns="http://www.w3.org/2000/svg"><g><path d="m18.7313 57.9435.1299.0005c2.7412.0312 5.3154 1.1323 7.2383 3.0996 1.9229 1.9678 2.9639 4.5664 2.9326 7.3174l-.3691 32.2661 29.3261 15.61-.5428-2.931c-.0443-.2388-.1097-.4678-.1668-.7008-.0265-.6688-.0664-1.351-.1364-2.0631-3.8719-22.0272-9.0272-34.192-21.3147-51.579-9.0106-12.5922-22.1947-13.4982-29.767-9.0177-7.571 4.4779-7.7632 16.966-2.1688 25.6837 1.332 2.5384 2.8188 5.2956 4.3623 8.2076l.1796-15.7113c.0634-5.6141 4.6825-10.182 10.2968-10.182z"/><path d="m71.1892 129.7408c-.0121.4503-.0552.8983-.1269 1.343 10.8077 3.2675 33.2651 13.2977 49.7874 42.5526h4.7677c-18.4613-31.8788-43.3846-41.2319-54.4282-43.8956z"/><path d="m184.0101 134.8983h-25.7897c-3.3144 0-6 2.6865-6 6v28.663c0 4.875-6.332 6.375-6.332 6.375h-67.5v8c0 15.834 21 19.5 21 19.5l6.666 32h83.9557v-94.538c0-3.3135-2.6895-6-6-6z"/><circle cx="29.963" cy="22.5" r="22.5"/><path d="m56.0584 138.5465-32.8399-17.4809c.1408.7255.2874 1.4514.4017 2.1748 2.7029 11.4979 6.1187 13.1176 12.4312 11.8295l6.3109 34.08-9.5195 54.3682c-1.1909 6.8008 3.3564 13.2783 10.1567 14.4688.7295.1279 1.4546.1895 2.1704.1895 5.9575 0 11.2354-4.2754 12.2979-10.3457l9.9082-56.5869c.2568-1.4668.2495-2.9678-.0215-4.4326l-5.0289-27.1562c-.4709.0657-.9497.1006-1.4341.1006-1.6749-.0001-3.3468-.4181-4.8331-1.2091z"/><path d="m64.657 122.3922-38.3096-20.3921.3848-33.6655c.0508-4.418-3.4893-8.0405-7.9072-8.0908-.0312-.0005-.0625-.0005-.0938-.0005-4.375 0-7.9473 3.522-7.9971 7.9087l-.4404 38.5317c-.0342 2.9893 1.6006 5.7485 4.2402 7.1533l42.6055 22.6792c1.1973.6372 2.4834.9395 3.752.9395 2.8623 0 5.6299-1.54 7.0684-4.2422 2.0761-3.9004.5976-8.7451-3.3028-10.8213z"/></g></svg>