<svg id="Layer_1" enable-background="new 0 0 104.438 152.02" height="512" viewBox="0 0 104.438 152.02" width="512" xmlns="http://www.w3.org/2000/svg"><g><ellipse cx="72.981" cy="22.5" rx="22.495" ry="22.495" transform="matrix(.974 -.227 .227 .974 -3.201 17.137)"/><path d="m89.116 117.054c-.838.72-.934 1.984-.211 2.819h.002c1.511 1.754 2.974 3.816 4.404 6.23.373.63 1.04.979 1.724.979.347 0 .698-.09 1.018-.279.949-.563 1.264-1.791.7-2.741-1.532-2.584-3.127-4.839-4.815-6.8-.723-.836-1.984-.929-2.822-.208z"/><path d="m100.558 142.128c.294.813 1.062 1.318 1.88 1.318.226 0 .455-.038.68-.12 1.038-.375 1.576-1.521 1.201-2.56-.979-2.71-1.967-5.221-2.974-7.551-.438-1.015-1.614-1.481-2.628-1.042-1.015.437-1.481 1.615-1.044 2.63.968 2.243 1.929 4.681 2.885 7.325z"/><path d="m84.544 113.18c.542-.962.204-2.182-.758-2.727-2.486-1.406-5.143-2.397-7.967-3.05-1.076-.249-2.15.42-2.399 1.497-.251 1.076.42 2.15 1.496 2.399 2.501.58 4.774 1.435 6.901 2.638.31.175.648.258.981.258.7.001 1.377-.365 1.746-1.015z"/><path d="m62.882 89.819c-2.123-1.038-4.317-1.398-6.184-1.392-3.192.03-5.611.855-7.802 1.783-3.228 1.422-6.052 3.297-8.796 5.355-1.622-3.15-1.892-6.881-1.618-10.256 1.318-5.908 3.828-10.459 6.384-14.004 1.844-2.525 3.705-4.421 5.001-5.596.646-.588 1.15-.995 1.432-1.213.09-.069.156-.118.198-.149 6.773-4.67 8.527-13.938 3.905-20.763-1.541-2.273-3.602-3.977-5.91-5.087-8.204-4.711-24.204-2.235-37.398 20.333-25.333 43.334-3 84-3 84s3.723-5.879 10.206-13.587c2.138 1.132 4.54 1.757 7.014 1.757 1.574 0 3.174-.249 4.749-.775 3.884-1.296 6.88-4.029 8.605-7.408 1.986-2.04 4.493-4.517 7.118-6.866 1.04-.935 2.104-1.849 3.144-2.699-.229 1.005-.497 2.088-.809 3.245-1.465 5.518-3.854 12.78-7.367 21.942-1.975 5.156.604 10.94 5.762 12.917 1.176.451 2.386.664 3.574.664 4.023 0 7.816-2.445 9.342-6.426 3.687-9.627 6.291-17.467 8.019-23.956 1.714-6.51 2.609-11.601 2.63-16.233-.048-3.607-.452-7.243-2.94-11.024-1.242-1.845-3.134-3.547-5.259-4.562zm-26.794-20.076c-4.335 6.736-8.406 16.047-8.399 27.225.001 2.772.259 5.677.821 8.714.467 2.521 1.14 5.131 2.084 7.845.39 1.119.476 2.269.307 3.364-.383 2.477-2.084 4.668-4.616 5.549-.398.139-.801.235-1.204.299-.366.059-.733.091-1.097.091-2.396 0-4.648-1.252-5.931-3.316-.267-.431-.508-.885-.682-1.384-2.59-7.436-3.685-14.558-3.684-21.163.008-15.114 5.646-27.295 11.144-35.596 5.522-8.321 10.961-12.931 11.305-13.229 2.957-2.492 7.374-2.114 9.865.841 2.492 2.957 2.114 7.373-.843 9.864-.322.276-4.8 4.25-9.07 10.896z"/><path d="m45.631 53.92c.115-1.33-.295-2.625-1.157-3.646-.952-1.129-2.347-1.777-3.827-1.777-1.176 0-2.318.416-3.22 1.177-.953.819-5.917 5.253-10.929 12.806-4.926 7.438-10.802 19.462-10.811 34.49-.002 6.453 1.094 12.995 3.234 19.468.114.345.218.691.338 1.036.701 2.009 2.598 3.359 4.725 3.359.555 0 1.107-.094 1.643-.282 1.262-.439 2.276-1.342 2.859-2.545.579-1.203.656-2.559.218-3.821-.788-2.268-1.417-4.542-1.897-6.814-.737-3.486-1.116-6.966-1.117-10.403-.006-9.783 2.927-19.307 8.715-28.308 4.624-7.191 9.414-11.296 9.46-11.335 1.028-.867 1.655-2.074 1.766-3.405z"/></g></svg>