<svg id="Capa_1" enable-background="new 0 0 496.658 496.658" height="512" viewBox="0 0 496.658 496.658" width="512" xmlns="http://www.w3.org/2000/svg"><g><path d="m432.488 20.075c-4.235-12.02-15.567-20.075-28.311-20.075h-111.545c-2.174 0-4.301.251-6.365.7-.754 1.389-15.664 8.958-37.601 98.418l20.264 287.882 175.473-10c11.404-44.219 21.929-100.984 21.929-163.5 0-98.748-21.799-159.246-33.844-193.425z" fill="#d273b3"/><path d="m278.93 377c4.312-26.525 7.25-57.604 7.25-93.842 0-72.671-14.22-137.589-27.513-184.039 7.442-42.82 18.343-73.293 25.655-94.044.538-1.525 1.192-2.985 1.946-4.375-10.033 2.181-18.433 9.406-21.946 19.375-12.045 34.18-33.843 94.677-33.843 193.425 0 69.828 13.129 132.494 25.95 178.5l91.977 10 91.977-10c1.343-4.817 2.688-9.828 4.021-15z" fill="#ca59a6"/><path d="m280.76 392 13.704 67.29 127.012-7.29c.782-2.305 1.634-4.808 2.545-7.5l-7.501-7.507 12.494-7.493c3.498-10.732 7.418-23.325 11.368-37.5z" fill="#f3f1f4"/><path d="m298.586 446.788c-3.295-10.372-10.227-29.349-17.826-54.788h-24.332c3.95 14.173 7.87 26.767 11.368 37.5l12.494 7.493-7.501 7.507c1.102 3.255 2.117 6.233 3.026 8.919 2.747 8.121 10.368 13.581 18.942 13.581h107.296c8.578 0 16.196-5.463 18.945-13.589.156-.46.316-.934.478-1.411h-115.747c-3.262 0-6.156-2.104-7.143-5.212z" fill="#d1cfe8"/><path d="m383.915 429.5c-5.114-5.025-17.529-15-35.51-15s-30.396 9.975-35.51 15h-20.105l-7.287 8.049 12.343 6.951h18.297c2.241 0 4.394-1.037 5.818-2.768.101-.122 10.261-12.232 26.444-12.232s26.344 12.11 26.418 12.2c1.424 1.771 3.573 2.8 5.845 2.8h43.353c1.519-4.487 3.198-9.497 4.992-15z" fill="#a9a4d3"/><path d="m292.79 429.5h-24.992c1.792 5.498 3.474 10.516 4.991 15h25.057c-1.313-4.009-3.041-9.046-5.056-15z" fill="#7f78bd"/><path d="m392.829 217.576c0 24.535-19.889 44.424-44.424 44.424s-44.424-19.889-44.424-44.424c0-22.833 14.796-50.289 38.884-81.397 2.802-3.619 8.279-3.619 11.081 0 24.087 31.107 38.883 58.564 38.883 81.397z" fill="#94d8e6"/><path d="m266.18 283.158c0-69.828-13.13-132.494-25.95-178.5l-175.318-10c-10.901 43.461-24.585 108.322-24.585 168.5 0 122.224 34.896 195.849 40.191 223.5l151.714-10c.036-.025.069-.049.105-.074 12.044-34.179 33.843-94.677 33.843-193.426z" fill="#d273b3"/><path d="m88.929 470.557c-9.566-30.411-38.603-93.429-38.603-207.399 0-60.178 9.751-115.039 20.652-158.5l-6.067-10-8.635 10c-12.821 46.006-25.95 108.672-25.95 178.5 0 98.748 21.798 159.246 33.843 193.425 4.236 12.019 15.567 20.075 28.311 20.075h111.545c12.717 0 24.025-8.023 28.281-20h-135.044c-3.813 0-7.189-2.464-8.333-6.101z" fill="#ca59a6"/><path d="m235.9 89.658c-2.448-8.196-4.827-15.719-7.037-22.5l-10.96-6.893 5.967-8.107c-1.1-3.252-2.115-6.227-3.023-8.911-2.749-8.126-10.367-13.589-18.945-13.589-23.265 0-107.296 0-107.296 0-.381 0-.758.024-1.136.045 0 0-21.756 44.882-28.571 69.955z" fill="#f3f1f4"/><path d="m235.9 89.658h-156.087c-2.479 0-4.271-2.371-3.606-4.759 6.376-22.908 12.679-41.692 17.262-55.196-8.108.459-15.182 5.78-17.809 13.544-.908 2.684-1.922 5.659-3.023 8.911l7.875 6.383-12.868 8.616c-3.498 10.733-7.419 23.327-11.368 37.501h183.954c-1.454-5.218-2.904-10.226-4.33-15z" fill="#d1cfe8"/><path d="m180.516 52.158c-2.241 0-4.394 1.037-5.818 2.768-.101.122-10.261 12.232-26.444 12.232s-26.344-12.11-26.418-12.199c-1.424-1.771-3.573-2.801-5.845-2.801h-29.962l-12.211 7.102 7.541 7.898h31.384c5.113 5.025 17.528 15 35.51 15s30.396-9.975 35.51-15h45.099c-1.792-5.499-3.475-10.516-4.993-15z" fill="#a9a4d3"/><path d="m86.029 52.158h-13.392c-1.517 4.484-3.199 9.502-4.991 15h13.713c1.601-5.302 3.166-10.307 4.67-15z" fill="#7f78bd"/><path d="m190.412 245.884c-25.315 9.23-42.159 33.301-42.159 60.245 0-26.945-16.844-51.015-42.159-60.245l-24.201-8.824c-4.052-1.477-8.34 1.523-8.34 5.836v25.759c0 26.945 16.844 51.015 42.159 60.245l30.412 11.089c1.374.501 2.881.501 4.256 0l30.413-11.089c25.315-9.23 42.159-33.3 42.159-60.245v-25.759c0-4.313-4.288-7.313-8.34-5.836z" fill="#94d8e6"/></g></svg>