<svg id="Capa_1" enable-background="new 0 0 512 512" height="512" viewBox="0 0 512 512" width="512" xmlns="http://www.w3.org/2000/svg"><g><path d="m344.272 512h-134.225c-9.277 0-17.598-5.741-20.848-14.43-19.938-53.304-42.623-134.088-43.704-234.116-.476-44.044 3.315-84.553 9.377-120.828 8.722-52.188 22.144-80.158 34.324-112.731 3.251-8.695 11.57-14.442 20.853-14.442h118.771c12.301 0 22.273-5.481 22.273 6.82l15.453 59.419v408.035c-.001 12.301-9.973 22.273-22.274 22.273z" fill="#aee69c"/><path d="m344.272 0h-30.905c12.301 0 22.273 9.972 22.273 22.273v467.454c0 12.301-9.972 22.273-22.273 22.273h30.905c12.301 0 22.273-9.972 22.273-22.273v-467.454c.001-12.301-9.972-22.273-22.273-22.273z" fill="#89daa4"/><path d="m344.272 0h-134.223c-9.283 0-17.602 5.747-20.853 14.442-12.179 32.571-25.597 75.999-34.318 128.184 27.364-13.631 61.318-27.975 101.355-39.627 41.504-12.079 79.1-18.225 110.313-21.308v-59.418c0-12.301-9.973-22.273-22.274-22.273z" fill="#dbf1d0"/><path d="m344.272 0h-30.905c12.301 0 22.273 9.972 22.273 22.273v63.272c10.869-1.638 21.197-2.894 30.905-3.853v-59.419c.001-12.301-9.972-22.273-22.273-22.273z" fill="#c1e9af"/><g><path d="m222.807 316.443c3.916-2.793 15.983-10.637 33.141-10.283 15.19.314 25.926 6.878 30.037 9.703l35.587-55.958-42.108-40.97-72.835 10.242 2.845 76.971z" fill="#f4d7c8"/><path d="m222.715 316.675c1.386 2.904-.953 6.176-4.155 5.855-9.366-.937-20.298-4.283-28.14-13.749-20.508-24.754-9.031-78.249 16.292-105.599 21.92-23.675 50.272-23.502 53.817-23.419 5.482.129 17.502.551 29.288 7.664 40.072 24.186 57.559 99.395 28.556 125.399-4.299 3.854-12.707 9.379-28.686 9.991-2.776.106-4.881-2.47-4.173-5.156 2.351-8.923 5.127-19.771 8.121-32.147 5.905-24.409 6.674-30.032 3.321-33.684-6.666-7.26-20.642 3.013-40.465-1.201-11.851-2.519-21.092-9.218-27.945-16.068-2.018-2.017-5.453-1.373-6.626 1.229-4.27 9.468-9.574 25.3-8.434 45.1.878 15.27 5.279 27.513 9.229 35.785z" fill="#e19974"/><g><path d="m289.816 187.428c-11.786-7.114-23.806-7.536-29.288-7.664-1.535-.036-7.729-.085-16.034 1.79 4.518 1.102 9.485 2.897 14.417 5.874 40.072 24.186 57.559 99.395 28.556 125.399-.278.249-.575.506-.888.767-.363 1.392-.72 2.757-1.065 4.068-.708 2.686 1.397 5.262 4.173 5.156 15.979-.612 24.387-6.137 28.686-9.991 29.002-26.005 11.515-101.214-28.557-125.399z" fill="#dc8758"/></g></g><g><g><path d="m334.095 390.954h-139.075c-4.267 0-7.726-3.459-7.726-7.726s3.459-7.726 7.726-7.726h139.074c4.268 0 7.726 3.459 7.726 7.726.001 4.266-3.458 7.726-7.725 7.726z" fill="#dbf1d0"/></g><g><path d="m334.095 421.859h-139.075c-4.267 0-7.726-3.459-7.726-7.726s3.459-7.726 7.726-7.726h139.074c4.268 0 7.726 3.459 7.726 7.726.001 4.267-3.458 7.726-7.725 7.726z" fill="#dbf1d0"/></g><g><path d="m303.189 452.765h-77.264c-4.267 0-7.726-3.459-7.726-7.726s3.459-7.726 7.726-7.726h77.264c4.268 0 7.726 3.459 7.726 7.726 0 4.266-3.458 7.726-7.726 7.726z" fill="#dbf1d0"/></g></g></g></svg>