<svg id="Capa_1" enable-background="new 0 0 512 512" height="512" viewBox="0 0 512 512" width="512" xmlns="http://www.w3.org/2000/svg"><g><path d="m355.282 175.628h-73.992l-4.872 3.65v45.585l4.872 2.1h73.992c4.181 0 7.571-3.39 7.571-7.571v-36.194c.001-4.181-3.389-7.57-7.571-7.57z" fill="#efecef"/><path d="m355.282 201.296h-73.992l-4.872-2.1v25.668l4.872 2.1h73.992c4.181 0 7.571-3.39 7.571-7.571v-25.668c.001 4.181-3.389 7.571-7.571 7.571z" fill="#e2dfe2"/><path d="m329.946 0c-50.072 0-90.808 40.736-90.808 90.809v58.654l2.255 3.03h27.815l3.169-3.03v-58.654c0-31.744 25.826-57.57 57.569-57.57 29.675 0 54.173 22.572 57.241 51.447l-.454.258 2.362 2.133h30.261l1.189-2.133c-3.035-47.347-42.498-84.944-90.599-84.944z" fill="#e2dfe2"/><g fill="#c3bec6"><path d="m255.623 90.809c0-47.28 36.321-86.229 82.524-90.427-2.703-.243-5.435-.382-8.201-.382-50.072 0-90.808 40.736-90.808 90.809v58.654l2.255 3.03h16.485l-2.255-3.03z"/><path d="m403.672 84.686c-3.068-28.875-27.566-51.447-57.241-51.447-2.788 0-5.527.21-8.21.595 25.846 3.737 46.188 24.71 48.965 50.852l-.454.258 2.362 2.133h16.485l-2.362-2.133z"/></g><path d="m422.926 84.944h-36.194c-4.181 0-7.571 3.39-7.571 7.571v21.051c0 4.181 3.39 7.571 7.571 7.571h36.194c4.181 0 7.571-3.39 7.571-7.571v-21.051c0-4.181-3.39-7.571-7.571-7.571z" fill="#efecef"/><path d="m404.829 113.567v-21.052c0-4.181 3.39-7.571 7.571-7.571h-25.668c-4.182 0-7.571 3.39-7.571 7.571v21.051c0 4.181 3.39 7.571 7.571 7.571h25.668c-4.181.001-7.571-3.389-7.571-7.57z" fill="#e2dfe2"/><g><path d="m333.365 234.69c-4.267 0-7.726-3.459-7.726-7.726v-77.501c0-4.268 3.459-7.726 7.726-7.726s7.726 3.459 7.726 7.726v77.501c.001 4.267-3.458 7.726-7.726 7.726z" fill="#e2dfe2"/></g><path d="m273.72 149.463h-36.194c-4.181 0-7.571 3.39-7.571 7.571v96.093l1.651 3.242h47.388l2.296-3.242v-96.093c.001-4.181-3.389-7.571-7.57-7.571z" fill="#9790cc"/><path d="m255.623 157.035c0-4.181 3.39-7.571 7.571-7.571h-25.668c-4.181 0-7.571 3.39-7.571 7.571v96.093l1.651 3.242h25.668l-1.651-3.242z" fill="#8479c2"/><path d="m298.74 417.249h-84.99l-3.963 2.73v83.287c0 4.823 3.91 8.734 8.734 8.734h74.958c4.823 0 8.734-3.91 8.734-8.734v-83.287z" fill="#e2dfe2"/><path d="m256 503.266v-83.287l3.963-2.73h-46.213l-3.963 2.73v83.287c0 4.823 3.91 8.734 8.734 8.734h46.213c-4.824 0-8.734-3.91-8.734-8.734z" fill="#c3bec6"/><path d="m451.549 278.69h-387.346l-11.291 7.677v75.01c0 32.232 26.371 58.603 58.603 58.603h288.972c32.232 0 58.603-26.371 58.603-58.603v-75.01z" fill="#efecef"/><path d="m99.124 361.376v-75.01l11.291-7.677h-46.212l-11.291 7.677v75.01c0 32.232 26.371 58.603 58.603 58.603h46.213c-32.233 0-58.604-26.371-58.604-58.603z" fill="#e2dfe2"/><path d="m467.252 253.128h-422.505c-7.598 0-13.757 6.159-13.757 13.757v5.724c0 7.598 6.159 13.757 13.757 13.757h422.505c7.598 0 13.757-6.159 13.757-13.757v-5.724c.001-7.598-6.159-13.757-13.757-13.757z" fill="#ffe181"/><path d="m77.203 272.61v-5.724c0-7.598 6.159-13.757 13.757-13.757h-46.213c-7.598 0-13.757 6.159-13.757 13.757v5.724c0 7.598 6.159 13.757 13.757 13.757h46.213c-7.598 0-13.757-6.159-13.757-13.757z" fill="#fec458"/></g></svg>