<?xml version="1.0" encoding="iso-8859-1"?>
<!-- Generator: Adobe Illustrator 19.0.0, SVG Export Plug-In . SVG Version: 6.00 Build 0)  -->
<svg version="1.1" id="Capa_1" xmlns="http://www.w3.org/2000/svg" xmlns:xlink="http://www.w3.org/1999/xlink" x="0px" y="0px"
	 viewBox="0 0 512 512" style="enable-background:new 0 0 512 512;" xml:space="preserve">
<path style="fill:#202833;" d="M235.396,370.865L256,512c17.069,0,30.905-13.836,30.905-30.905V370.865H235.396z"/>
<path style="fill:#414851;" d="M225.095,370.865v110.229C225.095,498.164,238.931,512,256,512V370.865H225.095z"/>
<polygon style="fill:#FFFEBA;" points="209.642,324.507 209.642,401.771 240.547,401.771 261.151,324.507 "/>
<polygon style="fill:#B2D95F;" points="250.849,324.507 271.453,401.771 302.358,401.771 302.358,324.507 "/>
<rect x="240.547" y="324.507" style="fill:#DBEB63;" width="30.905" height="77.264"/>
<path style="fill:#62676F;" d="M357.473,195.734v159.678h30.905c50.994,0,92.716-41.722,92.716-92.716v-66.962H357.473z"/>
<g>
	<path style="fill:#83878C;" d="M450.189,262.696v-66.962H30.905v66.962c0,50.994,41.722,92.716,92.716,92.716h233.851
		C408.467,355.412,450.189,313.69,450.189,262.696z"/>
	<polygon style="fill:#83878C;" points="168.435,139.074 168.435,216.338 209.642,216.338 209.642,146.801 	"/>
	<polygon style="fill:#83878C;" points="302.358,146.801 302.358,216.338 343.565,216.338 343.565,139.074 	"/>
	<path style="fill:#83878C;" d="M302.358,0c-34.137,0-61.811,27.674-61.811,61.811v154.527h30.905V61.811
		c0-17.069,13.836-30.905,30.905-30.905c17.069,0,30.905,13.836,30.905,30.905l15.453,20.604l15.453-20.604
		C364.169,27.674,336.495,0,302.358,0z"/>
</g>
<rect x="333.264" y="61.811" style="fill:#414851;" width="30.905" height="30.905"/>
<path style="fill:#83878C;" d="M481.095,185.433h-30.905l30.905,30.905H512C512,199.27,498.163,185.433,481.095,185.433z"/>
<path style="fill:#A4A6AA;" d="M450.189,185.433H30.905C13.837,185.433,0,199.27,0,216.338h481.095
	C481.095,199.27,467.257,185.433,450.189,185.433z"/>
<g>
	<path style="fill:#62676F;" d="M132.378,131.348c-4.267,0-7.726,3.458-7.726,7.726c0,4.268,3.459,7.726,7.726,7.726h77.264v-15.453
		H132.378z"/>
	<path style="fill:#62676F;" d="M379.622,131.348h-77.264v15.453h77.264c4.267,0,7.726-3.458,7.726-7.726
		C387.348,134.806,383.889,131.348,379.622,131.348z"/>
</g>
<g>
</g>
<g>
</g>
<g>
</g>
<g>
</g>
<g>
</g>
<g>
</g>
<g>
</g>
<g>
</g>
<g>
</g>
<g>
</g>
<g>
</g>
<g>
</g>
<g>
</g>
<g>
</g>
<g>
</g>
</svg>
