<?xml version="1.0" encoding="iso-8859-1"?>
<!-- Generator: Adobe Illustrator 19.0.0, SVG Export Plug-In . SVG Version: 6.00 Build 0)  -->
<svg version="1.1" id="Capa_1" xmlns="http://www.w3.org/2000/svg" xmlns:xlink="http://www.w3.org/1999/xlink" x="0px" y="0px"
	 viewBox="0 0 512 512" style="enable-background:new 0 0 512 512;" xml:space="preserve">
<path style="fill:#EDEBED;" d="M24.774,49.548C11.092,49.548,0,60.64,0,74.323v297.29c0,50.169,114.615,90.839,256,90.839
	s256-40.67,256-90.839V74.323c0-13.682-11.092-24.774-24.774-24.774L24.774,49.548L24.774,49.548z"/>
<path style="fill:#DBD9DC;" d="M454.194,148.645H57.806c-13.682,0-24.774,11.092-24.774,24.774v189.614
	c0,7.528,3.389,14.597,9.243,19.33c7.958,6.434,22.068,14.88,46.038,23.151C132.984,420.93,192.536,429.419,256,429.419
	s123.016-8.489,167.687-23.905c23.972-8.272,38.082-16.719,46.04-23.154c5.853-4.734,9.241-11.801,9.241-19.329V173.419
	C478.968,159.737,467.876,148.645,454.194,148.645z"/>
<path style="fill:#C9C6CA;" d="M478.968,173.419c0-13.682-11.092-24.774-24.774-24.774H57.806
	c-13.682,0-24.774,11.092-24.774,24.774h305.549c63.851,0,115.613,51.761,115.613,115.613v103.431
	c6.731-3.641,11.834-7.111,15.533-10.103c5.853-4.733,9.241-11.801,9.241-19.329V173.419z"/>
<circle style="fill:#AEA8AF;" cx="256" cy="272.52" r="41.29"/>
<circle style="fill:#6F6571;" cx="256" cy="272.52" r="24.774"/>
<path style="fill:#C9C6CA;" d="M239.484,123.871v123.871c0,9.121,7.395,16.516,16.516,16.516s16.516-7.395,16.516-16.516V123.871
	H239.484z"/>
<g>
	<path style="fill:#DBD9DC;" d="M355.097,107.355h-59.39c-4.504,0-8.364-2.759-10.412-6.77
		c-6.537-12.801-21.096-20.791-37.133-17.101c-11.883,2.735-21.538,12.371-24.283,24.252c-5.005,21.664,11.31,40.909,32.122,40.909
		c12.812,0,23.84-7.328,29.293-18.001c2.05-4.013,5.912-6.773,10.419-6.773h59.385c4.565,0,8.258-3.698,8.258-8.258
		C363.355,111.052,359.661,107.355,355.097,107.355z"/>
	<path style="fill:#DBD9DC;" d="M272.516,454.194c-141.385,0-256-40.67-256-90.839v-312.4C6.916,54.367,0,63.551,0,74.323v297.29
		c0,50.169,114.615,90.839,256,90.839c91.371,0,171.527-16.977,216.827-42.534C425.925,440.81,353.644,454.194,272.516,454.194z"/>
</g>
<g>
</g>
<g>
</g>
<g>
</g>
<g>
</g>
<g>
</g>
<g>
</g>
<g>
</g>
<g>
</g>
<g>
</g>
<g>
</g>
<g>
</g>
<g>
</g>
<g>
</g>
<g>
</g>
<g>
</g>
</svg>
