<svg height="512pt" viewBox="0 -8 512 511" width="512pt" xmlns="http://www.w3.org/2000/svg"><path d="m488.695312 396.980469c-4.003906 23.847656-23.425781 42.136719-47.460937 44.71875-115.410156 12.429687-230.828125 12.886719-346.238281 1.355469-4.382813-.433594-8.757813-.878907-13.140625-1.355469-24.046875-2.582031-43.46875-20.871094-47.46875-44.71875-14.539063-86.5-14.539063-173.011719 0-259.523438 4-23.847656 23.421875-42.121093 47.46875-44.714843 4.375-.46875 8.746093-.921876 13.121093-1.355469 115.417969-11.523438 230.839844-11.078125 346.257813 1.355469 24.035156 2.59375 43.457031 20.867187 47.460937 44.714843 14.535157 86.511719 14.535157 173.023438 0 259.523438zm0 0" fill="#8e66b5"/><path d="m488.695312 396.980469c-4.003906 23.847656-23.425781 42.136719-47.460937 44.71875-115.410156 12.429687-230.828125 12.886719-346.238281 1.355469-16.191406-7.667969-28.132813-22.871094-31.226563-41.277344-15.078125-89.707032-15.078125-179.40625 0-269.117188 3.09375-18.390625 15.027344-33.597656 31.207031-41.273437 115.417969-11.523438 230.839844-11.078125 346.257813 1.355469 24.035156 2.59375 43.457031 20.867187 47.460937 44.714843 14.535157 86.511719 14.535157 173.023438 0 259.523438zm0 0" fill="#bda4e0"/><path d="m105.769531 324.730469c-7.570312-38.339844-7.570312-76.679688 0-115.015625 3.332031-16.890625 17.632813-29.445313 34.792969-30.8125 80.652344-6.433594 161.304688-6.433594 241.960938 0 17.160156 1.367187 31.457031 13.921875 34.792968 30.8125 7.566406 38.335937 7.566406 76.675781 0 115.015625-3.335937 16.886719-17.632812 29.445312-34.792968 30.8125-80.65625 6.429687-161.308594 6.429687-241.960938 0-17.160156-1.371094-31.460938-13.925781-34.792969-30.8125zm0 0" fill="#8e66b5"/><path d="m261.542969 339.1875c-39.582031 0-79.71875-1.601562-119.296875-4.757812-7.761719-.617188-14.21875-6.292969-15.703125-13.800782-6.992188-35.441406-6.992188-71.375 0-106.816406 1.484375-7.507812 7.941406-13.183594 15.703125-13.800781 39.578125-3.15625 79.714844-4.757813 119.296875-4.757813 39.578125 0 79.714843 1.601563 119.292969 4.757813 7.761718.617187 14.21875 6.292969 15.703124 13.800781 6.992188 35.441406 6.992188 71.375 0 106.816406-1.484374 7.507813-7.941406 13.183594-15.703124 13.800782-39.578126 3.15625-79.714844 4.757812-119.292969 4.757812zm0 0" fill="#bda4e0"/><path d="m512 108.878906c0 25.71875-20.859375 46.570313-46.582031 46.570313-18.347657 0-34.222657-10.621094-41.804688-26.050781-5.621093 3.390624-12.207031 5.347656-19.25 5.347656-20.574219 0-37.261719-16.675782-37.261719-37.25 0-20.585938 16.6875-37.265625 37.261719-37.265625 2.59375 0 5.125.265625 7.5625.773437-3.484375-5.960937-5.496093-12.886718-5.496093-20.285156 0-22.21875 18.011718-40.21875 40.214843-40.21875 22.214844 0 40.21875 18 40.21875 40.21875 0 8.839844-2.859375 17.015625-7.699219 23.644531 7.335938 2.265625 13.890626 6.289063 19.175782 11.582031h.011718c8.4375 8.429688 13.648438 20.078126 13.648438 32.933594zm0 0" fill="#cdcfe0"/><path d="m467.804688 6.515625c-2.804688-.625-5.738282-.953125-8.734376-.953125-22.214843 0-40.21875 18-40.21875 40.214844 0 7.402344 2.003907 14.328125 5.496094 20.289062-2.445312-.507812-4.976562-.773437-7.570312-.773437-20.574219 0-37.25 16.679687-37.25 37.253906 0 13.214844 6.871094 24.820313 17.246094 31.425781-16.941407-3.503906-29.667969-18.496094-29.667969-36.476562 0-20.585938 16.675781-37.265625 37.25-37.265625 2.597656 0 5.125.265625 7.574219.773437-3.484376-5.960937-5.496094-12.886718-5.496094-20.285156 0-22.21875 18-40.21875 40.214844-40.21875 7.761718 0 15.015624 2.203125 21.15625 6.015625zm0 0" fill="#abaec4"/><path d="m328.8125 74.210938c0 12.886718-8.894531 23.695312-20.871094 26.621093-2.097656.527344-4.300781.804688-6.554687.804688-15.144531 0-27.425781-12.285157-27.425781-27.425781 0-15.152344 12.28125-27.425782 27.425781-27.425782 2.253906 0 4.457031.273438 6.554687.804688 11.976563 2.921875 20.871094 13.734375 20.871094 26.621094zm0 0" fill="#abaec4"/><path d="m328.8125 74.210938c0 12.886718-8.894531 23.695312-20.871094 26.621093-11.976562-2.925781-20.871094-13.734375-20.871094-26.621093 0-12.886719 8.894532-23.699219 20.871094-26.621094 11.976563 2.921875 20.871094 13.734375 20.871094 26.621094zm0 0" fill="#cdcfe0"/><path d="m131.539062 76.675781c0 17.96875-14.570312 32.539063-32.539062 32.539063-4.585938 0-8.949219-.949219-12.910156-2.65625-5.824219 17.578125-22.382813 30.261718-41.921875 30.261718-24.394531 0-44.16406275-19.777343-44.16406275-44.175781 0-24.386719 19.76953175-44.164062 44.16406275-44.164062 10.578125 0 20.289062 3.726562 27.894531 9.929687 5.855469-8.617187 15.734375-14.273437 26.9375-14.273437 6.796875 0 13.109375 2.085937 18.328125 5.65625h.011719c8.578125 5.863281 14.199218 15.710937 14.199218 26.882812zm0 0" fill="#cdcfe0"/><path d="m117.328125 49.792969c-42.078125-2.152344-46.21875 38.957031-46.21875 38.957031s-7.816406-17.019531.953125-30.339844c5.855469-8.617187 15.734375-14.273437 26.9375-14.273437 6.796875 0 13.109375 2.085937 18.328125 5.65625zm0 0" fill="#abaec4"/><path d="m19.3125 92.648438c0 21.074218 14.761719 38.703124 34.5 43.109374-3.101562.699219-6.332031 1.070313-9.644531 1.070313-24.398438 0-44.167969-19.78125-44.167969-44.179687 0-24.386719 19.769531-44.164063 44.167969-44.164063 3.324219 0 6.5625.367187 9.675781 1.058594-19.757812 4.394531-34.53125 22.035156-34.53125 43.105469zm0 0" fill="#abaec4"/><path d="m125.964844 422.460938c-3.222656 0-6.34375.425781-9.320313 1.214843 0-.058593.003907-.121093.003907-.179687 0-23.433594-18.996094-42.433594-42.429688-42.433594s-42.433594 19-42.433594 42.433594 19 42.429687 42.433594 42.429687c5.574219 0 10.894531-1.085937 15.773438-3.039062 2.085937 18.023437 17.390624 32.019531 35.972656 32.019531 20.007812 0 36.222656-16.21875 36.222656-36.222656s-16.21875-36.222656-36.222656-36.222656zm0 0" fill="#cdcfe0"/><path d="m83.195312 464.972656c-2.890624.625-5.886718.953125-8.96875.953125-23.433593 0-42.441406-18.996093-42.441406-42.429687s19.007813-42.429688 42.441406-42.429688c3.082032 0 6.078126.328125 8.96875.953125-19.125 4.117188-33.460937 21.125-33.460937 41.476563 0 20.351562 14.335937 37.355468 33.460937 41.476562zm0 0" fill="#abaec4"/><path d="m134.953125 493.785156c-2.867187.730469-5.875 1.121094-8.980469 1.121094-17.535156 0-32.15625-12.460938-35.503906-29.011719.5625.019531 1.125.03125 1.695312.03125 5.570313 0 10.894532-1.082031 15.765626-3.039062 1.738281 15.027343 12.664062 27.246093 27.023437 30.898437zm0 0" fill="#abaec4"/><g fill="#8e66b5"><path d="m182.789062 258.570312c-6.136718-2.605468-11.4375-4.855468-11.4375-9.75 0-4.726562 4-7.4375 10.976563-7.4375 5.105469 0 7.945313 1.457032 10.019531 2.523438 1.320313.675781 2.359375 1.210938 3.546875 1.210938 2.027344 0 3.292969-1.417969 3.996094-2.605469.921875-1.558594 1.246094-3.292969 1.246094-4.308594 0-2.894531-2.441407-5.082031-7.257813-6.492187-4.765625-1.394532-10.046875-1.503907-11.550781-1.503907-11.609375 0-24.019531 5.199219-24.019531 19.792969 0 13.0625 9.851562 17.433594 18.539062 21.292969 6.984375 3.101562 13.015625 5.78125 13.015625 12.226562 0 4.074219-2.855469 8.421875-10.875 8.421875-6.089843 0-9.390625-2.773437-12.046875-5.003906-1.707031-1.433594-3.054687-2.566406-4.664062-2.566406-3.167969 0-5.738282 4.246094-5.738282 7.015625 0 5.816406 9.769532 12.320312 22.839844 12.320312 6.914063 0 12.75-1.875 16.875-5.425781 4.351563-3.75 6.65625-9.296875 6.65625-16.039062-.003906-15.136719-11.15625-19.867188-20.121094-23.671876zm0 0"/><path d="m250.242188 235.828125c-3.953126-3.402344-9.507813-5.128906-16.5-5.128906-6.988282 0-12.523438 1.722656-16.457032 5.128906-4.433594 3.839844-6.679687 9.730469-6.679687 17.511719v27.425781c0 7.78125 2.246093 13.675781 6.679687 17.511719 3.933594 3.40625 9.46875 5.132812 16.457032 5.132812 6.992187 0 12.546874-1.726562 16.5-5.132812 4.46875-3.84375 6.730468-9.734375 6.730468-17.511719v-27.425781c.003906-7.773438-2.261718-13.664063-6.730468-17.511719zm-26.59375 17.511719c0-7.414063 3.394531-11.171875 10.09375-11.171875 6.664062 0 10.1875 3.863281 10.1875 11.171875v27.425781c0 7.308594-3.523438 11.175781-10.1875 11.175781-6.699219 0-10.09375-3.761718-10.09375-11.175781zm0 0"/><path d="m298.453125 234.527344c-.804687-2.683594-4.097656-4.417969-8.386719-4.417969-3.207031 0-7.304687 1.15625-8.28125 4.417969l-18.976562 61.839844c-.101563.410156-.199219.800781-.199219 1.011718 0 3.324219 4.851563 5.441406 8.191406 5.441406 2.492188 0 3.992188-.890624 4.453125-2.652343l3.707032-12.976563h22.3125l3.707031 12.976563c.464843 1.761719 1.960937 2.652343 4.453125 2.652343 3.710937 0 8.191406-2.425781 8.191406-5.4375 0-.253906-.066406-.5-.140625-.785156zm-.007813 42.371094h-16.753906l8.375-29.558594zm0 0"/><path d="m348.851562 230.699219h-19.757812c-3.214844 0-4.949219 2.09375-4.949219 4.0625v63.898437c0 2.003906 2.042969 4.160156 6.523438 4.160156 3.242187 0 6.519531-1.429687 6.519531-4.160156v-22.675781h10.878906c14.980469 0 23.234375-7.96875 23.234375-22.445313v-.589843c0-14.347657-7.972656-22.25-22.449219-22.25zm-.785156 34.992187h-10.875v-23.523437h10.875c6.667969 0 10.191406 3.863281 10.191406 11.171875v1.179687c0 7.308594-3.523437 11.171875-10.191406 11.171875zm0 0"/></g><path d="m498.339844 75.945312c-39.15625-13.257812-60.863282 17.058594-60.863282 17.058594 2.074219-26.21875 29.328126-31.394531 41.6875-28.640625 7.335938 2.265625 13.890626 6.289063 19.175782 11.582031zm0 0" fill="#abaec4"/></svg>