<?xml version="1.0" encoding="iso-8859-1"?>
<!-- Generator: Adobe Illustrator 19.0.0, SVG Export Plug-In . SVG Version: 6.00 Build 0)  -->
<svg version="1.1" id="Capa_1" xmlns="http://www.w3.org/2000/svg" xmlns:xlink="http://www.w3.org/1999/xlink" x="0px" y="0px"
	 viewBox="0 0 512 512" style="enable-background:new 0 0 512 512;" xml:space="preserve">
<path style="fill:#6E7093;" d="M112.425,155.632c-4.142,0-7.5-3.357-7.5-7.5V86.533c0-4.143,3.358-7.5,7.5-7.5s7.5,3.357,7.5,7.5
	v61.599C119.925,152.274,116.567,155.632,112.425,155.632z"/>
<path style="fill:#8CBAFA;" d="M142.587,62.013h-18.365c-10.641,0-19.297,8.657-19.297,19.298v18.956
	c0,10.641,8.657,19.298,19.297,19.298h18.365c4.142,0,7.5-3.357,7.5-7.5V69.513C150.087,65.37,146.729,62.013,142.587,62.013z"/>
<path style="fill:#E9E9EA;" d="M369.413,28.781H142.587c-4.142,0-7.5,3.357-7.5,7.5v170.661c0,4.143,3.358,7.5,7.5,7.5h226.825
	c4.142,0,7.5-3.357,7.5-7.5V36.281C376.913,32.139,373.555,28.781,369.413,28.781z"/>
<path style="fill:#C9C8CD;" d="M369.413,28.781h-27.5c4.142,0,7.5,3.357,7.5,7.5v170.661c0,4.143-3.358,7.5-7.5,7.5h27.5
	c4.142,0,7.5-3.357,7.5-7.5V36.281C376.913,32.139,373.555,28.781,369.413,28.781z"/>
<path style="fill:#8CBAFA;" d="M353.527,0H158.473c-20.006,0-36.282,16.275-36.282,36.281c0,4.143,3.358,7.5,7.5,7.5h252.617
	c4.142,0,7.5-3.357,7.5-7.5C389.809,16.275,373.533,0,353.527,0z"/>
<path style="fill:#5692D8;" d="M353.527,0h-32.57c20.006,0,36.282,16.275,36.282,36.281c0,4.143-3.358,7.5-7.5,7.5h32.57
	c4.142,0,7.5-3.357,7.5-7.5C389.809,16.275,373.533,0,353.527,0z"/>
<path style="fill:#E9E9EA;" d="M329.793,503l-15.391-75.416c-1.081-5.297-1.053-10.662,0.082-15.947l4.2-19.56
	c0.87-4.05-1.709-8.037-5.758-8.907c-4.052-0.871-8.038,1.709-8.908,5.759l-1.04,4.844c-14.69,5.216-30.499,8.069-46.978,8.069
	s-32.289-2.853-46.979-8.069l-1.04-4.844c-0.87-4.049-4.856-6.622-8.908-5.758c-4.05,0.87-6.628,4.858-5.758,8.908l4.201,19.56
	c1.135,5.285,1.162,10.65,0.082,15.946L182.206,503c-0.45,2.207,0.115,4.499,1.539,6.243c1.425,1.745,3.558,2.757,5.81,2.757h132.89
	c2.252,0,4.385-1.012,5.81-2.757C329.679,507.499,330.244,505.207,329.793,503z"/>
<g>
	<path style="fill:#C9C8CD;" d="M194.627,398.188c10.24,2.382,20.907,3.652,31.873,3.652c4.982,0,9.902-0.265,14.75-0.773
		c-11.186-1.172-21.98-3.657-32.229-7.296l-1.04-4.844c-0.87-4.049-4.856-6.622-8.908-5.758c-4.05,0.87-6.628,4.858-5.758,8.908
		L194.627,398.188z"/>
	<path style="fill:#C9C8CD;" d="M329.793,503l-15.391-75.416c-1.081-5.297-1.053-10.662,0.082-15.947l4.2-19.56
		c0.87-4.05-1.709-8.037-5.758-8.907c-4.052-0.871-8.038,1.709-8.908,5.759l-1.04,4.844c-4.915,1.745-9.958,3.219-15.106,4.417
		l-2.888,13.448c-1.135,5.285-1.162,10.65-0.082,15.947L300.293,503c0.45,2.207-0.115,4.499-1.539,6.243
		c-1.425,1.745-3.558,2.757-5.81,2.757h29.5c2.252,0,4.385-1.012,5.81-2.757C329.679,507.499,330.244,505.207,329.793,503z"/>
	<path style="fill:#C9C8CD;" d="M312.926,383.169c-4.052-0.871-8.038,1.709-8.908,5.759l-1.04,4.844
		c-14.69,5.216-30.499,8.069-46.978,8.069s-32.289-2.853-46.979-8.069l-1.04-4.844c-0.87-4.049-4.856-6.622-8.908-5.758
		c-4.05,0.87-6.628,4.858-5.758,8.908l4.115,19.162c17.971,7.779,37.774,12.102,58.57,12.102s40.599-4.322,58.57-12.102
		l4.115-19.163C319.554,388.026,316.976,384.039,312.926,383.169z"/>
</g>
<path style="fill:#E9E9EA;" d="M396.422,253.919H115.578c-4.142,0-7.5,3.357-7.5,7.5c0,81.564,66.357,147.922,147.922,147.922
	s147.922-66.357,147.922-147.922C403.922,257.276,400.564,253.919,396.422,253.919z"/>
<path style="fill:#C9C8CD;" d="M396.422,253.919h-35.986c3.625,0,6.564,3.357,6.564,7.5c0,78.256-53.462,142.502-120.845,147.586
	c3.255,0.215,6.536,0.335,9.845,0.335c81.564,0,147.922-66.357,147.922-147.922C403.922,257.276,400.564,253.919,396.422,253.919z"
	/>
<path style="fill:#8CBAFA;" d="M386.899,199.442H125.101c-24.121,0-43.745,19.624-43.745,43.745v18.231c0,4.143,3.358,7.5,7.5,7.5
	h334.288c4.142,0,7.5-3.357,7.5-7.5v-18.231C430.644,219.066,411.02,199.442,386.899,199.442z"/>
<path style="fill:#5692D8;" d="M386.899,199.442h-29.333c24.121,0,43.745,19.624,43.745,43.745v18.231c0,4.143-3.358,7.5-7.5,7.5
	h29.333c4.142,0,7.5-3.357,7.5-7.5v-18.231C430.644,219.066,411.02,199.442,386.899,199.442z"/>
<g>
</g>
<g>
</g>
<g>
</g>
<g>
</g>
<g>
</g>
<g>
</g>
<g>
</g>
<g>
</g>
<g>
</g>
<g>
</g>
<g>
</g>
<g>
</g>
<g>
</g>
<g>
</g>
<g>
</g>
</svg>
