<?xml version="1.0" encoding="iso-8859-1"?>
<!-- Generator: Adobe Illustrator 21.0.0, SVG Export Plug-In . SVG Version: 6.00 Build 0)  -->
<svg xmlns="http://www.w3.org/2000/svg" xmlns:xlink="http://www.w3.org/1999/xlink" version="1.1" id="Capa_1" x="0px" y="0px" viewBox="0 0 512 512" style="enable-background:new 0 0 512 512;" xml:space="preserve" width="512" height="512">
<g>
	<path style="fill:#E0E0E0;" d="M445.342,252.959c-14.692,0-26.602-11.91-26.602-26.602v-122.86   c-12.786-10.636-27.547-16.712-43.271-16.712c-48.738,0-88.248,58.298-88.248,130.212c0,71.914,39.51,130.212,88.248,130.212   c41.573,0,76.426-42.421,85.776-99.525C456.809,250.997,451.304,252.959,445.342,252.959z"/>
	<path style="fill:#BDBDBD;" d="M445.342,252.959c-11.868,0-21.917-7.774-25.343-18.505c-10.904,53.653-44.618,92.755-84.53,92.755   c-2.535,0-5.043-0.167-7.523-0.476c13.718,12.961,30.026,20.476,47.523,20.476c41.573,0,76.426-42.421,85.776-99.525   C456.809,250.997,451.304,252.959,445.342,252.959z"/>
	<path style="fill:#42A5F5;" d="M40.081,214.116c-0.014,0.958-0.025,1.918-0.025,2.881c0,0.963,0.011,1.922,0.025,2.881V214.116z"/>
	<path style="fill:#757575;" d="M287.221,220.035v127.174h88.222C327.393,347.209,288.315,290.545,287.221,220.035z"/>
	<path style="fill:#8D6E63;" d="M445.342,252.959L445.342,252.959c-14.692,0-26.602-11.91-26.602-26.602V4.807   c0-2.655,2.152-4.807,4.807-4.807h43.59c2.655,0,4.807,2.152,4.807,4.807v221.55C471.944,241.049,460.034,252.959,445.342,252.959z   "/>
	<path style="fill:#8D6E63;" d="M93.285,97.45V4.807C93.285,2.152,91.133,0,88.478,0h-43.59c-2.655,0-4.807,2.152-4.807,4.807   v209.014h0.003C40.93,161.63,62.591,117.053,93.285,97.45z"/>
	<path style="fill:#5D4037;" d="M451.944,0v205.815c0,12.818-8.876,24.158-21.452,26.638c-3.869,0.763-7.6,0.627-11.08-0.166   c2.729,11.98,13.536,20.886,26.393,20.668c14.611-0.248,26.139-12.588,26.139-27.201V4.807c0-2.655-2.152-4.807-4.807-4.807   H451.944z"/>
	<path style="fill:#5D4037;" d="M73.285,0v63.191c0,8.235-3.478,16.13-9.693,21.534c-8.977,7.806-16.933,17.893-23.511,29.713   v99.382h0.003c0.847-52.191,22.508-96.767,53.201-116.37V4.807C93.285,2.152,91.133,0,88.478,0H73.285z"/>
	<path style="fill:#757575;" d="M345.37,202.875h60.197c-4.076-18.667-16.008-32.185-30.098-32.185   c-14.893,0-27.373,15.103-30.714,35.426C344.935,205.02,345.138,203.938,345.37,202.875z"/>
	<path style="fill:#757575;" d="M345.37,231.119c-0.232-1.063-0.435-2.145-0.616-3.24c3.341,20.322,15.821,35.425,30.714,35.425   c14.091,0,26.023-13.518,30.098-32.185H345.37z"/>
	<path style="fill:#EEEEEE;" d="M287.221,491.424c0,4.599-3.009,8.587-7.369,10.053C271.21,504.383,268.825,512,256.323,512   c-15.449,0-15.449-11.632-30.898-11.632c-15.447,0-15.447,11.632-30.893,11.632c-15.446,0-15.446-11.632-30.892-11.632   c-15.446,0-15.446,11.632-30.892,11.632c-15.446,0-15.446-11.632-30.892-11.632C86.412,500.368,86.412,512,70.968,512   c-12.497,0-14.881-7.616-23.52-10.523c-4.359-1.467-7.368-5.454-7.368-10.053V213.821h0.003   c1.143-70.446,40.202-127.036,88.221-127.036h247.138c-48.05,0-87.127,56.663-88.222,127.174V491.424z"/>
	<g>
		<path style="fill:#BDBDBD;" d="M71.567,224.421H47.581c-4.142,0-7.5-3.358-7.5-7.5s3.358-7.5,7.5-7.5h23.986    c4.142,0,7.5,3.358,7.5,7.5S75.709,224.421,71.567,224.421z"/>
	</g>
	<g>
		<path style="fill:#BDBDBD;" d="M126.518,224.421h-20.497c-4.142,0-7.5-3.358-7.5-7.5s3.358-7.5,7.5-7.5h20.497    c4.142,0,7.5,3.358,7.5,7.5S130.66,224.421,126.518,224.421z"/>
	</g>
	<g>
		<path style="fill:#BDBDBD;" d="M181.468,224.421h-20.497c-4.142,0-7.5-3.358-7.5-7.5s3.358-7.5,7.5-7.5h20.497    c4.142,0,7.5,3.358,7.5,7.5S185.61,224.421,181.468,224.421z"/>
	</g>
	<g>
		<path style="fill:#BDBDBD;" d="M236.418,224.421h-20.496c-4.142,0-7.5-3.358-7.5-7.5s3.358-7.5,7.5-7.5h20.496    c4.142,0,7.5,3.358,7.5,7.5S240.561,224.421,236.418,224.421z"/>
	</g>
	<path style="fill:#BDBDBD;" d="M288.427,86.785c-24.231,22.554-40.506,62.025-41.206,107.174l0,265.542   c0,15.75-11.156,29.605-26.695,32.173c-1.267,0.209-2.657,0.326-4.202,0.326c-15.449,0-15.449-11.631-30.898-11.631   c-15.447,0-15.447,11.631-30.893,11.631c-15.446,0-15.446-11.631-30.892-11.631c-15.446,0-15.446,11.631-30.892,11.631   c-15.446,0-15.446-11.631-30.892-11.631c-11.613,0-14.495,6.575-21.775,9.838l0,1.218c0,4.552,2.924,8.59,7.248,10.013   C56.065,504.313,58.414,512,70.968,512c15.444,0,15.444-11.631,30.888-11.631c15.446,0,15.446,11.631,30.892,11.631   c15.446,0,15.446-11.631,30.892-11.631c15.446,0,15.446,11.631,30.892,11.631c15.447,0,15.447-11.631,30.893-11.631   c15.449,0,15.449,11.631,30.898,11.631c12.56,0,14.908-7.688,23.649-10.563c4.324-1.423,7.249-5.461,7.249-10.013l0-277.465   c1.094-70.51,40.172-127.174,88.222-127.174H288.427z"/>
	<path style="fill:#5D4037;" d="M418.74,226.357v-23.482H345.37c-0.972,4.453-1.502,9.196-1.502,14.122   c0,4.926,0.53,9.669,1.502,14.122h73.803C418.894,229.573,418.74,227.983,418.74,226.357z"/>
</g>















</svg>
