<?xml version="1.0" encoding="iso-8859-1"?>
<!-- Generator: Adobe Illustrator 19.0.0, SVG Export Plug-In . SVG Version: 6.00 Build 0)  -->
<svg version="1.1" id="Capa_1" xmlns="http://www.w3.org/2000/svg" xmlns:xlink="http://www.w3.org/1999/xlink" x="0px" y="0px"
	 viewBox="0 0 512 512" style="enable-background:new 0 0 512 512;" xml:space="preserve">
<ellipse style="fill:#EDEBED;" cx="256" cy="297.29" rx="156.9" ry="214.71"/>
<g>
	<path style="fill:#DBD9DC;" d="M272.516,503.742c-86.655,0-156.903-96.129-156.903-214.71c0-88.422,39.071-164.334,94.867-197.241
		C146.029,118.492,99.097,200.377,99.097,297.29C99.097,415.871,169.345,512,256,512c22.039,0,43.024-6.227,62.054-17.451
		C303.645,500.519,288.35,503.742,272.516,503.742z"/>
	<path style="fill:#DBD9DC;" d="M364.176,208.715c-6.172-16.18-21.472-27.037-38.79-27.037H186.613
		c-17.318,0-32.617,10.857-38.79,27.037c-9.996,26.205-15.695,56.414-15.695,88.576c0,100.338,55.459,181.677,123.871,181.677
		s123.871-81.34,123.871-181.677C379.871,265.129,374.173,234.919,364.176,208.715z"/>
</g>
<path style="fill:#EDEBED;" d="M338.581,148.645H173.419c-41.047,0-74.323-33.275-74.323-74.323l0,0
	C99.097,33.275,132.372,0,173.419,0h165.161c41.047,0,74.323,33.275,74.323,74.323l0,0
	C412.904,115.37,379.628,148.645,338.581,148.645z"/>
<circle style="fill:#C4DEFF;" cx="256" cy="264.26" r="33.03"/>
<g>
	<circle style="fill:#DBD9DC;" cx="256" cy="74.32" r="24.774"/>
	<path style="fill:#DBD9DC;" d="M198.194,132.129c-41.047,0-74.323-33.276-74.323-74.323c0-20.401,8.199-38.905,21.508-52.336
		c-27.156,11.064-46.283,37.72-46.283,68.852c0,41.047,33.275,74.323,74.323,74.323H338.58c17.685,0,33.948-6.202,46.708-16.516
		L198.194,132.129L198.194,132.129z"/>
</g>
<path style="fill:#A5CDFF;" d="M268.387,284.903c-18.243,0-33.032-14.789-33.032-33.032c0-5.928,1.688-11.413,4.422-16.223
	c-9.991,5.68-16.809,16.295-16.809,28.61c0,18.243,14.789,33.032,33.032,33.032c12.315,0,22.93-6.819,28.61-16.809
	C279.8,283.216,274.316,284.903,268.387,284.903z"/>
<g>
	<path style="fill:#C9C6CA;" d="M364.176,208.714c-6.173-16.179-21.472-27.036-38.789-27.036H186.615
		c-16.474,0-31.147,9.888-37.849,24.774h120.696c39.827,0,73.955,28.411,81.257,67.562c2.855,15.306,4.379,31.417,4.379,48.051
		c0,54.504-16.357,103.397-42.273,136.696c39.832-30.205,67.047-91.167,67.047-161.47
		C379.871,265.129,374.173,234.918,364.176,208.714z"/>
	<path style="fill:#C9C6CA;" d="M264.258,90.839c-13.682,0-24.774-11.092-24.774-24.774c0-4.718,1.391-9.083,3.68-12.837
		c-7.132,4.351-11.938,12.131-11.938,21.095c0,13.682,11.092,24.774,24.774,24.774c8.964,0,16.744-4.806,21.094-11.938
		C273.341,89.448,268.977,90.839,264.258,90.839z"/>
</g>
<g>
</g>
<g>
</g>
<g>
</g>
<g>
</g>
<g>
</g>
<g>
</g>
<g>
</g>
<g>
</g>
<g>
</g>
<g>
</g>
<g>
</g>
<g>
</g>
<g>
</g>
<g>
</g>
<g>
</g>
</svg>
