<?xml version="1.0" encoding="iso-8859-1"?>
<!-- Generator: Adobe Illustrator 19.0.0, SVG Export Plug-In . SVG Version: 6.00 Build 0)  -->
<svg version="1.1" id="Capa_1" xmlns="http://www.w3.org/2000/svg" xmlns:xlink="http://www.w3.org/1999/xlink" x="0px" y="0px"
	 viewBox="0 0 512 512" style="enable-background:new 0 0 512 512;" xml:space="preserve">
<path style="fill:#E9EAEB;" d="M512,333.253c0-27.318-12.794-27.318-12.794-54.635c0-27.319,12.794-27.319,12.794-54.637
	c0-27.317-12.794-27.317-12.794-54.635c0-27.317,12.794-27.317,12.794-54.634c0-27.318-12.794-27.318-12.794-54.637
	C499.206,32.758,512,32.758,512,5.441H181.822V442.54H512c0-27.321-12.794-27.321-12.794-54.643
	C499.206,360.575,512,360.575,512,333.253z"/>
<g>
	<path style="fill:#D9DDE2;" d="M499.206,60.075C499.206,32.758,512,32.758,512,5.441h-55.831c0,27.317-12.794,27.317-12.794,54.635
		c0,27.319,12.794,27.319,12.794,54.637c0,27.317-12.794,27.317-12.794,54.634s12.794,27.317,12.794,54.635
		c0,27.319-12.794,27.319-12.794,54.637s12.794,27.318,12.794,54.635c0,27.322-12.794,27.322-12.794,54.643
		c0,27.322,12.794,27.322,12.794,54.643H512c0-27.321-12.794-27.321-12.794-54.643c0-27.321,12.794-27.321,12.794-54.643
		c0-27.318-12.794-27.318-12.794-54.635c0-27.319,12.794-27.319,12.794-54.637c0-27.317-12.794-27.317-12.794-54.635
		c0-27.317,12.794-27.317,12.794-54.634C512,87.394,499.206,87.394,499.206,60.075z"/>
	<path style="fill:#D9DDE2;" d="M0,79.236v353.535c0,40.756,81.405,73.796,181.822,73.796s181.823-33.039,181.823-73.796V79.236H0z"
		/>
</g>
<path style="fill:#C8CBCE;" d="M307.814,79.236v353.535c0,36.903-66.742,67.479-153.907,72.93c9.1,0.569,18.423,0.865,27.916,0.865
	c100.418,0,181.822-33.04,181.822-73.796V79.236H307.814z"/>
<ellipse style="fill:#E9EAEB;" cx="181.82" cy="79.234" rx="181.82" ry="73.8"/>
<path style="fill:#D9DDE2;" d="M181.822,5.441c-9.2,0-18.238,0.28-27.071,0.815c87.577,5.306,154.751,35.958,154.751,72.981
	s-67.174,67.674-154.751,72.981c8.833,0.535,17.871,0.815,27.071,0.815c100.418,0,181.822-33.04,181.822-73.796
	S282.24,5.441,181.822,5.441z"/>
<ellipse style="fill:#D09C84;" cx="181.82" cy="79.234" rx="54.14" ry="21.975"/>
<g>
</g>
<g>
</g>
<g>
</g>
<g>
</g>
<g>
</g>
<g>
</g>
<g>
</g>
<g>
</g>
<g>
</g>
<g>
</g>
<g>
</g>
<g>
</g>
<g>
</g>
<g>
</g>
<g>
</g>
</svg>
