<svg width="851" height="851" viewBox="0 0 851 851" fill="none" xmlns="http://www.w3.org/2000/svg">
<g clip-path="url(#clip0_717_23970)">
<path d="M616.723 553.994H753.11V690.375H616.723V553.994ZM362.816 553.994H499.203V690.375H362.816V553.994Z" stroke="#231F20" stroke-width="21"/>
<path d="M116.322 674.475C122.605 674.475 127.698 669.382 127.698 663.099C127.698 656.816 122.605 651.723 116.322 651.723C110.039 651.723 104.946 656.816 104.946 663.099C104.946 669.382 110.039 674.475 116.322 674.475Z" fill="#4B3AFF"/>
<path d="M116.322 647.198C122.605 647.198 127.698 642.105 127.698 635.822C127.698 629.539 122.605 624.446 116.322 624.446C110.039 624.446 104.946 629.539 104.946 635.822C104.946 642.105 110.039 647.198 116.322 647.198Z" fill="#4B3AFF"/>
<path d="M116.322 619.922C122.605 619.922 127.698 614.829 127.698 608.546C127.698 602.263 122.605 597.17 116.322 597.17C110.039 597.17 104.946 602.263 104.946 608.546C104.946 614.829 110.039 619.922 116.322 619.922Z" fill="#4B3AFF"/>
<path d="M116.322 592.646C122.605 592.646 127.698 587.553 127.698 581.27C127.698 574.987 122.605 569.894 116.322 569.894C110.039 569.894 104.946 574.987 104.946 581.27C104.946 587.553 110.039 592.646 116.322 592.646Z" fill="#4B3AFF"/>
<path d="M143.6 565.37C149.883 565.37 154.976 560.277 154.976 553.994C154.976 547.711 149.883 542.618 143.6 542.618C137.317 542.618 132.224 547.711 132.224 553.994C132.224 560.277 137.317 565.37 143.6 565.37Z" fill="#4B3AFF"/>
<path d="M170.877 565.37C177.16 565.37 182.253 560.277 182.253 553.994C182.253 547.711 177.16 542.618 170.877 542.618C164.594 542.618 159.501 547.711 159.501 553.994C159.501 560.277 164.594 565.37 170.877 565.37Z" fill="#4B3AFF"/>
<path d="M198.155 565.37C204.438 565.37 209.531 560.277 209.531 553.994C209.531 547.711 204.438 542.618 198.155 542.618C191.872 542.618 186.779 547.711 186.779 553.994C186.779 560.277 191.872 565.37 198.155 565.37Z" fill="#4B3AFF"/>
<path d="M225.432 565.37C231.715 565.37 236.808 560.277 236.808 553.994C236.808 547.711 231.715 542.618 225.432 542.618C219.149 542.618 214.056 547.711 214.056 553.994C214.056 560.277 219.149 565.37 225.432 565.37Z" fill="#4B3AFF"/>
<path d="M252.709 592.647C258.992 592.647 264.085 587.554 264.085 581.271C264.085 574.988 258.992 569.895 252.709 569.895C246.426 569.895 241.333 574.988 241.333 581.271C241.333 587.554 246.426 592.647 252.709 592.647Z" fill="#4B3AFF"/>
<path d="M252.709 619.923C258.992 619.923 264.085 614.83 264.085 608.547C264.085 602.264 258.992 597.171 252.709 597.171C246.426 597.171 241.333 602.264 241.333 608.547C241.333 614.83 246.426 619.923 252.709 619.923Z" fill="#4B3AFF"/>
<path d="M252.709 647.199C258.992 647.199 264.085 642.106 264.085 635.823C264.085 629.54 258.992 624.447 252.709 624.447C246.426 624.447 241.333 629.54 241.333 635.823C241.333 642.106 246.426 647.199 252.709 647.199Z" fill="#4B3AFF"/>
<path d="M252.709 674.476C258.992 674.476 264.085 669.383 264.085 663.1C264.085 656.817 258.992 651.724 252.709 651.724C246.426 651.724 241.333 656.817 241.333 663.1C241.333 669.383 246.426 674.476 252.709 674.476Z" fill="#4B3AFF"/>
<path d="M225.432 701.751C231.715 701.751 236.808 696.658 236.808 690.375C236.808 684.092 231.715 678.999 225.432 678.999C219.149 678.999 214.056 684.092 214.056 690.375C214.056 696.658 219.149 701.751 225.432 701.751Z" fill="#4B3AFF"/>
<path d="M198.154 701.751C204.437 701.751 209.53 696.658 209.53 690.375C209.53 684.092 204.437 678.999 198.154 678.999C191.871 678.999 186.778 684.092 186.778 690.375C186.778 696.658 191.871 701.751 198.154 701.751Z" fill="#4B3AFF"/>
<path d="M170.876 701.751C177.159 701.751 182.252 696.658 182.252 690.375C182.252 684.092 177.159 678.999 170.876 678.999C164.593 678.999 159.5 684.092 159.5 690.375C159.5 696.658 164.593 701.751 170.876 701.751Z" fill="#4B3AFF"/>
<path d="M143.599 701.751C149.882 701.751 154.975 696.658 154.975 690.375C154.975 684.092 149.882 678.999 143.599 678.999C137.316 678.999 132.223 684.092 132.223 690.375C132.223 696.658 137.316 701.751 143.599 701.751Z" fill="#4B3AFF"/>
<path d="M116.323 565.37C122.606 565.37 127.699 560.277 127.699 553.994C127.699 547.711 122.606 542.618 116.323 542.618C110.04 542.618 104.947 547.711 104.947 553.994C104.947 560.277 110.04 565.37 116.323 565.37Z" fill="#4B3AFF"/>
<path d="M252.709 565.37C258.992 565.37 264.085 560.277 264.085 553.994C264.085 547.711 258.992 542.618 252.709 542.618C246.426 542.618 241.333 547.711 241.333 553.994C241.333 560.277 246.426 565.37 252.709 565.37Z" fill="#4B3AFF"/>
<path d="M252.708 701.751C258.991 701.751 264.084 696.658 264.084 690.375C264.084 684.092 258.991 678.999 252.708 678.999C246.425 678.999 241.332 684.092 241.332 690.375C241.332 696.658 246.425 701.751 252.708 701.751Z" fill="#4B3AFF"/>
<path d="M116.322 701.751C122.605 701.751 127.698 696.658 127.698 690.375C127.698 684.092 122.605 678.999 116.322 678.999C110.039 678.999 104.946 684.092 104.946 690.375C104.946 696.658 110.039 701.751 116.322 701.751Z" fill="#4B3AFF"/>
<path d="M184.516 157.333V464.77Z" fill="white"/>
<path d="M184.516 157.333V464.77" stroke="#231F20" stroke-width="28"/>
<path d="M274.431 364.255L184.18 466.722L93.963 364.09" stroke="#231F20" stroke-width="28"/>
<path d="M0.5 0.5H849.894V849.894H0.5V0.5Z" stroke="black"/>
</g>
<defs>
<clipPath id="clip0_717_23970">
<rect width="850.394" height="850.394" fill="white"/>
</clipPath>
</defs>
</svg>
