<svg width="851" height="851" viewBox="0 0 851 851" fill="none" xmlns="http://www.w3.org/2000/svg">
<path d="M85.604 557.297H225.451V697.137H85.604V557.297ZM345.951 557.297H485.798V697.137H345.951V557.297Z" stroke="#231F20" stroke-width="19.588"/>
<path d="M738.544 676.469C746.437 676.469 752.836 670.07 752.836 662.177C752.836 654.284 746.437 647.885 738.544 647.885C730.651 647.885 724.252 654.284 724.252 662.177C724.252 670.07 730.651 676.469 738.544 676.469Z" fill="#4B3AFF"/>
<path d="M738.544 641.509C746.437 641.509 752.836 635.11 752.836 627.217C752.836 619.324 746.437 612.925 738.544 612.925C730.651 612.925 724.252 619.324 724.252 627.217C724.252 635.11 730.651 641.509 738.544 641.509Z" fill="#4B3AFF"/>
<path d="M738.544 606.548C746.437 606.548 752.836 600.149 752.836 592.256C752.836 584.363 746.437 577.964 738.544 577.964C730.651 577.964 724.252 584.363 724.252 592.256C724.252 600.149 730.651 606.548 738.544 606.548Z" fill="#4B3AFF"/>
<path d="M703.582 571.589C711.475 571.589 717.874 565.19 717.874 557.297C717.874 549.404 711.475 543.005 703.582 543.005C695.689 543.005 689.29 549.404 689.29 557.297C689.29 565.19 695.689 571.589 703.582 571.589Z" fill="#4B3AFF"/>
<path d="M668.621 571.589C676.514 571.589 682.913 565.19 682.913 557.297C682.913 549.404 676.514 543.005 668.621 543.005C660.728 543.005 654.329 549.404 654.329 557.297C654.329 565.19 660.728 571.589 668.621 571.589Z" fill="#4B3AFF"/>
<path d="M633.659 571.589C641.552 571.589 647.951 565.19 647.951 557.297C647.951 549.404 641.552 543.005 633.659 543.005C625.766 543.005 619.367 549.404 619.367 557.297C619.367 565.19 625.766 571.589 633.659 571.589Z" fill="#4B3AFF"/>
<path d="M598.698 606.549C606.591 606.549 612.99 600.15 612.99 592.257C612.99 584.364 606.591 577.965 598.698 577.965C590.805 577.965 584.406 584.364 584.406 592.257C584.406 600.15 590.805 606.549 598.698 606.549Z" fill="#4B3AFF"/>
<path d="M598.698 641.509C606.591 641.509 612.99 635.11 612.99 627.217C612.99 619.324 606.591 612.925 598.698 612.925C590.805 612.925 584.406 619.324 584.406 627.217C584.406 635.11 590.805 641.509 598.698 641.509Z" fill="#4B3AFF"/>
<path d="M598.698 676.47C606.591 676.47 612.99 670.071 612.99 662.178C612.99 654.285 606.591 647.886 598.698 647.886C590.805 647.886 584.406 654.285 584.406 662.178C584.406 670.071 590.805 676.47 598.698 676.47Z" fill="#4B3AFF"/>
<path d="M633.66 711.429C641.553 711.429 647.952 705.03 647.952 697.137C647.952 689.244 641.553 682.845 633.66 682.845C625.767 682.845 619.368 689.244 619.368 697.137C619.368 705.03 625.767 711.429 633.66 711.429Z" fill="#4B3AFF"/>
<path d="M668.621 711.429C676.514 711.429 682.913 705.03 682.913 697.137C682.913 689.244 676.514 682.845 668.621 682.845C660.728 682.845 654.329 689.244 654.329 697.137C654.329 705.03 660.728 711.429 668.621 711.429Z" fill="#4B3AFF"/>
<path d="M703.583 711.429C711.476 711.429 717.875 705.03 717.875 697.137C717.875 689.244 711.476 682.845 703.583 682.845C695.69 682.845 689.291 689.244 689.291 697.137C689.291 705.03 695.69 711.429 703.583 711.429Z" fill="#4B3AFF"/>
<path d="M738.543 571.589C746.436 571.589 752.835 565.19 752.835 557.297C752.835 549.404 746.436 543.005 738.543 543.005C730.65 543.005 724.251 549.404 724.251 557.297C724.251 565.19 730.65 571.589 738.543 571.589Z" fill="#4B3AFF"/>
<path d="M598.698 571.589C606.591 571.589 612.99 565.19 612.99 557.297C612.99 549.404 606.591 543.005 598.698 543.005C590.805 543.005 584.406 549.404 584.406 557.297C584.406 565.19 590.805 571.589 598.698 571.589Z" fill="#4B3AFF"/>
<path d="M598.699 711.429C606.592 711.429 612.991 705.03 612.991 697.137C612.991 689.244 606.592 682.845 598.699 682.845C590.806 682.845 584.407 689.244 584.407 697.137C584.407 705.03 590.806 711.429 598.699 711.429Z" fill="#4B3AFF"/>
<path d="M738.544 711.429C746.437 711.429 752.836 705.03 752.836 697.137C752.836 689.244 746.437 682.845 738.544 682.845C730.651 682.845 724.252 689.244 724.252 697.137C724.252 705.03 730.651 711.429 738.544 711.429Z" fill="#4B3AFF"/>
<path d="M668.621 150.573V465.809Z" fill="white"/>
<path d="M668.621 150.573V465.809" stroke="#231F20" stroke-width="28"/>
<path d="M576.425 362.744L668.966 467.811L761.468 362.575" stroke="#231F20" stroke-width="28"/>
</svg>
