<svg width="851" height="851" viewBox="0 0 851 851" fill="none" xmlns="http://www.w3.org/2000/svg">
<mask id="path-1-inside-1_717_23996" fill="white">
<path d="M528.819 484H768.83V724H528.819V484ZM82 484H322.011V724H82V484Z"/>
</mask>
<path d="M528.819 484V-16H28.8195V484H528.819ZM768.83 484H1268.83V-16H768.83V484ZM768.83 724V1224H1268.83V724H768.83ZM528.819 724H28.8195V1224H528.819V724ZM82 484V-16H-418V484H82ZM322.011 484H822.011V-16H322.011V484ZM322.011 724V1224H822.011V724H322.011ZM82 724H-418V1224H82V724ZM528.819 984H768.83V-16H528.819V984ZM268.83 484V724H1268.83V484H268.83ZM768.83 224H528.819V1224H768.83V224ZM1028.82 724V484H28.8195V724H1028.82ZM82 984H322.011V-16H82V984ZM-177.989 484V724H822.011V484H-177.989ZM322.011 224H82V1224H322.011V224ZM582 724V484H-418V724H582Z" fill="#4B3AFF" mask="url(#path-1-inside-1_717_23996)"/>
<path d="M351 604H497Z" fill="white"/>
<path d="M351 604H497" stroke="#231F20" stroke-width="14"/>
<path d="M449.079 557L498 604.509L449 652" stroke="#231F20" stroke-width="14"/>
</svg>
