<svg xmlns="http://www.w3.org/2000/svg" version="1.1" xmlns:xlink="http://www.w3.org/1999/xlink" xmlns:svgjs="http://svgjs.com/svgjs" width="512" height="512" x="0" y="0" viewBox="0 0 497 497" style="enable-background:new 0 0 512 512" xml:space="preserve" class=""><g><path fill="#ffbd86" d="m464.1 288.62-13.88 13.71-8.67 8.37-16.23-6.3-20.78-8.07-10.99-34.03 19.6-17.72a33.924 33.924 0 0 0 11.16-25.14V71.48c0-2.25-.59-4.46-1.7-6.41l-9.59-16.77c-.87-1.52-1.32-3.24-1.32-4.99v-9.36a5.83 5.83 0 0 1 5.83-5.83h3.98c1.6 0 2.9-1.3 2.91-2.9l.04-17.11c.01-4.48 3.65-8.11 8.13-8.11h41.7c4.5 0 8.14 3.64 8.14 8.14v32.32c0 4.29-.74 8.54-2.18 12.57l-4.47 12.49c-.59 1.67-.84 3.44-.72 5.21l10.68 160.86a73.321 73.321 0 0 1-21.64 57.03z" data-original="#ffbd86" class=""></path><path fill="#f6a96c" d="m464.1 288.62-13.88 13.71-8.67 8.37-16.23-6.3 2.14-2.07 13.88-13.71a73.321 73.321 0 0 0 21.64-57.03L452.32 71c-.13-1.95.14-3.9.79-5.74l4.37-12.23c1.45-4.03 2.18-8.28 2.18-12.57V8.13A8.13 8.13 0 0 0 451.53 0h22.76c4.5 0 8.14 3.64 8.14 8.14v32.32c0 4.29-.74 8.54-2.18 12.57l-4.47 12.49c-.59 1.67-.84 3.44-.72 5.21l10.68 160.86a73.321 73.321 0 0 1-21.64 57.03z" data-original="#f6a96c" class=""></path><path fill="#f6a96c" d="M452.95 41.45v7.94c0 4.15-3.36 7.5-7.5 7.5-3.81 0-6.96-2.83-7.43-6.52a6.37 6.37 0 0 1-.07-.98v-6.27H411.7v-9.17a5.83 5.83 0 0 1 5.83-5.83h22.09c.21 0 .41.01.6.03 7.07.32 12.73 6.15 12.73 13.3z" data-original="#f6a96c" class=""></path><path fill="#ffbd86" d="m103.45 262.3-5.17 15.93-5.61 17.28-37.22 15.19-8.67-8.37-13.88-13.71a73.321 73.321 0 0 1-21.64-57.03L21.94 70.73c.12-1.77-.13-3.54-.72-5.21l-4.47-12.49a37.351 37.351 0 0 1-2.18-12.57V8.13A8.13 8.13 0 0 1 22.7 0h41.71c4.48 0 8.12 3.63 8.13 8.11l.04 17.11c.01 1.6 1.31 2.9 2.91 2.9h3.98a5.83 5.83 0 0 1 5.83 5.83v9.36c0 1.75-.45 3.47-1.32 4.99l-9.59 16.77c-1.11 1.95-1.7 4.16-1.7 6.41v147.96c0 9.58 4.06 18.71 11.16 25.14z" data-original="#ffbd86" class=""></path><path fill="#f6a96c" d="m103.45 262.3-5.17 15.93-37.21-33.63a33.88 33.88 0 0 1-11.17-25.14l.01-147.02c0-2.88.75-5.7 2.18-8.2l9.12-15.94c.87-1.52 1.33-3.25 1.33-5v-9.35a5.83 5.83 0 0 0-5.83-5.83h-6.78l-.15-20.01C49.77 3.63 46.13 0 41.64 0h22.77c4.48 0 8.12 3.63 8.13 8.11l.04 17.11c.01 1.6 1.31 2.9 2.91 2.9h3.98a5.83 5.83 0 0 1 5.83 5.83v9.36c0 1.75-.45 3.47-1.32 4.99l-9.59 16.77c-1.11 1.95-1.7 4.16-1.7 6.41v147.96c0 9.58 4.06 18.71 11.16 25.14z" data-original="#f6a96c" class=""></path><path fill="#f6a96c" d="M85.3 33.95v9.17H52.48v6.27c0 4.15-3.36 7.5-7.5 7.5s-7.5-3.35-7.5-7.5v-7.94c0-7.148 5.661-12.984 12.733-13.3.196-.02.396-.03.597-.03h28.66a5.83 5.83 0 0 1 5.83 5.83z" data-original="#f6a96c" class=""></path><path fill="#734a20" d="M369.492 465.006h-242c-18.079 0-32.31-15.427-30.855-33.447L124.48 86.732c3.592-44.484 40.741-78.755 85.37-78.755h77.287c44.629 0 81.778 34.27 85.37 78.755l27.842 344.827c1.454 18.02-12.778 33.447-30.857 33.447z" data-original="#ffe5c2" class=""></path><path fill="#593918" d="M400.348 431.559 372.506 86.732c-3.592-44.484-40.741-78.755-85.37-78.755h-22.764c44.629 0 81.778 34.27 85.37 78.755l27.842 344.827c1.455 18.02-12.777 33.447-30.855 33.447h22.763c18.079 0 32.311-15.427 30.856-33.447z" data-original="#fed2a4" class=""></path><path fill="#fe99a0" d="m441.554 310.696-48.009-48.399-19.748 17.851a48.531 48.531 0 0 1-32.544 12.529h-15.474l-8.523.003-68.753 11.06-68.775-11.06-8.508-.003h-15.474a48.531 48.531 0 0 1-32.544-12.529l-19.748-17.851-48.009 48.399 78.109 75.393c2.207 2.13 3.467 5.031 3.631 8.093a88.599 88.599 0 0 0 3.034 18.697l1.681 6.149a88.278 88.278 0 0 1 1.842 38.583l-5.186 30.571c-.782 4.611 2.771 8.817 7.447 8.817h204.98c4.677 0 8.229-4.206 7.447-8.817l-5.186-30.571a88.278 88.278 0 0 1 1.842-38.583l1.681-6.149c1.396-5.088 2.341-13.803 2.815-19.043a11.885 11.885 0 0 1 3.591-7.486z" data-original="#fe99a0" class=""></path><g fill="#fd8087"><path d="M248.493 404.704a7.5 7.5 0 0 1-7.5-7.5v-41.435a7.5 7.5 0 0 1 15 0v41.435a7.5 7.5 0 0 1-7.5 7.5zM355.08 419.03a88.356 88.356 0 0 0-1.84 38.58l5.192 30.572c.783 4.611-2.77 8.818-7.447 8.818h-21.543a8.446 8.446 0 0 0 4.557-8.97l-5.159-30.421a88.205 88.205 0 0 1 1.84-38.58l1.68-6.15c1.39-5.09 2.34-13.8 2.81-19.04.26-2.85 1.54-5.5 3.59-7.49l71.813-69.303a9.015 9.015 0 0 0 .14-12.836l-30.033-30.28 12.87-11.63 48 48.4-78.38 75.65a11.902 11.902 0 0 0-3.59 7.49c-.47 5.24-1.42 13.95-2.81 19.04zM141.4 290.51l-8.46 2.17c-12.03 0-23.62-4.47-32.54-12.53l-7.73-6.98 10.78-10.87 19.75 17.85a48.596 48.596 0 0 0 18.2 10.36z" fill="#fd8087" data-original="#fd8087"></path></g><path fill="#ffbd86" d="M283.858 281.338v-29.625h-70.73v29.625c0 6.264-5.078 11.342-11.342 11.342l-22.057.001v17.576c0 25.136 20.376 45.512 45.512 45.512h46.504c25.135 0 45.512-20.376 45.512-45.512v-17.576l-22.058-.001c-6.265 0-11.341-5.078-11.341-11.342z" data-original="#ffbd86" class=""></path><path fill="#f6a96c" d="M295.198 292.68c-6.264 0-11.341-5.078-11.341-11.342v-29.625h-20.479v29.625c0 6.264 5.077 11.342 11.341 11.342l22.058.001v17.576c0 25.135-20.376 45.512-45.512 45.512h20.479c25.135 0 45.512-20.376 45.512-45.512v-17.576l-22.058-.001z" data-original="#f6a96c" class=""></path><circle cx="337.734" cy="165.044" r="36.478" fill="#ffbd86" data-original="#ffbd86" class=""></circle><path fill="#f6a96c" d="M337.734 128.566c-3.38 0-6.648.469-9.754 1.33 15.408 4.267 26.724 18.382 26.724 35.148s-11.316 30.881-26.724 35.148c3.106.86 6.375 1.33 9.754 1.33 20.146 0 36.478-16.332 36.478-36.478s-16.332-36.478-36.478-36.478z" data-original="#f6a96c" class=""></path><path fill="#ffbd86" d="M198 165.04c0 20.15-16.33 36.48-36.48 36.48-7.11 0-13.74-2.03-19.34-5.54-10.29-6.45-17.14-17.89-17.14-30.94 0-12.36 6.15-23.28 15.55-29.87a36.28 36.28 0 0 1 20.93-6.6c20.15 0 36.48 16.33 36.48 36.47z" data-original="#ffbd86" class=""></path><path fill="#f6a96c" d="M198 165.04c0 20.15-16.33 36.48-36.48 36.48-7.11 0-13.74-2.03-19.34-5.54a81.829 81.829 0 0 1-1.59-16.15v-44.66a36.28 36.28 0 0 1 20.93-6.6c20.15 0 36.48 16.33 36.48 36.47z" data-original="#f6a96c" class=""></path><path fill="#ffbd86" d="M337.736 128.566v51.263c0 45.547-36.923 82.47-82.47 82.47H241.72c-45.547 0-82.47-36.923-82.47-82.47V96.4c0-3.958 4.26-6.453 7.713-4.517l31.614 17.73a148.3 148.3 0 0 0 72.542 18.953z" data-original="#ffbd86" class=""></path><path fill="#f6a96c" d="M314.972 128.566v51.263c0 44-34.459 79.943-77.861 82.335 1.526.084 3.062.135 4.609.135h13.545c45.547 0 82.47-36.923 82.47-82.47v-51.263z" data-original="#f6a96c" class=""></path><path fill="#fd4755" d="M219.351 200.608c-3.123 0-5.209 3.145-4.081 6.057a35.479 35.479 0 0 0 8.008 12.271c6.46 6.46 15.35 10.445 25.204 10.445 15.195 0 28.154-9.497 33.282-22.881 1.091-2.847-1.093-5.893-4.142-5.893h-58.271z" data-original="#fd4755" class=""></path><path fill="#fb2b3a" d="M277.622 200.608h-22.763c3.048 0 5.232 3.046 4.142 5.893-3.784 9.878-11.841 17.624-21.908 21.012a35.564 35.564 0 0 0 11.39 1.869c15.195 0 28.154-9.497 33.282-22.881 1.089-2.847-1.095-5.893-4.143-5.893z" data-original="#fb2b3a" class=""></path><path fill="#f6a96c" d="M248.504 177.597a7.5 7.5 0 0 1-7.5-7.5v-10.806a7.5 7.5 0 0 1 15 0v10.806a7.5 7.5 0 0 1-7.5 7.5z" data-original="#f6a96c" class=""></path></g></svg>