<svg id="Capa_1" enable-background="new 0 0 512 512" height="512" viewBox="0 0 512 512" width="512" xmlns="http://www.w3.org/2000/svg"><g><path d="m145.997 455.048-38.869 55.465h-18.1c-8.478 0-16.359-4.399-20.799-11.62l-61.45-99.958 35.799-53.271 20.284-5.099 22.303-5.615 46.997 52.982 7.17 34.769z" fill="#62dbfb"/><path d="m139.332 422.7-17.379 15.195-65.345-79.633 6.254-17.698 22.303-5.615 46.997 52.982z" fill="#01d0fb"/><path d="m141.239 180.804h-5.736c-19.508 0-35.323 15.815-35.323 35.323 0 19.508 15.815 35.323 35.323 35.323h5.736l11.263-35.323z" fill="#fed2a4"/><path d="m141.239 91.063v176.617c-.064 34.112 25.58 63.134 58.849 67.812 5.496.773 9.621 5.404 9.621 10.954v55.525h93.6v-55.535c0-5.55 4.126-10.175 9.621-10.955 32.928-4.678 58.946-33.29 58.848-67.8v-176.618z" fill="#ffe5c2"/><path d="m371.778 180.804h5.736c19.509 0 35.323 15.815 35.323 35.323 0 19.508-15.815 35.323-35.323 35.323h-5.736l-21.103-32.505z" fill="#fed2a4"/><path d="m340.87 91.063v176.617c0 35.417-26.891 64.553-61.369 68.106-4.031.415-7.101 3.797-7.101 7.849v58.336h30.908v-55.535c0-5.55 4.126-10.175 9.621-10.955 32.928-4.678 58.946-33.29 58.848-67.8v-176.618z" fill="#fed2a4"/><g><g><path d="m311.287 162.945c-1.391 0-2.8-.376-4.072-1.162-3.629-2.244-4.738-7.028-2.493-10.657 5.12-8.279 20.078-21.949 40.051-14.427 3.993 1.504 6.012 5.96 4.508 9.953-1.504 3.994-5.958 6.015-9.953 4.508-12.772-4.81-20.636 6.799-21.49 8.139-1.46 2.356-3.973 3.646-6.551 3.646z" fill="#7a6d79"/></g></g><path d="m371.775 180.803c-6.027-.083-11.414-3.503-16.194-8.952v-.01c-14.814-16.947-23.643-53.569-27.166-71.072-.69-3.41-5.141-4.286-7.088-1.401-13.001 19.398-48.295 66.035-86.906 66.035-18.729 0-28.474-13.3-32.894-22.19-1.391-2.812-5.367-2.895-6.892-.155-7.314 13.155-25.167 38.601-53.394 37.746-38.003-1.154-54.764-97.785-31.256-136.087 39.488-64.367 136.788-44.526 211.126-19.152 3.441 1.174 7.118 1.514 10.734 1.061 11.105-1.401 37.931-2.586 60.461 13.588 29.238 20.995 11.529 141.042-20.531 140.589z" fill="#918291"/><path d="m371.775 180.803c-6.027-.083-11.414-3.503-16.194-8.952v-.01c21.891-28.186 30.061-114.165 5.738-131.626-10.652-7.654-19.007-11.888-29.473-13.588 11.105-1.401 37.931-2.586 60.461 13.588 29.237 20.994 11.528 141.041-20.532 140.588z" fill="#7a6d79"/><path d="m256 224.097c-15.607 0-28.259 12.652-28.259 28.258v8.513c0 15.607 12.652 28.258 28.258 28.258 15.607 0 28.258-12.652 28.258-28.258v-8.513c.001-15.606-12.65-28.258-28.257-28.258z" fill="#fe7ab6"/><path d="m505.221 398.934-61.45 99.958c-4.44 7.222-12.321 11.62-20.799 11.62h-18.1l-26.795-56.856 1.762-65.726 46.997-52.982 48.285 15.741 5.975 9.581z" fill="#62dbfb"/><path d="m505.221 398.934-61.45 99.958c-4.44 7.222-12.321 11.62-20.799 11.62h-17.256l68.6-111.579c4.42-7.201 6.779-15.484 6.779-23.931v-14.732z" fill="#01d0fb"/><path d="m512 15.851-31.113 363.22-54.052-44.122 17.946-219.165c.416-5.082-1.141-10.129-4.348-14.093l-6.305-7.793c-2.421-2.988-3.739-6.706-3.739-10.549v-36.232c0-5.251 4.257-9.509 9.509-9.509h11.94v-21.757c0-6.253 5.069-11.322 11.322-11.322h37.499c6.262 0 11.341 5.068 11.341 11.322z" fill="#ffe5c2"/><path d="m500.658 4.524h-30.908c6.261 0 11.342 5.07 11.342 11.331v359.143c0 1.364-.084 2.721-.205 4.072l24.332 19.863c4.429-7.198 6.781-15.485 6.781-23.935v-359.143c0-6.261-5.08-11.331-11.342-11.331z" fill="#fed2a4"/><path d="m56.608 358.262-49.83 40.672c-4.429-7.201-6.778-15.484-6.778-23.931v-359.152c0-6.254 5.079-11.322 11.342-11.322h37.488c6.264 0 11.332 5.068 11.332 11.322v21.757h11.93c5.257 0 9.519 4.262 9.519 9.519v36.221c0 3.843-1.319 7.561-3.74 10.549l-6.305 7.793c-3.207 3.964-4.764 9.011-4.348 14.093z" fill="#ffe5c2"/><path d="m29.258 15.855v21.755h11.922c5.257 0 9.519 4.262 9.519 9.519v36.217c0 3.848-1.313 7.564-3.736 10.547l-5.091 8.667c-2.032 3.46-2.967 7.454-2.682 11.456l17.419 244.241 28.555-23.31-17.946-219.162c-.416-5.08 1.14-10.125 4.344-14.088l6.309-7.804c2.423-2.983 3.736-6.699 3.736-10.547v-36.227c0-5.252-4.257-9.509-9.509-9.509h-11.932v-21.755c0-6.258-5.073-11.331-11.331-11.331h-30.909c6.262 0 11.332 5.07 11.332 11.331z" fill="#fed2a4"/><g><path d="m486.977 39.401v10.25c0 4.265-3.461 7.726-7.726 7.726s-7.726-3.461-7.726-7.726v-10.25c0-.989-.804-1.793-1.793-1.793h-17.894v-15.453h17.894c9.508 0 17.245 7.737 17.245 17.246z" fill="#ffbd86"/></g><g><path d="m60.163 22.155v15.453h-17.895c-.989 0-1.793.804-1.793 1.793v10.25c0 4.265-3.461 7.726-7.726 7.726s-7.726-3.461-7.726-7.726v-10.25c0-9.509 7.737-17.245 17.245-17.245h17.895z" fill="#ffbd86"/></g><g fill="#f2fbff"><path d="m348.44 203.241c-1.319-4.059-5.679-6.282-9.735-4.961l-8.313 2.701v-8.741c0-4.267-3.459-7.726-7.726-7.726s-7.726 3.459-7.726 7.726v8.741l-8.313-2.701c-4.059-1.321-8.417.902-9.735 4.961-1.319 4.058.902 8.417 4.961 9.735l8.313 2.701-5.138 7.072c-2.509 3.452-1.743 8.284 1.709 10.792 1.371.996 2.96 1.476 4.535 1.476 2.389 0 4.745-1.105 6.257-3.186l5.138-7.072 5.138 7.072c1.512 2.081 3.868 3.186 6.258 3.186 1.574 0 3.163-.48 4.535-1.476 3.452-2.508 4.218-7.34 1.71-10.792l-5.138-7.072 8.313-2.701c4.054-1.318 6.276-5.677 4.957-9.735z"/><path d="m205.375 198.28-8.313 2.701v-8.741c0-4.267-3.459-7.726-7.726-7.726s-7.726 3.459-7.726 7.726v8.741l-8.313-2.701c-4.06-1.321-8.417.902-9.735 4.961-1.319 4.058.902 8.417 4.961 9.735l8.312 2.701-5.138 7.072c-2.508 3.452-1.742 8.284 1.71 10.792 1.371.996 2.96 1.476 4.535 1.476 2.389 0 4.745-1.105 6.258-3.186l5.138-7.072 5.138 7.072c1.512 2.081 3.868 3.186 6.257 3.186 1.574 0 3.163-.48 4.535-1.476 3.452-2.508 4.218-7.34 1.709-10.792l-5.138-7.071 8.313-2.701c4.058-1.318 6.28-5.678 4.961-9.735-1.321-4.06-5.683-6.283-9.738-4.962z"/></g><path d="m404.882 510.513h-297.753l7.819-38.302 18.286-18.842-11.28-15.473 10.209-49.974 31.791 5.769c30.442 5.511 61.316 8.283 92.253 8.283 15.669 0 31.318-.711 46.914-2.132 15.587-1.411 31.111-3.534 46.523-6.367l.381-.072 29.813-5.481 10.209 49.974-11.971 15.762 18.976 18.553z" fill="#f2fbff"/><path d="m366.116 472.206h-251.168l7.006-34.309h237.156l9.653 17.154z" fill="#c8effe"/><path d="m404.882 510.513h-30.937l-23.92-117.111 29.813-5.481 10.209 49.974-11.971 15.762 18.976 18.554z" fill="#dff6fd"/><path d="m366.117 472.206h30.935l-7.005-34.309h-30.937z" fill="#99e6fc"/></g></svg>