<svg id="Capa_1" enable-background="new 0 0 512 512" height="512" viewBox="0 0 512 512" width="512" xmlns="http://www.w3.org/2000/svg"><g><path d="m501.698 256c0 141.385-104.313 254.97-245.698 254.97-8.693 0-17.285.597-25.755-.249-129.291-12.916-230.245-122.029-230.245-254.721 0-132.548 100.736-241.568 229.826-254.678 8.606-.874 17.337-.292 26.174-.292 141.385 0 245.698 113.585 245.698 254.97z" fill="#fff0af"/><path d="m342.854 303.524-177.738 6.134c-6.04 0-10.936 4.896-10.936 10.936v.474c0 6.79-5.646 7.3-4.449 13.742 8.406 45.225 44.969 80.557 90.815 87.12 5.047.722 10.207.066 15.454.066 59.698 0 97.79-47.364 97.79-107.062v-.474c.001-6.039-4.896-10.936-10.936-10.936z" fill="#fd8087"/><path d="m342.854 304.555h-20.604c6.04 0 10.936 3.866 10.936 9.906v.474c0 54.45-40.263 99.489-92.64 106.988 5.048.723 10.205 1.104 15.453 1.104 52.908 0 96.938-38.012 106.269-88.216 1.198-6.443-8.478-13.086-8.478-19.876v-.474c.001-6.04-4.896-9.906-10.936-9.906z" fill="#ee6161"/><path d="m342.854 303.524h-184.01c-6.04 0-10.936 4.896-10.936 10.936v.474c0 6.79.633 13.431 1.83 19.875 33.877 9.142 69.495 14.043 106.262 14.043 25.177 0 49.816-2.298 73.726-6.683 11.006-2.018 11.556-4.479 22.234-7.361 1.198-6.443 1.83-13.085 1.83-19.875v-.474c.001-6.038-4.896-10.935-10.936-10.935z" fill="#f3f0f3"/><path d="m333.187 314.461v.474c0 9.407-1.203 18.533-3.461 27.233 11.006-2.018 21.858-4.477 32.537-7.358 1.198-6.443 1.83-13.085 1.83-19.875v-.474c0-6.04-4.896-10.936-10.936-10.936h-30.907c6.041-.001 10.937 4.896 10.937 10.936z" fill="#e2dee2"/><path d="m256 0c-8.693 0-17.284.438-25.755 1.284 129.291 12.917 230.246 122.025 230.246 254.716s-100.955 241.799-230.246 254.716c8.471.846 17.062 1.284 25.755 1.284 141.385 0 256-114.615 256-256s-114.615-256-256-256z" fill="#ffe07d"/><path d="m364.003 250.164-35.182 18.496c-4.458 2.344-9.669-1.442-8.818-6.407l6.719-39.176c.338-1.971-.315-3.983-1.748-5.379l-28.463-27.744c-3.607-3.516-1.617-9.642 3.368-10.366l39.335-5.716c1.98-.288 3.691-1.531 4.576-3.325l17.591-35.643c2.229-4.517 8.67-4.517 10.9 0l17.591 35.643c.885 1.794 2.596 3.037 4.576 3.325l23.842 3.464 11.372 2.251c4.985.724 6.975 6.85 3.368 10.366l-25.372 27.744c-1.432 1.396-2.086 3.408-1.748 5.379l6.719 38.145c.851 4.965-4.36 8.751-8.818 6.407l-13.352-6.531-20.8-10.935c-1.77-.929-3.885-.929-5.656.002z" fill="#ffe07d"/><g><path d="m437.151 189.954c3.607-3.516 1.617-9.642-3.368-10.366l-15.493-2.251c.334 1.857-.174 3.878-1.742 5.406l-28.463 27.744c-1.432 1.396-2.086 3.408-1.748 5.379l6.719 39.176c.44 2.563-.742 4.803-2.596 6.057l14.382 7.561c4.458 2.344 9.669-1.442 8.818-6.407l-6.719-39.176c-.338-1.972.315-3.983 1.748-5.379z" fill="#ffc250"/></g><path d="m142.34 250.164-35.182 18.496c-4.459 2.344-9.67-1.442-8.818-6.407l6.719-39.176c.338-1.971-.315-3.983-1.748-5.379l-28.463-27.744c-3.607-3.516-1.617-9.642 3.368-10.366l39.335-5.716c1.979-.288 3.691-1.531 4.576-3.325l17.591-35.643c2.229-4.517 8.67-4.517 10.9 0l17.591 35.643c.885 1.794 2.596 3.037 4.576 3.325l23.842 3.464 11.372 2.251c4.985.724 6.975 6.85 3.368 10.366l-25.372 27.744c-1.432 1.396-2.086 3.408-1.748 5.379l6.719 38.145c.852 4.965-4.359 8.751-8.818 6.407l-13.352-6.531-20.8-10.935c-1.77-.929-3.885-.929-5.656.002z" fill="#ffe07d"/><g><path d="m215.488 189.954c3.607-3.516 1.617-9.642-3.368-10.366l-15.493-2.251c.333 1.857-.174 3.878-1.742 5.406l-28.463 27.744c-1.432 1.396-2.086 3.408-1.748 5.379l6.719 39.176c.44 2.563-.742 4.803-2.596 6.057l14.382 7.561c4.459 2.344 9.669-1.442 8.818-6.407l-6.719-39.176c-.338-1.972.316-3.983 1.748-5.379z" fill="#ffc250"/></g></g></svg>