<svg id="Capa_1" enable-background="new 0 0 495.069 495.069" height="512" viewBox="0 0 495.069 495.069" width="512" xmlns="http://www.w3.org/2000/svg"><circle cx="247.534" cy="247.534" fill="#fee565" r="247.534"/><path d="m76.911 247.534c0-123.628 90.661-226.085 209.106-244.561-12.532-1.954-25.401-2.973-38.483-2.973-136.709 0-247.534 110.825-247.534 247.534s110.825 247.534 247.534 247.534c13.081 0 25.95-1.019 38.483-2.974-118.445-18.475-209.106-120.931-209.106-244.56z" fill="#fdd62f"/><circle cx="333.293" cy="180.194" fill="#f9f7f8" r="55.635"/><circle cx="333.293" cy="180.194" fill="#685e67" r="13.085"/><circle cx="161.709" cy="180.194" fill="#f9f7f8" r="55.635"/><circle cx="161.709" cy="180.194" fill="#685e67" r="13.085"/><path d="m280.305 376.367h-66.609c-6.104 0-11.052-4.948-11.052-11.052 0-18.528 15.02-33.547 33.547-33.547h21.618c18.528 0 33.547 15.02 33.547 33.547.001 6.104-4.947 11.052-11.051 11.052z" fill="#d73638"/></svg>