<svg id="Capa_1" enable-background="new 0 0 495.069 495.069" height="512" viewBox="0 0 495.069 495.069" width="512" xmlns="http://www.w3.org/2000/svg"><g><circle cx="247.534" cy="247.534" fill="#fee565" r="247.534"/></g><path d="m76.911 247.534c0-123.628 90.661-226.085 209.106-244.561-12.532-1.954-25.401-2.973-38.483-2.973-136.709 0-247.534 110.825-247.534 247.534s110.825 247.534 247.534 247.534c13.081 0 25.95-1.019 38.483-2.974-118.445-18.475-209.106-120.931-209.106-244.56z" fill="#fdd62f"/><circle cx="161.231" cy="200.711" fill="#685e67" r="21.144"/><circle cx="334.838" cy="200.711" fill="#685e67" r="21.144"/><g><path d="m136.873 166.947c-5.078 0-10.238-.958-15.235-2.957-3.846-1.539-5.716-5.904-4.177-9.75s5.904-5.716 9.75-4.177c11.844 4.739 25.139.204 31.618-10.782l1.008-1.709c2.105-3.568 6.705-4.752 10.271-2.649 3.568 2.104 4.754 6.703 2.649 10.271l-1.008 1.708c-7.536 12.775-20.888 20.045-34.876 20.045z" fill="#685e67"/></g><g><path d="m359.197 166.947c-13.99 0-27.34-7.27-34.875-20.045l-1.008-1.708c-2.104-3.568-.918-8.166 2.649-10.271 3.568-2.104 8.166-.918 10.271 2.649l1.008 1.708c6.479 10.986 19.777 15.518 31.618 10.782 3.841-1.538 8.21.331 9.749 4.177s-.331 8.21-4.177 9.75c-4.996 2-10.159 2.958-15.235 2.958z" fill="#685e67"/></g><path d="m325.344 372.42c-48.689-14.472-100.44-13.05-154.114 1.792-15.373 4.251-30.566-7.319-30.566-23.268v-1.651c0-13.335 10.81-24.146 24.146-24.146h167.449c13.335 0 24.146 10.81 24.146 24.146 0 16.165-15.566 27.732-31.061 23.127z" fill="#d73638"/><g><g><path d="m96.47 208.739c-4.142 0-7.5-3.358-7.5-7.5v-190.034c0-4.142 3.358-7.5 7.5-7.5s7.5 3.358 7.5 7.5v190.034c0 4.143-3.358 7.5-7.5 7.5z" fill="#e2dee2"/></g></g><g><g><path d="m62.735 179.101c-4.142 0-7.5-3.358-7.5-7.5v-130.758c0-4.142 3.358-7.5 7.5-7.5s7.5 3.358 7.5 7.5v130.757c0 4.143-3.358 7.501-7.5 7.501z" fill="#e2dee2"/></g></g><g><g><path d="m29.001 166.904c-4.142 0-7.5-3.358-7.5-7.5v-92.99c0-4.142 3.358-7.5 7.5-7.5s7.5 3.358 7.5 7.5v92.99c0 4.142-3.358 7.5-7.5 7.5z" fill="#e2dee2"/></g></g><g fill="#a7e6ef"><path d="m447.245 182.292v11.511c0 9.255-7.502 16.757-16.757 16.757-9.255 0-16.757-7.502-16.757-16.757v-21.858c0-3.132 2.539-5.672 5.672-5.672h22.171c3.132 0 5.672 2.539 5.672 5.672v10.347z"/><path d="m430.488 281.942v11.511c0 9.255-7.502 16.757-16.757 16.757-9.255 0-16.757-7.502-16.757-16.757v-20.729c0-3.756 3.045-6.801 6.801-6.801h19.913c3.756 0 6.801 3.045 6.801 6.801v9.218z"/><path d="m105.227 269.37v11.511c0 9.255-7.502 16.757-16.757 16.757-9.255 0-16.757-7.502-16.757-16.757v-24.141c0-1.872 1.517-3.389 3.389-3.389h26.737c1.872 0 3.389 1.517 3.389 3.389v12.63z"/></g><path d="m81.712 296.208c-2.773-13.903-4.396-28.22-4.733-42.857h-1.877c-1.872 0-3.389 1.517-3.389 3.389v24.141c0 6.848 4.113 12.727 9.999 15.327z" fill="#6dd8e6"/></svg>