<svg id="Capa_1" enable-background="new 0 0 495.271 495.271" height="512" viewBox="0 0 495.271 495.271" width="512" xmlns="http://www.w3.org/2000/svg"><g><circle cx="247.737" cy="247.636" fill="#fee565" r="247.534"/></g><path d="m77.114 247.636c0-123.628 90.661-226.085 209.106-244.561-12.533-1.955-25.402-2.974-38.483-2.974-136.71 0-247.534 110.825-247.534 247.535s110.824 247.534 247.534 247.534c13.081 0 25.95-1.019 38.483-2.974-118.445-18.476-209.106-120.932-209.106-244.56z" fill="#fdd62f"/><g><path d="m289.637 395.843c-7.353.001-14.736-2.559-20.708-7.777-12.367-10.802-31.018-10.803-43.385 0-13.099 11.444-32.996 10.102-44.44-2.998-11.444-13.099-10.102-32.995 2.998-44.439 17.489-15.279 39.911-23.694 63.134-23.694s45.645 8.415 63.134 23.694c13.099 11.444 14.442 31.34 2.998 44.439-6.225 7.127-14.957 10.774-23.731 10.775z" fill="#d73638"/></g><g><path d="m137.883 220.872c-8.972 0-18.042-1.205-26.994-3.678l-2.287-.632c-3.993-1.103-6.335-5.233-5.233-9.227 1.103-3.992 5.236-6.337 9.226-5.232l2.288.632c31.249 8.633 64.212-.898 86.028-24.879 2.787-3.065 7.531-3.289 10.595-.501 3.064 2.787 3.288 7.531.501 10.595-19.393 21.317-46.282 32.922-74.124 32.922z" fill="#685e67"/></g><g><path d="m110.679 162.632c-5.625 0-11.343-1.062-16.88-3.277-3.846-1.538-5.716-5.903-4.177-9.749 1.54-3.845 5.904-5.718 9.75-4.177 13.87 5.548 29.442.238 37.031-12.628l1.141-1.936c2.105-3.567 6.705-4.753 10.271-2.649 3.567 2.104 4.754 6.703 2.649 10.271l-1.141 1.935c-8.349 14.153-23.144 22.21-38.644 22.21z" fill="#685e67"/></g><g><path d="m357.59 220.872c-27.844 0-54.729-11.603-74.124-32.922-2.787-3.063-2.563-7.808.501-10.595 3.063-2.789 7.807-2.563 10.595.501 21.815 23.979 54.78 33.513 86.027 24.879l2.289-.632c3.991-1.105 8.123 1.24 9.226 5.232 1.103 3.993-1.24 8.124-5.233 9.227l-2.288.632c-8.948 2.473-18.023 3.678-26.993 3.678z" fill="#685e67"/></g><g><path d="m384.795 162.631c-15.501 0-30.294-8.055-38.643-22.21l-1.141-1.935c-2.104-3.567-.918-8.166 2.649-10.271 3.567-2.103 8.166-.918 10.271 2.649l1.141 1.935c7.589 12.867 23.162 18.178 37.031 12.629 3.845-1.542 8.21.33 9.75 4.177 1.539 3.846-.332 8.211-4.177 9.749-5.537 2.216-11.257 3.277-16.881 3.277z" fill="#685e67"/></g><path d="m68.663 474.468h-17.69c-28.152 0-50.973-22.822-50.973-50.973 0-28.152 22.821-50.973 50.973-50.973h83.366l-14.703 26.417v24.556c0 28.151-22.821 50.973-50.973 50.973z" fill="#efedef"/><path d="m86.692 469.922c-28.152 0-50.973-22.821-50.973-50.973 0-20.648 12.284-38.416 29.937-46.427h-14.683c-28.152 0-50.973 22.821-50.973 50.973 0 28.151 22.821 50.973 50.973 50.973h17.69c7.504 0 14.638-1.625 21.053-4.537z" fill="#e5e1e5"/></svg>