<svg height="512" viewBox="0 0 58 58" width="512" xmlns="http://www.w3.org/2000/svg"><g id="Page-1" fill="none" fill-rule="evenodd"><g id="028---Shout"><circle id="Oval" cx="29" cy="29" fill="#f0c419" r="29"/><path id="Path" d="m9 28c-.52483271-.0000353-.96033826-.4058027-.9974319-.9293229-.03709365-.5235203.33684751-.9866403.8564319-1.0606771l10.558-1.51-5.823-2.588c-.5047882-.2242276-.7322276-.8152117-.508-1.32.2242276-.5047882.8152117-.7322276 1.32-.508l9 4c.4038668.1827639.6392087.609603.5782001 1.0486804-.0610087.4390775-.4038052.7855858-.8422001.8513196l-14 2c-.04688715.00874-.09434358.0140872-.142.016z" fill="#35495e"/><path id="Path" d="m49 28c-.0478455.0001196-.0956369-.0032225-.143-.01l-14-2c-.4383949-.0657338-.7811914-.4122421-.8422001-.8513196-.0610086-.4390774.1743333-.8659165.5782001-1.0486804l9-4c.3265408-.1450498.70566-.104874.9945472.1053937.2888873.2102676.4436536.5586825.4060001.914-.0376536.3553175-.2620065.6635565-.5885473.8086063l-5.822 2.582 10.559 1.51c.5197764.0740625.8937687.5374814.8563995 1.0611762-.0373692.5236949-.4733733.9293151-.9983995.9288238z" fill="#35495e"/><path id="Path" d="m32 53.379c-.0671327.0003359-.1341314-.006029-.2-.019-.9186614-.2149116-1.8568524-.3355362-2.8-.36-.9431476.0244638-1.8813386.1450884-2.8.36-.3504775.0696668-.7114989-.052936-.9470709-.321625-.235572-.2686891-.3099056-.6426442-.195-.981.1149055-.3383559.4015934-.5897082.7520709-.659375 1.0469754-.2411219 2.1158752-.3744831 3.19-.398 1.0775433.0234914 2.1498294.1575272 3.2.4.50114.1043352.8425766.5702647.791107 1.0795563s-.4792249.8974857-.991107.8994437z" fill="#f29c1f"/><path id="Path" d="m29 48c3 0 5 1 8 1s7-.8 7-5.6-7-10.4-15-10.4-15 5.6-15 10.4 4 5.6 7 5.6 5-1 8-1z" fill="#802d40"/><path id="Path" d="m9 17c-.55228474.0022091-1.00179084-.4437153-1.00399998-.996s.44371524-1.0017908.99599998-1.004c.154 0 3.379-.12 5.079-4.372.2054499-.5130725.7879275-.76244989 1.301-.557.5130725.20545.7624499.7879275.557 1.301-2.229 5.564-6.738 5.628-6.929 5.628z" fill="#e57e25"/><path id="Path" d="m49 17c-.191 0-4.7-.064-6.929-5.628-.2054499-.5130725.0439275-1.09555.557-1.301.5130725-.20544989 1.0955501.0439275 1.301.557 1.7 4.264 4.943 4.37 5.08 4.372.5522847.0024853.9979852.4522153.9955 1.0045-.0024853.5522847-.4522153.9979853-1.0045.9955z" fill="#e57e25"/><path id="Path" d="m41.89 47.83c-1.4847339.8492005-3.1816928 1.2552214-4.89 1.17-3 0-5-1-8-1s-5 1-8 1c-1.7083072.0852214-3.4052661-.3207995-4.89-1.17 1.7041652-3.3962949 5.0959073-5.6205757 8.89-5.83 1.6009333-.1260798 3.1403038.6436055 4 2 .8596962-1.3563945 2.3990667-2.1260798 4-2 3.7940927.2094243 7.1858348 2.4337051 8.89 5.83z" fill="#ff5364"/></g></g></svg>