<svg width="35" height="35" viewBox="0 0 35 35" fill="none" xmlns="http://www.w3.org/2000/svg">
<path d="M35.0004 11.2535C35.0004 12.3753 34.639 13.4173 34.0269 14.2681C33.8616 14.4982 33.6774 14.7142 33.4776 14.914C32.5379 15.8537 31.2425 16.4369 29.817 16.4369H28.9275C28.2554 16.4369 27.6461 16.833 27.3736 17.4472L26.1875 20.1208C25.7597 21.0851 24.3188 20.7795 24.3188 19.7247V16.7362C24.3188 16.2096 24.078 15.7083 23.6573 15.3913C22.4013 14.4432 21.5859 12.9387 21.5859 11.2535C21.5859 9.82818 22.1691 8.5327 23.1088 7.59303C23.4392 7.26265 23.8134 6.97602 24.2228 6.74374C24.9762 6.31519 25.8452 6.07019 26.7694 6.07019H29.8171C32.6679 6.07012 35.0004 8.40268 35.0004 11.2535Z" fill="#3993B7"/>
<path d="M34.9997 11.2535C34.9997 12.3753 34.6382 13.4173 34.0261 14.268C32.9961 14.9444 31.7641 15.3376 30.4397 15.3376C26.8251 15.3376 23.8945 12.4078 23.8945 8.79238C23.8945 8.07721 24.0096 7.38814 24.2221 6.74358C24.9754 6.31504 25.8445 6.07004 26.7686 6.07004H29.8164C32.6672 6.07011 34.9997 8.40266 34.9997 11.2535Z" fill="#3E9DC3"/>
<path d="M19.0534 7.17642L1.9371 10.3254C1.9371 10.3254 -2.51569 21.9799 3.57698 26.0915C4.1462 26.0915 16.3752 26.0915 16.9707 26.0915C23.0633 21.9799 19.0534 7.17642 19.0534 7.17642Z" fill="#7B5341"/>
<path d="M3.6617 16.6339C2.75956 16.6339 2.02148 15.8959 2.02148 14.9937V14.3736C2.02148 13.4715 2.75956 12.7334 3.6617 12.7334C4.56384 12.7334 5.30191 13.4715 5.30191 14.3736V14.9937C5.30191 15.8959 4.56384 16.6339 3.6617 16.6339Z" fill="#F2BB88"/>
<path d="M17.4195 16.6339C16.5174 16.6339 15.7793 15.8959 15.7793 14.9937V14.3736C15.7793 13.4715 16.5174 12.7334 17.4195 12.7334C18.3217 12.7334 19.0597 13.4715 19.0597 14.3736V14.9937C19.0597 15.8959 18.3217 16.6339 17.4195 16.6339Z" fill="#F2BB88"/>
<path d="M13.5026 20.5216H7.58008V27.3655H13.5026V20.5216Z" fill="#E3A76F"/>
<path d="M13.5019 20.5216H10.541V27.3655H13.5019V20.5216Z" fill="#F2BB88"/>
<path d="M21.0815 29.4015V31.9988C21.0815 32.3398 20.8048 32.6166 20.463 32.6166H0.619131C0.277402 32.6166 0 32.3399 0 31.9988V29.4015C0 26.2182 2.48719 23.6167 5.62386 23.4338C5.73255 23.4268 5.84131 23.4239 5.95075 23.4232C5.95991 23.4225 5.96982 23.4225 5.97898 23.4225H7.1158C7.22641 23.4225 7.3325 23.4664 7.4107 23.5447L9.91484 26.0495C10.2608 26.3954 10.8214 26.3954 11.1673 26.0495L13.6714 23.5447C13.7496 23.4665 13.8556 23.4225 13.9663 23.4225H15.1031C15.1123 23.4225 15.1313 23.4232 15.1313 23.4232C15.1313 23.4232 15.3996 23.4281 15.5317 23.4387C18.6338 23.6576 21.0815 26.243 21.0815 29.4015Z" fill="#D63030"/>
<path d="M21.0821 29.4015V31.9988C21.0821 32.3398 20.8053 32.6166 20.4636 32.6166H3.25517C2.91344 32.6166 2.63672 32.3399 2.63672 31.9988V29.4015C2.63672 26.5119 4.6862 24.101 7.41128 23.5446L9.91542 26.0494C10.2614 26.3953 10.8219 26.3953 11.1678 26.0494L13.7941 23.4225H15.1038C15.1129 23.4225 15.132 23.4231 15.132 23.4231C15.132 23.4231 15.4002 23.4281 15.5323 23.4387C18.6344 23.6576 21.0821 26.243 21.0821 29.4015Z" fill="#F44545"/>
<path d="M17.4297 9.21882V15.0517C17.4297 18.4715 14.9037 21.33 11.6258 21.8538C11.2721 21.9103 10.9099 21.94 10.5414 21.94C6.75237 21.94 3.65234 18.84 3.65234 15.0517V9.21882C3.65234 7.64375 4.94147 6.35532 6.51585 6.35532H14.5669C16.1413 6.35532 17.4297 7.64375 17.4297 9.21882Z" fill="#F2BB88"/>
<path d="M17.4301 9.21882V15.0517C17.4301 18.4715 14.9041 21.33 11.6262 21.8538C8.34828 21.33 5.82227 18.4715 5.82227 15.0517V9.21882C5.82227 7.64375 7.1107 6.35532 8.68502 6.35532H14.5673C16.1417 6.35532 17.4301 7.64375 17.4301 9.21882Z" fill="#F2D1A5"/>
<path d="M6.74022 14.0759C7.24828 14.0759 7.66014 13.6641 7.66014 13.156C7.66014 12.648 7.24828 12.2361 6.74022 12.2361C6.23217 12.2361 5.82031 12.648 5.82031 13.156C5.82031 13.6641 6.23217 14.0759 6.74022 14.0759Z" fill="#7B5341"/>
<path d="M14.6523 14.0759C15.1604 14.0759 15.5722 13.6641 15.5722 13.156C15.5722 12.648 15.1604 12.2361 14.6523 12.2361C14.1443 12.2361 13.7324 12.648 13.7324 13.156C13.7324 13.6641 14.1443 14.0759 14.6523 14.0759Z" fill="#7B5341"/>
<path d="M11.356 17.5506H10.3669C9.56474 17.5506 8.91211 16.8979 8.91211 16.0958V12.5136C8.91211 12.2211 9.14918 11.9841 9.44162 11.9841C9.73406 11.9841 9.97113 12.2211 9.97113 12.5136V16.0958C9.97113 16.314 10.1487 16.4916 10.3669 16.4916H11.356C11.6485 16.4916 11.8855 16.7287 11.8855 17.0211C11.8855 17.3135 11.6484 17.5506 11.356 17.5506Z" fill="#7B5341"/>
<path d="M19.6151 4.99345V6.92365C19.6151 7.33804 19.3751 7.71648 18.9973 7.88875C13.4885 10.4056 8.83181 11.1828 5.75652 11.3721C4.46877 11.4512 3.45855 11.4278 2.77865 11.3855C2.21879 11.3509 1.7832 10.8863 1.7832 10.3258V6.31504C1.7832 4.15263 3.55241 2.38342 5.71482 2.38342H12.4633C13.9325 2.38342 15.2167 3.21508 15.869 4.43147C16.1098 3.67111 16.8228 3.11624 17.6601 3.11624H17.7377C18.7708 3.11624 19.6151 3.96061 19.6151 4.99345Z" fill="#9C6A53"/>
<path d="M19.6152 4.99345V6.92365C19.6152 7.33804 19.3752 7.71648 18.9974 7.88875C13.4886 10.4056 8.83188 11.1828 5.7566 11.3721C5.2532 11.2852 4.87695 10.8468 4.87695 10.3258V6.31504C4.87695 4.15263 6.64616 2.38342 8.80857 2.38342H12.4635C13.9327 2.38342 15.2169 3.21508 15.8691 4.43147C16.1099 3.67111 16.823 3.11624 17.6602 3.11624H17.7379C18.7709 3.11624 19.6152 3.96061 19.6152 4.99345Z" fill="#AD7B64"/>
<path d="M10.5415 28.9711C10.8804 28.9711 11.1552 28.6963 11.1552 28.3574C11.1552 28.0184 10.8804 27.7437 10.5415 27.7437C10.2025 27.7437 9.92773 28.0184 9.92773 28.3574C9.92773 28.6963 10.2025 28.9711 10.5415 28.9711Z" fill="#AF2727"/>
<path d="M10.5415 31.2162C10.8804 31.2162 11.1552 30.9414 11.1552 30.6024C11.1552 30.2635 10.8804 29.9887 10.5415 29.9887C10.2025 29.9887 9.92773 30.2635 9.92773 30.6024C9.92773 30.9414 10.2025 31.2162 10.5415 31.2162Z" fill="#AF2727"/>
<path d="M11.4772 18.8241H9.41232C9.11988 18.8241 8.88281 19.0612 8.88281 19.3536C8.88281 19.6461 9.11988 19.8832 9.41232 19.8832H11.4772C11.7696 19.8832 12.0067 19.6461 12.0067 19.3536C12.0067 19.0612 11.7696 18.8241 11.4772 18.8241Z" fill="#7B5341"/>
<path d="M29.042 11.3424C28.5656 11.7311 28.556 12.0617 28.556 12.6254C28.556 12.8003 28.4685 12.9753 28.07 12.9753C27.7493 12.9753 27.623 12.8489 27.623 12.4309C27.623 11.527 27.934 11.1382 28.2062 10.8952C28.5464 10.5744 29.1587 10.2342 29.1587 9.57331C29.1587 9.02897 28.7505 8.73741 28.1577 8.73741C27.2051 8.73741 27.3315 9.40809 26.8843 9.40809C26.6608 9.40809 26.3984 9.26228 26.3984 8.9416C26.3984 8.47512 27.0107 7.79474 28.1869 7.79474C29.4213 7.79474 30.1891 8.50424 30.1891 9.43735C30.1888 10.4384 29.3334 11.0702 29.042 11.3424ZM28.7406 14.336C28.7406 14.686 28.449 14.997 28.0796 14.997C27.7102 14.997 27.4284 14.686 27.4284 14.336C27.4284 13.9764 27.72 13.6751 28.0796 13.6751C28.4393 13.6751 28.7406 13.9764 28.7406 14.336Z" fill="#FFEA06"/>
</svg>
