<svg width="35" height="35" viewBox="0 0 35 35" fill="none" xmlns="http://www.w3.org/2000/svg">
<g clip-path="url(#clip0_850_50939)">
<path d="M32.6963 30.5634C32.6096 31.8768 32.5015 33.1902 32.3741 34.5036C22.3083 35.1654 12.2432 35.1654 2.17797 34.5036C2.05055 33.1902 1.94247 31.8768 1.85579 30.5634C1.3932 23.6025 1.5006 16.6422 2.17797 9.68127C12.2432 9.01941 22.3083 9.01941 32.3741 9.68127C33.0515 16.6422 33.1589 23.6025 32.6963 30.5634Z" fill="#F6F9F9"/>
<path d="M32.696 30.5635C32.6093 31.8769 32.5012 33.1902 32.3738 34.5036C22.308 35.1655 12.2428 35.1655 2.17765 34.5036C2.05023 33.1902 1.94215 31.8768 1.85547 30.5635H32.696Z" fill="#BCDF95"/>
<path d="M15.2217 23.3446L10.6944 20.524V19.3824C11.3796 19.2423 11.9616 18.8284 12.3355 18.1987C12.8257 17.3733 12.8668 16.3339 12.4399 15.5509C12.3005 15.2949 11.9797 15.2005 11.7234 15.3399C11.4673 15.4795 11.3728 15.8003 11.5124 16.0565C11.7605 16.5116 11.7262 17.1558 11.4272 17.6592C11.2676 17.9282 10.8913 18.3795 10.1662 18.3795C8.74589 18.3795 7.5904 17.224 7.5904 15.8037C7.5904 14.3835 8.74589 13.2279 10.1662 13.2279C11.5865 13.2279 12.7419 14.3834 12.7419 15.8037C12.7419 16.0954 12.9784 16.3319 13.2701 16.3319C13.5618 16.3319 13.7982 16.0954 13.7982 15.8037C13.7982 13.801 12.1689 12.1716 10.1661 12.1716C8.16333 12.1716 6.53397 13.801 6.53397 15.8037C6.53397 17.6271 7.88469 19.1405 9.63799 19.3971V20.5431L5.74448 22.6414C5.48772 22.7798 5.39174 23.1002 5.5301 23.357C5.66853 23.6138 5.98887 23.7098 6.2457 23.5713L9.63799 21.7431V24.625L6.59666 31.0516C6.4719 31.3153 6.58449 31.6301 6.84815 31.755C7.11175 31.8797 7.42675 31.7672 7.55151 31.5035L10.1662 25.9784L12.7808 31.5035C12.8711 31.6942 13.0608 31.8059 13.2586 31.8059C13.3343 31.8059 13.4112 31.7896 13.4842 31.755C13.7479 31.6303 13.8604 31.3154 13.7357 31.0517L10.6944 24.625V21.7685L14.6631 24.2411C14.75 24.2953 14.8465 24.3211 14.9419 24.3211C15.1182 24.3211 15.2906 24.2329 15.3906 24.0721C15.5449 23.8246 15.4692 23.4988 15.2217 23.3446Z" fill="#DD636E"/>
<path d="M22.9027 25.4626L19.7271 23.484V22.8717C19.7655 22.8653 19.804 22.8586 19.8425 22.8504C20.5621 22.6982 21.1794 22.2748 21.5806 21.6582C21.9666 21.0649 22.008 20.3596 21.694 19.7229C21.3668 19.0592 20.7102 18.5957 20.0213 18.542C19.7295 18.5199 19.4763 18.7367 19.4536 19.0275C19.431 19.3183 19.6483 19.5725 19.9392 19.5952C20.254 19.6197 20.586 19.8644 20.7467 20.1901C20.8506 20.4011 20.9262 20.7272 20.6952 21.0821C20.4478 21.4622 20.0674 21.7232 19.6238 21.817C19.1802 21.9108 18.7267 21.8264 18.3467 21.5791C17.9667 21.3318 17.7057 20.9513 17.6117 20.5078C17.5179 20.0642 17.6023 19.6106 17.8496 19.2306C18.1097 18.8309 18.5606 18.5009 19.0557 18.3481C19.3451 18.2587 19.9015 18.1548 20.3746 18.4625C20.6192 18.6217 20.9462 18.5524 21.1053 18.3079C21.2645 18.0634 21.1952 17.7362 20.9507 17.5771C20.3325 17.1749 19.5488 17.0902 18.744 17.3388C18.0093 17.5656 17.3606 18.0453 16.9642 18.6546C16.563 19.2711 16.426 20.0069 16.5783 20.7265C16.7305 21.4462 17.1539 22.0634 17.7705 22.4646C18.0502 22.6466 18.3545 22.7739 18.6707 22.8449V23.265L14.9422 23.2648C14.6505 23.2648 14.4141 23.5013 14.4141 23.793C14.4141 24.0847 14.6505 24.3212 14.9422 24.3212L18.6707 24.3214V26.474L16.5044 31.0517C16.3796 31.3154 16.4922 31.6302 16.7559 31.755C16.8288 31.7896 16.9057 31.8059 16.9815 31.8059C17.1792 31.8058 17.369 31.6942 17.4592 31.5035L19.1989 27.8274L20.9385 31.5035C21.0633 31.7672 21.3782 31.8797 21.6419 31.755C21.9056 31.6302 22.0181 31.3153 21.8934 31.0516L19.7271 26.4739V24.7287L22.3442 26.3593C22.4311 26.4134 22.5276 26.4392 22.623 26.4392C22.7993 26.4392 22.9717 26.351 23.0717 26.1903C23.226 25.9426 23.1503 25.6169 22.9027 25.4626Z" fill="#80B4FB"/>
<path d="M27.5675 18.9432C25.7005 18.9432 24.1816 17.4244 24.1816 15.5574C24.1816 13.6904 25.7005 12.1716 27.5675 12.1716C29.4344 12.1716 30.9533 13.6904 30.9533 15.5574C30.9533 17.4244 29.4344 18.9432 27.5675 18.9432ZM27.5675 13.2279C26.2829 13.2279 25.2379 14.2729 25.2379 15.5574C25.2379 16.842 26.2829 17.887 27.5675 17.887C28.852 17.887 29.897 16.842 29.897 15.5574C29.897 14.2729 28.852 13.2279 27.5675 13.2279Z" fill="#F6E266"/>
<path d="M23.5121 13.228C23.4577 13.228 23.4022 13.2195 23.3477 13.2016L21.2506 12.5144C20.9734 12.4237 20.8223 12.1253 20.9131 11.8481C21.0039 11.5709 21.3021 11.4197 21.5795 11.5106L23.6765 12.1978C23.9537 12.2886 24.1049 12.587 24.014 12.8642C23.9411 13.0867 23.7343 13.228 23.5121 13.228Z" fill="#F6E266"/>
<path d="M22.6243 16.3319H21.077C20.7852 16.3319 20.5488 16.0954 20.5488 15.8037C20.5488 15.512 20.7853 15.2756 21.077 15.2756H22.6243C22.916 15.2756 23.1524 15.512 23.1524 15.8037C23.1524 16.0954 22.916 16.3319 22.6243 16.3319Z" fill="#F6E266"/>
<path d="M24.2174 22.3539C24.1429 22.3539 24.0674 22.3381 23.9953 22.3046C23.7308 22.1818 23.6159 21.8677 23.7387 21.6032L24.6518 19.636C24.7746 19.3713 25.0885 19.2565 25.3533 19.3793C25.6179 19.5022 25.7328 19.8162 25.61 20.0808L24.6968 22.0479C24.6074 22.2405 24.4166 22.3539 24.2174 22.3539Z" fill="#F6E266"/>
<path d="M29.6353 22.8443C29.3819 22.8443 29.1581 22.6613 29.115 22.403L28.7046 19.9453C28.6565 19.6576 28.8508 19.3854 29.1385 19.3374C29.4261 19.2892 29.6984 19.4836 29.7464 19.7714L30.1569 22.229C30.2049 22.5168 30.0106 22.789 29.7229 22.8369C29.6935 22.8419 29.6642 22.8443 29.6353 22.8443Z" fill="#F6E266"/>
<path d="M8.78596 16.055C8.4942 16.055 8.25781 15.8185 8.25781 15.5268V15.4945C8.25781 15.2028 8.49427 14.9664 8.78596 14.9664C9.07772 14.9664 9.3141 15.2028 9.3141 15.4945V15.5268C9.31417 15.8185 9.07772 16.055 8.78596 16.055Z" fill="#407093"/>
<path d="M10.1668 15.446C9.87506 15.446 9.63867 15.2096 9.63867 14.9179V14.8856C9.63867 14.5939 9.87513 14.3574 10.1668 14.3574C10.4585 14.3574 10.695 14.5939 10.695 14.8856V14.9179C10.695 15.2095 10.4585 15.446 10.1668 15.446Z" fill="#407093"/>
<path d="M18.4594 20.7829C18.3574 20.7829 18.2543 20.7534 18.1635 20.6919C17.9221 20.5282 17.859 20.1998 18.0227 19.9583L18.0409 19.9315C18.2045 19.6901 18.5329 19.627 18.7744 19.7906C19.0158 19.9543 19.0789 20.2828 18.9152 20.5242L18.897 20.551C18.7949 20.7016 18.6286 20.7829 18.4594 20.7829Z" fill="#407093"/>
<path d="M19.9437 21.0526C19.8418 21.0526 19.7387 21.0231 19.6479 20.9616C19.4064 20.798 19.3433 20.4695 19.5071 20.228L19.5253 20.2013C19.6888 19.9598 20.0172 19.8967 20.2587 20.0604C20.5002 20.224 20.5633 20.5525 20.3996 20.7939L20.3814 20.8207C20.2793 20.9713 20.113 21.0526 19.9437 21.0526Z" fill="#407093"/>
<path d="M3.49104 31.5432C3.19928 31.5432 2.96289 31.3068 2.96289 31.0151V30.1122C2.96289 29.8205 3.19935 29.584 3.49104 29.584C3.78272 29.584 4.01918 29.8205 4.01918 30.1122V31.0151C4.01925 31.3068 3.78279 31.5432 3.49104 31.5432Z" fill="#80BC93"/>
<path d="M4.88557 31.5432C4.59381 31.5432 4.35742 31.3068 4.35742 31.0151V30.1122C4.35742 29.8205 4.59388 29.584 4.88557 29.584C5.17726 29.584 5.41371 29.8205 5.41371 30.1122V31.0151C5.41371 31.3068 5.17732 31.5432 4.88557 31.5432Z" fill="#80BC93"/>
<path d="M23.5203 31.5432C23.2286 31.5432 22.9922 31.3068 22.9922 31.0151V30.1122C22.9922 29.8205 23.2286 29.584 23.5203 29.584C23.8121 29.584 24.0485 29.8205 24.0485 30.1122V31.0151C24.0485 31.3068 23.812 31.5432 23.5203 31.5432Z" fill="#80BC93"/>
<path d="M24.9149 31.5432C24.6231 31.5432 24.3867 31.3068 24.3867 31.0151V30.1122C24.3867 29.8205 24.6232 29.584 24.9149 29.584C25.2066 29.584 25.443 29.8205 25.443 30.1122V31.0151C25.443 31.3068 25.2066 31.5432 24.9149 31.5432Z" fill="#80BC93"/>
<path d="M27.8289 31.5432C27.5372 31.5432 27.3008 31.3068 27.3008 31.0151V30.1122C27.3008 29.8205 27.5372 29.584 27.8289 29.584C28.1207 29.584 28.3571 29.8205 28.3571 30.1122V31.0151C28.3571 31.3068 28.1207 31.5432 27.8289 31.5432Z" fill="#80BC93"/>
<path d="M29.2254 31.5432C28.9337 31.5432 28.6973 31.3068 28.6973 31.0151V30.1122C28.6973 29.8205 28.9337 29.584 29.2254 29.584C29.5172 29.584 29.7536 29.8205 29.7536 30.1122V31.0151C29.7536 31.3068 29.5171 31.5432 29.2254 31.5432Z" fill="#80BC93"/>
<path d="M30.866 31.5432C30.5743 31.5432 30.3379 31.3068 30.3379 31.0151V30.1122C30.3379 29.8205 30.5743 29.584 30.866 29.584C31.1578 29.584 31.3942 29.8205 31.3942 30.1122V31.0151C31.3942 31.3068 31.1577 31.5432 30.866 31.5432Z" fill="#80BC93"/>
<path d="M20.6203 7.77143C20.4186 7.77143 20.226 7.65529 20.1382 7.45937C20.0188 7.19325 20.1377 6.88071 20.4038 6.76129L22.0619 6.0174C22.3281 5.89804 22.6406 6.01692 22.76 6.28305C22.8793 6.54917 22.7605 6.86171 22.4943 6.98113L20.8363 7.72502C20.7661 7.75646 20.6926 7.77143 20.6203 7.77143Z" fill="#61A2F9"/>
<path d="M22.5866 4.10846C22.5866 4.10846 21.1496 5.02249 20.998 7.07348C22.6307 8.32391 24.2689 7.85824 24.2689 7.85824L24.732 5.3982L22.5866 4.10846Z" fill="#F6E266"/>
<path d="M23.1291 5.31705C23.1291 5.31705 21.6273 6.08657 20.998 7.07355C21.1499 5.02249 22.5869 4.10846 22.5869 4.10846L24.7323 5.39813L23.1291 5.31705Z" fill="#ECBE6B"/>
<path d="M22.5859 4.10843C25.5935 2.63897 28.6459 1.26951 31.7432 0C32.5481 1.14038 33.1089 2.39027 33.4255 3.74981C30.4179 5.21928 27.3655 6.5888 24.2683 7.85825L22.5859 4.10843Z" fill="#80B4FB"/>
<path d="M23.1282 5.31703L22.5859 4.10843C25.5936 2.63862 28.6455 1.26938 31.7431 0C32.0019 0.367024 32.236 0.745943 32.4447 1.13553C29.3236 2.495 26.2186 3.88886 23.1282 5.31703Z" fill="#61A2F9"/>
<path d="M16.5526 11.9194C16.4175 11.9194 16.2823 11.8678 16.1792 11.7647L14.9594 10.545C14.7531 10.3387 14.7531 10.0043 14.9594 9.79799C15.1657 9.59175 15.5001 9.59175 15.7063 9.79799L16.9261 11.0177C17.1324 11.224 17.1324 11.5584 16.9261 11.7647C16.8229 11.8678 16.6877 11.9194 16.5526 11.9194Z" fill="#DA4A54"/>
<path d="M12.9238 10.6682C12.9238 10.6682 14.2892 11.6861 16.26 11.0982C16.8479 9.12743 15.83 7.76202 15.83 7.76202L13.3661 8.20424L12.9238 10.6682Z" fill="#F6E266"/>
<path d="M13.8605 9.73151C13.8605 9.73151 15.1139 10.8614 16.2601 11.0984C14.2892 11.686 12.9238 10.6681 12.9238 10.6681L13.366 8.20422L13.8605 9.73151Z" fill="#ECBE6B"/>
<path d="M12.9232 10.6682C10.48 8.38006 8.11438 6.0144 5.82617 3.57122C6.60561 2.41327 7.57434 1.44454 8.73229 0.6651C11.1755 2.95324 13.5411 5.31891 15.8293 7.76209L12.9232 10.6682Z" fill="#DD636E"/>
<path d="M13.8597 9.7315L12.923 10.6682C10.4796 8.38004 8.1143 6.0148 5.82617 3.5713C6.07712 3.19881 6.34803 2.84532 6.6378 2.51166C9.01855 4.94518 11.4257 7.3513 13.8597 9.7315Z" fill="#DA4A54"/>
</g>
<defs>
<clipPath id="clip0_850_50939">
<rect width="35" height="35" fill="white"/>
</clipPath>
</defs>
</svg>
