<svg width="35" height="35" viewBox="0 0 35 35" fill="none" xmlns="http://www.w3.org/2000/svg">
<path d="M29.1085 11.7646C29.1085 5.26716 23.9114 0 17.5005 0C11.0897 0 5.89258 5.26716 5.89258 11.7646C5.89258 18.262 11.0897 18.7521 17.5005 18.7521C23.9114 18.7521 29.1085 18.2619 29.1085 11.7646Z" fill="#665E66"/>
<path d="M17.3481 18.7517C11.0077 18.7439 5.89258 18.2106 5.89258 11.7646C5.89258 5.2674 11.09 0.000244141 17.5007 0.000244141C14.2378 0.000244141 11.593 5.2674 11.593 11.7646C11.593 18.1607 14.156 18.7356 17.3481 18.7517Z" fill="#454045"/>
<path d="M25.8361 16.0681C25.7127 18.4681 23.7922 20.3787 21.3917 20.4917C19.3327 20.589 17.2738 20.6083 15.2148 20.5505H15.2112C14.6889 20.536 14.1671 20.5161 13.6448 20.4917C11.2447 20.3787 9.32378 18.4681 9.20087 16.0681C9.11022 14.3064 9.10297 12.5443 9.17899 10.7821V10.7816C9.20189 10.2327 9.23368 9.68384 9.27326 9.13498C9.65388 7.32701 11.1437 4.75609 13.225 3.85005C13.2865 3.82346 13.3484 3.79694 13.411 3.77144C14.253 3.42622 15.1872 3.18403 16.1802 3.06843C16.6155 3.01634 17.0623 2.9903 17.5185 2.9903C18.5303 2.9903 19.4999 3.12045 20.3971 3.3595V3.36005C23.2059 4.10681 25.305 6.94222 25.7637 9.14127C25.7637 9.14182 25.7637 9.1423 25.7643 9.14284C25.9304 11.4513 25.9544 13.7597 25.8361 16.0681Z" fill="#F1D0A5"/>
<path d="M15.2148 20.5506H15.2112C14.6889 20.536 14.1671 20.5162 13.6448 20.4917C11.2447 20.3787 9.32377 18.4681 9.20086 16.0681C9.08212 13.7576 9.1066 11.4461 9.27326 9.13509C9.65388 7.32712 11.1437 5.78158 13.225 4.87555C13.2865 4.84896 13.3484 4.82243 13.4109 4.79694C13.2682 8.27643 13.2344 13.3171 13.3073 16.1665C13.3635 18.3567 14.1639 20.1429 15.2148 20.5506Z" fill="#F1B986"/>
<path d="M20.3977 4.38496V4.3855C19.0147 6.75744 15.6987 9.87558 14.3792 9.13094C13.8965 8.85805 13.9594 8.29621 14.2318 7.69164C14.1928 7.75986 13.3408 9.23717 12.1718 10.2219C11.2845 10.9697 10.2149 11.4342 9.17969 10.7822V10.7816C9.20259 10.2328 9.23437 9.6839 9.27395 9.13504C9.65458 7.32708 11.1444 5.78154 13.2257 4.8755C13.2872 4.84891 13.3491 4.82239 13.4117 4.79689C14.2537 4.45167 15.1879 4.20948 16.1809 4.09388C16.6162 4.04179 17.063 4.01575 17.5192 4.01575C18.5309 4.01582 19.5005 4.14597 20.3977 4.38496Z" fill="#665E66"/>
<path d="M12.1718 10.2218C11.2845 10.9696 10.2149 11.4341 9.17969 10.7821V10.7816C9.20259 10.2327 9.23437 9.68384 9.27395 9.13498C9.65458 7.32701 11.1444 5.78148 13.2257 4.87544C13.2872 4.84885 13.3491 4.82233 13.4117 4.79683C14.2537 4.45161 15.1879 4.20942 16.1809 4.09382C16.6162 4.04173 17.063 4.01569 17.5192 4.01569C14.6208 5.02706 8.63657 10.2218 12.1718 10.2218Z" fill="#454045"/>
<path d="M17.519 17.8519C16.591 17.8519 15.7343 17.31 15.3363 16.4715C15.2112 16.208 15.3235 15.893 15.587 15.7679C15.8506 15.6429 16.1656 15.7551 16.2906 16.0186C16.5146 16.4905 16.9968 16.7955 17.519 16.7955C18.0412 16.7955 18.5234 16.4905 18.7474 16.0186C18.8724 15.7551 19.1875 15.6429 19.451 15.7679C19.7145 15.893 19.8268 16.208 19.7017 16.4715C19.3037 17.31 18.447 17.8519 17.519 17.8519Z" fill="#DA4A54"/>
<path d="M13.638 14.3066C14.0572 14.3066 14.397 13.8008 14.397 13.1768C14.397 12.5529 14.0572 12.0471 13.638 12.0471C13.2188 12.0471 12.8789 12.5529 12.8789 13.1768C12.8789 13.8008 13.2188 14.3066 13.638 14.3066Z" fill="#454045"/>
<path d="M21.3997 14.3066C21.8189 14.3066 22.1588 13.8008 22.1588 13.1768C22.1588 12.5529 21.8189 12.0471 21.3997 12.0471C20.9805 12.0471 20.6406 12.5529 20.6406 13.1768C20.6406 13.8008 20.9805 14.3066 21.3997 14.3066Z" fill="#454045"/>
<path d="M12.3243 16.8014C13.1085 16.8014 13.7442 16.3983 13.7442 15.901C13.7442 15.4037 13.1085 15.0005 12.3243 15.0005C11.54 15.0005 10.9043 15.4037 10.9043 15.901C10.9043 16.3983 11.54 16.8014 12.3243 16.8014Z" fill="#DF9380"/>
<path d="M22.7149 16.8014C23.4991 16.8014 24.1348 16.3983 24.1348 15.901C24.1348 15.4037 23.4991 15.0005 22.7149 15.0005C21.9307 15.0005 21.2949 15.4037 21.2949 15.901C21.2949 16.3983 21.9307 16.8014 22.7149 16.8014Z" fill="#F9A58E"/>
<path d="M25.8586 8.36809C25.8586 8.65397 25.8315 8.93622 25.7784 9.21164C25.215 6.27574 21.7323 4.01578 17.5191 4.01578C17.063 4.01578 16.6157 4.04183 16.1809 4.09392C15.2508 4.20172 14.3729 4.42095 13.5741 4.73233C13.4564 4.77765 13.3403 4.82557 13.2257 4.87554C11.1163 5.79408 9.61343 7.36929 9.25885 9.20905C9.20628 8.93465 9.17969 8.65342 9.17969 8.36809C9.17969 6.17163 10.8012 4.24909 13.2257 3.1941C13.4768 3.08473 13.7366 2.98479 14.0037 2.89517C14.6843 2.665 15.4149 2.50046 16.1809 2.41139C16.6158 2.3593 17.063 2.3338 17.5192 2.3338C22.125 2.33387 25.8586 5.03543 25.8586 8.36809Z" fill="#DA4A54"/>
<path d="M14.0037 2.8952L13.5741 4.73236C13.4564 4.77768 13.3403 4.8256 13.2257 4.87557C11.1163 5.79412 9.61343 7.36932 9.25885 9.20908C9.20628 8.93469 9.17969 8.65345 9.17969 8.36812C9.17969 6.17167 10.8012 4.24913 13.2257 3.19414C13.4767 3.08469 13.7365 2.98475 14.0037 2.8952Z" fill="#C32430"/>
<path d="M27.9643 16.6641L18.8109 18.6478L18.8108 18.6479V18.6477H16.1903V18.6478L16.1902 18.6477L7.03688 16.664C6.10336 16.4613 5.2207 17.1732 5.2207 18.1282V29.1479C5.2207 29.8533 5.71289 30.4635 6.40195 30.6128L16.1903 32.734L16.1904 32.7339L18.8108 32.734H18.811L28.5993 30.6128C29.2883 30.4635 29.7805 29.8533 29.7805 29.1479V18.1283C29.7804 17.1732 28.8978 16.4613 27.9643 16.6641Z" fill="#DFEAEF"/>
<path d="M30.7655 19.2218V31.1261C30.7655 31.8881 30.2338 32.5472 29.4895 32.7084L18.9156 35L17.5508 34.6582V20.1249L18.9156 19.7831L28.8036 17.6401C29.8121 17.4211 30.7655 18.1901 30.7655 19.2218Z" fill="#80B4FB"/>
<path d="M17.5506 20.1249V34.6582L16.0844 35L5.51044 32.7084C4.76607 32.5472 4.23438 31.888 4.23438 31.1261V19.2218C4.23438 18.1901 5.18792 17.4211 6.19636 17.6401L16.0844 19.7831L17.5506 20.1249Z" fill="#5490F9"/>
<path d="M16.0859 35V19.783H18.9167V35" fill="#BED8FB"/>
<path d="M22.4867 23.8085C22.2435 23.8085 22.0247 23.6396 21.9711 23.3922C21.9093 23.1071 22.0903 22.8259 22.3754 22.7641L28.2239 21.4965C28.5092 21.4348 28.7902 21.6157 28.852 21.9008C28.9138 22.1858 28.7328 22.4671 28.4477 22.5289L22.5992 23.7964C22.5614 23.8046 22.5238 23.8085 22.4867 23.8085Z" fill="#454045"/>
<path d="M22.4867 25.7712C22.2435 25.7712 22.0247 25.6022 21.9711 25.3548C21.9093 25.0698 22.0903 24.7885 22.3754 24.7267L28.2239 23.4592C28.5092 23.3974 28.7902 23.5784 28.852 23.8634C28.9138 24.1485 28.7328 24.4297 28.4477 24.4915L22.5992 25.7591C22.5614 25.7673 22.5238 25.7712 22.4867 25.7712Z" fill="#454045"/>
<path d="M3.9446 24.9737H3.39082C2.57304 24.9737 1.91016 24.3107 1.91016 23.493V22.1639C1.91016 21.3461 2.57311 20.6832 3.39082 20.6832H3.9446C4.76238 20.6832 5.42526 21.3462 5.42526 22.1639V23.493C5.42526 24.3108 4.76231 24.9737 3.9446 24.9737Z" fill="#F1D0A5"/>
<path d="M4.22918 24.9458C4.13765 24.9648 4.04187 24.974 3.94467 24.974H3.39041C2.57283 24.974 1.91016 24.3106 1.91016 23.493V22.1641C1.91016 21.3457 2.57283 20.683 3.39041 20.683H3.94467C4.04187 20.683 4.13765 20.6922 4.22918 20.7112C3.54818 20.8436 3.03412 21.4436 3.03412 22.1641V23.493C3.03412 24.2135 3.54818 24.8135 4.22918 24.9458Z" fill="#F1B986"/>
<path d="M31.6106 24.9737H31.0568C30.2391 24.9737 29.5762 24.3107 29.5762 23.493V22.1639C29.5762 21.3461 30.2391 20.6832 31.0568 20.6832H31.6106C32.4284 20.6832 33.0913 21.3462 33.0913 22.1639V23.493C33.0913 24.3108 32.4283 24.9737 31.6106 24.9737Z" fill="#F1D0A5"/>
<path d="M31.8952 24.9458C31.8037 24.9648 31.7079 24.974 31.6107 24.974H31.0564C30.2388 24.974 29.5762 24.3106 29.5762 23.493V22.1641C29.5762 21.3457 30.2388 20.683 31.0564 20.683H31.6107C31.7079 20.683 31.8037 20.6922 31.8952 20.7112C31.2142 20.8436 30.7001 21.4436 30.7001 22.1641V23.493C30.7001 24.2135 31.2142 24.8135 31.8952 24.9458Z" fill="#F1B986"/>
</svg>
