<svg width="35" height="35" viewBox="0 0 35 35" fill="none" xmlns="http://www.w3.org/2000/svg">
<g clip-path="url(#clip0_850_50666)">
<path d="M15.9459 8.45386H30.7989C32.2102 8.45386 33.3542 9.59789 33.3542 11.0091V11.2344C33.3542 12.6457 32.2102 13.7897 30.7989 13.7897H15.9459C14.5347 13.7897 13.3906 12.6457 13.3906 11.2344V11.0091C13.3906 9.59789 14.5347 8.45386 15.9459 8.45386Z" fill="#27394C"/>
<path d="M35.0008 16.5528C35.0008 18.0151 33.8746 19.2134 32.4426 19.328C32.3679 19.3344 32.292 19.3375 32.216 19.3375C32.0211 19.3375 31.8311 19.3179 31.6475 19.2793H14.8747C14.6911 19.3179 14.5012 19.3375 14.3062 19.3375H14.3043C12.7667 19.3363 11.5215 18.0905 11.5215 16.5529C11.5215 15.1032 12.6293 13.9125 14.0447 13.7814C14.1308 13.7725 14.2182 13.7687 14.3062 13.7687C14.4233 13.7687 14.5379 13.7757 14.6512 13.7896H31.871C31.9843 13.7757 32.0989 13.7687 32.216 13.7687C32.3812 13.7687 32.5433 13.7833 32.7003 13.8111C34.0075 14.0396 35.0008 15.1803 35.0008 16.5528Z" fill="#FFCBB3"/>
<path d="M32.7005 13.8111V17.3384C32.7005 18.0233 32.6112 18.6899 32.4428 19.328C32.3681 19.3344 32.2922 19.3375 32.2162 19.3375C32.0212 19.3375 31.8313 19.3179 31.6477 19.2793H14.8748C14.6912 19.3179 14.5013 19.3375 14.3064 19.3375H14.3044C14.1348 18.6963 14.0449 18.0272 14.0449 17.3384V13.7814C14.131 13.7725 14.2184 13.7687 14.3064 13.7687C14.4235 13.7687 14.538 13.7757 14.6514 13.7896H31.8712C31.9845 13.7757 32.0991 13.7687 32.2162 13.7687C32.3814 13.7687 32.5435 13.7833 32.7005 13.8111Z" fill="#E89876"/>
<path d="M33.4818 17.1729C33.2747 17.1729 33.0776 17.0523 32.9898 16.8504C32.7657 16.3351 32.0891 16.4999 32.0128 16.5204C31.7281 16.6012 31.4333 16.4354 31.3524 16.1505C31.2715 15.8656 31.4388 15.5687 31.7236 15.4878C32.291 15.3267 33.4914 15.3148 33.9731 16.4228C34.0912 16.6944 33.9667 17.0102 33.6951 17.1283C33.6257 17.1585 33.5532 17.1729 33.4818 17.1729Z" fill="#E89876"/>
<path d="M31.8694 31.3823V34.9848H14.873V31.3823C14.873 26.6889 18.6776 22.8838 23.3709 22.8838C24.035 22.8838 24.6813 22.9604 25.3017 23.1041C26.8735 23.4694 28.2776 24.2708 29.3803 25.3729C30.918 26.9112 31.8694 29.0356 31.8694 31.3823Z" fill="#27394C"/>
<path d="M31.8692 31.3822V34.9848H18.7344V31.3822C18.7344 27.3529 21.5387 23.9783 25.3015 23.104C26.8733 23.4693 28.2774 24.2707 29.3801 25.3729C30.9178 26.9111 31.8692 29.0356 31.8692 31.3822Z" fill="#3E5268"/>
<path d="M19.2207 25.7518L23.3707 34.1736L27.5207 25.7518" fill="white"/>
<path d="M19.7246 26.185L23.3723 30.8444L27.02 26.185" fill="#FC74AF"/>
<path d="M27.5075 25.7814L25.6153 29.6211L23.3719 27.179H23.372L21.1286 29.6211L19.2363 25.7814" fill="#BBB8CC"/>
<path d="M23.3719 34.1736V34.985H21.2844L19.1083 32.8089L20.0169 30.9223H17.9202L16.8457 25.9403C17.339 25.3476 17.9123 24.8243 18.5486 24.3854L23.3719 34.1736Z" fill="#172635"/>
<path d="M23.3711 34.1736V34.985H25.4586L27.6347 32.8089L26.726 30.9223H28.8228L29.8973 25.9403C29.404 25.3476 28.8307 24.8243 28.1944 24.3854L23.3711 34.1736Z" fill="#172635"/>
<path d="M31.8694 12.5349V18.3221C31.8694 22.4634 28.9068 25.9128 24.9852 26.6668C24.4629 26.7675 23.9229 26.82 23.3709 26.82C18.6776 26.82 14.873 23.0155 14.873 18.3221V12.5349C14.873 7.84162 18.6776 4.03644 23.3709 4.03644C23.923 4.03644 24.4629 4.08898 24.9852 4.18964C26.6849 4.51627 28.2041 5.34939 29.3803 6.52552C30.918 8.06374 31.8694 10.1882 31.8694 12.5349Z" fill="#E89876"/>
<path d="M31.8701 12.5349V18.3221C31.8701 22.4634 28.9075 25.9128 24.9858 26.6668C21.0642 25.9128 18.1016 22.4634 18.1016 18.3221V12.5349C18.1016 8.39358 21.0642 4.94355 24.9858 4.18964C26.6855 4.51627 28.2048 5.34939 29.381 6.52552C30.9186 8.06374 31.8701 10.1882 31.8701 12.5349Z" fill="#FFCBB3"/>
<path d="M19.669 17.7124C19.3729 17.7124 19.1328 17.4723 19.1328 17.1762V15.0873C19.1328 14.7912 19.3729 14.5512 19.669 14.5512C19.9651 14.5512 20.2051 14.7912 20.2051 15.0873V17.1762C20.2051 17.4723 19.9652 17.7124 19.669 17.7124Z" fill="#172635"/>
<path d="M27.0733 17.7124C26.7772 17.7124 26.5371 17.4723 26.5371 17.1762V15.0873C26.5371 14.7912 26.7772 14.5512 27.0733 14.5512C27.3694 14.5512 27.6094 14.7912 27.6094 15.0873V17.1762C27.6094 17.4723 27.3694 17.7124 27.0733 17.7124Z" fill="#172635"/>
<path d="M31.3659 0.0393982L27.5534 3.85187C27.2305 3.05885 26.4531 2.49924 25.544 2.49924C24.798 2.49924 24.1403 2.87591 23.7497 3.44925C22.7533 2.2218 21.233 1.43721 19.5286 1.43721C16.526 1.43721 14.0918 3.87139 14.0918 6.87405C14.0918 9.8767 16.526 12.3109 19.5286 12.3109C20.783 12.3109 21.9372 11.885 22.8571 11.1714C25.5571 12.7189 29.0598 12.341 31.3659 10.035C34.1261 7.27467 34.1261 2.79956 31.3659 0.0393982Z" fill="#3E5268"/>
<path d="M17.3543 6.87397C17.3543 9.308 18.954 11.369 21.1592 12.0616C20.6455 12.2237 20.0971 12.3107 19.5286 12.3107C16.5259 12.3107 14.0918 9.87669 14.0918 6.87404C14.0918 3.87138 16.5259 1.43735 19.5286 1.43735C20.0971 1.43735 20.6443 1.52435 21.1592 1.68648C18.954 2.37892 17.3543 4.43993 17.3543 6.87397Z" fill="#27394C"/>
<path d="M24.3783 32.1305L23.3718 34.1736L22.3652 32.1305L23.3718 30.8444L24.3783 32.1305Z" fill="#FC74AF"/>
<path d="M25.3937 20.862C25.3937 21.9787 24.4887 22.8837 23.372 22.8837C22.2554 22.8837 21.3496 21.9787 21.3496 20.862C21.3496 20.4574 21.469 20.1707 21.6742 19.9713C22.0345 19.6174 22.66 19.5295 23.372 19.5295C24.0833 19.5295 24.7096 19.6174 25.0699 19.9713C25.275 20.1707 25.3937 20.4567 25.3937 20.862Z" fill="#FC74AF"/>
<path d="M25.0695 19.9713C24.7092 20.3244 24.083 20.4124 23.3717 20.4124C22.6597 20.4124 22.0341 20.3244 21.6738 19.9713C22.0341 19.6174 22.6597 19.5295 23.3717 19.5295C24.083 19.5295 24.7092 19.6174 25.0695 19.9713Z" fill="white"/>
<path d="M10.5274 28.0113V30.3176H8.61719V28.0113C8.61719 27.4837 9.04469 27.0562 9.57227 27.0562C9.71954 27.0562 9.85966 27.0898 9.98405 27.1491C10.305 27.3028 10.5274 27.631 10.5274 28.0113Z" fill="#E89876"/>
<path d="M10.528 28.0113V29.2452H9.44141V28.0113C9.44141 27.631 9.66302 27.3028 9.98472 27.1491C10.3057 27.3028 10.528 27.631 10.528 28.0113Z" fill="#FFCBB3"/>
<path d="M7.66797 32.3792L10.2348 34.9633H16.6388L10.8707 29.2451L8.9489 31.0982L7.66797 32.3792Z" fill="#3E5268"/>
<path d="M10.8709 29.2456L9.29962 30.7826L7.66825 32.3789L5.5043 31.9178C5.19261 31.8514 4.92524 31.6805 4.7358 31.446C4.71507 31.4203 4.69433 31.3931 4.67575 31.3652C4.52348 31.1458 4.43555 30.8791 4.43555 30.596C4.43555 29.8504 5.04034 29.2456 5.78668 29.2456H10.8709Z" fill="#FFCBB3"/>
<path d="M9.29965 30.7826L7.66829 32.379L5.50433 31.9179C5.19264 31.8514 4.92528 31.6805 4.73583 31.446C4.7151 31.4203 4.69437 31.3931 4.67578 31.3653C4.91884 31.0128 5.32561 30.7826 5.78671 30.7826H9.29965Z" fill="#E89876"/>
<path d="M7.66797 32.3792L10.2348 34.9633H12.7967L8.9489 31.0982L7.66797 32.3792Z" fill="#27394C"/>
<path d="M0 2.15009V13.5088C0 14.6879 0.955871 15.6439 2.13507 15.6439H12.5767L15.9554 19.0888C16.4576 19.6008 17.328 19.2452 17.328 18.528V15.6439V2.15009C17.328 0.970957 16.3721 0.0150146 15.1929 0.0150146H2.13507C0.955871 0.0150861 0 0.970957 0 2.15009Z" fill="#96EFFF"/>
<path d="M14.3471 4.16226H2.98148C2.68537 4.16226 2.44531 3.9222 2.44531 3.6261C2.44531 3.32999 2.68537 3.08994 2.98148 3.08994H14.3471C14.6432 3.08994 14.8833 3.32999 14.8833 3.6261C14.8833 3.9222 14.6432 4.16226 14.3471 4.16226Z" fill="#3E5268"/>
<path d="M14.3471 6.84265H2.98148C2.68537 6.84265 2.44531 6.60259 2.44531 6.30649C2.44531 6.01038 2.68537 5.77032 2.98148 5.77032H14.3471C14.6432 5.77032 14.8833 6.01038 14.8833 6.30649C14.8833 6.60259 14.6432 6.84265 14.3471 6.84265Z" fill="#3E5268"/>
<path d="M14.3471 9.52304H2.98148C2.68537 9.52304 2.44531 9.28298 2.44531 8.98688C2.44531 8.69077 2.68537 8.45071 2.98148 8.45071H14.3471C14.6432 8.45071 14.8833 8.69077 14.8833 8.98688C14.8833 9.28298 14.6432 9.52304 14.3471 9.52304Z" fill="#3E5268"/>
<path d="M14.3471 12.2034H2.98148C2.68537 12.2034 2.44531 11.9634 2.44531 11.6673C2.44531 11.3712 2.68537 11.1311 2.98148 11.1311H14.3471C14.6432 11.1311 14.8833 11.3712 14.8833 11.6673C14.8833 11.9634 14.6432 12.2034 14.3471 12.2034Z" fill="#3E5268"/>
</g>
<defs>
<clipPath id="clip0_850_50666">
<rect width="35" height="35" fill="white"/>
</clipPath>
</defs>
</svg>
