<svg width="32" height="32" viewBox="0 0 32 32" fill="none" xmlns="http://www.w3.org/2000/svg">
<path d="M19.6767 0.522187V26.6094C19.6767 26.8978 19.4429 27.1316 19.1545 27.1316H2.32108C2.03264 27.1316 1.79889 26.8978 1.79889 26.6094V25.2771C1.79889 25.1081 1.91989 24.9617 2.08664 24.934C2.91345 24.7969 3.54364 24.0786 3.54364 23.2128C3.54364 22.3476 2.91345 21.6289 2.08658 21.4916C1.91983 21.4639 1.79883 21.3176 1.79883 21.1485V18.8458C1.79883 18.6768 1.91983 18.5304 2.08658 18.5027C2.91339 18.3656 3.54358 17.6473 3.54358 16.7815C3.54358 15.9157 2.91339 15.1974 2.08658 15.0603C1.91977 15.0326 1.79883 14.8863 1.79883 14.7172V12.4145C1.79883 12.2454 1.91977 12.0991 2.08658 12.0714C2.91345 11.9341 3.54364 11.2154 3.54364 10.3502C3.54364 9.48438 2.91345 8.76612 2.08664 8.629C1.91983 8.60131 1.79889 8.45494 1.79889 8.28588V5.98244C1.79889 5.81337 1.91989 5.667 2.08664 5.63931C2.91345 5.50219 3.54364 4.78394 3.54364 3.91812C3.54364 3.05294 2.91345 2.33419 2.08658 2.19694C1.91983 2.16925 1.79883 2.02287 1.79883 1.85381V0.522187C1.79883 0.233812 2.03264 0 2.32108 0H19.1545C19.4429 0 19.6767 0.233812 19.6767 0.522187Z" fill="#EFEDEF"/>
<path d="M19.1546 0H17.1133C17.4017 0 17.6355 0.233812 17.6355 0.522187V26.6094C17.6355 26.8978 17.4017 27.1316 17.1133 27.1316H19.1546C19.443 27.1316 19.6768 26.8978 19.6768 26.6094V0.522187C19.6768 0.233812 19.443 0 19.1546 0Z" fill="#E3E0E4"/>
<path d="M16.2968 7.4074H6.92428C6.65759 7.4074 6.44141 7.19121 6.44141 6.92453C6.44141 6.65784 6.65759 6.44165 6.92428 6.44165H16.2968C16.5635 6.44165 16.7797 6.65784 16.7797 6.92453C16.7797 7.19115 16.5635 7.4074 16.2968 7.4074Z" fill="#A4ACE3"/>
<path d="M13.3515 14.0485H6.92428C6.65759 14.0485 6.44141 13.8323 6.44141 13.5656C6.44141 13.2989 6.65759 13.0827 6.92428 13.0827H13.3516C13.6183 13.0827 13.8345 13.2989 13.8345 13.5656C13.8345 13.8323 13.6182 14.0485 13.3515 14.0485Z" fill="#A4ACE3"/>
<path d="M16.2968 20.6901H6.92428C6.65759 20.6901 6.44141 20.4739 6.44141 20.2072C6.44141 19.9405 6.65759 19.7243 6.92428 19.7243H16.2968C16.5635 19.7243 16.7797 19.9405 16.7797 20.2072C16.7797 20.4739 16.5635 20.6901 16.2968 20.6901Z" fill="#A4ACE3"/>
<path d="M28.4948 11.0766L23.2016 4.43333C22.4526 3.49326 21.0606 3.39283 20.1844 4.21558L13.1196 10.8491C12.8378 11.1138 12.7834 11.5413 12.9901 11.868L13.2927 12.3463C13.8928 13.2948 15.1884 13.5028 16.0551 12.7896L19.4653 9.98376C19.8349 9.6797 20.3934 9.82333 20.5706 10.2679L21.4968 12.5933C21.6948 13.0904 21.6489 13.6515 21.3728 14.1097L19.0982 17.8846V29.8867H25.8653V21.2901L28.8258 13.0866C29.0719 12.4046 28.9466 11.6437 28.4948 11.0766Z" fill="#FFCDBE"/>
<path d="M28.4945 11.0766L23.2013 4.43333C22.567 3.63733 21.4719 3.44358 20.6191 3.90233C20.8576 4.03014 21.0753 4.2072 21.2555 4.43333L26.5487 11.0766C27.0006 11.6437 27.1258 12.4046 26.8797 13.0866L23.9192 21.2901V29.8867H25.865V21.2901L28.8255 13.0866C29.0716 12.4046 28.9463 11.6437 28.4945 11.0766Z" fill="#EBAE9D"/>
<path d="M8.7393 17.3319C8.57243 17.3319 8.41005 17.2453 8.32061 17.0903C8.1873 16.8594 8.26642 16.564 8.49742 16.4307L10.9777 14.9989C11.2086 14.8656 11.5041 14.9447 11.6374 15.1757C11.7707 15.4066 11.6915 15.702 11.4605 15.8353L8.98024 17.2671C8.90424 17.311 8.82124 17.3319 8.7393 17.3319Z" fill="#FFD064"/>
<path d="M28.6349 4.15696L27.3984 4.87084L28.4416 6.67753L29.678 5.96365C30.1769 5.67559 30.3478 5.03765 30.0598 4.53878C29.7717 4.03984 29.1337 3.8689 28.6349 4.15696Z" fill="#E175A5"/>
<path d="M26.8064 4.53846L11.2456 13.5225C10.4672 13.9719 10.2006 14.9672 10.6499 15.7455C11.0993 16.5238 12.0946 16.7905 12.8729 16.3411L28.4337 7.35703C28.5997 7.26115 28.6567 7.0489 28.5608 6.88284L27.2806 4.66546C27.1847 4.49946 26.9725 4.44259 26.8064 4.53846Z" fill="#5766CC"/>
<path d="M28.5603 6.88283L27.8772 5.69958C27.994 5.90202 27.9542 6.14383 27.7882 6.23965L12.2273 15.2238C11.6805 15.5395 10.9876 15.433 10.4336 15.0131C10.4459 15.263 10.5157 15.5138 10.6495 15.7454C11.0988 16.5237 12.0941 16.7904 12.8724 16.341L28.4333 7.35696C28.5993 7.26115 28.6562 7.04883 28.5603 6.88283Z" fill="#3D4EC4"/>
<path d="M19.7381 22.3869L17.0985 20.8785C16.7102 20.6566 16.3872 20.3363 16.1622 19.9497L12.766 14.1151C12.3297 13.3655 12.5165 12.4086 13.2028 11.8783C13.9474 11.3029 15.0154 11.429 15.6055 12.1619L18.1219 15.2871C18.1219 15.2871 22.855 16.4992 22.7396 16.6146C22.6242 16.7301 19.7381 22.3869 19.7381 22.3869Z" fill="#FFCDBE"/>
<path d="M17.9043 23.8768V25.8378L22.4799 26.4628L27.0554 25.8378V23.8768C27.0554 23.549 26.7897 23.2834 26.462 23.2834H18.4978C18.17 23.2834 17.9043 23.549 17.9043 23.8768Z" fill="#E175A5"/>
<path d="M26.4639 23.2834H24.6016C24.9293 23.2834 25.1949 23.5491 25.1949 23.8768V25.8378H27.0573V23.8768C27.0573 23.549 26.7916 23.2834 26.4639 23.2834Z" fill="#CA59A6"/>
<path d="M16.6348 31.6781V26.6109C16.6348 26.1839 16.9809 25.8378 17.4079 25.8378H27.5556C27.9826 25.8378 28.3288 26.1839 28.3288 26.6109V31.6781C28.3288 31.8559 28.1846 32 28.0068 32H16.9567C16.7789 32 16.6348 31.8559 16.6348 31.6781Z" fill="#80B6FC"/>
<path d="M27.5557 25.8378H25.6934C26.1204 25.8378 26.4665 26.1839 26.4665 26.6109V32H28.0069C28.1847 32 28.3288 31.8559 28.3288 31.6781V26.6109C28.3288 26.184 27.9827 25.8378 27.5557 25.8378Z" fill="#5392F9"/>
</svg>
