<svg width="35" height="35" viewBox="0 0 35 35" fill="none" xmlns="http://www.w3.org/2000/svg">
<g clip-path="url(#clip0_850_51364)">
<path d="M23.5638 5.51181C23.0751 5.48056 22.6234 5.7756 22.4248 6.22329L19.9991 11.6918L18.693 8.4665L13.7932 0.838758C13.4248 0.265291 12.6796 0.0409359 12.0722 0.35033C11.8281 0.474676 11.6397 0.664237 11.517 0.886746C11.3131 1.25671 11.291 1.71765 11.497 2.12132L10.9128 0.977117C10.5437 0.253465 9.64568 -0.0207243 8.93359 0.379315C8.71586 0.50161 8.54401 0.673944 8.4228 0.87451C8.167 1.29772 8.13686 1.84651 8.37796 2.31518L8.7631 3.06406C8.45398 2.46311 7.71467 2.22878 7.11584 2.542C6.87645 2.66723 6.69591 2.86097 6.58592 3.08669C6.42398 3.41891 6.41482 3.82046 6.59563 4.17456L7.98961 6.76401C7.69717 6.19806 6.93934 6.00003 6.37674 6.3071C6.14815 6.43185 5.98128 6.62702 5.88585 6.85295C5.76479 7.13951 5.7587 7.47543 5.88749 7.77963L10.166 17.8885C10.4367 18.528 11.0436 19.2911 11.6058 19.6988L13.6673 20.8643V29.974C13.6673 30.15 13.8099 30.2927 13.986 30.2927H22.5602V19.3776L24.3934 14.1813L24.6443 6.70153C24.6651 6.0811 24.1901 5.5518 23.5638 5.51181Z" fill="#FFCFC0"/>
<path d="M17.0289 6.97293C16.7334 7.20302 16.3052 7.13747 16.092 6.82958L14.6455 4.74058L12.5544 1.48524C12.3177 1.11767 11.9291 0.905006 11.5195 0.883268C11.6371 0.670465 11.8137 0.48904 12.0469 0.363668C12.6517 0.0388247 13.405 0.234127 13.7768 0.811696L15.8672 4.06704L17.177 6.10565C17.3593 6.38955 17.2951 6.76566 17.0289 6.97293Z" fill="#FFB29F"/>
<path d="M14.3676 8.9727C14.0334 9.18202 13.5918 9.06321 13.4078 8.71444L9.68612 1.66235C9.43688 1.16039 8.94381 0.874028 8.42578 0.870541C8.55006 0.662114 8.73265 0.486225 8.96295 0.363725C9.66999 -0.0129351 10.5493 0.263579 10.9085 0.988872L14.609 8.08423C14.7727 8.398 14.6675 8.78485 14.3676 8.9727Z" fill="#FFB29F"/>
<path d="M11.953 10.5251C11.6322 10.7545 11.1828 10.648 10.9989 10.2991L7.54089 3.73731C7.34695 3.35929 6.98062 3.12604 6.58789 3.08332C6.69713 2.85931 6.87794 2.66687 7.11597 2.54226C7.7152 2.22862 8.45451 2.46316 8.76322 3.06384L12.1541 9.69969C12.3007 9.98666 12.2152 10.3378 11.953 10.5251Z" fill="#FFB29F"/>
<path d="M9.9981 11.8723C9.65616 12.0857 9.20499 11.9659 9.01399 11.611L7.57243 8.93263L6.76805 7.43727C6.59229 7.09841 6.25549 6.89272 5.88867 6.84719C5.9895 6.61621 6.16252 6.4166 6.40328 6.29335C6.96123 6.00699 7.7019 6.20721 7.98963 6.76379L8.7947 8.25916L10.243 10.9494C10.4175 11.2735 10.3104 11.6773 9.9981 11.8723Z" fill="#FFB29F"/>
<path d="M13.668 24.6611V26.3134L16.3675 29.5078C16.5719 29.7374 16.7245 30.0049 16.819 30.2926H22.561V22.5787L13.668 24.6611Z" fill="#FFB29F"/>
<path d="M25.5375 13.0704C25.5375 12.4154 25.3063 11.8145 24.921 11.3448C24.6895 11.0625 24.592 10.6984 24.6513 10.3382C24.75 9.7388 24.6498 9.10279 24.3224 8.53561C23.9949 7.96843 23.4942 7.56361 22.9257 7.34944C22.5841 7.22072 22.3176 6.95418 22.1889 6.61259C21.9746 6.04412 21.5699 5.54338 21.0027 5.21594C20.4355 4.8885 19.7995 4.78822 19.2001 4.887C18.9567 4.92706 18.7115 4.89554 18.491 4.79943C18.3852 4.75329 18.285 4.69238 18.1935 4.61732C17.7238 4.23211 17.1228 4.00085 16.4679 4.00085C15.813 4.00085 15.2121 4.23205 14.7424 4.61732C14.4601 4.84878 14.0959 4.94633 13.7358 4.887C13.1364 4.78822 12.5004 4.8885 11.9332 5.21594C11.366 5.54338 10.9612 6.04412 10.747 6.61259C10.6183 6.95418 10.3518 7.22072 10.0102 7.34944C9.44163 7.56368 8.94097 7.96843 8.61353 8.53561C8.28608 9.10279 8.18587 9.7388 8.28458 10.3382C8.34392 10.6984 8.24637 11.0625 8.0149 11.3448C7.62963 11.8145 7.39844 12.4154 7.39844 13.0704C7.39844 13.7253 7.62963 14.3262 8.0149 14.796C8.24637 15.0782 8.34392 15.4424 8.28458 15.8025C8.18587 16.4019 8.28608 17.0379 8.61353 17.6051C8.94097 18.1723 9.4417 18.5771 10.0102 18.7913C10.3518 18.92 10.6183 19.1865 10.747 19.5281C10.9612 20.0966 11.366 20.5973 11.9332 20.9248C12.5004 21.2522 13.1364 21.3525 13.7358 21.2537C14.096 21.1944 14.4601 21.2919 14.7424 21.5234C15.2121 21.9086 15.813 22.1399 16.4679 22.1399C17.1229 22.1399 17.7238 21.9087 18.1935 21.5234C18.4758 21.2919 18.84 21.1944 19.2001 21.2537C19.7995 21.3525 20.4355 21.2522 21.0027 20.9248C21.5699 20.5973 21.9747 20.0966 22.1889 19.5281C22.3176 19.1865 22.5841 18.92 22.9257 18.7913C23.4942 18.5771 23.9949 18.1723 24.3224 17.6051C24.6498 17.0379 24.7501 16.4019 24.6513 15.8025C24.592 15.4423 24.6895 15.0782 24.921 14.796C25.3063 14.3262 25.5375 13.7253 25.5375 13.0704Z" fill="#D07D62"/>
<path d="M25.5376 13.0707C25.5376 12.4157 25.3058 11.8147 24.9212 11.3447C24.6894 11.0623 24.592 10.6981 24.6516 10.3381C24.7496 9.73849 24.6494 9.10315 24.3223 8.5357C23.9945 7.96832 23.4944 7.56343 22.9256 7.34912C22.5838 7.22095 22.3176 6.95407 22.1886 6.61289C21.9743 6.04407 21.5694 5.54327 21.0027 5.2161C20.4354 4.88825 19.7993 4.7881 19.1997 4.88688C18.9594 4.92681 18.7165 4.89632 18.498 4.80246C18.4999 4.80342 18.5017 4.80437 18.5037 4.80533C21.3733 6.25988 23.3402 9.23707 23.3402 12.6749C23.3402 17.485 19.4882 21.3959 14.7012 21.4904C14.7152 21.5016 14.7292 21.5122 14.7425 21.5234C15.2117 21.9086 15.8128 22.1398 16.4678 22.1398C17.1227 22.1398 17.7238 21.9086 18.193 21.5234C18.4754 21.2922 18.8396 21.1942 19.1996 21.2537C19.7993 21.3525 20.4353 21.2523 21.0027 20.9252C21.5694 20.5973 21.9743 20.0965 22.1886 19.5284C22.3175 19.1866 22.5836 18.9204 22.9255 18.7915C23.4943 18.5771 23.9944 18.1723 24.3223 17.6048C24.6494 17.0381 24.7496 16.4021 24.6515 15.8024C24.592 15.4424 24.6893 15.0782 24.9212 14.7958C25.3058 14.3259 25.5376 13.7256 25.5376 13.0707Z" fill="#BE6A4F"/>
<path d="M31.6994 7.36496C31.4969 7.36496 31.3039 7.24711 31.2178 7.04949C29.9282 4.09021 27.2976 1.84125 24.1806 1.03338C23.8999 0.960649 23.7312 0.674086 23.804 0.393403C23.8767 0.112787 24.1631 -0.0561286 24.444 0.0168792C27.8709 0.904936 30.763 3.37715 32.1805 6.62996C32.2963 6.89575 32.1747 7.20521 31.9089 7.32108C31.8406 7.35088 31.7694 7.36496 31.6994 7.36496Z" fill="#E2A190"/>
<path d="M29.294 7.60827C29.1072 7.60827 28.9263 7.5084 28.8314 7.33251C27.9174 5.6387 26.4348 4.30604 24.6567 3.57992C24.3884 3.47028 24.2595 3.16375 24.3692 2.89531C24.4788 2.62686 24.7851 2.49807 25.0538 2.60779C27.0565 3.42564 28.7262 4.92654 29.7555 6.8339C29.8932 7.08902 29.798 7.40757 29.5428 7.54532C29.4636 7.58797 29.3781 7.60827 29.294 7.60827Z" fill="#E2A190"/>
<path d="M10.6858 28.2547C10.6422 28.2547 10.5979 28.2492 10.5537 28.2378C7.12684 27.3497 4.23469 24.8775 2.81726 21.6247C2.70146 21.3589 2.82307 21.0494 3.08885 20.9336C3.35484 20.8179 3.6641 20.9394 3.77997 21.2052C5.0695 24.1644 7.70017 26.4134 10.8172 27.2213C11.0978 27.294 11.2665 27.5806 11.1937 27.8612C11.1324 28.0977 10.9192 28.2547 10.6858 28.2547Z" fill="#E2A190"/>
<path d="M10.1428 25.6862C10.0767 25.6862 10.0095 25.6736 9.94444 25.6471C7.94179 24.8292 6.27197 23.3283 5.24275 21.421C5.10508 21.1659 5.2003 20.8473 5.45549 20.7096C5.71061 20.572 6.02923 20.6672 6.1669 20.9223C7.08087 22.616 8.56345 23.9487 10.3415 24.6749C10.6099 24.7845 10.7388 25.0911 10.6291 25.3595C10.5459 25.5629 10.3497 25.6862 10.1428 25.6862Z" fill="#E2A190"/>
<path d="M29.0034 14.2835C28.5769 14.0599 28.0776 14.1268 27.7295 14.4158C27.6609 14.4728 27.5982 14.5383 27.543 14.612L23.945 19.42L23.3919 15.9892L20.3208 7.47189C20.0899 6.8315 19.4144 6.44711 18.7542 6.61302C18.48 6.68193 18.2481 6.83198 18.0774 7.03083C17.8083 7.34426 17.6912 7.7791 17.7997 8.20908L17.4859 6.965C17.2904 6.18892 16.4964 5.72401 15.7239 5.93319C15.4823 5.99861 15.2719 6.1222 15.1037 6.28483C14.746 6.63073 14.5795 7.15327 14.7113 7.6689L14.9281 8.51772C14.7635 7.87398 14.114 7.48337 13.471 7.63513C12.8098 7.7912 12.4123 8.4886 12.5784 9.14738L13.2598 11.85C13.0635 11.3063 12.4827 10.9905 11.9111 11.1359C11.6854 11.1933 11.492 11.3151 11.3463 11.4771C11.3435 11.4803 11.3406 11.4836 11.3378 11.4868C11.1171 11.7381 11.0099 12.0834 11.0723 12.4356L12.9917 23.2626C13.1127 23.9456 13.418 24.5825 13.8746 25.1046L16.7197 28.3076C17.082 28.7154 17.282 29.2419 17.282 29.7873V34.6809C17.282 34.8569 17.4246 34.9996 17.6007 34.9996H24.4076C24.5836 34.9996 24.7263 34.8569 24.7263 34.6809V28.1187C24.7263 27.697 24.846 27.2839 25.0715 26.9274L27.485 23.1126C27.6066 22.9204 27.698 22.7107 27.7561 22.4909L29.5713 15.6248C29.7101 15.1005 29.4837 14.5353 29.0034 14.2835Z" fill="#FFCFC0"/>
<path d="M29.5712 15.6246L27.7563 22.4907C27.6981 22.7107 27.607 22.9202 27.4852 23.1128L25.0721 26.9276C24.8465 27.2841 24.7267 27.6967 24.7267 28.1184V34.6812C24.7267 34.8573 24.5841 34.9999 24.408 34.9999H23.2578V28.1184C23.2578 27.6967 23.3769 27.2841 23.6025 26.9276L26.0163 23.1128C26.1375 22.9202 26.2293 22.7107 26.2874 22.4907L28.1023 15.6246C28.2207 15.1784 28.073 14.7022 27.7305 14.415C28.0787 14.1272 28.578 14.0597 29.0031 14.2832C29.4836 14.5353 29.7099 15.1007 29.5712 15.6246Z" fill="#FFB29F"/>
<path d="M23.9441 19.4197L23.6314 19.4907C22.9767 19.6392 22.3325 19.2042 22.2256 18.5414L21.8697 16.3346L18.7873 7.78731C18.6606 7.43587 18.398 7.16899 18.0781 7.02899C18.2427 6.83786 18.4639 6.69239 18.725 6.62027C19.3866 6.43899 20.0769 6.79671 20.3093 7.44216L23.391 15.9894L23.9441 19.4197Z" fill="#FFB29F"/>
<path d="M19.2558 16.7019C18.9015 16.7926 18.5405 16.5804 18.4476 16.2267L16.1037 7.30982C15.9742 6.79527 15.5815 6.41718 15.1055 6.28278C15.2735 6.12105 15.4827 5.99861 15.7236 5.93347C15.8489 5.89915 15.9749 5.88309 16.0988 5.88309C16.738 5.88309 17.3218 6.31505 17.4857 6.96474L19.7356 15.8953C19.8251 16.2504 19.6106 16.6111 19.2558 16.7019Z" fill="#FFB29F"/>
<path d="M16.5425 17.3958C16.2053 17.4817 15.8621 17.2788 15.775 16.9419L13.6853 8.86334C13.5754 8.43206 13.2485 8.11494 12.8516 7.99736C13.0041 7.83077 13.2044 7.70403 13.4396 7.64244C14.0921 7.47092 14.76 7.86365 14.9265 8.51826L16.9984 16.6275C17.0849 16.9655 16.8807 17.3096 16.5425 17.3958Z" fill="#FFB29F"/>
<path d="M14.2608 17.9996C13.9366 18.0953 13.598 17.9019 13.5157 17.5741L12.1908 12.2993C12.0819 11.8762 11.7484 11.5708 11.3508 11.4769C11.3498 11.4766 11.3488 11.4764 11.3477 11.4761C11.4933 11.3144 11.686 11.1932 11.9115 11.1358C12.5184 10.9818 13.1359 11.3472 13.2921 11.9542L14.6682 17.2805C14.7483 17.5909 14.5681 17.9089 14.2608 17.9996Z" fill="#FFB29F"/>
</g>
<defs>
<clipPath id="clip0_850_51364">
<rect width="35" height="35" fill="white"/>
</clipPath>
</defs>
</svg>
