<svg width="35" height="35" viewBox="0 0 35 35" fill="none" xmlns="http://www.w3.org/2000/svg">
<path d="M14.8911 11.136L15.8848 11.9186C16.2834 12.2325 16.2123 12.8335 15.8 13.0654L13.6934 12.8078L13.3691 10.588L14.8911 11.136Z" fill="#FEDAB6"/>
<path d="M6.28755 11.1601C5.8856 11.9241 5.72864 12.793 5.83911 13.6489L5.97911 14.7355L6.97552 19.8412C7.51528 21.9423 8.29294 23.975 9.29427 25.8995L13.2569 33.5152H27.76L23.1581 30.5123C20.0497 28.4845 17.2415 26.0307 14.8139 23.223C14.3911 22.7341 14.2807 22.0478 14.5295 21.4506C15.3651 19.4447 15.3394 17.1839 14.4584 15.1971L14.2413 14.7071L6.28755 11.159V11.1601Z" fill="#FEDAB6"/>
<path d="M23.4189 22.4252L23.2198 22.1386C22.7172 21.4156 22.4799 20.5417 22.5488 19.664C22.5789 19.2795 22.6111 18.8634 22.6401 18.4866L25.9575 18.9815L25.5451 22.622L23.4189 22.4252Z" fill="#FEC99C"/>
<path d="M19.653 16.467L19.1888 18.6129C19.093 19.0542 19.0449 19.5043 19.0449 19.9555C19.0449 20.5133 19.1182 21.0684 19.2631 21.6065L19.4201 22.19C19.4884 22.4443 19.7192 22.6215 19.9828 22.6215C20.4854 22.6215 20.8934 22.2141 20.8934 21.7109C20.8934 21.4714 20.86 21.233 20.7949 21.0027L20.5171 20.0227L20.8518 18.8579C20.9923 18.369 21.3254 17.9583 21.7749 17.7198L21.8203 17.6958L21.8739 16.4057L19.652 16.4664L19.653 16.467Z" fill="#FEC99C"/>
<path d="M16.9358 15.6652L16.3195 16.6452C16.0061 17.1434 15.8398 17.7204 15.8398 18.3094V20.067C15.8398 20.3175 16.0427 20.5204 16.2932 20.5204C17.0167 20.5204 17.6112 19.9489 17.6391 19.2254L17.6899 17.9205L18.2685 17.1172C18.4736 16.8323 18.7695 16.6261 19.1069 16.5315L19.5373 16.4112L19.6877 15.3125H17.5002L16.9358 15.6652Z" fill="#FEC99C"/>
<path d="M0.71875 4.25578C0.71875 4.48656 0.793672 4.71078 0.932031 4.89508L9.89312 16.823L15.5281 14.0443C15.9137 13.854 16.0291 13.3585 15.766 13.0178L7.1057 1.785C6.90172 1.52031 6.55008 1.4175 6.23562 1.53015L1.42422 3.2539C1.00094 3.40539 0.71875 3.80625 0.71875 4.25578Z" fill="#383838"/>
<path d="M1.6268 4.1732C1.59453 4.13055 1.57812 4.07969 1.57812 4.02609C1.57812 3.92328 1.6432 3.8314 1.74 3.7964L6.5175 2.08469L15.052 13.154L10.1794 15.557L1.6268 4.1732Z" fill="#C1CFE8"/>
<path d="M11.3652 7.3068L12.162 7.23352C12.5875 7.19414 12.9638 7.50914 13.0009 7.93461C13.0266 8.23375 12.8768 8.52086 12.6165 8.67016L12.4781 8.74946" fill="#FEDAB6"/>
<path d="M12.6875 9.02234L14.9111 9.65125C15.242 9.74476 15.4705 10.0466 15.4705 10.3906C15.4705 10.8806 15.0183 11.2454 14.5398 11.142L14.2789 11.0857" fill="#FEDAB6"/>
<path d="M34.2811 17.7472V23.6392H33.679C32.1926 23.6392 30.7308 24.0155 29.4292 24.733C28.7861 25.0874 28.0757 25.3017 27.3434 25.3613L25.6252 25.5013C24.7474 25.573 23.8642 25.5238 22.9996 25.3553C22.3898 25.2366 21.7686 25.1825 21.1473 25.1945C20.3363 25.2098 19.5319 25.0518 18.787 24.7313C18.413 24.57 18.011 24.4841 17.6036 24.4776L17.1984 24.471C16.8675 24.4656 16.6017 24.1959 16.6017 23.8651C16.6017 23.1711 17.1645 22.6084 17.8584 22.6084H19.0856C19.3607 22.6084 19.6358 22.6242 19.9092 22.6559L21.7478 22.8692C22.1886 22.9206 22.6354 22.8479 23.0373 22.6603C24.2279 22.1047 24.5352 20.5521 23.6466 19.5841L22.4992 18.3345C21.9507 17.7373 21.2928 17.2506 20.5611 16.9012L18.2456 15.7954L13.7733 15.3546C13.1559 15.2939 12.6855 14.7749 12.6855 14.1542C12.6855 13.8638 12.9207 13.6287 13.2111 13.6287H15.6873L19.4985 13.942L23.0023 13.9262C24.538 13.9191 26.0495 14.3101 27.3894 15.0609L30.3556 16.7229C31.5544 17.3945 32.9057 17.7472 34.28 17.7472H34.2811Z" fill="#FEDAB6"/>
<path d="M12.0179 18.7135C11.5706 16.2187 9.61057 14.2696 7.113 13.8365L5.9137 13.6281L5.02503 11.9787L5.21807 10.1396C5.31432 9.22305 4.59518 8.42516 3.6737 8.42516C3.39643 8.42516 3.16073 8.62805 3.12026 8.90258L2.74182 11.4477C2.69807 11.7409 2.71667 12.0405 2.79651 12.326L3.34339 14.2827C3.59823 15.1955 4.02917 16.0502 4.61104 16.7984L6.97737 19.8412" fill="#FEDAB6"/>
<path d="M6.97611 20.1146C6.89463 20.1146 6.81424 20.0785 6.7601 20.0091L4.39377 16.9668C3.78728 16.187 3.34486 15.3087 3.07853 14.3571L2.53166 12.4004C2.44088 12.0755 2.4201 11.742 2.46931 11.4084L2.84775 8.86266C2.90791 8.45742 3.26228 8.15227 3.67189 8.15227C4.18814 8.15227 4.68306 8.37211 5.02869 8.75602C5.37431 9.13992 5.54221 9.65508 5.48806 10.1691L5.30431 11.9241L6.09017 13.382L7.15877 13.5674C9.75971 14.0186 11.8198 16.0677 12.2857 18.6659C12.3125 18.8147 12.2135 18.9569 12.0648 18.9837C11.9177 19.0121 11.7738 18.9115 11.7471 18.7627C11.3216 16.3898 9.44033 14.5184 7.0647 14.1066L5.86541 13.8983C5.78283 13.8841 5.71119 13.8321 5.67127 13.7588L4.7826 12.1095C4.75689 12.0608 4.74596 12.0061 4.75142 11.9509L4.94447 10.1123C4.98221 9.75242 4.86463 9.39149 4.62236 9.12242C4.3801 8.85336 4.03338 8.69969 3.67189 8.69969C3.53135 8.69969 3.40994 8.80469 3.38861 8.94414L3.01017 11.4893C2.97189 11.7463 2.98775 12.0034 3.05775 12.2533L3.60463 14.21C3.85181 15.0932 4.26197 15.908 4.82471 16.6316L7.19103 19.6738C7.284 19.793 7.26213 19.9648 7.14346 20.0577C7.09369 20.0966 7.03408 20.1152 6.97556 20.1152L6.97611 20.1146Z" fill="#FEC99C"/>
</svg>
