<svg width="35" height="35" viewBox="0 0 35 35" fill="none" xmlns="http://www.w3.org/2000/svg">
<g clip-path="url(#clip0_850_51216)">
<path d="M10.1469 22.5042L5.27539 14.6076L7.53692 13.685C8.89516 13.1309 10.4524 13.4295 11.5092 14.4468L16.1648 19.4627L21.2491 18.2725C22.2975 18.1377 23.3421 18.5482 24.0181 19.3609L31.7218 28.6209L30.5232 30.4853L21.8006 23.4272L10.7878 23.7764L10.1469 22.5042Z" fill="#5E648A"/>
<path d="M24.6217 21.0262L10.1477 22.5042L2.55978 10.2045C2.1918 9.60811 1.43493 9.35696 0.798568 9.65063C0.16351 9.94375 -0.148688 10.6652 0.0689686 11.3269L7.70334 34.5429C7.77129 34.7495 7.9642 34.8891 8.18165 34.8891H10.0811C10.5223 34.8891 10.8801 34.5314 10.8801 34.0901C10.8801 30.376 13.891 27.365 17.6052 27.365C21.3194 27.365 24.3303 30.376 24.3303 34.0901C24.3303 34.5314 24.6881 34.8891 25.1293 34.8891H26.8803C27.135 34.8891 27.3496 34.6989 27.3802 34.4461L28.5225 25.0003C28.7969 22.7314 26.8953 20.7941 24.6217 21.0262Z" fill="#FF708A"/>
<path d="M8.96296 22.5042H10.148L2.56008 10.2045C2.1921 9.60811 1.43522 9.35696 0.798867 9.65063C0.51374 9.78222 0.294443 10.0005 0.158203 10.2607L7.05443 21.4392C7.46288 22.1012 8.18517 22.5042 8.96296 22.5042Z" fill="#FF5876"/>
<path d="M15.1682 27.3649C11.4541 27.3649 8.44311 30.3759 8.44311 34.0901C8.44311 34.4247 8.23721 34.7109 7.94531 34.8298C8.01641 34.8676 8.09673 34.889 8.18108 34.889H10.0805C10.5218 34.889 10.8796 34.5313 10.8796 34.09C10.8796 30.7919 13.2539 28.0485 16.3865 27.4753C15.9913 27.403 15.5843 27.3649 15.1682 27.3649Z" fill="#FF5876"/>
<path d="M24.6207 21.0262L23.5098 21.1397C25.141 21.5973 26.3038 23.1929 26.0851 25.0003L24.9429 34.446C24.9257 34.5879 24.8506 34.7099 24.743 34.7899C24.8573 34.853 24.9887 34.889 25.1284 34.889H26.8795C27.1342 34.889 27.3488 34.6989 27.3793 34.446L28.5216 25.0003C28.796 22.7314 26.8944 20.7941 24.6207 21.0262Z" fill="#FF5876"/>
<path d="M7.36328 17.9904L10.148 22.5043L20.733 21.4234L20.2363 20.2913C19.9841 19.7165 19.4072 19.3533 18.7798 19.3745L11.8139 19.6097L9.94952 16.8131" fill="#FFD28B"/>
<path d="M30.5234 30.4852L31.722 28.6209L33.8927 27.8485C34.2576 27.7186 34.6608 27.7521 34.9995 27.9402L32.9353 31.4339C32.7511 31.7458 32.3374 31.8294 32.0464 31.6138L30.5234 30.4852Z" fill="#3A4270"/>
<path d="M5.59037 12.2935C7.2939 12.2935 8.67488 10.9125 8.67488 9.20896C8.67488 7.50543 7.2939 6.12445 5.59037 6.12445C3.88684 6.12445 2.50586 7.50543 2.50586 9.20896C2.50586 10.9125 3.88684 12.2935 5.59037 12.2935Z" fill="#FFD28B"/>
<path d="M5.58878 6.12445C5.30427 6.12445 5.02912 6.16376 4.76758 6.23588C6.07229 6.59551 7.03089 7.78996 7.03089 9.20896C7.03089 10.628 6.07235 11.8224 4.76758 12.182C5.02912 12.2542 5.30427 12.2935 5.58878 12.2935C7.29229 12.2935 8.67329 10.9125 8.67329 9.20896C8.67329 7.50545 7.29229 6.12445 5.58878 6.12445Z" fill="#FFD28B"/>
</g>
<defs>
<clipPath id="clip0_850_51216">
<rect width="35" height="35" fill="white"/>
</clipPath>
</defs>
</svg>
