<svg width="35" height="35" viewBox="0 0 35 35" fill="none" xmlns="http://www.w3.org/2000/svg">
<g clip-path="url(#clip0_850_51039)">
<path fill-rule="evenodd" clip-rule="evenodd" d="M22.1191 15.902V20.3042C22.6456 20.7067 22.9885 21.3746 22.9321 22.3263L23.5473 24.628L25.2499 25.6199L26.5994 24.628C27.9832 24.628 27.9429 23.1934 26.9484 22.4752L26.0063 21.7911V19.4833V15.9019L24.4369 15.0408L22.1191 15.902Z" fill="#FED2A4"/>
<path fill-rule="evenodd" clip-rule="evenodd" d="M26.0069 15.902L24.4375 15.244V19.4833V21.7911L25.3815 22.4752C26.376 23.1935 26.4144 24.628 25.0326 24.628L25.547 25.125L26.6 24.628C27.9838 24.628 27.9434 23.1934 26.949 22.4752L26.0069 21.7911V19.4833V15.902Z" fill="#FFBD86"/>
<path fill-rule="evenodd" clip-rule="evenodd" d="M8.99457 15.902V19.4834V21.7912L8.05053 22.4753C7.05604 23.1936 7.01769 24.6281 8.3995 24.6281L9.66832 25.3403L11.4515 24.6281L12.8818 15.902L10.5942 15.0791L8.99457 15.902Z" fill="#FED2A4"/>
<path fill-rule="evenodd" clip-rule="evenodd" d="M10.5619 15.902V24.628L10.5215 25.2015L11.4514 24.628L13.0934 20.256L12.1292 15.902L11.4555 15.3909L10.5619 15.902Z" fill="#FFBD86"/>
<path fill-rule="evenodd" clip-rule="evenodd" d="M11.6171 27.4348H2.52539V34.6378C2.52539 34.837 2.68877 35 2.88646 35H9.18223C11.3104 34.5246 13.7058 33.257 13.7058 33.257L11.6171 27.4348Z" fill="#FAF7F7"/>
<path fill-rule="evenodd" clip-rule="evenodd" d="M23.3818 27.4348L23.1075 32.0584H21.5371C23.044 32.0584 25.8166 35 25.8166 35H32.1124C32.3121 35 32.4734 34.837 32.4734 34.6378V27.4348H23.3818Z" fill="#FAF7F7"/>
<path fill-rule="evenodd" clip-rule="evenodd" d="M18.8979 27.4348H16.1001L15.5957 32.0584L16.1001 35H18.8979L19.3901 32.0584L18.8979 27.4348Z" fill="#FAF7F7"/>
<path fill-rule="evenodd" clip-rule="evenodd" d="M12.3292 26.7245H2.52539V29.2295H12.4361L12.3292 26.7245Z" fill="#DEDBEE"/>
<path fill-rule="evenodd" clip-rule="evenodd" d="M22.6714 26.7245L22.5645 29.2295H29.4291C30.0201 29.2295 29.9657 29.4951 29.9657 30.0524V35H32.114C32.3137 35 32.4751 34.837 32.4751 34.6378V26.7245H22.6714Z" fill="#DEDBEE"/>
<path fill-rule="evenodd" clip-rule="evenodd" d="M15.3887 26.7245H19.6108V29.2295H15.3887V26.7245Z" fill="#DEDBEE"/>
<path fill-rule="evenodd" clip-rule="evenodd" d="M23.1083 32.0584H18.8984V35H25.8175C25.8941 33.2495 24.6395 32.0584 23.1325 32.0584H23.1083Z" fill="#554E56"/>
<path fill-rule="evenodd" clip-rule="evenodd" d="M16.1002 32.0584H11.8902H11.868C10.3591 32.0584 9.10438 33.2495 9.18107 35H16.1001L16.1002 32.0584Z" fill="#554E56"/>
<path fill-rule="evenodd" clip-rule="evenodd" d="M26.0451 24.628H23.5478L22.9668 25.9338L23.3824 27.4348H32.474H33.9486C34.1382 27.4348 34.2935 27.2799 34.2935 27.0908V24.9721C34.2935 24.7829 34.1382 24.628 33.9486 24.628H26.5998H26.0451Z" fill="#554E56"/>
<path fill-rule="evenodd" clip-rule="evenodd" d="M8.39876 24.628H1.04999C0.862412 24.628 0.707031 24.7829 0.707031 24.9721V27.0908C0.707031 27.2799 0.860361 27.4348 1.04999 27.4348H2.52457H11.6162L12.2073 26.1491L11.4508 24.628H8.95548H8.39876Z" fill="#554E56"/>
<path fill-rule="evenodd" clip-rule="evenodd" d="M14.1895 32.0584H16.0998V35H14.1895V32.0584Z" fill="#433F43"/>
<path fill-rule="evenodd" clip-rule="evenodd" d="M25.8179 35C25.8945 33.2495 24.6398 32.0584 23.1329 32.0584H23.1087H21.0391C22.5459 32.0584 23.8006 33.2495 23.724 35H25.8179Z" fill="#433F43"/>
<path fill-rule="evenodd" clip-rule="evenodd" d="M13.7468 9.98868C11.1324 9.98868 8.99414 12.1234 8.99414 14.731V15.902H12.1289V21.7248C13.3372 20.8033 15.5037 21.2881 15.998 22.9964H19.0016C19.4958 21.2882 21.6624 20.8033 22.8707 21.7248V15.902H26.0075V14.731C26.0075 12.1234 23.8672 9.98868 21.2529 9.98868C18.7455 9.98868 16.2542 9.98868 13.7468 9.98868Z" fill="#6FD7A3"/>
<path fill-rule="evenodd" clip-rule="evenodd" d="M21.3027 14.8899V19.8495C21.8676 19.8213 22.4324 19.9702 22.8701 20.3042V15.902V14.8899C22.8701 14.4614 22.5171 14.1092 22.0874 14.1092C21.6557 14.1092 21.3027 14.4614 21.3027 14.8899Z" fill="#3EC3A4"/>
<path fill-rule="evenodd" clip-rule="evenodd" d="M21.1738 9.98868C23.064 10.6285 24.4377 12.4514 24.4377 14.5861V15.902H26.0071V14.731C26.0071 12.1234 23.8668 9.98868 21.2525 9.98868H21.1738Z" fill="#3EC3A4"/>
<path fill-rule="evenodd" clip-rule="evenodd" d="M15.2472 3.6307C14.4928 4.48779 14.3173 5.9727 12.9375 6.3067C12.9375 8.80968 14.991 10.8599 17.5025 10.8599C18.501 10.8599 19.4269 10.536 20.1794 9.98874C21.3211 9.15981 22.0675 7.81573 22.0675 6.30677V5.97276L20.9338 5.22225C20.7422 5.09749 20.482 5.2001 20.2661 5.1599C17.9544 4.72924 16.4515 2.25846 15.2472 3.6307Z" fill="#FED2A4"/>
<path fill-rule="evenodd" clip-rule="evenodd" d="M20.2659 6.24428C20.2659 7.79153 19.4812 9.16576 18.289 9.98867C17.7464 10.3629 17.121 10.6245 16.4473 10.7352C16.7862 10.8177 17.1392 10.8599 17.5023 10.8599C18.5008 10.8599 19.4267 10.536 20.1791 9.98873C21.3209 9.15981 22.0673 7.81573 22.0673 6.30676V5.97276C21.4944 5.69105 20.8287 5.54421 20.2659 5.91041V6.24428Z" fill="#FFBD86"/>
<path fill-rule="evenodd" clip-rule="evenodd" d="M14.9817 0.988886C12.7749 1.18207 12.9383 4.11154 12.9383 4.49784V6.30663C14.318 5.97263 14.4936 5.23626 15.248 4.3791C16.5632 2.88018 18.2355 5.97263 20.9345 5.97263H22.0682V3.80974C22.0683 0.467782 16.6701 -1.20019 14.9817 0.988886Z" fill="#554E56"/>
<path fill-rule="evenodd" clip-rule="evenodd" d="M20.2655 3.61054V5.77343V5.91022C20.4813 5.95048 20.7032 5.97256 20.9333 5.97256H22.0669V3.80967C22.0669 1.3812 19.2166 -0.164061 17.0098 0.0150409C18.7123 0.505998 20.2655 1.81788 20.2655 3.61054Z" fill="#433F43"/>
<path fill-rule="evenodd" clip-rule="evenodd" d="M11.3452 14.1092C10.9136 14.1092 10.5605 14.4614 10.5605 14.8899V15.902H12.128V14.8899C12.1279 14.4614 11.7749 14.1092 11.3452 14.1092Z" fill="#3EC3A4"/>
<path fill-rule="evenodd" clip-rule="evenodd" d="M34.2942 27.0908V24.9721C34.2942 24.7829 34.1389 24.628 33.9493 24.628H30.9355C31.1252 24.628 31.2805 24.7829 31.2805 24.9721V27.0908C31.2805 27.2799 31.1252 27.4348 30.9355 27.4348H32.4747H33.9492C34.1389 27.4348 34.2942 27.2799 34.2942 27.0908Z" fill="#433F43"/>
<path fill-rule="evenodd" clip-rule="evenodd" d="M19.0021 21.5759H15.9984C15.4174 22.3907 15.6111 23.8837 16.1013 24.6281L17.4468 25.6342L18.8993 24.6281C19.345 23.9399 19.9582 22.598 19.0021 21.5759Z" fill="#7E4C42"/>
<path fill-rule="evenodd" clip-rule="evenodd" d="M18.8979 24.628H16.1001L15.5957 25.9077L16.1001 27.4348H18.8979L19.4022 26.0144L18.8979 24.628Z" fill="#554E56"/>
<path fill-rule="evenodd" clip-rule="evenodd" d="M19.0013 21.5759C18.9347 21.8032 18.8984 22.0547 18.8984 22.3263V24.628V27.4348V32.0584H23.1084L23.3827 27.4348L23.5482 24.628L23.6854 22.3263C23.7418 21.3746 23.3969 20.7067 22.8704 20.3042C21.662 19.3828 19.4956 19.8697 19.0013 21.5759Z" fill="#AB695D"/>
<path fill-rule="evenodd" clip-rule="evenodd" d="M22.8705 20.3042C22.1866 19.7811 21.1921 19.7127 20.3691 20.0608C20.5144 20.1272 20.6515 20.2077 20.7786 20.3042C21.3031 20.7067 21.648 21.3746 21.5915 22.3263C21.3999 25.5697 21.2083 28.815 21.0166 32.0584H21.0389H23.1085L23.3828 27.4348L23.5483 24.628L23.6855 22.3263C23.7419 21.3746 23.397 20.7067 22.8705 20.3042Z" fill="#935B50"/>
<path fill-rule="evenodd" clip-rule="evenodd" d="M15.9986 21.5759C15.5044 19.8697 13.3379 19.3828 12.1295 20.3042C11.603 20.7067 11.2601 21.3746 11.3166 22.3263L11.4518 24.628L11.6172 27.4348L11.8915 32.0584H16.1015V27.4348V24.628V22.3263C16.1015 22.0547 16.0651 21.8032 15.9986 21.5759Z" fill="#AB695D"/>
<path fill-rule="evenodd" clip-rule="evenodd" d="M14.0895 21.5759C14.154 21.8032 14.1903 22.0547 14.1903 22.3263V32.0584H16.1006V27.4348V24.628V22.3263C16.1006 22.0547 16.0643 21.8032 15.9978 21.5759C15.5661 20.083 13.8554 19.5256 12.627 20.0226C13.2947 20.2761 13.8636 20.8012 14.0895 21.5759Z" fill="#935B50"/>
</g>
<defs>
<clipPath id="clip0_850_51039">
<rect width="35" height="35" fill="white"/>
</clipPath>
</defs>
</svg>
