<svg width="35" height="35" viewBox="0 0 35 35" fill="none" xmlns="http://www.w3.org/2000/svg">
<g clip-path="url(#clip0_850_51151)">
<path d="M4.90625 15.5901V28.389H26.1181V15.5901C25.4929 15.5901 5.28428 15.5901 4.90625 15.5901Z" fill="#C7C7F9"/>
<path d="M26.8828 16.6105C28.6935 15.6751 29.8298 13.807 29.8298 11.7692C29.8298 10.092 29.8298 8.80919 29.8298 7.32415C29.8298 5.28643 28.6935 3.41837 26.8828 2.48288C23.5802 0.77642 19.3439 -0.049976 15.1368 0.00231894C0.663456 1.23778 -0.467823 17.5002 15.1364 19.0911C19.3452 19.1433 23.582 18.316 26.8828 16.6105Z" fill="#F0EDFF"/>
<path d="M7.72024 11.9797C7.72024 10.2752 7.72024 8.04746 7.72024 7.11374C7.72024 4.88303 8.85651 2.83813 10.6673 1.81411C12.0215 1.04814 13.5337 0.444597 15.1364 0.00238037C11.1777 0.0515991 7.24501 0.878748 4.1404 2.48294C2.32963 3.41837 1.19336 5.28642 1.19336 7.32422V11.7693C1.19336 13.807 2.32963 15.6751 4.1404 16.6106C7.24665 18.2156 11.179 19.0421 15.136 19.0912C13.5338 18.649 12.0218 18.0456 10.6673 17.2794C8.85645 16.2553 7.72024 14.2103 7.72024 11.9797Z" fill="#DCDBFF"/>
<path d="M22.4161 7.66213C22.2492 7.45069 22.2747 7.15162 22.4656 6.96213C22.7775 6.6502 22.9405 6.23984 22.9351 5.81171C22.9231 4.93568 22.1849 4.24272 21.3081 4.24272H17.6813C12.8822 4.58356 10.5682 7.60525 9.90026 11.1167C9.56708 12.8683 10.5157 14.6279 12.1706 15.2917C13.314 15.7503 15.0158 16.0343 17.7885 15.9264C20.591 15.652 23.1558 14.9274 24.5253 13.7697C24.5147 11.4442 23.7235 9.31526 22.4161 7.66213Z" fill="#BD7558"/>
<path d="M11.5696 13.6776C11.5853 9.29611 14.1377 5.57969 17.6815 4.24278H15.5111C10.544 4.24278 6.51585 8.50847 6.49609 13.7797C8.33257 15.6683 13.3578 16.3603 17.7887 15.9264C15.0889 15.6486 12.712 14.9053 11.5696 13.6776Z" fill="#A66040"/>
<path d="M18.1173 19.6575C16.6529 19.2284 14.7476 19.1138 12.9063 19.6575C10.957 20.4416 9.35188 22.0431 8.58119 24.17C8.19907 25.3049 9.0433 26.48 10.2408 26.48H20.7821C21.9593 26.48 22.8011 25.3418 22.4566 24.2162L22.4424 24.17C21.6717 22.0431 20.0667 20.4416 18.1173 19.6575Z" fill="#5A6CD9"/>
<path d="M18.1163 19.6575C18.1468 19.8173 18.1623 19.9827 18.1623 20.1517C18.1623 21.616 16.9752 22.8032 15.5108 22.8032C14.0465 22.8032 12.8594 21.616 12.8594 20.1517C12.8594 19.9827 12.875 19.8173 12.9053 19.6575C13.7079 19.9488 14.5881 20.1044 15.5108 20.1044C16.4335 20.1044 17.3138 19.9488 18.1163 19.6575Z" fill="#F9BBAF"/>
<path d="M8.98499 11.6995C10.7431 11.9852 11.0036 15.3614 9.0366 15.8676C7.73572 16.1333 6.49609 15.1359 6.49609 13.7882C6.49609 12.6176 7.44465 11.667 8.61729 11.667C8.81184 11.667 8.926 11.6916 8.98499 11.6995Z" fill="#F9BBAF"/>
<path d="M24.5272 13.7966C24.5215 15.1416 23.2838 16.1325 21.9868 15.8676C20.1357 15.6972 20.2803 11.9852 22.0391 11.6995C23.3 11.4668 24.5272 12.4403 24.5272 13.7966Z" fill="#FFCBBE"/>
<path d="M22.3445 13.7273C22.3445 12.2095 21.8483 10.7885 20.9818 9.63285C20.83 9.43044 20.5749 9.33795 20.3267 9.3873C18.6128 9.72808 16.693 9.52334 15.1803 8.7435C15.1782 8.74281 15.1762 8.7422 15.1741 8.74151C8.48796 7.81559 7.55704 19.0911 16.3822 20.0573C19.7569 19.6891 22.3445 17.19 22.3445 13.7273Z" fill="#FFDDCF"/>
<path d="M12.4566 13.9768C12.4566 12.8449 12.7102 11.7693 13.1594 10.8168C13.6044 9.87402 14.3272 9.16459 15.1734 8.74151C13.0457 7.68181 10.4347 8.57027 9.38054 10.706C8.93128 11.6166 8.67773 12.6451 8.67773 13.7273C8.67773 17.4959 11.7311 20.1043 15.5108 20.1043C15.8059 20.1043 16.0965 20.0884 16.3815 20.0572C14.0602 19.0517 12.4566 16.8331 12.4566 13.9768Z" fill="#FFCBBE"/>
<path d="M29.349 30.4508C28.7313 27.667 26.3163 25.5883 23.4005 25.461C22.908 25.461 15.4518 25.461 10.9684 25.461C1.58405 25.985 0.663522 35 8.85352 35H25.6999C28.0985 35 29.8676 32.7755 29.349 30.4508Z" fill="#FB8798"/>
<path d="M6.60834 30.4641C7.11358 28.0493 8.80999 26.1617 10.9683 25.4611C9.01561 25.4611 7.62675 25.4611 7.62306 25.4611C4.73905 25.5848 2.29848 27.6389 1.67457 30.4508C1.15558 32.7855 2.93245 35 5.32373 35H8.85353C7.22391 34.2997 6.19797 32.4224 6.60834 30.4641Z" fill="#FB6276"/>
<path d="M15.5103 15.9093C15.9312 15.9093 16.2725 15.5453 16.2725 15.0962C16.2725 14.6471 15.9312 14.2831 15.5103 14.2831C15.0893 14.2831 14.748 14.6471 14.748 15.0962C14.748 15.5453 15.0893 15.9093 15.5103 15.9093Z" fill="#25383F"/>
<path d="M11.8734 14.7299C11.3427 14.7299 10.8377 14.4997 10.4879 14.0984C10.2955 13.8776 10.3185 13.5426 10.5393 13.3502C10.7601 13.1577 11.0951 13.1808 11.2875 13.4016C11.6 13.7601 12.1504 13.7568 12.46 13.4016C12.6524 13.1807 12.9874 13.1577 13.2082 13.3502C13.429 13.5426 13.452 13.8776 13.2596 14.0984C12.9097 14.4997 12.4045 14.7299 11.8734 14.7299Z" fill="#25383F"/>
<path d="M19.1495 14.7299C18.6184 14.7299 18.1132 14.4997 17.7633 14.0984C17.5709 13.8776 17.5939 13.5426 17.8147 13.3502C18.0355 13.1577 18.3705 13.1808 18.5629 13.4016C18.8729 13.7572 19.4232 13.7596 19.7354 13.4016C19.9278 13.1807 20.2628 13.1577 20.4836 13.3502C20.7044 13.5426 20.7274 13.8776 20.535 14.0984C20.1852 14.4997 19.6802 14.7299 19.1495 14.7299Z" fill="#25383F"/>
<path d="M27.1778 8.48517H25.587C25.3861 8.48517 25.2025 8.37169 25.1127 8.19204C25.0229 8.0124 25.0422 7.79741 25.1627 7.63669L26.1172 6.36398H25.5869C25.2941 6.36398 25.0566 6.12657 25.0566 5.83371C25.0566 5.54086 25.2941 5.30345 25.5869 5.30345H27.1778C27.3786 5.30345 27.5623 5.41693 27.652 5.59658C27.7419 5.77623 27.7225 5.99122 27.602 6.15193L26.6475 7.42464H27.1778C27.4706 7.42464 27.708 7.66206 27.708 7.95491C27.708 8.24776 27.4707 8.48517 27.1778 8.48517Z" fill="#00C5FD"/>
<path d="M33.276 4.24279H30.8897C30.6888 4.24279 30.5051 4.12931 30.4154 3.94966C30.3256 3.77001 30.3449 3.55502 30.4654 3.39431L32.2154 1.061H30.8897C30.5968 1.061 30.3594 0.823588 30.3594 0.530737C30.3594 0.237885 30.5968 0.000473022 30.8897 0.000473022H33.276C33.4769 0.000473022 33.6605 0.11395 33.7503 0.293598C33.8401 0.473246 33.8208 0.688237 33.7002 0.84895L31.9502 3.18226H33.276C33.5689 3.18226 33.8063 3.41967 33.8063 3.71252C33.8063 4.00538 33.5689 4.24279 33.276 4.24279Z" fill="#00C5FD"/>
<path d="M23.0379 25.985H19.6525C19.4087 25.985 19.2216 25.7604 19.2747 25.5224C19.4854 24.5778 20.3274 23.8638 21.3451 23.8638C22.3547 23.8638 23.204 24.5718 23.4156 25.522C23.4687 25.7602 23.2818 25.985 23.0379 25.985Z" fill="#F9BBAF"/>
<path d="M11.3698 25.985H7.98447C7.7405 25.985 7.55367 25.7602 7.60672 25.522C7.81836 24.5712 8.66813 23.8638 9.67726 23.8638C10.6945 23.8638 11.537 24.5774 11.7477 25.5224C11.8007 25.7604 11.6137 25.985 11.3698 25.985Z" fill="#F9BBAF"/>
</g>
<defs>
<clipPath id="clip0_850_51151">
<rect width="35" height="35" fill="white"/>
</clipPath>
</defs>
</svg>
