<svg width="35" height="35" viewBox="0 0 35 35" fill="none" xmlns="http://www.w3.org/2000/svg">
<path d="M17.5 28.662V35C21.7199 35 25.1408 33.5812 25.1408 31.831C25.1408 30.0808 21.7199 28.662 17.5 28.662Z" fill="#42C967"/>
<path d="M23.0284 31.831C23.0284 30.0808 20.5533 28.662 17.5002 28.662C13.2803 28.662 9.85938 30.0808 9.85938 31.831C9.85938 33.5812 13.2803 35 17.5002 35C20.5533 35 23.0284 33.5812 23.0284 31.831Z" fill="#78D280"/>
<path d="M21.1967 8.4507H19.084V10.5634L21.1967 19.507C21.1967 20.0904 21.6696 20.5634 22.253 20.5634C22.8364 20.5634 23.3093 20.0904 23.3093 19.507V10.5634C23.3093 9.4014 22.3586 8.4507 21.1967 8.4507Z" fill="#2275FF"/>
<path d="M13.8021 8.4507C12.6402 8.4507 11.6895 9.4014 11.6895 10.5634V19.507C11.6895 20.0904 12.1624 20.5634 12.7458 20.5634C13.3292 20.5634 13.8021 20.0904 13.8021 19.507L15.9148 10.5634V8.4507H13.8021Z" fill="#10BEFF"/>
<path d="M17.4766 0V6.33803C19.2268 6.33803 20.6456 4.91923 20.6456 3.16901C20.6456 1.4188 19.2268 0 17.4766 0Z" fill="#FFA886"/>
<path d="M18.5339 3.16901C18.5339 1.4188 18.061 0 17.4776 0C15.7274 0 14.3086 1.4188 14.3086 3.16901C14.3086 4.91923 15.7274 6.33803 17.4776 6.33803C18.061 6.33803 18.5339 4.91923 18.5339 3.16901Z" fill="#FFCAA2"/>
<path d="M19.0844 8.4507H15.9154C14.7534 8.4507 13.8027 9.4014 13.8027 10.5634V31.3556C13.8027 32.0849 14.3939 32.676 15.1232 32.676C15.8524 32.676 16.4436 32.0849 16.4436 31.3556V19.507H18.5563V31.3556C18.5563 32.0849 19.1475 32.676 19.8767 32.676C20.6059 32.676 21.1971 32.0849 21.1971 31.3556V10.5634C21.1971 9.4014 20.2464 8.4507 19.0844 8.4507Z" fill="#199AFF"/>
</svg>
