<svg width="35" height="35" viewBox="0 0 35 35" fill="none" xmlns="http://www.w3.org/2000/svg">
<path d="M28.4265 24.9674H6.57556L4.58008 23.6656V15.332C4.58008 11.541 7.65338 8.46767 11.4445 8.46767H23.5576C27.3487 8.46767 30.422 11.541 30.422 15.332V23.6657L28.4265 24.9674Z" fill="#3D6B73"/>
<path d="M23.5565 8.46767H21.8242C25.6153 8.46767 28.6886 11.541 28.6886 15.332V24.9674H29.6784L30.4208 23.9157V15.332C30.4209 11.541 27.3476 8.46767 23.5565 8.46767Z" fill="#2E5459"/>
<path d="M32.2114 32.096H2.79033C2.36028 32.096 2.01172 31.7473 2.01172 31.3173V25.746C2.01172 25.316 2.36035 24.9674 2.79033 24.9674H32.2114C32.6414 24.9674 32.99 25.3161 32.99 25.746V31.3173C32.99 31.7473 32.6414 32.096 32.2114 32.096Z" fill="#DD636E"/>
<path d="M32.2105 24.9674H30.7344C31.1644 24.9674 31.513 25.316 31.513 25.746V31.3173C31.513 31.7473 31.1644 32.0959 30.7344 32.0959H32.2105C32.6406 32.0959 32.9891 31.7472 32.9891 31.3173V25.746C32.9891 25.316 32.6406 24.9674 32.2105 24.9674Z" fill="#DA4A54"/>
<path d="M8.7231 35H7.21044C6.91191 35 6.66992 34.758 6.66992 34.4595V32.0959H9.26355V34.4595C9.26355 34.758 9.02155 35 8.7231 35Z" fill="#3D6B73"/>
<path d="M27.7915 35H26.2788C25.9803 35 25.7383 34.758 25.7383 34.4595V32.0959H28.3319V34.4595C28.3319 34.758 28.0899 35 27.7915 35Z" fill="#3D6B73"/>
<path d="M26.7408 13.1674L26.6291 12.6068L25.4963 11.9566L24.8326 12.0174C24.3325 12.9036 23.6861 13.7044 22.9152 14.3825L21.8403 15.3281C21.3862 15.7276 20.7321 15.8149 20.1953 15.5362C20.1565 15.516 20.1173 15.4962 20.0778 15.477C19.5202 15.204 19.1384 14.6677 19.063 14.0514L18.8708 12.4798L18.7521 11.5094H16.2509L16.1323 12.4797L15.9401 14.0514C15.8648 14.6677 15.4829 15.2041 14.9252 15.477C14.8858 15.4963 14.8466 15.516 14.8078 15.5362C14.271 15.8148 13.617 15.7275 13.1629 15.3281L12.088 14.3825C11.3792 13.7591 10.7751 13.0323 10.2937 12.2305L9.65679 12.1449L8.57192 12.6819L8.38086 13.3834C9.02104 14.5094 9.86132 15.5153 10.8661 16.3485L11.6473 16.9962C12.1233 17.391 12.3093 18.0426 12.0982 18.6238C11.8774 19.2318 11.7592 19.8827 11.7592 20.5518V22.4422C11.7592 22.9329 12.157 23.3307 12.6476 23.3307H22.3556C22.8463 23.3307 23.2441 22.9329 23.2441 22.4422V20.5518C23.2441 19.8827 23.1259 19.2318 22.905 18.6239C22.6939 18.0426 22.88 17.3911 23.356 16.9963L24.1372 16.3485C25.2055 15.4624 26.0873 14.3807 26.7408 13.1674Z" fill="#CBE2FF"/>
<path d="M19.0491 13.9491L18.7508 11.5092H16.2495L15.9512 13.9491C16.9838 14.7366 18.0164 14.7366 19.0491 13.9491Z" fill="#E2A770"/>
<path d="M17.5013 12.6818C15.6625 12.6818 14.1719 11.1912 14.1719 9.35237V7.21847V4.48047H20.8308V5.98014V9.35237C20.8308 11.1912 19.3401 12.6818 17.5013 12.6818Z" fill="#F1D0A5"/>
<path d="M14.1719 4.48047V8.07487C14.3182 8.07576 14.4671 8.0627 14.6172 8.03263C15.8133 7.79296 16.9256 7.35197 17.9593 6.72204C18.1284 6.61896 18.3086 6.53911 18.4949 6.4836C19.0462 6.31927 19.5983 6.74337 19.5983 7.31861V9.3523C19.5983 10.9804 18.4294 12.3348 16.8851 12.6239C17.0849 12.6613 17.2907 12.6817 17.5014 12.6817C19.3402 12.6817 20.8308 11.1911 20.8308 9.3523V4.48047H14.1719Z" fill="#F1B986"/>
<path d="M20.2807 5.76583C20.1672 5.70937 20.0537 5.65776 19.94 5.61148C19.2916 5.34768 18.5557 5.42233 17.958 5.78661C16.9243 6.41655 15.8121 6.8576 14.6159 7.0972C13.2643 7.36797 12.0039 6.32918 12.0039 4.95072V3.71615C12.0039 1.22643 14.4102 -0.565953 16.7903 0.16474C17.4947 0.381029 18.1735 0.714076 18.8283 1.15513C19.024 1.28693 19.2867 1.24099 19.4325 1.05553C19.4407 1.04521 19.4488 1.03495 19.457 1.02477C20.459 -0.217047 22.4723 0.515902 22.4723 2.11161V4.3996C22.4723 5.52562 21.289 6.26732 20.2807 5.76583Z" fill="#BE694F"/>
<path d="M20.0547 0.552678C20.626 0.807795 21.0665 1.36527 21.0665 2.11155V4.39953C21.0665 5.00602 20.723 5.5006 20.2486 5.7499C20.2598 5.75537 20.2709 5.76023 20.2821 5.76576C21.2902 6.26718 22.4736 5.52548 22.4736 4.39953V2.11161C22.4736 0.792346 21.0978 0.0640452 20.0547 0.552678Z" fill="#AA593D"/>
<path d="M30.422 24.9674H4.58008V23.6656C4.58008 21.8359 6.06341 20.3526 7.89312 20.3526H27.1089C28.9386 20.3526 30.422 21.8359 30.422 23.6656V24.9674Z" fill="#F9F6F6"/>
<path d="M27.1092 20.3526H25.377C27.2067 20.3526 28.69 21.8359 28.69 23.6656V24.9674H30.4223V23.6656C30.4223 21.8359 28.939 20.3526 27.1092 20.3526Z" fill="#EFE7E4"/>
<path d="M9.39704 10.2229L9.21766 9.64085C8.92741 8.69914 8.75077 7.72604 8.69137 6.74242L8.62895 5.70882C8.61911 5.54606 8.50167 5.40996 8.34212 5.37646C7.80529 5.26374 7.28405 5.62508 7.20113 6.16724L7.12177 6.68636C6.86255 8.38147 7.03249 10.1145 7.61607 11.727L7.61621 11.7273C7.8243 12.3022 8.08064 12.8557 8.38047 13.3832L10.2933 12.2304C9.91643 11.6028 9.6147 10.9291 9.39704 10.2229Z" fill="#F1B986"/>
<path d="M27.3859 11.7273C27.9696 10.1148 28.1396 8.38161 27.8804 6.68643L27.801 6.16738C27.7181 5.62515 27.1968 5.26388 26.66 5.3766C26.5005 5.4101 26.383 5.5462 26.3732 5.70896L26.3108 6.74256C26.2514 7.72625 26.0747 8.69934 25.7845 9.64113L25.6052 10.2229C25.4119 10.8501 25.1516 11.451 24.832 12.0174L26.7402 13.1674C26.9891 12.7052 27.206 12.2245 27.3859 11.7273Z" fill="#F1B986"/>
<path d="M27.5404 29.7724H7.46103C6.98203 29.7724 6.59375 29.3841 6.59375 28.9051V28.1582C6.59375 27.6792 6.98203 27.2909 7.46103 27.2909H27.5404C28.0194 27.2909 28.4077 27.6792 28.4077 28.1582V28.9051C28.4076 29.3841 28.0194 29.7724 27.5404 29.7724Z" fill="#DA4A54"/>
<path d="M16.5479 9.15632C16.4587 9.15632 16.3684 9.13376 16.2856 9.08618C16.2299 9.05426 16.2118 9.05433 16.1562 9.08618C15.9034 9.23138 15.5804 9.14395 15.4353 8.89081C15.2902 8.63781 15.3777 8.31502 15.6307 8.16989C16.0113 7.95162 16.4306 7.95155 16.8112 8.16989C17.0642 8.31502 17.1517 8.63781 17.0066 8.89081C16.909 9.06103 16.7309 9.15632 16.5479 9.15632Z" fill="#2E5459"/>
<path d="M18.4525 9.15632C18.2695 9.15632 18.0915 9.06102 17.9939 8.89081C17.8488 8.63781 17.9363 8.31502 18.1893 8.16989C18.5699 7.95162 18.9892 7.95162 19.3697 8.16982C19.6228 8.31495 19.7103 8.63768 19.5652 8.89074C19.42 9.14381 19.0972 9.23131 18.8443 9.08625C18.7887 9.05439 18.7706 9.05433 18.7149 9.08618C18.6321 9.13376 18.5417 9.15632 18.4525 9.15632Z" fill="#2E5459"/>
</svg>
