<svg viewBox="0 0 512 512" xmlns="http://www.w3.org/2000/svg"><path d="m211.1875 89.625c-116.636719 0-211.1875 94.5625-211.1875 211.1875 0 116.636719 94.550781 211.1875 211.1875 211.1875s211.1875-94.550781 211.1875-211.1875c0-116.625-94.550781-211.1875-211.1875-211.1875zm0 293.601562c-45.511719 0-82.414062-36.890624-82.414062-82.414062 0-45.511719 36.902343-82.414062 82.414062-82.414062s82.414062 36.902343 82.414062 82.414062c0 45.523438-36.902343 82.414062-82.414062 82.414062zm0 0" fill="#db9b5c"/><path d="m376.230469 263.140625c-2.914063-12.816406.484375-27.785156-5.097657-39.355469-5.664062-11.742187-19.554687-18.398437-27.617187-28.496094-8.097656-10.136718-11.519531-25.144531-21.65625-33.242187-10.09375-8.066406-25.476563-8.085937-37.230469-13.753906-11.558594-5.582031-21.128906-17.636719-33.945312-20.550781-12.402344-2.824219-26.238282 3.820312-39.496094 3.820312s-27.09375-6.644531-39.496094-3.820312c-12.816406 2.914062-22.386718 14.96875-33.945312 20.550781-11.753906 5.667969-27.132813 5.6875-37.21875 13.753906-10.148438 8.097656-13.566406 23.105469-21.664063 33.242187-8.066406 10.097657-21.953125 16.753907-27.621093 28.496094-5.582032 11.570313-2.183594 26.539063-5.097657 39.355469-2.8125 12.414063-12.445312 24.414063-12.445312 37.671875 0 13.269531 9.632812 25.269531 12.445312 37.683594 2.914063 12.804687-.484375 27.785156 5.097657 39.34375 5.667968 11.753906 19.554687 18.410156 27.621093 28.503906 8.097657 10.136719 11.515625 25.148438 21.652344 33.246094 10.097656 8.054687 25.476563 8.085937 37.230469 13.753906 11.558594 5.582031 21.128906 17.636719 33.945312 20.550781 12.402344 2.824219 26.238282-3.832031 39.496094-3.832031s27.09375 6.65625 39.496094 3.832031c12.816406-2.914062 22.386718-14.96875 33.945312-20.550781 11.753906-5.667969 27.136719-5.699219 37.21875-13.753906 10.148438-8.097656 13.570313-23.109375 21.667969-33.246094 8.0625-10.09375 21.953125-16.75 27.617187-28.492188 5.585938-11.570312 2.183594-26.550781 5.097657-39.355468 2.8125-12.414063 12.445312-24.414063 12.445312-37.683594 0-13.257812-9.628906-25.257812-12.445312-37.671875zm-165.042969 120.085937c-45.511719 0-82.414062-36.890624-82.414062-82.414062 0-45.511719 36.902343-82.414062 82.414062-82.414062s82.414062 36.902343 82.414062 82.414062c0 45.523438-36.902343 82.414062-82.414062 82.414062zm0 0" fill="#ffcd6b"/><path d="m376.230469 263.140625c-2.914063-12.816406.484375-27.785156-5.097657-39.355469-5.664062-11.742187-19.554687-18.398437-27.617187-28.496094-8.097656-10.136718-11.519531-25.144531-21.65625-33.242187-10.09375-8.066406-25.476563-8.085937-37.230469-13.753906-11.558594-5.582031-21.128906-17.636719-33.945312-20.550781-8.132813-1.851563-16.882813.367187-25.679688 2.113281 9.949219 4.589843 18.230469 13.769531 27.898438 18.4375 11.753906 5.667969 27.136718 5.6875 37.234375 13.753906 10.136719 8.097656 13.554687 23.105469 21.652343 33.242187 8.066407 10.097657 21.953126 16.753907 27.617188 28.496094 5.585938 11.570313 2.1875 26.539063 5.101562 39.355469 2.8125 12.414063 12.445313 24.414063 12.445313 37.671875 0 13.269531-9.632813 25.269531-12.445313 37.683594-2.914062 12.804687.484376 27.785156-5.101562 39.355468-5.664062 11.742188-19.550781 18.398438-27.617188 28.492188-8.097656 10.136719-11.515624 25.148438-21.664062 33.246094-10.085938 8.054687-25.46875 8.085937-37.222656 13.753906-9.664063 4.667969-17.945313 13.839844-27.886719 18.429688 8.792969 1.75 17.539063 3.96875 25.667969 2.121093 12.816406-2.914062 22.386718-14.96875 33.945312-20.550781 11.753906-5.667969 27.136719-5.699219 37.21875-13.753906 10.148438-8.097656 13.570313-23.109375 21.667969-33.246094 8.0625-10.09375 21.953125-16.75 27.617187-28.492188 5.585938-11.570312 2.183594-26.550781 5.097657-39.355468 2.8125-12.414063 12.445312-24.414063 12.445312-37.683594 0-13.257812-9.628906-25.257812-12.445312-37.671875zm0 0" fill="#f2ac4b"/><path d="m300.8125 0c-116.625 0-211.1875 94.550781-211.1875 211.1875s94.5625 211.1875 211.1875 211.1875c116.636719 0 211.1875-94.550781 211.1875-211.1875s-94.550781-211.1875-211.1875-211.1875zm0 293.601562c-45.511719 0-82.414062-36.902343-82.414062-82.414062 0-45.515625 36.902343-82.414062 82.414062-82.414062 45.523438 0 82.414062 36.902343 82.414062 82.414062s-36.890624 82.414062-82.414062 82.414062zm0 0" fill="#f0b173"/><path d="m300.8125 0c-5.328125 0-10.609375.203125-15.835938.589844 109.238282 8.101562 195.34375 99.289062 195.34375 210.597656s-86.105468 202.496094-195.34375 210.597656c5.226563.386719 10.507813.589844 15.835938.589844 116.636719 0 211.1875-94.550781 211.1875-211.1875s-94.550781-211.1875-211.1875-211.1875zm0 0" fill="#db9b5c"/></svg>