<svg id="Capa_1" enable-background="new 0 0 497 497" height="512" viewBox="0 0 497 497" width="512" xmlns="http://www.w3.org/2000/svg"><g><path d="m248.5 120c-70.856 0-128.5 57.644-128.5 128.5v60l66.562-30.729c-4.203-8.877-6.562-18.797-6.562-29.271 0-37.832 30.668-68.5 68.5-68.5s68.5 30.668 68.5 68.5c0 10.474-2.359 20.394-6.562 29.271l66.562 30.729v-60c0-70.856-57.644-128.5-128.5-128.5z" fill="#ffd185"/><path d="m150 248.5c0-6.427.626-12.709 1.807-18.795l-61.807-41.205-90 60c0 68.623 27.815 130.748 72.786 175.718 17.641 17.64 40.783 26.42 63.903 26.352l63.565-153.432c-.065-.066-.125-.135-.191-.2-5.532-5.532-10.114-12.011-13.501-19.166-2.113.472-4.307.729-6.562.729-16.568-.001-30-13.433-30-30.001z" fill="#ff9a42"/><path d="m200.254 297.138c-42.211 18.609-71.754 60.847-71.754 109.862 0 15.362 2.906 30.057 8.19 43.57 22.944-.067 45.868-8.848 63.374-26.354 35.081-35.081 35.141-91.915.19-127.078z" fill="#ff7a3c"/><path d="m248.5 0v30c106.106 0 192.122 97.826 192.122 218.5s-86.016 218.5-192.122 218.5v30c137.243 0 248.5-111.257 248.5-248.5s-111.257-248.5-248.5-248.5z" fill="#ff7a3c"/><path d="m467 248.5c0-137.243-97.826-248.5-218.5-248.5-137.243 0-248.5 111.257-248.5 248.5h150c0-54.313 44.187-98.5 98.5-98.5s98.5 44.187 98.5 98.5c0 16.568-13.432 30-30 30-2.255 0-4.449-.257-6.562-.729-10.978 23.187-34.581 39.229-61.938 39.229-49.706 0-90 40.294-90 90s40.294 90 90 90c120.674 0 218.5-111.257 218.5-248.5z" fill="#ff9a42"/><circle cx="467" cy="248.5" fill="#ff5a35" r="7.5"/><g fill="#ff7a3c"><circle cx="248.5" cy="30" r="7.5"/><circle cx="248.5" cy="467" r="7.5"/><circle cx="278.5" cy="437" r="7.5"/><circle cx="30" cy="248.5" r="7.5"/><circle cx="437" cy="218.5" r="7.5"/></g></g></svg>