<svg id="Capa_1" enable-background="new 0 0 512 512" height="512" viewBox="0 0 512 512" width="512" xmlns="http://www.w3.org/2000/svg"><g><g><g><path d="m36.951 425.109c2.762 9.946 6.785 18.11 10.615 24.388 1.84 3.017-.339 6.884-3.863 6.884h-30.278c-1.957 0-3.691-1.264-4.297-3.132l-8.906-27.455c-.147-.454-.222-.928-.222-1.405v-117.207l4.454-6.854-4.454-12.585v-30.63l4.123-8.148-4.123-7.373v-32.03c0-19.164 7.342-37.642 20.658-51.375 6.341-6.539 13.936-12.665 23.025-17.585 20.062-10.859 37.257-10.349 71.173-7.351 3.211.284 6.588 2.525 10.116 2.846 1.733.158 3.489-1.616 5.304-1.452 13.405 1.21 29.11 2.566 47.907 3.707 13.88.843 26.16 1.577 37.11 2.092 4.587.216 7.616 3.559 11.756 3.69 5.642.178 12.213-2.896 17.112-2.912 19.579-.061 33.628-1.831 45.357-6.62 2.95-1.205 6.121-2.621 9.438-4.194 2.171-1.029 5.505 1.673 7.781.525 2.341-1.181 3.626-6.216 6.033-7.489 23.372-12.367 48.752-28.294 55.206-32.343 24.547-15.404 29.901-20.488 40.35-21 14.344-.704 41.553 7.046 76.952 75.037.49.941 1.293 1.688 2.269 2.096 7.224 3.022 14.447 6.043 21.671 9.064 2.119.886 3.24 3.227 2.605 5.442-4.01 13.983-8.021 27.966-12.031 41.949-.603 2.102-2.619 3.476-4.786 3.256-17.044-1.727-31.779-1.268-43.526-.109-3.734.368-9.164.233-12.273.694-8.41 1.249-13.293 3.365-18.912 4.998-15.191 4.416-21.156 9.506-23.176 11.327-5.956 5.37-9.089 10.713-16.439 25.501-14.726 29.627-19.993 44.082-23.911 51.751-4.331 8.477-11.64 17.719-24.529 26.204-1.946 1.281-6.983-.085-9.193 1.156-2.331 1.31-1.849 5.224-4.493 6.478-9.203 4.363-20.37 8.348-33.943 11.697-.791.195-3.22-2.892-4.028-2.702-1.087.257-3.991 4.257-4.627 5.179-2.059 2.983-.71 6.56-2.793 10.861-1.674 3.456-3.251 7.334-4.566 11.628-5.583 18.232-3.392 34.04-1.598 42.28.071.328.176.628.317.932 4.081 8.809 8.162 24.365 12.243 35.451 1.092 2.966-1.086 6.111-4.236 6.111h-29.723c-1.969 0-3.704-1.276-4.307-3.157-2.799-8.726-5.598-23.255-8.397-30.203-.108-.269-.191-.533-.25-.817-2.233-10.897-3.988-23.619-4.4-37.845-.548-18.911 1.413-35.784 4.276-50.004.826-4.104 4.203-8.013 5.141-11.661.424-1.648-2.578-3.198-3.622-4.262-1.044-1.065-2.606-1.62-4.256-1.227-16.829 4.006-37.08 7.609-60.119 9.275-2.713.196-5.458-4.234-8.247-4.095-2.62.131-5.279 4.837-7.964 4.914-6.28.181-12.737.21-19.36.058-29.683-.679-55.524-4.802-76.463-9.672-1.264-.294-2.545-.015-3.557.686-.645.446-4.43 1.441-4.782 2.191-1.949 4.149-.435 7.829-1.983 11.774-7.272 18.531-10.388 34.586-11.847 46.021-1.803 14.146-3.515 28.735 1.488 46.751z" fill="#ff678d"/><g fill="#ff5079"><path d="m509.218 156.297c-7.224-3.021-14.447-6.042-21.671-9.063-.976-.408-1.779-1.155-2.269-2.096-35.399-67.991-62.608-75.741-76.952-75.037-4.596.225-8.207 1.337-12.898 3.82 14.983 6.964 35.106 25.43 58.945 71.217.49.941 1.293 1.688 2.269 2.096 7.224 3.021 14.447 6.042 21.671 9.063 2.119.886 3.24 3.227 2.605 5.442-4.01 13.983-8.021 27.966-12.031 41.949-.252.878-.759 1.617-1.412 2.178 8.289-.194 17.507.062 27.531 1.078 2.168.22 4.184-1.154 4.786-3.256 4.01-13.983 8.021-27.966 12.031-41.949.635-2.215-.485-4.555-2.605-5.442z"/><path d="m410.299 208.104c-31.149 4.627-41.32 13.256-44.086 15.75-5.956 5.371-9.089 10.713-16.439 25.501-14.726 29.627-19.993 44.081-23.911 51.751-8.215 16.081-27.145 34.911-74.556 46.115-1.087.257-2.041.906-2.677 1.827-3.713 5.38-7.988 12.923-10.939 22.559-5.583 18.232-3.392 34.041-1.598 42.28.071.328.176.628.317.932 4.081 8.809 8.162 24.365 12.243 35.451 1.018 2.765-.807 5.682-3.61 6.066.184.023.368.045.557.045h29.723c3.15 0 5.328-3.145 4.236-6.111-4.081-11.086-8.162-26.642-12.243-35.451-.141-.304-.246-.604-.317-.932-1.793-8.239-3.984-24.048 1.598-42.28 1.315-4.294 2.892-8.171 4.566-11.628 2.083-4.301.734-7.878 2.793-10.861.636-.921 1.747-1.882 2.834-2.139.808-.191 5.03-.143 5.821-.338 13.573-3.349 24.739-7.335 33.943-11.697 1.967-.933 2.701-5.513 4.493-6.478 2.9-1.561 6.721.471 9.193-1.156 12.89-8.486 20.198-17.727 24.529-26.204 3.918-7.669 9.185-22.124 23.911-51.751 7.35-14.788 10.483-20.13 16.439-25.501 2.019-1.821 7.985-6.911 23.176-11.326 5.619-1.633 9.933-3.643 18.344-4.892 3.106-.461 9.107-.43 12.841-.797 1.822-.179 3.715-.342 5.676-.482-19.328-1.356-35.324.033-46.857 1.747z"/></g><path d="m374.904 118.043c-1.021.661-2.277.836-3.442.483-7.127-2.161-29.499-10.534-38.436-33.349-4.573-11.675-3.759-22.357-2.813-28.232 6.644-1.367 17.186-2.481 29.064.941 25.546 7.36 37.806 30.094 41.791 39.099.817 1.846.158 4.012-1.536 5.109z" fill="#ff678d"/></g><g><path d="m284.608 346.631c-3.036-7.159-9.241-17.23-21.43-23.637-11.238-5.906-22.088-5.843-29.303-4.715 1.15 1.063 1.758 2.708 1.313 4.439-.937 3.644-1.833 7.537-2.659 11.637 3.459-.979 13.364-2.987 23.46 2.318 11.996 6.306 15.419 18.335 15.982 20.683.235.978.66 1.855 1.205 2.63 2.08-4.293 4.303-7.96 6.359-10.939.636-.921 1.591-1.57 2.677-1.827.814-.192 1.599-.392 2.396-.589z" fill="#f3e8ce"/><path d="m280.075 338.25c-4.668 1.89-9.763 3.688-15.334 5.369 5.062 5.809 6.839 12.106 7.231 13.736.235.978.66 1.855 1.205 2.63 2.08-4.293 4.303-7.96 6.359-10.939.636-.921 1.591-1.57 2.677-1.827.814-.192 1.599-.392 2.396-.589-1.072-2.526-2.549-5.417-4.534-8.38z" fill="#ffd09d"/><path d="m37.623 311.537c-13.385-6.344-26.017-14.353-37.623-23.794v19.44c9.799 7.033 20.17 13.183 31.005 18.318 5.304 2.515 10.77 4.789 16.314 6.838 1.549-3.948 3.275-8.002 5.226-12.154.352-.75.891-1.362 1.536-1.809-5.601-2.018-11.115-4.307-16.458-6.839z" fill="#f3e8ce"/><path d="m341.71 196.365c-2.315-9.137-5.059-18.204-8.199-27.043-5.605-15.777-12.57-31.177-20.742-45.879-4.748 2.512-9.408 4.873-13.814 6.962 7.888 14.12 14.606 28.922 19.995 44.09 3.051 8.591 5.708 17.407 7.937 26.291-.468.165-.933.311-1.401.481-19.336 7.024-37.003 17.694-52.629 31.746-5.414-5.429-11.218-10.757-17.471-15.922-18.007-14.871-38.071-27.11-59.752-36.467 16.626-21.943 37.342-34.041 48.528-39.403-8.491.027-18.035-.27-28.868-.779-16.607 11.829-36.062 30.605-48.305 58.684-5.372 12.322-8.447 24.321-10.055 35.352-1.462-2.194-3-4.338-4.646-6.407-12.583-15.813-27.977-25.086-40.985-30.495 1.829-2.793 3.567-5.715 5.197-8.775 8.627-16.19 13.312-34.736 13.776-54.156-5.509-.497-10.632-.97-15.42-1.393-.264 17.389-4.35 33.94-11.993 48.282-12.787 23.999-34.697 41.436-65.12 51.827-15.492 5.291-29.452 7.395-37.743 8.231v15.521c18.992-1.738 68.928-9.774 101.556-46.762 11.814 4.338 26.765 12.419 38.64 27.341 26.522 33.332 17.267 75.853 13.26 89.595 5.544-.16 10.949-.439 16.21-.819 1.714-6.941 3.565-16.765 4.018-28.055.14-3.507.132-6.966-.011-10.375 14.223-3.013 28.633-5.727 42.946-8.046 22.728-3.682 45.863-6.514 68.837-8.452 16.327 22.49 26.64 45.021 33.096 63.4 5.151-2.442 9.686-5.001 13.685-7.634-8.74-24.099-23.661-54.406-48.816-83.016 14.09-12.618 29.982-22.194 47.341-28.501 34.149-12.404 66.495-9.148 89.533-3.258 5.621-1.634 12.493-3.178 20.909-4.428 3.107-.461 6.544-.898 10.275-1.267-18.601-8.024-61.341-22.283-109.769-10.471zm-127.562 68.374c-14.046 2.275-28.185 4.926-42.157 7.861-.136-.764-.276-1.526-.427-2.283.061-.545.07-1.104.011-1.672-1.588-15.232-1.215-38.586 9.579-63.343 1.776-4.074 3.732-7.918 5.813-11.562 21.316 8.909 41 20.748 58.579 35.267 7.62 6.293 14.54 12.847 20.848 19.536.202.267.416.528.657.772.182.185.372.357.567.52 2.22 2.391 4.361 4.798 6.426 7.217-20.027 1.913-40.113 4.483-59.896 7.687z" fill="#f3e8ce"/><g fill="#ffd09d"><path d="m332.237 327.306c-2.462-6.789-5.415-14.07-8.949-21.668-2.717 4.331-6.297 8.785-11.038 13.174 2.422 5.632 4.516 11.043 6.303 16.128 5.15-2.442 9.685-5.001 13.684-7.634z"/><path d="m420.295 212.531c5.621-1.634 12.494-3.178 20.909-4.428 3.104-.461 6.542-.896 10.273-1.263.001-.002.001-.003.002-.004-.666-.287-1.371-.585-2.098-.886-15.861-.557-29.135.675-39.082 2.152-2.259.336-4.395.694-6.438 1.068 5.873.903 11.378 2.068 16.434 3.361z"/></g></g></g></g></svg>