<svg id="Capa_1" enable-background="new 0 0 512 512" height="512" viewBox="0 0 512 512" width="512" xmlns="http://www.w3.org/2000/svg"><g><path d="m502.173 256c0 141.385-106.149 247.701-247.534 247.701-51.766 0-95.755-10.911-136.032-37.329-20.12-13.197-41.095-25.306-56.735-43.481-38.562-44.815-61.872-103.131-61.872-166.891 0-141.385 114.615-256 256-256 79.529 0 150.588 36.265 197.542 93.16 36.52 44.252 48.631 100.984 48.631 162.84z" fill="#75cde7"/><path d="m512 256c0 141.382-114.618 256-256 256-78.479 0-148.707-35.315-195.662-90.913 45.678 42.351 106.83 68.25 174.028 68.25 141.382 0 256-114.618 256-256 0-62.903-22.695-120.511-60.338-165.087 50.418 46.759 81.972 113.567 81.972 187.75z" fill="#5db4d9"/><path d="m459.052 256c0 13.151-30.317 25.393-32.705 37.848-4.305 22.451 16.76 44.204 5.719 63.369-35.064 60.863-100.78 101.835-176.066 101.835-32.591 0-63.388-7.678-90.682-21.324-28.176-14.087 14.553-34.468-4.274-59.393-5.319-7.043-77.363-14.509-81.743-22.225-16.774-29.544-26.353-63.708-26.353-100.11 0-60.259 26.249-114.387 67.937-151.575 16.363-14.597 46.677-1.843 67.144-10.566 24.427-10.41 39.74-40.911 67.971-40.911 112.143 0 203.052 90.909 203.052 203.052z" fill="#5db4d9"/><path d="m298.225 299.346c.935-5.565 1.327-11.313 1.112-17.193-1.624-44.325-33.16-76.306-75.371-79.182-10.967-.343-21.483 1.401-31.184 4.862-10.727 3.826-22.343 4.568-33.522 2.391-6.587-1.283-13.411-1.904-20.399-1.79-17.001.277-19.463 25.138-33.331 33.13-11.375 6.555-34.847-4.842-42.773 5.549-12.395 16.249-19.836 36.443-20.012 58.25-.35 43.418 27.61 80.35 66.527 93.457 10.9 3.671 20.606 10.355 27.913 19.237 8.434 10.251 18.922 18.744 30.828 24.869 14.832 4.621 28.506 5.627 44.159 5.8 53.715.593 90.847-40.443 91.339-94.159.085-9.302-1.133-18.305-3.48-26.841-2.544-9.248-3.395-18.922-1.806-28.38z" fill="#f2f1ef"/><path d="m310.177 357.009c-.495 53.714-44.978 97.27-98.691 96.672-15.648-.175-30.421-4.028-43.474-10.755 5.831 1.174 11.847 1.803 18.008 1.875 53.714.597 98.197-42.959 98.691-96.672.082-9.302-1.133-18.306-3.482-26.847-2.545-9.241-3.389-18.924-1.803-28.381.938-5.563 1.329-11.311 1.113-17.194-1.133-30.844-18.955-57.618-44.627-71.515 38.704 6.809 68.61 40.136 70.094 80.395.216 5.882-.175 11.631-1.113 17.194-1.587 9.457-.742 19.141 1.803 28.381 2.348 8.541 3.564 17.545 3.481 26.847z" fill="#dedddd"/><path d="m266.274 336.496c0 26.514-17.117 46.638-43.631 46.638-14.629 0-25.518-7.132-34.323-17.452-2.791-3.271-7.462-4.964-9.302-8.906-2.875-6.161-4.481-13.033-4.481-20.279 0-26.514 21.494-48.008 48.008-48.008 7.249 0 14.123 1.607 20.285 4.484 1.498.699 2.838 3.219 4.247 4.063 13.993 8.388 19.197 21.958 19.197 39.46z" fill="#ffc74a"/><path d="m270.556 336.498c0 26.517-21.5 48.006-48.017 48.006-19.264 0-35.881-11.353-43.515-27.732 6.16 2.885 13.032 4.492 20.274 4.492 26.517 0 48.017-21.5 48.017-48.006 0-7.242-1.607-14.113-4.492-20.274 16.381 7.633 27.733 24.25 27.733 43.514z" fill="#ffb24d"/><path d="m259.505 40.915c-24.917 9.563-28.243.897-53.161 10.459-24.916 9.562-21.59 18.229-46.507 27.791-24.915 9.562-28.241.896-53.157 10.458-24.914 9.562-21.588 18.228-46.503 27.79-23.891 9.169-27.931 1.578-50.189 9.368-1.637.573-2.465 2.399-1.844 4.017l9.13 23.791 9.609 4.717-4.073 9.708 5.744 14.966 5.452 6.104c.602 1.568 2.346 2.357 3.93 1.8 22.371-7.865 24.168-3.651 48.104-12.837 24.914-9.562 21.588-18.228 46.503-27.79 24.916-9.562 28.241-.896 53.157-10.458s21.774-11.993 46.69-21.555c24.917-9.563 28.243-.897 53.161-10.459 17.008-6.527 20.861-12.637 29.515-18.899-18.344-16.842-36.398-33.234-55.539-48.98-.007.003-.014.006-.022.009z" fill="#f75959"/><path d="m315.071 89.883c-8.654 6.264-12.506 12.372-29.515 18.904-24.92 9.56-28.248.896-53.168 10.456-24.91 9.56-21.582 18.234-46.502 27.794s-28.237.896-53.157 10.456c-6.689 2.679-13.018 5.405-20.686 11.754-6.449 5.275-11.404 10.498-25.816 16.03-23.941 9.189-27.949 1.556-50.314 9.416-1.586.556-3.338-.227-3.935-1.803l-3.42-8.911c24.117-9.024 27.66-.68 52.282-10.127 24.91-9.56 21.582-18.234 46.502-27.794 2.709-1.039 5.161-1.863 7.414-2.519 5.688-1.656 11.266-3.682 16.639-6.175 1.962-.91 3.809-1.701 5.564-2.453 6.325-2.709 10.899-4.656 19.017-12.053 8.108-7.397 10.487-11.765 13.763-17.812 4.141-7.644 9.303-17.152 23.076-29.7 13.784-12.558 23.725-16.813 31.719-20.233 6.15-2.637 10.631-4.543 18.327-11.445 16.267 13.526 31.791 27.506 47.44 41.846 1.586 1.444 3.173 2.906 4.77 4.369z" fill="#ed4a53"/><g><path d="m294.951 71.556c-4.533 3.379-10.395 6.954-19.656 10.508-13.67 5.244-21.871 5.512-29.103 5.738-6.882.216-12.815.402-24.055 4.718-11.239 4.316-15.782 8.149-21.036 12.589-5.532 4.667-11.796 9.952-25.476 15.205-13.67 5.244-21.871 5.512-29.103 5.738-6.871.216-12.815.402-24.055 4.718-11.229 4.316-15.772 8.149-21.026 12.589-5.532 4.667-11.796 9.952-25.476 15.205-13.671 5.244-21.871 5.501-29.103 5.738-6.84.216-12.764.402-23.91 4.656l-.134.062-5.542-14.433c13.681-5.244 21.871-5.501 29.103-5.738 6.871-.216 12.815-.402 24.055-4.718 11.239-4.306 15.782-8.149 21.036-12.578 5.522-4.667 11.785-9.962 25.466-15.205 13.681-5.254 21.871-5.511 29.103-5.738 6.882-.227 12.815-.412 24.055-4.728 11.239-4.306 15.782-8.138 21.036-12.579 5.532-4.667 11.796-9.962 25.466-15.205 13.681-5.254 21.881-5.511 29.103-5.738 6.882-.216 12.826-.412 24.065-4.718 5.965-2.287 10.044-4.44 13.341-6.624 3.965 3.482 7.911 7.005 11.846 10.538z" fill="#f2f1ef"/></g><path d="m294.951 71.556c-4.533 3.379-10.395 6.954-19.656 10.508-13.67 5.244-21.871 5.512-29.103 5.738-6.882.216-12.815.402-24.055 4.718-11.239 4.316-15.782 8.149-21.036 12.589-4.801 4.049-10.147 8.561-20.398 13.114 4.512-4.842 6.5-8.509 9.035-13.176 3.163-5.841 6.923-12.764 14.659-21.294 3.307-1.865 7.273-3.76 12.197-5.656 13.681-5.254 21.881-5.511 29.103-5.738 6.882-.216 12.826-.412 24.065-4.718 5.965-2.287 10.044-4.44 13.341-6.624.134.113.268.237.402.35 1.844 1.628 3.688 3.266 5.532 4.904 1.979 1.752 3.947 3.513 5.914 5.285z" fill="#dedddd"/><path d="m278.81 59.809c-21.894 19.95-28.832 12.336-50.726 32.286-21.893 19.949-14.954 27.564-36.847 47.513-21.892 19.949-28.831 12.334-50.723 32.283-21.891 19.948-14.952 27.562-36.844 47.51-20.782 18.937-28.088 13.035-47.503 29.452-1.785 1.509-1.967 4.205-.393 5.933l19.12 20.983 7.255 1.488 3.172 9.956 11.483 12.602 8.435 4.271c1.492 1.637 4.02 1.803 5.707.368 19.595-16.67 24.299-10.17 45.167-29.184 21.891-19.948 14.953-27.562 36.844-47.51 21.892-19.949 28.831-12.334 50.723-32.283 21.893-19.949 14.954-27.564 36.847-47.513 21.894-19.95 30.729-8.569 52.623-28.519 2.942-2.681 5.351-5.134 7.392-7.43-19.627-18.495-38.471-37.29-57.589-56.176-1.26 1.27-2.626 2.588-4.143 3.97z" fill="#f75959"/><path d="m340.547 112.012c-2.05 2.297-4.45 4.749-7.397 7.428-21.891 19.955-28.835 12.342-50.726 32.286-21.891 19.955-14.958 27.568-36.85 47.512-21.891 19.955-28.824 12.342-50.716 32.286s-14.958 27.568-36.85 47.512c-20.861 19.017-28.145 12.991-47.739 29.659-1.689 1.432-4.224 1.267-5.707-.371l-7.757-8.509c20.738-18.286 27.856-11.466 49.243-30.957 21.891-19.944 14.948-27.568 36.839-47.512s28.835-12.331 50.726-32.286c21.891-19.944 14.958-27.557 36.85-47.512 21.891-19.944 28.835-12.331 50.726-32.286 1.875-1.71 5.171-5.275 7.84-8.221 3.812 3.677 7.655 7.324 11.518 10.971z" fill="#ed4a53"/><g><path d="m317.141 89.523c-1.751 1.844-3.719 3.77-5.954 5.81-11.919 10.858-20.212 14.412-27.526 17.544-6.799 2.905-13.217 5.645-23.2 14.742s-13.31 15.236-16.843 21.737c-3.791 6.995-8.097 14.927-20.006 25.775-11.909 10.858-20.212 14.412-27.526 17.544-6.799 2.905-13.217 5.645-23.2 14.742-9.982 9.096-13.31 15.236-16.833 21.726-3.791 7.005-8.097 14.927-20.006 25.785s-20.212 14.402-27.526 17.534c-6.799 2.905-13.217 5.656-23.2 14.752l-10.425-11.445.278-.216c11.775-10.673 19.996-14.186 27.269-17.297 6.799-2.905 13.217-5.656 23.2-14.752 9.972-9.097 13.31-15.226 16.833-21.726 3.791-6.995 8.097-14.927 20.006-25.785 11.909-10.848 20.202-14.402 27.526-17.534 6.799-2.905 13.217-5.645 23.2-14.742 9.982-9.096 13.31-15.236 16.833-21.737 3.791-6.995 8.097-14.927 20.006-25.775 11.919-10.858 20.212-14.412 27.537-17.544 6.789-2.905 13.207-5.645 23.189-14.742 2.029-1.854 3.781-3.575 5.316-5.213 3.676 3.605 7.354 7.221 11.052 10.817z" fill="#f2f1ef"/></g><path d="m252.829 31.843h200.224l1.283 3.131c9.927 0 17.974 8.047 17.974 17.974l-1.268 187.803c0 8.006-9.68 12.016-15.341 6.355l-58.822-49.518-150.404-150.404c-5.662-5.661-1.652-15.341 6.354-15.341z" fill="#ffc74a"/><g><path d="m384.578 129.719c-1.977 0-3.955-.755-5.463-2.263-3.018-3.017-3.018-7.909 0-10.927l47.034-47.034c3.017-3.017 7.909-3.017 10.927 0s3.018 7.909 0 10.927l-47.034 47.034c-1.509 1.509-3.487 2.263-5.464 2.263z" fill="#ffb24d"/></g><g><path d="m410.813 155.954c-1.977 0-3.955-.755-5.463-2.263-3.018-3.017-3.018-7.909 0-10.927l25.989-25.989c3.017-3.017 7.909-3.017 10.927 0s3.018 7.909 0 10.927l-25.989 25.989c-1.509 1.509-3.487 2.263-5.464 2.263z" fill="#ffb24d"/></g><g><path d="m358.344 103.485c-1.977 0-3.955-.755-5.463-2.263-3.018-3.017-3.018-7.909 0-10.927l25.989-25.989c3.017-3.017 7.909-3.017 10.927 0s3.018 7.909 0 10.927l-25.989 25.989c-1.51 1.508-3.487 2.263-5.464 2.263z" fill="#ffb24d"/></g><path d="m474.728 49.82v203.924c0 8.006-9.68 12.016-15.341 6.354l-62.51-62.51 27.403-8.52c3.328-1.04 6.768-1.556 10.24-1.556 3.258 0 6.425.449 9.435 1.297 4.573 1.289 9.098-2.204 9.098-6.955v-150.011h3.698c9.929 0 17.977 8.048 17.977 17.977z" fill="#ffb24d"/><path d="m461.893 309.975-6.191 1.926-64.692 10.501c-6.228 1.938-12.847-1.541-14.785-7.768l-19.546-32.652-10.149-32.622c-1.938-6.228 1.541-12.847 7.768-14.785l76.713-23.866c6.228-1.938 12.847 1.541 14.785 7.768l23.866 76.713c1.937 6.228-1.542 12.847-7.769 14.785z" fill="#f2f1ef"/><path d="m455.701 311.898-70.516 21.943c-6.233 1.937-12.857-1.545-14.793-7.768l-13.712-44.092 51.21-15.937c3.091-.958 6.294-1.442 9.519-1.442 14.103 0 26.393 9.045 30.576 22.509z" fill="#dedddd"/><path d="m439.109 366.384-60.815 18.92c-4.937 1.536-10.185-1.221-11.721-6.159l-18.92-60.815c-1.536-4.937 1.221-10.185 6.159-11.721l60.815-18.92c4.937-1.536 10.185 1.221 11.721 6.159l18.92 60.815c1.535 4.937-1.222 10.185-6.159 11.721z" fill="#ffc74a"/></g></svg>