<svg id="Capa_1" enable-background="new 0 0 512 512" height="512" viewBox="0 0 512 512" width="512" xmlns="http://www.w3.org/2000/svg"><g><g><g><path d="m394.335 87.51c0-25.604-20.756-46.361-46.361-46.361-3.866 0-7.619.481-11.209 1.372-1.954-23.806-21.88-42.521-46.19-42.521-13.744 0-26.085 5.986-34.575 15.487-8.49-9.501-20.831-15.487-34.575-15.487-24.31 0-44.236 18.715-46.19 42.521-3.59-.892-7.343-1.372-11.209-1.372-25.604 0-46.361 20.756-46.361 46.361 0 82.778 138.335 230.104 138.335 230.104s138.335-147.326 138.335-230.104z" fill="#a3e440"/></g><path d="m263.058 63.86c-24.18 0-45.429 12.745-57.419 31.846-6.388-2-13.174-3.079-20.211-3.079-25.636 0-47.994 14.316-59.503 35.365 4.702 13.08 11.163 26.767 18.724 40.538-.534-2.629-.806-5.362-.806-8.147 0-22.924 18.662-41.575 41.585-41.575 3.749 0 7.383.503 10.839 1.445-.628 3.697-.974 7.498-.974 11.373 0 20.934 9.551 39.679 24.516 52.12-7.488 10.985-20.107 18.222-34.38 18.222-10.284 0-19.688-3.749-26.956-9.938 7.718 12.315 16.002 24.463 24.359 36.066.859.031 1.728.052 2.597.052 24.17 0 45.418-12.734 57.419-31.846 6.388 2 13.174 3.089 20.211 3.089 37.365 0 67.756-30.401 67.756-67.766-.001-37.364-30.392-67.765-67.757-67.765zm0 109.352c-3.749 0-7.383-.513-10.849-1.445.639-3.707.974-7.498.974-11.383 0-20.934-9.54-39.68-24.505-52.12 7.488-10.985 20.107-18.222 34.38-18.222 22.924 0 41.575 18.662 41.575 41.585s-18.651 41.585-41.575 41.585z" fill="#8dc637"/></g><g><g><path d="m263.055 178.443c-37.364 0-67.761-30.398-67.761-67.761s30.397-67.761 67.761-67.761 67.762 30.398 67.762 67.761-30.397 67.761-67.762 67.761zm0-109.342c-22.928 0-41.58 18.653-41.58 41.581s18.653 41.581 41.58 41.581c22.928 0 41.581-18.653 41.581-41.581s-18.653-41.581-41.581-41.581z" fill="#ffd496"/></g></g><g><g><path d="m388.581 53.447c-28.245 2.721-50.785 25.261-53.506 53.505-.313 3.249-2.992 5.754-6.256 5.754h-24.999c-3.627 0-6.525-3.065-6.277-6.684 3.294-48.183 41.926-86.814 90.109-90.108 3.619-.247 6.684 2.65 6.684 6.277v24.999c-.001 3.265-2.506 5.944-5.755 6.257z" fill="#fb9927"/></g></g><g><g><path d="m348.097 34.711c-24.778 13.829-36.376 43.52-27.532 70.482 1.017 3.102-.431 6.471-3.421 7.781l-22.897 10.034c-3.322 1.456-7.206-.189-8.432-3.602-16.323-45.454 3.555-96.343 46.365-118.699 3.215-1.679 7.186-.255 8.641 3.067l10.034 22.897c1.311 2.991.092 6.449-2.758 8.04z" fill="#fcb44d"/></g></g><g><g><circle cx="326.531" cy="148.251" fill="#e01058" r="60.978"/><path d="m387.511 148.246c0 33.679-27.301 60.98-60.98 60.98-5.435 0-10.703-.712-15.708-2.042 26.065-6.933 45.272-30.694 45.272-58.938 0-28.233-19.206-51.995-45.272-58.927 5.006-1.33 10.273-2.042 15.708-2.042 33.679-.001 60.98 27.3 60.98 60.969z" fill="#cf0e50"/></g><g><circle cx="326.531" cy="148.251" fill="#fc5a95" r="34.562"/><path d="m361.089 148.246c0 19.091-15.467 34.569-34.558 34.569-3.655 0-7.173-.566-10.472-1.623 13.97-4.43 24.086-17.51 24.086-32.946 0-15.426-10.116-28.505-24.086-32.946 3.299-1.047 6.817-1.613 10.472-1.613 19.091 0 34.558 15.478 34.558 34.559z" fill="#fb3a82"/></g></g><g><circle cx="244.634" cy="181.024" fill="#a64b35" r="59.207"/><g><path d="m233.265 122.913c-9.844 1.906-18.819 6.262-26.275 12.399 11.991 7.31 20.012 20.505 20.012 35.543 0 20.023-14.221 36.789-33.092 40.716 5.069 8.409 12.179 15.457 20.651 20.463 22.819-10.912 38.622-34.234 38.622-61.179 0-18.703-7.624-35.668-19.918-47.942z" fill="#8b3d2a"/></g><path d="m303.837 181.024c0 32.694-26.505 59.21-59.2 59.21-5.435 0-10.703-.733-15.708-2.115 25.071-6.88 43.491-29.835 43.491-57.095s-18.42-50.215-43.491-57.095c5.006-1.382 10.273-2.115 15.708-2.115 32.695 0 59.2 26.516 59.2 59.21z" fill="#8b3d2a"/></g><g><g><path d="m185.426 207.204c-37.364 0-67.761-30.398-67.761-67.761s30.397-67.761 67.761-67.761 67.762 30.398 67.762 67.761-30.398 67.761-67.762 67.761zm0-109.342c-22.928 0-41.58 18.653-41.58 41.581s18.653 41.581 41.58 41.581c22.928 0 41.581-18.653 41.581-41.581s-18.653-41.581-41.581-41.581z" fill="#fee7c9"/></g></g><g><g><path d="m387.454 176.277-20.325 312.695c-.842 12.95-11.591 23.023-24.568 23.023h-122.645c-14.415 0-25.746-12.329-24.532-26.693l13.101-155.072c5.758-68.151 46.41-128.455 107.425-159.356l35.852-18.157c17.007-8.613 36.928 4.538 35.692 23.56z" fill="#fca62f"/><path d="m387.458 176.28-20.327 312.692c-.847 12.954-11.592 23.028-24.567 23.028h-31.417c12.975 0 23.72-10.074 24.568-23.029l20.327-312.692c.566-8.755-3.341-16.263-9.383-20.976l5.1-2.587c17.006-8.617 36.935 4.536 35.699 23.564z" fill="#f98824"/></g><g><path d="m124.546 176.277 20.325 312.695c.842 12.95 11.591 23.023 24.568 23.023h122.645c14.415 0 25.746-12.329 24.533-26.693l-13.101-155.072c-5.758-68.151-46.41-128.455-107.425-159.356l-35.852-18.157c-17.008-8.613-36.929 4.538-35.693 23.56z" fill="#fcc16d"/><path d="m292.087 512h-31.417c14.41 0 25.741-12.336 24.526-26.694l-13.101-155.073c-5.76-68.154-46.403-128.453-107.425-159.356l-30.747-15.572c7.09-5.55 17.133-7.236 26.317-2.587l35.847 18.159c61.022 30.904 101.665 91.203 107.425 159.356l13.101 155.073c1.215 14.358-10.116 26.694-24.526 26.694z" fill="#fcb44d"/></g></g><g fill="#fb9927"><g><path d="m208.578 475.781c-4.267 0-7.726-3.459-7.726-7.726v-.108c0-4.267 3.459-7.726 7.726-7.726s7.726 3.459 7.726 7.726v.108c0 4.266-3.459 7.726-7.726 7.726z"/><path d="m182.011 475.781c-4.267 0-7.726-3.459-7.726-7.726v-.108c0-4.267 3.459-7.726 7.726-7.726s7.726 3.459 7.726 7.726v.108c0 4.266-3.459 7.726-7.726 7.726z"/></g><path d="m195.295 455.594c-4.267 0-7.726-3.459-7.726-7.726v-.109c0-4.267 3.459-7.726 7.726-7.726s7.726 3.459 7.726 7.726v.109c0 4.266-3.459 7.726-7.726 7.726z"/></g><g fill="#fcc16d"><g><path d="m337.714 239.725c-4.268 0-7.726-3.459-7.726-7.726v-.109c0-4.267 3.459-7.726 7.726-7.726s7.726 3.459 7.726 7.726v.109c.001 4.267-3.458 7.726-7.726 7.726z"/><path d="m311.147 239.725c-4.268 0-7.726-3.459-7.726-7.726v-.109c0-4.267 3.459-7.726 7.726-7.726s7.726 3.459 7.726 7.726v.109c0 4.267-3.459 7.726-7.726 7.726z"/></g><path d="m324.431 219.537c-4.268 0-7.726-3.459-7.726-7.726v-.108c0-4.267 3.459-7.726 7.726-7.726s7.726 3.459 7.726 7.726v.108c0 4.267-3.459 7.726-7.726 7.726z"/></g><g><g><path d="m249.495 284.386c-4.267 0-7.726-3.459-7.726-7.726v-.109c0-4.267 3.459-7.726 7.726-7.726s7.726 3.459 7.726 7.726v.109c0 4.267-3.458 7.726-7.726 7.726z" fill="#f98824"/></g><path d="m236.212 264.199c-4.267 0-7.726-3.459-7.726-7.726v-.109c0-4.267 3.459-7.726 7.726-7.726s7.726 3.459 7.726 7.726v.109c0 4.266-3.459 7.726-7.726 7.726z" fill="#f98824"/></g><g><ellipse cx="243.076" cy="394.082" fill="#fb9927" rx="22.477" ry="35.794"/></g><g><ellipse cx="192.889" cy="311.953" fill="#fb9927" rx="15.689" ry="24.985"/></g></g></svg>