<svg id="Capa_1" enable-background="new 0 0 512 512" height="512" viewBox="0 0 512 512" width="512" xmlns="http://www.w3.org/2000/svg"><g><g><g><g><g><g><path d="m276.592 167.998c0 6.193-6.067 11.71-7.225 17.564-1.193 6.032 2.279 13.444-.023 18.993-2.341 5.646-10.061 8.422-13.421 13.441-3.386 5.057-3.016 13.245-7.304 17.533s-12.476 3.918-17.533 7.304c-5.019 3.36-7.795 11.079-13.441 13.42-5.549 2.301-12.961-1.171-18.993.022-5.854 1.158-11.371 7.225-17.564 7.225s-11.71-6.067-17.564-7.225c-6.032-1.193-13.444 2.279-18.993-.023-5.646-2.341-8.422-10.061-13.441-13.421-5.057-3.386-13.245-3.016-17.533-7.304s-3.918-12.476-7.304-17.533c-3.36-5.019-11.079-7.795-13.42-13.441-2.301-5.549 1.171-12.961-.022-18.993-1.158-5.854-7.225-11.371-7.225-17.564s6.067-11.71 7.225-17.564c1.193-6.032-2.279-13.444.023-18.993 2.341-5.646 10.061-8.422 13.421-13.441 3.386-5.057 3.016-13.245 7.304-17.533s12.476-3.918 17.533-7.304c5.019-3.36 7.795-11.079 13.441-13.42 5.549-2.301 12.961 1.171 18.993-.022 5.854-1.158 11.371-7.225 17.564-7.225s11.71 6.067 17.564 7.225c6.032 1.193 13.444-2.279 18.993.023 5.646 2.341 8.422 10.061 13.441 13.421 5.057 3.386 13.245 3.016 17.533 7.304s3.918 12.476 7.304 17.533c3.36 5.019 11.079 7.795 13.421 13.441 2.301 5.549-1.171 12.961.022 18.993 1.157 5.853 7.224 11.37 7.224 17.564z" fill="#ef7f02"/></g></g><path d="m261.993 201.625c-5.019 3.36-7.795 11.079-13.441 13.42-5.549 2.301-12.961-1.171-18.993.023-5.854 1.158-11.371 7.225-17.564 7.225s-11.71-6.067-17.564-7.225c-6.032-1.193-13.444 2.279-18.993-.023-5.646-2.341-8.422-10.061-13.441-13.421-5.057-3.386-13.245-3.016-17.533-7.304s-3.918-12.476-7.304-17.533c-3.36-5.019-11.079-7.795-13.42-13.441-2.301-5.549 1.171-12.961-.022-18.993-1.158-5.854-7.225-11.371-7.225-17.564s6.067-11.71 7.225-17.564c.799-4.04-.489-8.696-.739-13-3.54.938-7.067 1.888-9.419 4.241-4.288 4.288-3.918 12.475-7.304 17.533-3.36 5.019-11.079 7.795-13.421 13.441-2.301 5.55 1.171 12.962-.023 18.993-1.158 5.854-7.225 11.37-7.225 17.564s6.067 11.71 7.225 17.564c1.193 6.031-2.279 13.443.022 18.993 2.341 5.646 10.061 8.422 13.42 13.441 3.386 5.057 3.016 13.245 7.304 17.533s12.476 3.919 17.533 7.304c5.019 3.36 7.795 11.079 13.441 13.421 5.55 2.301 12.961-1.171 18.993.023 5.854 1.158 11.37 7.225 17.564 7.225s11.71-6.067 17.564-7.225c6.031-1.193 13.443 2.279 18.993-.023 5.646-2.341 8.422-10.06 13.441-13.42 5.057-3.386 13.245-3.016 17.533-7.304s3.918-12.476 7.304-17.533c4.811-7.187 14.856-7.845 14.182-19.434-2.911.771-5.831 1.535-8.113 3.063z" fill="#e76401"/><g><path d="m137.161 87.094c.359-.537.669-1.115.954-1.714-1.284 1.638-2.518 3.36-3.853 4.882 1.116-.98 2.125-2.013 2.899-3.168z" fill="#d3914f"/></g><g><g><path d="m426.413 167.998c0 6.193-6.067 11.71-7.225 17.564-1.193 6.032 2.279 13.444-.023 18.993-2.341 5.646-10.061 8.422-13.421 13.441-3.386 5.057-3.016 13.245-7.304 17.533s-12.475 3.918-17.533 7.304c-5.019 3.36-7.795 11.079-13.441 13.42-5.549 2.301-12.961-1.171-18.993.022-5.854 1.158-11.371 7.225-17.564 7.225s-11.71-6.067-17.564-7.225c-6.032-1.193-13.444 2.279-18.993-.023-5.646-2.341-8.422-10.061-13.441-13.421-5.057-3.386-13.245-3.016-17.533-7.304s-3.918-12.476-7.304-17.533c-3.36-5.019-11.079-7.795-13.42-13.441-2.301-5.549 1.171-12.961-.022-18.993-1.158-5.854-7.225-11.371-7.225-17.564s6.067-11.71 7.225-17.564c1.193-6.032-2.279-13.444.023-18.993 2.341-5.646 10.061-8.422 13.421-13.441 3.386-5.057 3.016-13.245 7.304-17.533s12.475-3.918 17.533-7.304c5.019-3.36 7.795-11.079 13.441-13.42 5.549-2.301 12.961 1.171 18.993-.022 5.854-1.158 11.371-7.225 17.564-7.225s11.71 6.067 17.564 7.225c6.032 1.193 13.444-2.279 18.993.023 5.646 2.341 8.422 10.061 13.441 13.421 5.057 3.386 13.245 3.016 17.533 7.304s3.918 12.476 7.304 17.533c3.36 5.019 11.079 7.795 13.42 13.441 2.301 5.549-1.171 12.961.022 18.993 1.158 5.853 7.225 11.37 7.225 17.564z" fill="#ef7f02"/></g></g><g><path d="m294.801 79.588c-.149.053-.301.094-.447.154-2.258.936-4.054 2.736-5.721 4.769 2.029-1.662 4.285-3.198 6.168-4.923z" fill="#d3914f"/><path d="m389.682 215.068c-5.854 1.158-11.371 7.225-17.564 7.225s-11.71-6.067-17.564-7.225c-6.032-1.193-13.444 2.279-18.993-.023-5.646-2.341-8.422-10.061-13.441-13.421-5.057-3.386-13.245-3.016-17.533-7.304s-3.918-12.476-7.304-17.533c-3.36-5.019-11.079-7.795-13.421-13.441-2.301-5.549 1.171-12.961-.022-18.993-1.158-5.854-7.225-11.371-7.225-17.564s6.067-11.71 7.225-17.564c1.162-5.873-2.083-13.049-.132-18.545-.87.949-1.786 1.806-2.795 2.482-5.057 3.386-13.245 3.016-17.533 7.304s-3.918 12.475-7.304 17.533c-3.36 5.019-11.079 7.795-13.421 13.441-2.301 5.55 1.171 12.962-.023 18.993-1.158 5.854-7.225 11.37-7.225 17.564s6.067 11.71 7.225 17.564c1.193 6.031-2.279 13.443.022 18.993 2.341 5.646 10.061 8.422 13.421 13.441 3.386 5.057 3.016 13.245 7.304 17.533s12.475 3.919 17.533 7.304c5.019 3.36 7.795 11.079 13.441 13.421 5.55 2.301 12.961-1.171 18.993.023 5.854 1.158 11.37 7.225 17.564 7.225s11.71-6.067 17.564-7.225c6.031-1.193 13.443 2.279 18.993-.023 5.646-2.341 8.422-10.06 13.441-13.42 5.057-3.386 13.245-3.016 17.533-7.304s3.918-12.476 7.304-17.533c.676-1.01 1.533-1.926 2.482-2.796-5.496 1.951-12.672-1.294-18.545-.132z" fill="#e76401"/></g></g><g><g><path d="m203.915 296.563c0 6.193-6.067 11.71-7.225 17.564-1.193 6.032 2.279 13.444-.023 18.993-2.341 5.646-10.061 8.422-13.421 13.441-3.386 5.057-3.016 13.245-7.304 17.533s-12.476 3.918-17.533 7.304c-5.019 3.36-7.795 11.079-13.441 13.421-5.549 2.301-12.961-1.171-18.993.022-5.854 1.158-11.371 7.225-17.564 7.225s-11.71-6.067-17.564-7.225c-6.032-1.193-13.444 2.279-18.993-.023-5.646-2.341-8.422-10.061-13.441-13.421-5.057-3.386-13.245-3.016-17.533-7.304s-3.918-12.476-7.304-17.533c-3.36-5.019-11.079-7.795-13.42-13.441-2.301-5.549 1.171-12.961-.022-18.993-1.158-5.854-7.225-11.371-7.225-17.564s6.067-11.71 7.225-17.564c1.193-6.032-2.279-13.444.023-18.993 2.341-5.646 10.061-8.422 13.421-13.441 3.386-5.057 3.016-13.245 7.304-17.533s12.476-3.918 17.533-7.304c5.019-3.36 7.795-11.079 13.441-13.42 5.549-2.301 12.961 1.171 18.993-.022 5.854-1.158 11.371-7.225 17.564-7.225s11.71 6.067 17.564 7.225c6.032 1.193 13.444-2.279 18.993.023 5.646 2.341 8.422 10.061 13.441 13.421 5.057 3.386 13.245 3.016 17.533 7.304s3.918 12.476 7.304 17.533c3.36 5.019 11.079 7.795 13.42 13.441 2.301 5.549-1.171 12.961.022 18.993 1.158 5.853 7.225 11.37 7.225 17.563z" fill="#f59705"/></g></g><path d="m121.754 384.841c-6.032-1.193-13.444 2.279-18.993-.023-5.646-2.341-8.422-10.061-13.441-13.421-5.057-3.386-13.245-3.016-17.533-7.304s-3.918-12.475-7.304-17.533c-3.36-5.019-11.079-7.795-13.421-13.441-2.301-5.549 1.171-12.961-.022-18.993-1.158-5.854-7.225-11.371-7.225-17.564s6.067-11.71 7.225-17.564c1.193-6.032-2.279-13.444.023-18.993 2.341-5.646 10.061-8.422 13.421-13.441 3.386-5.057 3.016-13.245 7.304-17.533s12.476-3.918 17.533-7.304c5.019-3.36 7.795-11.079 13.441-13.42 5.549-2.301 12.961 1.171 18.993-.023.708-.14 1.411-.355 2.111-.619-5.087-1.921-10.009-6.606-15.453-6.606-6.194 0-11.71 6.067-17.564 7.225-6.031 1.193-13.443-2.279-18.993.023-5.646 2.341-8.422 10.061-13.441 13.42-5.057 3.386-13.245 3.016-17.533 7.304s-3.918 12.475-7.304 17.533c-3.36 5.019-11.079 7.795-13.421 13.441-2.301 5.549 1.171 12.962-.023 18.993-1.158 5.854-7.225 11.37-7.225 17.564 0 6.193 6.067 11.71 7.225 17.564 1.193 6.031-2.279 13.443.022 18.993 2.341 5.646 10.061 8.422 13.421 13.441 3.386 5.057 3.016 13.245 7.304 17.533s12.476 3.919 17.533 7.304c5.019 3.36 7.795 11.079 13.441 13.421 5.55 2.301 12.961-1.17 18.993.023 5.854 1.158 11.37 7.225 17.564 7.225 5.444 0 10.366-4.685 15.453-6.606-.7-.265-1.403-.479-2.111-.619z" fill="#ef7f02"/><g><g><path d="m503.557 296.563c0 6.193-6.067 11.71-7.225 17.564-1.193 6.032 2.279 13.444-.023 18.993-2.341 5.646-10.061 8.422-13.421 13.441-3.386 5.057-3.016 13.245-7.304 17.533s-12.476 3.918-17.533 7.304c-5.019 3.36-7.795 11.079-13.441 13.421-5.549 2.301-12.961-1.171-18.993.022-5.854 1.158-11.371 7.225-17.564 7.225s-11.71-6.067-17.564-7.225c-6.032-1.193-13.444 2.279-18.993-.023-5.646-2.341-8.422-10.061-13.441-13.421-5.057-3.386-13.245-3.016-17.533-7.304s-3.918-12.476-7.304-17.533c-3.36-5.019-11.079-7.795-13.421-13.441-2.301-5.549 1.171-12.961-.022-18.993-1.158-5.854-7.225-11.371-7.225-17.564s6.067-11.71 7.225-17.564c1.193-6.032-2.279-13.444.023-18.993 2.341-5.646 10.061-8.422 13.421-13.441 3.386-5.057 3.016-13.245 7.304-17.533s12.476-3.918 17.533-7.304c5.019-3.36 7.795-11.079 13.441-13.42 5.549-2.301 12.961 1.171 18.993-.022 5.854-1.158 11.371-7.225 17.564-7.225s11.71 6.067 17.564 7.225c6.032 1.193 13.444-2.279 18.993.023 5.646 2.341 8.422 10.061 13.441 13.421 5.057 3.386 13.245 3.016 17.533 7.304s3.918 12.476 7.304 17.533c3.36 5.019 11.079 7.795 13.421 13.441 2.301 5.549-1.171 12.961.022 18.993 1.158 5.853 7.225 11.37 7.225 17.563z" fill="#f59705"/></g></g><g><path d="m428.69 384.592c.653.006 1.313.038 1.98.094-.648-.073-1.31-.098-1.98-.094z" fill="#d3914f"/><path d="m412.705 384.818c-5.646-2.341-8.422-10.061-13.441-13.421-5.057-3.386-13.245-3.016-17.533-7.304s-3.918-12.475-7.304-17.533c-3.36-5.019-11.079-7.795-13.421-13.441-2.301-5.549 1.171-12.961-.022-18.993-1.158-5.854-7.225-11.371-7.225-17.564s6.067-11.71 7.225-17.564c1.193-6.032-2.279-13.444.023-18.993 2.341-5.646 10.061-8.422 13.421-13.441 3.386-5.057 3.016-13.245 7.304-17.533s12.476-3.918 17.533-7.304c5.019-3.36 7.795-11.079 13.441-13.42 4.072-1.688 9.145-.273 13.941.131-6.501-.742-12.061-7.379-18.592-7.379-6.194 0-11.71 6.067-17.564 7.225-6.031 1.193-13.443-2.279-18.993.023-5.646 2.341-8.422 10.061-13.441 13.42-5.057 3.386-13.245 3.016-17.533 7.304s-3.919 12.475-7.304 17.533c-3.36 5.019-11.079 7.795-13.421 13.441-2.301 5.549 1.171 12.962-.023 18.993-1.158 5.854-7.225 11.37-7.225 17.564 0 6.193 6.067 11.71 7.225 17.564 1.193 6.031-2.279 13.443.022 18.993 2.341 5.646 10.061 8.422 13.421 13.441 3.386 5.057 3.016 13.245 7.304 17.533s12.476 3.919 17.533 7.304c5.019 3.36 7.795 11.079 13.441 13.421 5.55 2.301 12.961-1.17 18.993.023 5.854 1.158 11.37 7.225 17.564 7.225 6.533 0 12.096-6.642 18.591-7.379-4.795.404-9.868 1.82-13.94.131z" fill="#ef7f02"/></g><g><g><path d="m353.736 296.563c0 6.193-6.067 11.71-7.225 17.564-1.193 6.032 2.279 13.444-.023 18.993-2.341 5.646-10.061 8.422-13.421 13.441-3.386 5.057-3.016 13.245-7.304 17.533s-12.475 3.918-17.533 7.304c-5.019 3.36-7.795 11.079-13.441 13.421-5.549 2.301-12.961-1.171-18.993.022-5.854 1.158-11.371 7.225-17.564 7.225s-11.71-6.067-17.564-7.225c-6.032-1.193-13.444 2.279-18.993-.023-5.646-2.341-8.422-10.061-13.441-13.421-5.057-3.386-13.245-3.016-17.533-7.304s-3.918-12.476-7.304-17.533c-3.36-5.019-11.079-7.795-13.42-13.441-2.301-5.549 1.171-12.961-.022-18.993-1.158-5.854-7.225-11.371-7.225-17.564s6.067-11.71 7.225-17.564c1.193-6.032-2.279-13.444.023-18.993 2.341-5.646 10.061-8.422 13.421-13.441 3.386-5.057 3.016-13.245 7.304-17.533s12.476-3.918 17.533-7.304c5.019-3.36 7.795-11.079 13.441-13.42 5.549-2.301 12.961 1.171 18.993-.022 5.854-1.158 11.371-7.225 17.564-7.225s11.71 6.067 17.564 7.225c6.032 1.193 13.444-2.279 18.993.023 5.646 2.341 8.422 10.061 13.441 13.421 5.057 3.386 13.245 3.016 17.533 7.304s3.918 12.476 7.304 17.533c3.36 5.019 11.079 7.795 13.42 13.441 2.301 5.549-1.171 12.961.022 18.993 1.158 5.853 7.225 11.37 7.225 17.563z" fill="#f59705"/></g></g><path d="m271.575 384.841c-6.032-1.193-13.444 2.279-18.993-.023-5.646-2.341-8.422-10.061-13.441-13.421-5.057-3.386-13.245-3.016-17.533-7.304s-3.918-12.475-7.304-17.533c-3.36-5.019-11.079-7.795-13.421-13.441-2.301-5.549 1.171-12.961-.022-18.993-1.158-5.854-7.225-11.371-7.225-17.564s6.067-11.71 7.225-17.564c1.193-6.032-2.279-13.444.023-18.993 2.341-5.646 10.061-8.422 13.421-13.441 3.386-5.057 3.016-13.245 7.304-17.533s12.476-3.918 17.533-7.304c5.019-3.36 7.795-11.079 13.441-13.42 5.549-2.301 12.961 1.171 18.993-.023.708-.14 1.411-.355 2.111-.619-5.087-1.921-10.009-6.606-15.453-6.606-6.194 0-11.71 6.067-17.564 7.225-6.031 1.193-13.443-2.279-18.993.023-5.646 2.341-8.422 10.061-13.441 13.42-5.057 3.386-13.245 3.016-17.533 7.304s-3.918 12.475-7.304 17.533c-3.36 5.019-11.079 7.795-13.421 13.441-2.301 5.549 1.171 12.962-.023 18.993-1.158 5.854-7.225 11.37-7.225 17.564 0 6.193 6.067 11.71 7.225 17.564 1.193 6.031-2.279 13.443.022 18.993 2.341 5.646 10.061 8.422 13.421 13.441 3.386 5.057 3.016 13.245 7.304 17.533s12.476 3.919 17.533 7.304c5.019 3.36 7.795 11.079 13.441 13.421 5.55 2.301 12.962-1.17 18.993.023 5.854 1.158 11.37 7.225 17.564 7.225 5.444 0 10.366-4.685 15.453-6.606-.7-.265-1.403-.479-2.111-.619z" fill="#ef7f02"/></g><g><g><path d="m453.48 439.505h-394.96c-6.428 0-12.285-3.692-15.057-9.491l-27.463-57.45 30.906-16h417.526l31.569 16-27.463 57.45c-2.773 5.799-8.63 9.491-15.058 9.491z" fill="#c4e2ff"/><path d="m74.369 430.014-27.463-57.45 30.906-16h-30.906l-30.906 16 27.463 57.45c2.772 5.799 8.629 9.491 15.057 9.491h30.906c-6.428 0-12.285-3.692-15.057-9.491z" fill="#b3dafe"/><path d="m496 372.564h-480c-8.837 0-16-7.163-16-16 0-8.837 7.163-16 16-16h112.176l127.829 9.77 128-9.77h111.995c8.837 0 16 7.163 16 16 0 8.837-7.163 16-16 16z" fill="#eaf6ff"/><g><path d="m30.906 356.564c0-8.837 7.163-16 16-16h-30.906c-8.837 0-16 7.163-16 16 0 8.837 7.163 16 16 16h30.906c-8.837 0-16-7.163-16-16z" fill="#d8ecfe"/></g><path d="m128.005 340.479 124.865 62.477c1.97.986 4.29.987 6.261.002l124.874-62.393z" fill="#ea433f"/><path d="m158.931 340.489-30.926-.01 124.865 62.477c1.97.986 4.29.987 6.261.002l12.333-6.162z" fill="#e32928"/></g></g></g><g><path d="m164.792 106.161c-14.303 0-25.417 6.464-31.293 18.2-4.189 8.367-4.321 16.505-4.322 17.405-.005 4.142 3.348 7.504 7.49 7.51h.01c4.138 0 7.494-3.352 7.5-7.49 0-.052.125-5.495 2.735-10.71 3.341-6.672 9.189-9.915 17.88-9.915 4.142 0 7.5-3.357 7.5-7.5s-3.357-7.5-7.5-7.5z" fill="#e76401"/><path d="m361.576 110.483c-8.368-4.189-16.505-4.321-17.405-4.322h-.01c-4.138 0-7.495 3.352-7.5 7.49-.005 4.142 3.348 7.504 7.49 7.51.053 0 5.496.124 10.71 2.735 6.672 3.34 9.916 9.188 9.916 17.88 0 4.143 3.358 7.5 7.5 7.5s7.5-3.357 7.5-7.5c-.001-14.303-6.465-25.417-18.201-31.293z" fill="#e76401"/><g fill="#ef7f02"><path d="m92.115 234.727c-14.303 0-25.417 6.464-31.293 18.2-4.189 8.367-4.321 16.505-4.322 17.405-.005 4.142 3.348 7.504 7.49 7.51h.01c4.138 0 7.494-3.352 7.5-7.49 0-.052.125-5.495 2.735-10.71 3.341-6.672 9.189-9.915 17.88-9.915 4.142 0 7.5-3.357 7.5-7.5s-3.358-7.5-7.5-7.5z"/><path d="m438.72 239.049c-8.368-4.189-16.505-4.321-17.405-4.322h-.01c-4.12 0-7.445 3.323-7.476 7.444-.031 4.124 3.298 7.499 7.422 7.556.057.001 5.763.109 11.128 2.927 6.42 3.371 9.542 9.157 9.542 17.688 0 4.143 3.358 7.5 7.5 7.5s7.5-3.357 7.5-7.5c-.001-14.304-6.464-25.417-18.201-31.293z"/><path d="m288.899 239.049c-8.368-4.189-16.505-4.321-17.405-4.322h-.01c-4.138 0-7.495 3.352-7.5 7.49-.005 4.142 3.348 7.504 7.49 7.51.053 0 5.496.124 10.71 2.735 6.672 3.34 9.916 9.188 9.916 17.88 0 4.143 3.358 7.5 7.5 7.5s7.5-3.357 7.5-7.5c-.001-14.304-6.465-25.417-18.201-31.293z"/></g></g></g></svg>