<svg id="Flat" height="512" viewBox="0 0 340 340" width="512" xmlns="http://www.w3.org/2000/svg"><path d="m146.558 27.993s-15.427-9.317-28.584 5.932a33.763 33.763 0 0 0 -7.439 15.7c-1.848 9.545-3.234 27.311 4.84 48.59 0 0-.352 68.463-6.26 96.849h123.724s-12.31-54.9-9.367-94.443a80.823 80.823 0 0 0 11.828-33.039c3.282-27.942-16.513-53.822-44.379-57.7-13.721-1.906-29.682 1.399-44.363 18.111z" fill="#4a5870"/><path d="m284.547 284.553-28.33-15.8c-4.278-22.53-10.783-50.658-14.933-68.078a40.59 40.59 0 0 0 -20.3-26.48 163.915 163.915 0 0 0 -50.17-16.991 163.915 163.915 0 0 0 -50.17 16.991 40.59 40.59 0 0 0 -20.3 26.48c-4.15 17.42-10.655 45.548-14.933 68.078l-28.33 15.8h-16.118v45.447h8.762a33.607 33.607 0 0 0 10.811-1.787l58.077-19.742h104.4l58.077 19.742a33.607 33.607 0 0 0 10.81 1.787h8.762v-45.447z" fill="#ff7e71"/><path d="m210.266 169.008a160.692 160.692 0 0 0 -39.452-11.808 161.323 161.323 0 0 0 -40.957 12.473 40.828 40.828 0 0 0 80.409-.668z" fill="#e24949"/><path d="m72.752 110.625s0 20.9-15.671 23.942a27.564 27.564 0 0 1 16.23 22.633s4.229-19.586 15.112-22.2c0 0-14.801-9.139-15.671-24.375z" fill="#ffcf64"/><path d="m278.75 137.211s3.334 24.294 16.645 29.57c0 0-13.311 6.871-16.407 26.137 0 0-.953-21.171-20.4-27.339-.003 0 16.351-4.55 20.162-28.368z" fill="#ffcf64"/><path d="m188.567 161.183v-23.972h-35.506v23.972c-4.633 1.328-9.933 3.057-15.617 5.292a32.833 32.833 0 0 0 65.188-.6c-5.097-1.946-9.857-3.485-14.065-4.692z" fill="#ffc7b3"/><path d="m153.061 151.363 35.506 5.812v-19.964h-35.506z" fill="#f29a86"/><g fill="#c0c0ce"><path d="m48.788 212.005a14.187 14.187 0 0 0 -22.743 0c-5.245 7.195-3.785 17.095-3.785 17.095 1.454 18.02 15.157 21.328 15.157 21.328s13.7-3.308 15.156-21.328c0 0 1.457-9.9-3.785-17.095z"/><path d="m37.416 292.752a4 4 0 0 1 -4-4v-48.329a4 4 0 0 1 8 0v48.329a4 4 0 0 1 -4 4z"/><path d="m315.892 208.8a4 4 0 0 0 -4 4v14.94a8.612 8.612 0 0 1 -4.67 7.674q-.51.264-.994.558v-26.672a4 4 0 1 0 -8 0v26.67q-.486-.294-1-.559a8.613 8.613 0 0 1 -4.669-7.674v-14.937a4 4 0 1 0 -8 0v14.94a16.584 16.584 0 0 0 8.994 14.78 8.608 8.608 0 0 1 4.671 7.673v38.56a4 4 0 0 0 8 0v-38.56a8.607 8.607 0 0 1 4.669-7.673 16.585 16.585 0 0 0 9-14.78v-14.94a4 4 0 0 0 -4.001-4z"/></g><path d="m122.727 94.836h13.213a0 0 0 0 1 0 0v26.427a0 0 0 0 1 0 0h-13.213a13.213 13.213 0 0 1 -13.213-13.213 13.213 13.213 0 0 1 13.213-13.214z" fill="#f29a86"/><path d="m206.412 121.263h13.214a13.214 13.214 0 0 0 13.213-13.214c0-7.3-6.209-12.156-13.507-12.156l-10.338.071z" fill="#f29a86"/><path d="m145.629 49.879s3.987 46.175 68.1 46.175v9.473a41.032 41.032 0 0 1 -41.029 41.032h-4.73a40.939 40.939 0 0 1 -41.034-41c.111-19.095 4.136-40.817 18.693-55.68z" fill="#ffc7b3"/><path d="m155.5 114.63a4.121 4.121 0 0 1 -.78-.08 4.053 4.053 0 0 1 -.75-.23 3.8 3.8 0 0 1 -.69-.37 3.566 3.566 0 0 1 -.61-.5 4.029 4.029 0 0 1 -1.17-2.83 4.129 4.129 0 0 1 .08-.78 3.956 3.956 0 0 1 .23-.74 3.6 3.6 0 0 1 .37-.7 3.952 3.952 0 0 1 .49-.6 4.109 4.109 0 0 1 .61-.5 4.532 4.532 0 0 1 .69-.37 3.976 3.976 0 0 1 4.36.87 4.82 4.82 0 0 1 .5.6 4.241 4.241 0 0 1 .37.7 4.87 4.87 0 0 1 .23.74 4.436 4.436 0 0 1 0 1.57 5.371 5.371 0 0 1 -.23.75 4.579 4.579 0 0 1 -.37.69 4.188 4.188 0 0 1 -.5.6 3.316 3.316 0 0 1 -.61.5 3.519 3.519 0 0 1 -.69.37 3.832 3.832 0 0 1 -.75.23 4.047 4.047 0 0 1 -.78.08z" fill="#4a5870"/><path d="m186.66 114.62a4.052 4.052 0 0 1 -3.33-1.77 4.491 4.491 0 0 1 -.37-.69 4.3 4.3 0 0 1 -.231-.75 3.891 3.891 0 0 1 0-1.57 3.96 3.96 0 0 1 .231-.74 3.722 3.722 0 0 1 .37-.69 3.644 3.644 0 0 1 .5-.61 4.025 4.025 0 0 1 3.609-1.1 5.371 5.371 0 0 1 .75.23 4.018 4.018 0 0 1 .681.37 3.646 3.646 0 0 1 .609.5 3.6 3.6 0 0 1 .5.61 3.725 3.725 0 0 1 .371.69 3.956 3.956 0 0 1 .23.74 3.891 3.891 0 0 1 0 1.57 4.3 4.3 0 0 1 -.23.75 4.5 4.5 0 0 1 -.371.69 3.96 3.96 0 0 1 -.5.6 3.213 3.213 0 0 1 -.609.5 3.42 3.42 0 0 1 -.681.37 4.3 4.3 0 0 1 -.75.23 4.1 4.1 0 0 1 -.779.07z" fill="#4a5870"/><path d="m120.084 251.516c-2.635-14.538 8.569-22.258 9.049-22.58a4 4 0 0 0 1.208-5.443l-4.2-5.872-2.188-3.172a1.682 1.682 0 0 0 -3.06 1.1l.493 5.759a7.584 7.584 0 0 1 -1.9 5.637 30.721 30.721 0 0 0 -6.828 28.091s3.187 12.382 12.36 18.668l5.921-4.927s-8.528-8.316-10.855-17.261z" fill="#e24949"/><path d="m219.637 251.516c2.635-14.538-8.569-22.258-9.049-22.58a4 4 0 0 1 -1.208-5.443l4.2-5.872 2.188-3.172a1.682 1.682 0 0 1 3.06 1.1l-.493 5.759a7.584 7.584 0 0 0 1.9 5.637 30.721 30.721 0 0 1 6.828 28.091s-3.187 12.382-12.36 18.668l-5.921-4.927s8.528-8.316 10.855-17.261z" fill="#e24949"/><path d="m35.823 280.441h21.351a9.879 9.879 0 0 1 9.879 9.879v8.706a9.879 9.879 0 0 1 -9.879 9.879h-21.351a0 0 0 0 1 0 0v-28.464a0 0 0 0 1 0 0z" fill="#f29a86"/><path d="m27.178 280.441h13.357a10.24 10.24 0 0 1 10.24 10.24v29.079a10.24 10.24 0 0 1 -10.24 10.24h-13.357a17.178 17.178 0 0 1 -17.178-17.178v-15.2a17.178 17.178 0 0 1 17.178-17.181z" fill="#ffc7b3"/><path d="m272.948 280.441h21.352a9.879 9.879 0 0 1 9.879 9.879v8.706a9.879 9.879 0 0 1 -9.879 9.874h-21.352a0 0 0 0 1 0 0v-28.459a0 0 0 0 1 0 0z" fill="#f29a86" transform="matrix(-1 0 0 -1 577.125 589.344)"/><path d="m306.4 280.441h13.36a10.24 10.24 0 0 1 10.24 10.24v29.079a10.24 10.24 0 0 1 -10.24 10.24h-13.36a17.178 17.178 0 0 1 -17.178-17.178v-15.2a17.178 17.178 0 0 1 17.178-17.181z" fill="#ffc7b3" transform="matrix(-1 0 0 -1 619.225 610.441)"/><rect fill="#c0c0ce" height="16.056" rx="8.028" width="28.995" x="155.503" y="219.307"/><path d="m85.411 312.706h169.178a0 0 0 0 1 0 0v5.684a11.611 11.611 0 0 1 -11.611 11.61h-145.956a11.611 11.611 0 0 1 -11.611-11.611v-5.684a0 0 0 0 1 0 .001z" fill="#4a5870"/><path d="m170 250.5c-3.193 0-5.781-1.791-5.781-4v-14.138c0-2.209 2.588-4 5.781-4s5.781 1.791 5.781 4v14.138c0 2.209-2.588 4-5.781 4z" fill="#c0c0ce"/><path d="m172.325 242.5h-4.65a70.205 70.205 0 0 0 -70.205 70.206h145.06a70.205 70.205 0 0 0 -70.205-70.206z" fill="#e3e2e8"/><path d="m190.751 244.961a63.673 63.673 0 0 1 12.965 18.264 27.634 27.634 0 0 1 -24.945 39.537h-80.588a70.739 70.739 0 0 0 -.714 9.944h145.062a70.223 70.223 0 0 0 -51.78-67.745z" fill="#c0c0ce"/><circle cx="144.184" cy="271.107" fill="#fff" r="11.519"/></svg>