<svg viewBox="-61 0 512 512.00073" xmlns="http://www.w3.org/2000/svg"><path d="m172.410156 326.085938-19.640625 1.914062c-6.8125.664062-13.042969-4.058594-13.996093-10.632812l-42.90625-296.390626c-1.257813-8.683593 4.207031-16.558593 12.160156-17.453124l30.699218-3.4414068c7.980469-.8945312 15.207032 5.5781248 16.050782 14.3320308l28.800781 298.5625c.640625 6.617188-4.339844 12.441407-11.167969 13.109376zm0 0" fill="#fccf3f"/><path d="m121.417969 348.601562-19.507813.96875c-6.769531.335938-12.816406-4.570312-13.578125-11.046874l-34.328125-291.777344c-1.003906-8.542969 4.632813-15.945313 12.539063-16.394532l30.496093-1.742187c7.917969-.449219 14.886719 6.238281 15.480469 14.816406l20.308594 292.875c.453125 6.5-4.636719 11.964844-11.410156 12.300781zm0 0" fill="#efc03c"/><path d="m92.253906 369.019531-19.125 2.203125c-6.628906.765625-12.996094-3.65625-14.296875-9.957031l-58.492187-283.070313c-1.707032-8.269531 3.183594-15.910156 10.890625-16.929687l29.753906-3.9375c7.738281-1.027344 15.152344 5.003906 16.46875 13.351563l44.996094 285.53125c1 6.351562-3.546875 12.039062-10.195313 12.808593zm0 0" fill="#fccf3f"/><path d="m216.980469 326.085938 19.640625 1.914062c6.8125.664062 13.042968-4.058594 13.996094-10.632812l42.910156-296.386719c1.253906-8.6875-4.210938-16.5625-12.164063-17.453125l-30.699219-3.4453128c-7.980468-.8945312-15.207031 5.5781248-16.050781 14.3320308l-28.800781 298.5625c-.640625 6.617188 4.339844 12.441407 11.167969 13.109376zm0 0" fill="#fccf3f"/><path d="m267.972656 348.601562 19.511719.96875c6.765625.335938 12.8125-4.570312 13.574219-11.046874l34.328125-291.777344c1.003906-8.542969-4.632813-15.945313-12.539063-16.394532l-30.496094-1.742187c-7.917968-.449219-14.886718 6.238281-15.480468 14.816406l-20.308594 292.875c-.453125 6.5 4.636719 11.964844 11.410156 12.300781zm0 0" fill="#efc03c"/><path d="m297.136719 369.019531 19.125 2.203125c6.628906.765625 12.996093-3.65625 14.296875-9.957031l58.492187-283.070313c1.707031-8.269531-3.183593-15.910156-10.890625-16.929687l-29.753906-3.9375c-7.738281-1.027344-15.152344 5.003906-16.464844 13.351563l-44.996094 285.53125c-1 6.351562 3.546876 12.039062 10.191407 12.808593zm0 0" fill="#fccf3f"/><path d="m201.390625 358.058594h-19.488281c-6.765625 0-12.335938-5.148438-12.5-11.59375l-7.421875-290.183594c-.21875-8.492188 6.070312-15.484375 13.980469-15.484375h30.472656c7.910156 0 14.21875 6.992187 14.027344 15.484375l-6.601563 290.183594c-.144531 6.445312-5.699219 11.59375-12.46875 11.59375zm0 0" fill="#efc03c"/><path d="m202.226562 384.753906-17.902343 7.34375c-6.210938 2.550782-13.394531-.011718-16.132813-5.773437l-123.210937-259.273438c-3.601563-7.578125-.65625-16.289062 6.574219-19.3125l27.878906-11.65625c7.242187-3.027343 15.824218.871094 19.058594 8.617188l110.53125 264.863281c2.457031 5.886719-.578126 12.640625-6.796876 15.191406zm0 0" fill="#fccf3f"/><path d="m202.414062 431.046875-19.328124.890625c-6.707032.308594-12.609376-4.519531-13.25-10.867188l-28.78125-285.609374c-.839844-8.351563 4.863281-15.5625 12.6875-15.976563l30.179687-1.59375c7.835937-.414063 14.609375 6.144531 15.046875 14.527344l14.960938 286.609375c.332031 6.371094-4.800782 11.710937-11.515626 12.019531zm0 0" fill="#efc03c"/><path d="m285.808594 383.148438 18.777344.84375c6.511718.289062 12.355468-4.273438 13.117187-10.273438l34.0625-268.996094c.992187-7.839844-4.378906-14.601562-11.945313-14.988281l-29.195312-1.496094c-7.582031-.390625-14.28125 5.761719-14.890625 13.628907l-20.855469 269.917968c-.464844 6.023438 4.40625 11.070313 10.929688 11.363282zm0 0" fill="#efc03c"/><path d="m213.539062 426.738281 20.398438 3.21875c7.078125 1.113281 13.742188-3.667969 14.953125-10.734375l47.90625-279.820312c1.230469-7.199219-3.660156-14.015625-10.875-15.152344l-27.800781-4.382812c-7.214844-1.136719-13.964844 3.84375-15.007813 11.074218l-40.503906 280.984375c-1.023437 7.097657 3.847656 13.695313 10.929687 14.8125zm0 0" fill="#fccf3f"/><path d="m289.652344 172.824219c-4.082032 0-7.707032 2.539062-9.167969 6.347656-13.238281 34.480469-46.648437 58.960937-85.789063 58.960937-39.140624 0-72.550781-24.480468-85.789062-58.960937-1.460938-3.808594-5.085938-6.347656-9.164062-6.347656h-89.9375c-6.078126 0-10.691407 5.476562-9.660157 11.46875l55.09375 319.570312c.8125 4.703125 4.890625 8.136719 9.660157 8.136719h259.59375c4.769531 0 8.847656-3.433594 9.660156-8.136719l55.09375-319.570312c1.03125-5.992188-3.582032-11.46875-9.660156-11.46875zm0 0" fill="#fc4e51"/><path d="m379.585938 172.824219h-61.839844c6.082031 0 10.695312 5.476562 9.660156 11.46875l-55.089844 319.570312c-.8125 4.703125-4.890625 8.136719-9.660156 8.136719h61.835938c4.769531 0 8.847656-3.433594 9.660156-8.136719l55.09375-319.570312c1.03125-5.992188-3.582032-11.46875-9.660156-11.46875zm0 0" fill="#ea3942"/><path d="m363.734375 332.257812h-338.078125l10.699219 62.0625h316.679687zm0 0" fill="#f3e8d7"/><path d="m363.734375 332.257812h-61.835937l-10.699219 62.0625h61.835937zm0 0" fill="#e5d8c6"/><path d="m275.226562 365.136719c0 44.476562-36.054687 80.53125-80.53125 80.53125-44.476562 0-80.53125-36.054688-80.53125-80.53125 0-44.476563 36.054688-80.53125 80.53125-80.53125 44.476563 0 80.53125 36.054687 80.53125 80.53125zm0 0" fill="#efa335"/><path d="m231.074219 293.296875c2.207031 7.347656 3.410156 15.132813 3.410156 23.203125 0 44.476562-36.058594 80.53125-80.53125 80.53125-13.097656 0-25.449219-3.148438-36.378906-8.691406 9.964843 33.160156 40.714843 57.328125 77.121093 57.328125 44.476563 0 80.53125-36.054688 80.53125-80.53125 0-31.382813-17.960937-58.550781-44.152343-71.839844zm0 0" fill="#fd8f31"/></svg>