<?xml version="1.0" encoding="iso-8859-1"?>
<!-- Generator: Adobe Illustrator 19.0.0, SVG Export Plug-In . SVG Version: 6.00 Build 0)  -->
<svg version="1.1" id="Capa_1" xmlns="http://www.w3.org/2000/svg" xmlns:xlink="http://www.w3.org/1999/xlink" x="0px" y="0px"
	 viewBox="0 0 512.002 512.002" style="enable-background:new 0 0 512.002 512.002;" xml:space="preserve">
<path style="fill:#FFCF5D;" d="M427.54,156.264c4.203-30.645,6.231-56.212,7.196-74.868c0.357-6.913-2.789-13.536-8.364-17.64
	c-12.215-8.991-14.874-11.915-21.813-11.985c-5.821-0.312-9.092,1.99-14.075,5.016c-0.651-6.665-4.502-12.608-10.354-15.917
	c-13.202-7.466-16.191-10.052-23.089-9.292c-6.649,0.442-9.14,3.338-20.365,12.15c-5.373,4.218-8.298,10.826-7.83,17.641
	c0.934,13.619,1.756,31.593,1.817,52.953c-3.739-1.767-14.5-8.318-24.74,1.008l-1.627,1.481c-1.001-8.95-2.042-16.985-3.041-24.007
	c-0.975-6.853-5.333-12.749-11.592-15.707l-11.882-5.616c-1.613-18.946-3.567-35.079-5.388-47.868
	c-0.975-6.853-5.333-12.749-11.592-15.707c-13.713-6.481-16.884-8.841-23.707-7.578c-6.593,0.925-8.832,3.962-19.422,13.607
	c-5.051,4.601-7.484,11.403-6.52,18.167c0.723,5.068,1.475,10.764,2.219,17.005c-10.657-2.624-16.951,4.593-20.724,8.03l-5.9,5.373
	c-5.051,4.601-7.484,11.402-6.52,18.166c0.644,4.516,1.311,9.528,1.975,14.978c-7.626-23.209-14.917-42.425-20.823-56.916
	c-2.612-6.41-8.274-11.07-15.063-12.417c-14.966-2.97-18.557-4.456-24.838-1.586c-6.17,2.501-7.621,6.017-15.53,17.921
	c-3.781,5.69-4.486,12.881-1.906,19.207c2.912,7.14,6.226,15.607,9.775,25.274c-0.007-0.001-7.945-1.232-7.953-1.233
	c-0.022-0.003-0.058-0.006-0.072-0.008c-6.781-1.031-13.819,1.499-18.639,8.727l-6.943,11.467
	c-3.538,5.844-3.941,13.058-1.098,19.269c7.275,15.891,16.893,38.497,26.874,66.467c11.537,32.332,25.021,76.129,35.487,127.543
	h249.446C411.035,255.49,421.805,198.075,427.54,156.264z"/>
<g>
	<path style="fill:#FF983B;" d="M357.865,198.654c3.534-18.162,6.217-34.76,8.237-49.317c4.083-29.415,6.007-53.907,6.905-71.36
		c0.35-6.824,4.043-13.033,9.883-16.579l7.596-4.613c-0.651-6.665-4.502-12.608-10.354-15.917l-12.334-6.975
		c-3.463-1.957-6.967-2.733-10.754-2.316C359.02,48.829,365.15,112.423,357.865,198.654z"/>
	<path style="fill:#FF983B;" d="M289.666,77.099l-11.882-5.616c-1.613-18.946-3.567-35.079-5.388-47.868
		c-0.975-6.853-5.333-12.749-11.592-15.707l-12.812-6.054c-3.597-1.7-7.148-2.217-10.896-1.524c2.048,10.806,7.118,40.035,10.317,82
		l9.033-8.228l0,0c2.822-2.57,5.891-4.073,9.511-4.581c4.031,21.271,19.767,113.908,9.89,234.606
		c-0.266-12.001-0.727-23.18-1.307-33.386c-1.754-30.882-4.669-56.363-7.299-74.858c-0.976-6.853-5.334-12.749-11.592-15.707
		l-8.537-4.035c-0.06-1.168-0.118-2.345-0.182-3.488c-1.636-29.653-4.447-54.059-6.914-71.36c-0.736-5.16,0.511-10.339,3.384-14.549
		c-0.646-5.238-1.296-10.103-1.929-14.555c-0.975-6.853-5.333-12.749-11.592-15.707l-12.807-6.052l-0.003-0.001
		c-1.234-0.583-2.463-1.017-3.696-1.321c-2.362-0.581-4.74-0.659-7.202-0.204c2.777,14.656,11.114,63.182,12.801,131.422l3.46-3.152
		c2.82-2.568,5.98-4.086,9.598-4.594l4.091,146.79h60.07c2.383-41.1,1.776-77.225,0.216-105.487
		c-1.636-29.652-4.447-54.058-6.914-71.36c-0.965-6.763,1.468-13.566,6.52-18.166l1.983-1.806l6.3-5.739
		c-1.001-8.95-2.042-16.985-3.041-24.007C300.284,85.952,295.925,80.056,289.666,77.099z"/>
	<path style="fill:#FF983B;" d="M182.209,95.656c-7.626-23.209-14.917-42.425-20.823-56.916c-2.612-6.41-8.274-11.07-15.063-12.417
		l-9.581-1.902l-4.317-0.856c-3.903-0.774-7.474-0.412-10.94,1.171c8.951,19.368,45.786,103.206,65.773,219.996
		c-7.844-28.927-16.096-54.287-23.586-75.171c-10.443-29.115-20.466-52.724-28.236-69.712c-2.879-6.295-8.731-10.712-15.572-11.773
		l-6.04-0.937l-7.947-1.232l-0.012-0.001c-3.932-0.61-7.486-0.099-10.882,1.63c10.167,19.773,53.523,108.223,78.003,231.836h8.273
		c3.27-25.89,5.251-50.601,6.293-73.57c1.645-36.254,1.008-68.218-0.401-93.762C185.939,130.125,184.089,111.09,182.209,95.656z"/>
	<path style="fill:#FF983B;" d="M358.035,208.895c-0.163-2.87-0.339-5.676-0.521-8.451c-1.776-27.09-4.392-49.631-6.779-66.407
		c-0.975-6.853-5.333-12.75-11.592-15.707l-6.929-3.274l-1.549-0.732l-4.333-2.047c-3.597-1.7-7.15-2.218-10.898-1.525
		c3.736,19.718,17.53,100.754,11.66,208.619h31.009C360.441,276.366,359.722,238.586,358.035,208.895z"/>
	<path style="fill:#FF983B;" d="M426.374,63.756l-11.414-8.401c-3.204-2.357-6.59-3.546-10.399-3.584
		c-0.137,23.805-2.943,135.012-46.061,267.6h32.433c20.11-63.883,30.872-121.294,36.607-163.108
		c4.203-30.645,6.231-56.212,7.196-74.868C435.095,74.482,431.949,67.86,426.374,63.756z"/>
</g>
<path style="fill:#FF5368;" d="M408.02,256.016h-22.191h-34.33H345.2c-7.348,0-13.533,5.258-15.005,12.456
	c-5.764,28.165-30.683,49.351-60.552,49.351s-54.789-21.187-60.552-49.351c-1.473-7.199-7.658-12.456-15.005-12.456h-63.639
	c-9.513,0-16.767,8.515-15.256,17.908l35.173,218.506l1.059,6.576c1.205,7.49,7.669,12.996,15.255,12.996h102.279h25.913h76.92
	c7.586,0,14.05-5.507,15.255-12.996l36.23-225.082C424.787,264.531,417.534,256.016,408.02,256.016z"/>
<path style="fill:#D9435B;" d="M408.02,256.016h-13.163l-36.231,225.082H148.541l1.824,11.331l1.059,6.576
	c1.205,7.49,7.669,12.996,15.255,12.996h102.279h25.913h76.92c7.586,0,14.05-5.507,15.255-12.996l36.23-225.082
	C424.787,264.531,417.534,256.016,408.02,256.016z"/>
<g>
</g>
<g>
</g>
<g>
</g>
<g>
</g>
<g>
</g>
<g>
</g>
<g>
</g>
<g>
</g>
<g>
</g>
<g>
</g>
<g>
</g>
<g>
</g>
<g>
</g>
<g>
</g>
<g>
</g>
</svg>
