<svg id="Capa_1" enable-background="new 0 0 512 512" height="512" viewBox="0 0 512 512" width="512" xmlns="http://www.w3.org/2000/svg"><g><path d="m64.698 218.243v54.667l10 25.246-10 16.75v48.363h382.604v-48.363l-10-16.75 10-25.246v-54.667l-186.367-10z" fill="#eaa598"/><path d="m422.921 218.243v145.026h24.381v-48.363l-10-16.75 10-25.246v-54.667z" fill="#e58e82"/><path d="m64.698 218.243v-20.408c0-5.18 3.156-9.837 7.968-11.755l198.852-79.295c16.16-6.444 34.417-4.852 49.218 4.29l120.561 74.473c3.732 2.306 6.005 6.38 6.005 10.767v21.928z" fill="#ffdbcd"/><path d="m65.51 193.389c-.525 1.396-.812 2.896-.812 4.446v20.408h382.604v-21.928c0-.998-.132-1.977-.358-2.925h-381.434z" fill="#ffcdbe"/><path d="m225.894 189.859c-2.589 0-5.107-1.342-6.498-3.743-2.075-3.584-.852-8.173 2.733-10.248l37.647-21.798c3.584-2.077 8.173-.852 10.248 2.732 2.076 3.584.853 8.173-2.732 10.248l-37.647 21.798c-1.183.686-2.476 1.011-3.751 1.011z" fill="#eaab8a"/><path d="m302.269 193.116c-2.589 0-5.106-1.341-6.497-3.743-2.076-3.584-.853-8.173 2.732-10.248l37.646-21.799c3.583-2.076 8.172-.854 10.248 2.732 2.076 3.584.853 8.173-2.732 10.248l-37.646 21.799c-1.183.686-2.476 1.011-3.751 1.011z" fill="#eaab8a"/><path d="m.681 363.441 13.693 38.808c1.453 4.119 5.347 6.874 9.715 6.874h463.821c4.368 0 8.261-2.755 9.715-6.874l13.693-38.808c2.255-4.951-1.363-10.576-6.804-10.576h-497.029c-5.44 0-9.059 5.625-6.804 10.576z" fill="#ddebfd"/><path d="m504.515 352.865h-22.863c5.44 0 9.059 5.625 6.804 10.576l-8.432 24.84c-.426 1.254-1.603 2.097-2.927 2.097h-461.249c-2.196 0-4.271.323-5.977-.892l4.503 12.763c1.453 4.119 5.347 6.874 9.715 6.874h463.821c4.368 0 8.261-2.755 9.715-6.874l13.693-38.808c2.256-4.951-1.363-10.576-6.803-10.576z" fill="#bed9fd"/><path d="m64.698 272.91v41.995h127.446c8.415 0 15.749 5.73 17.784 13.895l6.361 25.521c3.532 11.576 14.214 19.485 26.316 19.485 12.103 0 22.785-7.909 26.316-19.485l6.362-25.521c2.035-8.165 9.369-13.895 17.784-13.895h27.965c6.838 0 12.71 4.861 13.987 11.578l3.397 17.871c2.482 8.475 10.255 14.298 19.085 14.298s16.604-5.823 19.085-14.298l3.397-17.871c1.277-6.717 7.149-11.578 13.987-11.578h53.329v-41.995z" fill="#f4daa7"/><path d="m422.921 272.91h24.381v41.995h-24.381z" fill="#eec06b"/></g></svg>