<svg id="Capa_1" enable-background="new 0 0 512 512" height="512" viewBox="0 0 512 512" width="512" xmlns="http://www.w3.org/2000/svg"><path d="m473.923 368.272c-7.076 0-394.292 0-435.845 0-17.026 0-30.421 15.928-28.21 32.809 1.141 8.709 3.144 17.24 5.945 25.548 5.593 16.589 21.22 27.711 38.726 27.711h402.921c17.507 0 33.132-11.121 38.726-27.71 2.802-8.308 4.805-16.839 5.946-25.548 2.213-16.882-11.183-32.81-28.209-32.81z" fill="#ffc365"/><path d="m91.479 426.629c-2.801-8.308-4.804-16.839-5.945-25.548-2.212-16.881 11.184-32.809 28.21-32.809-37.78 0-66.026 0-75.666 0-17.026 0-30.421 15.928-28.21 32.809 1.141 8.709 3.144 17.24 5.945 25.548 5.593 16.589 21.22 27.711 38.726 27.711h75.666c-17.507 0-33.133-11.121-38.726-27.711z" fill="#ffb640"/><path d="m468.849 259.396h-137.183c6.867 0 12.485 5.777 12.485 12.837v15.982c0 7.06-5.618 12.837-12.485 12.837h137.183c6.867 0 12.485-5.777 12.485-12.837v-15.982c0-7.061-5.618-12.837-12.485-12.837z" fill="#ff636e"/><path d="m391.443 288.215v-15.982c0-7.06 5.618-12.837 12.485-12.837h-72.262c6.867 0 12.485 5.777 12.485 12.837v15.982c0 7.06-5.618 12.837-12.485 12.837h72.262c-6.867 0-12.485-5.777-12.485-12.837z" fill="#ff4654"/><path d="m334.756 259.396h-163.971c-6.867 0-12.485 5.777-12.485 12.837v15.982c0 7.06 5.618 12.837 12.485 12.837h163.972c6.867 0 12.485-5.777 12.485-12.837v-15.982c-.001-7.061-5.619-12.837-12.486-12.837z" fill="#ff636e"/><path d="m233.966 288.215v-15.982c0-7.06 5.618-12.837 12.485-12.837h-75.666c-6.867 0-12.485 5.777-12.485 12.837v15.982c0 7.06 5.618 12.837 12.485 12.837h75.666c-6.867 0-12.485-5.777-12.485-12.837z" fill="#ff4654"/><path d="m161.39 288.215v-15.982c0-7.06 5.618-12.837 12.485-12.837h-137.183c-6.867 0-12.485 5.777-12.485 12.837v15.982c0 7.06 5.618 12.837 12.485 12.837h137.183c-6.866 0-12.485-5.777-12.485-12.837z" fill="#ff636e"/><path d="m99.873 288.215v-15.982c0-7.06 5.618-12.837 12.485-12.837h-75.666c-6.867 0-12.485 5.777-12.485 12.837v15.982c0 7.06 5.618 12.837 12.485 12.837h75.666c-6.867 0-12.485-5.777-12.485-12.837z" fill="#ff4654"/><path d="m478.035 299.909h-73.595c-52.957 5.073-96.794 40.815-123.925 69.394h197.521c13.385 0 24.337-10.952 24.337-24.337v-20.719c-.001-13.386-10.953-24.338-24.338-24.338z" fill="#a15427"/><path d="m101.102 299.909h-67.137c-13.385 0-24.337 10.952-24.337 24.337v20.719c0 13.385 10.952 24.337 24.337 24.337h191.77c-53.554-53.602-124.633-69.393-124.633-69.393z" fill="#a15427"/><path d="m85.294 344.965v-20.719c0-11.414 7.966-21.053 18.611-23.646-1.814-.47-2.804-.691-2.804-.691h-67.136c-13.386 0-24.337 10.952-24.337 24.337v20.719c0 13.385 10.952 24.337 24.337 24.337h75.666c-13.385 0-24.337-10.951-24.337-24.337z" fill="#924d24"/><path d="m99.041 299.909s81.798 18.164 136.009 81.69c9.529 11.167 26.78 11.25 36.333.103 25.2-29.405 74.116-75.95 135.117-81.793z" fill="#ffe02f"/><path d="m99.041 299.909s81.798 18.164 136.009 81.69c9.53 11.167 26.78 11.25 36.333.103 25.201-29.405 74.116-75.95 135.117-81.793z" fill="#ffe02f"/><path d="m280.413 365.764c-27.984-32.793-63.318-53.497-90.958-65.855h-90.414s81.798 18.164 136.009 81.69c9.53 11.167 26.78 11.25 36.333.103 3.507-4.092 7.475-8.517 11.87-13.118-1.005-.845-1.956-1.784-2.84-2.82z" fill="#fbc700"/><path d="m511.747 226.282c-12.426-94.311-121.903-168.622-255.747-168.622-133.797 0-243.323 74.283-255.748 168.621-2.315 17.577 11.573 34.145 29.301 34.145h452.893c17.728 0 31.617-16.568 29.301-34.144z" fill="#ffc365"/><path d="m75.919 226.281c11.231-85.273 101.801-154.153 217.917-166.605-12.345-1.324-24.976-2.016-37.835-2.016-133.797 0-243.323 74.283-255.748 168.621-2.315 17.576 11.573 34.144 29.301 34.144h75.666c-17.729.001-31.616-16.567-29.301-34.144z" fill="#ffb640"/><path d="m100.814 105.943 10.744 15.445c2.483 3.569 7.763 3.569 10.245 0l10.744-15.445c5.692-8.182 4.004-18.289-2.019-24.532-11.602 4.729-22.642 10.095-33.039 16.027.385 2.907 1.451 5.81 3.325 8.505z" fill="#fcd79b"/><path d="m207.407 75.576c-15.612 0-24.782 17.551-15.867 30.366l10.744 15.445c2.483 3.569 7.763 3.569 10.245 0l10.744-15.445c8.916-12.814-.254-30.366-15.866-30.366z" fill="#fee6c1"/><path d="m298.134 75.576c-15.612 0-24.782 17.551-15.867 30.366l10.744 15.445c2.483 3.569 7.763 3.569 10.245 0l10.744-15.444c8.916-12.815-.255-30.367-15.866-30.367z" fill="#fee6c1"/><path d="m162.044 190.002c-15.612 0-24.782-17.551-15.867-30.366l10.744-15.445c2.483-3.569 7.763-3.569 10.245 0l10.744 15.445c8.916 12.815-.254 30.366-15.866 30.366z" fill="#fee6c1"/><path d="m252.77 190.002c-15.612 0-24.782-17.551-15.867-30.366l10.744-15.445c2.483-3.569 7.763-3.569 10.245 0l10.744 15.445c8.917 12.815-.254 30.366-15.866 30.366z" fill="#fee6c1"/><path d="m343.497 190.002c-15.612 0-24.782-17.551-15.867-30.366l10.744-15.445c2.483-3.569 7.763-3.569 10.245 0l10.744 15.445c8.916 12.815-.254 30.366-15.866 30.366z" fill="#fee6c1"/><path d="m383.737 121.388c2.483 3.569 7.763 3.569 10.245 0l10.744-15.445c2.63-3.78 3.676-7.972 3.457-12.004-9.88-5.288-20.296-10.081-31.188-14.316-7.585 5.941-10.278 17.3-4.002 26.32z" fill="#fee6c1"/><g fill="#fcd79b"><path d="m214.227 105.943c-6.419-9.227-3.462-20.907 4.523-26.725-3.106-2.263-6.971-3.641-11.343-3.641-15.611 0-24.782 17.551-15.867 30.366l10.744 15.445c2.483 3.569 7.763 3.569 10.245 0l6.221-8.942z"/><path d="m304.953 105.943c-6.418-9.227-3.462-20.907 4.524-26.725-3.106-2.263-6.972-3.641-11.343-3.641-15.612 0-24.782 17.551-15.867 30.366l10.744 15.445c2.483 3.569 7.763 3.569 10.245 0l6.221-8.942z"/><path d="m168.864 159.636 4.524-6.503-6.221-8.942c-2.483-3.569-7.763-3.569-10.245 0l-10.744 15.445c-8.915 12.815.255 30.366 15.867 30.366 4.372 0 8.238-1.378 11.343-3.641-7.985-5.819-10.942-17.499-4.524-26.725z"/><path d="m259.59 159.636 4.524-6.503-6.221-8.942c-2.483-3.569-7.763-3.569-10.245 0l-10.744 15.445c-8.915 12.815.256 30.366 15.867 30.366 4.372 0 8.238-1.378 11.344-3.641-7.986-5.819-10.943-17.499-4.525-26.725z"/><path d="m350.317 159.636 4.523-6.503-6.221-8.942c-2.483-3.569-7.763-3.569-10.245 0l-10.744 15.445c-8.915 12.815.255 30.366 15.867 30.366 4.372 0 8.237-1.378 11.343-3.641-7.985-5.819-10.942-17.499-4.523-26.725z"/><path d="m395.68 105.943c-4.236-6.088-4.374-13.237-1.692-19.071-5.527-2.565-11.186-4.992-16.993-7.249-7.585 5.941-10.278 17.3-4.003 26.32l10.744 15.445c2.483 3.569 7.763 3.569 10.245 0l6.221-8.942z"/></g></svg>