<svg id="Capa_1" enable-background="new 0 0 497 497" height="512" viewBox="0 0 497 497" width="512" xmlns="http://www.w3.org/2000/svg"><g><path d="m379.961 32.043-.177-.177c-42.488-42.487-111.374-42.488-153.861 0l-194.057 194.057c-42.487 42.488-42.488 111.374 0 153.861l.177.177 183.218-152.446z" fill="#fed2a4"/><path d="m128.067 300.064 165.574-165.574 86.319-102.447c-12.729-11.742-28.465-19.27-44.981-22.092-14.642-2.502-29.935-1.262-44.393 4.14-8.052 3.008-16.588 7.664-26.736 17.811-28.991 28.991-13.154 44.828-42.146 73.819-28.993 28.993-44.829 13.156-73.822 42.148-28.993 28.993-13.157 44.83-42.15 73.824-28.995 28.995-44.832 13.158-73.826 42.153-10.149 10.149-14.805 18.686-17.814 26.739-5.402 14.459-6.642 29.752-4.141 44.394 2.822 16.517 10.349 32.252 22.091 44.982z" fill="#ffbd86"/><path d="m117.039 464.957.177.177c39.203 25.14 101.374 32.488 143.861-10l194.057-194.057c53.512-110.289 33.086-105.096 10-143.861l-.177-.177-183.218 152.446z" fill="#fed2a4"/><path d="m447.44 253.383-194.057 194.057c-36.521 36.521-92.548 41.65-134.547 15.385l-1.797 2.132.177.177c42.488 42.487 111.374 42.488 153.861 0l194.057-194.057c42.487-42.488 42.488-111.374 0-153.861l-.177-.177-2.142 1.782c26.276 42.001 21.151 98.037-15.375 134.562z" fill="#ffbd86"/><path d="m67.665 384.811c-13.16-13.16-37.003-14.483-40.019-32.138-2.501-14.642-1.261-29.935 4.141-44.394 3.009-8.053 7.665-16.59 17.814-26.739 28.995-28.995 44.831-13.158 73.826-42.153 28.993-28.993 13.157-44.83 42.15-73.824 28.993-28.993 44.829-13.156 73.822-42.148 28.991-28.991 13.154-44.828 42.146-73.819 10.147-10.147 18.683-14.803 26.735-17.811 14.459-5.402 29.752-6.642 44.394-4.14 17.654 3.017 18.976 26.859 32.136 40.019l5.523 5.523-317.147 317.145z" fill="#ade194"/><path d="m352.671 27.658-325.012 325.012c3.016 17.655 11.459 34.366 24.62 47.527l5.521 5.522 347.918-347.919-5.523-5.523c-13.159-13.159-29.869-21.602-47.524-24.619z" fill="#97da7b"/><path d="m96.803 444.721c24.075 24.075 52.332 24.715 84.225 12.799 8.053-3.009 16.59-7.665 26.739-17.814 28.995-28.995 13.158-44.831 42.153-73.826 28.993-28.993 44.83-13.157 73.823-42.15s13.156-44.829 42.148-73.822c28.991-28.991 44.828-13.154 73.819-42.146 10.147-10.147 14.803-18.683 17.811-26.735 11.915-31.893 11.274-60.148-12.8-84.222l-5.523-5.523-347.917 347.918z" fill="#ade194"/><path d="m373.585 257.601c28.991-28.991 44.828-13.154 73.819-42.146 10.147-10.147 14.803-18.683 17.811-26.735 11.915-31.893 3.581-67.842-20.493-91.915l-5.523-5.523-.862.862c16.602 23.242 21.229 53.47 11.041 80.74-3.008 8.052-7.664 16.588-17.811 26.735-28.991 28.991-44.828 13.154-73.819 42.146-28.993 28.993-13.156 44.829-42.148 73.822-28.993 28.993-44.83 13.157-73.824 42.15-28.995 28.995-13.158 44.832-42.153 73.826-10.149 10.149-18.686 14.805-26.739 17.814-27.27 10.188-57.499 5.562-80.741-11.039l-.862.862 5.521 5.521c24.075 24.075 60.025 32.408 91.918 20.492 8.053-3.009 16.59-7.665 26.739-17.814 28.995-28.995 13.158-44.831 42.153-73.826 28.993-28.993 44.83-13.157 73.824-42.15 28.993-28.993 13.156-44.829 42.149-73.822z" fill="#97da7b"/><path d="m31.768 465.232c-2.707-2.707-5.893-4.815-7.976-7.865-15.975-23.397-13.581-55.575 7.184-76.34l350.051-350.051c20.537-20.537 52.24-23.104 75.568-7.701 3.333 2.2 5.702 5.559 8.636 8.493 23.471 23.471 16.345 52.815-7.126 76.286l-350.051 350.052c-23.471 23.471-52.815 30.597-76.286 7.126z" fill="#f07281"/><path d="m466.024 30.976c-2.707-2.707-5.616-5.088-8.666-7.17 15.974 23.397 13.594 55.566-7.17 76.33l-350.052 350.051c-20.764 20.764-52.934 23.144-76.33 7.17 2.083 3.051 4.463 5.959 7.17 8.666 23.471 23.471 61.526 23.471 84.997 0l350.051-350.051c23.471-23.47 23.471-61.525 0-84.996z" fill="#eb5569"/><g><path d="m96.762 414.988c-1.801-1.801-3.841-3.163-4.58-5.43-1.768-5.421-.497-11.617 3.811-15.925 9.362-9.362 11.026-15.909 13.33-24.971 2.712-10.668 6.087-23.945 21.53-39.388s28.719-18.818 39.388-21.53c9.062-2.304 15.61-3.968 24.971-13.33 9.361-9.361 11.026-15.909 13.329-24.97 2.712-10.668 6.086-23.944 21.529-39.387 15.442-15.442 28.718-18.817 39.386-21.528 9.062-2.303 15.609-3.967 24.969-13.328 9.36-9.36 11.024-15.907 13.326-24.967 2.711-10.668 6.086-23.944 21.528-39.386s28.718-18.817 39.386-21.528c9.062-2.303 15.609-3.967 24.969-13.328 4.308-4.308 10.504-5.578 15.925-3.811 2.267.739 3.629 2.779 5.43 4.58 6.109 6.109 6.109 14.476 0 20.586-15.442 15.442-28.718 18.817-39.386 21.528-9.062 2.303-15.609 3.967-24.969 13.328-9.36 9.36-11.024 15.907-13.327 24.968-2.711 10.668-6.085 23.943-21.527 39.385s-29.487 18.047-40.155 20.759c-9.061 2.303-15.608 3.967-24.969 13.328s-11.025 15.908-13.328 24.97c-2.712 10.668-6.086 23.944-21.529 39.387-15.442 15.443-28.719 18.818-39.387 21.529-9.062 2.304-15.61 3.968-24.972 13.33s-11.026 15.909-13.33 24.971c-2.712 10.668-6.087 23.945-21.53 39.388-6.111 6.11-13.709 6.879-19.818.77z" fill="#ffe177"/></g><path d="m316.548 217.326c15.441-15.441 18.816-28.717 21.527-39.385 2.303-9.061 3.967-15.608 13.327-24.968 9.36-9.361 15.907-11.025 24.969-13.328 10.668-2.711 23.944-6.086 39.386-21.528 6.109-6.11 6.109-16.015 0-22.125-1.802-1.802-3.937-3.057-6.204-3.797 1.767 5.421.511 11.612-3.797 15.92-15.442 15.442-28.718 18.817-39.386 21.528-9.062 2.303-15.609 3.967-24.969 13.328-9.36 9.36-11.024 15.907-13.327 24.968-2.711 10.668-6.085 23.943-21.527 39.385s-28.718 18.817-39.386 21.528c-9.062 2.303-15.609 3.967-24.969 13.328-9.361 9.361-11.025 15.908-13.328 24.97-2.712 10.668-6.086 23.944-21.529 39.387-15.443 15.442-28.719 18.818-39.388 21.529-9.062 2.304-15.61 3.968-24.971 13.33-9.362 9.362-11.026 15.909-13.33 24.972-2.712 10.668-6.087 23.945-21.53 39.388-4.308 4.308-10.499 5.564-15.92 3.797.739 2.267 1.995 4.403 3.797 6.204 6.109 6.109 16.015 6.109 22.125 0 15.443-15.443 18.818-28.719 21.53-39.388 2.304-9.062 3.968-15.61 13.33-24.972s15.909-11.026 24.971-13.33c10.668-2.712 23.945-6.087 39.387-21.529 15.443-15.443 18.818-28.719 21.529-39.387 2.303-9.062 3.968-15.609 13.328-24.97 9.361-9.361 15.908-11.025 24.969-13.328 10.668-2.71 23.944-6.085 39.386-21.527z" fill="#ffd15b"/></g></svg>