<svg id="Capa_1" enable-background="new 0 0 512 512" height="512" viewBox="0 0 512 512" width="512" xmlns="http://www.w3.org/2000/svg"><path d="m28.313 391.131-2.52-2.52c-34.39-34.39-34.39-90.148 0-124.538l238.281-238.28c34.39-34.39 90.148-34.39 124.538 0l2.52 2.52z" fill="#fbcb80"/><path d="m388.611 25.793c-4.536-4.536-9.451-8.456-14.633-11.796l-359.981 359.981c3.339 5.181 7.26 10.097 11.796 14.633l2.52 2.52 362.818-362.818z" fill="#e7b467"/><path d="m120.869 483.687 2.52 2.52c34.39 34.39 90.148 34.39 124.538 0l238.281-238.281c34.39-34.39 34.39-90.148 0-124.538l-2.52-2.52z" fill="#fbcb80"/><path d="m138.022 498.003 359.982-359.982c-3.339-5.181-7.26-10.097-11.796-14.633l-2.52-2.52-362.819 362.819 2.52 2.52c4.536 4.536 9.451 8.457 14.633 11.796z" fill="#e7b467"/><path d="m483.687 28.313c-25.559-25.559-66.997-25.559-92.556 0l-362.818 362.818c-25.559 25.559-25.559 66.997 0 92.556s66.997 25.559 92.556 0l362.819-362.819c25.558-25.558 25.558-66.997-.001-92.555z" fill="#ec6161"/><path d="m483.687 28.313c-3.008-3.008-6.242-5.648-9.638-7.948 17.243 25.46 14.603 60.367-7.948 82.918l-362.818 362.819c-22.551 22.551-57.458 25.191-82.918 7.948 2.3 3.396 4.94 6.63 7.948 9.638 25.559 25.559 66.997 25.559 92.556 0l362.819-362.819c25.558-25.559 25.558-66.998-.001-92.556z" fill="#e64343"/><path d="m64.41 429.079c-6.645-6.645-6.645-17.419 0-24.065 14.369-14.369 29.809-14.54 40.025-14.653 8.753-.097 12.001-.351 16.336-4.686 4.336-4.336 4.59-7.583 4.687-16.336.113-10.217.284-25.656 14.653-40.025 14.368-14.368 29.807-14.538 40.023-14.65 8.752-.096 11.999-.35 16.333-4.684s4.588-7.582 4.684-16.333c.112-10.216.282-25.656 14.65-40.024 14.367-14.367 29.806-14.537 40.023-14.649 8.752-.096 11.999-.35 16.333-4.684 4.333-4.333 4.587-7.581 4.683-16.331.112-10.216.281-25.655 14.649-40.023 14.367-14.367 29.806-14.536 40.022-14.647 8.75-.095 11.996-.349 16.328-4.681 4.334-4.334 4.587-7.581 4.683-16.332.113-10.216.282-25.655 14.649-40.022s29.806-14.537 40.023-14.649c8.752-.096 11.999-.35 16.333-4.684 6.645-6.645 17.419-6.645 24.064 0s6.645 17.419 0 24.064c-14.368 14.368-29.807 14.537-40.023 14.65-8.752.096-11.999.35-16.332 4.683s-4.587 7.58-4.682 16.331c-.113 10.216-.282 25.655-14.65 40.023-14.367 14.367-29.805 14.536-40.021 14.646-8.75.096-11.997.349-16.329 4.682-4.334 4.334-4.587 7.581-4.683 16.332-.112 10.215-.282 25.655-14.649 40.022-14.368 14.368-29.807 14.537-40.023 14.65-8.752.096-11.999.35-16.332 4.683-4.334 4.334-4.588 7.582-4.684 16.333-.113 10.216-.282 25.656-14.65 40.024s-29.807 14.537-40.023 14.65c-8.752.096-11.999.35-16.333 4.684-4.336 4.336-4.59 7.583-4.686 16.337-.113 10.217-.284 25.656-14.653 40.025-14.368 14.368-29.808 14.54-40.024 14.653-8.753.096-12.001.35-16.337 4.686-6.648 6.646-17.422 6.646-24.067 0z" fill="#fce25c"/><path d="m371.903 182.673c14.368-14.368 14.537-29.807 14.65-40.023.096-8.751.349-11.998 4.682-16.331s7.581-4.587 16.332-4.683c10.216-.113 25.655-.282 40.023-14.65 6.645-6.645 6.645-17.419 0-24.064-2.388-2.388-5.312-3.903-8.383-4.575 1.198 5.475-.318 11.424-4.575 15.682-14.368 14.368-29.807 14.537-40.023 14.65-8.752.096-11.999.35-16.332 4.683s-4.587 7.58-4.682 16.331c-.113 10.216-.282 25.655-14.65 40.023-14.367 14.367-29.805 14.536-40.021 14.646-8.75.096-11.997.349-16.329 4.682-4.334 4.334-4.587 7.581-4.683 16.332-.112 10.215-.282 25.655-14.649 40.022-14.368 14.368-29.807 14.537-40.023 14.65-8.752.096-11.999.35-16.332 4.683-4.334 4.334-4.588 7.582-4.684 16.333-.113 10.216-.282 25.656-14.65 40.024s-29.807 14.537-40.023 14.65c-8.752.096-11.999.35-16.333 4.684-4.336 4.336-4.59 7.583-4.686 16.337-.113 10.217-.284 25.656-14.653 40.025-14.368 14.368-29.808 14.54-40.024 14.653-8.753.096-12.001.35-16.337 4.686-4.257 4.257-10.206 5.772-15.682 4.575.672 3.071 2.187 5.995 4.575 8.383 6.645 6.645 17.419 6.645 24.064 0 4.336-4.336 7.583-4.59 16.337-4.686 10.216-.113 25.656-.284 40.024-14.653 14.369-14.369 14.54-29.808 14.653-40.025.096-8.753.35-12.001 4.686-16.337 4.334-4.334 7.581-4.588 16.333-4.684 10.216-.113 25.655-.282 40.023-14.65s14.538-29.808 14.65-40.024c.096-8.752.35-11.999 4.684-16.333s7.581-4.587 16.332-4.683c10.216-.113 25.655-.282 40.023-14.65 14.367-14.367 14.537-29.807 14.649-40.022.096-8.752.35-11.999 4.683-16.332 4.332-4.332 7.579-4.585 16.329-4.682 10.216-.111 25.655-.28 40.022-14.647z" fill="#fbd307"/><g fill="#e64343"><path d="m483.687 28.313c-4.613-4.613-9.749-8.381-15.21-11.329-5.877 1.495-11.915 5.314-18.02 11.419-3.017 3.017-3.017 7.909 0 10.927 3.018 3.017 7.909 3.017 10.928 0 6.625-6.625 10.784-7.615 12.676-7.615h.004c1.943.002 3.123 1.023 4.077 1.979l.165.165c.96.957 1.984 2.14 1.985 4.075.002 1.888-.987 6.047-7.622 12.682-3.017 3.017-3.017 7.909 0 10.927 1.509 1.509 3.487 2.263 5.464 2.263s3.955-.755 5.464-2.263c6.104-6.104 9.925-12.141 11.422-18.013-2.949-5.464-6.718-10.602-11.333-15.217z"/><path d="m50.616 472.671c-6.63 6.63-10.788 7.622-12.678 7.622-.002 0-.003 0-.005 0-1.936-.002-3.118-1.026-4.075-1.985l-.165-.166c-.957-.954-1.978-2.134-1.979-4.077-.002-1.89.986-6.051 7.615-12.681 3.018-3.017 3.018-7.909 0-10.927-3.017-3.017-7.909-3.017-10.927 0-6.105 6.105-9.924 12.143-11.419 18.02 2.948 5.461 6.715 10.597 11.329 15.21 4.615 4.615 9.753 8.384 15.217 11.332 5.872-1.497 11.909-5.318 18.013-11.423 3.018-3.017 3.018-7.909 0-10.927-3.016-3.016-7.909-3.016-10.926.002z"/></g></svg>