<svg id="Capa_1" enable-background="new 0 0 512 512" height="512" viewBox="0 0 512 512" width="512" xmlns="http://www.w3.org/2000/svg"><g><g><path d="m268.894 164.853h-179.376l-18.192 51.863c-1.097 3.127-1.657 6.418-1.657 9.732v60.457l.298 1h92.084c1.201 0 2.341.519 3.13 1.424s1.146 2.106.982 3.295l-30.013 217.065.69 2.311h225.075v-269.094c-43.001-7.659-78.27-37.94-93.021-78.053z" fill="#ffe5c2"/><g><path d="m441.638 472.497h-16.124l-2.544-1h-203.033l-2.728 1h-16.124c-5.69 0-10.302 4.612-10.302 10.302v29.201h250.855c5.69 0 10.302-4.612 10.302-10.302v-18.899c0-5.689-4.612-10.302-10.302-10.302z" fill="#f6a96c"/></g><g><path d="m123.433 286.904v-60.457c0-3.314.56-6.604 1.657-9.732l17.841-50.863h-53.764l-17.841 50.863c-1.097 3.127-1.657 6.418-1.657 9.732v60.457z" fill="#fed2a4"/></g><path d="m162.051 286.904h-151.145c-3.125 0-5.53 2.761-5.102 5.856l6.296 45.531 1.865 1h145.103l1.79-1 6.296-45.531c.427-3.095-1.978-5.856-5.103-5.856z" fill="#8ac9fe"/><path d="m261.452 122.897c0-7.15.625-14.157 1.811-20.973h-183.254c-2.845 0-5.151 2.306-5.151 5.151v53.627c0 2.845 2.306 5.151 5.151 5.151h189.266c-5.05-13.367-7.823-27.843-7.823-42.956z" fill="#fed2a4"/><g><path d="m150.294 160.702v-53.627c0-2.845 2.306-5.151 5.151-5.151h-75.436c-2.845 0-5.151 2.306-5.151 5.151v53.627c0 2.845 2.306 5.151 5.151 5.151h75.436c-2.845 0-5.151-2.306-5.151-5.151z" fill="#ffbd86"/></g></g><g><path d="m207.526 392.492-5.769 1v24.05c0 8.534 6.918 15.453 15.453 15.453l5.238 1h197.892l5.174-1c8.534 0 15.453-6.918 15.453-15.453v-24.05l-5.902-1z" fill="#00c27a"/><g><path d="m317.521 328.611c-2.619 0-5.139-.428-7.5-1.207v27.585h15v-27.585c-2.361.779-4.881 1.207-7.5 1.207z" fill="#a44f3e"/></g><g><circle cx="317.521" cy="304.611" fill="#fe6c55" r="25"/></g><path d="m313 304.611c0-10.157 6.061-18.893 14.761-22.806-3.126-1.406-6.59-2.194-10.239-2.194-13.807 0-25 11.193-25 25s11.193 25 25 25c3.65 0 7.113-.789 10.239-2.194-8.7-3.913-14.761-12.649-14.761-22.806z" fill="#fd544d"/><g><path d="m244.147 472.497h-43.062c-5.69 0-10.302 4.612-10.302 10.302v29.201h43.062v-29.201c.001-5.689 4.613-10.302 10.302-10.302z" fill="#ea9b58"/></g><g><path d="m244.668 417.542v-24.05h-42.911v24.05c0 8.534 6.918 15.453 15.453 15.453h42.911c-8.535 0-15.453-6.919-15.453-15.453z" fill="#09a755"/></g><g><path d="m425.514 472.497h-208.305c-8.534 0-15.453-6.918-15.453-15.453v-8.597c0-8.534 6.918-15.453 15.453-15.453h208.305c8.534 0 15.453 6.918 15.453 15.453v8.597c0 8.535-6.918 15.453-15.453 15.453z" fill="#bb5d4c"/></g><path d="m244.668 457.045v-8.597c0-2.493.604-4.84 1.653-6.926l-11.051-8.527h-18.06c-8.534 0-15.453 6.918-15.453 15.453v8.597c0 8.534 6.918 15.453 15.453 15.453h42.911c-8.535-.001-15.453-6.919-15.453-15.453z" fill="#a44f3e"/><g><path d="m299.674 477.669 57.899-44.674h-122.303l57.899 44.674c1.916 1.478 4.588 1.478 6.505 0z" fill="#fed402"/></g><g><path d="m267.332 432.995h-32.062l57.899 44.674c1.916 1.478 4.589 1.478 6.505 0l12.779-9.86z" fill="#fac600"/></g><g><path d="m441.638 393.492h-240.553c-5.69 0-10.302-4.612-10.302-10.302v-18.899c0-5.69 4.612-10.302 10.302-10.302h240.553c5.69 0 10.302 4.612 10.302 10.302v18.899c0 5.69-4.612 10.302-10.302 10.302z" fill="#f6a96c"/></g><g><path d="m233.846 383.19v-18.899c0-5.689 4.612-10.302 10.302-10.302h-43.062c-5.69 0-10.302 4.612-10.302 10.302v18.899c0 5.69 4.612 10.302 10.302 10.302h43.062c-5.69 0-10.302-4.612-10.302-10.302z" fill="#ea9b58"/></g></g><g><path d="m12.099 338.292h43.18l-6.296-45.531c-.428-3.096 1.977-5.856 5.102-5.856h-43.18c-3.125 0-5.53 2.761-5.102 5.856z" fill="#60b7ff"/><g><path d="m12.099 338.292 22.79 164.817c.705 5.096 5.06 8.891 10.205 8.891h91.745l24.019-173.708z" fill="#eaf6ff"/></g><g><path d="m78.068 503.109-22.79-164.817h-43.18l22.79 164.817c.705 5.096 5.06 8.891 10.205 8.891h43.18c-5.144 0-9.5-3.795-10.205-8.891z" fill="#d8ecfe"/></g></g><g><g><g><g><circle cx="383.349" cy="122.897" fill="#fe6c55" r="122.897"/></g><g><path d="m283.185 122.897c0-44.085 28.629-81.607 68.27-94.957 15.575-12.801 34.341-21.857 54.907-25.77-7.457-1.419-15.149-2.17-23.013-2.17-67.766 0-122.897 55.131-122.897 122.897s55.131 122.897 122.897 122.897c7.865 0 15.556-.752 23.014-2.17-20.567-3.912-39.332-12.968-54.907-25.77-39.642-13.35-68.271-50.872-68.271-94.957z" fill="#fd544d"/></g><g><circle cx="383.349" cy="122.897" fill="#fff" r="92.664"/></g><path d="m389.943 38.014c-2.179-.168-4.373-.28-6.595-.28-46.96 0-85.164 38.205-85.164 85.164s38.204 85.164 85.164 85.164c2.221 0 4.416-.112 6.595-.28-32.666-14.339-55.545-46.983-55.545-84.884s22.879-70.546 55.545-84.884z" fill="#f3f0f3"/><g><g><path d="m383.348 130.398c-.731 0-1.473-.107-2.199-.331-3.149-.966-5.3-3.875-5.3-7.17v-44.808c0-4.142 3.357-7.5 7.5-7.5s7.5 3.358 7.5 7.5v20.365l3.717-5.486c2.322-3.429 6.988-4.325 10.415-2.003 3.43 2.323 4.326 6.987 2.003 10.416l-17.426 25.723c-1.421 2.098-3.769 3.294-6.21 3.294z" fill="#fd544d"/></g></g></g></g><g fill="#a79ba7"><g><path d="m383.349 36.733c-2.529 0-5.026.132-7.5.347v12.797c0 4.142 3.357 7.5 7.5 7.5s7.5-3.358 7.5-7.5v-12.797c-2.474-.214-4.972-.347-7.5-.347z"/><path d="m383.349 188.417c-4.143 0-7.5 3.358-7.5 7.5v12.797c2.474.214 4.971.347 7.5.347s5.026-.132 7.5-.347v-12.797c0-4.142-3.358-7.5-7.5-7.5z"/></g><g><path d="m317.828 122.897c0-4.142-3.357-7.5-7.5-7.5h-12.797c-.214 2.474-.347 4.971-.347 7.5s.132 5.026.347 7.5h12.797c4.143 0 7.5-3.357 7.5-7.5z"/><path d="m469.166 115.397h-12.797c-4.143 0-7.5 3.358-7.5 7.5s3.357 7.5 7.5 7.5h12.797c.214-2.474.347-4.971.347-7.5s-.133-5.026-.347-7.5z"/></g></g></g><g><path d="m383.349 223.061c-55.23 0-100.164-44.933-100.164-100.164s44.933-100.164 100.164-100.164 100.164 44.934 100.164 100.164-44.934 100.164-100.164 100.164zm0-185.328c-46.96 0-85.164 38.205-85.164 85.164s38.204 85.164 85.164 85.164 85.164-38.204 85.164-85.164-38.204-85.164-85.164-85.164z" fill="#ffa799"/></g></g></svg>