<svg height="410pt" viewBox="0 -60 410.04196 410" width="410pt" xmlns="http://www.w3.org/2000/svg"><path d="m106.3125 154.449219c-21.265625-23.34375-19.574219-59.632813 3.769531-80.898438l-61.542969-67.550781c-60.683593 55.289062-65.0625 149.300781-9.777343 209.988281 55.289062 60.6875 149.300781 65.0625 209.988281 9.777344l-61.539062-67.550781c-23.339844 21.265625-59.632813 19.574218-80.898438-3.765625zm0 0" fill="#ffd551"/><path d="m240.984375 171.015625c-16.996094-18.652344-41.070313-24.390625-53.769531-12.820313-12.699219 11.570313-9.21875 36.074219 7.777344 54.726563 16.992187 18.652344 41.066406 24.390625 53.765624 12.820313 12.703126-11.570313 9.21875-36.074219-7.773437-54.726563zm0 0" fill="#ffd551"/><path d="m82.199219 232.75c-50.527344-55.460938-51.210938-138.753906-4.632813-194.886719l-29.023437-31.863281c-60.6875 55.289062-65.066407 149.300781-9.777344 209.988281 21.703125 23.824219 49.375 38.964844 78.65625 45.230469-12.808594-7.441406-24.714844-16.9375-35.222656-28.46875zm0 0" fill="#ffc34c"/><path d="m248.039062 207.761719c-.164062 3.519531-1.144531 8.429687-4.898437 11.847656-9.125 8.3125-28.359375 2.691406-42-12.277344-8.738281-9.59375-13.679687-21.226562-13.21875-31.117187.164063-3.515625 1.144531-8.425782 4.898437-11.84375 9.128907-8.316406 28.363282-2.691406 42 12.277344 8.738282 9.589843 13.679688 21.222656 13.21875 31.113281zm0 0" fill="#ffc34c"/><path d="m102.308594 18.8125c-16.992188-18.652344-41.066406-24.390625-53.765625-12.820312-12.699219 11.570312-9.21875 36.074218 7.773437 54.726562 16.996094 18.652344 41.070313 24.390625 53.769532 12.820312 12.699218-11.570312 9.21875-36.074218-7.777344-54.726562zm0 0" fill="#ffd551"/><path d="m109.371094 55.546875c-.164063 3.519531-1.148438 8.425781-4.898438 11.847656-9.128906 8.3125-28.363281 2.691407-42.003906-12.277343-8.738281-9.59375-13.679688-21.226563-13.21875-31.117188.164062-3.515625 1.148438-8.425781 4.898438-11.84375 9.128906-8.316406 28.363281-2.691406 42 12.277344 8.738281 9.59375 13.683593 21.222656 13.222656 31.113281zm0 0" fill="#ffc34c"/><path d="m114.023438 197.304688c0 8.835937-7.160157 15.996093-15.996094 15.996093-8.832032 0-15.996094-7.160156-15.996094-15.996093 0-8.832032 7.164062-15.992188 15.996094-15.992188 8.835937 0 15.996094 7.160156 15.996094 15.992188zm0 0" fill="#ffc34c"/><path d="m150.339844 253.101562c-18.988282 0-33.097656-4.28125-34.113282-4.597656-3.164062-.984375-4.929687-4.347656-3.945312-7.511718.984375-3.164063 4.347656-4.925782 7.507812-3.945313.390626.121094 39.628907 11.90625 73.257813-5.699219 2.9375-1.535156 6.558594-.402344 8.097656 2.53125 1.535157 2.9375.402344 6.5625-2.53125 8.101563-16.488281 8.628906-33.800781 11.121093-48.273437 11.121093zm0 0" fill="#fce575"/><path d="m215.078125 208.714844c-8.738281-9.589844-13.679687-21.222656-13.21875-31.113282.164063-3.515624 1.144531-8.425781 4.898437-11.84375 1.9375-1.765624 4.332032-2.894531 7.03125-3.449218-8.28125-2.84375-16.078124-2.394532-20.96875 2.0625-3.753906 3.417968-4.734374 8.328125-4.898437 11.84375-.460937 9.890625 4.480469 21.523437 13.21875 31.117187 10.746094 11.792969 24.957031 17.777344 34.972656 15.722657-7.171875-2.460938-14.707031-7.390626-21.035156-14.339844zm0 0" fill="#ffb74b"/><path d="m76.40625 56.503906c-8.738281-9.59375-13.679688-21.226562-13.21875-31.117187.164062-3.515625 1.148438-8.425781 4.898438-11.84375 1.9375-1.765625 4.332031-2.894531 7.03125-3.449219-8.28125-2.84375-16.074219-2.394531-20.96875 2.0625-3.75 3.417969-4.734376 8.328125-4.898438 11.84375-.460938 9.894531 4.480469 21.527344 13.21875 31.117188 10.746094 11.792968 24.960938 17.78125 34.972656 15.726562-7.171875-2.464844-14.703125-7.394531-21.035156-14.339844zm0 0" fill="#ffb74b"/><g fill="#ffd551"><path d="m306.421875 133.820312c-19.507813-24.832031-55.578125-29.160156-80.410156-9.652343l-56.453125-71.855469c64.550781-50.71875 158-39.5 208.714844 25.050781 50.71875 64.554688 39.503906 158-25.050782 208.71875l-56.453125-71.855469c24.828125-19.507812 29.160157-55.578124 9.652344-80.40625zm0 0"/><path d="m349.445312 230.925781c-15.589843-19.84375-39.179687-27.320312-52.6875-16.707031-13.511718 10.613281-11.824218 35.300781 3.765626 55.144531 15.589843 19.839844 39.175781 27.320313 52.6875 16.707031 13.507812-10.617187 11.824218-35.304687-3.765626-55.144531zm0 0"/><path d="m222.238281 69.015625c-15.589843-19.839844-39.179687-27.320313-52.6875-16.707031-13.511719 10.617187-11.824219 35.304687 3.765625 55.144531 15.589844 19.84375 39.175782 27.320313 52.6875 16.707031 13.507813-10.613281 11.824219-35.304687-3.765625-55.144531zm0 0"/></g><path d="m208.375 120.492188c3.496094.421874 8.5.261718 12.492188-2.875 9.710937-7.628907 7.34375-27.527344-5.167969-43.449219-8.015625-10.203125-18.671875-17-28.503907-18.179688-3.496093-.417969-8.5-.261719-12.492187 2.875-9.710937 7.628907-7.34375 27.527344 5.171875 43.453125 8.015625 10.199219 18.667969 16.996094 28.5 18.175782zm0 0" fill="#ffc34c"/><path d="m395.335938 188.839844c0 8.835937-7.160157 15.996094-15.996094 15.996094-8.832032 0-15.996094-7.160157-15.996094-15.996094 0-8.832032 7.164062-15.996094 15.996094-15.996094 8.835937 0 15.996094 7.164062 15.996094 15.996094zm0 0" fill="#ffc34c"/><path d="m214.761719 88.140625c-8.015625-10.203125-18.671875-16.996094-28.503907-18.179687-3.496093-.417969-8.5-.261719-12.492187 2.875-2.058594 1.621093-3.570313 3.792968-4.5625 6.363281-1.433594-8.636719.296875-16.25 5.5-20.335938 3.992187-3.136719 8.996094-3.296875 12.492187-2.875 9.828126 1.179688 20.488282 7.972657 28.503907 18.175781 9.855469 12.546876 13.410156 27.554688 9.730469 37.089844-1.242188-7.476562-4.859376-15.722656-10.667969-23.113281zm0 0" fill="#ffb74b"/><path d="m341.132812 65.414062c-1.152343 0-2.320312-.332031-3.347656-1.027343-52.285156-35.238281-104.207031-14.570313-104.726562-14.359375-3.0625 1.261718-6.570313-.203125-7.828125-3.269532-1.257813-3.0625.207031-6.570312 3.273437-7.828124 2.355469-.972657 58.429688-23.285157 115.988282 15.507812 2.75 1.851562 3.472656 5.582031 1.621093 8.328125-1.15625 1.71875-3.050781 2.648437-4.980469 2.648437zm0 0" fill="#fce575"/><path d="m364.390625 219.003906c-7.660156-9.75-17.25-16.507812-26.628906-19.605468-2.371094-.78125-3.503907-3.445313-2.359375-5.664063 10.003906-19.328125 8.523437-43.5625-5.777344-61.765625-14.859375-18.914062-39.328125-25.914062-61.121094-19.5625 14.453125 1.808594 28.226563 9.078125 37.917969 21.410156 19.507813 24.832032 15.179687 60.902344-9.652344 80.410156l5.867188 7.464844c-.574219 11.082032 3.78125 24.230469 12.828125 35.75 9.050781 11.519532 20.796875 18.859375 31.699218 20.925782l6.0625 7.710937c3.207032-2.519531 6.285157-5.152344 9.226563-7.878906.546875-.503907 1.089844-1.011719 1.625-1.527344l10.847656-11.484375c5.300781-12.394531 1.585938-30.753906-10.535156-46.183594zm0 0" fill="#ffc34c"/><path d="m349.445312 230.925781c-15.589843-19.84375-39.179687-27.320312-52.6875-16.707031-13.511718 10.613281-11.824218 35.300781 3.765626 55.144531 15.589843 19.839844 39.175781 27.320313 52.6875 16.707031 13.507812-10.617187 11.824218-35.304687-3.765626-55.144531zm0 0" fill="#ffd551"/><path d="m335.589844 282.40625c3.496094.421875 8.5.261719 12.488281-2.875 9.710937-7.628906 7.34375-27.527344-5.167969-43.449219-8.015625-10.203125-18.671875-17-28.503906-18.179687-3.496094-.417969-8.5-.261719-12.492188 2.875-9.707031 7.628906-7.339843 27.527344 5.171876 43.453125 8.015624 10.199219 18.671874 16.996093 28.503906 18.175781zm0 0" fill="#ffc34c"/><path d="m341.972656 250.054688c-8.011718-10.203126-18.671875-17-28.5-18.179688-3.496094-.417969-8.5-.261719-12.492187 2.875-2.058594 1.617188-3.570313 3.792969-4.5625 6.363281-1.4375-8.636719.292969-16.25 5.5-20.339843 3.988281-3.132813 8.992187-3.292969 12.488281-2.871094 9.832031 1.179687 20.488281 7.972656 28.503906 18.175781 9.859375 12.546875 13.414063 27.554687 9.734375 37.089844-1.246093-7.476563-4.863281-15.722657-10.671875-23.113281zm0 0" fill="#ffb74b"/></svg>