<svg id="Capa_1" enable-background="new 0 0 512 512" height="512" viewBox="0 0 512 512" width="512" xmlns="http://www.w3.org/2000/svg"><g><g><path d="m455.717 76.145c-1.207-7.32-19.174.004-27.203.233-23.779.679-33.175 16.012-39.717 37.204 9.45 2.74 18.669 6.213 27.455 10.666 4.278-9.056 12.973-15.154 22.745-16.232 6.354-.7 11.502-5.5 13.029-11.707l3.438-13.979c.52-2.112.58-4.204.253-6.185z" fill="#ffdf74"/></g><g><path d="m440.004 63.237c-29.027.828-55.378 18.988-66.129 46.624 5.606 1.195 11.17 2.594 16.654 4.241 12.439-22.824 36.233-37.421 62.178-38.162 1.031-.029 2.034.045 3.006.206-1.207-7.32-7.68-13.139-15.709-12.909z" fill="#f7ce5c"/></g><g><path d="m306.084 71.953c-10.542.043-20.961-2.13-30.633-6.323-16.198-7.022-31.743-10.556-46.185-11.763-53.784-4.496-88.513 33.39-88.513 33.39l-61.347 47.471c-46.386 30.645-8.111 67.708-8.111 67.708l168.325 73.962 196.516-73.962c1.77-118.868-91.722-130.641-130.052-130.483z" fill="#fff3d7"/></g><g><path d="m136.994 77.139-61.985 49.24c-46.386 30.645-27.696 76.056-27.696 76.056l13.797 33.909 10.185-33.909s-18.69-45.411 27.696-76.056l61.984-49.24s27.472-19.811 68.423-23.253c-53.85-4.551-92.404 23.253-92.404 23.253z" fill="#f9dbaa"/></g><g><path d="m235.08 143.969c1.077 6.301 1.22 6.416 7.507 7.571 11.496 2.111 29.068 20.939 31.153 33.131 2.082 12.178-16.455 19.164-26.604 24.972h54.657c4.17-11.531 5.513-24.263 3.298-37.213-5.073-29.663-27.309-52.094-54.78-58.846-3.291-.809-5.972 6.284-9.393 5.939-10.155-1.022-8.705.197-6.985 10.257z" fill="#ffdf74"/></g><g><path d="m225.868 143.969c1.078 6.301 5.868 11.457 12.156 12.612 11.496 2.111 20.994 11.179 23.078 23.37 2.082 12.178-3.848 23.873-13.97 29.691h18.944c10.122-5.818 16.053-17.513 13.97-29.691-2.085-12.191-11.582-21.259-23.078-23.37-6.288-1.155-11.078-6.311-12.156-12.612l-2.427-14.19c-1.174-6.864 2.344-13.182 7.922-16.182-3.292-.809-6.654-1.407-10.076-1.752-10.155-1.022-18.511 7.873-16.79 17.934z" fill="#f7ce5c"/></g><g><path d="m174.039 180.807c7.037 7.113 10.485 18.641 8.034 28.835h30.223c4.203-25.193-5.124-50.969-24.514-67.618-.204-.175-.411-.344-.62-.506-7.747-6.006-9.067 6.729-13.298 15.721l-6.129 13.026c-2.722 5.785 1.808 5.997 6.304 10.542z" fill="#ffdf74"/></g><g><path d="m166.007 209.642h18.944c5.154-11.149 2.544-23.926-5.633-32.191-4.496-4.545-5.475-11.514-2.753-17.299l6.129-13.026c1.076-2.288 2.621-4.16 4.451-5.586-7.747-6-19.165-3.404-23.395 5.586l-6.129 13.026c-2.722 5.784-1.743 12.754 2.753 17.299 8.178 8.264 10.788 21.041 5.633 32.191z" fill="#f7ce5c"/></g><g><path d="m399.339 213.166c31.23 12.663 46.282 2.253 65.856-23.235 6.217-8.095 3.054-19.882-6.405-23.718l-13.341-5.409c-5.924-2.402-12.83-1.045-17.123 3.693-7.849 8.661-20.558 11.961-32.02 7.313-11.462-4.647-18.285-15.867-17.885-27.548.219-6.389-3.792-12.173-9.716-14.575l-8.642-3.504-7.702 3.599c-9.459-3.835-.802 23.656-1.978 33.795-3.702 31.922 17.727 36.927 48.956 49.589z" fill="#ffdf74"/></g><g><g><path d="m447.983 164.497c.624-.689 1.308-1.297 2.032-1.842l-4.565-1.851c-5.924-2.402-12.83-1.045-17.123 3.692-3.151 3.478-7.094 6.073-11.417 7.654 11.21 4.1 23.44.771 31.073-7.653z" fill="#ffdf74"/></g><g><path d="m399.194 213.166c-31.23-12.663-48.991-44.406-45.286-76.329.522-4.497 2.875-8.227 6.157-10.654l-4.698-1.905c-9.459-3.835-19.938 2.421-21.114 12.56-3.704 31.923 14.057 63.667 45.286 76.329 12.26 4.971 25.075 6.372 37.308 4.715-5.929-.812-11.853-2.364-17.653-4.716z" fill="#f7ce5c"/></g></g><g><path d="m310.378 91.243c1.597-.116 3.151.673 4.715.458 31.356-4.314 55.829-28.188 61.823-58.205 1.525-7.637-2.798-14.789-9.455-17.421-2.068-.818-5.809 1.283-8.221 1.458l-9.411 6.166c-6.376.464-6.341 9.136-8.097 15.283-2.443 8.547-17.907 3.55-26.227 6.811-2.62 1.027-5.438 1.683-8.392 1.897-12.336.897-23.415-6.151-28.219-16.806-1.642-3.642-4.662-6.342-8.252-7.742-2.154-.84-4.586.646-6.977.82l-11.065 5.996c-10.18.741-6.888 4.176-3.461 13.79 10.787 30.272 27.629 49.94 61.239 47.495z" fill="#ffdf74"/></g><g><path d="m328.033 47.69c12.336-.897 22.278-9.474 25.49-20.713 1.757-6.147 7.351-10.417 13.727-10.881l.208-.015c-2.068-.818-4.358-1.205-6.771-1.029l-14.358 1.045c-6.376.464-11.971 4.734-13.727 10.881-2.442 8.547-8.783 15.543-17.102 18.805 3.866 1.516 8.115 2.228 12.533 1.907z" fill="#f7ce5c"/></g><g><path d="m256.91 43.748c-3.426-9.614 3.208-19.858 13.388-20.599l.3-.022c-2.143-.828-4.487-1.195-6.862-1.023l-14.358 1.045c-10.18.74-16.814 10.984-13.388 20.599 10.787 30.272 40.75 50.897 74.361 48.451 1.711-.124 3.398-.321 5.072-.559-26.892-3.878-49.458-22.483-58.513-47.892z" fill="#f7ce5c"/></g><g><path d="m376.666 496.99h-222.963c-8.534 0-21.016-6.918-21.016-15.453l7.046-34.542 252.385 13.698v20.843c0 8.535-6.918 15.454-15.452 15.454z" fill="#d4d4e8"/></g><g><path d="m392.119 460.694v-54.178h-279.964v75.308c0 8.376 6.918 15.166 15.453 15.166h28.928c-8.534 0-15.453-6.79-15.453-15.166v-2.719c0-10.169 8.243-18.412 18.412-18.412h232.624z" fill="#c6c6e0"/></g><g><path d="m409.306 439.049h-303.692c-46.585 0-80.478-37.764-80.478-84.349l-4.08-118.356c0-8.505 11.893-33.908 20.398-33.908h455.147c8.505 0 15.399 6.894 15.399 15.399v118.52c0 56.716-45.978 102.694-102.694 102.694z" fill="#e9e9ff"/></g><g><path d="m30.411 356.268v-138.72c0-8.347 6.894-15.113 15.399-15.113h-30.411c-8.505.001-15.399 6.767-15.399 15.113v138.719c0 45.719 37.764 82.781 84.349 82.781h30.411c-46.585.001-84.349-37.061-84.349-82.78z" fill="#d4d4e8"/></g><g><path d="m112.846 82.435c-26.919 20.274-37.385 31.67-25.59 61.564 2.251 5.705.209 19.06 5.719 19.601 3.66.36 7.484-.58 10.738-3.03l11.499-8.661c5.107-3.846 7.493-10.467 5.638-16.584-3.393-11.185.313-23.782 10.192-31.223s23.01-7.524 32.824-1.174c5.367 3.473 12.39 3.007 17.496-.839l11.499-8.661c5.144-3.874 7.051-10.162 5.727-15.838-.775-3.321-7.007-3.428-9.994-5.725-25.473-19.591-48.829-9.704-75.748 10.57z" fill="#ffdf74"/></g><g><path d="m118.82 83.079c23.89-17.992 55.207-19.145 79.761-5.487-.775-3.321-2.648-6.434-5.634-8.731-25.475-19.591-61.833-20.681-88.752-.407s-35.912 55.519-24.117 85.413c2.251 5.705 7.39 9.168 12.899 9.71-9.028-28.764.386-61.325 25.843-80.498z" fill="#f7ce5c"/></g></g></svg>