<svg id="Layer_1" enable-background="new 0 0 512 512" height="512" viewBox="0 0 512 512" width="512" xmlns="http://www.w3.org/2000/svg"><g><g><g><g><ellipse cx="256" cy="276.576" fill="#fe7d43" rx="230.821" ry="132.228"/></g></g><g><g><path d="m262.029 226.186c-70.407-4.158-130.87 49.264-135.049 119.321s49.509 130.221 119.916 134.379 130.87-49.264 135.049-119.321c4.179-70.058-49.51-130.221-119.916-134.379zm-13.482 226.021c-54.956-3.246-97.012-50.374-93.75-105.057s50.625-96.531 105.581-93.285 97.012 50.374 93.75 105.057-50.625 96.531-105.581 93.285z" fill="#fee97d"/><path d="m260.378 253.865c-54.956-3.246-102.319 38.602-105.581 93.285s38.794 101.812 93.75 105.057c54.956 3.246 102.319-38.602 105.581-93.285s-38.794-101.812-93.75-105.057zm10.892 168.817c-6.727 8.152-14.18 13.387-21.733 12.941-7.554-.446-14.332-6.522-20.042-15.408-28.93-10.664-48.801-39.226-46.88-71.422 2.351-39.421 36.495-69.589 76.113-67.249s69.936 36.314 67.584 75.736c-1.921 32.195-25.047 58.218-55.042 65.402z" fill="#fedf30"/><path d="m258.727 281.544c-39.618-2.34-73.762 27.828-76.113 67.249-1.92 32.196 17.95 60.758 46.88 71.422-12.645-19.677-20.056-53.136-19.063-69.779 1.441-24.159 22.366-42.647 46.645-41.213s42.86 22.255 41.419 46.414c-.993 16.643-12.329 48.995-27.225 67.045 29.995-7.184 53.121-33.207 55.042-65.402 2.351-39.422-27.967-73.397-67.585-75.736z" fill="#fee97d"/><g fill="#fedf30"><path d="m229.494 400.149c5.711 8.886 12.489 14.962 20.042 15.408 7.554.446 15.006-4.789 21.733-12.941-6.732 1.612-13.81 2.276-21.072 1.847-7.26-.429-14.21-1.921-20.703-4.314z"/><path d="m257.076 309.222c-24.279-1.434-45.204 17.054-46.645 41.213-.993 16.643 6.419 50.102 19.063 69.779 6.493 2.393 13.442 3.885 20.704 4.314s14.34-.235 21.072-1.847c14.895-18.051 26.232-50.402 27.225-67.045 1.441-24.159-17.139-44.98-41.419-46.414z"/></g></g><g><path d="m510.813 26.68h-428.537c-7.367 0-13.34-5.973-13.34-13.34 0-7.367 5.972-13.34 13.34-13.34h428.538v26.68z" fill="#d88a55"/><path d="m510.813 53.36h-428.537c-7.367 0-13.34-5.973-13.34-13.34 0-7.367 5.973-13.34 13.34-13.34h428.538v26.68z" fill="#f6a96c"/></g><g><path d="m225.066 327.078v-300.398h-28.857v303.987z" fill="#fedf30"/><path d="m196.209 327.078v-300.398h-28.857v303.987z" fill="#fee97d"/><path d="m167.352 327.078v-300.398h-28.858v303.987z" fill="#fedf30"/></g><g><path d="m126.865 274.59c-38.611-2.28-74.231 12.757-99.218 38.357 3.19 8.785 8.163 17.235 14.711 25.24 19.62-23.568 49.871-37.866 82.857-35.918 54.956 3.245 97.012 50.374 93.75 105.057-.061 1.024-.138 2.043-.23 3.058 9.118.746 18.412 1.21 27.849 1.374.075-.927.142-1.856.197-2.789 4.179-70.058-49.509-130.221-119.916-134.379z" fill="#fee97d"/><path d="m62.4 357.617c14.079-18.044 36.566-29.122 61.163-27.67 39.618 2.34 69.936 36.314 67.584 75.736-.03.501-.065 1.001-.105 1.5 9.018 1.356 18.261 2.429 27.692 3.201.092-1.015.169-2.034.23-3.058 3.262-54.683-38.794-101.812-93.75-105.057-32.986-1.948-63.236 12.35-82.857 35.918 5.58 6.822 12.304 13.321 20.043 19.43z" fill="#fed402"/><path d="m123.564 329.948c-24.597-1.453-47.085 9.626-61.163 27.67 6.957 5.492 14.735 10.668 23.242 15.48 8.675-10.175 21.884-16.321 36.271-15.471 23.591 1.393 41.801 21.09 41.492 44.369 8.936 2.026 18.163 3.763 27.638 5.188.04-.498.075-.998.105-1.5 2.35-39.422-27.968-73.397-67.585-75.736z" fill="#fee97d"/><path d="m121.913 357.626c-14.387-.85-27.595 5.296-36.271 15.471 21.697 12.274 48.132 22.178 77.763 28.898.309-23.278-17.901-42.975-41.492-44.369z" fill="#fed402"/></g><g><g><path d="m103.02 234.742c1.054 1.368 2.151 2.683 3.289 3.945 17.899 19.846 47.167 33.455 84.259 15.514 18.672-9.031 41.159-2.099 50.995 16.097l.432.798c9.746 18.03 3.492 40.502-14.189 50.965-41.059 24.298-99.012 23.83-137.505-26.16-8.721-11.326-14.791-23.844-18.308-36.815z" fill="#faf7f7"/></g><g><path d="m241.995 271.096-.432-.798c-9.836-18.196-32.324-25.128-50.995-16.097-1.243.601-2.476 1.161-3.701 1.692 5.581 3.395 10.355 8.254 13.68 14.405l.432.798c9.746 18.03 3.492 40.501-14.189 50.965-10.855 6.424-22.89 11.114-35.434 13.619 26.575 5.531 54.031-.351 76.451-13.619 17.68-10.464 23.934-32.935 14.188-50.965z" fill="#f3eae6"/></g><path d="m60.609 169.877c6.718.989 13.829 10.169 19.703 20.185 5.965-12.862 13.684-24.478 21.787-23.285 15.362 2.263-8.716 50.443-8.716 50.443 2.228 6.145 5.431 12.059 9.637 17.522 1.054 1.368 2.151 2.683 3.289 3.945l-34.315 20.399c-3.316-12.232-4.362-24.868-3.22-37.287 0 0-25.73-54.51-8.165-51.922z" fill="#fd5426"/><g fill="#fdb441"><path d="m203.172 292.655c-1.795-3.85-6.373-5.515-10.22-3.719-3.849 1.795-5.515 6.371-3.719 10.22 6.96 14.922 14.284 33.337 14.357 33.521.017.043.042.08.06.123 4.904-1.528 9.692-3.385 14.321-5.548-.03-.084-.052-.168-.085-.251-.306-.769-7.561-19.009-14.714-34.346z"/><path d="m167.56 301.537c.252-4.24-2.981-7.881-7.22-8.134-4.245-.25-7.882 2.981-8.134 7.22l-2.069 34.788c5.067 1.123 10.169 1.83 15.266 2.144.01-.104.027-.205.034-.31z"/><path d="m130.36 294.778c2.216-3.624 1.073-8.357-2.55-10.573-3.624-2.217-8.358-1.074-10.573 2.55l-14.221 23.262c3.869 3.658 7.869 6.919 11.973 9.806.156-.205.311-.411.448-.635z"/></g></g><g><g><path d="m412.238 167.06c-.982 1.423-2.01 2.794-3.081 4.114-16.851 20.771-45.36 35.897-83.277 19.891-19.087-8.057-41.17.042-50.06 18.744l-.39.821c-8.809 18.531-1.429 40.67 16.742 50.21 42.197 22.155 99.992 18.673 135.859-33.303 15.79-22.882 21.365-49.74 17.719-75.198l-24.785-3.297c-1.912 6.26-4.807 12.339-8.727 18.018z" fill="#faf7f7"/></g><g><path d="m445.749 152.34-24.785-3.297c-1.911 6.259-4.807 12.337-8.726 18.017-.982 1.422-2.01 2.794-3.081 4.114-1.162 1.433-2.386 2.835-3.659 4.206-1.368 18.105-7.411 36.109-18.485 52.157-17.577 25.47-40.42 39.289-64.112 44.158 36.592 7.21 77.408-3.989 105.128-44.158 15.792-22.881 21.366-49.739 17.72-75.197z" fill="#f3eae6"/></g><g fill="#fdb441"><path d="m329.504 235.936c1.593-3.937-.305-8.421-4.243-10.014-3.938-1.596-8.421.306-10.015 4.242-6.358 15.704-12.669 34.314-12.935 35.099-.028.084-.046.168-.072.253 4.732 1.924 9.609 3.534 14.585 4.807.016-.044.04-.083.055-.128.065-.188 6.433-18.966 12.625-34.259z"/><path d="m358.029 228.69c-4.222.466-7.266 4.267-6.8 8.489l3.931 35.587c.012.108.034.213.051.32 5.074-.58 10.132-1.553 15.135-2.94l-3.828-34.656c-.468-4.222-4.262-7.267-8.489-6.8z"/><path d="m390.016 217.795c-3.509 2.394-4.411 7.179-2.017 10.688l16.127 23.627c.151.222.319.426.488.627 3.948-3.099 7.773-6.568 11.447-10.425l-15.358-22.5c-2.395-3.509-7.181-4.411-10.687-2.017z"/></g><path d="m451.26 100.01c-6.653 1.339-13.281 10.885-18.633 21.203-6.604-12.547-14.894-23.759-22.917-22.144-15.211 3.061 11.255 49.974 11.255 49.974-1.911 6.259-4.807 12.337-8.726 18.017-.982 1.423-2.01 2.794-3.081 4.114l35.271 18.608c2.688-12.401 3.091-25.086 1.321-37.442-.001 0 22.903-55.83 5.51-52.33z" fill="#ef4424"/></g><g><path d="m480.088 318.384c-21.512-31.489-56.953-53.053-98.105-55.483-70.406-4.158-130.87 49.264-135.049 119.321-.978 16.403 1.215 32.263 6.053 46.989 3.163.068 6.343.102 9.538.102 6.779 0 13.49-.155 20.121-.457-5.947-13.755-8.846-29.052-7.896-44.991 3.262-54.683 50.625-96.531 105.581-93.285 42.81 2.528 77.792 31.686 89.622 70.3z" fill="#fed402"/><path d="m380.332 290.579c-54.956-3.246-102.319 38.602-105.581 93.285-.951 15.939 1.949 31.236 7.896 44.991 10.197-.466 20.204-1.281 29.978-2.425-7.173-11.924-10.945-26.035-10.057-40.924 2.351-39.421 36.496-69.589 76.113-67.249 35.325 2.086 63.256 29.323 67.227 63.146 9.234-6.375 17.305-13.246 24.045-20.524-11.829-38.613-46.811-67.771-89.621-70.3z" fill="#fee97d"/><path d="m330.385 387.15c1.441-24.159 22.366-42.647 46.645-41.213s42.86 22.255 41.419 46.414c-.106 1.771-.317 3.511-.625 5.216 10.247-4.929 19.651-10.339 28.085-16.162-3.971-33.823-31.903-61.06-67.227-63.146-39.618-2.34-73.762 27.828-76.113 67.249-.888 14.888 2.884 29 10.057 40.924 10.755-1.258 21.228-2.913 31.361-4.934-9.055-8.607-14.401-20.965-13.602-34.348z" fill="#fed402"/><path d="m377.03 345.937c-24.279-1.434-45.204 17.054-46.645 41.213-.798 13.382 4.547 25.74 13.601 34.347 27.498-5.484 52.495-13.664 73.837-23.93.309-1.704.52-3.445.625-5.216 1.441-24.159-17.139-44.98-41.418-46.414z" fill="#fee97d"/></g></g></g><path d="m256 408.805c-127.479 0-230.821-59.201-230.821-132.228 0 73.027 43.149 235.423 230.821 235.423 189.908 0 230.821-162.396 230.821-235.424 0 73.028-103.342 132.229-230.821 132.229z" fill="#fd5426"/><g><path d="m430.706 362.994c-23.383 67.972-78.434 140.669-195.098 148.337 6.601.438 13.394.669 20.392.669 189.908 0 230.821-162.396 230.821-235.424 0 33.036-21.15 63.242-56.115 86.418z" fill="#ef4424"/></g><g><path d="m188.186 449.066c-19.902 49.501-76.337 73.472-126.051 53.542s-73.88-76.215-53.978-125.716z" fill="#97da7b"/><path d="m163.316 439.096c-14.403 35.824-55.246 53.172-91.223 38.749s-53.467-55.157-39.064-90.981z" fill="#fee97d"/><g><path d="m35.662 444.627c7.444 14.573 20.012 26.635 36.43 33.217 16.419 6.582 33.85 6.548 49.32 1.16l-23.24-66.025z" fill="#fedf30"/></g></g></g></svg>