<svg id="Capa_1" enable-background="new 0 0 497 497" height="512" viewBox="0 0 497 497" width="512" xmlns="http://www.w3.org/2000/svg"><g><path d="m482 15h-30v30h30c8.284 0 15-6.716 15-15s-6.715-15-15-15z" fill="#ff7c59"/><path d="m466.983 29.275c-.379-8.068-7.329-14.275-15.406-14.275h-444.077c-4.142 0-7.5 3.358-7.5 7.5v15c0 4.143 3.358 7.5 7.5 7.5h444.5c8.525 0 15.389-7.111 14.983-15.725z" fill="#ff985f"/><path d="m195 15c0-8.284-6.716-15-15-15s-15 6.716-15 15l-15 75h60z" fill="#ffe29e"/><path d="m150 90 15 30c0 8.284 6.716 15 15 15s15-6.716 15-15l15-30z" fill="#ffd36e"/><path d="m482 75h-30v30h30c8.284 0 15-6.716 15-15s-6.715-15-15-15z" fill="#ff5d4a"/><path d="m466.983 89.275c-.379-8.068-7.329-14.275-15.406-14.275h-444.077c-4.142 0-7.5 3.358-7.5 7.5v15c0 4.142 3.358 7.5 7.5 7.5h444.5c8.525 0 15.389-7.111 14.983-15.725z" fill="#ff7c59"/><path d="m75 75.001v30c0 8.284 6.716 15 15 15s15-6.716 15-15l15-45z" fill="#ffe29e"/><path d="m90 90.001c8.284 0 15-6.716 15-15l15-15-15-45c0-8.284-6.716-15-15-15s-15 6.715-15 14.999v60c0 8.285 6.716 15.001 15 15.001z" fill="#fff1d6"/><path d="m165 90.001v30c0 8.284-6.716 15-15 15s-15-6.716-15-15l-15-60z" fill="#ffb464"/><path d="m150 105.001c-8.284 0-15-6.716-15-15l-15-30 15-45c0-8.284 6.716-15 15-15s15 6.716 15 15v75c0 8.284-6.715 15-15 15z" fill="#ffd36e"/><path d="m255 75.001v30c0 8.284-6.716 15-15 15s-15-6.716-15-15l-15-45z" fill="#ffe29e"/><path d="m240 90.001c-8.284 0-15-6.716-15-15l-15-15 15-45c0-8.284 6.716-15 15-15s15 6.716 15 15v60c0 8.284-6.715 15-15 15z" fill="#fff1d6"/><path d="m120.725.017c-8.614-.405-15.725 6.458-15.725 14.983v315h30v-314.576c0-8.077-6.207-15.027-14.275-15.407z" fill="#ffe29e"/><path d="m195 242v30c0 8.284 6.716 15 15 15s15-6.716 15-15v-30z" fill="#ffe29e"/><path d="m210.725.017c-8.614-.405-15.725 6.458-15.725 14.983v227c0 8.284 6.716 15 15 15s15-6.716 15-15v-226.576c0-8.077-6.207-15.027-14.275-15.407z" fill="#fff1d6"/><path d="m302 452v45h30c16.568 0 30-13.431 30-30v-15z" fill="#ff985f"/><path d="m332 467v-15h-197v15c0 16.569 13.432 30 30 30h137c16.569 0 30-13.431 30-30z" fill="#ffb464"/><path d="m467 317-150 150h30c80.199 0 145.698-62.939 149.796-142.118.222-4.286-3.207-7.882-7.498-7.882z" fill="#ffb464"/><path d="m467 317h-459.298c-4.291 0-7.72 3.596-7.498 7.882 4.099 79.179 69.597 142.118 149.796 142.118h167c82.843 0 150-67.157 150-150z" fill="#ffd36e"/><path d="m382.5 189.5c-12.426 0-22.5 10.074-22.5 22.5 0 6.873-2.316 13.201-6.204 18.26l35.695 27.39c9.718-12.647 15.509-28.468 15.509-45.65 0-12.426-10.073-22.5-22.5-22.5z" fill="#ff5d4a"/><path d="m373.717 219.5h-1.002c-7.283 0-13.954 3.726-18.134 9.691-.254.362-.515.719-.784 1.069v27.39h35.695c.962-1.251 1.885-2.534 2.768-3.846 9.832-14.618-.926-34.304-18.543-34.304z" fill="#ff8678"/><path d="m330 242-15 22.5 15 22.5c24.24 0 45.78-11.51 59.491-29.351l-35.695-27.39c-5.484 7.137-14.1 11.741-23.796 11.741z" fill="#fff1d6"/><path d="m300 212c0-12.426-10.074-22.5-22.5-22.5s-22.5 10.074-22.5 22.5c0 17.182 5.791 33.003 15.509 45.649h35.695v-27.39c-3.887-5.058-6.204-11.386-6.204-18.259z" fill="#fff1d6"/><path d="m306.204 230.26-35.695 27.39c13.711 17.84 35.251 29.35 59.491 29.35v-45c-9.696 0-18.312-4.604-23.796-11.74z" fill="#ff8678"/><path d="m27.269 239.269 10.607 31.82 31.82 10.607c8.787-8.787 6.412-25.407-5.303-37.123-11.717-11.716-28.337-14.091-37.124-5.304z" fill="#ffd36e"/><path d="m32.572 276.392c11.716 11.716 28.336 14.09 37.123 5.303l-42.426-42.426c-8.787 8.787-6.412 25.407 5.303 37.123z" fill="#ffe29e"/><path d="m469.732 239.269-10.607 31.82-31.82 10.607c-8.787-8.787-6.412-25.407 5.303-37.123 11.716-11.716 28.337-14.091 37.124-5.304z" fill="#ffe29e"/><path d="m464.428 276.392c-11.716 11.716-28.336 14.09-37.123 5.303l42.426-42.426c8.788 8.787 6.413 25.407-5.303 37.123z" fill="#ffd36e"/></g></svg>