<svg id="Capa_1" enable-background="new 0 0 512 512" height="512" viewBox="0 0 512 512" width="512" xmlns="http://www.w3.org/2000/svg"><g><path d="m468.065 310.857c.333.945-424.463.945-424.13 0-27.734 15.465-43.935 34.124-43.935 54.213 0 53.433 114.615 96.748 256 96.748s256-43.316 256-96.748c0-20.089-16.201-38.748-43.935-54.213z" fill="#dae4ea"/><path d="m468.065 310.857 1.15 22.809c1.042 3.546 1.578 7.149 1.578 10.8 0 53.433-114.615 96.748-256 96.748-71.149 0-135.519-10.969-181.914-28.677 43.911 29.418 127.378 49.281 223.121 49.281 141.385 0 256-43.316 256-96.748 0-20.089-16.201-38.748-43.935-54.213z" fill="#c6d0da"/><path d="m43.042 313.707c-.944 3.435-1.43 6.929-1.43 10.47 0 49.812 95.985 90.193 214.388 90.193s214.388-40.381 214.388-90.193c0-3.541-.486-7.035-1.43-10.47z" fill="#ecd5c6"/><path d="m448.365 284.316h-384.73c-10.61 9.045-17.722 18.946-20.593 29.391 22.668 37.512 109.41 65.443 212.958 65.443s190.29-27.931 212.958-65.443c-2.87-10.445-9.983-20.346-20.593-29.391z" fill="#d8aa8b"/><path d="m43.042 233.984c-.944 3.435-1.43 6.929-1.43 10.47 0 49.812 95.985 90.193 214.388 90.193s214.388-40.381 214.388-90.193c0-3.541-.486-7.035-1.43-10.47z" fill="#ecd5c6"/><path d="m448.365 204.592h-384.73c-10.61 9.045-17.722 18.946-20.593 29.391 22.668 37.513 109.41 65.444 212.958 65.444s190.29-27.931 212.958-65.443c-2.87-10.445-9.983-20.347-20.593-29.392z" fill="#d8aa8b"/><path d="m43.042 154.261c-.944 3.435-1.43 6.929-1.43 10.47 0 49.812 95.985 90.193 214.388 90.193s214.388-40.381 214.388-90.193c0-3.541-.486-7.035-1.43-10.47z" fill="#ecd5c6"/><path d="m447.703 124.309h-383.406c-10.977 9.196-18.325 19.29-21.255 29.951 22.668 37.513 109.41 65.444 212.958 65.444s190.29-27.931 212.958-65.443c-2.929-10.661-10.278-20.756-21.255-29.952z" fill="#d8aa8b"/><path d="m447.703 124.309-30.097 12.908c-1.866 7.738-6.501 14.883-13.81 19.74-37.934 25.208-108.373 42.143-189.003 42.143-58.169 0-111.033-8.814-150.215-23.189 37.305 26.116 109.045 43.793 191.423 43.793 103.548 0 190.29-27.931 212.958-65.443-2.93-10.661-10.279-20.756-21.256-29.952z" fill="#ce9875"/><path d="m144.828 166.71c16.649 3.434 37.005-7.29 56.616-5.53 17.523 1.573 35.423 15.956 54.556 15.956 19.134 0 37.034-14.383 54.557-15.956 19.611-1.761 39.968 8.964 56.617 5.529 20.547-4.239 34.376-22.494 48.714-28.749 11.563-5.044 23.072-9.161 31.815-13.651-29.555-24.76-85.413-43.003-152.149-48.24h-79.108c-66.736 5.237-122.595 23.48-152.149 48.24 8.743 4.49 20.252 8.607 31.815 13.651 14.338 6.256 28.168 24.512 48.716 28.75z" fill="#c6865c"/><path d="m447.703 124.309c-12.415-10.401-29.473-19.652-50.029-27.273 3.156 2.164 6.1 4.389 8.822 6.669.11.092.219.184.328.276 10.112 8.544 13.597 21.564 10.782 33.236 10.979-4.709 21.787-8.64 30.097-12.908z" fill="#c17d4f"/><path d="m293.046 124.869h-74.092c-1.385 0-2.508-1.123-2.508-2.508v-32.172l39.554-20.003 39.554 20.004v32.172c0 1.384-1.123 2.507-2.508 2.507z" fill="#ffd064"/><path d="m293.046 50.182h-74.092c-1.385 0-2.508 1.123-2.508 2.508v37.499h79.108v-37.499c0-1.385-1.123-2.508-2.508-2.508z" fill="#ffe07d"/></g></svg>