<svg id="Layer_1" enable-background="new 0 0 497 497" height="512" viewBox="0 0 497 497" width="512" xmlns="http://www.w3.org/2000/svg"><g><g><path d="m213.228 284.026 193.896-62.911 45.397-11.824c32.037 122.754-41.614 248.213-164.505 280.221s-248.485-41.555-280.523-164.309 41.614-248.213 164.505-280.221c39.647-10.326 79.575-9.665 116.552.092l-11.884 45.101z" fill="#f5a26a"/></g><g><path d="m407.124 221.115c3.828 14.737 5.865 30.197 5.865 46.132 0 101.058-81.924 182.981-182.981 182.981s-182.982-81.923-182.982-182.981 81.923-182.981 182.981-182.981c15.437 0 32.339 2.31 46.659 5.91l-46.659 177.072z" fill="#ffdb63"/><g fill="#ffd033"><path d="m236.666 90.176-49.607 188.258 42.948-11.186 46.659-177.072c-14.32-3.599-31.222-5.91-46.659-5.91-6.864 0-13.635.391-20.303 1.127 9.331 1.019 18.588 2.678 26.962 4.783z"/><path d="m407.124 221.115-37.752 9.833c2.362 11.734 3.617 23.869 3.617 36.299 0 94.298-71.334 171.925-162.981 181.889 6.57.714 13.24 1.092 20 1.092 101.058 0 182.981-81.924 182.981-182.981-.001-15.935-2.038-31.394-5.865-46.132z"/></g><g><path d="m497 161.77c-20.49-77.147-82.301-139.945-159.073-161.77l-63.174 220.901z" fill="#f5a26a"/><g><path d="m341.882 51.348c-5.201-2.051-10.439-3.847-15.702-5.395l-1.333-.218-50.095 175.166 176.673-47.005c-14.592-53.911-53.592-100.483-109.543-122.548z" fill="#ffdb63"/></g><path d="m411.065 184.634 40.361-10.738c-14.593-53.911-53.593-100.483-109.544-122.548-5.201-2.051-10.439-3.847-15.702-5.395l-1.333-.218-7.082 24.764c47.029 23.871 79.904 66.011 93.3 114.135z" fill="#ffd033"/><g><g><g><g fill="#f54c5a"><ellipse cx="120.121" cy="202.696" rx="26.164" ry="26.135" transform="matrix(1 -.023 .023 1 -4.624 2.812)"/><ellipse cx="136.62" cy="354.796" rx="26.164" ry="26.135" transform="matrix(1 -.023 .023 1 -8.112 3.231)"/><path d="m377.09 228.938c3.645 13.967-4.735 28.242-18.717 31.884s-28.273-4.728-31.918-18.695"/><ellipse cx="304.371" cy="373.936" rx="26.164" ry="26.135" transform="matrix(1 -.023 .023 1 -8.508 7.089)"/><path d="m247.711 199.134c-12.152.647-23.492-7.289-26.681-19.51-3.645-13.967 4.735-28.242 18.717-31.884 6.991-1.821 14.059-.639 19.835 2.744"/></g><g><path d="m184.086 169.795c-2.574 0-5.08-1.326-6.476-3.707l-18.954-32.317c-2.096-3.573-.898-8.168 2.675-10.264 3.573-2.095 8.168-.898 10.264 2.675l18.954 32.317c2.096 3.573.898 8.168-2.675 10.264-1.192.7-2.499 1.032-3.788 1.032z" fill="#81cda1"/></g><g><path d="m174.565 264.328c-2.088 0-4.164-.866-5.647-2.561-2.728-3.117-2.412-7.855.705-10.583l28.206-24.681c3.117-2.729 7.855-2.413 10.583.705 2.728 3.117 2.412 7.855-.705 10.583l-28.206 24.681c-1.422 1.245-3.183 1.856-4.936 1.856z" fill="#81cda1"/></g><g><path d="m222.776 420.028c-3.28 0-6.292-2.167-7.219-5.48l-10.096-36.072c-1.116-3.989 1.212-8.127 5.201-9.244 3.987-1.117 8.127 1.212 9.244 5.201l10.096 36.072c1.116 3.989-1.212 8.127-5.201 9.244-.676.189-1.356.279-2.025.279z" fill="#81cda1"/></g><g><path d="m271.972 305.88c-3.887 0-7.175-2.999-7.471-6.938-.311-4.13 2.786-7.73 6.917-8.042l37.392-2.813c4.141-.311 7.731 2.786 8.042 6.917s-2.786 7.73-6.917 8.042l-37.392 2.813c-.192.014-.382.021-.571.021z" fill="#81cda1"/></g><g><path d="m235.232 339.019c-1.383 0-2.782-.382-4.034-1.183l-31.577-20.198c-3.489-2.232-4.508-6.87-2.276-10.359 2.231-3.489 6.869-4.509 10.359-2.276l31.577 20.198c3.489 2.232 4.508 6.87 2.276 10.359-1.431 2.236-3.851 3.459-6.325 3.459z" fill="#81cda1"/></g><g><path d="m91.844 293.705c-3.887 0-7.175-2.999-7.471-6.938-.311-4.13 2.786-7.73 6.917-8.042l37.392-2.813c4.137-.308 7.73 2.787 8.042 6.917.311 4.13-2.786 7.73-6.917 8.042l-37.392 2.813c-.192.013-.383.021-.571.021z" fill="#81cda1"/></g><g><path d="m352.543 333.157c-1.423 0-2.863-.405-4.138-1.25-3.452-2.289-4.395-6.943-2.106-10.396l20.706-31.228c2.29-3.453 6.943-4.395 10.396-2.106 3.452 2.289 4.395 6.943 2.106 10.396l-20.706 31.227c-1.444 2.178-3.828 3.357-6.258 3.357z" fill="#81cda1"/></g></g><g><path d="m367.767 134.575c-3.157 0-6.095-2.01-7.128-5.174l-11.63-35.619c-1.286-3.938.864-8.172 4.802-9.458 3.936-1.285 8.172.864 9.457 4.801l11.63 35.619c1.286 3.938-.864 8.171-4.802 9.457-.773.254-1.557.374-2.329.374z" fill="#81cda1"/></g></g></g><path d="m308.99 103.709c13.88 3.963 21.91 18.438 17.936 32.329s-18.448 21.941-32.328 17.977" fill="#f54c5a"/><path d="m371.18 192.536c-5.995-10.59-3.946-24.278 5.573-32.581 10.878-9.488 27.392-8.349 36.884 2.544 4.746 5.447 6.838 12.301 6.384 18.979" fill="#f54c5a"/><g><g><path d="m268.145 427.178c1.93 0 1.934-3 0-3-1.931 0-1.934 3 0 3z" fill="#060606"/></g></g></g></g></g></svg>