<svg id="Capa_1" enable-background="new 0 0 512 512" height="512" viewBox="0 0 512 512" width="512" xmlns="http://www.w3.org/2000/svg"><path d="m443.542 188.917c3.123-6.535 4.872-13.852 4.872-21.578 0-23.85-16.67-43.794-38.991-48.849-1.08-.245-1.726-1.372-1.398-2.43 1.455-4.69 2.243-9.674 2.243-14.843 0-27.67-22.431-50.101-50.101-50.101-3.302 0-6.527.326-9.65.938-1.207.237-2.306-.694-2.306-1.924 0-.008 0-.017 0-.025 0-27.67-22.431-50.101-50.101-50.101-16.676 0-31.438 8.154-40.544 20.686-.777 1.07-2.356 1.07-3.133 0-9.106-12.531-23.868-20.686-40.544-20.686-27.67 0-50.101 22.431-50.101 50.101v.025c.001 1.23-1.099 2.16-2.306 1.924-3.123-.612-6.348-.938-9.65-.938-27.67 0-50.101 22.431-50.101 50.101 0 5.169.788 10.152 2.243 14.843.328 1.058-.317 2.186-1.398 2.43-22.321 5.055-38.991 24.999-38.991 48.849 0 6.918 1.402 15.584 3.937 21.578z" fill="#fedba6"/><path d="m448.418 167.336c0 7.732-1.75 15.045-4.872 21.582h-21.603c9.44-19.738 5.134-39.728-13.19-51.787-5.479-3.614-13.41-5.018-19.696-6.443-1.079-.241-1.729-1.373-1.393-2.431 9.513-30.697-9.461-59.446-42.609-59.446-3.3 0-6.527.325-9.649.943-1.205.231-2.305-.691-2.305-1.949 0-30.247-16.491-60.546-45.595-66.675 3.413-.742 6.965-1.13 10.6-1.13 27.669 0 50.1 22.431 50.1 50.1v.031c0 1.226 1.1 2.158 2.315 1.917 3.122-.608 6.338-.932 9.649-.932 27.669 0 50.1 22.431 50.1 50.1 0 5.165-.796 10.152-2.242 14.846-.335 1.058.314 2.179 1.393 2.431 22.328 5.05 38.997 24.998 38.997 48.843z" fill="#fece85"/><path d="m353.538 188.917c1.624-3.399 2.534-7.204 2.534-11.223 0-12.404-8.67-22.777-20.279-25.406-.562-.127-.898-.714-.727-1.264.757-2.439 1.167-5.031 1.167-7.72 0-14.391-11.666-26.057-26.057-26.057-1.717 0-3.395.169-5.019.488-.628.123-1.199-.361-1.199-1.001 0-.004 0-.009 0-.013 0-14.391-11.666-26.057-26.057-26.057-8.673 0-16.351 4.241-21.086 10.758-.404.556-1.225.556-1.63 0-4.736-6.517-12.414-10.758-21.086-10.758-14.391 0-26.057 11.666-26.057 26.057v.013c0 .64-.572 1.124-1.199 1.001-1.624-.318-3.301-.488-5.019-.488-14.391 0-26.057 11.666-26.057 26.057 0 2.688.41 5.28 1.167 7.72.171.55-.165 1.137-.727 1.264-11.609 2.629-20.279 13.002-20.279 25.406 0 3.598.729 8.105 2.048 11.223z" fill="#fec165"/><path d="m356.075 177.698c0 4.013-.911 7.816-2.535 11.221h-13.421c0-9.848-.063-14.133-4.495-19.602-2.839-3.489-6.946-6.244-11.493-6.758-.754-.084-1.54-.115-2.253-.377-2.41-.87-2.064-2.965-1.592-4.997 1.498-6.391.576-15.705-3.939-20.849-3.52-4.023-9.744-6.056-14.961-6.276-2.389-.105-4.809.01-7.166-.492-3.101-.671-2.378-4.778-2.787-7.48-.503-3.332-1.257-6.789-2.347-9.88-1.666-4.694-4.589-8.905-8.591-11.902-3.353-2.525-7.219-4.285-11.032-5.982-.87-.388-1.771-.775-2.693-1.163 3.374-1.603 7.145-2.493 11.126-2.493 14.395 0 26.066 11.661 26.066 26.056v.01c0 .639.566 1.121 1.194 1.006 1.624-.325 3.3-.492 5.018-.492 14.395 0 26.056 11.671 26.056 26.056 0 2.692-.409 5.28-1.163 7.721-.178.555.168 1.142.723 1.268 11.61 2.628 20.285 13 20.285 25.405z" fill="#fea613"/><path d="m223.997 164.908c-4.001 0-7.413-3.053-7.782-7.115-.89-9.784 3.536-19.381 11.552-25.046 8.015-5.664 18.538-6.637 27.464-2.533 3.925 1.805 5.645 6.45 3.84 10.376-1.804 3.925-6.444 5.648-10.376 3.841-3.867-1.778-8.426-1.359-11.897 1.094s-5.387 6.611-5.002 10.851c.392 4.303-2.779 8.109-7.082 8.5-.239.022-.479.032-.717.032z" fill="#fedba6"/><path d="m373.502 124.619c-.507 0-1.022-.049-1.538-.153-4.237-.844-6.987-4.964-6.143-9.202 1.008-5.056-.766-10.309-4.632-13.709-3.864-3.4-9.3-4.489-14.189-2.845-4.092 1.379-8.531-.824-9.911-4.918-1.378-4.095.824-8.532 4.919-9.911 10.163-3.421 21.474-1.15 29.516 5.926 8.043 7.076 11.738 18.002 9.642 28.517-.742 3.721-4.009 6.295-7.664 6.295z" fill="#fec165"/><path d="m256 233.283h-178.46l26.973 260.999c.921 10.037 9.339 17.717 19.418 17.717h132.069 132.068c10.079 0 18.497-7.681 19.418-17.717l26.973-260.999z" fill="#f3f0f3"/><g fill="#e41f2d"><path d="m146.734 233.288 18.513 278.712h-41.317c-10.079 0-18.497-7.681-19.418-17.718l-26.972-260.994z"/><path d="m215.816 233.288h80.368l-11.108 278.712h-58.152z"/><path d="m434.46 233.288-26.972 260.994c-.921 10.037-9.34 17.718-19.418 17.718h-41.317l18.513-278.712z"/></g><path d="m434.463 233.284-26.978 261c-.922 10.036-9.335 17.716-19.414 17.716h-25.941c10.079 0 18.502-7.68 19.424-17.716l26.967-261z" fill="#d3162d"/><path d="m456.733 236.413h-401.466c-5.095 0-9.226-4.131-9.226-9.226v-32.174c0-5.095 4.131-9.226 9.226-9.226h401.466c5.095 0 9.226 4.131 9.226 9.226v32.174c0 5.095-4.131 9.226-9.226 9.226z" fill="#e2e2e2"/></svg>