<svg id="Capa_1" enable-background="new 0 0 512 512" height="512" viewBox="0 0 512 512" width="512" xmlns="http://www.w3.org/2000/svg"><g><path d="m493.15 386.871c-8.127-5.028-16.777-10.435-25.57-15.956 10.959-13.965 20.183-29.315 27.284-45.825 19.557-45.456 22.492-97.643 8.198-145.017-17.916-59.329-54.783-101.203-113.322-122.526-22.79-8.291-48.083-9.635-71.939-6.054-9.573 1.447-18.983 3.971-27.992 7.532-12.005 4.74-23.395 11.041-33.81 18.665-10.415-7.624-21.794-13.924-33.81-18.665-9.009-3.561-18.418-6.085-27.992-7.532-23.857-3.581-49.15-2.237-71.939 6.054-58.537 21.322-95.405 63.197-113.32 122.526-14.293 47.375-11.359 99.562 8.198 145.017 7.101 16.51 16.325 31.86 27.284 45.825-8.794 5.52-17.444 10.928-25.57 15.956-16.797 10.394-21.435 32.732-10.179 48.945.195.287.39.564.585.841 10.158 14.642 29.787 19.106 45.302 10.333 13.945-7.87 29.162-16.982 44.573-26.504 4.104 2.647 8.291 5.171 12.57 7.552 20.912 11.646 43.578 20.255 66.901 25.632 50.34 11.585 104.282 11.626 154.806-.01 23.323-5.367 45.979-13.975 66.891-25.622 4.279-2.38 8.465-4.905 12.57-7.552 15.412 9.522 30.629 18.634 44.573 26.504 15.514 8.773 35.144 4.31 45.302-10.333.195-.277.39-.554.585-.841 11.256-16.213 6.618-38.551-10.179-48.945zm-366.212-68.266c-6.536 4.115-14.848 9.399-24.236 15.371-10.907-11.328-19.865-24.431-25.745-39.535-10.425-26.822-11.554-57.102-4.546-84.909 3.519-13.945 9.122-27.427 16.9-39.546 24.585-38.314 80.928-55.183 120.176-35.256-17.505 39.669-14.765 85.247 3.838 124.886-17.526 15.935-38.345 28.505-57.974 41.003-9.451 6.022-18.932 12.004-28.413 17.986zm164.811 69.631c-23.498 3.099-48.072 3.089-71.498 0-17.146-2.257-35.534-5.736-52.197-11.913 9.809-6.475 18.818-12.508 26.596-17.751 16.058-10.836 57.225-38.807 61.35-42.398 4.125 3.591 45.292 31.563 61.35 42.398 7.778 5.243 16.787 11.277 26.596 17.751-16.663 6.177-35.051 9.655-52.197 11.913zm143.294-93.795c-5.879 15.104-14.837 28.207-25.745 39.535-9.389-5.972-17.7-11.256-24.236-15.371-9.481-5.982-18.962-11.964-28.412-17.987-19.629-12.498-39.012-26.422-57.687-41.782 18.603-39.638 21.055-84.437 3.55-124.106 39.248-19.927 95.591-3.058 120.176 35.256 7.778 12.118 13.38 25.601 16.9 39.546 7.007 27.807 5.879 58.087-4.546 84.909z" fill="#c86d36"/><path d="m102.702 333.976-58.282 36.939c-3.93-5.007-7.634-10.189-11.092-15.545l56.563-37.304c4.289 6.495 7.414 10.318 12.811 15.91z" fill="#ac5e2e"/><path d="m493.15 386.871c-8.127-5.028-16.777-10.435-25.57-15.956 10.959-13.965 20.183-29.315 27.284-45.825 19.557-45.456 22.492-97.643 8.198-145.017-17.916-59.329-54.783-101.203-113.322-122.526-3.314-1.201-6.68-2.257-10.087-3.171 53.942 22.143 88.275 62.858 105.349 119.447 16.777 55.594 9.307 116.728-19.055 167.048-4.71 8.352-9.994 16.366-15.72 24.052-18.47 24.811-41.239 41.967-67.989 56.866-20.912 11.656-43.568 20.255-66.891 25.632-50.525 11.626-104.466 11.585-154.806 0-5.838-1.344-11.626-2.894-17.351-4.638 11.523 4.484 23.385 8.116 35.41 10.887 50.34 11.585 104.282 11.626 154.806-.01 23.323-5.367 45.979-13.975 66.891-25.622 4.279-2.38 8.465-4.905 12.57-7.552 15.412 9.522 30.629 18.634 44.573 26.504 15.514 8.773 35.144 4.31 45.302-10.333.195-.277.39-.554.585-.841 11.258-16.213 6.62-38.551-10.177-48.945z" fill="#ac5e2e"/><g><path d="m270.028 68.565c-4.841 2.781-9.527 5.83-14.028 9.126.7.711 35.184 30.858 46.174 56.432l.155.268.185.34c.762-.391 1.535-.762 2.317-1.112.01-.01.01-.01.021-.01 3.214-1.493 6.53-2.75 9.929-3.77-8.024-18.303-21.795-41.529-44.753-61.274z" fill="#ac5e2e"/></g><g><g><path d="m256.287 315.834c18.759 16.083 40.467 28.835 61.061 42.734 7.776 5.248 16.79 11.276 26.603 17.757l68.922 44.164c15.41 9.518 30.63 18.626 44.566 26.503 15.517 8.77 35.151 4.312 45.31-10.332.194-.28.388-.559.582-.839 11.254-16.221 6.612-38.559-10.177-48.945-8.135-5.033-16.783-10.437-25.576-15.964l-58.282-36.935c-10.313-6.56-19.339-12.297-26.123-16.566-9.004-5.666-17.989-11.354-26.963-17.066-40.832-25.988-77.31-53.382-104.046-94.326-6.067-9.291-11.859-18.76-17.474-28.33-8.402-14.321-16.804-28.642-25.206-42.963 0 0-5.966 16.179-6.673 18.741-1.851 6.711-3.188 13.562-4.021 20.474-1.668 13.842-1.297 27.905.901 41.667 2.462 15.419 7.342 30.368 14.153 44.407 5.356 11.039 11.647 21.639 19.08 31.412 6.925 9.103 14.839 17.099 23.363 24.407z" fill="#9e5528"/></g></g><g><g><path d="m493.15 386.871c-8.127-5.028-16.777-10.435-25.57-15.956l-58.282-36.939c-10.312-6.557-19.342-12.293-26.124-16.561-8.999-5.674-17.987-11.359-26.966-17.074-40.828-25.981-77.306-53.377-104.046-94.318-6.064-9.296-11.862-18.767-17.474-28.331-8.404-14.324-16.797-28.648-25.201-42.962 0 0-5.972 16.171-6.68 18.736-.79 2.883-1.498 5.797-2.093 8.732 6.454 11 12.919 21.999 19.373 33.009 5.613 9.573 11.41 19.034 17.474 28.33 26.74 40.941 63.217 68.338 104.046 94.329 8.978 5.705 17.957 11.4 26.966 17.064 6.782 4.269 15.802 10.004 26.124 16.561l58.272 36.939c8.794 5.531 17.444 10.928 25.58 15.966 14.488 8.968 19.937 26.832 13.914 41.988 3.961-2.422 7.48-5.695 10.281-9.727.195-.277.39-.554.585-.841 11.256-16.213 6.618-38.551-10.179-48.945z" fill="#904d24"/></g></g><g><g><path d="m342.484 90.33c-3.222 0-6.228-2.032-7.317-5.253-1.366-4.041.803-8.425 4.845-9.792l6.889-2.329c4.04-1.362 8.425.804 9.791 4.845s-.803 8.425-4.845 9.792l-6.889 2.329c-.819.276-1.654.408-2.474.408z" fill="#fef1da"/></g><g><path d="m395.479 115.746c-1.485 0-2.985-.427-4.308-1.319l-6.031-4.063c-3.539-2.384-4.475-7.185-2.091-10.723s7.184-4.473 10.722-2.091l6.031 4.063c3.539 2.384 4.475 7.185 2.091 10.723-1.492 2.215-3.931 3.41-6.414 3.41z" fill="#fef1da"/></g><g><path d="m476.477 192.62c-1.485 0-2.985-.427-4.309-1.319l-6.031-4.063c-3.539-2.384-4.475-7.185-2.091-10.723 2.383-3.538 7.185-4.473 10.722-2.091l6.031 4.063c3.539 2.384 4.475 7.185 2.091 10.723-1.491 2.214-3.93 3.41-6.413 3.41z" fill="#fef1da"/></g><g><path d="m473.461 242.496c-1.511 0-3.038-.443-4.377-1.365-3.513-2.422-4.398-7.232-1.976-10.744l4.127-5.988c2.42-3.513 7.231-4.399 10.744-1.977s4.398 7.232 1.976 10.744l-4.127 5.988c-1.497 2.174-3.912 3.342-6.367 3.342z" fill="#fef1da"/></g><g><path d="m461.506 325.793c-3.098 0-6.021-1.877-7.206-4.94l-2.624-6.781c-1.539-3.979.438-8.452 4.417-9.992 3.976-1.537 8.452.439 9.991 4.418l2.624 6.781c1.539 3.979-.438 8.452-4.417 9.992-.916.354-1.859.522-2.785.522z" fill="#fef1da"/></g><g><path d="m446.349 146.077c-.183 0-.367-.006-.552-.019-4.256-.301-7.462-3.994-7.162-8.25l.512-7.254c.3-4.256 4.001-7.465 8.249-7.162 4.256.301 7.462 3.994 7.162 8.25l-.512 7.254c-.286 4.071-3.679 7.181-7.697 7.181z" fill="#fef1da"/></g><g><path d="m476.474 280.074c-3.912 0-7.267-2.961-7.675-6.937-.436-4.244 2.652-8.038 6.896-8.473l7.233-.742c4.249-.434 8.038 2.652 8.473 6.896.436 4.244-2.652 8.038-6.896 8.473l-7.233.742c-.268.027-.534.041-.798.041z" fill="#fef1da"/></g></g><g><path d="m168.725 90.33c-.82 0-1.654-.132-2.474-.408l-6.889-2.329c-4.042-1.367-6.211-5.75-4.845-9.792s5.748-6.208 9.791-4.845l6.889 2.329c4.042 1.367 6.211 5.75 4.845 9.792-1.089 3.221-4.096 5.253-7.317 5.253z" fill="#fef1da"/></g><g><path d="m213.315 110.106c-3.855 0-7.19-2.882-7.66-6.805l-.866-7.22c-.508-4.237 2.514-8.082 6.75-8.59 4.235-.512 8.082 2.514 8.59 6.749l.866 7.22c.508 4.237-2.514 8.082-6.75 8.59-.313.038-.623.056-.93.056z" fill="#fef1da"/></g><g><path d="m115.73 115.746c-2.483 0-4.922-1.195-6.414-3.41-2.384-3.539-1.447-8.339 2.091-10.723l6.031-4.063c3.538-2.383 8.339-1.447 10.722 2.091 2.384 3.539 1.447 8.339-2.091 10.723l-6.031 4.063c-1.323.892-2.823 1.319-4.308 1.319z" fill="#fef1da"/></g><g><path d="m245.485 140.856c-2.483 0-4.921-1.195-6.413-3.409-2.384-3.539-1.448-8.339 2.09-10.723l6.03-4.064c3.538-2.383 8.339-1.448 10.723 2.089 2.384 3.539 1.448 8.339-2.09 10.723l-6.03 4.064c-1.325.893-2.826 1.32-4.31 1.32z" fill="#fef1da"/></g><g><path d="m301.076 317.786c-3.974 0-7.351-3.047-7.689-7.078-.357-4.252 2.8-7.987 7.051-8.344l7.246-.609c4.257-.352 7.987 2.8 8.344 7.051.357 4.252-2.8 7.987-7.051 8.344l-7.246.609c-.22.018-.438.027-.655.027z" fill="#fef1da"/></g><g><path d="m351.413 344.717c-2.483 0-4.921-1.195-6.413-3.409l-4.064-6.03c-2.384-3.538-1.449-8.338 2.089-10.723 3.54-2.384 8.339-1.447 10.723 2.089l4.064 6.03c2.384 3.538 1.449 8.338-2.089 10.723-1.324.892-2.825 1.32-4.31 1.32z" fill="#fef1da"/></g><g><path d="m259.274 281.363c-2.483 0-4.921-1.195-6.413-3.409-2.384-3.539-1.448-8.339 2.09-10.723l6.03-4.064c3.538-2.383 8.339-1.447 10.723 2.089 2.384 3.539 1.448 8.339-2.09 10.723l-6.03 4.064c-1.324.893-2.825 1.32-4.31 1.32z" fill="#fef1da"/></g><g><path d="m34.732 192.62c-2.483 0-4.922-1.195-6.414-3.41-2.384-3.539-1.447-8.339 2.091-10.723l6.031-4.063c3.539-2.383 8.339-1.447 10.722 2.091 2.384 3.539 1.447 8.339-2.091 10.723l-6.031 4.063c-1.323.892-2.824 1.319-4.308 1.319z" fill="#fef1da"/></g><g><path d="m280.54 437.08c-2.483 0-4.922-1.195-6.414-3.41-2.384-3.539-1.447-8.339 2.091-10.722l6.03-4.063c3.538-2.385 8.339-1.448 10.723 2.09 2.384 3.539 1.447 8.339-2.091 10.722l-6.03 4.063c-1.324.893-2.825 1.32-4.309 1.32z" fill="#fef1da"/></g><g><path d="m392.477 371.367c-2.483 0-4.922-1.195-6.413-3.41-2.384-3.538-1.448-8.338 2.09-10.722l6.031-4.064c3.539-2.385 8.339-1.449 10.723 2.09 2.384 3.538 1.448 8.338-2.09 10.722l-6.031 4.064c-1.324.893-2.825 1.32-4.31 1.32z" fill="#fef1da"/></g><g><path d="m339.477 422.507c-2.483 0-4.921-1.195-6.413-3.409-2.384-3.539-1.448-8.339 2.09-10.723l6.03-4.064c3.538-2.383 8.338-1.448 10.723 2.089 2.384 3.539 1.448 8.339-2.09 10.723l-6.03 4.064c-1.324.892-2.825 1.32-4.31 1.32z" fill="#fef1da"/></g><g><path d="m37.748 242.496c-2.455 0-4.869-1.168-6.368-3.342l-4.126-5.988c-2.421-3.513-1.535-8.323 1.977-10.744 3.513-2.421 8.324-1.535 10.744 1.977l4.126 5.988c2.421 3.513 1.535 8.323-1.977 10.744-1.338.922-2.866 1.365-4.376 1.365z" fill="#fef1da"/></g><g><path d="m275.503 181.9c-2.455 0-4.869-1.168-6.367-3.341l-4.126-5.987c-2.421-3.513-1.536-8.323 1.976-10.744 3.513-2.424 8.323-1.536 10.744 1.975l4.126 5.987c2.421 3.513 1.536 8.323-1.976 10.744-1.339.924-2.866 1.366-4.377 1.366z" fill="#fef1da"/></g><g><path d="m234.459 435.05c-2.455 0-4.869-1.168-6.367-3.342l-4.127-5.988c-2.421-3.512-1.536-8.322 1.976-10.744 3.514-2.421 8.324-1.535 10.744 1.977l4.127 5.988c2.421 3.512 1.536 8.322-1.976 10.744-1.339.922-2.866 1.365-4.377 1.365z" fill="#fef1da"/></g><g><path d="m49.703 325.793c-.927 0-1.87-.168-2.786-.522-3.979-1.54-5.957-6.013-4.417-9.992l2.624-6.781c1.539-3.978 6.012-5.957 9.991-4.418 3.979 1.54 5.957 6.013 4.417 9.992l-2.624 6.781c-1.184 3.063-4.107 4.94-7.205 4.94z" fill="#fef1da"/></g><g><path d="m176.009 337.739c-3.608 0-6.834-2.54-7.567-6.213-.836-4.183 1.878-8.252 6.062-9.088l7.131-1.424c4.185-.84 8.252 1.879 9.088 6.062s-1.878 8.252-6.062 9.088l-7.131 1.424c-.511.103-1.02.151-1.521.151z" fill="#fef1da"/></g><g><path d="m185.479 429.6c-.417 0-.84-.033-1.265-.104l-7.175-1.182c-4.209-.694-7.06-4.668-6.366-8.878.694-4.209 4.668-7.062 8.878-6.367l7.175 1.182c4.209.694 7.06 4.668 6.366 8.877-.624 3.786-3.9 6.472-7.613 6.472z" fill="#fef1da"/></g><g><path d="m129.492 367.305c-.828 0-1.671-.134-2.498-.417-4.037-1.379-6.192-5.77-4.812-9.807l2.351-6.881c1.38-4.037 5.772-6.194 9.807-4.812 4.037 1.379 6.192 5.77 4.812 9.807l-2.351 6.881c-1.096 3.209-4.096 5.229-7.309 5.229z" fill="#fef1da"/></g><g><path d="m64.86 146.077c-4.019 0-7.41-3.11-7.698-7.181l-.512-7.254c-.3-4.256 2.906-7.949 7.162-8.25 4.249-.301 7.949 2.907 8.249 7.162l.512 7.254c.3 4.256-2.906 7.949-7.162 8.25-.184.013-.369.019-.551.019z" fill="#fef1da"/></g><g><path d="m34.735 280.074c-.264 0-.53-.014-.798-.041l-7.233-.742c-4.244-.436-7.332-4.23-6.896-8.473.436-4.245 4.234-7.327 8.473-6.896l7.233.742c4.244.436 7.332 4.23 6.896 8.473-.409 3.975-3.764 6.937-7.675 6.937z" fill="#fef1da"/></g></g></svg>