<svg height="512pt" viewBox="0 -33 512 512" width="512pt" xmlns="http://www.w3.org/2000/svg"><path d="m476 73.398438c-29.5-47.296876-72.5-73.398438-120.898438-73.398438-40.902343 0-73.800781 12.199219-99.101562 32-25.300781-19.699219-58.199219-32-99.101562-32-48.398438 0-91.398438 26-120.898438 73.300781-22.5 36.097657-36 82.800781-36 124.898438 0 136.601562 114.800781 247.800781 256 247.800781s256-111.101562 256-247.699219c0-42.199219-13.5-88.902343-36-124.902343zm-30.101562 124.800781c0 100.199219-85.199219 181.699219-189.898438 181.699219s-189.898438-81.5-189.898438-181.699219c0-85.097657 53.699219-132.097657 90.796876-132.097657 23.601562 0 42.300781 6.5 56.800781 17.097657-16 30-23.699219 64.800781-23.699219 98.601562 0 23.800781 6.800781 43.597657 17.898438 60.597657 30.5-19.398438 48.203124-36.5 48.203124-60.597657 0 0 0 0 0-.101562v.101562c0 24.097657 17.699219 41.199219 48.199219 60.597657 11-17 17.898438-36.699219 17.898438-60.597657 0-33.800781-7.699219-68.601562-23.699219-98.601562 14.5-10.597657 33.199219-17.097657 56.800781-17.097657 36.898438 0 90.597657 47 90.597657 132.097657zm0 0" fill="#ffc269"/><g fill="#ffa95f"><path d="m445.898438 198.199219c0 46.699219-18.597657 89.300781-49 121.5 2.703124 2.800781 5 6 6.902343 9.5 36-33.097657 58.5-79.597657 58.5-131 0-85.097657-53.699219-132.097657-90.800781-132.097657-3.5 0-7.101562.097657-10.398438.398438 36.699219 4.800781 84.796876 51.300781 84.796876 131.699219zm0 0"/><path d="m398.898438 317.601562c-16.097657 17.597657-35.5 32.296876-57.5 42.898438 20.601562 13.398438 39.300781 28.300781 52.601562 46.300781 17.699219-11 33.898438-24.199219 48.300781-39-14.300781-16.800781-28.699219-33.699219-43.402343-50.199219zm0 0"/><path d="m24.800781 198.199219c0-42.097657 13.5-88.800781 36-124.898438 27.199219-43.601562 66-69.101562 109.898438-72.800781-4.398438-.300781-9.097657-.5-13.800781-.5-48.398438 0-91.398438 26-120.898438 73.300781-22.5 36.097657-36 82.800781-36 124.898438 0 136.601562 114.800781 247.800781 256 247.800781 4.199219 0 8.300781-.101562 12.398438-.300781-135.398438-6.300781-243.597657-114.898438-243.597657-247.5zm0 0"/></g><path d="m207.800781 242.300781c-10.402343 6.597657-22.300781 13.5-35.402343 21-48.796876 27.800781-104 59.300781-135.398438 117.5-8.699219 16.097657-2.601562 36.097657 13.398438 44.699219 5 2.699219 10.300781 4 15.601562 4 11.800781 0 23.199219-6.300781 29.101562-17.398438 22.296876-41.5 66.898438-66.902343 109.898438-91.402343 17-9.699219 34.601562-19.699219 50.898438-31.199219-18.898438-13.398438-36-28.601562-48.097657-47.199219zm0 0" fill="#ffc269"/><path d="m256 181.699219c0 24.101562 17.699219 41.199219 48.199219 60.601562 2.601562-4 4.902343-8.101562 7-12.300781-19.398438-14.800781-30.398438-29.398438-30.398438-48.199219 0-53.300781-26-115.601562-99.101562-115.601562-3.097657 0-6.300781.300781-9.5 1 61.402343 8 83.800781 65.101562 83.800781 114.5zm0 0" fill="#ffa95f"/><path d="m207.800781 242.300781c-4.402343 2.800781-9.101562 5.699219-14.101562 8.597657 12.300781 19.101562 29.199219 34.703124 47.699219 48.300781 5-3.097657 9.800781-6.300781 14.601562-9.699219-19-13.398438-36.101562-28.601562-48.199219-47.199219zm0 0" fill="#ffa95f"/><path d="m446 429.5c5.300781 0 10.601562-1.300781 15.601562-4 16.097657-8.601562 22.097657-28.699219 13.398438-44.699219-31.300781-58.199219-86.601562-89.699219-135.398438-117.5-51.800781-29.601562-83.601562-49.300781-83.601562-81.601562 0-18.199219-14.800781-33-33-33s-33 14.800781-33 33c0 72.300781 62.199219 107.699219 117 139 43.101562 24.5 87.601562 49.902343 109.898438 91.402343 5.902343 11.097657 17.300781 17.398438 29.101562 17.398438zm0 0" fill="#ffc269"/><path d="m288.5 149.699219c-2.300781 0-4.5-.898438-6.199219-2.800781l-4.101562-4.597657c-3-3.402343-2.699219-8.601562.699219-11.699219 3.402343-3 8.601562-2.703124 11.703124.699219l4.097657 4.597657c3 3.402343 2.699219 8.601562-.699219 11.703124-1.601562 1.398438-3.5 2.097657-5.5 2.097657zm0 0" fill="#ffe09f"/><path d="m345.300781 47.5c-3.199219 0-6.199219-1.800781-7.601562-4.898438-1.800781-4.203124 0-9 4.199219-10.902343l9.300781-4.097657c4.199219-1.800781 9 0 10.902343 4.199219 1.796876 4.199219 0 9-4.203124 10.898438l-9.296876 4.101562c-1 .5-2.203124.699219-3.300781.699219zm0 0" fill="#f9eac7"/><path d="m459.898438 122.898438c-2.398438 0-4.796876-1-6.398438-3l-4.601562-5.699219c-2.898438-3.5-2.398438-8.699219 1.203124-11.597657 3.5-2.902343 8.699219-2.402343 11.597657 1.199219l4.601562 5.699219c2.898438 3.5 2.398438 8.699219-1.199219 11.601562-1.5 1.199219-3.402343 1.796876-5.203124 1.796876zm0 0" fill="#ffe09f"/><path d="m143.800781 46.800781c-3 0-5.902343-1.699219-7.402343-4.601562-2-4.097657-.398438-9 3.703124-11.097657l8.296876-4.101562c4.101562-2 9-.398438 11.101562 3.699219 2 4.101562.398438 9-3.699219 11.101562l-8.300781 4.097657c-1.199219.601562-2.398438.902343-3.699219.902343zm0 0" fill="#f9eac7"/><path d="m34.398438 216.800781c-2.898438 0-5.796876-1.601562-7.296876-4.300781l-4.101562-7.601562c-2.199219-4-.699219-9 3.300781-11.199219s9-.699219 11.199219 3.300781l4.101562 7.601562c2.199219 4 .699219 9-3.300781 11.199219-1.199219.699219-2.5 1-3.902343 1zm0 0" fill="#f9eac7"/><path d="m53.699219 305.601562c-.300781 0-.5 0-.800781 0-4.5-.5-7.796876-4.5-7.398438-9l.699219-6.902343c.5-4.5 4.402343-7.800781 9-7.398438 4.5.5 7.800781 4.5 7.402343 9l-.703124 6.898438c-.398438 4.199219-4 7.402343-8.199219 7.402343zm0 0" fill="#ffe09f"/><path d="m156.898438 316.898438c-2.5 0-4.898438-1.097657-6.5-3.199219-2.796876-3.597657-2.199219-8.800781 1.402343-11.597657l9.300781-7.203124c3.597657-2.796876 8.796876-2.097657 11.597657 1.402343 2.800781 3.597657 2.199219 8.800781-1.398438 11.597657l-9.300781 7.203124c-1.5 1.296876-3.300781 1.796876-5.101562 1.796876zm0 0" fill="#f9eac7"/><path d="m304.5 289.101562c-4 0-7.5-2.902343-8.101562-6.902343l-1.5-9.300781c-.796876-4.5 2.300781-8.796876 6.800781-9.5 4.5-.796876 8.800781 2.300781 9.5 6.800781l1.5 9.300781c.800781 4.5-2.300781 8.800781-6.800781 9.5-.5 0-.898438.101562-1.398438.101562zm0 0" fill="#ffe09f"/><path d="m411.398438 368c-2.199219 0-4.398438-.898438-6-2.601562-3.097657-3.296876-2.898438-8.597657.402343-11.699219l7.199219-6.699219c3.300781-3.101562 8.601562-2.898438 11.699219.398438 3.101562 3.300781 2.902343 8.601562-.398438 11.703124l-7.199219 6.699219c-1.703124 1.5-3.703124 2.199219-5.703124 2.199219zm0 0" fill="#f9eac7"/><path d="m271 424.300781c-2.101562 0-4.199219-.800781-5.800781-2.402343l-6.199219-6.199219c-3.199219-3.199219-3.199219-8.5 0-11.699219s8.5-3.199219 11.699219 0l6.199219 6.199219c3.203124 3.199219 3.203124 8.5 0 11.699219-1.699219 1.601562-3.796876 2.402343-5.898438 2.402343zm0 0" fill="#ffe09f"/><path d="m479 241.601562h-5.5c-4.601562 0-8.300781-3.703124-8.300781-8.300781 0-4.601562 3.699219-8.300781 8.300781-8.300781h5.5c4.601562 0 8.300781 3.699219 8.300781 8.300781 0 4.597657-3.800781 8.300781-8.300781 8.300781zm0 0" fill="#f9eac7"/><path d="m66.101562 97.800781c-1.203124 0-2.5-.300781-3.703124-.902343l-2.796876-1.398438c-4.101562-2-5.703124-7-3.703124-11.101562 2-4.097657 7-5.796876 11.101562-3.699219l2.800781 1.402343c4.097657 2 5.699219 7 3.699219 11.097657-1.5 2.902343-4.398438 4.601562-7.398438 4.601562zm0 0" fill="#ffe09f"/><path d="m224.5 165.199219c-2.699219 0-5.300781-1.300781-6.898438-3.699219l-2.101562-3.101562c-2.5-3.796876-1.5-8.898438 2.300781-11.5 3.800781-2.5 8.898438-1.5 11.5 2.300781l2.097657 3.101562c2.5 3.800781 1.5 8.898438-2.296876 11.5-1.402343.898438-3 1.398438-4.601562 1.398438zm0 0" fill="#ffe09f"/></svg>