<svg id="Capa_1" enable-background="new 0 0 512 512" height="512" viewBox="0 0 512 512" width="512" xmlns="http://www.w3.org/2000/svg"><g><path d="m371.58 20.63v119.51c-4.04-12.38-15.68-21.34-29.42-21.34-4.2 0-8.19.85-11.84 2.37v-100.54c0-11.39 9.24-20.63 20.63-20.63 3.62 0 7.03.93 9.98 2.57.01.01.01.02.02.02 1.69.93 3.23 2.1 4.58 3.45 3.73 3.74 6.05 8.89 6.05 14.59z" fill="#fd8087"/><path d="m371.58 111.31v28.83c-4.04-12.38-15.68-21.34-29.42-21.34-4.2 0-8.19.85-11.84 2.37v-100.54c0-11.39 9.24-20.63 20.63-20.63 3.62 0 7.03.93 9.98 2.57.01.01.01.02.02.02-6.34 3.52-10.63 10.28-10.63 18.04v78.99c8.26 1.68 15.62 5.85 21.26 11.69z" fill="#fe646f"/><path d="m499.49 44.3c0 5.28-2.02 10.56-6.04 14.58l-85.77 85.76-13.72 13.72c-5.65-7.3-14.51-12-24.46-12-1.01 0-2.02.05-3.01.15 0 0-1.4-10.7-3.88-15.14l13.89-13.89 87.78-87.78c8.06-8.05 21.11-8.05 29.17 0 4.02 4.03 6.04 9.31 6.04 14.6z" fill="#fd8087"/><path d="m484.28 29.7c1.39-1.39 2.94-2.54 4.58-3.45-7.84-4.36-17.92-3.2-24.58 3.45l-87.78 87.78-13.89 13.89c2.48 4.44 3.88 15.14 3.88 15.14.99-.1 2-.15 3.01-.15 9.95 0 18.81 4.7 24.46 12l13.72-13.72c-6.012-7.274-14.482-12.437-24.126-14.214l12.946-12.946z" fill="#fe646f"/><path d="m437.99 226.41c0 2.22-.23 14.41-.69 16.5h-388.19c-.45-2.09-.69-14.28-.69-16.5 0-11.21 5.96-21.03 14.89-26.46 0-.21-.02-.42-.02-.63 0-11.7 6.51-21.89 16.1-27.15-.02-.5-.03-.98-.03-1.49 0-17.09 13.85-30.94 30.94-30.94 1.01 0 2.02.06 3.01.16v-.16c0-17.08 13.85-30.94 30.94-30.94 5.44 0 10.54 1.42 14.98 3.88.59.33 1.17.68 1.74 1.04-.26-1.6-.39-3.24-.39-4.92 0-17.08 13.85-30.94 30.94-30.94 8.21 0 15.67 3.21 21.21 8.44 2.53-14.55 15.2-25.62 30.48-25.62 15.27 0 27.95 11.07 30.47 25.62 5.54-5.23 13.01-8.44 21.22-8.44 17.09 0 30.94 13.86 30.94 30.94 0 1.68-.14 3.32-.4 4.92 4.83-3.1 10.56-4.92 16.72-4.92 17.09 0 30.94 13.86 30.94 30.94v.16c.99-.1 2-.16 3.01-.16 17.09 0 30.94 13.85 30.94 30.94 0 .51-.01.99-.03 1.49 9.59 5.26 16.1 15.45 16.1 27.15 0 .21-.02.42-.02.63 5.08 3.09 9.2 7.6 11.8 12.97 1.98 4.08 3.09 8.65 3.09 13.49z" fill="#fef7ed"/><g fill="#fff0dc"><path d="m437.99 226.41c0 2.22-.23 14.41-.69 16.5h-388.19c-.45-2.09-.69-14.28-.69-16.5 0-11.21 5.96-21.03 14.89-26.46 0-.21-.02-.42-.02-.63 0-11.7 6.51-21.89 16.1-27.15-.02-.5-.03-.98-.03-1.49 0-17.09 13.85-30.94 30.94-30.94 1.01 0 2.02.06 3.01.16v-.16c0-17.08 13.85-30.94 30.94-30.94 5.44 0 10.54 1.42 14.98 3.88-9.5 5.29-15.92 15.43-15.92 27.06v.16c-.99-.1-2-.16-3.01-.16-17.09 0-30.94 13.85-30.94 30.94 0 .51.01.99.03 1.49-9.59 5.26-16.1 15.45-16.1 27.15 0 .21.02.42.02.63-.051.031-.102.062-.152.093-5.942 3.662-3.203 12.877 3.777 12.877h337.965c1.98 4.08 3.09 8.65 3.09 13.49z"/><path d="m191.52 77.86c5.44 0 10.54 1.41 14.98 3.89-9.5 5.28-15.92 15.42-15.92 27.05 0 1.68.13 3.32.39 4.92-4.83-3.1-10.56-4.92-16.72-4.92-4.85 0-9.43 1.11-13.51 3.09-.11-1.01-.16-2.04-.16-3.09 0-17.08 13.85-30.94 30.94-30.94z"/><path d="m243.21 60.68c5.44 0 10.56 1.41 15 3.89-8.02 4.44-13.85 12.37-15.48 21.73-5.54-5.23-13-8.44-21.21-8.44-2.17 0-4.29.22-6.33.65 4.93-10.53 15.61-17.83 28.02-17.83z"/></g><path d="m328.291 512h-170.169c-11.392 0-20.626-9.235-20.626-20.626 0-11.392 9.235-20.626 20.626-20.626l11.378-10h149.5l9.291 10c11.392 0 20.626 9.235 20.626 20.626 0 11.391-9.235 20.626-20.626 20.626z" fill="#b3dafe"/><path d="m193.54 476.79c-3.73 3.73-6.04 8.89-6.04 14.58 0 11.4 9.23 20.63 20.62 20.63h-50c-11.39 0-20.62-9.23-20.62-20.63 0-5.69 2.31-10.85 6.04-14.58s8.88-6.04 14.58-6.04l11.38-10h50l-11.38 10c-5.7 0-10.85 2.31-14.58 6.04z" fill="#8ac9fe"/><g><g><g><path d="m199.927 193.721c-4.272 0-7.735-3.463-7.735-7.735 0-4.265-3.47-7.735-7.735-7.735s-7.735 3.47-7.735 7.735c0 4.272-3.463 7.735-7.735 7.735s-7.735-3.463-7.735-7.735c0-12.795 10.409-23.205 23.205-23.205s23.205 10.409 23.205 23.205c0 4.272-3.463 7.735-7.735 7.735z" fill="#fff0dc"/></g><g><path d="m259.11 158.059c-4.272 0-7.735-3.463-7.735-7.735 0-4.265-3.47-7.735-7.735-7.735s-7.735 3.47-7.735 7.735c0 4.272-3.463 7.735-7.735 7.735s-7.735-3.463-7.735-7.735c0-12.795 10.409-23.205 23.205-23.205 12.795 0 23.205 10.409 23.205 23.205 0 4.272-3.462 7.735-7.735 7.735z" fill="#fff0dc"/></g><g><path d="m317.425 193.721c-4.272 0-7.735-3.463-7.735-7.735 0-4.265-3.47-7.735-7.735-7.735s-7.735 3.47-7.735 7.735c0 4.272-3.463 7.735-7.735 7.735s-7.735-3.463-7.735-7.735c0-12.795 10.41-23.205 23.205-23.205s23.205 10.409 23.205 23.205c0 4.272-3.462 7.735-7.735 7.735z" fill="#fff0dc"/></g></g></g><path d="m473.9 262.92v20.65l-10 8.93v32.56c0 17.273-3.009 33.838-8.522 49.212-1.199 3.344 7.483 6.631 6.052 9.858-22.66 51.03-73.79 86.62-133.22 86.62h-170.01c-59.43 0-110.56-35.59-133.22-86.62-1.198-2.701 7.683-5.445 6.647-8.229-5.892-15.831-9.117-32.956-9.117-50.841v-31.56l-10-9.93v-20.65c0-16.57 13.44-30 30-30h401.39c16.57 0 30 13.43 30 30z" fill="#eaf6ff"/><path d="m208.2 470.75h-50c-80.46 0-145.69-65.23-145.69-145.69v-62.14c0-16.57 13.44-30 30-30h50c-16.56 0-30 13.43-30 30v62.14c0 80.46 65.23 145.69 145.69 145.69z" fill="#d8ecfe"/><path d="m74.98 384.13h-50c-8.01-18.06-12.47-38.04-12.47-59.07v-41.49h50v41.49c0 21.03 4.46 41.01 12.47 59.07z" fill="#8ac9fe"/><path d="m473.9 283.57v41.49c0 21.03-4.46 41.01-12.47 59.07h-436.45c-8.01-18.06-12.47-38.04-12.47-59.07v-41.49z" fill="#b3dafe"/><path d="m74.98 384.13h-50c-8.01-18.06-12.47-38.04-12.47-59.07v-41.49h50v41.49c0 21.03 4.46 41.01 12.47 59.07z" fill="#8ac9fe"/></g></svg>