<svg height="512pt" viewBox="-1 -101 512.00022 512" width="512pt" xmlns="http://www.w3.org/2000/svg"><path d="m462.878906 226.625c-24.117187-23.039062-58.234375-37.410156-96.058594-37.410156h-221.640624c-37.824219 0-71.941407 14.371094-96.058594 37.410156-32.546875 31.085938-7.675782 82.429688 39.628906 82.429688h334.5c47.304688 0 72.175781-51.34375 39.628906-82.429688zm0 0" fill="#ff983b"/><path d="m462.878906 226.625c-7.421875-7.09375-15.796875-13.359375-24.933594-18.640625l-18.757812 19.640625 22.347656 21.347656c5.054688 4.828125 6.433594 10.222656 4.105469 16.035156-2.546875 6.351563-9.765625 13.140626-22.390625 13.140626h-384.878906c7.726562 17.375 26.097656 30.90625 50.378906 30.90625h334.5c47.304688 0 72.175781-51.34375 39.628906-82.429688zm0 0" fill="#ff7e40"/><path d="m484.527344 176.601562h-457.054688c-14.222656 0-25.753906 11.53125-25.753906 25.757813v11.5625c0 14.222656 11.53125 25.753906 25.753906 25.753906h457.054688c14.222656 0 25.753906-11.53125 25.753906-25.753906v-11.5625c0-14.226563-11.53125-25.757813-25.753906-25.757813zm0 0" fill="#f4eee0"/><path d="m396.753906 119.839844h-281.4375c-40.675781 0-79.453125 15.820312-106.699218 43.539062l-.113282.113282c-5.007812 5.09375-4.089844 13.046874 1.964844 17.066406l.136719.089844c4.480469 3.015624 10.644531 5.328124 17.574219 6.347656 6.925781 1.027344 14.5.769531 21.574218-.992188 6.574219-1.597656 12.242188-2.082031 16.910156-.941406 4.675782 1.140625 8.105469 3.933594 10.875 8.152344 1.488282 2.300781 3.386719 4.394531 5.660157 6.335937.273437.238281.601562.488281.84375.710938l.691406.652343c.46875.425782.945313.839844 1.429687 1.238282.96875.796875 1.972657 1.550781 3.003907 2.222656 4.128906 2.738281 8.714843 4.5 13.417969 5.273438 9.414062 1.527343 19.277343-.996094 27.097656-7.796876 3.628906-3.144531 8.132812-4.582031 12.742187-4.082031 4.605469.507813 8.78125 2.90625 11.796875 6.773438 6.507813 8.375 15.695313 13.023437 25.097656 13.664062 9.40625.648438 19.003907-2.71875 26.363282-10.125 3.410156-3.425781 7.8125-5.222656 12.441406-5.066406 4.625.148437 8.929688 2.226563 12.15625 5.875 6.964844 7.878906 16.355469 11.867187 25.757812 11.863281 9.402344.003906 18.789063-3.984375 25.753907-11.863281 3.226562-3.648437 7.53125-5.726563 12.160156-5.875 4.625-.15625 9.03125 1.640625 12.4375 5.066406 7.363281 7.40625 16.957031 10.773438 26.363281 10.125 9.402344-.640625 18.589844-5.289062 25.097656-13.664062 3.015626-3.867188 7.191407-6.265625 11.796876-6.773438 4.609374-.5 9.113281.9375 12.738281 4.082031 7.824219 6.800782 17.6875 9.324219 27.101562 7.796876 4.707031-.773438 9.289063-2.535157 13.417969-5.273438 1.03125-.675781 2.035156-1.425781 3.003906-2.222656.484375-.402344.960938-.816406 1.429688-1.242188l.695312-.648437c.238282-.226563.570313-.472657.839844-.714844 2.269531-1.9375 4.171875-4.03125 5.660156-6.332031 2.769532-4.21875 6.199219-7.011719 10.875-8.152344 4.667969-1.140625 10.335938-.65625 16.910156.941406 7.074219 1.761719 14.644532 2.015625 21.574219.992188 6.929688-1.019532 13.09375-3.335938 17.574219-6.351563 6.128906-4.066406 7.054688-12.113281 1.988281-17.265625-27.25-27.71875-66.023437-43.539062-106.703125-43.539062zm0 0" fill="#28d05b"/><path d="m162.316406 138.757812c0-20.898437-35.949218-37.84375-80.296875-37.84375-44.351562 0-80.300781 16.945313-80.300781 37.84375 0 20.902344 35.949219 37.84375 80.300781 37.84375 44.347657 0 80.296875-16.941406 80.296875-37.84375zm0 0" fill="#ff5368"/><path d="m336.300781 138.757812c0-20.898437-35.953125-37.84375-80.300781-37.84375s-80.300781 16.945313-80.300781 37.84375c0 20.902344 35.953125 37.84375 80.300781 37.84375s80.300781-16.941406 80.300781-37.84375zm0 0" fill="#ff5368"/><path d="m510.28125 138.757812c0-20.898437-35.949219-37.84375-80.300781-37.84375-44.347657 0-80.296875 16.945313-80.296875 37.84375 0 20.902344 35.949218 37.84375 80.296875 37.84375 44.351562 0 80.300781-16.941406 80.300781-37.84375zm0 0" fill="#ff5368"/><path d="m494.953125 43.3125c-27.855469-26.675781-67.265625-43.3125-110.953125-43.3125-23.425781 0-45.621094 4.789062-65.464844 13.339844-19.84375-8.550782-42.039062-13.339844-65.46875-13.339844-22.277344 0-43.441406 4.335938-62.53125 12.113281-19.089844-7.777343-40.253906-12.113281-62.535156-12.113281-43.6875 0-83.097656 16.636719-110.953125 43.3125-37.589844 35.996094-8.867187 95.445312 45.773437 95.445312h386.359376c54.640624 0 83.367187-59.449218 45.773437-95.445312zm0 0" fill="#ff983b"/><g fill="#ff7e40"><path d="m313.363281 11.222656c-.207031-.082031-.417969-.160156-.625-.242187-3.332031-1.28125-6.726562-2.464844-10.175781-3.535157-.175781-.054687-.355469-.109374-.535156-.164062-3.484375-1.066406-7.027344-2.027344-10.617188-2.867188-.164062-.039062-.324218-.074218-.488281-.113281l-.050781-.011719c-3.363282-.777343-6.941406-.074218-9.625 1.925782-4.960938 3.6875-9.660156 7.652344-14.066406 11.871094-12.292969 11.773437-17.492188 26.054687-17.011719 39.941406.078125.148437.144531.296875.222656.445312-.074219-.144531-.144531-.289062-.222656-.433594.007812.171876.015625.347657.027343.527344.386719 6.195313 9.769532 7.515625 12.226563 1.726563 2.6875-6.328125 6.226563-12.769531 10.625-16.980469 12.917969-12.371094 28.324219-22.578125 45.484375-29.972656-1.707031-.730469-3.425781-1.4375-5.167969-2.117188zm0 0"/><path d="m184.082031 9.648438c-.070312-.023438-.136719-.050782-.203125-.074219-7.929687-2.824219-16.183594-5.070313-24.695312-6.671875-3.261719-.613282-6.65625.117187-9.261719 2-5.617187 4.054687-10.910156 8.460937-15.839844 13.183594-12.703125 12.164062-17.832031 27.007812-16.945312 41.332031.382812 6.222656 9.671875 7.59375 12.222656 1.808593 2.789063-6.324218 6.992187-12.394531 12.753906-17.914062 13.644531-13.066406 30.070313-23.714844 48.402344-31.1875-2.121094-.867188-4.261719-1.699219-6.433594-2.476562zm0 0"/><path d="m494.953125 43.3125c-7.371094-7.058594-15.5625-13.410156-24.417969-18.941406-9.605468 12.347656-8.5 30.207031 3.042969 41.265625 9.269531 8.871093 8.316406 17.945312 5.886719 23.996093-3.535156 8.808594-13.351563 18.222657-30.285156 18.222657h-442.09375c10.015624 17.714843 30 30.902343 55.734374 30.902343h386.359376c54.640624 0 83.367187-59.449218 45.773437-95.445312zm0 0"/></g></svg>