<svg id="Layer_1" enable-background="new 0 0 512 512" height="512" viewBox="0 0 512 512" width="512" xmlns="http://www.w3.org/2000/svg"><g><g><g><path clip-rule="evenodd" d="m501.843 393.344v45.143c0 8.746-7.129 15.916-15.875 15.916h-247.048c-9.663-20.253-12.97-38.663-12.97-61.059l117.07-34.624z" fill="#ffd772" fill-rule="evenodd"/></g><g><path clip-rule="evenodd" d="m501.843 25.209v45.153l-175.09 25.548-171.412-25.549v-45.152c0-8.746 7.17-15.885 15.916-15.885h314.71c8.747-.001 15.876 7.138 15.876 15.885z" fill="#ffd772" fill-rule="evenodd"/></g><g><path clip-rule="evenodd" d="m501.847 393.34c6.424-69.421 19.214-253.473 0-322.983h-173.251-173.25c-6.93 25.103-9.696 65.198-10.083 109.426l91.191 213.558h92.143 173.25z" fill="#ce9874" fill-rule="evenodd"/></g><g><path clip-rule="evenodd" d="m374.221 204.113c-40.926-9.577-79.204-28.286-114.063-58.654-16.715-16.567-22.158-11.421-30.546 10.797-2.945 7.852-4.461 15.734-4.67 23.527h14.901c6.335 0 11.54 5.175 11.54 11.54v32.747c-1.487 3.629-3.123 7.287-4.729 11.094 7.733 8.655 17.251 16.21 28.077 22.218 4.283 2.023 8.625 3.777 13.027 5.235 35.989 11.897 74.535 3.926 95.444-27.364 12.76-19.066 13.652-27.513-6.781-30.814-.713-.118-1.426-.207-2.2-.326z" fill="#ffd772" fill-rule="evenodd"/></g><g><path clip-rule="evenodd" d="m383.203 235.254c-20.909 31.29-59.455 39.261-95.444 27.364-.416.178-.833.327-1.219.506-25.133 7.912-22.932 17.311-4.104 37.09 33.55 35.216 86.462 32.777 127.417 3.807 39.111-31.439 55.976-81.646 31.319-123.554-13.86-23.557-21.058-28.316-36.792-6.276-8.893 10.946-18.202 21.029-27.958 30.249 20.433 3.301 19.541 11.749 6.781 30.814z" fill="#ffd772" fill-rule="evenodd"/></g><g><path clip-rule="evenodd" d="m374.221 204.113c-5.592-1.309-11.153-2.796-16.656-4.462-.714 4.58-3.896 10.499-8.982 18.084-19.809 29.565-55.321 38.309-89.555 29.119 4.818 3.896 10.083 7.406 15.704 10.529 4.283 2.023 8.625 3.777 13.027 5.235 35.989 11.897 74.535 3.926 95.444-27.364 12.76-19.066 13.652-27.513-6.781-30.814-.714-.119-1.427-.208-2.201-.327z" fill="#fdb440" fill-rule="evenodd"/></g><g><path clip-rule="evenodd" d="m416.247 174.399c24.657 41.908 7.822 92.115-31.289 123.554-22.842 16.151-49.373 24.062-74.178 21.802 30.932 12.79 68.348 5.978 99.073-15.734 39.111-31.439 55.976-81.646 31.319-123.554-11.748-19.988-18.708-26.442-30.129-14.485 1.635 2.468 3.36 5.264 5.204 8.417z" fill="#fdb440" fill-rule="evenodd"/></g><g><path clip-rule="evenodd" d="m501.847 25.206c0-8.745-7.138-15.883-15.883-15.883h-16.377-7.971c2.915 0 5.621.773 7.971 2.142 4.729 2.766 7.941 7.912 7.941 13.741v45.15h24.319z" fill="#fdb440" fill-rule="evenodd"/></g><g><path clip-rule="evenodd" d="m125.692 201.912-125.692 22.159c1.487 3.629 3.123 7.287 4.729 11.124 5.175 12.254 10.202 25.966 10.202 44.228v114.304c0 22.248-3.48 38.637-10.202 54.549-1.428 3.391-3.004 6.722-4.729 10.113l134.08 22.159 117.305-22.159c-.684-1.338-1.338-2.677-1.963-3.986-8.566-17.935-12.968-35.573-12.968-60.677v-114.303c0-18.262 5.027-31.974 10.202-44.258 1.606-3.807 3.242-7.466 4.729-11.094z" fill="#95d6a4" fill-rule="evenodd"/></g><g><path clip-rule="evenodd" d="m148.088 291.35c-7.793-4.075-16.626-6.365-25.995-6.365-26.084 0-48.034 17.757-54.369 41.849 36.613 11.065 71.055 7.555 101.125-16.865-5.235-7.822-12.373-14.247-20.761-18.619z" fill="#dd636e" fill-rule="evenodd"/></g><g><path clip-rule="evenodd" d="m176.998 353.425c-44.257-12.492-72.274 14.426-101.72 18.976 10.083 15.11 27.274 25.074 46.815 25.074 12.194 0 23.467-3.896 32.687-10.47 11.094-7.942 19.184-19.809 22.218-33.58z" fill="#dd636e" fill-rule="evenodd"/></g><g><path clip-rule="evenodd" d="m251.385 191.325v32.749h-251.385v-32.749c0-3.812 1.844-7.201 4.729-9.313 1.906-1.401 4.255-2.225 6.809-2.225h228.309c6.335 0 11.538 5.172 11.538 11.538z" fill="#ccf49e" fill-rule="evenodd"/></g><g><path clip-rule="evenodd" d="m251.385 458.389v32.749c0 6.366-5.202 11.538-11.538 11.538h-228.309c-2.555 0-4.904-.834-6.809-2.235-2.885-2.112-4.729-5.501-4.729-9.302v-32.749h251.385z" fill="#ccf49e" fill-rule="evenodd"/></g><g><path clip-rule="evenodd" d="m251.384 191.323c0-6.365-5.205-11.54-11.54-11.54h-14.901-15.109c6.335 0 11.54 5.175 11.54 11.54v32.747h16.715 13.295z" fill="#b3e59e" fill-rule="evenodd"/></g><g><path clip-rule="evenodd" d="m251.384 458.389h-25.162v32.747c0 6.365-5.175 11.54-11.54 11.54h25.162c6.335 0 11.54-5.175 11.54-11.54z" fill="#b3e59e" fill-rule="evenodd"/></g><g><path clip-rule="evenodd" d="m168.849 309.969c-5.235-7.823-12.373-14.247-20.76-18.619-7.793-4.075-16.626-6.365-25.995-6.365-2.826 0-5.562.208-8.268.595 11.867 6.811 21.474 16.418 27.542 27.78 2.558-.535 5.175-1.041 7.852-1.457 6.215-1.012 12.699-1.725 19.629-1.934z" fill="#da4a54" fill-rule="evenodd"/></g><g><path clip-rule="evenodd" d="m176.998 353.425c-8.923-.149-17.102.744-24.805 2.201-1.844.357-3.688.744-5.502 1.16-4.313 16.627-15.645 30.903-31.111 40.302 2.141.268 4.313.387 6.514.387 12.194 0 23.467-3.896 32.687-10.47 11.093-7.942 19.183-19.809 22.217-33.58z" fill="#da4a54" fill-rule="evenodd"/></g><g><path clip-rule="evenodd" d="m251.384 224.071h-13.295-16.715c-72.215 0-144.43 0-216.645 0h-4.729c1.487 3.629 3.123 7.287 4.729 11.124 2.022 4.818 4.045 9.875 5.74 15.348h205.283c.059-.268.149-.506.238-.773-2.736 8.626-4.699 18.262-4.699 29.654v43.663 70.254.387c0 25.103 4.402 42.741 12.968 60.677.625 1.309 1.279 2.647 1.963 3.986h25.162c-.684-1.338-1.338-2.677-1.963-3.986-8.566-17.935-12.968-35.573-12.968-60.677v-.387-113.918c0-18.262 5.027-31.974 10.202-44.258 1.606-3.807 3.242-7.466 4.729-11.094z" fill="#78c2a4" fill-rule="evenodd"/></g><g><path d="m133.419 179.787v14.155c0 4.265-3.461 7.726-7.726 7.726s-7.726-3.461-7.726-7.726v-14.155z" fill="#b3e59e"/></g><g><path d="m68.074 179.787v14.155c0 4.265-3.462 7.726-7.726 7.726-4.265 0-7.726-3.461-7.726-7.726v-14.155z" fill="#b3e59e"/></g><g><path d="m198.763 179.787v14.155c0 4.265-3.461 7.726-7.726 7.726s-7.726-3.461-7.726-7.726v-14.155z" fill="#b3e59e"/></g><g><path d="m133.419 488.522v14.155h-15.453v-14.155c0-4.275 3.461-7.726 7.726-7.726s7.727 3.451 7.727 7.726z" fill="#b3e59e"/></g><g><path d="m68.074 488.522v14.155h-15.452v-14.155c0-4.275 3.461-7.726 7.726-7.726s7.726 3.451 7.726 7.726z" fill="#b3e59e"/></g><g><path d="m198.763 488.522v14.155h-15.453v-14.155c0-4.275 3.462-7.726 7.726-7.726 4.266 0 7.727 3.451 7.727 7.726z" fill="#b3e59e"/></g><g><path d="m279.688 202.861c-4.268 0-7.726-3.414-7.726-7.682v-.09c0-4.268 3.459-7.726 7.726-7.726s7.726 3.459 7.726 7.726-3.458 7.772-7.726 7.772z" fill="#ce9874"/></g><g><path d="m309.906 229.243c-4.268 0-7.726-3.414-7.726-7.682v-.09c0-4.268 3.459-7.726 7.726-7.726s7.726 3.459 7.726 7.726-3.458 7.772-7.726 7.772z" fill="#ce9874"/></g><g><path d="m378.831 292.711c-4.268 0-7.726-3.429-7.726-7.696v-.06c0-4.268 3.459-7.726 7.726-7.726s7.726 3.459 7.726 7.726-3.458 7.756-7.726 7.756z" fill="#ce9874"/></g><g><path d="m410.031 250.847c-4.268 0-7.726-3.413-7.726-7.681v-.09c0-4.268 3.459-7.726 7.726-7.726s7.726 3.459 7.726 7.726-3.458 7.771-7.726 7.771z" fill="#ce9874"/></g><g clip-rule="evenodd" fill-rule="evenodd"><path d="m501.847 393.34h-23.288v45.15c0 5.859-4.242 11.005-8.971 13.771-2.35 1.338-4.026 2.142-6.941 2.142h7.971 15.347c8.744 0 15.883-7.168 15.883-15.913v-45.15z" fill="#fdb440"/><path d="m501.847 393.34c6.424-69.421 19.214-253.473 0-322.983h-24.319c19.214 69.51 6.395 253.562 0 322.983z" fill="#c6875e"/><path d="m501.847 25.206c0-8.745-7.138-15.883-15.883-15.883h-16.377-7.971c2.915 0 5.621.773 7.971 2.142 4.729 2.766 7.941 7.912 7.941 13.741v45.15h24.319z" fill="#fdb440"/></g><g><path d="m276.81 9.323v23.88c0 4.275-3.451 7.726-7.726 7.726-4.265 0-7.726-3.451-7.726-7.726v-23.88z" fill="#fdb440"/></g><g><path d="m217.306 9.323v23.88c0 4.275-3.461 7.726-7.726 7.726s-7.726-3.451-7.726-7.726v-23.88z" fill="#fdb440"/></g><g><path d="m336.323 9.323v23.88c0 4.275-3.462 7.726-7.726 7.726s-7.726-3.451-7.726-7.726v-23.88z" fill="#fdb440"/></g><g><path d="m395.826 9.323v23.88c0 4.275-3.451 7.726-7.726 7.726-4.265 0-7.726-3.451-7.726-7.726v-23.88z" fill="#fdb440"/></g><g><path d="m455.34 9.323v23.88c0 4.275-3.461 7.726-7.726 7.726s-7.726-3.451-7.726-7.726v-23.88z" fill="#fdb440"/></g><g><path d="m318.511 430.492v23.91h-15.453v-23.91c0-4.265 3.451-7.726 7.726-7.726 4.266 0 7.727 3.461 7.727 7.726z" fill="#fdb440"/></g><g><path d="m384.896 430.492v23.91h-15.453v-23.91c0-4.265 3.461-7.726 7.726-7.726 4.266 0 7.727 3.461 7.727 7.726z" fill="#fdb440"/></g><g><path d="m451.292 430.492v23.91h-15.453v-23.91c0-4.265 3.451-7.726 7.726-7.726 4.265 0 7.727 3.461 7.727 7.726z" fill="#fdb440"/></g></g><g><path clip-rule="evenodd" d="m168.849 309.969c-6.93.208-13.414.922-19.63 1.933-29.088 4.699-51.455 16.061-81.495 14.931-6.454-.238-13.235-1.071-20.493-2.617v41.552c10.202 4.134 19.422 6.097 28.047 6.633 27.482 1.695 48.897-11.422 76.914-16.775 7.703-1.457 15.883-2.35 24.805-2.201 6.246.119 12.879.744 19.957 2.023v-43.693c-10.23-1.577-19.51-2.053-28.105-1.786z" fill="#ffd772" fill-rule="evenodd"/></g><g><path clip-rule="evenodd" d="m196.955 311.754c-5.621-.863-10.945-1.398-16.031-1.666v43.485c5.086.268 10.41.863 16.031 1.874z" fill="#fdb440" fill-rule="evenodd"/></g></g></svg>