<?xml version="1.0" encoding="UTF-8" standalone="no"?>
<!-- Created with Inkscape (http://www.inkscape.org/) -->

<svg
   version="1.1"
   id="svg2904"
   xml:space="preserve"
   width="682.66669"
   height="682.66669"
   viewBox="0 0 682.66669 682.66669"
   xmlns="http://www.w3.org/2000/svg"
   xmlns:svg="http://www.w3.org/2000/svg"><defs
     id="defs2908"><clipPath
       clipPathUnits="userSpaceOnUse"
       id="clipPath2918"><path
         d="M 0,512 H 512 V 0 H 0 Z"
         id="path2916" /></clipPath></defs><g
     id="g2910"
     transform="matrix(1.3333333,0,0,-1.3333333,0,682.66667)"><g
       id="g2912"><g
         id="g2914"
         clip-path="url(#clipPath2918)"><g
           id="g2920"
           transform="translate(362.6187,64.5859)"><path
             d="m 0,0 v -11.33 c 0,-16.1 -9.426,-30.681 -24.078,-37.354 -17.259,-7.859 -44.27,-15.902 -82.541,-15.902 -38.271,0 -65.281,8.043 -82.54,15.902 -14.652,6.673 -24.078,21.254 -24.078,37.354 V 0 Z"
             style="fill:#8db9c2;fill-opacity:1;fill-rule:nonzero;stroke:none"
             id="path2922" /></g><g
           id="g2924"
           transform="translate(481.5396,262.4463)"><path
             d="m 0,0 c 0,-124.563 -100.978,-225.54 -225.54,-225.54 -124.562,0 -225.539,100.977 -225.539,225.54 z"
             style="fill:#eff3f5;fill-opacity:1;fill-rule:nonzero;stroke:none"
             id="path2926" /></g><g
           id="g2928"
           transform="translate(417.9785,262.4463)"><path
             d="m 0,0 c 0,-113.773 -84.248,-207.854 -193.759,-223.301 10.385,-1.464 20.991,-2.239 31.78,-2.239 124.562,0 225.54,100.977 225.54,225.54 z"
             style="fill:#c9e2e7;fill-opacity:1;fill-rule:nonzero;stroke:none"
             id="path2930" /></g><g
           id="g2932"
           transform="translate(481.5396,262.4463)"><path
             d="m 0,0 c 0,-62.281 -100.978,-112.771 -225.54,-112.771 -124.562,0 -225.539,50.49 -225.539,112.771 0,62.281 100.977,112.77 225.539,112.77 C -100.978,112.77 0,62.281 0,0"
             style="fill:#8db9c2;fill-opacity:1;fill-rule:nonzero;stroke:none"
             id="path2934" /></g><g
           id="g2936"
           transform="translate(256,180.4316)"><path
             d="m 0,0 c -54.756,0 -107.872,10.855 -145.726,29.782 -30.718,15.36 -49.058,34.885 -49.058,52.233 0,17.346 18.34,36.872 49.058,52.231 37.854,18.927 90.97,29.782 145.726,29.782 54.756,0 107.872,-10.855 145.726,-29.782 30.718,-15.359 49.058,-34.885 49.058,-52.231 0,-17.348 -18.34,-36.873 -49.058,-52.233 C 107.872,10.855 54.756,0 0,0"
             style="fill:#c9e2e7;fill-opacity:1;fill-rule:nonzero;stroke:none"
             id="path2938" /></g><g
           id="g2940"
           transform="translate(77.0737,232.7119)"><path
             d="m 0,0 c 8.249,-7.953 19.486,-15.641 33.2,-22.498 37.855,-18.927 90.97,-29.782 145.726,-29.782 54.757,0 107.872,10.855 145.726,29.782 13.714,6.857 24.952,14.545 33.201,22.498 -2.922,15.987 -19.166,33.245 -44.705,47.11 C 278.282,66.037 229.36,76.893 178.926,76.893 128.493,76.893 79.571,66.037 44.705,47.11 19.166,33.245 2.921,15.987 0,0"
             style="fill:#fdcb82;fill-opacity:1;fill-rule:nonzero;stroke:none"
             id="path2942" /></g><g
           id="g2944"
           transform="translate(426.3765,250.791)"><path
             d="m 0,0 c -8.922,-7.525 -20.125,-14.763 -33.287,-21.344 -44.195,-22.096 -106.207,-34.77 -170.135,-34.77 -36.577,0 -72.519,4.155 -104.863,11.843 37.169,-16.636 86.822,-26.088 137.909,-26.088 54.756,0 107.871,10.855 145.726,29.782 13.713,6.857 24.951,14.545 33.2,22.498 C 7.466,-12.148 4.545,-6.043 0,0"
             style="fill:#fcb143;fill-opacity:1;fill-rule:nonzero;stroke:none"
             id="path2946" /></g><g
           id="g2948"
           transform="translate(233.2485,251.7783)"><path
             d="m 0,0 c -2.916,0 -5.698,1.686 -6.959,4.522 -1.704,3.834 0.016,8.323 3.843,10.038 1.96,0.89 7.527,4.075 9.831,8.106 2.085,3.648 6.736,4.917 10.384,2.832 3.651,-2.085 4.919,-6.734 2.833,-10.385 C 14.744,6.033 4.265,1.181 3.087,0.658 2.083,0.211 1.033,0 0,0"
             style="fill:#7fd061;fill-opacity:1;fill-rule:nonzero;stroke:none"
             id="path2950" /></g><g
           id="g2952"
           transform="translate(236.5215,252.1943)"><path
             d="m 0,0 c -3.05,-17.285 -23.975,-25.63 -52.284,-25.63 -28.31,0 -56.535,9.248 -50.234,25.63 5.126,13.327 27.392,10.787 54.334,19.479 C -16.403,29.73 3.076,17.428 0,0"
             style="fill:#fc8086;fill-opacity:1;fill-rule:nonzero;stroke:none"
             id="path2954" /></g><g
           id="g2956"
           transform="translate(226.2192,271.9463)"><path
             d="m 0,0 c 0.328,-2.033 0.311,-4.186 -0.084,-6.425 -3.05,-17.285 -23.975,-25.629 -52.284,-25.629 -15.487,0 -30.934,2.773 -40.732,7.962 -0.214,-13.665 25.414,-21.29 51.118,-21.29 28.31,0 49.234,8.345 52.284,25.63 C 11.795,-11.293 7.962,-4.052 0,0"
             style="fill:#fb636f;fill-opacity:1;fill-rule:nonzero;stroke:none"
             id="path2958" /></g><g
           id="g2960"
           transform="translate(325.7124,263.4717)"><path
             d="m 0,0 c 0,-7.361 -9.18,-13.328 -20.504,-13.328 -11.324,0 -20.503,5.967 -20.503,13.328 0,7.36 9.179,13.327 20.503,13.327 C -9.18,13.327 0,7.36 0,0"
             style="fill:#7fd061;fill-opacity:1;fill-rule:nonzero;stroke:none"
             id="path2962" /></g><g
           id="g2964"
           transform="translate(390.2983,243.9932)"><path
             d="m 0,0 c 0,-7.36 -9.18,-13.328 -20.503,-13.328 -11.324,0 -20.504,5.968 -20.504,13.328 0,7.36 9.18,13.327 20.504,13.327 C -9.18,13.327 0,7.36 0,0"
             style="fill:#7fd061;fill-opacity:1;fill-rule:nonzero;stroke:none"
             id="path2966" /></g><g
           id="g2968"
           transform="translate(293.9316,219.3887)"><path
             d="m 0,0 c 0,-7.36 -9.18,-13.327 -20.503,-13.327 -11.325,0 -20.504,5.967 -20.504,13.327 0,7.36 9.179,13.327 20.504,13.327 C -9.18,13.327 0,7.36 0,0"
             style="fill:#7fd061;fill-opacity:1;fill-rule:nonzero;stroke:none"
             id="path2970" /></g><g
           id="g2972"
           transform="translate(260.1006,394.2588)"><path
             d="m 0,0 c -4.204,0 -7.611,3.407 -7.611,7.611 0,4.181 -1.092,5.887 -2.901,8.713 -2.237,3.496 -5.301,8.284 -5.301,16.92 0,8.634 3.064,13.422 5.301,16.918 1.809,2.826 2.901,4.532 2.901,8.713 0,4.18 -1.092,5.885 -2.9,8.711 -2.238,3.495 -5.302,8.283 -5.302,16.917 0,8.634 3.064,13.421 5.302,16.916 1.808,2.826 2.9,4.531 2.9,8.711 0,4.204 3.407,7.611 7.611,7.611 4.204,0 7.611,-3.407 7.611,-7.611 0,-8.635 -3.064,-13.421 -5.301,-16.917 -1.808,-2.825 -2.9,-4.53 -2.9,-8.71 0,-4.18 1.092,-5.886 2.9,-8.711 2.237,-3.496 5.301,-8.282 5.301,-16.917 0,-8.636 -3.064,-13.422 -5.3,-16.919 -1.809,-2.825 -2.901,-4.531 -2.901,-8.712 0,-4.182 1.092,-5.889 2.901,-8.715 2.236,-3.496 5.3,-8.283 5.3,-16.918 C 7.611,3.407 4.204,0 0,0"
             style="fill:#fdcb82;fill-opacity:1;fill-rule:nonzero;stroke:none"
             id="path2974" /></g><g
           id="g2976"
           transform="translate(316.4858,394.2588)"><path
             d="m 0,0 c -4.204,0 -7.612,3.407 -7.612,7.611 0,4.181 -1.092,5.887 -2.9,8.713 -2.238,3.496 -5.301,8.284 -5.301,16.92 0,8.635 3.063,13.422 5.301,16.918 1.808,2.826 2.9,4.532 2.9,8.713 0,4.18 -1.092,5.885 -2.9,8.711 -2.237,3.495 -5.301,8.283 -5.301,16.917 0,4.204 3.407,7.612 7.611,7.612 4.204,0 7.612,-3.408 7.612,-7.612 0,-4.18 1.091,-5.886 2.9,-8.711 2.237,-3.496 5.301,-8.282 5.301,-16.917 0,-8.636 -3.064,-13.422 -5.301,-16.919 -1.809,-2.825 -2.9,-4.532 -2.9,-8.712 0,-4.182 1.091,-5.888 2.9,-8.714 C 4.547,21.033 7.611,16.246 7.611,7.611 7.611,3.407 4.204,0 0,0"
             style="fill:#fdcb82;fill-opacity:1;fill-rule:nonzero;stroke:none"
             id="path2978" /></g><g
           id="g2980"
           transform="translate(202.6909,394.2588)"><path
             d="m 0,0 c -4.204,0 -7.612,3.407 -7.612,7.611 0,4.181 -1.091,5.887 -2.9,8.713 -2.238,3.496 -5.301,8.284 -5.301,16.92 0,8.635 3.063,13.422 5.301,16.918 1.809,2.826 2.9,4.532 2.9,8.713 0,4.18 -1.091,5.885 -2.9,8.711 -2.237,3.495 -5.301,8.283 -5.301,16.917 0,4.204 3.408,7.612 7.611,7.612 4.204,0 7.612,-3.408 7.612,-7.612 0,-4.18 1.091,-5.886 2.9,-8.711 2.237,-3.496 5.301,-8.282 5.301,-16.917 0,-8.636 -3.064,-13.422 -5.301,-16.919 -1.809,-2.825 -2.9,-4.532 -2.9,-8.712 0,-4.182 1.091,-5.888 2.9,-8.714 C 4.547,21.033 7.611,16.246 7.611,7.611 7.611,3.407 4.204,0 0,0"
             style="fill:#fdcb82;fill-opacity:1;fill-rule:nonzero;stroke:none"
             id="path2982" /></g></g></g></g></svg>
