<svg id="Layer_1" enable-background="new 0 0 504.5 504.5" height="512" viewBox="0 0 504.5 504.5" width="512" xmlns="http://www.w3.org/2000/svg"><g><g><path d="m25.738 323.776 63.729 114.516c12.627 22.691 33.016 40.158 57.513 48.594 68.202 23.486 142.338 23.486 210.54 0 24.497-8.436 44.886-25.903 57.513-48.594l63.729-114.516z" fill="#ebd5d8"/><path d="m438.762 323.776-63.729 114.516c-12.627 22.691-33.016 40.158-57.513 48.594-27.709 9.542-56.398 15.207-85.27 16.995 42.193 2.614 84.777-3.051 125.27-16.995 24.497-8.436 44.886-25.903 57.513-48.594l63.729-114.516z" fill="#dec1c5"/><ellipse cx="252.25" cy="281.01" fill="#fff5f6" rx="248.5" ry="97.4"/><path d="m252.25 183.61c-6.733 0-13.402.109-20 .315 127.889 3.992 228.5 45.932 228.5 97.085s-100.611 93.093-228.5 97.085c6.598.206 13.267.315 20 .315 137.243 0 248.5-43.607 248.5-97.4s-111.257-97.4-248.5-97.4z" fill="#f7e9eb"/><g><path d="m252.25 330.928c99.215 0 184.839-22.791 224.675-55.743 11.214-9.276 11.213-26.556 0-35.832-39.836-32.952-125.46-55.743-224.675-55.743s-184.839 22.791-224.675 55.743c-11.213 9.276-11.213 26.556 0 35.832 39.836 32.952 125.46 55.743 224.675 55.743z" fill="#ebd5d8"/></g><g><path d="m466.605 282.821c-44.413-26.481-120.884-43.966-207.782-43.966-91.352 0-171.18 19.322-214.355 48.107 44.413 26.481 120.884 43.965 207.782 43.965 91.352.001 171.18-19.321 214.355-48.106z" fill="#ffe191"/><path d="m258.823 238.855c-6.735 0-13.398.118-19.997.324 78.55 2.454 146.809 19.213 187.779 43.642-39.992 26.663-111.442 45.194-194.358 47.784 6.601.206 13.266.324 20.003.324 91.352 0 171.18-19.322 214.355-48.107-44.413-26.482-120.884-43.967-207.782-43.967z" fill="#ffd463"/><path d="m192.741 272.458c-.523-4.109-4.292-7.02-8.387-6.492-22.854 2.911-44.261 7.123-63.624 12.52-3.99 1.112-6.323 5.248-5.211 9.238.924 3.316 3.938 5.488 7.221 5.488.666 0 1.344-.09 2.018-.277 18.666-5.202 39.354-9.27 61.491-12.089 4.109-.524 7.016-4.28 6.492-8.388z" fill="#ffc326"/></g></g><g fill="#f7e9eb"><path d="m185.779 86.794c4.112-3.728 9.744-8.834 9.744-18.759 0-4.142-3.357-7.5-7.5-7.5s-7.5 3.358-7.5 7.5c0 3.023-1.177 4.345-4.818 7.646-4.112 3.728-9.744 8.834-9.744 18.759 0 9.926 5.632 15.032 9.743 18.76 3.642 3.302 4.819 4.624 4.819 7.648s-1.178 4.346-4.819 7.648c-4.111 3.729-9.743 8.835-9.743 18.761 0 4.142 3.357 7.5 7.5 7.5s7.5-3.358 7.5-7.5c0-3.024 1.178-4.346 4.819-7.648 4.111-3.729 9.743-8.834 9.743-18.76s-5.632-15.032-9.743-18.76c-3.642-3.302-4.819-4.624-4.819-7.648s1.177-4.346 4.818-7.647z"/><path d="m328.796 102.087c-3.642-3.302-4.819-4.624-4.819-7.648 0-3.023 1.177-4.344 4.818-7.646 4.112-3.728 9.744-8.834 9.744-18.759 0-4.142-3.357-7.5-7.5-7.5s-7.5 3.358-7.5 7.5c0 3.023-1.177 4.345-4.818 7.646-4.112 3.728-9.744 8.834-9.744 18.759 0 9.926 5.632 15.032 9.743 18.76 3.642 3.302 4.819 4.624 4.819 7.648s-1.178 4.346-4.819 7.648c-4.111 3.729-9.743 8.835-9.743 18.761 0 4.142 3.357 7.5 7.5 7.5s7.5-3.358 7.5-7.5c0-3.024 1.178-4.346 4.819-7.648 4.111-3.729 9.743-8.834 9.743-18.76s-5.632-15.032-9.743-18.761z"/><path d="m257.287 26.259c4.112-3.728 9.744-8.834 9.744-18.759 0-4.142-3.357-7.5-7.5-7.5s-7.5 3.358-7.5 7.5c0 3.023-1.177 4.344-4.818 7.646-4.112 3.728-9.744 8.834-9.744 18.759 0 9.926 5.632 15.032 9.743 18.76 3.642 3.302 4.819 4.624 4.819 7.648s-1.178 4.346-4.819 7.648c-4.111 3.729-9.743 8.834-9.743 18.76 0 4.142 3.357 7.5 7.5 7.5s7.5-3.358 7.5-7.5c0-3.024 1.178-4.346 4.819-7.648 4.111-3.729 9.743-8.834 9.743-18.76s-5.632-15.032-9.743-18.76c-3.642-3.302-4.819-4.624-4.819-7.648s1.176-4.345 4.818-7.646z"/></g><g><path d="m369.325 227.886 127.892-154.375c5.591-6.781 4.435-16.905-2.683-22.232-6.667-4.989-16.162-3.531-21.46 2.893l-127.997 154.5c-9.248 11.163-22.919 16.047-37.01 19.451-20.039 4.84-46.359 15.67-65.332 38.675-16.603 20.13-25.402 43.143-25.855 63.14 9.966.557 20.12.881 30.431.96 0 0 21.939 1.436 55.966-2.031 13.459-1.101 26.517-2.629 39.081-4.546 10.501-19.041 14.014-39.292 14.805-55.832.701-14.696 2.776-29.274 12.162-40.603z" fill="#dbf2ff"/><path d="m303.276 328.867c2.016-2.017 3.984-4.17 5.878-6.466 18.156-22.013 22.858-48.12 10.502-58.311s-37.091-.607-55.247 21.406c-12.718 15.42-18.823 32.842-17.099 45.401 1.645.013 3.286.031 4.939.031 17.493 0 34.557-.714 51.027-2.061z" fill="#c2e7fc"/></g></g></svg>