<svg id="Layer_1" enable-background="new 0 0 512 512" height="512" viewBox="0 0 512 512" width="512" xmlns="http://www.w3.org/2000/svg"><g><circle cx="256" cy="256" fill="#eef5f6" r="256"/><path d="m256 0c-5.19 0-10.339.173-15.453.478 134.188 7.991 240.548 119.327 240.548 255.522s-106.36 247.531-240.547 255.522c5.113.305 10.262.478 15.452.478 141.385 0 256-114.615 256-256s-114.615-256-256-256z" fill="#deecf1"/><circle cx="256" cy="256" fill="#cbe5e8" r="176.161"/><ellipse cx="298.818" cy="109.261" fill="#fec165" rx="40.177" ry="37.602"/><ellipse cx="239.906" cy="92.778" fill="#ee6161" rx="40.177" ry="37.602"/><path d="m239.906 55.176c-5.477 0-10.695 1.029-15.453 2.886 14.518 5.667 24.724 19.074 24.724 34.715s-10.206 29.048-24.724 34.715c4.757 1.857 9.976 2.886 15.453 2.886 22.189 0 40.177-16.835 40.177-37.602 0-20.765-17.987-37.6-40.177-37.6z" fill="#e94444"/><path d="m325.158 166.759c-.214-14.615-5.712-28.566-8.7-42.874s-3.01-30.585 6.199-41.936c6.625-8.166 17.655-12.521 28.072-11.083 9.269 1.28 17.763 7.107 22.456 15.179.755 1.299 2.588 1.342 3.411.084 7.771-11.869 19.689-20.993 33.209-25.316 14.642-4.682 31.021-3.688 44.99 2.731 11.685 5.37 21.939 14.957 25.616 27.28 2.966 9.939.807 21.581-5.894 29.236-1.185 1.354-.076 3.442 1.715 3.275 6.121-.571 12.381.448 17.853 3.223 7.689 3.9 13.618 11.369 15.076 19.867 2.005 11.686-4.58 23.653-14.133 30.676s-21.583 9.821-33.387 10.936-23.727.717-35.496 2.155c-13.011 1.59-25.648 5.402-38.577 7.554s-26.617 2.553-38.727-2.463c-12.111-5.016-23.505-16.384-23.683-28.524z" fill="#97da7b"/><g><path d="m509.161 146.424c-1.458-8.497-7.386-15.967-15.076-19.867-5.471-2.775-11.732-3.794-17.853-3.223-1.791.167-2.9-1.921-1.715-3.275 6.701-7.655 8.86-19.297 5.894-29.236-3.678-12.322-13.932-21.91-25.616-27.28-12.724-5.847-27.444-7.177-41.034-3.831 3.788.926 7.489 2.202 11.034 3.831 11.685 5.37 21.939 14.957 25.616 27.28 1.256 4.209 1.593 8.724 1.055 13.111-1.15 9.382 3.92 18.305 12.388 22.506.077.038.154.077.231.116 7.689 3.9 13.618 11.369 15.076 19.867 2.005 11.686-4.58 23.653-14.133 30.676s-21.583 9.821-33.387 10.936-23.727.717-35.496 2.155c-13.011 1.59-25.648 5.402-38.577 7.554-.178.03-.358.055-.537.084 9.902 2.194 20.448 1.595 30.537-.084 12.93-2.152 25.567-5.964 38.577-7.554 11.769-1.439 23.692-1.04 35.496-2.155s23.833-3.914 33.387-10.936c9.553-7.022 16.138-18.989 14.133-30.675z" fill="#80d261"/></g><path d="m451.082 106.257c-3.257-2.409-6.941-4.27-10.812-5.552 2.07-1.347 4.162-2.656 6.275-3.925 3.551-2.132 4.701-6.74 2.568-10.291-2.132-3.552-6.739-4.7-10.291-2.569-5.024 3.017-9.935 6.251-14.725 9.671-1.967-6.651-5.985-12.313-11.754-16.209-3.433-2.319-8.095-1.416-10.413 2.017-2.318 3.432-1.416 8.094 2.017 10.413 4.356 2.942 6.699 8.174 6.518 14.31-7.021 5.857-13.708 12.14-20.009 18.793-2.844-9.724-9.393-17.445-18.534-20.716-3.903-1.396-8.193.634-9.589 4.535-1.396 3.9.635 8.193 4.534 9.588 7.508 2.687 11.476 12.032 9.771 22.557-9.441 11.956-17.7 24.803-24.514 38.282-1.869 3.696-.387 8.208 3.31 10.077 1.085.548 2.24.808 3.378.808 2.739 0 5.379-1.506 6.699-4.118 6.519-12.894 14.452-25.169 23.536-36.565 5.211-3.507 12.892-5.526 19.5-5.066 6.705.468 13.29 3.448 18.066 8.176 1.463 1.448 3.369 2.17 5.276 2.17 1.932 0 3.863-.742 5.33-2.224 2.914-2.944 2.89-7.693-.054-10.606-7.29-7.216-17.341-11.765-27.574-12.48-.783-.055-1.572-.084-2.364-.095 4.557-4.458 9.305-8.715 14.225-12.748 6.412-1.982 14.921-.454 20.707 3.826 1.342.993 2.905 1.471 4.455 1.471 2.297 0 4.564-1.052 6.035-3.04 2.465-3.33 1.762-8.027-1.567-10.49z" fill="#68ca44"/><path d="m248.283 116.269c-26.778-29.521-68.013-44.014-106.495-37.43s-73.096 34.053-89.394 70.944-13.809 82.132 6.43 116.842c26.649 45.705 77.849 68.71 113.642 107.048 19.905 21.32 35.035 47.413 56.949 66.477 42.169 36.683 107.008 40.436 154.234 11.186s74.831-88.422 70.451-145.455-39.313-109.826-87.65-137.037c-39.676-22.335-91.878-23.593-118.167-52.575z" fill="#ae6c6c"/><path d="m454.1 305.881c-4.38-57.033-39.313-109.826-87.65-137.037-39.676-22.335-91.878-23.593-118.167-52.575-26.033-28.7-65.73-43.19-103.277-37.924 27.295 3.715 53.445 17.059 72.372 37.924 26.289 28.982 78.491 30.24 118.167 52.575 48.337 27.211 83.27 80.004 87.65 137.037 4.38 57.034-23.225 116.206-70.451 145.456-16.498 10.218-35.147 16.395-54.226 18.561 29.297 3.329 59.756-2.844 85.132-18.561 47.225-29.25 74.83-88.422 70.45-145.456z" fill="#9b5e5e"/><g fill="#855151"><path d="m120.111 121.181c-4.085-.679-7.951 2.077-8.633 6.162l-20.743 124.171c-.683 4.085 2.076 7.951 6.162 8.633.418.07.834.104 1.244.104 3.599 0 6.776-2.598 7.389-6.265l20.743-124.171c.683-4.086-2.076-7.951-6.162-8.634z"/><path d="m168.634 102.522c-4.082-.68-7.95 2.077-8.633 6.162l-30.176 180.642c-.683 4.085 2.076 7.951 6.162 8.633.418.07.834.104 1.244.104 3.599 0 6.776-2.598 7.389-6.265l30.176-180.642c.683-4.086-2.076-7.951-6.162-8.634z"/><path d="m207.965 138.889c-4.079-.681-7.95 2.077-8.633 6.162l-28.778 172.274c-.683 4.085 2.076 7.951 6.162 8.633.418.07.834.104 1.244.104 3.599 0 6.776-2.598 7.389-6.265l28.778-172.274c.683-4.086-2.076-7.951-6.162-8.634z"/><path d="m249.842 160.011c-4.084-.681-7.95 2.077-8.633 6.162l-33.769 202.146c-.683 4.085 2.076 7.951 6.162 8.633.418.07.834.104 1.244.104 3.599 0 6.776-2.598 7.389-6.265l33.769-202.146c.683-4.086-2.076-7.951-6.162-8.634z"/><path d="m293.388 171.144c-4.087-.679-7.951 2.077-8.633 6.162l-38.786 232.186c-.683 4.085 2.076 7.951 6.162 8.633.418.07.834.104 1.244.104 3.599 0 6.776-2.598 7.389-6.265l38.786-232.186c.682-4.087-2.076-7.952-6.162-8.634z"/><path d="m334.782 191.846c-4.08-.627-7.921 2.185-8.548 6.279l-34.83 227.658c-.626 4.095 2.186 7.921 6.28 8.548.384.059.766.087 1.143.087 3.642 0 6.837-2.657 7.405-6.367l34.83-227.658c.626-4.094-2.185-7.921-6.28-8.547z"/><path d="m375.198 225.026c-4.079-.682-7.95 2.077-8.633 6.162l-28.39 169.946c-.683 4.085 2.076 7.951 6.162 8.633.418.07.834.104 1.244.104 3.599 0 6.776-2.598 7.389-6.265l28.39-169.946c.683-4.086-2.076-7.952-6.162-8.634z"/></g></g></svg>