<svg id="Layer_1" enable-background="new 0 0 497 497" height="512" viewBox="0 0 497 497" width="512" xmlns="http://www.w3.org/2000/svg"><g><g><g><g><path d="m108.119 60.487v170.128c0 27.372 51.327 49.561 114.643 49.561s114.643-22.189 114.643-49.561v-170.128z" fill="#58838a"/><path d="m297.404 60.487v170.128c0 24.422-40.863 44.718-94.643 48.808 6.495.494 13.177.753 20 .753 63.315 0 114.643-22.189 114.643-49.561v-170.128z" fill="#43747a"/><ellipse cx="222.762" cy="60.487" fill="#fff5f6" rx="114.643" ry="49.561"/><path d="m222.762 10.926c-6.823 0-13.505.259-20 .753 53.78 4.091 94.643 24.386 94.643 48.808s-40.863 44.718-94.643 48.808c6.495.494 13.177.753 20 .753 63.315 0 114.643-22.189 114.643-49.561s-51.328-49.561-114.643-49.561z" fill="#f7e9eb"/></g></g><g fill="#ffc326"><circle cx="182.45" cy="55.069" r="20.156"/><circle cx="222.762" cy="55.069" r="20.156"/><circle cx="263.074" cy="55.069" r="20.156"/><circle cx="242.918" cy="20.156" r="20.156"/><circle cx="202.606" cy="20.156" r="20.156"/></g></g><g><path d="m0 185.788v170.128c0 27.372 51.327 49.561 114.643 49.561s114.643-22.189 114.643-49.561v-170.128z" fill="#58838a"/><path d="m189.286 185.788v170.128c0 24.422-40.863 44.718-94.643 48.808 6.495.494 13.177.753 20 .753 63.315 0 114.643-22.189 114.643-49.561v-170.128z" fill="#43747a"/><ellipse cx="114.643" cy="185.788" fill="#fff5f6" rx="114.643" ry="49.561"/><path d="m114.643 136.227c-6.823 0-13.505.259-20 .753 53.78 4.091 94.643 24.386 94.643 48.808s-40.863 44.718-94.643 48.808c6.495.494 13.177.753 20 .753 63.315 0 114.643-22.189 114.643-49.561s-51.328-49.561-114.643-49.561z" fill="#f7e9eb"/><path d="m114.643 204.964c-10.584 0-55.765-1.25-53.95-19.176 1.804-17.818 42.426-19.176 53.95-19.176 10.584 0 55.765 1.25 53.95 19.176-1.805 17.818-42.426 19.176-53.95 19.176z" fill="#fc4378"/></g><g><g><path d="m267.714 277.311v170.128c0 27.372 51.327 49.561 114.643 49.561s114.643-22.189 114.643-49.561v-170.128z" fill="#58838a"/><path d="m457 277.311v170.128c0 24.422-40.863 44.718-94.643 48.808 6.495.494 13.177.753 20 .753 63.316 0 114.643-22.189 114.643-49.561v-170.128z" fill="#43747a"/><ellipse cx="382.357" cy="277.311" fill="#fff5f6" rx="114.643" ry="49.561"/><path d="m382.357 227.75c-6.823 0-13.505.259-20 .753 53.78 4.091 94.643 24.386 94.643 48.808s-40.863 44.718-94.643 48.808c6.495.494 13.177.753 20 .753 63.315 0 114.643-22.189 114.643-49.561s-51.327-49.561-114.643-49.561z" fill="#f7e9eb"/><g><path d="m395.797 260.077-48.781-.236c-15.026-.05-23.008 17.724-12.989 28.922l.211.236c3.292 3.679 7.995 5.782 12.931 5.782h48.57c9.583 0 17.352-7.769 17.352-17.352 0-9.561-7.733-17.32-17.294-17.352z" fill="#6bf28c"/><path d="m379.923 272.455c0-29.58 40.744-14.274 50.393-5.148 7.062 6.679 6.318 15.61-1.858 21.928-9.23 7.132-48.534 22.272-48.534-7.336v-9.444z" fill="#fc4378"/></g></g><g fill="#3a666d"><path d="m31.768 249.436c-4.142 0-7.5 3.358-7.5 7.5v56.518c0 4.142 3.358 7.5 7.5 7.5s7.5-3.358 7.5-7.5v-56.518c0-4.142-3.358-7.5-7.5-7.5z"/><path d="m299.482 340.958c-4.143 0-7.5 3.358-7.5 7.5v56.518c0 4.142 3.357 7.5 7.5 7.5s7.5-3.358 7.5-7.5v-56.518c0-4.142-3.357-7.5-7.5-7.5z"/></g></g></g></svg>