<?xml version="1.0" encoding="iso-8859-1"?>
<!-- Generator: Adobe Illustrator 19.0.0, SVG Export Plug-In . SVG Version: 6.00 Build 0)  -->
<svg version="1.1" id="Capa_1" xmlns="http://www.w3.org/2000/svg" xmlns:xlink="http://www.w3.org/1999/xlink" x="0px" y="0px"
	 viewBox="0 0 512 512" style="enable-background:new 0 0 512 512;" xml:space="preserve">
<path style="fill:#F7931E;" d="M198.966,138.931c-29.08,0-56.729,6.099-81.684,17.046c0,0-0.001,0-0.001,0.001
	c-0.811,0.356-1.614,0.723-2.418,1.088l-10.855,5.814C39.854,197.243,0,262.945,0,334.347v17.531c0,30.421,25.332,55.17,56.47,55.17
	h322.892c10.836,0,19.652-8.816,19.652-19.652v-53.049C399.012,226.595,309.273,138.931,198.966,138.931z"/>
<path style="fill:#E0770E;" d="M41.206,296.233c0,16.661,5.325,32.411,15.401,45.547l0.323,0.421l0.339,0.341l0.233,0.38l0.34,0.421
	c6.587,8.129,14.652,14.666,23.97,19.429l12.005,6.138l17.494,3.921l42.6-137.248l-10.025-10.025l-13.252-2.637
	c-4.845-0.964-9.778-1.453-14.664-1.453C74.745,221.47,41.206,255.009,41.206,296.233z"/>
<path style="fill:#7AAB02;" d="M46.405,364.768c-13.932,0-25.265-11.334-25.265-25.265c0-8.508,4.215-16.343,11.298-21.048
	c-1.34-3.138-2.017-6.463-2.017-9.888c0-13.342,10.441-24.411,23.77-25.199l7.188-0.425l1.393,7.064
	c1.768,8.958,5.134,17.4,10.008,25.093l3.849,6.075l-5.492,4.642c-6.213,5.252-9.777,12.872-9.777,20.907
	c0,1.982,0.21,3.952,0.626,5.851l1.268,5.806l-5.104,3.043c-0.597,0.356-1.238,0.785-2.018,1.35l-2.281,1.653l-2.779-0.086
	C49.538,364.624,47.971,364.768,46.405,364.768z"/>
<g>
	<path style="fill:#5F8E03;" d="M62.77,290.006l-1.393-7.064l-7.188,0.425c-4.602,0.272-8.859,1.771-12.461,4.164
		c-0.333,2.856-0.523,5.756-0.523,8.701c0,16.661,5.325,32.411,15.401,45.547l0.323,0.421l0.339,0.341l0.233,0.38l0.34,0.421
		c1.129,1.393,2.317,2.722,3.532,4.021c-0.005-0.215-0.018-0.428-0.018-0.642c0-8.035,3.564-15.656,9.777-20.907l5.492-4.642
		l-3.849-6.075C67.905,307.406,64.538,298.964,62.77,290.006z"/>
	<path style="fill:#5F8E03;" d="M52.193,404.995c-4.837-5.049-7.956-11.604-8.325-18.588c-0.665-12.553,6.901-23.866,18.506-28.138
		c0.193-0.071,0.285-0.283,0.204-0.472c-1.494-3.509-2.251-7.232-2.251-11.076c0-8.028,3.445-15.728,9.453-21.127l5.734-5.152
		c0.147-0.133,0.374-0.123,0.51,0.022l5.28,5.615c7.434,7.905,16.327,13.951,26.433,17.971l4.972,1.977
		c0.139,0.056,0.23,0.19,0.23,0.339v5.511c0,14.523-5.747,28.238-16.183,38.62C86.4,400.801,72.583,406.667,57.85,407.016
		l-3.475,0.082c-0.102,0.002-0.201-0.038-0.272-0.112L52.193,404.995z"/>
</g>
<path style="fill:#7AAB02;" d="M329.702,140.301l-5.744-12.076c-5.846-12.289-18.455-20.23-32.122-20.23
	c-8.507,0-16.711,3.044-23.159,8.58c-6.743-7.426-16.313-11.673-26.339-11.673c-11.688,0-22.583,5.715-29.244,15.314
	c-5.49-3.274-11.769-5.001-18.192-5.001c-15.396,0-28.893,9.742-33.748,24.3c-3.434-1.07-6.996-1.613-10.595-1.613
	c-19.617,0-35.577,15.96-35.577,35.577c0,9.965,4.23,19.542,11.604,26.275l2.488,2.272l37.22,41.549l182.422-82.269L329.702,140.301
	z"/>
<path style="fill:#5F8E03;" d="M185.45,202.025l-2.488-2.272c-7.374-6.734-11.604-16.311-11.604-26.275
	c0-19.617,15.96-35.577,35.577-35.577c3.599,0,7.161,0.542,10.595,1.613c4.855-14.558,18.352-24.3,33.748-24.3
	c6.422,0,12.7,1.727,18.192,5.001c3.01-4.338,6.891-7.872,11.314-10.456c-4.409,1.443-8.529,3.743-12.107,6.815
	c-6.743-7.426-16.313-11.673-26.339-11.673c-11.688,0-22.583,5.715-29.244,15.314c-5.49-3.274-11.769-5.001-18.192-5.001
	c-15.396,0-28.893,9.742-33.748,24.3c-3.434-1.07-6.996-1.613-10.595-1.613c-19.617,0-35.577,15.96-35.577,35.577
	c0,9.965,4.23,19.542,11.604,26.275l2.488,2.272l37.221,41.549l40.155-18.109L185.45,202.025z"/>
<path style="fill:#E23B3B;" d="M163.005,204.894l-13.252-2.637c-4.845-0.964-9.778-1.453-14.664-1.453
	c-41.225,0-74.763,33.538-74.763,74.763c0,16.661,5.325,32.411,15.401,45.547l0.323,0.421l0.339,0.341l0.233,0.381l0.34,0.421
	c6.587,8.129,14.652,14.666,23.97,19.429l12.005,6.138l17.494,3.921l42.6-137.248L163.005,204.894z"/>
<path style="fill:#537206;" d="M112.938,351.878v-5.511c0-0.15-0.092-0.284-0.23-0.339l-4.972-1.977
	c-10.106-4.019-18.999-10.066-26.433-17.971l-5.28-5.615c-0.136-0.144-0.363-0.154-0.51-0.022l-5.734,5.152
	c-5.894,5.295-9.313,12.808-9.441,20.671c6.093,6.784,13.301,12.328,21.474,16.507l12.005,6.138l15.115,3.388
	C111.555,365.88,112.938,358.977,112.938,351.878z"/>
<path style="fill:#BF1616;" d="M137.267,330.144l30.769-99.134c-7.07-3.535-15.041-5.536-23.484-5.536
	c-29.046,0-52.592,23.546-52.592,52.592C91.96,304.638,111.671,326.594,137.267,330.144z"/>
<path style="fill:#FCC062;" d="M76.129,407.048l16.898-14.508c11.999-10.303,18.881-25.123,18.881-40.662v-17.531
	c0-107.753,89.741-195.416,200.047-195.416S512,226.594,512,334.347v53.049c0,10.836-8.816,19.652-19.652,19.652H76.129z"/>
<path style="fill:#F9B52B;" d="M165.776,351.878v-17.531c0-98.831,75.499-180.748,173.113-193.638
	c-8.813-1.164-17.801-1.778-26.934-1.778c-110.306,0-200.047,87.663-200.047,195.416v17.531c0,15.538-6.881,30.359-18.881,40.662
	l-16.898,14.508h53.869l16.898-14.508C158.894,382.237,165.776,367.417,165.776,351.878z"/>
<g>
	<circle style="fill:#F7931E;" cx="220.681" cy="240.501" r="12.89"/>
	<circle style="fill:#F7931E;" cx="324.834" cy="240.501" r="12.89"/>
	<circle style="fill:#F7931E;" cx="374.332" cy="293.103" r="12.89"/>
	<circle style="fill:#F7931E;" cx="275.335" cy="293.103" r="12.89"/>
	<circle style="fill:#F7931E;" cx="411.456" cy="240.501" r="12.89"/>
	<circle style="fill:#F7931E;" cx="220.681" cy="340.539" r="12.89"/>
	<circle style="fill:#F7931E;" cx="324.834" cy="340.539" r="12.89"/>
	<circle style="fill:#F7931E;" cx="411.456" cy="340.539" r="12.89"/>
</g>
<path style="fill:#FCC062;" d="M117.284,155.978h-0.002H117.284z"/>
<g>
</g>
<g>
</g>
<g>
</g>
<g>
</g>
<g>
</g>
<g>
</g>
<g>
</g>
<g>
</g>
<g>
</g>
<g>
</g>
<g>
</g>
<g>
</g>
<g>
</g>
<g>
</g>
<g>
</g>
</svg>
