<svg id="Layer_1" enable-background="new 0 0 512 512" height="512" viewBox="0 0 512 512" width="512" xmlns="http://www.w3.org/2000/svg"><g><path d="m495.991 256c0-7.185 4.424-13.326 10.695-15.87 3.475-1.409 5.628-4.944 5.275-8.677-11.596-122.412-109.003-219.817-231.418-231.411-3.733-.354-7.267 1.799-8.676 5.273-2.544 6.27-8.685 10.693-15.869 10.693-7.185 0-13.326-4.424-15.87-10.695-1.409-3.475-4.944-5.628-8.677-5.275-122.412 11.595-219.817 109.003-231.411 231.417-.354 3.733 1.799 7.267 5.273 8.676 6.27 2.544 10.692 8.684 10.692 15.869 0 7.184-4.423 13.325-10.692 15.869-3.474 1.41-5.627 4.944-5.273 8.676 11.594 122.415 108.999 219.822 231.411 231.417 3.733.354 7.268-1.8 8.677-5.275 2.543-6.271 8.685-10.695 15.87-10.695 7.184 0 13.325 4.423 15.869 10.693 1.41 3.474 4.944 5.627 8.676 5.273 122.414-11.594 219.822-108.999 231.417-231.411.354-3.733-1.8-7.268-5.275-8.677-6.271-2.544-10.694-8.685-10.694-15.87z" fill="#ffd597"/><path d="m506.686 271.87c-6.271-2.543-10.695-8.685-10.695-15.87s4.424-13.326 10.695-15.87c3.475-1.41 5.628-4.944 5.275-8.677-11.596-122.412-109.003-219.817-231.418-231.411-2.438-.231-4.787.613-6.519 2.19 114.315 18.591 203.322 112.547 214.374 229.222.354 3.733-1.8 7.267-5.275 8.677-6.271 2.544-10.695 8.685-10.695 15.87s4.424 13.326 10.695 15.87c3.475 1.409 5.628 4.944 5.275 8.677-11.052 116.675-100.059 210.631-214.374 229.222 1.732 1.578 4.081 2.421 6.519 2.19 122.415-11.596 219.822-109 231.417-231.413.354-3.733-1.8-7.268-5.274-8.677z" fill="#fcc16d"/><g><path d="m315.731 91.332v-46.211c0-1.92-1.279-3.618-3.133-4.116-9.738-2.612-19.735-4.587-29.949-5.872-5.089-.64-9.584 3.348-9.584 8.477v47.722c0 2.356 1.91 4.267 4.267 4.267h34.133c2.356-.001 4.266-1.911 4.266-4.267z" fill="#fcc16d"/><path d="m392.53 91.332v-8.265c0-1.326-.61-2.583-1.661-3.391-10.859-8.341-22.506-15.707-34.807-21.974-2.834-1.444-6.198.634-6.198 3.814v29.816c0 2.356 1.91 4.267 4.267 4.267h34.133c2.356-.001 4.266-1.911 4.266-4.267z" fill="#fcc16d"/><g><path d="m314.586 162.507c.711-.762 1.145-1.785 1.145-2.909v-25.6c0-2.356-1.91-4.267-4.267-4.267h-34.133c-2.356 0-4.267 1.91-4.267 4.267v25.6 4.652h39.722z" fill="#fcc16d"/></g><g fill="#fcc16d"><g><path d="m392.53 159.598v-25.6c0-2.356-1.91-4.267-4.267-4.267h-34.133c-2.356 0-4.267 1.91-4.267 4.267v25.6c0 2.357 1.91 4.267 4.267 4.267h34.133c2.357 0 4.267-1.91 4.267-4.267z"/><path d="m349.864 238.934h38.4c2.356 0 4.267-1.91 4.267-4.267v-32.402c0-2.356-1.91-4.267-4.267-4.267h-34.133c-2.356 0-4.267 1.91-4.267 4.267v15.401z"/></g><g><path d="m467.308 197.998h-36.378c-2.356 0-4.267 1.91-4.267 4.267v32.402c0 2.356 1.91 4.267 4.267 4.267h37.456c5.124 0 9.118-4.486 8.479-9.57-1.208-9.604-3.04-19.012-5.427-28.197-.487-1.873-2.195-3.169-4.13-3.169z"/><path d="m455.18 157.706c-4.523-9.073-9.64-17.797-15.305-26.119-.793-1.165-2.121-1.856-3.531-1.856h-5.414c-2.356 0-4.267 1.91-4.267 4.267v25.6c0 2.357 1.91 4.267 4.267 4.267h20.418c3.162 0 5.243-3.329 3.832-6.159z"/></g></g></g><g><path d="m315.731 420.668v46.211c0 1.92-1.279 3.618-3.133 4.116-9.738 2.612-19.735 4.587-29.949 5.872-5.089.64-9.584-3.348-9.584-8.477v-47.722c0-2.357 1.91-4.267 4.267-4.267h34.133c2.356.001 4.266 1.911 4.266 4.267z" fill="#fcc16d"/><path d="m392.53 420.668v8.265c0 1.326-.61 2.583-1.661 3.391-10.859 8.341-22.506 15.707-34.807 21.974-2.834 1.444-6.198-.634-6.198-3.815v-29.816c0-2.357 1.91-4.267 4.267-4.267h34.133c2.356.002 4.266 1.912 4.266 4.268z" fill="#fcc16d"/><g><path d="m315.731 352.402v25.6c0 2.356-1.91 4.267-4.267 4.267h-34.133c-2.356 0-4.267-1.91-4.267-4.267v-25.6c0-2.357 1.91-4.267 4.267-4.267h34.133c2.357 0 4.267 1.911 4.267 4.267z" fill="#fcc16d"/></g><g fill="#fcc16d"><g><path d="m392.53 352.402v25.6c0 2.356-1.91 4.267-4.267 4.267h-34.133c-2.356 0-4.267-1.91-4.267-4.267v-25.6c0-2.357 1.91-4.267 4.267-4.267h34.133c2.357 0 4.267 1.911 4.267 4.267z"/><path d="m366.93 273.066h21.334c2.356 0 4.267 1.91 4.267 4.267v32.402c0 2.356-1.91 4.267-4.267 4.267h-34.133c-2.356 0-4.267-1.91-4.267-4.267v-1.272z"/></g><g><path d="m467.308 314.002h-36.378c-2.356 0-4.267-1.91-4.267-4.267v-32.402c0-2.356 1.91-4.267 4.267-4.267h37.456c5.124 0 9.118 4.486 8.479 9.57-1.208 9.604-3.04 19.012-5.427 28.197-.487 1.873-2.195 3.169-4.13 3.169z"/><path d="m455.18 354.294c-4.523 9.073-9.64 17.797-15.305 26.119-.793 1.165-2.121 1.856-3.531 1.856h-5.414c-2.356 0-4.267-1.91-4.267-4.267v-25.6c0-2.357 1.91-4.267 4.267-4.267h20.418c3.162 0 5.243 3.329 3.832 6.159z"/></g></g></g><g><path d="m196.265 91.332v-46.211c0-1.92 1.279-3.618 3.133-4.116 9.738-2.612 19.735-4.587 29.949-5.872 5.089-.64 9.584 3.348 9.584 8.477v47.722c0 2.356-1.91 4.267-4.267 4.267h-34.133c-2.356-.001-4.266-1.911-4.266-4.267z" fill="#fcc16d"/><path d="m119.466 91.332v-8.265c0-1.326.61-2.583 1.661-3.391 10.859-8.341 22.506-15.707 34.807-21.974 2.834-1.444 6.198.634 6.198 3.814v29.816c0 2.356-1.91 4.267-4.267 4.267h-34.133c-2.356-.001-4.266-1.911-4.266-4.267z" fill="#fcc16d"/><g><path d="m196.265 159.598v-25.6c0-2.356 1.91-4.267 4.267-4.267h34.133c2.356 0 4.267 1.91 4.267 4.267v25.6c0 2.357-1.91 4.267-4.267 4.267h-34.133c-2.357 0-4.267-1.91-4.267-4.267z" fill="#fcc16d"/></g><g fill="#fcc16d"><g><path d="m119.466 159.598v-25.6c0-2.356 1.91-4.267 4.267-4.267h34.133c2.356 0 4.267 1.91 4.267 4.267v25.6c0 2.357-1.91 4.267-4.267 4.267h-34.133c-2.357 0-4.267-1.91-4.267-4.267z"/><path d="m158.45 238.894c-.191.026-.387.04-.585.04h-34.133c-2.356 0-4.267-1.91-4.267-4.267v-32.402c0-2.356 1.91-4.267 4.267-4.267h34.133c2.356 0 4.267 1.91 4.267 4.267v32.255 4.415z"/></g><g><path d="m44.688 197.998h36.378c2.356 0 4.267 1.91 4.267 4.267v32.402c0 2.356-1.91 4.267-4.267 4.267h-37.456c-5.124 0-9.118-4.486-8.479-9.57 1.208-9.604 3.041-19.012 5.427-28.197.487-1.873 2.195-3.169 4.13-3.169z"/><path d="m56.816 157.706c4.523-9.073 9.64-17.797 15.305-26.119.793-1.165 2.121-1.856 3.53-1.856h5.414c2.356 0 4.267 1.91 4.267 4.267v25.6c0 2.357-1.91 4.267-4.267 4.267h-20.417c-3.162 0-5.243-3.329-3.832-6.159z"/></g></g></g><g><path d="m196.265 420.668v46.211c0 1.92 1.279 3.618 3.133 4.116 9.738 2.612 19.735 4.587 29.949 5.872 5.089.64 9.584-3.348 9.584-8.477v-47.722c0-2.357-1.91-4.267-4.267-4.267h-34.133c-2.356.001-4.266 1.911-4.266 4.267z" fill="#fcc16d"/><path d="m119.466 420.668v8.265c0 1.326.61 2.583 1.661 3.391 10.859 8.341 22.506 15.707 34.807 21.974 2.834 1.444 6.198-.634 6.198-3.815v-29.816c0-2.357-1.91-4.267-4.267-4.267h-34.133c-2.356.002-4.266 1.912-4.266 4.268z" fill="#fcc16d"/><g><path d="m238.931 353.095v24.907c0 2.356-1.91 4.267-4.267 4.267h-34.133c-2.356 0-4.267-1.91-4.267-4.267v-25.6c0-2.357 1.91-4.267 4.267-4.267h12.456z" fill="#fcc16d"/></g><g fill="#fcc16d"><g><path d="m119.466 352.402v25.6c0 2.356 1.91 4.267 4.267 4.267h34.133c2.356 0 4.267-1.91 4.267-4.267v-25.6c0-2.357-1.91-4.267-4.267-4.267h-34.133c-2.357 0-4.267 1.911-4.267 4.267z"/><path d="m147.958 273.066h-24.225c-2.356 0-4.267 1.91-4.267 4.267v32.402c0 2.356 1.91 4.267 4.267 4.267h34.133c2.356 0 4.267-1.91 4.267-4.267v-20.41z"/></g><g><path d="m44.688 314.002h36.378c2.356 0 4.267-1.91 4.267-4.267v-32.402c0-2.356-1.91-4.267-4.267-4.267h-37.456c-5.124 0-9.118 4.486-8.479 9.57 1.208 9.604 3.041 19.012 5.427 28.197.487 1.873 2.195 3.169 4.13 3.169z"/><path d="m56.816 354.294c4.523 9.073 9.64 17.797 15.305 26.119.793 1.165 2.121 1.856 3.53 1.856h5.414c2.356 0 4.267-1.91 4.267-4.267v-25.6c0-2.357-1.91-4.267-4.267-4.267h-20.417c-3.162 0-5.243 3.329-3.832 6.159z"/></g></g></g><path d="m212.804 169.963c13.724 3.431 28.181 2.45 41.316-2.804l16.097-6.439c29.041-11.616 61.869 3.61 71.76 33.282l16.086 48.257c1.075 3.226 2.378 6.372 3.899 9.413 15.459 30.918-7.024 67.296-41.591 67.296h-12.723c-12.7 0-24.879 5.045-33.859 14.025l-8.778 8.778c-23.225 23.225-62.631 15.137-74.829-15.359-6.62-16.55-18.103-30.702-32.934-40.589-15.405-10.27-16.372-32.556-1.915-44.122 9.756-7.805 14.758-20.117 13.208-32.515-3.125-24.995 19.826-45.332 44.263-39.223z" fill="#ffac52"/><path d="m292.956 267.314-25.644 25.644c-6.248 6.248-16.379 6.248-22.627 0l-25.644-25.644c-6.248-6.248-6.248-16.379 0-22.627l25.644-25.644c6.248-6.248 16.379-6.248 22.627 0l25.644 25.644c6.248 6.248 6.248 16.378 0 22.627z" fill="#ffe07d"/><g><path d="m361.961 251.673c-1.521-3.041-2.824-6.187-3.899-9.413l-16.086-48.257c-8.956-26.87-36.723-41.892-63.452-35.864 17.939 4.016 33.477 17.019 39.758 35.864l16.086 48.257c1.075 3.226 2.378 6.371 3.899 9.413 15.459 30.918-7.024 67.296-41.591 67.296h-12.723c-12.7 0-24.879 5.045-33.859 14.025l-8.778 8.778c-5.986 5.986-13.051 9.876-20.444 11.855 14.949 3.971 31.819.464 44.138-11.855l8.778-8.778c8.98-8.98 21.159-14.025 33.859-14.025h12.723c34.568 0 57.05-36.378 41.591-67.296z" fill="#f29e4c"/></g><path d="m292.614 244.345-24.961-24.961c-6.437-6.437-16.873-6.437-23.31 0l-.246.246 24.715 24.715c6.437 6.437 6.437 16.874 0 23.31l-24.715 24.715.246.246c6.437 6.437 16.873 6.437 23.31 0l24.961-24.961c6.437-6.437 6.437-16.873 0-23.31z" fill="#ffd064"/></g></svg>