<?xml version="1.0" encoding="iso-8859-1"?>
<!-- Generator: Adobe Illustrator 19.0.0, SVG Export Plug-In . SVG Version: 6.00 Build 0)  -->
<svg version="1.1" id="Layer_1" xmlns="http://www.w3.org/2000/svg" xmlns:xlink="http://www.w3.org/1999/xlink" x="0px" y="0px"
	 viewBox="0 0 512 512" style="enable-background:new 0 0 512 512;" xml:space="preserve">
<path style="fill:#CBE979;" d="M256,0c64.504,0,101.608,51.883,132.414,150.069c15.762,50.234,44.138,105.931,44.138,185.379
	C432.552,432.956,353.507,512,256,512S79.448,432.954,79.448,335.448c0-79.448,28.376-135.145,44.138-185.379
	C154.392,51.883,191.496,0,256,0z"/>
<path style="fill:#FFF082;" d="M256,35.31c30.851,0,64.163,15.183,98.723,125.33c3.748,11.949,7.993,23.702,12.487,36.145
	c14.764,40.884,30.031,83.16,30.031,138.664c0,77.88-63.36,141.241-141.241,141.241s-141.241-63.361-141.241-141.241
	c0-55.502,15.267-97.78,30.031-138.664c4.493-12.442,8.737-24.195,12.487-36.145C191.837,50.494,225.149,35.31,256,35.31"/>
<path style="fill:#FFDC64;" d="M256,211.862c-57.225,0-97.103,65.132-97.103,123.586c0,53.543,43.561,97.103,97.103,97.103
	s97.103-43.561,97.103-97.103C353.103,276.994,313.225,211.862,256,211.862L256,211.862z"/>
<path style="fill:#C86E37;" d="M335.448,335.448c0,43.878-35.57,79.448-79.448,79.448s-79.448-35.571-79.448-79.448
	c0-52.966,35.57-105.931,79.448-105.931S335.448,282.483,335.448,335.448z"/>
<path style="fill:#D68F4A;" d="M295.837,320.013c-4.707,0-9.06-3.03-10.535-7.754c-3.905-12.504-10.457-23.914-17.543-30.513
	c-4.466-4.151-4.707-11.134-0.561-15.595c4.147-4.461,11.147-4.712,15.595-0.552c9.913,9.228,18.508,23.844,23.577,40.09
	c1.811,5.815-1.431,12.004-7.25,13.818C298.026,319.849,296.922,320.013,295.837,320.013z"/>
<path style="fill:#8CE16E;" d="M256,17.655c51.4,0,84.882,39.894,115.569,137.699c3.637,11.591,7.819,23.172,12.247,35.433
	c14.568,40.343,31.081,86.068,31.081,144.661c0,87.616-71.281,158.897-158.897,158.897S97.103,423.064,97.103,335.448
	c0-58.593,16.513-104.318,31.081-144.661c4.428-12.262,8.61-23.842,12.247-35.433C171.118,57.549,204.6,17.655,256,17.655 M256,0
	c-64.504,0-101.608,51.883-132.414,150.069C107.825,200.303,79.448,256,79.448,335.448C79.448,432.956,158.493,512,256,512
	s176.552-79.044,176.552-176.552c0-79.448-28.376-135.145-44.138-185.379C357.608,51.883,320.504,0,256,0L256,0z"/>
<path style="fill:#B45528;" d="M303.705,378.464c-4.022,0.736-8.162,1.122-12.395,1.122c-39.002,0-70.621-32.183-70.621-71.882
	c0-18.655,4.796-37.303,12.951-53.126c4.586-8.897-5.907-18.033-14.01-12.158c-2.425,1.759-4.842,3.736-7.23,5.884
	c-21.592,20.093-35.849,53.615-35.849,87.144c0,43.879,35.571,79.448,79.448,79.448c19.778,0,37.853-7.243,51.758-19.2
	c1.203-1.073,2.375-2.159,3.508-3.262C317.162,386.698,311.797,376.984,303.705,378.464z"/>
<g>
</g>
<g>
</g>
<g>
</g>
<g>
</g>
<g>
</g>
<g>
</g>
<g>
</g>
<g>
</g>
<g>
</g>
<g>
</g>
<g>
</g>
<g>
</g>
<g>
</g>
<g>
</g>
<g>
</g>
</svg>
