<svg id="Capa_1" enable-background="new 0 0 512 512" height="512" viewBox="0 0 512 512" width="512" xmlns="http://www.w3.org/2000/svg"><g><g><path d="m231.679 118.156c-1.405 0-2.826-.389-4.096-1.201-3.541-2.267-4.574-6.973-2.308-10.514 14.04-21.937 15.713-44.146 4.974-66.009-8.2-16.693-20.589-26.793-20.713-26.893-3.273-2.637-3.788-7.429-1.151-10.703 2.637-3.273 7.429-3.789 10.703-1.151.614.495 15.155 12.349 24.825 32.035 9.108 18.542 15.492 47.633-5.816 80.927-1.453 2.269-3.909 3.509-6.418 3.509z" fill="#d07d62"/></g><path d="m170.996 147.987c-20.541-49.625 2.834-65.843-14.794-98.126-.353-.646-.273-1.442.201-2.005s1.244-.778 1.941-.541c51.175 17.386 79.89 48.042 95.962 86.349l-27.857 31.956z" fill="#00d8a2"/><path d="m338.413 143.773c22.702-48.674.062-65.904 19.091-97.381.381-.63.336-1.429-.112-2.012-.449-.583-1.209-.832-1.916-.626-51.889 15.12-81.924 44.485-99.663 82.049l26.426 33.149z" fill="#00d8a2"/><path d="m102.573 170.543c-7.612-28.846-10.434-58.288-8.496-88.323.049-.761.576-1.407 1.312-1.608s1.518.089 1.947.719c24.19 35.56 77.973 3.056 111.927 39.809.434.47 1.087.672 1.71.529s1.124-.608 1.31-1.221c10.101-33.321 32.606-59.063 66.864-77.621.605-.328 1.345-.279 1.901.126s.83 1.093.704 1.77c-6.775 36.57 20.363 43.909 16.08 78.296-.098.791.339 1.551 1.072 1.863.733.313 1.584.101 2.087-.517 35.435-43.537 81.132-21.346 114.25-56.442.492-.522 1.249-.698 1.922-.448.672.25 1.129.879 1.161 1.596 2.017 46.259-12.174 97.546-32.632 150.777l-236.399 6.76z" fill="#6ce79a"/><path d="m93.845 114.325c.95 18.983 3.847 37.724 8.728 56.218l46.719 56.066 236.399-6.76c13.998-36.422 25.055-71.932 30-105.546-13.633.168-26.536 4.34-37.372 11.869-3.977 2.763-8.954 3.54-13.586 2.129-6.286-1.915-12.862-2.898-19.567-2.898-16.248 0-31.507 5.816-43.383 15.864-4.532 3.834-10.959 4.625-16.292 2.019-9.025-4.41-19.055-6.763-29.491-6.763-10.435 0-20.466 2.354-29.491 6.764-5.333 2.606-11.76 1.816-16.292-2.018-11.877-10.048-27.135-15.864-43.383-15.864-6.705 0-13.281.983-19.567 2.898-4.625 1.409-9.599.644-13.568-2.117-11.064-7.697-24.286-11.9-38.241-11.9-.541-.002-1.075.026-1.613.039z" fill="#00d8a2"/><circle cx="256" cy="460.074" fill="#6c5e69" r="51.926"/><path d="m254.176 408.179c-27.286.935-49.442 23.353-50.087 50.648-.191 8.101 1.489 15.785 4.615 22.673.006.004.011.007.017.011 16.85.113 32.331-5.836 44.4-15.784 1.68-1.385 4.08-1.385 5.76 0 12.068 9.948 27.549 15.897 44.4 15.784.006-.004.011-.007.017-.011 2.965-6.534 4.629-13.784 4.629-21.426-.001-29.284-24.241-52.906-53.751-51.895z" fill="#574d56"/><circle cx="209.193" cy="412.334" fill="#6c5e69" r="51.926"/><path d="m261.119 412.334c0-20.725-12.389-39.664-31.699-47.839-33.935-14.373-72.153 10.504-72.153 47.839 0 1.359.069 2.701.171 4.034 1.636.116 3.283.196 4.948.196 15.597 0 30.002-5.191 41.584-13.934 3.091-2.333 7.369-2.321 10.46.011 5.075 3.829 10.692 6.972 16.713 9.299 1.65.638 2.778 2.182 2.868 3.949.637 12.499 4.609 24.112 11.038 33.983 8.984-8.585 14.884-20.357 15.897-33.504h.001c.099-1.284.172-2.736.172-4.034z" fill="#574d56"/><circle cx="302.807" cy="412.334" fill="#6c5e69" r="51.926"/><path d="m302.807 360.408c-28.78 0-51.926 23.359-51.926 51.926 0 1.359.069 2.701.171 4.034 1.636.116 3.282.197 4.948.197 16.762 0 32.147-5.996 44.132-15.952 1.557-1.293 3.794-1.293 5.351 0 11.984 9.956 27.369 15.952 44.132 15.952 1.665 0 3.311-.08 4.948-.197.103-1.333.171-2.675.171-4.034-.001-28.802-23.361-51.926-51.927-51.926z" fill="#574d56"/><circle cx="162.386" cy="347.385" fill="#6c5e69" r="51.926"/><path d="m185.385 300.834c.001-.001.002-.003.003-.004-28.464-14.073-63.158.583-72.62 31.208 4.501.924 9.16 1.409 13.93 1.409 11.043 0 21.487-2.604 30.755-7.228 1.89-.943 4.148-.644 5.723.762 5.982 5.343 12.895 9.663 20.464 12.683 2.041.814 3.329 2.814 3.238 5.01-.037.899-.057 1.803-.057 2.711 0 13.908 4.14 26.861 11.232 37.719 10.006-9.465 16.259-22.858 16.259-37.719 0-19.852-11.331-37.839-28.927-46.551z" fill="#574d56"/><circle cx="349.614" cy="347.385" fill="#6c5e69" r="51.926"/><path d="m399.232 332.038c-9.312-30.141-43.598-45.444-72.451-31.286-.055.027-.113.05-.169.078.001.001.002.003.003.004-17.628 8.729-28.927 26.731-28.927 46.551 0 14.861 6.253 28.254 16.259 37.719 7.092-10.858 11.232-23.811 11.232-37.719 0-.76-.014-1.516-.04-2.27-.086-2.459 1.35-4.689 3.63-5.616 7.277-2.958 13.939-7.12 19.741-12.239 1.774-1.565 4.291-1.898 6.414-.855 9.174 4.508 19.485 7.042 30.379 7.042 4.769 0 9.428-.485 13.929-1.409z" fill="#574d56"/><circle cx="256" cy="347.385" fill="#6c5e69" r="51.926"/><path d="m307.832 344.364c-1.201-20.922-14.791-38.514-33.543-45.576.001-.002.001-.003.002-.005-5.654-2.129-11.977-3.323-18.291-3.323-6.33 0-12.62 1.19-18.291 3.323.001.002.001.003.002.005-18.751 7.063-32.341 24.654-33.543 45.576 1.662.12 3.333.202 5.025.202 16.461 0 31.59-5.787 43.477-15.425 1.934-1.568 4.726-1.568 6.659 0 11.887 9.639 27.016 15.425 43.477 15.425 1.692 0 3.364-.082 5.026-.202z" fill="#574d56"/><circle cx="126.698" cy="264.268" fill="#6c5e69" r="51.926"/><path d="m161.288 225.55c-.003.003-.005.005-.008.008-2.51-2.245-5.236-4.252-8.15-5.98.001-.001.001-.001.001-.002-28.511-16.908-65.521-2.99-75.808 28.607 5.783 1.573 11.859 2.428 18.134 2.428 8.158 0 15.987-1.426 23.258-4.033 2.118-.76 4.457-.382 6.246.984 3.904 2.98 8.133 5.554 12.624 7.659 2.724 1.277 4.228 4.221 3.661 7.175-.807 4.208-1.233 8.549-1.233 12.99 0 12.927 3.573 25.031 9.77 35.393 17.091-8.499 28.841-26.129 28.841-46.512 0-15.062-6.54-29.068-17.336-38.717z" fill="#574d56"/><circle cx="385.302" cy="264.268" fill="#6c5e69" r="51.926"/><path d="m400.965 214.758c-.058-.018-.116-.036-.173-.054-13.713-4.284-29.077-2.756-41.923 4.873 0 .001.001.001.001.002-2.913 1.728-5.63 3.745-8.141 5.989-.006-.006-.011-.012-.017-.017-27.335 24.438-21.444 68.844 11.504 85.23 6.197-10.362 9.77-22.467 9.77-35.393 0-4.752-.488-9.39-1.408-13.873-.5-2.433.761-4.9 3.024-5.924 4.978-2.254 9.646-5.076 13.914-8.394 1.481-1.151 3.443-1.471 5.203-.823 7.43 2.738 15.454 4.239 23.824 4.239 6.275 0 12.351-.855 18.134-2.428-5.17-15.878-17.78-28.389-33.712-33.427z" fill="#574d56"/><circle cx="209.193" cy="275.387" fill="#6c5e69" r="51.926"/><path d="m227.012 226.61c.002-.003.003-.005.005-.008-12.04-4.4-25.267-3.999-36.199.216-15.289 5.792-27.13 18.592-31.601 34.484 2.503.276 5.042.428 7.617.428 11.918 0 23.134-3.037 32.929-8.37 3.076-1.675 6.843-1.206 9.418 1.168 5.953 5.489 12.87 9.943 20.462 13.086 2.485 1.029 4.071 3.51 4.005 6.198-.013.523-.019 1.048-.019 1.574 0 13.908 4.14 26.861 11.232 37.719 28.693-27.142 17.415-73.608-17.849-86.495z" fill="#574d56"/><circle cx="302.807" cy="275.387" fill="#6c5e69" r="51.926"/><path d="m352.784 261.302c-4.47-15.893-16.312-28.692-31.601-34.484-12.141-4.518-24.781-4.391-36.2-.216.002.003.003.005.005.008-19.082 6.973-32.93 24.814-34.034 46.036 1.668.121 3.347.204 5.046.204 18.692 0 35.665-7.461 48.122-19.553 1.788-1.736 4.514-1.986 6.674-.743 10.13 5.833 21.864 9.177 34.37 9.177 2.576 0 5.115-.153 7.618-.429z" fill="#574d56"/><circle cx="95.458" cy="181.433" fill="#6c5e69" r="51.926"/><path d="m97.655 192.552c0 14.386 4.418 27.757 11.963 38.836 21.793-6.166 37.766-26.188 37.766-49.956 0-18.064-9.229-33.967-23.224-43.27-16.121 12.678-26.505 32.338-26.505 54.39z" fill="#574d56"/><circle cx="416.542" cy="181.433" fill="#6c5e69" r="51.926"/><path d="m364.616 181.433c0 23.767 15.974 43.79 37.766 49.955 7.545-11.08 11.962-24.451 11.962-38.836 0-22.052-10.384-41.712-26.505-54.389-13.994 9.303-23.223 25.206-23.223 43.27z" fill="#574d56"/><circle cx="166.834" cy="192.552" fill="#6c5e69" r="51.926"/><path d="m204.824 157.17c-11.18 12.293-18.003 28.615-18.003 46.501 0 11.749 2.953 22.818 8.142 32.518 14.314-9.246 23.797-25.329 23.797-43.637 0-13.675-5.295-26.108-13.936-35.382z" fill="#574d56"/><circle cx="345.166" cy="192.552" fill="#6c5e69" r="51.926"/><path d="m293.24 192.552c0 18.308 9.483 34.391 23.797 43.637 5.189-9.701 8.142-20.769 8.142-32.518 0-17.886-6.823-34.208-18.003-46.501-8.641 9.274-13.936 21.707-13.936 35.382z" fill="#574d56"/><circle cx="256" cy="203.671" fill="#6c5e69" r="51.926"/></g></svg>