<svg id="Capa_1" enable-background="new 0 0 512 512" height="512" viewBox="0 0 512 512" width="512" xmlns="http://www.w3.org/2000/svg"><g><g><g><g><path d="m316.984 245.594s-8.588-80.902 77.036-126.035c41.909-22.09 66.711-42.023 81.113-56.618 9.507-9.634 25.901-5.238 29.232 7.881 16.285 64.126 26.237 198.697-187.381 174.772z" fill="#a3e440"/></g><g><path d="m504.369 70.813c13.33 52.517 22.414 152.277-92.029 173.545 78.268-33.137 69.771-116.953 57.932-163.557-.88-3.492-2.699-6.372-5.061-8.52 3.758-3.313 7.043-6.431 9.915-9.337 9.509-9.631 25.911-5.232 29.243 7.869z" fill="#8dc637"/></g></g><path d="m486.397 146.686c-2.41-3.521-7.218-4.42-10.74-2.008-3.031 2.076-8.414 3.444-14.216 4.287 7.153-8.698 13.612-18.639 19.449-30.398 1.897-3.822.337-8.459-3.485-10.356-3.822-1.899-8.46-.337-10.356 3.485-11.291 22.745-24.998 37.953-42.475 50.813 1.292-4.921 2.304-10.291 2.641-15.782.261-4.26-2.98-7.924-7.239-8.185-4.25-.233-7.924 2.981-8.185 7.239-.802 13.088-6.539 25.969-8.823 30.637-8.651 4.979-18.054 9.89-28.331 15.119-48.002 24.425-63.581 48.953-64.22 49.985-2.238 3.613-1.128 8.336 2.472 10.596 1.271.798 2.686 1.178 4.087 1.178 2.565 0 5.078-1.276 6.553-3.596.034-.055 3.576-5.558 12.453-13.732 8.218-7.568 22.811-19.03 45.664-30.658 25.306-12.876 46.269-24.333 63.751-39.759 7.618-.01 28.23-.751 38.994-8.125 3.518-2.411 4.418-7.22 2.006-10.74z" fill="#82b732"/></g><g><g><g><g><circle cx="130.872" cy="325.35" fill="#3351c5" r="130.872"/><g fill="#2944ae"><path d="m261.748 325.348c0 9.706-1.052 19.157-3.062 28.257-2.254.117-4.518.17-6.793.17-72.289 0-130.875-58.597-130.875-130.875 0-9.695 1.052-19.157 3.062-28.257 2.254-.117 4.518-.17 6.793-.17 72.278 0 130.875 58.597 130.875 130.875z"/><path d="m261.741 325.352c0 72.281-58.596 130.877-130.862 130.877-13.808 0-27.107-2.129-39.589-6.109 64.258-5.307 114.739-59.152 114.739-124.768 0-65.632-50.481-119.46-114.739-124.768 12.481-3.98 25.78-6.11 39.589-6.11 72.266 0 130.862 58.596 130.862 130.878z"/></g></g></g><g><path d="m104.858 309.355c5.671-4.152 13.573.411 12.813 7.398-.94 8.642 3.827 16.898 11.781 20.405 6.431 2.836 6.431 11.96 0 14.796-7.955 3.507-12.721 11.763-11.781 20.405.76 6.987-7.142 11.549-12.813 7.398-7.015-5.135-16.548-5.135-23.562 0-5.671 4.152-13.573-.411-12.813-7.398.94-8.642-3.827-16.898-11.781-20.405-6.431-2.836-6.431-11.96 0-14.796 7.955-3.507 12.721-11.763 11.781-20.405-.76-6.987 7.142-11.549 12.813-7.398 7.015 5.135 16.547 5.135 23.562 0z" fill="#213993"/><path d="m134.279 344.561c0 2.987-1.605 5.974-4.826 7.388-7.282 3.21-11.896 10.407-11.896 18.232 0 .723.032 1.446.117 2.179.032.308.053.627.053.925 0 6.453-7.452 10.429-12.874 6.474-3.498-2.562-7.643-3.848-11.779-3.848-4.135 0-8.271 1.287-11.779 3.848-1.488 1.095-3.136 1.584-4.741 1.584-4.486 0-8.632-3.838-8.069-8.983.074-.723.117-1.446.117-2.158 0-1.85-.255-3.668-.755-5.411 2.126.436 4.316.659 6.559.659 17.966 0 32.53-14.564 32.53-32.53 0-7.888-2.806-15.128-7.473-20.762 1.892-.638 3.721-1.573 5.39-2.807 5.677-4.146 13.575.415 12.821 7.399-.085.733-.117 1.457-.117 2.179 0 7.824 4.614 15.021 11.896 18.232 3.221 1.415 4.826 4.402 4.826 7.4z" fill="#192d7b"/></g></g><g><g><g><circle cx="261.745" cy="186.647" fill="#6d81d5" r="130.872"/><path d="m392.613 186.649c0 72.281-58.596 130.877-130.862 130.877-13.808 0-27.107-2.129-39.589-6.109 64.258-5.307 114.739-59.152 114.739-124.768 0-65.631-50.481-119.46-114.739-124.768 12.481-3.98 25.78-6.11 39.589-6.11 72.266 0 130.862 58.596 130.862 130.878z" fill="#5169cd"/></g></g><g><path d="m288.898 173.964c5.671-4.152 13.573.411 12.813 7.398-.94 8.643 3.827 16.898 11.781 20.406 6.431 2.836 6.431 11.96 0 14.796-7.955 3.507-12.721 11.763-11.781 20.406.76 6.987-7.142 11.549-12.813 7.398-7.015-5.135-16.548-5.135-23.562 0-5.671 4.152-13.573-.411-12.813-7.398.94-8.643-3.827-16.898-11.781-20.406-6.431-2.836-6.431-11.96 0-14.796 7.955-3.507 12.721-11.763 11.781-20.406-.76-6.987 7.142-11.549 12.813-7.398 7.015 5.135 16.548 5.135 23.562 0z" fill="#3351c5"/><path d="m318.319 209.17c0 2.987-1.605 5.974-4.826 7.388-7.282 3.211-11.896 10.407-11.896 18.232 0 .723.032 1.446.117 2.179.032.308.053.627.053.925 0 6.453-7.452 10.429-12.874 6.474-3.498-2.562-7.643-3.848-11.779-3.848-4.135 0-8.271 1.287-11.779 3.848-1.488 1.095-3.136 1.584-4.741 1.584-4.486 0-8.632-3.838-8.069-8.983.074-.723.117-1.446.117-2.158 0-1.85-.255-3.668-.755-5.411 2.126.436 4.316.659 6.559.659 17.966 0 32.53-14.564 32.53-32.53 0-7.888-2.806-15.128-7.473-20.762 1.892-.638 3.721-1.573 5.39-2.807 5.677-4.146 13.575.415 12.821 7.399-.085.733-.117 1.457-.117 2.179 0 7.824 4.614 15.021 11.896 18.232 3.221 1.415 4.826 4.402 4.826 7.4z" fill="#2944ae"/></g></g><g><g><g><circle cx="362.461" cy="325.35" fill="#5169cd" r="130.872"/><path d="m493.329 325.352c0 72.281-58.596 130.877-130.862 130.877-13.808 0-27.107-2.129-39.589-6.109 64.258-5.307 114.739-59.152 114.739-124.768 0-65.632-50.481-119.46-114.739-124.768 12.481-3.98 25.78-6.11 39.589-6.11 72.266 0 130.862 58.596 130.862 130.878z" fill="#3351c5"/></g></g><g><path d="m411.07 242.379c5.671-4.152 13.573.411 12.813 7.398-.94 8.642 3.827 16.898 11.781 20.405 6.431 2.836 6.431 11.96 0 14.796-7.954 3.507-12.721 11.763-11.781 20.406.76 6.987-7.142 11.549-12.813 7.398-7.015-5.135-16.548-5.135-23.562 0-5.671 4.152-13.573-.411-12.813-7.398.94-8.643-3.827-16.898-11.781-20.406-6.431-2.836-6.431-11.96 0-14.796 7.955-3.507 12.721-11.763 11.781-20.405-.76-6.987 7.142-11.549 12.813-7.398 7.015 5.135 16.548 5.135 23.562 0z" fill="#213993"/><path d="m440.491 277.585c0 2.987-1.605 5.974-4.826 7.388-7.282 3.21-11.896 10.407-11.896 18.232 0 .723.032 1.446.117 2.179.032.308.053.627.053.925 0 6.453-7.452 10.429-12.874 6.474-3.498-2.562-7.643-3.848-11.779-3.848-4.135 0-8.271 1.287-11.779 3.848-1.488 1.095-3.136 1.584-4.741 1.584-4.486 0-8.632-3.838-8.069-8.983.074-.723.117-1.446.117-2.158 0-1.85-.255-3.668-.755-5.411 2.126.436 4.316.659 6.559.659 17.966 0 32.53-14.564 32.53-32.53 0-7.888-2.806-15.128-7.473-20.762 1.892-.638 3.721-1.573 5.39-2.807 5.677-4.146 13.575.415 12.821 7.399-.085.733-.117 1.457-.117 2.179 0 7.824 4.614 15.021 11.896 18.232 3.221 1.415 4.826 4.402 4.826 7.4z" fill="#192d7b"/></g></g></g></g></svg>