<svg id="Capa_1" enable-background="new 0 0 512 512" height="512" viewBox="0 0 512 512" width="512" xmlns="http://www.w3.org/2000/svg"><g><path d="m477.334 45.779c-.312-4.131-3.923-7.229-8.042-6.915-1.667.125-41.509 3.387-102.622 30.359-35.686 15.751-71.301 36.396-105.855 61.364-43.104 31.146-84.683 69.151-123.578 112.959-2.75 3.098-2.469 7.838.629 10.588 1.429 1.269 3.206 1.892 4.977 1.892 2.069 0 4.13-.852 5.611-2.521 25.265-28.456 50.263-52.788 74.352-73.582 10.112 21.069 23.992 56.528 28.653 99.796.414 3.845 3.666 6.697 7.448 6.697.268 0 .539-.015.812-.044 4.118-.443 7.097-4.142 6.653-8.261-5.156-47.86-21.057-86.611-31.749-108.172 11.737-9.699 23.227-18.557 34.391-26.645 29.777 18.079 79.828 53.434 110.625 102.112 1.428 2.256 3.859 3.491 6.345 3.491 1.371 0 2.759-.376 4.003-1.163 3.501-2.215 4.543-6.848 2.328-10.348-30.542-48.276-78.617-83.819-109.976-103.494 34.169-23.463 64.831-39.614 89.594-50.596 58.963-26.148 98.107-29.446 98.486-29.477 4.131-.309 7.227-3.91 6.915-8.04z" fill="#4fc123"/><path d="m115.674 125.863c-2.652-.926-5.634-.163-7.515 1.923-15.999 17.736-23.111 42.881-16.747 67.755 6.769 26.457 27.058 45.861 51.584 52.758 18.2-17.828 26.677-44.592 19.908-71.049-6.365-24.874-24.679-43.513-47.23-51.387z" fill="#80d261"/><path d="m150.159 240.176c-2.184 2.874-4.574 5.584-7.16 8.118-24.529-6.892-44.823-26.301-51.592-52.756-6.356-24.869.752-50.015 16.751-67.755 1.885-2.081 4.862-2.843 7.52-1.916 4.986 1.741 9.766 4.007 14.247 6.748-13.155 17.317-18.564 40.239-12.764 62.923 4.957 19.378 17.175 34.975 32.998 44.638z" fill="#68ca44"/><path d="m142.991 255.168c-3.345 0-6.394-2.254-7.261-5.643l-15.838-61.903c-1.027-4.014 1.394-8.099 5.406-9.125 4.016-1.03 8.098 1.395 9.125 5.406l15.838 61.903c1.027 4.014-1.394 8.099-5.406 9.125-.624.161-1.249.237-1.864.237z" fill="#4fc123"/><circle cx="96.822" cy="334.363" fill="#ee6161" r="96.822"/><path d="m103.91 430.925c-2.34.17-4.7.26-7.09.26-53.47 0-96.82-43.35-96.82-96.82 0-53.48 43.35-96.82 96.82-96.82 2.37 0 4.72.09 7.05.26-44.89 9.21-78.65 48.95-78.65 96.56 0 47.62 33.78 87.36 78.69 96.56z" fill="#e94444"/><circle cx="256.403" cy="376.336" fill="#ee6161" r="96.822"/><path d="m435.868 126.098c-1.611-2.301-4.476-3.425-7.222-2.832-23.347 5.042-43.814 21.288-53.188 45.192-9.97 25.425-4.847 53.027 11.024 72.957 25.187-3.83 47.708-20.593 57.677-46.017 9.374-23.904 5.406-49.732-8.291-69.3z" fill="#80d261"/><path d="m401.214 168.455c-8.921 22.746-5.769 47.234 6.367 66.416-6.645 3.204-13.763 5.429-21.098 6.542-15.875-19.924-20.995-47.533-11.023-72.957 9.375-23.9 29.834-40.146 53.188-45.194 2.74-.587 5.604.536 7.221 2.833.659.948 1.298 1.906 1.926 2.884-16.152 7.798-29.514 21.458-36.581 39.476z" fill="#68ca44"/><path d="m386.48 248.284c-.911 0-1.837-.167-2.736-.52-3.855-1.512-5.756-5.864-4.244-9.721l23.326-59.487c1.512-3.856 5.863-5.757 9.721-4.244 3.855 1.512 5.756 5.864 4.244 9.721l-23.326 59.487c-1.159 2.958-3.989 4.764-6.985 4.764z" fill="#4fc123"/><path d="m263.45 472.895c-2.33.17-4.68.26-7.05.26-53.47 0-96.82-43.35-96.82-96.82s43.35-96.82 96.82-96.82c2.39 0 4.75.09 7.09.26-44.91 9.2-78.68 48.93-78.68 96.56 0 47.61 33.75 87.35 78.64 96.56z" fill="#e94444"/><circle cx="415.178" cy="334.363" fill="#ee6161" r="96.822"/><path d="m422.26 430.925c-2.34.17-4.7.26-7.08.26-53.47 0-96.82-43.35-96.82-96.82 0-53.48 43.35-96.82 96.82-96.82 2.37 0 4.72.09 7.04.26-44.88 9.21-78.64 48.95-78.64 96.56 0 47.62 33.78 87.36 78.68 96.56z" fill="#e94444"/><g fill="#d83131"><path d="m84.657 300.832 6.083-6.083c2.929-2.93 2.929-7.678 0-10.607-2.93-2.928-7.678-2.928-10.607 0l-6.083 6.083-6.083-6.083c-2.93-2.928-7.678-2.928-10.607 0-2.929 2.93-2.929 7.678 0 10.607l6.083 6.083-6.083 6.083c-2.929 2.93-2.929 7.678 0 10.607 1.465 1.464 3.385 2.196 5.304 2.196s3.839-.732 5.304-2.196l6.083-6.083 6.083 6.083c1.465 1.464 3.385 2.196 5.304 2.196s3.839-.732 5.304-2.196c2.929-2.93 2.929-7.678 0-10.607z"/><path d="m463.461 312.217 6.083-6.083c2.929-2.93 2.929-7.678 0-10.607-2.93-2.928-7.678-2.928-10.607 0l-6.083 6.083-6.083-6.083c-2.93-2.928-7.678-2.928-10.607 0-2.929 2.93-2.929 7.678 0 10.607l6.083 6.083-6.083 6.083c-2.929 2.93-2.929 7.678 0 10.607 1.465 1.464 3.385 2.196 5.304 2.196s3.839-.732 5.304-2.196l6.083-6.083 6.083 6.083c1.465 1.464 3.385 2.196 5.304 2.196s3.839-.732 5.304-2.196c2.929-2.93 2.929-7.678 0-10.607z"/><path d="m284.479 396.53 6.083-6.083c2.929-2.93 2.929-7.678 0-10.607-2.93-2.928-7.678-2.928-10.607 0l-6.083 6.083-6.083-6.083c-2.93-2.928-7.678-2.928-10.607 0-2.929 2.93-2.929 7.678 0 10.607l6.083 6.083-6.083 6.083c-2.929 2.93-2.929 7.678 0 10.607 1.465 1.464 3.385 2.196 5.304 2.196s3.839-.732 5.304-2.196l6.083-6.083 6.083 6.083c1.465 1.464 3.385 2.196 5.304 2.196s3.839-.732 5.304-2.196c2.929-2.93 2.929-7.678 0-10.607z"/></g></g></svg>