<svg id="Capa_1" enable-background="new 0 0 512 512" height="512" viewBox="0 0 512 512" width="512" xmlns="http://www.w3.org/2000/svg"><g><path d="m247.211 96h-8.306l-20.604-7.211c0-49.037 39.752-88.576 88.789-88.576l21.699-.213c3.982 0 7.211 3.229 7.211 7.211 0 49.037-39.752 88.789-88.789 88.789z" fill="#a6db63"/><path d="m327.694 0h-30.906c-49.036 0-88.788 39.752-88.788 88.789v7.211h30.906v-7.211c0-49.037 39.752-88.789 88.788-88.789z" fill="#8dcb50"/><path d="m384 336c0 91.995-70.582 167.505-160.547 175.331-5.092.443-10.249-.185-15.453-.361-75.966-2.574-165.698-77.768-165.698-174.97s84.066-203.279 165.698-206.97c5.202-.235 10.361-.712 15.453-.096 89.965 10.897 160.547 115.071 160.547 207.066z" fill="#a6db63"/><path d="m62.906 336c0-91.995 70.582-196.168 160.547-207.065-5.092-.617-10.246-.935-15.453-.935-97.202 0-176 110.798-176 208s78.798 176 176 176c5.207 0 10.361-.227 15.453-.67-89.965-7.826-160.547-83.335-160.547-175.33z" fill="#8dcb50"/><path d="m480 350.667c0 89.102-71.634 161.333-160 161.333s-160-72.231-160-161.333 71.634-190.667 160-190.667 160 101.565 160 190.667z" fill="#bce87e"/><path d="m320 478.725c-57.475-3.295-117.453-56.879-117.453-128.058 0-36.565 14.912-77.207 39.888-108.717 14.714-18.563 45.33-46.559 77.565-48.674 5.26-.345 10.368-.544 15.28.344 34.384 6.215 59.713 32.088 72.588 48.33 24.976 31.51 39.888 72.152 39.888 108.717 0 65.896-49.118 120.418-112.303 128.149-5.067.62-10.224-.091-15.453-.091z" fill="#fff5c6"/><path d="m223.15 350.667c0-36.565 14.912-77.207 39.888-108.717 12.853-16.215 38.119-42.029 72.415-48.299-4.965-.908-10.12-1.406-15.453-1.406-42.172 0-73.154 31.142-87.867 49.705-24.976 31.51-39.888 72.152-39.888 108.717 0 71.18 57.311 129.089 127.755 129.089 5.229 0 10.386-.319 15.453-.939-63.185-7.732-112.303-62.255-112.303-128.15z" fill="#fef0ae"/><g><g><path d="m208 135.726c-4.267 0-7.726-3.459-7.726-7.726v-29.404c0-26.933-17.167-50.75-42.717-59.266-4.048-1.349-6.236-5.725-4.887-9.774s5.722-6.237 9.773-4.886c31.87 10.623 53.283 40.331 53.283 73.926v29.404c.001 4.268-3.459 7.726-7.726 7.726z" fill="#e7af93"/></g></g><g><g fill="#d79882"><path d="m327.896 258.935c-4.267 0-7.726-3.459-7.726-7.726 0-4.267 3.459-7.726 7.726-7.726 4.267 0 7.726 3.459 7.726 7.726 0 4.266-3.459 7.726-7.726 7.726z"/><path d="m273.962 283.18c-4.267 0-7.726-3.459-7.726-7.726 0-4.267 3.459-7.726 7.726-7.726 4.267 0 7.726 3.459 7.726 7.726.001 4.267-3.459 7.726-7.726 7.726z"/><path d="m246.408 340.62c-4.267 0-7.726-3.459-7.726-7.726 0-4.267 3.459-7.726 7.726-7.726 4.267 0 7.726 3.459 7.726 7.726.001 4.267-3.458 7.726-7.726 7.726z"/><path d="m258.199 397.956c-4.267 0-7.726-3.459-7.726-7.726 0-4.267 3.459-7.726 7.726-7.726 4.267 0 7.726 3.459 7.726 7.726 0 4.267-3.459 7.726-7.726 7.726z"/><path d="m311.015 429.3c-4.267 0-7.726-3.459-7.726-7.726 0-4.267 3.459-7.726 7.726-7.726 4.267 0 7.726 3.459 7.726 7.726.001 4.267-3.458 7.726-7.726 7.726z"/><path d="m282.444 420.108c-4.267 0-7.726-3.459-7.726-7.726 0-4.267 3.459-7.726 7.726-7.726 4.267 0 7.726 3.459 7.726 7.726.001 4.267-3.459 7.726-7.726 7.726z"/><path d="m367.304 411.496c-4.267 0-7.726-3.459-7.726-7.726 0-4.267 3.459-7.726 7.726-7.726 4.267 0 7.726 3.459 7.726 7.726 0 4.267-3.459 7.726-7.726 7.726z"/><path d="m392.608 355.483c-4.267 0-7.726-3.459-7.726-7.726 0-4.267 3.459-7.726 7.726-7.726 4.267 0 7.726 3.459 7.726 7.726 0 4.267-3.459 7.726-7.726 7.726z"/><path d="m372.842 295.303c-4.267 0-7.726-3.459-7.726-7.726 0-4.267 3.459-7.726 7.726-7.726 4.267 0 7.726 3.459 7.726 7.726 0 4.267-3.459 7.726-7.726 7.726z"/><path d="m297.622 263.726c-4.267 0-7.726-3.459-7.726-7.726 0-4.267 3.459-7.726 7.726-7.726 4.267 0 7.726 3.459 7.726 7.726.001 4.267-3.459 7.726-7.726 7.726z"/><path d="m256.682 309.51c-4.267 0-7.726-3.459-7.726-7.726 0-4.267 3.459-7.726 7.726-7.726 4.267 0 7.726 3.459 7.726 7.726 0 4.267-3.459 7.726-7.726 7.726z"/><path d="m246.408 370.191c-4.267 0-7.726-3.459-7.726-7.726 0-4.267 3.459-7.726 7.726-7.726 4.267 0 7.726 3.459 7.726 7.726.001 4.267-3.458 7.726-7.726 7.726z"/><path d="m343.058 425.62c-4.267 0-7.726-3.459-7.726-7.726 0-4.267 3.459-7.726 7.726-7.726 4.267 0 7.726 3.459 7.726 7.726.001 4.267-3.459 7.726-7.726 7.726z"/><path d="m386.601 385.066c-4.267 0-7.726-3.459-7.726-7.726 0-4.267 3.459-7.726 7.726-7.726 4.267 0 7.726 3.459 7.726 7.726 0 4.267-3.459 7.726-7.726 7.726z"/><path d="m387.544 325.9c-4.267 0-7.726-3.459-7.726-7.726 0-4.267 3.459-7.726 7.726-7.726 4.267 0 7.726 3.459 7.726 7.726.001 4.267-3.459 7.726-7.726 7.726z"/><path d="m355.181 274.457c-4.267 0-7.726-3.459-7.726-7.726 0-4.267 3.459-7.726 7.726-7.726 4.267 0 7.726 3.459 7.726 7.726 0 4.266-3.459 7.726-7.726 7.726z"/></g></g></g></svg>