<svg id="Capa_1" enable-background="new 0 0 497 497" height="512" viewBox="0 0 497 497" width="512" xmlns="http://www.w3.org/2000/svg"><g><path d="m317 0v360c99.411 0 180-80.589 180-180s-80.589-180-180-180z" fill="#379030"/><path d="m467 180c0-99.411-67.157-180-150-180-99.411 0-180 80.589-180 180s80.589 180 180 180c82.843 0 150-80.589 150-180z" fill="#58a83b"/><circle cx="180" cy="317" fill="#92d955" r="180"/><circle cx="180" cy="317" fill="#fff7d6" r="150"/><path d="m274.266 242.719c-9.621-12.24-21.306-22.192-34.258-29.653l-52.507 90.944c4.375 2.525 9.999 2.886 14.999 0l33.754 19.488 33.754-58.463c7.931-4.58 9.917-15.116 4.258-22.316z" fill="#92d955"/><path d="m252.849 230.354c-2.665-8.224-7.084-13.981-12.842-17.288-.08-.046-.159-.094-.239-.14-13.194-7.56-27.694-12.537-42.666-14.703-9.026-1.306-17.102 5.739-17.102 14.858l-33.748 58.453 33.748 19.485c0 5.774 3.125 10.465 7.5 12.991 1.944 1.122 5.137.079 8.748-3.61l48.748-49.807c5.727-5.851 9.421-15.401 7.853-20.239z" fill="#b9e871"/><path d="m162.804 198.223c-15.41 2.212-29.872 7.356-42.81 14.842l52.507 90.944c4.375-2.526 7.499-7.217 7.499-12.99v-77.951c0-9.158-8.131-16.146-17.196-14.845z" fill="#92d955"/><path d="m141.387 210.588c-8.455-1.804-15.65-.856-21.393 2.477-.08.046-.161.091-.241.137-13.144 7.646-24.704 17.715-34.066 29.599-5.644 7.164-3.581 17.68 4.317 22.24l33.748 58.453 33.748-19.484c5 2.887 10.625 2.526 15 0 1.944-1.123 2.637-4.41 1.248-9.381l-18.76-67.12c-2.204-7.886-8.628-15.86-13.601-16.921z" fill="#b9e871"/><path d="m68.538 272.504c-5.79 14.452-8.566 29.548-8.551 44.495h105.013c0-5.052-2.5-10.103-7.5-12.989l-67.508-38.976c-7.931-4.579-18.048-1.031-21.454 7.47z" fill="#92d955"/><path d="m68.538 297.234c-5.79 6.42-8.566 13.126-8.551 19.765 0 .092-.002.185-.002.278.05 15.206 2.99 30.252 8.6 44.302 3.382 8.469 13.521 11.941 21.419 7.381h67.496v-38.97c5-2.887 7.5-7.939 7.5-12.991 0-2.245-2.5-4.488-7.5-5.771l-67.508-17.313c-7.931-2.034-18.048-.458-21.454 3.319z" fill="#b9e871"/><path d="m85.734 391.281c9.621 12.24 21.306 22.192 34.258 29.653l52.507-90.944c-4.375-2.526-9.999-2.886-14.999 0l-67.508 38.976c-7.931 4.579-9.917 15.115-4.258 22.315z" fill="#92d955"/><path d="m107.151 403.646c2.665 8.224 7.084 13.981 12.842 17.288.08.046.159.094.239.14 13.194 7.56 27.694 12.537 42.666 14.703 9.026 1.306 17.102-5.739 17.102-14.858l33.748-58.453-33.748-19.485c0-5.774-3.125-10.465-7.5-12.991-1.944-1.122-5.137-.079-8.748 3.61l-48.748 49.807c-5.727 5.851-9.421 15.401-7.853 20.239z" fill="#b9e871"/><path d="m197.196 435.777c15.41-2.212 29.872-7.356 42.81-14.842l-52.507-90.944c-4.375 2.526-7.499 7.217-7.499 12.99v77.951c0 9.158 8.131 16.146 17.196 14.845z" fill="#92d955"/><path d="m218.613 423.412c8.455 1.804 15.65.856 21.393-2.477.08-.046.161-.091.241-.137 13.144-7.646 24.704-17.715 34.066-29.599 5.644-7.164 3.581-17.68-4.317-22.24l-33.748-58.453-33.748 19.484c-5-2.887-10.625-2.526-15 0-1.944 1.123-2.637 4.41-1.248 9.381l18.76 67.12c2.204 7.886 8.628 15.86 13.601 16.921z" fill="#b9e871"/><path d="m291.462 361.496c5.79-14.452 8.566-29.548 8.551-44.495h-105.013c0 5.052 2.5 10.103 7.5 12.989l67.508 38.976c7.931 4.579 18.048 1.031 21.454-7.47z" fill="#92d955"/><path d="m291.462 336.766c5.79-6.42 8.566-13.126 8.551-19.765 0-.092.002-.185.002-.278-.05-15.206-2.99-30.252-8.6-44.302-3.382-8.469-13.521-11.941-21.419-7.381l-67.496 38.97c-5 2.887-7.5 7.939-7.5 12.991 0 2.245 2.5 4.488 7.5 5.771l67.508 17.313c7.931 2.034 18.048.458 21.454-3.319z" fill="#b9e871"/><g fill="#379030"><circle cx="437" cy="210" r="7.5"/><circle cx="317" cy="30" r="7.5"/><circle cx="287" cy="60" r="7.5"/></g></g></svg>