<svg id="Capa_1" enable-background="new 0 0 512 512" height="512" viewBox="0 0 512 512" width="512" xmlns="http://www.w3.org/2000/svg"><g><g><g><g><g><path d="m320.837 385.53c-3.523 51.076-32.883 95.034-75.1 118.914-64.809-17.977-116.864-66.601-139.59-129.277h205.027c5.614 0 10.054 4.759 9.663 10.363z" fill="#a3e440"/><g><circle cx="301.383" cy="304.383" fill="#bcea73" r="207.617"/><g fill="#a3e440"><path d="m324.684 381.651c-3.688 53.487-35.706 99.176-81.158 122.169-65.107-18.842-117.029-68.703-138.745-132.543h210.239c5.616 0 10.056 4.77 9.664 10.374z"/><path d="m508.996 304.388c0 114.659-92.954 207.612-207.613 207.612-35.995 0-69.857-9.169-99.371-25.291 19.532 6.346 40.383 9.776 62.037 9.776 110.744 0 200.525-89.77 200.525-200.525 0-101.998-76.161-186.205-174.708-198.876 3.812-.216 7.654-.319 11.517-.319 114.659 0 207.613 92.953 207.613 207.623z"/></g></g></g><g><g><path d="m369.121 26.887c-13.691 10.073-28.38 17.731-43.058 23.539-8.603 3.413-14.246 11.749-14.246 21.01v48.218c0 1.583-.247 3.115-.709 4.543-10.361-.976-20.003-.719-28.246.051-.545-1.583-.833-3.269-.833-5.016v-29.901c0-13.403-11.605-23.888-24.936-22.49-12.108 1.264-22.336 1.583-29.521 1.583-6.435 0-10.412-.247-11.142-.298-8.203-.576-14.39-7.689-13.815-15.891.565-8.203 7.658-14.401 15.86-13.825.781.051 78.314 4.728 132.987-35.513 6.63-4.872 15.953-3.454 20.825 3.166 4.872 6.619 3.453 15.942-3.166 20.824z" fill="#d5887a"/></g></g><path d="m347.039 140.574c-.972 0-1.959-.184-2.915-.574-42.578-17.364-86.052-3.292-86.486-3.148-4.044 1.344-8.421-.841-9.77-4.884s.825-8.414 4.866-9.77c1.985-.666 49.196-16.095 97.226 3.494 3.951 1.611 5.848 6.121 4.236 10.071-1.222 2.997-4.11 4.811-7.157 4.811z" fill="#a3e440"/></g><g><path d="m299.202 373.92c-5.32 77.15-69.59 138.08-148.09 138.08-78.49 0-142.76-60.93-148.09-138.08-.38-5.6 4.05-10.37 9.67-10.37h27.04c0 61.16 49.58 110.73 110.73 110.73 61.16 0 110.73-49.57 110.73-110.73h28.35c5.61 0 10.05 4.77 9.66 10.37z" fill="#d2f0a2"/><path d="m299.202 373.924c-5.326 77.144-69.59 138.076-148.089 138.076-5.229 0-10.401-.271-15.495-.804 71.314-7.389 127.627-65.271 132.595-137.273.387-5.607-4.048-10.372-9.665-10.372h30.989c5.618.001 10.053 4.766 9.665 10.373z" fill="#bcea73"/><path d="m269.884 363.553c0 65.594-53.174 118.768-118.768 118.768s-118.768-53.174-118.768-118.768z" fill="#fcb44d"/><path d="m269.889 363.552c0 65.591-53.176 118.766-118.776 118.766-4.968 0-9.858-.31-14.671-.901 58.676-7.224 104.095-57.243 104.095-117.866h29.352z" fill="#fca62f"/><g fill="#ffd496"><path d="m106.449 403.975c-1.251 0-2.518-.304-3.694-.945l-5.501-3.001c-3.745-2.044-5.126-6.737-3.082-10.483s6.736-5.126 10.483-3.082l5.501 3.001c3.745 2.044 5.126 6.737 3.082 10.483-1.402 2.571-4.053 4.027-6.789 4.027z"/><path d="m203.441 401.661c-1.25 0-2.518-.304-3.693-.945l-5.501-3c-3.746-2.043-5.127-6.736-3.083-10.482 2.043-3.746 6.736-5.127 10.483-3.083l5.501 3c3.746 2.043 5.127 6.736 3.083 10.482-1.402 2.571-4.054 4.028-6.79 4.028z"/><path d="m133.25 400.973c-4.267 0-7.726-3.459-7.726-7.726v-5.5c0-4.268 3.459-7.726 7.726-7.726s7.726 3.459 7.726 7.726v5.5c0 4.267-3.459 7.726-7.726 7.726z"/><path d="m146.182 425.975c-4.267 0-7.726-3.459-7.726-7.726v-5.5c0-4.268 3.459-7.726 7.726-7.726s7.726 3.459 7.726 7.726v5.5c0 4.267-3.459 7.726-7.726 7.726z"/><path d="m163.059 402.544c-3.565 0-6.77-2.483-7.547-6.11-.894-4.172 1.764-8.28 5.936-9.174l7.001-1.5c4.171-.893 8.28 1.765 9.174 5.937s-1.764 8.28-5.936 9.174l-7.001 1.5c-.546.117-1.091.173-1.627.173z"/></g></g></g><g fill="#d2f0a2"><path d="m447.963 255.981c.776 8.612 1.171 17.342 1.171 26.157 0 2.249-.034 4.488-.084 6.722-8.044.829-16.553.966-25.391.531.038-2.413.063-4.83.063-7.253 0-7.539-.187-14.992-.532-22.353 8.627-.398 16.879-1.615 24.773-3.804zm-40.261 3.697c.372 7.425.568 14.924.568 22.46 0 1.996-.018 3.987-.044 5.976-10.223-1.168-20.752-2.957-31.398-5.206 0-.257.003-.513.003-.77 0-8.915-.097-17.76-.286-26.485 10.859 2.068 21.238 3.478 31.157 4.025zm-74.694-14.59c9.653 2.705 18.983 5.159 28 7.26.219 8.882.34 17.903.361 27.007-9.657-2.389-19.331-5.083-28.882-7.96.077-8.899.254-17.672.521-26.307zm-.319 61.581c-.128-6.338-.207-12.73-.235-19.161 9.395 2.757 19.077 5.378 28.847 7.716-.084 7.698-.241 15.333-.469 22.865-8.719-3.471-18.071-7.279-28.143-11.42zm43.408 17.399c.293-8.357.503-16.849.619-25.425 9.809 1.996 19.602 3.631 29.183 4.743.626.073 1.232.123 1.854.191-.504 10.534-1.373 20.895-2.591 30.97-8.829-2.911-18.441-6.4-29.065-10.479zm66.279 20c-6.908-1.071-14.241-2.713-22.229-4.937 1.428-11.162 2.44-22.658 3.014-34.347 3.294.152 6.541.254 9.693.254 5.365 0 10.498-.248 15.448-.689-1.028 13.659-3.029 26.949-5.926 39.719zm58.706-6.426c-14.927 5.656-28.392 8.303-43.196 7.891 3.06-13.98 5.079-28.515 6.037-43.422 17.987-3.709 32.605-10.93 43.721-21.675-.68-5.872-1.597-11.662-2.751-17.369-1.679.309-3.266 1.164-4.461 2.545-9.076 10.498-21.407 17.05-35.902 20.614.021-1.36.052-2.72.052-4.09 0-10.704-.546-21.294-1.638-31.719 11.116-5.285 21.459-12.96 31.081-23.591-2.029-5.058-4.265-10.013-6.676-14.865-.958.453-1.844 1.113-2.575 1.978-7.335 8.612-15.226 15.309-23.983 20.212-1.143-7.108-2.555-14.124-4.213-21.026-.999-4.141-5.182-6.696-9.323-5.697-4.152.999-6.696 5.182-5.697 9.323 1.865 7.747 3.389 15.659 4.574 23.694-7.345 2.297-15.278 3.616-23.921 3.997-2.421-29.896-7.716-57.804-15.7-82.116-1.339-4.049-5.707-6.253-9.756-4.924-4.059 1.329-6.264 5.697-4.935 9.745 7.366 22.406 12.424 48.934 14.835 77.058-9.601-.649-19.79-2.174-30.555-4.358-.762-21.531-2.091-42.083-3.966-60.77-.422-4.244-4.203-7.345-8.458-6.912-4.244.422-7.345 4.213-6.923 8.458 1.731 17.194 2.988 36.015 3.75 55.743-8.633-2.102-17.596-4.522-26.888-7.16.371-8.128.814-16.112 1.36-23.91.299-4.265-2.915-7.953-7.17-8.252-4.244-.299-7.943 2.915-8.241 7.17-.474 6.727-.865 13.588-1.216 20.552-7.52-2.225-15.247-4.553-23.158-6.954-4.08-1.226-8.396 1.082-9.632 5.172-1.226 4.079 1.082 8.396 5.161 9.622 9.251 2.802 18.234 5.511 26.97 8.077-.288 8.499-.484 17.142-.598 25.899-12.383-4.007-24.426-8.221-35.788-12.352-10.168-3.698-20.315-6.274-30.164-7.654-4.234-.577-8.138 2.349-8.726 6.573-.597 4.224 2.349 8.138 6.573 8.726 8.787 1.236 17.884 3.544 27.042 6.871 11.93 4.337 25.888 9.251 40.96 14.031 0 5.862.051 11.682.134 17.472-16.658-6.892-32.749-11.899-47.831-14.865-4.193-.824-8.252 1.895-9.076 6.088-.824 4.183 1.896 8.252 6.088 9.076 14.083 2.771 29.195 7.479 44.916 13.98 2.112.875 4.203 1.741 6.263 2.586.196 6.696.443 13.31.742 19.821.196 4.141 3.606 7.376 7.716 7.376.113 0 .237-.01.361-.01 4.265-.196 7.562-3.822 7.355-8.077-.185-4.182-.361-8.406-.505-12.661 9.622 3.935 18.626 7.561 27.063 10.879-1.03 23.148-2.751 44.916-5.079 63.799-.525 4.244 2.483 8.097 6.717 8.612.33.041.639.062.958.062 3.843 0 7.18-2.864 7.654-6.779 2.205-17.863 3.874-38.209 4.945-59.833 9.941 3.74 19.069 6.974 27.568 9.704-4.059 25.147-10.353 47.965-18.533 66.498-1.731 3.904.041 8.468 3.946 10.188 1.01.453 2.071.659 3.111.659 2.967 0 5.8-1.72 7.077-4.605 8.468-19.172 15.03-42.588 19.316-68.291 7.283 1.978 14.093 3.503 20.604 4.584-3.379 11.497-7.52 22.479-12.434 32.78-1.834 3.853-.196 8.458 3.657 10.302 1.071.505 2.205.752 3.317.752 2.885 0 5.656-1.628 6.974-4.409 5.635-11.806 10.302-24.415 14.041-37.633 2.38.134 4.729.206 7.057.206 14.206 0 27.599-2.555 42.093-7.716 1.246-5.172 2.308-10.425 3.163-15.741-1.658-.588-3.512-.609-5.284.061z"/><path d="m326.833 358.403c-4.261.241-7.518 3.891-7.277 8.152.213 3.759.328 9.393.301 14.705-.022 4.268 3.419 7.744 7.687 7.767h.041c4.248 0 7.703-3.434 7.725-7.686.029-5.692-.093-11.546-.326-15.661-.242-4.26-3.911-7.504-8.151-7.277z"/><path d="m219.031 242.507h-5.046c-4.267 0-7.726 3.459-7.726 7.726s3.459 7.726 7.726 7.726h5.046c4.267 0 7.726-3.459 7.726-7.726s-3.459-7.726-7.726-7.726z"/><path d="m238.336 281.791h-5.046c-4.267 0-7.726 3.459-7.726 7.726 0 4.268 3.459 7.726 7.726 7.726h5.046c4.267 0 7.726-3.459 7.726-7.726s-3.459-7.726-7.726-7.726z"/></g></g><path d="m464.48 301.987c17.729-3.74 32.162-10.92 43.165-21.551-.68-5.872-1.597-11.662-2.751-17.369-1.679.309-3.266 1.164-4.461 2.545-9.076 10.498-21.407 17.05-35.902 20.614.021-1.36.052-2.72.052-4.09 0-10.704-.546-21.294-1.638-31.719 11.116-5.285 21.459-12.96 31.081-23.591-2.029-5.058-4.265-10.013-6.676-14.865-.958.453-1.844 1.113-2.575 1.978-7.335 8.612-15.226 15.309-23.983 20.212-1.143-7.108-2.555-14.124-4.213-21.026-.999-4.141-5.182-6.696-9.323-5.697-.979.237-1.875.649-2.648 1.205 12.795 26.393 19.965 56.021 19.965 87.328 0 2.019-.031 4.028-.093 6.026zm36.602 35.655c-14.763 5.594-28.083 8.241-42.691 7.901-5.223 20.552-13.619 39.827-24.652 57.288 2.627-.237 5.058-1.813 6.274-4.368 5.635-11.806 10.302-24.415 14.041-37.633 2.38.134 4.729.206 7.057.206 14.206 0 27.599-2.555 42.093-7.716 1.246-5.172 2.308-10.425 3.163-15.741-1.659-.586-3.513-.607-5.285.063z" fill="#bcea73"/></g></svg>