<svg id="Capa_1" enable-background="new 0 0 497 497" height="512" viewBox="0 0 497 497" width="512" xmlns="http://www.w3.org/2000/svg"><g><path d="m453.506 148.865-345.948 304.342c96.823 66.828 230.507 57.175 316.667-28.984 84.124-84.122 97.237-207.405 29.281-275.358z" fill="#d63b48"/><path d="m403.011 403.01c84.125-84.122 106.735-197.908 50.495-254.145-18.849-18.848-41.959-31.449-67.305-38.039l-190.732 84.642-133.298 239.363c3.69 3.69 8.342 5.829 13.149 6.42 11.543 1.418 22.667 5.35 32.239 11.956 84.755 54.761 209.292 35.962 295.452-50.197z" fill="#ff3e3a"/><path d="m466.065 277.308c4.553-42.818-7.441-80.899-33.772-107.229l-307.694 258.437c86.7 59.841 203.792 49.113 278.412-25.507 35.851-35.849 58.248-80.492 63.054-125.701z" fill="#ffe29e"/><path d="m451.377 262.621c8.539-38.832 1.761-71.697-19.085-92.542-18.778-18.777-43.535-30.256-71.721-33.65l-154.497 69.644-121.402 206.256c14.549 2.586 28.25 8.129 39.927 16.187 74.408 47.549 182.578 27.9 257.199-46.72 35.851-35.85 60.565-78.175 69.579-119.175z" fill="#fff1d6"/><path d="m322.746 212.415-137.888 99.727c35.149 35.148 92.136 35.143 127.285-.005 30.467-30.466 35.214-75.113 10.603-99.722z" fill="#ffb464"/><path d="m290.93 290.924c30.466-30.466 44.711-65.615 31.816-78.509-6.828-6.828-15.2-11.392-24.382-13.779l-92.29 7.437-21.216 106.069c23.434 23.432 70.923 13.93 106.072-21.218z" fill="#ffd36e"/><path d="m348.154 43.49c-67.955-67.953-191.246-54.837-275.378 29.292-86.16 86.159-95.811 219.84-28.982 316.662 6.607 9.572 10.539 20.695 11.957 32.238.59 4.806 2.73 9.459 6.42 13.148l22.502-22.5 121.409-206.25 154.502-69.639 25.618-25.616c-6.587-25.358-19.191-48.479-38.048-67.335z" fill="#ff5d4a"/><path d="m169.994 85.14 49.698-54.204c-45.209 4.806-89.851 27.203-125.701 63.054-74.62 74.62-85.348 191.712-25.507 278.412 8.059 11.677 13.601 25.378 16.187 39.927l85.323-85.323c66.79-66.789 66.79-175.077 0-241.866z" fill="#ff7c59"/><path d="m326.922 64.708c-26.33-26.331-64.412-38.325-107.229-33.772-67.867 7.745-97.999 90.756-49.698 139.057 43.358 43.358 43.358 113.656 0 157.014l190.577-190.577c-3.394-28.187-14.873-52.944-33.65-71.722z" fill="#ff985f"/><circle cx="290.93" cy="290.923" fill="#ff985f" r="7.5"/><circle cx="290.93" cy="248.497" fill="#ffb464" r="7.5"/></g></svg>