<svg id="Capa_1" enable-background="new 0 0 497 497" height="512" viewBox="0 0 497 497" width="512" xmlns="http://www.w3.org/2000/svg"><circle cx="248.5" cy="248.5" fill="#f26d1f" r="248.5"/><circle cx="248.5" cy="248.5" fill="#ffebc4" r="218.5"/><circle cx="248.5" cy="248.5" fill="#fff" r="47.259"/><path d="m298.446 66.682c-16.323-4.455-33.135-6.682-49.946-6.682v160.701c7.079 0 13.161-4.267 15.814-10.37h48.718v-118.039c3.05-11.103-3.483-22.56-14.586-25.61z" fill="#f26d1f"/><path d="m275.493 66.682c-8.821-4.455-17.907-6.682-26.993-6.682-16.811 0-33.623 2.227-49.946 6.682-11.104 3.05-17.637 14.507-14.587 25.611v118.038h48.718c2.653 6.103 8.735 10.37 15.814 10.37 3.826 0 7.113-4.267 8.547-10.37l26.33-118.038c1.649-11.104-1.882-22.561-7.883-25.611z" fill="#f68a2f"/><path d="m412.382 155.252c-8.392-14.692-18.705-28.154-30.592-40.042l-113.633 113.633c5.005 5.005 12.324 6.289 18.515 3.849l34.449 34.449 83.466-83.466c10.008-5.694 13.49-18.415 7.795-28.423z" fill="#f26d1f"/><path d="m396.152 139.022c-3.088-9.388-7.938-17.387-14.363-23.812-11.887-11.887-25.35-22.2-40.042-30.592-10.008-5.695-22.729-2.213-28.424 7.795l-49.017 117.915c-2.439 6.191-1.156 13.509 3.849 18.515 2.705 2.705 8.047 2.012 13.376-1.289l102.084-64.848c9.019-6.686 14.624-17.284 12.537-23.684z" fill="#f68a2f"/><path d="m430.318 298.446c4.455-16.323 6.682-33.135 6.682-49.946h-160.701c0 7.079 4.267 13.161 10.37 15.814v48.718h118.038c11.104 3.05 22.561-3.483 25.611-14.586z" fill="#f26d1f"/><path d="m430.318 275.493c4.454-8.822 6.682-17.908 6.682-26.993 0-16.811-2.227-33.623-6.682-49.946-3.05-11.104-14.507-17.637-25.611-14.587l-118.038 48.718c-6.103 2.653-10.37 8.735-10.37 15.814 0 3.826 4.267 7.113 10.37 8.547l118.038 26.33c11.104 1.649 22.561-1.882 25.611-7.883z" fill="#f68a2f"/><path d="m341.748 412.382c14.692-8.392 28.154-18.705 40.042-30.592l-113.633-113.633c-5.005 5.005-6.289 12.324-3.849 18.515l-34.449 34.449 83.466 83.466c5.694 10.008 18.415 13.49 28.423 7.795z" fill="#f26d1f"/><path d="m357.978 396.152c9.388-3.088 17.387-7.938 23.812-14.363 11.887-11.887 22.2-25.35 30.592-40.042 5.695-10.008 2.213-22.729-7.795-28.424l-117.915-49.017c-6.191-2.439-13.509-1.156-18.515 3.849-2.705 2.705-2.012 8.047 1.289 13.376l64.848 102.084c6.686 9.019 17.284 14.624 23.684 12.537z" fill="#f68a2f"/><path d="m198.554 430.318c16.323 4.455 33.135 6.682 49.946 6.682v-160.701c-7.079 0-13.161 4.267-15.814 10.37h-48.718v118.038c-3.05 11.104 3.483 22.561 14.586 25.611z" fill="#f26d1f"/><path d="m221.507 430.318c8.822 4.454 17.908 6.682 26.993 6.682 16.811 0 33.623-2.227 49.946-6.682 11.104-3.05 17.637-14.507 14.587-25.611l-48.718-118.038c-2.653-6.103-8.735-10.37-15.814-10.37-3.826 0-7.113 4.267-8.547 10.37l-26.33 118.038c-1.649 11.104 1.882 22.561 7.883 25.611z" fill="#f68a2f"/><path d="m84.618 341.748c8.392 14.692 18.705 28.154 30.592 40.042l113.633-113.633c-5.005-5.005-12.324-6.289-18.515-3.849l-34.449-34.449-83.466 83.466c-10.008 5.694-13.489 18.415-7.795 28.423z" fill="#f26d1f"/><path d="m100.848 357.978c3.088 9.388 7.938 17.387 14.363 23.812 11.887 11.887 25.35 22.2 40.042 30.592 10.008 5.695 22.729 2.213 28.424-7.795l49.017-117.915c2.439-6.191 1.156-13.509-3.849-18.515-2.705-2.705-8.047-2.012-13.376 1.289l-102.084 64.848c-9.019 6.686-14.624 17.284-12.537 23.684z" fill="#f68a2f"/><path d="m66.682 198.554c-4.455 16.323-6.682 33.135-6.682 49.946h160.701c0-7.079-4.267-13.161-10.37-15.814v-48.718h-118.039c-11.103-3.05-22.56 3.483-25.61 14.586z" fill="#f26d1f"/><path d="m66.682 221.507c-4.455 8.821-6.682 17.907-6.682 26.993 0 16.811 2.227 33.623 6.682 49.946 3.05 11.104 14.507 17.637 25.611 14.587l118.038-48.718c6.103-2.653 10.37-8.735 10.37-15.814 0-3.826-4.267-7.113-10.37-8.547l-118.038-26.33c-11.104-1.649-22.561 1.882-25.611 7.883z" fill="#f68a2f"/><path d="m155.252 84.618c-14.692 8.392-28.154 18.705-40.042 30.592l113.633 113.633c5.005-5.005 6.289-12.324 3.849-18.515l-49.016-117.915c-5.695-10.008-18.416-13.489-28.424-7.795z" fill="#f26d1f"/><path d="m139.022 100.848c-9.388 3.088-17.387 7.938-23.812 14.363-11.887 11.887-22.2 25.35-30.592 40.042-5.695 10.008-2.213 22.729 7.795 28.424l117.915 49.017c6.191 2.439 13.509 1.156 18.515-3.849 2.705-2.705 2.012-8.047-1.289-13.376l-64.848-102.084c-6.686-9.019-17.284-14.624-23.684-12.537z" fill="#f68a2f"/></svg>