<?xml version="1.0" encoding="iso-8859-1"?>
<!-- Generator: Adobe Illustrator 19.0.0, SVG Export Plug-In . SVG Version: 6.00 Build 0)  -->
<svg version="1.1" id="Layer_1" xmlns="http://www.w3.org/2000/svg" xmlns:xlink="http://www.w3.org/1999/xlink" x="0px" y="0px"
	 viewBox="0 0 512 512" style="enable-background:new 0 0 512 512;" xml:space="preserve">
<path style="fill:#517F46;" d="M253.139,86.224c-1.28,1.447-3.471,1.537-5.402,1.491c-18.052-0.427-36.655-3.503-51.752-13.41
	s-25.912-27.85-23.252-45.71c2.66-17.86,21.729-32.787,39.002-27.523c13.316,4.058,21.316,17.43,26.877,30.19
	c6.862,15.746,11.975,32.255,15.214,49.123C254.211,82.382,254.488,84.701,253.139,86.224z"/>
<path style="fill:#2E5D4B;" d="M256.309,142.28c-3.948,0-7.336-2.983-7.756-6.996c-0.722-6.897-4.007-42.193,2.293-59.816
	c6.274-17.545,19.963-30.416,35.722-33.589c9.574-1.927,20.251,0.366,28.569,6.133c7.436,5.156,12.258,12.509,13.578,20.705
	c0.686,4.257-2.209,8.264-6.467,8.95c-4.26,0.693-8.264-2.21-8.95-6.467c-0.638-3.964-3.145-7.641-7.059-10.354
	c-4.823-3.344-11.184-4.745-16.59-3.657c-10.266,2.066-19.727,11.306-24.101,23.538c-3.726,10.421-3.372,34.742-1.468,52.931
	c0.45,4.289-2.664,8.129-6.952,8.578C256.856,142.267,256.581,142.28,256.309,142.28z"/>
<path style="fill:#FF8B7A;" d="M314.535,119.033c-20.566,0.051-40.384,3.269-58.999,9.181c-18.645-5.819-38.477-8.939-59.044-8.888
	C88.059,119.595,0.373,207.716,0.641,316.149C0.91,424.584,89.031,512.268,197.465,512c20.566-0.051,40.384-3.269,58.999-9.18
	c18.645,5.818,38.477,8.938,59.044,8.887c108.434-0.269,196.119-88.389,195.85-196.824
	C511.089,206.451,422.968,118.765,314.535,119.033z"/>
<path style="opacity:0.1;fill:#B12C47;enable-background:new    ;" d="M315.508,511.707c15.755-0.04,31.066-1.945,45.738-5.486
	c24.672-19.915,40.26-49.191,49.977-79.383c15.828-49.181,17.537-102.818,4.873-152.905c-6.036-23.875-15.436-47.228-30.483-66.722
	c-15.047-19.494-36.128-34.93-60.176-40.234c45.152,46.189,66.957,114.135,57.115,177.973s-51.098,122.061-108.065,152.508
	c-3.635,1.943-7.681,4.489-10.374,7.573C280.502,509.421,297.73,511.751,315.508,511.707z"/>
<path style="fill:#FFAEA2;" d="M327.018,162.411c-3.234-2.849-8.17-2.537-11.019,0.701c-2.849,3.235-2.537,8.17,0.701,11.019
	c40.533,35.691,63.856,87.112,63.99,141.077c0.111,45.023-17.908,90.699-50.74,128.616c-28.244,32.618-65.199,56.071-103.242,65.93
	c10.198-1.551,20.138-3.88,29.757-6.933c5.986,1.868,12.096,3.453,18.311,4.75c24.75-13.101,47.773-31.344,66.979-53.524
	c35.299-40.765,54.672-90.086,54.55-138.877C396.159,256.736,370.905,201.057,327.018,162.411z"/>
<g>
</g>
<g>
</g>
<g>
</g>
<g>
</g>
<g>
</g>
<g>
</g>
<g>
</g>
<g>
</g>
<g>
</g>
<g>
</g>
<g>
</g>
<g>
</g>
<g>
</g>
<g>
</g>
<g>
</g>
</svg>
