<svg id="Capa_1" enable-background="new 0 0 512 512" height="512" viewBox="0 0 512 512" width="512" xmlns="http://www.w3.org/2000/svg"><g><g><ellipse cx="294.013" cy="309.43" fill="#683983" rx="167.229" ry="202.569"/><path d="m461.246 309.431c0 111.875-74.876 202.569-167.236 202.569-6.9 0-13.704-.502-20.391-1.496 82.726-12.187 146.824-97.562 146.824-201.074s-64.098-188.887-146.824-201.074c6.686-.993 13.491-1.496 20.391-1.496 92.36.001 167.236 90.696 167.236 202.571z" fill="#804d9e"/><g><g><g><path d="m269.402 154.404c-4.824-66.596-24.903-113.809-34.732-133.4-2.775-5.531-.275-12.249 5.435-14.634l13.266-5.541c5.382-2.248 11.587.23 13.914 5.578 22.056 50.696 27.773 112.259 26.937 147.453-.16 6.735-5.69 12.099-12.427 12.098-6.522 0-11.922-5.048-12.393-11.554z" fill="#bcea73"/></g></g></g></g><g><ellipse cx="217.983" cy="309.43" fill="#ae6ad8" rx="167.229" ry="202.569"/><g><path d="m284.066 142.419c-88.462 47.916-137.072 33.561-163.786 2.596 27.483-24.011 61.225-38.154 97.701-38.154 18.564 0 36.423 3.664 53.107 10.436 9.709 13.736 12.978 25.122 12.978 25.122z" fill="#975bbb"/></g><path d="m385.217 309.431c0 111.875-74.876 202.569-167.236 202.569-9.218 0-18.265-.908-27.088-2.649 83.602-10.371 148.821-95.917 148.821-199.92s-65.22-189.549-148.821-199.92c8.823-1.741 17.87-2.649 27.088-2.649 92.36-.001 167.236 90.694 167.236 202.569z" fill="#975bbb"/></g><g><g><g><path d="m266.703 118.33c2.558-1.347 3.669-4.415 2.583-7.094-6.055-14.934-29.575-60.035-94.67-66.584-38.281-3.851-63.026-11.293-78.314-17.889-10.105-4.359-21.085 3.965-19.59 14.868 7.229 52.733 40.213 155.546 189.991 76.699z" fill="#99d53b"/></g><g><path d="m266.705 118.329c-4.838 2.546-9.559 4.906-14.152 7.075-9.517-18.767-34.671-53.812-91.442-59.516-38.281-3.856-63.019-11.29-78.315-17.891-1.762-.769-3.557-1.132-5.309-1.164-.288-1.784-.545-3.536-.78-5.223-1.495-10.895 9.506-19.194 19.6-14.847 15.285 6.601 40.033 14.035 78.304 17.891 65.099 6.544 88.621 51.645 94.678 66.58 1.087 2.679-.025 5.748-2.584 7.095z" fill="#82b732"/></g></g><path d="m262.491 108.272c0-3.249-2.021-6.154-5.074-7.264-10.449-3.799-25.631-7.773-46.146-9.538-9.42-.811-17.823-1.663-25.429-2.685-3.254-2.958-10.832-10.42-15.18-19.361-1.784-3.668-6.041-5.596-9.847-4.13-4.258 1.64-6.142 6.515-4.212 10.551 1.396 2.921 3.042 5.676 4.777 8.244-13.164-3.599-23.592-8.806-33.485-17.033-3.521-2.927-8.876-2.197-11.447 1.769-2.143 3.307-1.282 7.755 1.755 10.268 19.045 15.76 40.421 21.746 66.446 25.155-6.722 2.73-14.404 5.064-22.108 5.772-3.475.319-6.447 2.796-7.05 6.234-.886 5.044 2.949 9.201 7.59 9.201.23 0 .463-.01.696-.03 21.597-1.929 41.937-13.876 48.831-18.307 17.712 1.742 30.72 5.229 39.514 8.422 5.045 1.831 10.369-1.9 10.369-7.268z" fill="#82b732"/></g></g></svg>