<svg width="32" height="32" viewBox="0 0 32 32" fill="none" xmlns="http://www.w3.org/2000/svg">
<path d="M19.8097 4.67636C19.6994 4.67636 19.5984 4.60273 19.5685 4.49098L19.5682 4.48973C19.5426 4.39423 19.512 4.29423 19.472 4.17498C19.45 4.10961 19.4561 4.03798 19.4886 3.97723C19.5212 3.91648 19.5775 3.87186 19.6441 3.85398C19.708 3.83673 19.7821 3.84411 19.8396 3.87736C19.8971 3.91048 19.9447 3.96361 19.962 4.02761L20.0507 4.35911C20.0509 4.35998 20.0511 4.36073 20.0514 4.36161C20.0871 4.49498 20.0079 4.63211 19.8745 4.66773C19.853 4.67361 19.8311 4.67636 19.8097 4.67636Z" fill="#3762CC"/>
<path d="M22.457 19.6973H9.7417C7.67633 19.6973 6.00195 21.3716 6.00195 23.437V28.1303H9.04458V31.6249H22.9566V28.1303H26.1968C26.1968 26.378 26.1968 25.1965 26.1968 23.437C26.1967 21.3716 24.5223 19.6973 22.457 19.6973Z" fill="#4671C6"/>
<path d="M16.8046 13.8168L11.8125 14.3668L12.2944 19.9965V19.9969C12.2944 22.0601 13.967 23.7328 16.0302 23.7328C16.997 23.7328 17.8783 23.3655 18.5418 22.7626C19.0775 22.2759 19.4293 21.6416 19.5835 20.9576C19.6774 20.541 19.685 20.1138 19.6169 19.6973L16.8046 13.8168Z" fill="#F9CFCF"/>
<path d="M6.00195 28.1304H9.04458V31.625H6.00195V28.1304Z" fill="#F9CFCF"/>
<path d="M22.957 28.1304H26.1973V31.625H22.957V28.1304Z" fill="#F9CFCF"/>
<path d="M22.957 31.8749C22.819 31.8749 22.707 31.7629 22.707 31.6249V25.6611C22.707 25.5231 22.819 25.4111 22.957 25.4111C23.095 25.4111 23.207 25.5231 23.207 25.6611V31.6249C23.207 31.7629 23.095 31.8749 22.957 31.8749Z" fill="#3762CC"/>
<path d="M26.1967 31.8749H6.00195C5.86395 31.8749 5.75195 31.7629 5.75195 31.6249V23.4371C5.75195 21.2371 7.5417 19.4474 9.7417 19.4474H11.9965L11.5633 14.388C11.5517 14.2528 11.6501 14.133 11.785 14.1183L16.7772 13.5684C16.8835 13.5563 16.9843 13.6131 17.0301 13.709L19.7743 19.4474H22.4571C24.6571 19.4474 26.4468 21.2371 26.4468 23.4371V31.6249C26.4467 31.7629 26.3348 31.8749 26.1967 31.8749ZM6.25195 31.3749H25.9468V23.4371C25.9468 21.5129 24.3813 19.9474 22.4571 19.9474H19.6168C19.5206 19.9474 19.4328 19.8921 19.3913 19.8053L16.6556 14.0848L12.0823 14.5885L12.5178 19.676C12.5238 19.7458 12.5002 19.8148 12.4528 19.8664C12.4056 19.918 12.3387 19.9473 12.2687 19.9473H9.7417C7.81745 19.9473 6.25195 21.5128 6.25195 23.437V31.3749Z" fill="#3762CC"/>
<path d="M9.04492 31.8749C8.90692 31.8749 8.79492 31.7629 8.79492 31.6249V25.6611C8.79492 25.5231 8.90692 25.4111 9.04492 25.4111C9.18292 25.4111 9.29492 25.5231 9.29492 25.6611V31.6249C9.29492 31.7629 9.18305 31.8749 9.04492 31.8749Z" fill="#3762CC"/>
<path d="M14.7551 19.4148C10.0816 20.667 5.27782 17.8937 4.02557 13.2202L3.31957 10.5849C3.02982 9.50354 3.67157 8.39204 4.75295 8.10229L19.7191 4.09216L20.9498 8.68529C22.2021 13.3588 19.4286 18.1625 14.7551 19.4148Z" fill="#4671C6"/>
<path d="M19.8492 9.59364L19.6683 8.91876C18.6113 4.97426 14.5278 2.64114 10.5475 3.70764C6.56708 4.77414 4.19708 8.83651 5.25408 12.781L5.43495 13.4559C4.1767 13.7659 3.45095 15.0289 3.77383 16.234C4.11858 17.5209 5.51483 18.2376 6.78895 17.7476C8.37945 20.7083 11.8686 22.2966 15.2832 21.3816C18.6982 20.4666 20.9253 17.3463 20.8225 13.9873C22.1691 13.7749 23.0221 12.4574 22.6768 11.1689C22.3537 9.96326 21.0931 9.23314 19.8492 9.59364Z" fill="#F9CFCF"/>
<path d="M20.7332 7.87206L9.42598 10.9018C7.01698 11.5473 4.54073 10.1177 3.89523 7.70869C3.24973 5.29969 4.67935 2.82344 7.08835 2.17794L13.1174 0.562438C16.0325 -0.218687 19.0289 1.51131 19.81 4.42644L20.7332 7.87206Z" fill="#4671C6"/>
<path d="M8.24879 11.3078C7.42292 11.3078 6.60804 11.0913 5.87367 10.6672C4.77117 10.0307 3.98267 9.00294 3.65317 7.77331C2.97304 5.23494 4.48467 2.61656 7.02304 1.93644L13.0519 0.321064C14.5263 -0.073936 16.0663 0.128689 17.3882 0.891939C18.71 1.65506 19.6557 2.88744 20.0507 4.36181L20.9739 7.80731C21.0097 7.94069 20.9305 8.07781 20.7972 8.11344L9.49004 11.1433C9.07954 11.2533 8.66267 11.3078 8.24879 11.3078ZM14.5298 0.625689C14.0843 0.625689 13.6318 0.683189 13.1813 0.803939L7.15242 2.41931C4.88042 3.02819 3.52729 5.37194 4.13604 7.64394C4.43092 8.74456 5.13679 9.66444 6.12354 10.2342C7.11029 10.8038 8.25967 10.9552 9.36054 10.6603L20.4263 7.69519L19.5679 4.49119C18.9444 2.16431 16.8319 0.625689 14.5298 0.625689Z" fill="#3762CC"/>
<path d="M16.9231 12.0081C16.6005 12.0081 16.3208 11.9873 16.0678 11.9447C15.6441 11.8733 15.2724 11.753 14.9925 11.5966C14.9021 11.5461 14.8699 11.4318 14.9203 11.3413C14.9706 11.2511 15.0848 11.2186 15.1755 11.2691C15.4183 11.4047 15.7484 11.5104 16.1301 11.5748C16.3623 11.6139 16.6216 11.633 16.9231 11.633C17.2246 11.633 17.484 11.6139 17.7161 11.5748C18.0979 11.5104 18.428 11.4047 18.6708 11.2691C18.7614 11.2186 18.8754 11.251 18.926 11.3413C18.9765 11.4317 18.9443 11.546 18.8538 11.5966C18.5739 11.753 18.2021 11.8733 17.7785 11.9447C17.5255 11.9873 17.2458 12.0081 16.9231 12.0081Z" fill="#3762CC"/>
<path d="M15.9033 12.7441L16.1268 13.5781C16.2674 14.1029 16.8068 14.4144 17.3315 14.2737C17.8563 14.1331 18.1677 13.5937 18.0272 13.069L17.8037 12.235C17.7834 12.1592 17.7055 12.1144 17.6299 12.1346L16.0037 12.5704C15.928 12.5906 15.883 12.6685 15.9033 12.7441Z" fill="#3762CC"/>
<path d="M8.52053 14.7225L8.74403 15.5565C8.88465 16.0813 9.42403 16.3926 9.94878 16.2521C10.4735 16.1115 10.7849 15.5721 10.6444 15.0474L10.4209 14.2134C10.4007 14.1376 10.3228 14.0928 10.2472 14.113L8.6209 14.5488C8.54515 14.569 8.50015 14.6469 8.52053 14.7225Z" fill="#3762CC"/>
<path d="M7.61721 14.6068C7.51496 14.6068 7.43121 14.5245 7.42971 14.4219C7.42821 14.3184 7.51096 14.2333 7.61458 14.2318C7.89258 14.2279 8.23133 14.1544 8.59421 14.0193C8.81471 13.9371 9.04883 13.8239 9.31008 13.6731C9.57146 13.5221 9.78658 13.376 9.96783 13.2263C10.2665 12.9794 10.4993 12.7228 10.6417 12.484C10.6947 12.3951 10.8098 12.3659 10.8988 12.4189C10.9877 12.4719 11.0168 12.587 10.964 12.676C10.8 12.9511 10.5382 13.2414 10.2068 13.5153C10.0093 13.6785 9.77733 13.8364 9.49771 13.9978C9.21821 14.1591 8.96558 14.2811 8.72521 14.3705C8.32258 14.5204 7.94033 14.6021 7.61996 14.6066C7.61896 14.6068 7.61808 14.6068 7.61721 14.6068Z" fill="#3762CC"/>
<path d="M14.9561 16.841C14.4442 16.7602 13.8203 16.9077 13.5133 17.0915C13.0917 17.3442 12.9237 17.8724 13.0917 18.3343L13.3071 18.9262C13.3516 19.0485 13.4869 19.1117 13.6094 19.0672L15.9019 18.2328C16.0243 18.1883 16.0876 18.053 16.0431 17.9307C16.0167 17.8583 15.9862 17.7744 15.9552 17.6893C15.7954 17.2499 15.4178 16.914 14.9561 16.841Z" fill="#F9A7A7"/>
<path d="M26.9652 31.625H12.2227V28.1304H24.831C26.2168 28.1304 27.3402 29.2537 27.3402 30.6395V31.25C27.3402 31.4571 27.1723 31.625 26.9652 31.625Z" fill="#F9CFCF"/>
<path d="M26.9652 31.875H12.2227C12.0847 31.875 11.9727 31.763 11.9727 31.625V28.1304C11.9727 27.9924 12.0847 27.8804 12.2227 27.8804H24.831C26.3524 27.8804 27.5902 29.1181 27.5902 30.6395V31.25C27.5902 31.5946 27.3098 31.875 26.9652 31.875ZM12.4727 31.375H26.965C27.0339 31.375 27.09 31.3189 27.09 31.25V30.6395C27.09 29.3937 26.0767 28.3804 24.8309 28.3804H12.4727V31.375Z" fill="#3762CC"/>
<path d="M12.2223 28.1303L9.31708 27.6502C9.14295 27.6214 8.9647 27.6648 8.82333 27.7704L6.26233 29.6832C6.09845 29.8055 6.00195 29.998 6.00195 30.2027V31.6249H12.2223V28.1303Z" fill="#F9CFCF"/>
<path d="M12.2222 31.8749H6.00195C5.86395 31.8749 5.75195 31.7629 5.75195 31.6249V30.2027C5.75195 29.9207 5.88683 29.6515 6.1127 29.4829L8.6737 27.5702C8.86845 27.4247 9.11783 27.364 9.3577 27.4035L12.2631 27.8837C12.3837 27.9037 12.4723 28.008 12.4723 28.1303V31.6249C12.4722 31.7629 12.3603 31.8749 12.2222 31.8749ZM6.25195 31.3749H11.9723V28.3424L9.27633 27.8968C9.16995 27.8792 9.05945 27.9062 8.97295 27.9707L6.41195 29.8834C6.31183 29.9582 6.25195 30.0775 6.25195 30.2025V31.3749Z" fill="#3762CC"/>
<path d="M13.5291 19.3316C13.4591 19.3316 13.3893 19.3163 13.3241 19.2859C13.2065 19.2311 13.1172 19.1336 13.0728 19.0118L12.8573 18.4199C12.645 17.8365 12.8671 17.1876 13.3855 16.8771C13.7296 16.671 14.411 16.502 14.9956 16.5941C15.5372 16.6798 15.9952 17.0665 16.1908 17.6038L16.2787 17.8453C16.3702 18.0968 16.2398 18.3761 15.9882 18.4676L13.6957 19.302C13.6413 19.3218 13.5851 19.3316 13.5291 19.3316ZM14.6503 17.0683C14.2663 17.0683 13.8576 17.177 13.6423 17.306C13.3292 17.4935 13.1966 17.89 13.3272 18.2488L13.5378 18.8274L15.8038 18.0026L15.7208 17.7748C15.5875 17.4084 15.2797 17.1453 14.9175 17.088C14.8318 17.0745 14.7417 17.0683 14.6503 17.0683Z" fill="#3762CC"/>
<path d="M8.24879 11.3078C7.42292 11.3078 6.60804 11.0913 5.87367 10.6672C4.77117 10.0307 3.98267 9.00294 3.65317 7.77331C2.97304 5.23494 4.48467 2.61656 7.02304 1.93644L13.0519 0.321064C14.5263 -0.073936 16.0663 0.128689 17.3882 0.891939C18.71 1.65506 19.6557 2.88744 20.0507 4.36181L20.9739 7.80731C21.0097 7.94069 20.9305 8.07781 20.7972 8.11344L9.49004 11.1433C9.07954 11.2533 8.66267 11.3078 8.24879 11.3078ZM14.5298 0.625689C14.0843 0.625689 13.6318 0.683189 13.1813 0.803939L7.15242 2.41931C4.88042 3.02819 3.52729 5.37194 4.13604 7.64394C4.43092 8.74456 5.13679 9.66444 6.12354 10.2342C7.11029 10.8038 8.25967 10.9552 9.36054 10.6603L20.4263 7.69519L19.5679 4.49119C18.9444 2.16431 16.8319 0.625689 14.5298 0.625689Z" fill="#3762CC"/>
<path d="M13.3142 21.8925C10.6027 21.8925 8.05754 20.4704 6.67192 18.0508C6.05417 18.2294 5.38817 18.1693 4.81454 17.877C4.18267 17.5554 3.71567 16.98 3.53317 16.2986C3.35842 15.6464 3.45217 14.9655 3.79729 14.3815C4.10179 13.8663 4.56954 13.484 5.13142 13.286L5.01342 12.8458C4.73854 11.8198 4.68167 10.7685 4.84442 9.72076C4.85879 9.62814 4.92379 9.55139 5.01267 9.52189C5.10179 9.49251 5.19979 9.51514 5.26654 9.58077C6.34117 10.6355 7.91017 11.049 9.36179 10.6603L19.3784 7.97626C19.5025 7.94289 19.6315 8.00914 19.677 8.12939C19.7672 8.36814 19.8459 8.61189 19.9107 8.85401L20.0287 9.29427C20.6139 9.18489 21.2105 9.28201 21.7318 9.57601C22.3227 9.90914 22.7443 10.4519 22.919 11.1041C23.1017 11.7855 22.9848 12.5171 22.5987 13.1115C22.2477 13.6515 21.7012 14.0366 21.0768 14.1909C21.0889 17.6711 18.7597 20.7091 15.3487 21.623C14.6704 21.8049 13.987 21.8925 13.3142 21.8925ZM6.78954 17.4975C6.87929 17.4975 6.96517 17.546 7.00979 17.6293C8.28067 19.9951 10.7163 21.392 13.3153 21.3923C13.9452 21.3923 14.5842 21.3103 15.219 21.1401C18.4737 20.268 20.6753 17.3299 20.5732 13.9949C20.5693 13.869 20.6597 13.76 20.7842 13.7403C21.3573 13.6499 21.8658 13.3214 22.1793 12.839C22.4884 12.3634 22.5819 11.7781 22.436 11.2335C22.2963 10.7121 21.959 10.2781 21.4862 10.0115C21.0088 9.74226 20.4524 9.67914 19.9195 9.83351C19.8548 9.85214 19.7857 9.84401 19.7272 9.81114C19.6687 9.77814 19.6259 9.72289 19.6085 9.65801L19.4277 8.98326C19.3862 8.82851 19.3387 8.67301 19.2858 8.51864L9.49104 11.1433C8.02729 11.5356 6.45642 11.1971 5.28167 10.2611C5.20817 11.0855 5.28004 11.9094 5.49617 12.7164L5.67704 13.3911C5.69442 13.456 5.68492 13.5251 5.65079 13.583C5.61667 13.6408 5.56054 13.6825 5.49542 13.6985C4.95654 13.8313 4.50642 14.1641 4.22754 14.6359C3.95142 15.1033 3.87617 15.6478 4.01592 16.1693C4.16192 16.7139 4.53567 17.174 5.04129 17.4315C5.55379 17.6925 6.15829 17.7226 6.69992 17.5144C6.72929 17.503 6.75967 17.4975 6.78954 17.4975Z" fill="#3762CC"/>
<path d="M8.38389 31.625L11.589 23.4985L7.64639 21.9811C7.53939 21.9399 7.45064 21.8617 7.39626 21.7607L5.05414 17.4097C4.98901 17.2889 5.03851 17.1381 5.16251 17.0792C5.70689 16.8209 6.35826 16.9997 6.69426 17.5L8.25776 19.8282L9.03389 19.7467C10.1256 19.6321 11.2289 19.7869 12.247 20.1974C13.1458 20.5597 13.9554 21.1122 14.6205 21.8171C14.8535 22.064 15.0944 22.2584 15.0944 22.6677C15.0944 23.3949 15.0446 24.1212 14.9454 24.8416L14.011 31.625H8.38389Z" fill="#F9CFCF"/>
<path d="M14.0108 31.8749H8.38372C8.30097 31.8749 8.22359 31.8339 8.17709 31.7656C8.13047 31.6972 8.12084 31.6101 8.15122 31.5332L11.2637 23.6412L7.55634 22.2143C7.39359 22.1517 7.25847 22.0326 7.17584 21.8791L4.83372 17.5281C4.77047 17.4104 4.75797 17.2702 4.79959 17.1432C4.84122 17.0163 4.93434 16.9106 5.05497 16.8533C5.70597 16.5443 6.49972 16.7624 6.90134 17.3606L8.38097 19.5638L9.00747 19.4981C10.1353 19.3796 11.288 19.5413 12.3401 19.9656C13.2657 20.3388 14.117 20.9197 14.8018 21.6456C14.828 21.6733 14.8542 21.7003 14.8802 21.7269C15.0975 21.9507 15.3438 22.2043 15.3438 22.6677C15.3438 23.4039 15.293 24.1468 15.1926 24.8757L14.2585 31.6591C14.2415 31.7828 14.1357 31.8749 14.0108 31.8749ZM8.75109 31.3749H13.7928L14.6972 24.8074C14.7946 24.1011 14.8438 23.3812 14.8438 22.6677C14.8438 22.4188 14.7333 22.2934 14.5215 22.0753C14.4938 22.0468 14.466 22.0181 14.4381 21.9887C13.8023 21.3149 13.0121 20.7757 12.153 20.4293C11.1763 20.0354 10.1063 19.8853 9.05947 19.9954L8.28335 20.0768C8.1916 20.0864 8.10134 20.0444 8.04972 19.9676L6.48622 17.6394C6.22335 17.2482 5.70584 17.1034 5.27884 17.3007L7.61597 21.6423C7.64197 21.6907 7.68459 21.7282 7.73572 21.7478L11.6785 23.2652C11.7407 23.2892 11.7907 23.3369 11.8176 23.3981C11.8445 23.4592 11.8457 23.5283 11.8212 23.5903L8.75109 31.3749Z" fill="#3762CC"/>
<path d="M4.31603 14.3577C4.30003 14.3577 4.28378 14.3562 4.26778 14.3529C4.18341 14.3363 4.11353 14.2775 4.08278 14.1973C3.96678 13.8957 3.86666 13.5887 3.78528 13.2848L3.07928 10.6495C2.82953 9.71804 3.19778 8.72604 3.99553 8.18129C4.05678 8.13954 4.13341 8.12691 4.20453 8.14716C4.27578 8.16729 4.33453 8.21804 4.36466 8.28566C4.58178 8.77116 4.88491 9.20691 5.26566 9.58079C5.32316 9.63729 5.34991 9.71791 5.33753 9.79754C5.18553 10.776 5.23866 11.758 5.49541 12.7163L5.67628 13.391C5.69366 13.4559 5.68416 13.525 5.65003 13.5829C5.61591 13.6407 5.55978 13.6824 5.49466 13.6984C5.11178 13.7927 4.76716 13.9934 4.49791 14.2789C4.45028 14.3298 4.38428 14.3577 4.31603 14.3577ZM4.04941 8.77916C3.58753 9.22216 3.39291 9.88904 3.56203 10.5202L4.26803 13.1554C4.31416 13.3272 4.36641 13.4999 4.42453 13.6723C4.63728 13.5072 4.87528 13.377 5.13041 13.2864L5.01241 12.8458C4.74853 11.8609 4.68553 10.8525 4.82491 9.84654C4.51641 9.52704 4.25653 9.16941 4.04941 8.77916Z" fill="#3762CC"/>
<path d="M21.1431 9.84883C21.1191 9.84883 21.095 9.84533 21.0713 9.83833C20.6955 9.72558 20.2966 9.72395 19.918 9.83383C19.8535 9.85233 19.7841 9.84445 19.7256 9.81145C19.6671 9.77845 19.6243 9.7232 19.607 9.65833L19.4261 8.98358C19.3655 8.75745 19.292 8.52958 19.2076 8.30633C19.1826 8.2402 19.1867 8.1667 19.219 8.10383C19.2512 8.04095 19.3085 7.9947 19.3767 7.97645L20.6673 7.63058C20.7315 7.6132 20.7996 7.62233 20.8571 7.65558C20.9145 7.6887 20.9563 7.74333 20.9736 7.80733L21.1915 8.62058C21.2728 8.92445 21.3397 9.24033 21.3901 9.5597C21.4035 9.64458 21.3723 9.73045 21.3076 9.78695C21.2615 9.82745 21.2028 9.84883 21.1431 9.84883ZM19.7682 8.3892C19.8203 8.5437 19.8675 8.6992 19.909 8.8542L20.0271 9.29483C20.2933 9.2457 20.5645 9.23933 20.8313 9.27608C20.7956 9.0977 20.7545 8.92195 20.7085 8.75008L20.5552 8.17833L19.7682 8.3892Z" fill="#3762CC"/>
</svg>
