<svg width="35" height="35" viewBox="0 0 35 35" fill="none" xmlns="http://www.w3.org/2000/svg">
<g clip-path="url(#clip0_850_52623)">
<path d="M33.3554 17.8148C33.6604 17.8324 33.9068 18.0714 33.9211 18.3767C33.9892 19.8316 33.5715 23.895 27.9138 29.0811C22.6511 33.9052 16.7672 33.9573 13.6324 30.8225L4.48476 21.6747C3.78893 20.9789 3.78893 19.8508 4.48476 19.155L16.5156 7.12417C17.2114 6.42834 18.3396 6.42834 19.0353 7.12417C19.0353 7.12417 28.9062 17.5566 33.3554 17.8148Z" fill="#FFE285"/>
<path d="M19.0353 7.12417C18.3395 6.42834 17.2114 6.42834 16.5156 7.12417L4.48476 19.155C3.78893 19.8508 3.78893 20.9789 4.48476 21.6747L8.69262 25.8826L23.299 11.2762C20.8628 9.05532 19.0353 7.12417 19.0353 7.12417Z" fill="#F7C14D"/>
<path d="M19.5983 16.0153C19.7503 16.0153 19.9023 15.9573 20.0182 15.8414C20.2502 15.6093 20.2502 15.2334 20.0182 15.0014L17.8653 12.8485L17.0254 13.6884L19.1783 15.8414C19.2943 15.9573 19.4463 16.0153 19.5983 16.0153Z" fill="#F09B24"/>
<path d="M17.8154 20.7666C17.9674 20.7666 18.1194 20.7086 18.2354 20.5927C18.4674 20.3606 18.4674 19.9847 18.2354 19.7527L14.5977 16.1151L13.7578 16.955L17.3954 20.5927C17.5114 20.7085 17.6635 20.7666 17.8154 20.7666Z" fill="#F09B24"/>
<path d="M13.3621 22.8452C13.514 22.8452 13.666 22.7872 13.782 22.6713C14.014 22.4393 14.014 22.0633 13.782 21.8313L11.3321 19.3815L10.4922 20.2214L12.9421 22.6713C13.0581 22.7872 13.2101 22.8452 13.3621 22.8452Z" fill="#F09B24"/>
<path d="M28.4962 22.1739C27.2705 21.6384 26.5672 20.9563 26.55 20.9394C26.318 20.7084 25.9427 20.7089 25.7111 20.9404C25.4791 21.1724 25.4791 21.5483 25.7111 21.7803C25.8199 21.8891 27.9999 24.0196 31.6118 24.0196C31.8033 24.0196 31.9992 24.0133 32.1986 24.0006C32.4635 23.5585 32.6886 23.1349 32.8804 22.7315C31.3553 22.9657 29.884 22.7802 28.4962 22.1739Z" fill="#F09B24"/>
<path d="M24.212 24.5433C24.002 24.2915 23.6277 24.2576 23.3758 24.4675C23.1238 24.6774 23.0898 25.052 23.2998 25.3039C23.4078 25.4336 25.5835 28.0128 28.1811 28.8328C28.5345 28.5012 28.8663 28.1746 29.1782 27.853C26.6903 27.4769 24.2382 24.5747 24.212 24.5433Z" fill="#F09B24"/>
<path d="M19.1779 28.0673C18.9459 28.2993 18.9459 28.6752 19.1779 28.9072C19.2917 29.021 21.0865 30.8063 23.0164 32.2087C23.4349 32.047 23.8558 31.8588 24.2777 31.6433C22.6237 30.5291 20.7959 28.8452 20.0177 28.0672C19.7859 27.8354 19.4098 27.8353 19.1779 28.0673Z" fill="#F09B24"/>
<path d="M13.3664 11.9151L9.16684 16.1147L0.347864 7.29568C-0.115955 6.83186 -0.115955 6.07977 0.347864 5.61588L2.86759 3.09615C3.33141 2.63234 4.0835 2.63234 4.54739 3.09615L13.3664 11.9151Z" fill="#69788D"/>
<path d="M6.22367 13.1702L9.16797 16.1145L13.3674 11.9151L10.4231 8.97079L6.22367 13.1702Z" fill="#56677E"/>
<path d="M19.0353 7.12417C18.3395 6.42834 17.2114 6.42834 16.5156 7.12417L4.48476 19.155C3.78893 19.8508 3.78893 20.9789 4.48476 21.6747L7.35634 24.5463L21.9153 9.98719C20.2028 8.35799 19.0353 7.12417 19.0353 7.12417Z" fill="#69788D"/>
<path d="M15.2096 3.12021C15.0185 2.95669 14.8392 2.77752 14.6771 2.58776C14.1626 1.98544 13.8028 1.26446 13.6076 0.444829C13.5479 0.194087 13.3238 0.0169678 13.066 0.0169678C12.8081 0.0169678 12.5841 0.194019 12.5244 0.444829C12.3292 1.26446 11.9694 1.98551 11.4549 2.58769C11.2927 2.77752 11.1136 2.95663 10.9224 3.12021C10.6665 3.33903 10.6665 3.74761 10.9224 3.96636C11.1135 4.12988 11.2927 4.30905 11.4548 4.49881C11.9694 5.10113 12.3292 5.82211 12.5244 6.64174C12.5841 6.89249 12.8082 7.0696 13.066 7.0696C13.3238 7.0696 13.5479 6.89255 13.6076 6.64174C13.8028 5.82211 14.1626 5.10106 14.6771 4.49888C14.8392 4.30905 15.0184 4.12995 15.2096 3.96636C15.4655 3.74761 15.4655 3.33903 15.2096 3.12021Z" fill="#3CBDE8"/>
<path d="M34.8073 31.0335C34.6161 30.87 34.4369 30.6909 34.2748 30.5011C33.7603 29.8988 33.4004 29.1778 33.2053 28.3582C33.1456 28.1074 32.9214 27.9303 32.6636 27.9303C32.4059 27.9303 32.1817 28.1073 32.122 28.3582C31.9269 29.1778 31.567 29.8988 31.0525 30.501C30.8904 30.6909 30.7112 30.87 30.52 31.0335C30.2642 31.2524 30.2642 31.6609 30.52 31.8797C30.7112 32.0432 30.8904 32.2224 31.0525 32.4121C31.567 33.0145 31.9269 33.7354 32.122 34.5551C32.1817 34.8058 32.4059 34.9829 32.6636 34.9829C32.9214 34.9829 33.1456 34.8059 33.2053 34.5551C33.4004 33.7354 33.7603 33.0144 34.2747 32.4122C34.4369 32.2224 34.6161 32.0433 34.8073 31.8797C35.0631 31.6609 35.0631 31.2523 34.8073 31.0335Z" fill="#3CBDE8"/>
<path d="M9.86389 31.0335C9.67276 30.87 9.49352 30.6909 9.33144 30.5011C8.8169 29.8988 8.45706 29.1778 8.26189 28.3582C8.20221 28.1074 7.97806 27.9303 7.72028 27.9303C7.4625 27.9303 7.23835 28.1073 7.17867 28.3582C6.9835 29.1778 6.62366 29.8988 6.10919 30.501C5.94704 30.6909 5.76787 30.87 5.57667 31.0335C5.3208 31.2524 5.3208 31.6609 5.57667 31.8797C5.7678 32.0432 5.94704 32.2224 6.10912 32.4121C6.62366 33.0145 6.9835 33.7354 7.17867 34.5551C7.23835 34.8058 7.4625 34.9829 7.72028 34.9829C7.97806 34.9829 8.20221 34.8059 8.26189 34.5551C8.45706 33.7354 8.8169 33.0144 9.33137 32.4122C9.49352 32.2224 9.67269 32.0433 9.86389 31.8797C10.1198 31.6609 10.1198 31.2523 9.86389 31.0335Z" fill="#3CBDE8"/>
</g>
<defs>
<clipPath id="clip0_850_52623">
<rect width="35" height="35" fill="white"/>
</clipPath>
</defs>
</svg>
