<svg width="35" height="35" viewBox="0 0 35 35" fill="none" xmlns="http://www.w3.org/2000/svg">
<g clip-path="url(#clip0_850_52655)">
<path d="M9.84803 7.67462C8.83044 7.19897 7.76717 6.86613 6.66016 6.6698C4.98884 6.37333 3.25689 6.79805 1.96442 7.89843C1.91807 7.93787 1.87241 7.97779 1.82743 8.01819C-0.486127 10.0954 -0.608148 13.6841 1.4911 15.9775C1.87268 16.3945 2.27915 16.792 2.71159 17.1691C4.31803 18.5704 4.63098 20.9671 3.36114 22.6793C3.34521 22.7008 3.32935 22.7224 3.31356 22.7441C2.29678 24.145 2.26712 26.0304 3.22893 27.4696C3.2614 27.5182 3.29408 27.5667 3.32703 27.6148C6.20113 31.8242 11.2082 34.051 16.2712 33.4639C21.2146 32.8907 25.8479 31.7769 30.1278 30.0473C34.9703 28.0904 36.5841 21.9682 33.222 17.9712C33.1705 17.9099 33.1182 17.8494 33.0651 17.7896C31.9351 16.516 31.7775 14.6577 32.6993 13.2262C32.7129 13.205 32.7265 13.1837 32.7399 13.1624C34.1057 11.0019 33.4287 8.05757 31.2612 6.70289C29.587 5.65651 27.6167 5.12816 25.3351 5.14402C22.6733 5.18565 20.276 5.90452 18.1202 7.2417C15.6208 8.79195 12.5125 8.91999 9.84803 7.67462Z" fill="#6C5E69"/>
<path d="M33.2222 17.9713C33.1707 17.9101 33.1184 17.8496 33.0653 17.7897C31.9353 16.5161 31.7777 14.6578 32.6995 13.2263C32.7131 13.2051 32.7267 13.1838 32.7401 13.1626C34.1059 11.002 33.4289 8.05769 31.2614 6.70301C29.5872 5.65664 27.6169 5.12829 25.3353 5.14415C23.5075 5.17272 21.8045 5.52074 20.2188 6.16885C21.1342 5.9702 22.0845 5.86117 23.0715 5.84579C25.353 5.82993 27.3233 6.35834 28.9975 7.40465C31.1651 8.75933 31.842 11.7036 30.4763 13.8642C30.4628 13.8855 30.4493 13.9067 30.4356 13.928C29.5138 15.3595 29.6714 17.2178 30.8015 18.4914C30.8546 18.5513 30.9069 18.6118 30.9583 18.673C34.3205 22.67 32.7066 28.7923 27.8641 30.7492C27.0113 31.0938 26.1439 31.4129 25.2634 31.7092C26.9312 31.2359 28.5537 30.6837 30.128 30.0475C34.9705 28.0905 36.5843 21.9683 33.2222 17.9713Z" fill="#574D56"/>
<path d="M25.7224 11.2904C26.2591 9.24131 26.8534 6.48499 27.2181 4.40024C27.4424 3.11836 26.6018 1.89138 25.3275 1.62731L24.6826 1.49366C23.4187 1.23171 22.1728 2.00998 21.8517 3.26021C21.3217 5.32418 20.7798 8.10497 20.5098 10.2229C22.1592 11.0035 23.8968 11.3595 25.7224 11.2904Z" fill="#60B7FF"/>
<path d="M27.215 4.41135C27.4403 3.1251 26.605 1.89224 25.3264 1.62728L24.6814 1.49363C24.5589 1.46827 24.4366 1.45289 24.3152 1.44653C25.3861 1.84514 26.0532 2.95857 25.8505 4.11706C25.5836 5.64264 25.1938 7.52778 24.7936 9.23232C24.5356 10.331 23.4871 11.0652 22.3693 10.9099C22.3627 10.909 22.3562 10.908 22.3496 10.9071C23.438 11.2061 24.5619 11.3344 25.7214 11.2904C26.257 9.24497 26.8501 6.49474 27.215 4.41135Z" fill="#26A6FE"/>
<path d="M24.6666 4.92921C24.2116 4.92921 23.7854 4.76063 23.4103 4.42813C23.192 4.23467 23.1718 3.90088 23.3654 3.6826C23.5588 3.46433 23.8926 3.44417 24.1109 3.63769C24.376 3.87264 24.6443 3.92829 24.981 3.81802C25.2584 3.72731 25.5566 3.87825 25.6473 4.15551C25.7382 4.43264 25.5871 4.7311 25.3098 4.82181C25.0909 4.89352 24.8757 4.92921 24.6666 4.92921Z" fill="#26A6FE"/>
<path d="M28.3275 12.9235C28.1286 12.9235 27.9381 12.8107 27.8485 12.6184C27.7251 12.3542 27.8395 12.0398 28.1039 11.9165C28.3461 11.8035 28.4074 11.6831 28.3559 11.4206C28.2997 11.1344 28.4863 10.8569 28.7726 10.8008C29.0588 10.7446 29.3363 10.9312 29.3924 11.2174C29.5368 11.9532 29.2299 12.557 28.5503 12.8738C28.4782 12.9075 28.4022 12.9235 28.3275 12.9235Z" fill="#574D56"/>
<path d="M29.0989 14.0145C28.9001 14.0145 28.7096 13.9016 28.62 13.7094C28.4966 13.4451 28.611 13.1308 28.8753 13.0075C29.5927 12.673 29.8446 12.1773 29.6922 11.4005C29.636 11.1143 29.8225 10.8367 30.1088 10.7806C30.3951 10.7245 30.6726 10.9109 30.7288 11.1972C30.9771 12.4627 30.4906 13.4197 29.3219 13.9649C29.2496 13.9985 29.1737 14.0145 29.0989 14.0145Z" fill="#574D56"/>
<path d="M11.5093 20.3574C11.0187 17.9116 12.9792 15.6271 15.4682 15.7932C15.5084 15.7959 15.5489 15.7992 15.5895 15.803C18.1912 16.0518 18.7404 18.2989 21.1199 19.0342C23.4994 19.7695 25.7889 23.0569 22.6536 26.612C19.5182 30.167 17.9346 25.3492 14.7115 25.0675C12.8028 24.9007 11.9155 22.3831 11.5093 20.3574Z" fill="#9FF497"/>
<path d="M21.1191 19.0342C18.7396 18.2989 18.1904 16.0518 15.5887 15.803C15.5481 15.7991 15.5076 15.7958 15.4673 15.7932C14.5734 15.7335 13.7486 15.9911 13.0801 16.4576C13.2234 16.4507 13.3688 16.4513 13.5162 16.4612C13.5565 16.4639 13.5969 16.4671 13.6375 16.471C16.2392 16.7198 16.7884 18.9669 19.168 19.7022C21.5475 20.4374 23.837 23.7249 20.7016 27.2799C20.49 27.5199 20.2857 27.7205 20.0873 27.8881C20.8566 28.0115 21.68 27.7149 22.6528 26.6119C25.7882 23.0569 23.4987 19.7694 21.1191 19.0342Z" fill="#6CE79A"/>
<path d="M6.40737 10.1309C5.5807 10.1168 4.807 10.5876 4.47744 11.3459C4.27647 11.8084 4.24297 12.3555 4.68956 12.8947C5.80601 14.2427 6.50375 12.2443 8.92265 14.1032C10.4529 15.2792 12.7561 10.2397 6.40737 10.1309Z" fill="#9FF497"/>
<path d="M29.9716 23.1304C29.5176 23.1304 29.267 22.9371 29.1012 22.8093C28.9898 22.7233 28.9697 22.7079 28.8758 22.7079C28.7819 22.7079 28.7618 22.7233 28.6504 22.8093C28.4845 22.9371 28.2339 23.1304 27.78 23.1304C27.3261 23.1304 27.0754 22.9371 26.9096 22.8092C26.7983 22.7233 26.7783 22.7079 26.6844 22.7079C26.3926 22.7079 26.1562 22.4714 26.1562 22.1798C26.1562 21.888 26.3927 21.6516 26.6844 21.6516C27.1383 21.6516 27.3889 21.8449 27.5547 21.9728C27.666 22.0587 27.6861 22.0741 27.78 22.0741C27.8739 22.0741 27.894 22.0587 28.0054 21.9728C28.1713 21.8449 28.4219 21.6516 28.8758 21.6516C29.3297 21.6516 29.5804 21.8449 29.7462 21.9728C29.8576 22.0587 29.8777 22.0741 29.9716 22.0741C30.2633 22.0741 30.4997 22.3106 30.4997 22.6023C30.4997 22.894 30.2633 23.1304 29.9716 23.1304Z" fill="#574D56"/>
<path d="M25.4032 15.0203C24.9493 15.0203 24.6987 14.827 24.5328 14.6992C24.4215 14.6132 24.4014 14.5978 24.3074 14.5978C24.2136 14.5978 24.1935 14.6132 24.0821 14.6991C23.9163 14.827 23.6656 15.0203 23.2117 15.0203C22.7577 15.0203 22.5071 14.827 22.3413 14.6991C22.23 14.6132 22.2099 14.5978 22.116 14.5978C21.8243 14.5978 21.5879 14.3613 21.5879 14.0696C21.5879 13.778 21.8243 13.5415 22.116 13.5415C22.57 13.5415 22.8206 13.7348 22.9864 13.8627C23.0977 13.9486 23.1178 13.964 23.2117 13.964C23.3056 13.964 23.3257 13.9486 23.4371 13.8627C23.6029 13.7348 23.8536 13.5415 24.3074 13.5415C24.7614 13.5415 25.012 13.7348 25.1779 13.8627C25.2892 13.9486 25.3093 13.964 25.4032 13.964C25.695 13.964 25.9314 14.2005 25.9314 14.4922C25.9314 14.7839 25.695 15.0203 25.4032 15.0203Z" fill="#574D56"/>
<path d="M9.40721 17.9186C8.95323 17.9186 8.70263 17.7253 8.53679 17.5975C8.42543 17.5116 8.40533 17.4961 8.31141 17.4961C8.21748 17.4961 8.19738 17.5116 8.08603 17.5975C7.92012 17.7253 7.66951 17.9186 7.21561 17.9186C6.7617 17.9186 6.51103 17.7253 6.34525 17.5974C6.2339 17.5116 6.2138 17.4961 6.11994 17.4961C5.82818 17.4961 5.5918 17.2597 5.5918 16.968C5.5918 16.6762 5.82825 16.4398 6.11994 16.4398C6.57392 16.4398 6.82452 16.6331 6.99029 16.761C7.10165 16.8469 7.12175 16.8623 7.21561 16.8623C7.30953 16.8623 7.32963 16.8469 7.44099 16.761C7.60689 16.6331 7.8575 16.4398 8.31141 16.4398C8.76531 16.4398 9.01599 16.6331 9.18183 16.761C9.29318 16.8469 9.31328 16.8623 9.40721 16.8623C9.69897 16.8623 9.93535 17.0988 9.93535 17.3905C9.93535 17.6822 9.69897 17.9186 9.40721 17.9186Z" fill="#574D56"/>
<path d="M11.0517 28.2851C10.5977 28.2851 10.3471 28.0918 10.1813 27.9639C10.0699 27.878 10.0498 27.8626 9.95587 27.8626C9.86201 27.8626 9.84191 27.878 9.73056 27.9639C9.56472 28.0918 9.31404 28.2851 8.86014 28.2851C8.40616 28.2851 8.15556 28.0918 7.98978 27.9639C7.87843 27.878 7.85833 27.8626 7.76447 27.8626C7.47271 27.8626 7.23633 27.6261 7.23633 27.3344C7.23633 27.0427 7.47278 26.8063 7.76447 26.8063C8.21845 26.8063 8.46905 26.9996 8.63482 27.1275C8.74618 27.2134 8.76628 27.2288 8.86014 27.2288C8.95406 27.2288 8.97416 27.2134 9.08552 27.1274C9.25136 26.9996 9.50203 26.8063 9.95587 26.8063C10.4098 26.8063 10.6604 26.9996 10.8263 27.1274C10.9376 27.2134 10.9577 27.2288 11.0517 27.2288C11.3434 27.2288 11.5798 27.4653 11.5798 27.7569C11.5798 28.0486 11.3434 28.2851 11.0517 28.2851Z" fill="#574D56"/>
<path d="M13.7835 12.1737C13.5988 12.1737 13.4196 12.0767 13.3227 11.9043L13.1832 11.6563C13.0401 11.402 13.1303 11.0799 13.3847 10.937C13.6388 10.7941 13.9609 10.8842 14.1039 11.1385L14.2434 11.3866C14.3864 11.6409 14.2962 11.9629 14.0419 12.1059C13.9601 12.1519 13.8712 12.1737 13.7835 12.1737Z" fill="#574D56"/>
<path d="M15.4886 30.3312C15.3039 30.3312 15.1247 30.2341 15.0278 30.0617L14.8882 29.8137C14.7452 29.5594 14.8354 29.2373 15.0898 29.0944C15.3439 28.9514 15.666 29.0416 15.809 29.2959L15.9485 29.544C16.0915 29.7983 16.0013 30.1203 15.747 30.2633C15.6651 30.3093 15.5763 30.3312 15.4886 30.3312Z" fill="#574D56"/>
<path d="M9.37398 24.5861C9.2348 24.5861 9.0959 24.5314 8.99206 24.4229C8.79053 24.212 8.79805 23.8777 9.00887 23.6761L9.21464 23.4794C9.42559 23.2777 9.75987 23.2855 9.96146 23.4962C10.163 23.7071 10.1555 24.0414 9.94465 24.243L9.73888 24.4397C9.63655 24.5375 9.50516 24.5861 9.37398 24.5861Z" fill="#574D56"/>
<path d="M27.972 18.2666C27.8097 18.2666 27.6496 18.192 27.546 18.0512C27.3733 17.8162 27.4236 17.4856 27.6587 17.3128L27.8881 17.1442C28.1232 16.9714 28.4537 17.0218 28.6265 17.2569C28.7992 17.4919 28.7489 17.8225 28.5138 17.9953L28.2844 18.1639C28.1902 18.2332 28.0805 18.2666 27.972 18.2666Z" fill="#574D56"/>
<path d="M31.0469 24.7795C30.939 24.7795 30.8301 24.7465 30.7362 24.6781L30.5061 24.5104C30.2704 24.3386 30.2186 24.0082 30.3905 23.7724C30.5623 23.5368 30.8925 23.485 31.1284 23.6568L31.3584 23.8245C31.5941 23.9963 31.646 24.3266 31.4741 24.5624C31.3707 24.7043 31.2099 24.7795 31.0469 24.7795Z" fill="#574D56"/>
<path d="M19.8489 13.7762C19.6867 13.7762 19.5266 13.7016 19.4231 13.5609C19.2502 13.3259 19.3005 12.9954 19.5356 12.8225L19.7648 12.6538C19.9997 12.481 20.3304 12.5313 20.5032 12.7662C20.6761 13.0012 20.6258 13.3318 20.3908 13.5046L20.1615 13.6733C20.0673 13.7427 19.9575 13.7762 19.8489 13.7762Z" fill="#574D56"/>
<path d="M25.5188 28.1582C25.3565 28.1582 25.1964 28.0837 25.0929 27.9429C24.9201 27.7079 24.9705 27.3773 25.2055 27.2045L25.4348 27.0358C25.6698 26.863 26.0004 26.9134 26.1732 27.1484C26.346 27.3835 26.2957 27.714 26.0606 27.8869L25.8314 28.0555C25.7372 28.1248 25.6275 28.1582 25.5188 28.1582Z" fill="#574D56"/>
<path d="M6.58817 20.5934C6.40353 20.5934 6.2243 20.4965 6.12736 20.324L5.98784 20.076C5.84483 19.8217 5.935 19.4996 6.18936 19.3567C6.44352 19.2138 6.76557 19.3038 6.90857 19.5582L7.04809 19.8063C7.1911 20.0606 7.10094 20.3826 6.84657 20.5256C6.76468 20.5716 6.67588 20.5934 6.58817 20.5934Z" fill="#574D56"/>
<path d="M25.288 11.826C22.9212 11.826 20.6853 11.1333 18.6163 9.75516C18.3735 9.59342 18.3078 9.26557 18.4695 9.02276C18.6312 8.78008 18.9591 8.71425 19.2019 8.87599C21.6949 10.5366 24.4537 11.1081 27.4012 10.5753C27.6884 10.523 27.963 10.7139 28.0149 11.0009C28.0669 11.288 27.8762 11.5628 27.5892 11.6147C26.8097 11.7557 26.0422 11.826 25.288 11.826Z" fill="#574D56"/>
</g>
<defs>
<clipPath id="clip0_850_52655">
<rect width="35" height="35" fill="white"/>
</clipPath>
</defs>
</svg>
