<svg width="32" height="32" viewBox="0 0 32 32" fill="none" xmlns="http://www.w3.org/2000/svg">
<g clip-path="url(#clip0_850_52286)">
<path d="M16.0002 13.0081C19.5923 13.0081 22.5042 10.0962 22.5042 6.50406C22.5042 2.91197 19.5923 0 16.0002 0C12.4081 0 9.49609 2.91197 9.49609 6.50406C9.49609 10.0962 12.4081 13.0081 16.0002 13.0081Z" fill="#FFE177"/>
<path d="M19.067 0.768311C19.5568 1.68225 19.8353 2.72644 19.8353 3.83587C19.8353 7.42794 16.9233 10.3399 13.3312 10.3399C12.2217 10.3399 11.1776 10.0615 10.2637 9.57169C11.3597 11.6168 13.5168 13.0082 15.9995 13.0082C19.5916 13.0082 22.5035 10.0962 22.5035 6.50412C22.5035 4.02144 21.1121 1.86437 19.067 0.768311Z" fill="#FFD15B"/>
<path d="M19.2173 6.88818C19.6086 6.88818 19.9059 7.24412 19.8322 7.62837C19.4863 9.42968 17.902 10.7906 15.9998 10.7906C14.0977 10.7906 12.5133 9.42968 12.1675 7.62837C12.0938 7.24412 12.391 6.88818 12.7823 6.88818H19.2173Z" fill="#FE93D3"/>
<path d="M21.0588 17.1191L19.0469 22.647C18.176 25.0398 19.4097 27.6856 21.8026 28.5565C24.1954 29.4275 26.8412 28.1937 27.7121 25.8008L29.7241 20.273L21.0588 17.1191Z" fill="#FED2A4"/>
<path d="M27.4818 19.4574L25.4699 24.9852C24.7401 26.9905 22.7637 28.1808 20.7344 28.0016C21.0571 28.2271 21.4137 28.4155 21.8013 28.5565C24.1941 29.4275 26.8399 28.1937 27.7109 25.8008L29.7228 20.273L27.4818 19.4574Z" fill="#FFBD86"/>
<path d="M27.8652 11.8984C24.606 10.7121 21.0022 12.3926 19.816 15.6518L18.375 19.6109L20.4875 18.6878C21.2185 19.7727 22.3649 19.8014 23.1566 19.6548C23.4442 19.6015 23.568 20.0005 23.3008 20.1195C23.2934 20.1228 23.2861 20.126 23.2788 20.1292C23.0627 20.2224 23.0911 20.538 23.3202 20.5918C25.7386 21.16 27.5601 20.3285 28.2023 19.9658C28.3353 19.8906 28.5034 19.955 28.5531 20.0995L29.1527 21.8417L30.1776 23.9066L31.6186 19.9475C32.8048 16.6884 31.1244 13.0846 27.8652 11.8984Z" fill="#9C9C9C"/>
<path d="M27.8648 11.8984C27.4815 11.7589 27.0934 11.6605 26.7051 11.5981C29.2376 13.1129 30.4239 16.256 29.3771 19.1319L28.7822 20.7665L29.1522 21.8417L30.1771 23.9066L31.6181 19.9475C32.8044 16.6884 31.124 13.0846 27.8648 11.8984Z" fill="#838383"/>
<path d="M28.9608 25.156L28.0645 24.8298L29.152 21.8418L30.0484 22.168C30.8735 22.4684 31.299 23.3807 30.9986 24.2058C30.6983 25.0309 29.786 25.4564 28.9608 25.156Z" fill="#F6A96C"/>
<path d="M19.5912 18.3617L20.4875 18.6879L19.4 21.676L18.5036 21.3497C17.6785 21.0494 17.253 20.1371 17.5533 19.3119C17.8537 18.4868 18.7661 18.0614 19.5912 18.3617Z" fill="#F6A96C"/>
<path d="M24.7736 25.0696C25.1891 25.2209 25.319 25.7426 25.0261 26.0738C24.4073 26.7734 23.4012 27.0618 22.4704 26.723C21.5391 26.384 20.9536 25.5157 20.9299 24.5815C20.9187 24.1401 21.354 23.8249 21.7689 23.9759L24.7736 25.0696Z" fill="#FE93D3"/>
<path d="M1.48633 21.271L4.28677 28.9651C5.1577 31.3579 7.80345 32.5916 10.1963 31.7208C12.5891 30.8498 13.8229 28.2041 12.952 25.8112L10.1516 18.1171L1.48633 21.271Z" fill="#FED2A4"/>
<path d="M8.11914 19.5046L10.7114 26.6268C11.4413 28.632 10.6925 30.8143 9.0227 31.9814C9.41495 31.9468 9.80914 31.8618 10.1968 31.7207C12.5896 30.8498 13.8233 28.204 12.9525 25.8112L10.3602 18.689L8.11914 19.5046Z" fill="#FFBD86"/>
<path d="M4.13387 15.0626C0.874686 16.2488 -0.805814 19.8526 0.380436 23.1118L1.82144 27.0709L2.84637 25.0059L4.29987 23.4895C4.49887 23.2819 4.84944 23.3906 4.89606 23.6744C4.94337 23.9623 5.30225 24.0684 5.49856 23.8525L8.33225 20.735C8.43256 20.6246 8.59194 20.5903 8.72887 20.6494L11.5116 21.8521L13.6241 22.7751L12.1831 18.816C10.9968 15.5568 7.39306 13.8763 4.13387 15.0626Z" fill="#9C9C9C"/>
<path d="M4.13405 15.0626C3.75073 15.2021 3.39023 15.3761 3.05273 15.578C5.96648 15.1105 8.89555 16.7557 9.9423 19.6316L10.6084 21.4616L11.5119 21.8521L13.6244 22.7751L12.1834 18.816C10.997 15.5568 7.39323 13.8763 4.13405 15.0626Z" fill="#838383"/>
<path d="M13.4957 24.5138L12.5993 24.84L11.5117 21.852L12.4081 21.5258C13.2332 21.2254 14.1455 21.6509 14.4458 22.476C14.7462 23.3011 14.3208 24.2134 13.4957 24.5138Z" fill="#F6A96C"/>
<path d="M1.9508 25.3322L2.84717 25.006L3.93473 27.994L3.03836 28.3202C2.21323 28.6205 1.30092 28.1951 1.00061 27.37C0.700296 26.5449 1.12573 25.6325 1.9508 25.3322Z" fill="#F6A96C"/>
<path d="M7.21559 28.2375C6.80009 28.3887 6.67021 28.9105 6.96315 29.2416C7.5819 29.9413 8.58803 30.2296 9.51884 29.8908C10.4501 29.5519 11.0357 28.6836 11.0593 27.7494C11.0705 27.308 10.6353 26.9927 10.2203 27.1438L7.21559 28.2375Z" fill="#FE93D3"/>
<path d="M13.832 5.12996C13.5731 5.12996 13.3633 4.92015 13.3633 4.66121V3.57715C13.3633 3.31821 13.5731 3.1084 13.832 3.1084C14.091 3.1084 14.3008 3.31821 14.3008 3.57715V4.66121C14.3008 4.92015 14.0909 5.12996 13.832 5.12996Z" fill="#FE860A"/>
<path d="M18.168 5.12996C17.909 5.12996 17.6992 4.92015 17.6992 4.66121V3.57715C17.6992 3.31821 17.909 3.1084 18.168 3.1084C18.4269 3.1084 18.6367 3.31821 18.6367 3.57715V4.66121C18.6367 4.92015 18.4269 5.12996 18.168 5.12996Z" fill="#FE860A"/>
<path d="M27.1348 8.00837C27.0149 8.00837 26.8949 7.96262 26.8033 7.87112C26.6203 7.688 26.6203 7.39125 26.8033 7.20819L27.7231 6.28837C27.9063 6.10537 28.203 6.10537 28.3861 6.28837C28.5691 6.4715 28.5691 6.76825 28.3861 6.95131L27.4662 7.87112C27.3747 7.96256 27.2547 8.00837 27.1348 8.00837Z" fill="#62DBFB"/>
<path d="M29.4082 9.71008H28.1074C27.8485 9.71008 27.6387 9.50027 27.6387 9.24133C27.6387 8.9824 27.8485 8.77258 28.1074 8.77258H29.4082C29.6671 8.77258 29.8769 8.9824 29.8769 9.24133C29.8769 9.50027 29.667 9.71008 29.4082 9.71008Z" fill="#62DBFB"/>
<path d="M25.4336 7.03604C25.1747 7.03604 24.9648 6.82623 24.9648 6.56729V5.26648C24.9648 5.00754 25.1747 4.79773 25.4336 4.79773C25.6925 4.79773 25.9023 5.00754 25.9023 5.26648V6.56729C25.9023 6.82623 25.6925 7.03604 25.4336 7.03604Z" fill="#62DBFB"/>
<path d="M3.562 13.1291C3.35906 13.1291 3.17206 12.9963 3.11225 12.7918L2.74743 11.5431C2.67487 11.2946 2.81743 11.0343 3.06593 10.9617C3.3145 10.8891 3.57475 11.0317 3.64737 11.2802L4.01218 12.5288C4.08475 12.7773 3.94218 13.0376 3.69368 13.1103C3.64975 13.1231 3.6055 13.1291 3.562 13.1291Z" fill="#62DBFB"/>
<path d="M1.89057 14.1544C1.81445 14.1544 1.73726 14.1358 1.66576 14.0967L0.524884 13.4718C0.297821 13.3474 0.214634 13.0625 0.338946 12.8354C0.463384 12.6083 0.748321 12.5252 0.975321 12.6495L2.1162 13.2744C2.34326 13.3988 2.42645 13.6837 2.30213 13.9108C2.21688 14.0664 2.05632 14.1544 1.89057 14.1544Z" fill="#62DBFB"/>
<path d="M5.52118 13.0939C5.44506 13.0939 5.36787 13.0753 5.29637 13.0362C5.06931 12.9118 4.98612 12.6269 5.11043 12.3998L5.73543 11.259C5.85987 11.032 6.14474 10.9488 6.37181 11.073C6.59887 11.1974 6.68206 11.4823 6.55774 11.7094L5.93274 12.8503C5.84749 13.0059 5.68693 13.0939 5.52118 13.0939Z" fill="#62DBFB"/>
</g>
<defs>
<clipPath id="clip0_850_52286">
<rect width="32" height="32" fill="white"/>
</clipPath>
</defs>
</svg>
