<svg width="35" height="35" viewBox="0 0 35 35" fill="none" xmlns="http://www.w3.org/2000/svg">
<g clip-path="url(#clip0_850_52707)">
<path d="M21.9856 23.6576L18.5331 21.7771C18.0785 21.528 17.5283 21.528 17.0738 21.7771L13.2772 23.8652C13.2083 23.9018 13.1369 23.9335 13.0636 23.9602L10.6789 22.839L11.5568 18.5085L11.6755 17.7669C11.7668 17.2177 11.5905 16.6579 11.2009 16.2602L8.20512 13.2347C7.76136 12.7867 7.5983 12.1318 7.78018 11.5279C7.96207 10.9241 8.45975 10.4682 9.07716 10.3398L13.2594 9.69914C13.786 9.61326 14.2354 9.27071 14.4577 8.78558L16.3441 4.78728C16.5909 4.22173 17.1488 3.85566 17.7659 3.85437C18.383 3.85309 18.9424 4.21683 19.1916 4.78135L21.0958 8.76779C21.3181 9.25291 21.7674 9.59546 22.2941 9.68135L26.4822 10.3042C27.1015 10.4274 27.603 10.8808 27.7877 11.4845C27.9724 12.0883 27.8105 12.7447 27.3661 13.1932L24.3822 16.2305C24.0025 16.6196 23.8269 17.164 23.9077 17.7017L24.9161 22.839L21.9856 23.6576Z" fill="#F29C1F"/>
<path d="M24.3811 16.2306C24.0014 16.6196 23.8258 17.1641 23.9065 17.7017L24.915 22.839L21.9845 23.6577L18.532 21.7772C18.0774 21.528 17.5272 21.528 17.0726 21.7772L13.276 23.8653C13.2071 23.9019 13.1358 23.9336 13.0625 23.9602L10.6777 22.839L11.0633 20.9407C21.7176 19.3272 19.4752 7.44496 18.6269 4.12292C18.8736 4.28432 19.0691 4.51275 19.1904 4.7814L21.0947 8.76784C21.317 9.25297 21.7663 9.59551 22.293 9.6814L26.4811 10.3043C27.1004 10.4274 27.6018 10.8809 27.7866 11.4846C27.9713 12.0883 27.8093 12.7447 27.365 13.1933L24.3811 16.2306Z" fill="#E57E25"/>
<path d="M3.55985 13.9406C3.23223 13.9406 2.96663 13.675 2.96663 13.3474C2.96663 12.3645 2.16985 11.5677 1.18697 11.5677C0.859344 11.5677 0.59375 11.3022 0.59375 10.9745C0.59375 10.6469 0.859344 10.3813 1.18697 10.3813C2.16985 10.3813 2.96663 9.58452 2.96663 8.60164C2.96663 8.27402 3.23223 8.00842 3.55985 8.00842C3.88748 8.00842 4.15307 8.27402 4.15307 8.60164C4.15307 9.58452 4.94985 10.3813 5.93273 10.3813C6.26036 10.3813 6.52595 10.6469 6.52595 10.9745C6.52595 11.3022 6.26036 11.5677 5.93273 11.5677C4.94985 11.5677 4.15307 12.3645 4.15307 13.3474C4.15307 13.675 3.88748 13.9406 3.55985 13.9406Z" fill="#FF5364"/>
<path d="M29.6614 10.3813C29.3338 10.3813 29.0682 10.1157 29.0682 9.78808C29.0682 8.8052 28.2714 8.00842 27.2885 8.00842C26.9609 8.00842 26.6953 7.74283 26.6953 7.4152C26.6953 7.08757 26.9609 6.82198 27.2885 6.82198C28.2714 6.82198 29.0682 6.0252 29.0682 5.04232C29.0682 4.71469 29.3338 4.4491 29.6614 4.4491C29.989 4.4491 30.2546 4.71469 30.2546 5.04232C30.2546 6.0252 31.0514 6.82198 32.0343 6.82198C32.3619 6.82198 32.6275 7.08757 32.6275 7.4152C32.6275 7.74283 32.3619 8.00842 32.0343 8.00842C31.0514 8.00842 30.2546 8.8052 30.2546 9.78808C30.2546 10.1157 29.989 10.3813 29.6614 10.3813Z" fill="#955BA5"/>
<path d="M10.1769 27.9709L13.3922 28.3624C13.8468 28.4171 14.2932 28.2097 14.5447 27.827C14.7961 27.4443 14.8093 26.9522 14.5786 26.5566L13.0019 23.8551C12.7991 23.5075 12.7828 23.0817 12.9585 22.7197L14.3289 19.9013C14.531 19.486 14.4781 18.9917 14.1927 18.6285C13.9073 18.2654 13.4395 18.0971 12.9882 18.1952L9.85956 18.8738C9.47356 18.9574 9.0711 18.8466 8.78228 18.5772L6.44439 16.4025C6.11073 16.0918 5.63039 15.9959 5.20296 16.1545C4.77554 16.3131 4.4741 16.6992 4.42388 17.1523L4.06795 20.3261C4.02468 20.718 3.79282 21.0641 3.44685 21.2533L0.631427 22.7796C0.225357 22.9997 -0.0193788 23.4323 0.00120368 23.8937C0.0217862 24.3551 0.304071 24.7642 0.728122 24.9472L3.60524 26.193C3.9749 26.3527 4.24026 26.6866 4.31236 27.0828L4.87948 30.1593C4.96299 30.6092 5.29393 30.9731 5.73392 31.0988C6.17392 31.2245 6.64716 31.0904 6.95575 30.7525L9.13939 28.3559C9.40276 28.0675 9.78921 27.9241 10.1769 27.9709Z" fill="#F3D55B"/>
<path d="M13.3892 28.3618L10.174 27.9703C9.78757 27.9223 9.40209 28.0663 9.14178 28.3559L6.95873 30.7466C6.65025 31.0871 6.17517 31.223 5.73326 31.0971C5.29134 30.9712 4.95922 30.6053 4.87653 30.1533L4.75195 29.4711C10.1621 24.761 6.54348 17.7432 5.56466 16.0822C5.88913 16.0622 6.20723 16.1783 6.44263 16.4025L8.77992 18.5796C9.07053 18.8475 9.4729 18.958 9.85958 18.8762L12.9918 18.194C13.4433 18.0972 13.9106 18.2663 14.1956 18.6296C14.4807 18.9929 14.5338 19.4869 14.3325 19.9025L12.9621 22.7203C12.7852 23.0811 12.8008 23.5065 13.0036 23.8533L14.5816 26.5584C14.8104 26.955 14.7954 27.4468 14.5429 27.8287C14.2904 28.2106 13.8437 28.417 13.3892 28.3618Z" fill="#F0C419"/>
<path d="M25.1448 26.403L22.2012 26.7056C21.7849 26.7486 21.3801 26.552 21.1566 26.1981C20.9331 25.8443 20.9294 25.3943 21.1471 25.0369L22.6331 22.5952C22.8246 22.2815 22.8468 21.8929 22.6924 21.5594L21.4887 18.9611C21.3113 18.5783 21.368 18.1279 21.6349 17.8011C21.9017 17.4743 22.3317 17.3285 22.7422 17.4258L25.5897 18.0985C25.9407 18.1815 26.3101 18.0873 26.5786 17.8464L28.7492 15.8983C29.0594 15.6205 29.4997 15.5412 29.8874 15.6932C30.2751 15.8452 30.5441 16.2027 30.5828 16.6173L30.8515 19.5241C30.8849 19.8832 31.0919 20.2033 31.4056 20.3813L33.9517 21.8234C34.3188 22.0312 34.5349 22.4303 34.5084 22.8513C34.4819 23.2722 34.2174 23.6411 33.8271 23.8012L31.1778 24.8886C30.8383 25.0279 30.5904 25.327 30.5164 25.6864L29.9469 28.487C29.8636 28.8973 29.5549 29.2249 29.1503 29.3325C28.7457 29.4401 28.3151 29.309 28.0391 28.9942L26.0856 26.772C25.8504 26.5037 25.4997 26.3661 25.1448 26.403Z" fill="#F3D55B"/>
<path d="M33.8255 23.8L31.1798 24.8856C30.8376 25.0237 30.588 25.3247 30.5154 25.6865L29.9459 28.4865C29.8625 28.8971 29.5537 29.2252 29.1488 29.3333C28.744 29.4415 28.3128 29.311 28.0357 28.9966L26.084 26.772C25.8492 26.5054 25.5002 26.3684 25.1467 26.4042L22.1984 26.7068C21.7818 26.7483 21.3776 26.5503 21.1551 26.1957C20.9325 25.8411 20.9299 25.391 21.1484 25.0339L21.3976 24.6246C29.501 25.6746 30.1891 17.3458 30.2484 15.928C30.4433 16.1062 30.5623 16.3526 30.5806 16.6161L30.8535 19.5229C30.8819 19.8823 31.0893 20.2034 31.4052 20.3771L33.9501 21.8246C34.3179 22.0313 34.5347 22.4304 34.5082 22.8514C34.4816 23.2725 34.2163 23.6411 33.8255 23.8Z" fill="#F0C419"/>
<path d="M5.93295 8.60168C5.69306 8.60162 5.47681 8.45709 5.38501 8.23545C5.29321 8.01382 5.34394 7.75871 5.51355 7.58905L6.69999 6.40261C6.93276 6.17779 7.30275 6.18101 7.53158 6.40983C7.7604 6.63866 7.76362 7.00865 7.5388 7.24142L6.35236 8.42786C6.24114 8.53912 6.09027 8.60164 5.93295 8.60168Z" fill="#F0C419"/>
<path d="M7.12003 8.60168C6.96271 8.60164 6.81185 8.53912 6.70062 8.42786L5.51418 7.24142C5.28937 7.00865 5.29258 6.63866 5.52141 6.40983C5.75023 6.18101 6.12023 6.17779 6.35299 6.40261L7.53943 7.58905C7.70904 7.75871 7.75977 8.01382 7.66797 8.23545C7.57618 8.45709 7.35992 8.60162 7.12003 8.60168Z" fill="#F0C419"/>
<path d="M32.6283 12.161C32.3884 12.161 32.1721 12.0164 32.0803 11.7948C31.9885 11.5731 32.0393 11.318 32.2089 11.1484L33.3953 9.96193C33.6281 9.73712 33.9981 9.74034 34.2269 9.96916C34.4557 10.198 34.4589 10.568 34.2341 10.8007L33.0477 11.9872C32.9365 12.0984 32.7856 12.161 32.6283 12.161Z" fill="#F0C419"/>
<path d="M33.8134 12.161C33.6561 12.161 33.5052 12.0984 33.394 11.9872L32.2075 10.8007C31.9827 10.568 31.9859 10.198 32.2148 9.96916C32.4436 9.74034 32.8136 9.73712 33.0464 9.96193L34.2328 11.1484C34.4024 11.318 34.4531 11.5731 34.3613 11.7948C34.2695 12.0164 34.0533 12.161 33.8134 12.161Z" fill="#F0C419"/>
</g>
<defs>
<clipPath id="clip0_850_52707">
<rect width="35" height="35" fill="white"/>
</clipPath>
</defs>
</svg>
