<svg width="32" height="32" viewBox="0 0 32 32" fill="none" xmlns="http://www.w3.org/2000/svg">
<g clip-path="url(#clip0_850_52549)">
<path d="M2.61474 9.30761C1.11553 8.98539 0.0338638 7.6757 0.000778819 6.1426C-0.0323062 4.6095 0.99185 3.25437 2.47577 2.86777C3.95969 2.48116 5.51487 3.1643 6.23406 4.51865L2.61474 9.30761Z" fill="#14A085"/>
<path d="M29.3849 9.30761C30.8842 8.98539 31.9658 7.6757 31.9989 6.1426C32.032 4.6095 31.0078 3.25437 29.5239 2.86777C28.04 2.48116 26.4848 3.1643 25.7656 4.51865L29.3849 9.30761Z" fill="#14A085"/>
<path d="M32 18.2069C32 10.5892 24.8364 0 16 0C7.16359 0 0 10.5892 0 18.2069C0 25.8246 7.16359 32 16 32C24.8364 32 32 25.8246 32 18.2069Z" fill="#26B99A"/>
<path d="M2.2073 7.17244C1.96152 7.17299 1.74501 7.01089 1.67633 6.7749C1.60764 6.53891 1.70334 6.28594 1.91103 6.15451C2.23556 5.8491 2.39657 5.40822 2.34523 4.96554C2.34523 4.66083 2.59225 4.41382 2.89696 4.41382C3.20167 4.41382 3.44868 4.66083 3.44868 4.96554C3.52359 5.79345 3.16062 6.60035 2.49144 7.09354C2.40571 7.14529 2.30744 7.17257 2.2073 7.17244Z" fill="#33907C"/>
<path d="M29.7869 7.17244C29.6896 7.17196 29.5942 7.14507 29.511 7.09465C28.8411 6.6015 28.4776 5.79403 28.5527 4.96554C28.5527 4.66083 28.7997 4.41382 29.1044 4.41382C29.4091 4.41382 29.6561 4.66083 29.6561 4.96554C29.6034 5.40909 29.765 5.85126 30.0914 6.15616C30.3387 6.32538 30.4088 6.65937 30.2503 6.91368C30.1502 7.07346 29.9754 7.17105 29.7869 7.17244Z" fill="#33907C"/>
<path d="M13.7926 11.5862C13.7908 13.3254 12.4436 14.7667 10.7084 14.8856C10.6312 14.8911 10.5595 14.8966 10.4822 14.8966C10.405 14.8966 10.3333 14.8911 10.256 14.8856C8.52089 14.7667 7.17361 13.3254 7.17188 11.5862L8.58429 11.5642L12.3415 11.509L13.787 11.4869C13.7916 11.5198 13.7935 11.553 13.7926 11.5862Z" fill="#2C3E50"/>
<path d="M24.8279 11.5862C24.8262 13.3254 23.4789 14.7667 21.7438 14.8856C21.6666 14.8911 21.5948 14.8966 21.5176 14.8966C21.4404 14.8966 21.3686 14.8911 21.2914 14.8856C19.5563 14.7667 18.209 13.3254 18.2073 11.5862C18.2063 11.553 18.2082 11.5198 18.2128 11.4869L19.6583 11.509L23.4155 11.5642L24.8279 11.5862Z" fill="#2C3E50"/>
<path d="M22.3223 19.5046L22.7747 18.357C22.8803 18.0838 23.0907 17.8643 23.3591 17.7472C23.6275 17.6301 23.9316 17.6251 24.2036 17.7335L25.2299 18.1363C25.5032 18.2433 25.7226 18.4548 25.8396 18.724C25.9566 18.9932 25.9616 19.2979 25.8533 19.5708L25.3954 20.7404L22.3223 19.5046Z" fill="#ECF0F1"/>
<path d="M6.60407 20.7404L6.14614 19.5708C6.03789 19.2979 6.0428 18.9932 6.15981 18.724C6.27681 18.4548 6.49625 18.2433 6.76959 18.1363L7.7958 17.7335C8.06784 17.6251 8.37193 17.6301 8.64033 17.7472C8.90874 17.8643 9.11917 18.0838 9.22476 18.357L9.67718 19.5046L6.60407 20.7404Z" fill="#ECF0F1"/>
<path d="M27.5861 23.1724C27.3892 23.1722 27.2073 23.0671 27.1088 22.8966C27.0741 22.8414 24.8424 19.3104 15.9999 19.3104C7.04484 19.3104 4.91022 22.8602 4.89257 22.8966C4.79737 23.0727 4.61421 23.1835 4.414 23.1859C4.21379 23.1884 4.02796 23.0822 3.92844 22.9085C3.82892 22.7347 3.83135 22.5207 3.93477 22.3493C4.03133 22.1793 6.41036 18.2069 15.9999 18.2069C25.5894 18.2069 27.9684 22.1793 28.065 22.3448C28.1388 22.4719 28.1588 22.6231 28.1207 22.765C28.0826 22.9069 27.9895 23.0277 27.8619 23.1007C27.778 23.1487 27.6828 23.1734 27.5861 23.1724Z" fill="#802D40"/>
<path d="M17.1043 22.069H14.8974C14.5927 22.069 14.3457 21.822 14.3457 21.5173C14.3457 21.2126 14.5927 20.9656 14.8974 20.9656H17.1043C17.409 20.9656 17.656 21.2126 17.656 21.5173C17.656 21.822 17.409 22.069 17.1043 22.069Z" fill="#14A085"/>
<path d="M18.2077 17.1034C17.903 17.1034 17.6559 16.8564 17.6559 16.5517C17.6797 16.1058 17.513 15.6708 17.1973 15.3551C16.8816 15.0394 16.4466 14.8727 16.0008 14.8965C15.5544 14.873 15.1191 15.0402 14.8033 15.3566C14.4876 15.673 14.3212 16.1087 14.3456 16.555C14.3438 16.8584 14.0973 17.1034 13.7939 17.1034H13.7906C13.4871 17.1016 13.2421 16.8551 13.2421 16.5517C13.2141 15.8118 13.4958 15.0937 14.0193 14.5702C14.5428 14.0467 15.2609 13.765 16.0008 13.793C16.7406 13.765 17.4587 14.0467 17.9822 14.5702C18.5058 15.0937 18.7874 15.8118 18.7594 16.5517C18.7594 16.8564 18.5124 17.1034 18.2077 17.1034Z" fill="#14A085"/>
<path d="M7.17285 9.37932C6.93537 9.37932 6.72454 9.22735 6.64944 9.00206C6.57434 8.77677 6.65184 8.5287 6.84182 8.38621C9.29423 6.54732 12.7894 8.26097 12.9367 8.3338C13.2096 8.46985 13.3205 8.80135 13.1844 9.07421C13.0484 9.34708 12.7169 9.45799 12.444 9.32194C12.4137 9.30594 9.40954 7.84276 7.50389 9.26676C7.40878 9.33939 7.29252 9.37892 7.17285 9.37932Z" fill="#33907C"/>
<path d="M24.8275 9.3793C24.7081 9.37954 24.5919 9.34079 24.4965 9.26895C22.5925 7.84274 19.5861 9.30647 19.5564 9.32412C19.2835 9.46018 18.952 9.34927 18.8159 9.0764C18.6799 8.80353 18.7908 8.47204 19.0637 8.33599C19.2115 8.26371 22.7084 6.55061 25.1586 8.3884C25.3466 8.53141 25.4228 8.7783 25.3479 9.0024C25.273 9.2265 25.0638 9.37805 24.8275 9.3793Z" fill="#33907C"/>
<path d="M12.6892 12.6896C12.6895 13.8211 11.834 14.7695 10.7085 14.8855C10.6313 14.891 10.5595 14.8965 10.4823 14.8965C10.405 14.8965 10.3333 14.891 10.2561 14.8855C9.13056 14.7695 8.27509 13.8211 8.27539 12.6896C8.2769 12.2937 8.38352 11.9053 8.58436 11.5641L12.3416 11.5089C12.5686 11.8609 12.6893 12.2708 12.6892 12.6896Z" fill="#35495E"/>
<path d="M23.7243 12.6896C23.7246 13.8211 22.8692 14.7695 21.7437 14.8855C21.6664 14.891 21.5947 14.8965 21.5174 14.8965C21.4402 14.8965 21.3685 14.891 21.2912 14.8855C20.1657 14.7695 19.3102 13.8211 19.3105 12.6896C19.3105 12.2708 19.4311 11.8609 19.6581 11.5089L23.4154 11.5641C23.6162 11.9053 23.7228 12.2937 23.7243 12.6896Z" fill="#35495E"/>
<path d="M13.2408 12.1379H6.62008C6.31537 12.1379 6.06836 11.8909 6.06836 11.5862C6.06836 11.2815 6.31537 11.0345 6.62008 11.0345H13.2408C13.8502 11.0345 14.3442 10.5405 14.3442 9.93105V8.8276C14.3442 8.52289 14.5912 8.27588 14.8959 8.27588C15.2007 8.27588 15.4477 8.52289 15.4477 8.8276V9.93105C15.4477 11.1499 14.4596 12.1379 13.2408 12.1379Z" fill="#14A085"/>
<path d="M25.3784 12.1379H18.7577C17.5388 12.1379 16.5508 11.1499 16.5508 9.93105V8.8276C16.5508 8.52289 16.7978 8.27588 17.1025 8.27588C17.4072 8.27588 17.6542 8.52289 17.6542 8.8276V9.93105C17.6542 10.5405 18.1483 11.0345 18.7577 11.0345H25.3784C25.6831 11.0345 25.9301 11.2815 25.9301 11.5862C25.9301 11.8909 25.6831 12.1379 25.3784 12.1379Z" fill="#14A085"/>
<path d="M9.65571 13.7931C10.1128 13.7931 10.4833 13.5461 10.4833 13.2414C10.4833 12.9367 10.1128 12.6897 9.65571 12.6897C9.19865 12.6897 8.82812 12.9367 8.82812 13.2414C8.82812 13.5461 9.19865 13.7931 9.65571 13.7931Z" fill="#3F5C6C"/>
<path d="M20.6909 13.7931C21.1479 13.7931 21.5185 13.5461 21.5185 13.2414C21.5185 12.9367 21.1479 12.6897 20.6909 12.6897C20.2338 12.6897 19.8633 12.9367 19.8633 13.2414C19.8633 13.5461 20.2338 13.7931 20.6909 13.7931Z" fill="#3F5C6C"/>
</g>
<defs>
<clipPath id="clip0_850_52549">
<rect width="32" height="32" fill="white"/>
</clipPath>
</defs>
</svg>
