<svg width="30" height="30" viewBox="0 0 30 30" fill="none" xmlns="http://www.w3.org/2000/svg">
<path d="M4.41088 25.7937C5.76463 27.0989 7.38429 28.1628 9.26987 28.888C11.1554 29.6132 13.2586 30 15.5309 30C18.0692 30 20.4141 29.6132 22.5172 28.8157C24.427 28.1147 22.7832 24.5608 21.3811 25.1413C19.8342 25.794 17.9484 26.1324 15.7966 26.1324C14.1044 26.1324 12.5575 25.8665 11.2035 25.3591C9.8498 24.8512 8.66527 24.1259 7.69831 23.1834C6.73135 22.2406 5.95778 21.0803 5.42595 19.7507C4.86995 18.3967 4.60403 16.8498 4.60403 15.1576C4.60403 13.5621 4.86995 12.0392 5.40178 10.6854C5.93361 9.33167 6.65883 8.12297 7.62579 7.156C8.56858 6.16487 9.72893 5.36712 11.0585 4.81112C12.3881 4.25512 13.8869 3.96503 15.5307 3.96503C17.0539 3.96503 18.4558 4.18259 19.7131 4.56938C20.9459 4.95616 22.0096 5.56052 22.9038 6.35826C23.7982 7.156 24.4993 8.12297 25.0069 9.28332C25.5148 10.4437 25.7566 11.7974 25.7566 13.3446C25.7566 14.239 25.6599 15.0851 25.4662 15.8828C25.2731 16.6322 25.0313 17.3089 24.6929 17.8409C24.3784 18.3488 24.0158 18.7596 23.5809 19.0496C23.073 19.3881 22.3236 19.5815 21.7434 19.3881C21.0182 19.1463 21.1635 18.131 21.2116 17.5267C21.2844 16.7048 21.5017 15.9312 21.6709 15.1334C21.9368 13.828 22.2269 12.5468 22.4928 11.2656C22.6379 10.5645 22.8069 9.83932 22.9519 9.13828C23.1453 8.24384 22.4684 7.37357 21.5259 7.37357H20.4622C19.8095 7.37357 19.2293 7.8087 19.0599 8.43723C18.9876 8.72732 18.9148 8.96906 18.9148 8.96906C18.3832 7.32522 16.4249 6.86591 14.8778 6.89009C12.8471 6.91426 10.9857 7.95375 9.63199 9.42836C9.51112 9.57341 9.36608 9.71845 9.24521 9.8635C8.54416 10.7096 8.01233 11.7007 7.64972 12.7402C7.26294 13.8522 7.06955 14.9884 7.06955 16.1488C7.06955 17.1401 7.21459 18.0827 7.4805 18.9288C7.77059 19.7993 8.18155 20.5484 8.71338 21.177C9.24521 21.8057 9.92208 22.3131 10.7198 22.6757C11.5176 23.0384 12.412 23.2317 13.379 23.2317C14.1042 23.2317 14.7811 23.1109 15.3854 22.8936C15.9656 22.676 16.4974 22.4101 16.9567 22.0958C17.3193 21.8541 17.6578 21.564 17.9237 21.2978C18.0927 21.6123 18.2863 21.878 18.5522 22.1439C19.2293 22.8691 20.2686 23.2317 21.6467 23.2317C22.7346 23.2317 23.798 23.0144 24.7894 22.5793C25.7805 22.1439 26.6747 21.467 27.4241 20.597C28.1493 19.7265 28.7537 18.6631 29.1888 17.406C29.6242 16.149 29.8415 14.6986 29.8415 13.1031C29.8415 10.9274 29.4305 8.99347 28.6328 7.37381C27.8351 5.75415 26.7472 4.37623 25.3937 3.2884C24.0641 2.20056 22.517 1.40282 20.8006 0.846817C19.1087 0.265915 17.344 0 15.5309 0C13.4278 0 11.4214 0.386785 9.55996 1.13618C7.69855 1.90975 6.05472 2.97341 4.6768 4.30298C3.2747 5.63255 2.1627 7.25222 1.36495 9.06527C0.567209 10.8783 0.15625 12.9089 0.15625 15.0363C0.15625 17.1875 0.518861 19.2184 1.26826 21.0314C1.99348 22.8687 3.05714 24.4641 4.41088 25.7937ZM17.4888 15.6406C17.3198 16.2933 17.0781 16.9218 16.7394 17.502C16.401 18.058 15.99 18.5171 15.4582 18.8797C14.9747 19.2181 14.3945 19.3876 13.6693 19.3876C13.21 19.3876 12.8474 19.2909 12.5815 19.1214C12.2914 18.928 12.0496 18.6863 11.8804 18.372C11.687 18.0336 11.5662 17.671 11.4936 17.3084C11.4211 16.9216 11.3728 16.559 11.3728 16.245C11.3728 15.5681 11.4695 14.8912 11.6629 14.1902C11.8562 13.5133 12.1222 12.8848 12.4848 12.3529C12.8474 11.8211 13.2583 11.386 13.766 11.0475C14.2253 10.7333 14.733 10.5882 15.3373 10.5882C15.8208 10.5882 16.2078 10.6608 16.4977 10.83C16.7878 10.9992 17.0295 11.2168 17.1987 11.4827C17.3921 11.7728 17.513 12.1112 17.6094 12.4738C17.7061 12.8848 17.7547 13.3199 17.7547 13.7309C17.7305 14.3352 17.6583 14.9637 17.4888 15.6406Z" fill="black"/>
</svg>
