<svg width="51" height="50" viewBox="0 0 51 50" fill="none" xmlns="http://www.w3.org/2000/svg">
<path d="M4.45047 22.4513L12.1424 23.6508L10.8886 31.6624L3.19665 30.4623C3.15329 30.4556 3.11169 30.4404 3.07422 30.4176C3.03674 30.3948 3.00414 30.3649 2.97827 30.3295C2.9524 30.2941 2.93377 30.254 2.92344 30.2114C2.91311 30.1688 2.9113 30.1246 2.91808 30.0814L4.06884 22.7318C4.07524 22.6883 4.09021 22.6464 4.11291 22.6087C4.1356 22.571 4.16555 22.5382 4.20104 22.512C4.23653 22.486 4.27685 22.4672 4.31966 22.4568C4.36248 22.4463 4.40693 22.4445 4.45047 22.4513Z" fill="#ED1D31" stroke="#231F20" stroke-linejoin="round"/>
<path d="M46.1588 20.5801L38.0391 20.7654L38.2247 28.872L46.3445 28.6866L46.1588 20.5801Z" fill="#ED1D31" stroke="#231F20" stroke-linejoin="round"/>
<path d="M32.1807 2.87177L39.5317 4.09886C39.5749 4.10599 39.6164 4.12157 39.6536 4.14471C39.6908 4.16784 39.7231 4.19808 39.7486 4.23369C39.7741 4.2693 39.7923 4.30958 39.8022 4.35223C39.8121 4.39487 39.8134 4.43904 39.8061 4.48221L38.5223 12.151L30.8415 10.8693C30.7983 10.8621 30.7569 10.8466 30.7197 10.8234C30.6824 10.8003 30.6502 10.77 30.6247 10.7344C30.5991 10.6989 30.581 10.6586 30.5711 10.6159C30.5612 10.5733 30.5598 10.5291 30.5671 10.4859L31.7962 3.14577C31.8034 3.10255 31.8191 3.06119 31.8423 3.02403C31.8655 2.98687 31.8959 2.95465 31.9316 2.9292C31.9673 2.90375 32.0077 2.88559 32.0504 2.87573C32.0932 2.86588 32.1375 2.86453 32.1807 2.87177Z" fill="#ED1D31" stroke="#231F20" stroke-linejoin="round"/>
<path d="M25.8643 2.89375L32.4379 7.06833L28.0798 13.9105L21.5063 9.73591C21.4693 9.71247 21.4373 9.68195 21.4121 9.64616C21.3869 9.61032 21.369 9.56994 21.3595 9.52721C21.35 9.48454 21.349 9.44035 21.3566 9.39728C21.3642 9.35417 21.3802 9.31301 21.4038 9.27609L25.4032 2.99605C25.4508 2.92154 25.5261 2.86893 25.6126 2.84975C25.699 2.83057 25.7895 2.84639 25.8643 2.89375Z" fill="#ED1D31" stroke="#231F20" stroke-linejoin="round"/>
<path d="M38.4857 28.1699L35.1875 35.5798L42.6095 38.8727L45.9077 31.4628L38.4857 28.1699Z" fill="#ED1D31" stroke="#231F20" stroke-linejoin="round"/>
<path d="M32.2218 11.6523L29.2109 19.1832L36.7541 22.1892L39.765 14.6583L32.2218 11.6523Z" fill="#ED1D31" stroke="#231F20" stroke-linejoin="round"/>
<path d="M33.0234 36.125L36.9869 43.2023L29.898 47.1593L26.0971 40.373C26.0539 40.2958 26.0432 40.2047 26.0673 40.1196C26.0913 40.0345 26.1482 39.9624 26.2254 39.9191L33.0234 36.125Z" fill="#ED1D31" stroke="#231F20" stroke-linejoin="round"/>
<path d="M39.7511 8.49506L46.9237 10.52C46.9659 10.5319 47.0054 10.5519 47.0398 10.579C47.0743 10.6061 47.1031 10.6398 47.1245 10.678C47.146 10.7162 47.1596 10.7583 47.1648 10.8018C47.17 10.8453 47.1664 10.8894 47.1545 10.9316L45.0344 18.4134L37.2188 16.2068L39.3389 8.72494C39.363 8.63988 39.42 8.56786 39.4973 8.52474C39.5746 8.48163 39.6659 8.47094 39.7511 8.49506Z" fill="#ED1D31" stroke="#231F20" stroke-linejoin="round"/>
<path d="M43.8038 36.3008L35.8164 37.7701L37.2881 45.7445L45.2756 44.2752L43.8038 36.3008Z" fill="#ED1D31" stroke="#231F20" stroke-linejoin="round"/>
<path d="M31.2561 26.1512L22.0036 27.2687" stroke="#231F20" stroke-width="2" stroke-miterlimit="10" stroke-linecap="round"/>
<path d="M22.7173 22.9971L16.0604 27.9865L23.7148 31.248L22.7173 22.9971Z" fill="#231F20"/>
</svg>
