<svg width="35" height="35" viewBox="0 0 35 35" fill="none" xmlns="http://www.w3.org/2000/svg">
<g clip-path="url(#clip0_850_54616)">
<path d="M29.2855 10.4279C28.2469 9.52092 27.0686 8.74539 25.7831 8.13049L24.9453 8.73752L26.9523 16.7481L27.7412 16.9575C30.6542 16.1883 31.6021 12.451 29.2855 10.4279Z" fill="#DBEDFF"/>
<path d="M26.561 24.5739C26.0593 24.0026 25.4185 23.5173 24.6356 23.1658C23.0905 22.472 22.1399 21.5515 22.1399 20.5322C22.1399 19.436 23.2369 18.4574 24.9853 17.7502L25.7837 16.9575L22.8739 7.37607L21.4072 6.29626L20.3811 6.62084C11.1947 5.67652 3.25 12.2138 3.25 20.5322C3.25 30.3694 14.1295 37.136 24.1855 33.5951C26.2262 32.8766 27.4451 31.2368 27.81 29.4352L28.4026 28.9253L27.6514 24.8173L26.561 24.5739Z" fill="#DBEDFF"/>
<path d="M7.52226 20.5321C7.52226 13.0977 13.8685 7.08672 21.7753 6.56712L21.4072 6.29614L20.3811 6.62071C11.1947 5.67646 3.25 12.2137 3.25 20.5321C3.25 29.2615 11.8171 35.5717 20.7734 34.4084C13.547 33.4707 7.52226 27.8523 7.52226 20.5321Z" fill="#B5DCFF"/>
<path d="M11.2275 16.4227C12.4977 16.4227 13.5274 15.3931 13.5274 14.1229C13.5274 12.8528 12.4977 11.8231 11.2275 11.8231C9.9574 11.8231 8.92773 12.8528 8.92773 14.1229C8.92773 15.3931 9.9574 16.4227 11.2275 16.4227Z" fill="#F87C68"/>
<path d="M17.4538 13.4628C18.686 13.4628 19.6849 12.4639 19.6849 11.2317C19.6849 9.99951 18.686 9.00061 17.4538 9.00061C16.2216 9.00061 15.2227 9.99951 15.2227 11.2317C15.2227 12.4639 16.2216 13.4628 17.4538 13.4628Z" fill="#FFD064"/>
<path d="M12.362 29.8222C13.5942 29.8222 14.5931 28.8233 14.5931 27.5911C14.5931 26.3589 13.5942 25.36 12.362 25.36C11.1298 25.36 10.1309 26.3589 10.1309 27.5911C10.1309 28.8233 11.1298 29.8222 12.362 29.8222Z" fill="#5291D9"/>
<path d="M18.86 31.9073C20.0922 31.9073 21.0911 30.9084 21.0911 29.6762C21.0911 28.444 20.0922 27.4451 18.86 27.4451C17.6278 27.4451 16.6289 28.444 16.6289 29.6762C16.6289 30.9084 17.6278 31.9073 18.86 31.9073Z" fill="#95D6A4"/>
<path d="M8.67435 23.7778C10.1611 23.7778 11.3663 22.5726 11.3663 21.0858C11.3663 19.5991 10.1611 18.3939 8.67435 18.3939C7.18764 18.3939 5.98242 19.5991 5.98242 21.0858C5.98242 22.5726 7.18764 23.7778 8.67435 23.7778Z" fill="#FF94D5"/>
<path d="M11.217 14.123C11.217 13.2697 11.6821 12.5255 12.3722 12.1285C12.0351 11.9346 11.6445 11.8231 11.2275 11.8231C9.95736 11.8231 8.92773 12.8528 8.92773 14.1229C8.92773 15.3931 9.95743 16.4227 11.2275 16.4227C11.6444 16.4227 12.035 16.3113 12.3722 16.1173C11.6821 15.7205 11.217 14.9763 11.217 14.123Z" fill="#EC625E"/>
<path d="M17.5119 11.2317C17.5119 10.418 17.9477 9.70628 18.5984 9.31657C18.2637 9.11607 17.8723 9.00061 17.4538 9.00061C16.2215 9.00061 15.2227 9.99955 15.2227 11.2317C15.2227 12.4639 16.2215 13.4628 17.4538 13.4628C17.8723 13.4628 18.2638 13.3474 18.5984 13.1469C17.9477 12.7571 17.5119 12.0454 17.5119 11.2317Z" fill="#FFC250"/>
<path d="M12.4201 27.5911C12.4201 26.7774 12.8559 26.0657 13.5067 25.6759C13.172 25.4754 12.7805 25.36 12.362 25.36C11.1298 25.36 10.1309 26.3589 10.1309 27.5911C10.1309 28.8233 11.1298 29.8222 12.362 29.8222C12.7805 29.8222 13.172 29.7068 13.5067 29.5063C12.8559 29.1165 12.4201 28.4048 12.4201 27.5911Z" fill="#2E82D4"/>
<path d="M18.9181 29.6762C18.9181 28.8625 19.3538 28.1507 20.0046 27.761C19.6699 27.5605 19.2785 27.4451 18.86 27.4451C17.6278 27.4451 16.6289 28.444 16.6289 29.6762C16.6289 30.9084 17.6278 31.9073 18.86 31.9073C19.2785 31.9073 19.67 31.7918 20.0046 31.5913C19.3538 31.2016 18.9181 30.4899 18.9181 29.6762Z" fill="#78C2A4"/>
<path d="M8.27171 21.0858C8.27171 20.0086 8.90478 19.0795 9.81895 18.6492C9.47155 18.4857 9.08368 18.3939 8.67435 18.3939C7.18767 18.3939 5.98242 19.5991 5.98242 21.0858C5.98242 22.5726 7.1876 23.7778 8.67435 23.7778C9.08375 23.7778 9.47155 23.686 9.81895 23.5224C8.90478 23.0922 8.27171 22.1631 8.27171 21.0858Z" fill="#FF72C7"/>
<path d="M26.0307 3.6425C25.512 1.735 23.748 1.75872 22.1339 0.152347C21.8532 -0.126969 21.4046 -0.00501637 21.304 0.378001C20.7255 2.58047 19.1923 3.45328 19.7109 5.36072C20.1283 6.89586 21.496 7.57918 22.2606 7.84784L22.6931 8.20043L24.9466 7.67229L25.0913 7.07825C25.6146 6.45939 26.4481 5.17765 26.0307 3.6425Z" fill="#E39B74"/>
<path d="M24.3326 7.5897C23.5679 7.32097 22.2003 6.63765 21.7829 5.10258C21.334 3.45149 22.422 2.57499 23.098 0.940994C22.7779 0.723338 22.453 0.469998 22.1339 0.152469C21.8532 -0.126847 21.4046 -0.0048943 21.304 0.378123C20.7255 2.58059 19.1923 3.45341 19.7109 5.36084C20.1283 6.89598 21.496 7.57931 22.2606 7.84796L22.6931 8.20055L24.5484 7.76572L24.3326 7.5897Z" fill="#DD8858"/>
<path d="M25.6351 7.58439C25.533 7.20882 25.1457 6.98707 24.7701 7.0892L22.5415 7.69513C22.166 7.79726 21.9442 8.18452 22.0463 8.56015L23.1816 12.7356L23.5902 13.0332L26.6418 12.3056L26.7704 11.7599L25.6351 7.58439Z" fill="#477B9E"/>
<path d="M25.0978 12.3464L23.8867 7.89188C23.8306 7.68577 23.8665 7.47673 23.9685 7.30713L22.5415 7.69514C22.166 7.79727 21.9442 8.18452 22.0463 8.56016L23.1816 12.7356L23.5902 13.0333L25.4362 12.593L25.0978 12.3464Z" fill="#3F6D8E"/>
<path d="M31.7407 33.2041C31.7163 30.8349 31.3478 28.4819 30.6467 26.2188L26.8024 13.9651L26.3009 13.6143L24.3954 14.0456L24.2695 14.6538L27.1591 27.1671C27.7004 29.4736 28.5741 31.6893 29.7526 33.7446L30.2393 34.5933C30.4225 34.9128 30.7983 35.0683 31.1537 34.9716C31.5091 34.875 31.7545 34.5506 31.7507 34.1823L31.7407 33.2041Z" fill="#FFD064"/>
<path d="M31.4093 33.0403C30.2307 30.985 29.3571 28.7693 28.8158 26.4627L25.9262 13.9495L25.9806 13.6866L24.3954 14.0455L24.2695 14.6537L27.1591 27.1669C27.7004 29.4735 28.5741 31.6892 29.7526 33.7444L30.2393 34.5931C30.4225 34.9126 30.7983 35.0682 31.1537 34.9715C31.5091 34.8748 31.7545 34.5505 31.7507 34.1822L31.745 33.6256L31.4093 33.0403Z" fill="#FFC250"/>
<path d="M26.6652 11.7781L23.2819 12.6979C22.9626 12.7848 22.7742 13.1139 22.861 13.4332L23.1098 14.3485C23.1966 14.6677 23.5258 14.8562 23.8451 14.7694L27.2284 13.8495C27.5476 13.7627 27.7361 13.4336 27.6493 13.1143L27.4005 12.1991C27.3136 11.8797 26.9844 11.6913 26.6652 11.7781Z" fill="#5895B7"/>
<path d="M25.2342 13.7848L24.9685 12.8076C24.9073 12.5827 24.9747 12.3536 25.1252 12.1968L23.2819 12.6979C22.9626 12.7847 22.7742 13.1139 22.861 13.4332L23.1098 14.3485C23.1966 14.6677 23.5258 14.8562 23.845 14.7693L25.7572 14.2495C25.5139 14.2131 25.3029 14.0375 25.2342 13.7848Z" fill="#477B9E"/>
</g>
<defs>
<clipPath id="clip0_850_54616">
<rect width="35" height="35" fill="white"/>
</clipPath>
</defs>
</svg>
