<svg width="32" height="32" viewBox="0 0 32 32" fill="none" xmlns="http://www.w3.org/2000/svg">
<path d="M16 29.3061C19.7592 29.3061 22.8066 26.2587 22.8066 22.4995C22.8066 18.7403 19.7592 15.6929 16 15.6929C12.2408 15.6929 9.19336 18.7403 9.19336 22.4995C9.19336 26.2587 12.2408 29.3061 16 29.3061Z" fill="#68CA44"/>
<path d="M12.9355 22.5619C12.6766 22.5619 12.4668 22.352 12.4668 22.0931V21.1542C12.4668 20.8953 12.6766 20.6854 12.9355 20.6854C13.1945 20.6854 13.4043 20.8953 13.4043 21.1542V22.0931C13.4043 22.352 13.1945 22.5619 12.9355 22.5619Z" fill="#444444"/>
<path d="M19.043 22.5619C18.784 22.5619 18.5742 22.352 18.5742 22.0931V21.1542C18.5742 20.8953 18.784 20.6854 19.043 20.6854C19.3019 20.6854 19.5117 20.8953 19.5117 21.1542V22.0931C19.5117 22.352 19.3018 22.5619 19.043 22.5619Z" fill="#444444"/>
<path d="M19.0412 24.9886H12.9355C12.6766 24.9886 12.4668 24.7788 12.4668 24.5199C12.4668 24.261 12.6766 24.0511 12.9355 24.0511H19.0412C19.3001 24.0511 19.5099 24.261 19.5099 24.5199C19.5099 24.7788 19.3 24.9886 19.0412 24.9886Z" fill="#444444"/>
<path d="M6.80662 16.3071C10.5658 16.3071 13.6132 13.2597 13.6132 9.50047C13.6132 5.74128 10.5658 2.69385 6.80662 2.69385C3.04743 2.69385 0 5.74128 0 9.50047C0 13.2597 3.04743 16.3071 6.80662 16.3071Z" fill="#FAC600"/>
<path d="M25.1933 16.3071C28.9525 16.3071 32 13.2597 32 9.50047C32 5.74128 28.9525 2.69385 25.1933 2.69385C21.4341 2.69385 18.3867 5.74128 18.3867 9.50047C18.3867 13.2597 21.4341 16.3071 25.1933 16.3071Z" fill="#FB2B3A"/>
<path d="M22.8067 22.4994C22.8067 26.2588 19.7594 29.306 16.0001 29.306C13.769 29.306 11.7884 28.2328 10.5469 26.5743C11.7235 27.5446 13.2317 28.1274 14.8755 28.1274C18.6348 28.1274 21.6821 25.0802 21.6821 21.3209C21.6821 19.7934 21.1789 18.3835 20.33 17.2473C21.8428 18.4953 22.8067 20.3846 22.8067 22.4994Z" fill="#4FC123"/>
<path d="M13.6133 9.50066C13.6133 13.26 10.566 16.3072 6.8067 16.3072C4.57558 16.3072 2.59502 15.234 1.35352 13.5755C2.53014 14.5458 4.03833 15.1287 5.68214 15.1287C9.44145 15.1287 12.4887 12.0814 12.4887 8.3221C12.4887 6.7946 11.9855 5.38472 11.1366 4.24854C12.6494 5.49654 13.6133 7.38578 13.6133 9.50066Z" fill="#E0AE10"/>
<path d="M32 9.50066C32 13.26 28.9528 16.3072 25.1935 16.3072C22.9624 16.3072 20.9818 15.234 19.7402 13.5755C20.9169 14.5458 22.4251 15.1287 24.0689 15.1287C27.8282 15.1287 30.8755 12.0814 30.8755 8.3221C30.8755 6.7946 30.3723 5.38472 29.5234 4.24854C31.0361 5.49654 32 7.38578 32 9.50066Z" fill="#E41F2D"/>
<path d="M3.75391 9.56284C3.49497 9.56284 3.28516 9.35296 3.28516 9.09409V8.15515C3.28516 7.89628 3.49497 7.6864 3.75391 7.6864C4.01284 7.6864 4.22266 7.89628 4.22266 8.15515V9.09409C4.22266 9.35296 4.01278 9.56284 3.75391 9.56284Z" fill="#444444"/>
<path d="M9.85938 9.56284C9.60044 9.56284 9.39062 9.35296 9.39062 9.09409V8.15515C9.39062 7.89628 9.60044 7.6864 9.85938 7.6864C10.1183 7.6864 10.3281 7.89628 10.3281 8.15515V9.09409C10.3281 9.35296 10.1183 9.56284 9.85938 9.56284Z" fill="#444444"/>
<path d="M6.78732 13.3036C5.64919 13.3036 4.58344 12.7504 3.92701 11.816C3.77819 11.6041 3.82932 11.3118 4.04119 11.163C4.25307 11.0142 4.54551 11.0653 4.69419 11.2771C5.18251 11.9724 5.97969 12.3774 6.82876 12.3657C7.66744 12.3522 8.44701 11.9272 8.91401 11.2288C9.05801 11.0136 9.34919 10.9559 9.56419 11.0998C9.77938 11.2437 9.83719 11.5348 9.69326 11.75C9.05526 12.704 7.99001 13.2847 6.84382 13.3031C6.82507 13.3035 6.80613 13.3036 6.78732 13.3036Z" fill="#444444"/>
<path d="M22.1406 9.56284C21.8817 9.56284 21.6719 9.35296 21.6719 9.09409V8.15515C21.6719 7.89628 21.8817 7.6864 22.1406 7.6864C22.3996 7.6864 22.6094 7.89628 22.6094 8.15515V9.09409C22.6094 9.35296 22.3996 9.56284 22.1406 9.56284Z" fill="#444444"/>
<path d="M28.2461 9.56284C27.9872 9.56284 27.7773 9.35296 27.7773 9.09409V8.15515C27.7773 7.89628 27.9872 7.6864 28.2461 7.6864C28.505 7.6864 28.7148 7.89628 28.7148 8.15515V9.09409C28.7148 9.35296 28.505 9.56284 28.2461 9.56284Z" fill="#444444"/>
<path d="M22.7183 12.9531C22.6287 12.9531 22.5382 12.9274 22.4582 12.8739C22.243 12.73 22.1852 12.4389 22.3292 12.2237C22.9672 11.2696 24.0323 10.689 25.1786 10.6705C26.3382 10.6517 27.4283 11.2078 28.0955 12.1577C28.2443 12.3696 28.1932 12.6619 27.9813 12.8107C27.7695 12.9595 27.4772 12.9083 27.3283 12.6965C26.84 12.0012 26.0447 11.5944 25.1937 11.6079C24.355 11.6214 23.5755 12.0464 23.1085 12.7448C23.018 12.88 22.8695 12.9531 22.7183 12.9531Z" fill="#444444"/>
</svg>
