<svg width="32" height="32" viewBox="0 0 32 32" fill="none" xmlns="http://www.w3.org/2000/svg">
<g clip-path="url(#clip0_850_54680)">
<path d="M31.9946 16C31.9946 7.16333 24.8325 0 15.9973 0C7.16235 0 0 7.16333 0 16C0 24.8367 7.16235 32 15.9973 32C24.8325 32 31.9946 24.8367 31.9946 16Z" fill="#5DDCF9"/>
<path d="M25.8435 3.38892C27.9661 6.104 29.2317 9.52222 29.2317 13.2361C29.2317 22.0725 22.0693 29.2361 13.2344 29.2361C9.521 29.2361 6.10352 27.9702 3.38867 25.8472C6.31665 29.5923 10.876 32 15.9978 32C24.833 32 31.9951 24.8367 31.9951 16C31.9951 10.8772 29.5879 6.31714 25.8435 3.38892Z" fill="#43C5FF"/>
<path d="M16.0698 13.873C16.0698 11.5657 14.1995 9.69482 11.8923 9.69482C9.58496 9.69482 7.71484 11.5657 7.71484 13.873C7.71484 16.1807 9.58496 18.0513 11.8923 18.0513C14.1995 18.0513 16.0698 16.1807 16.0698 13.873Z" fill="#F2E49E"/>
<path d="M11.8911 9.69482C11.4661 9.69482 11.0564 9.75879 10.6699 9.87671C12.3813 10.3992 13.6265 11.9905 13.6265 13.873C13.6265 15.7556 12.3813 17.3472 10.6699 17.8694C11.0562 17.9873 11.4661 18.0513 11.8911 18.0513C14.1982 18.0513 16.0686 16.1807 16.0686 13.873C16.0686 11.5654 14.1982 9.69482 11.8911 9.69482Z" fill="#F7C92B"/>
<path d="M20.9485 15.6392C20.9473 15.6392 20.9463 15.6392 20.9451 15.6392C20.7595 15.6394 20.5879 15.5374 20.5098 15.3687C19.7566 13.7458 18.113 12.6204 16.2063 12.6204C14.1597 12.6204 12.4163 13.9172 11.7517 15.7339C11.678 15.9355 11.4824 16.0684 11.2686 16.0496C11.1248 16.0369 10.9783 16.0339 10.8296 16.0415C9.17358 16.125 7.85718 17.5132 7.85742 19.1716C7.85767 20.9021 9.2605 22.3052 10.9907 22.3052H16.0691H20.8936C22.7209 22.3052 24.2498 20.8564 24.2803 19.0291C24.3115 17.1624 22.8079 15.6392 20.9485 15.6392Z" fill="#E3FAFF"/>
<path d="M20.9485 15.6392C20.9473 15.6392 20.9463 15.6392 20.9451 15.6392C20.7595 15.6394 20.5879 15.5374 20.5095 15.3687C19.7566 13.7458 18.1128 12.6204 16.2063 12.6204C15.7512 12.6204 15.3113 12.6848 14.8945 12.8044C16.2239 13.186 17.314 14.1328 17.8875 15.3687C17.9656 15.5371 18.1372 15.6394 18.323 15.6392H18.3262C20.1855 15.6392 21.6892 17.1624 21.6582 19.0291C21.6277 20.8564 20.0989 22.3052 18.2715 22.3052H20.8936C22.7209 22.3052 24.2498 20.8567 24.2803 19.0291C24.3115 17.1624 22.8079 15.6392 20.9485 15.6392Z" fill="#CCF4FF"/>
</g>
<defs>
<clipPath id="clip0_850_54680">
<rect width="32" height="32" fill="white"/>
</clipPath>
</defs>
</svg>
