<svg width="35" height="36" viewBox="0 0 35 36" fill="none" xmlns="http://www.w3.org/2000/svg">
<g clip-path="url(#clip0_850_51308)">
<path d="M18.1895 6.3091C18.1895 6.3091 16.4433 8.95351 16.1849 10.1593C15.9265 11.3651 14.0318 17.0924 10.759 15.6283C7.48622 14.1641 6.23743 12.2263 6.66803 10.2885C7.09862 8.35072 9.60666 7.41105 10.4843 5.4909L14.6087 3.81555L18.1895 6.3091Z" fill="#AE6C6C"/>
<path d="M18.6524 4.62787C18.6524 4.62787 17.9883 1.75192 16.5714 1.75192C15.1545 1.75192 14.0059 2.90057 14.0059 4.31745C14.0059 5.42979 14.6992 6.37151 15.6891 6.72725C15.6891 6.72725 18.5731 6.45484 18.6524 4.62787Z" fill="#FFCEBF"/>
<path d="M15.6895 1.90772C16.6717 2.26749 17.3727 3.21065 17.3727 4.31752C17.3727 5.4244 16.6717 6.36755 15.6895 6.72733C15.9646 6.82809 16.2618 6.88312 16.5718 6.88312C17.9887 6.88312 19.1374 5.73447 19.1374 4.31759C19.1374 3.41374 18.6597 2.61339 17.9535 2.15641C17.9534 2.15627 15.9645 1.80695 15.6895 1.90772Z" fill="#FFB09E"/>
<path d="M9.3661 2.79435L8.57381 3.79787L8.02454 3.81551L6.88021 3.85215L6.31542 2.2388C6.14008 1.7367 6.28869 1.19228 6.66399 0.847958C6.75128 0.766952 6.85129 0.697977 6.9619 0.642333C7.1492 0.54868 7.34922 0.503632 7.545 0.503632C8.05414 0.503632 8.54216 0.804344 8.75066 1.30856L9.3661 2.79435Z" fill="#FFCEBF"/>
<path d="M18.1885 8.65219H16.4238C17.2774 8.65219 17.9698 9.34467 17.9698 10.1989V17.2903H19.7345V10.1988C19.7345 9.3446 19.0421 8.65219 18.1885 8.65219Z" fill="#FFB09E"/>
<path d="M19.7361 17.2902L23.8658 23.5324C24.6165 24.6672 24.4157 26.1817 23.3953 27.0816L17.934 31.8977L16.7174 31.2928L15.9743 29.9679L20.0841 25.2783L15.7988 20.545V17.2902L17.8013 16.197L19.7361 17.2902Z" fill="#62DBFB"/>
<path d="M23.8646 23.5325L19.7349 17.2902L18.7349 16.7253L17.9702 17.2902L22.0999 23.5325C22.8506 24.6672 22.6499 26.1817 21.6294 27.0817L17.0992 31.0768L17.0391 31.4534L17.9329 31.8977L23.3941 27.0817C24.4146 26.1817 24.6153 24.6672 23.8646 23.5325Z" fill="#01D0FB"/>
<path d="M15.0917 30.5608L15.9727 29.968L17.9325 31.8977L17.4402 34.6966C17.3585 35.1612 16.955 35.5 16.4833 35.5H16.2985C15.8608 35.5 15.477 35.2072 15.3614 34.785L14.5423 31.794C14.4313 31.3504 14.6101 30.8847 14.9896 30.6295L15.0917 30.5608Z" fill="#EAF6FF"/>
<path d="M13.4451 17.2902L15.5008 16.4085L17.5963 17.2902L20.7745 24.2434C20.8802 24.4744 20.9348 24.7254 20.9348 24.9794C20.9348 25.8988 20.2311 26.6652 19.3151 26.7435L12.6357 27.3143L11.9316 26.0054L12.2101 24.804L15.8894 23.8885C16.1741 23.8177 16.2878 23.4744 16.1018 23.2476L14.4724 21.2612C13.7899 20.4292 13.4224 19.3836 13.434 18.3076L13.4451 17.2902Z" fill="#62DBFB"/>
<path d="M20.775 24.2435L17.5967 17.2903L16.4337 16.7254L15.832 17.2903L19.0103 24.4548C19.1592 24.7125 19.1863 24.8966 19.1705 25.1908C19.1705 25.9522 18.6875 26.6084 18.0012 26.8559L19.3155 26.7436C20.2315 26.6653 20.9352 25.8989 20.9352 24.9796C20.9352 24.7255 20.8805 24.4745 20.775 24.2435Z" fill="#01D0FB"/>
<path d="M12.6358 27.3144L11.5316 29.5668C11.3685 29.8997 11.0299 30.1107 10.6592 30.1107C10.1225 30.1107 9.6875 29.6756 9.6875 29.139V25.9982C9.6875 25.4293 10.1266 24.9568 10.694 24.9152L10.7454 24.9114L12.2102 24.804L12.6358 27.3144Z" fill="#EAF6FF"/>
<path d="M26.0884 1.92673L25.9229 3.71262L24.0806 4.54995L23.2461 3.37602L23.494 1.62321C23.5376 1.31266 23.6891 1.04011 23.906 0.842959C24.1384 0.629609 24.4475 0.501436 24.7834 0.5H24.7883C25.5567 0.5 26.1596 1.16056 26.0884 1.92673Z" fill="#FFCEBF"/>
<path d="M26.0887 1.92673L25.9232 3.71262L24.0809 4.54995L24.1584 3.71262L24.3239 1.92673C24.3633 1.5014 24.195 1.10915 23.9062 0.843643V0.842959C24.1387 0.629609 24.4478 0.501436 24.7837 0.5H24.7886C25.557 0.5 26.1599 1.16056 26.0887 1.92673Z" fill="#FFB09E"/>
<path d="M17.4143 2.3306L17.1772 3.33207C16.5921 3.94778 15.6163 4.6136 14.0545 4.80788L12.9894 7.61164L10.4844 5.49086C10.4844 5.49086 12.9392 1.86234 15.8587 1.6535L17.4143 2.3306Z" fill="#B98080"/>
<path d="M17.177 3.33206C17.7591 2.71942 17.9543 2.15628 17.9543 2.15628C16.9946 1.5945 16.035 1.54234 15.1387 1.77388C16.0619 1.89282 16.8313 2.50177 17.177 3.33206Z" fill="#AE6C6C"/>
<path d="M18.1895 8.6522L19.7355 12.735L24.316 9.47211C25.0463 8.95121 25.514 8.13896 25.5967 7.24557L24.1799 3.49374L23.2475 3.37616L22.8075 6.48473C22.7719 6.7363 22.6235 6.95785 22.4044 7.08643L20.2817 8.33228C19.9239 8.54167 19.5171 8.65227 19.1025 8.65227L18.1895 8.6522Z" fill="#FE5694"/>
<path d="M25.9247 3.7127L25.5973 7.24578C25.5149 8.13876 25.0466 8.95142 24.3163 9.47184L19.736 12.7352L19.3613 11.7451L22.5521 9.47191C23.2824 8.95149 23.75 8.13883 23.8324 7.24585L24.1803 3.49374L25.9247 3.7127Z" fill="#FD3581"/>
<path d="M19.7358 10.1986C19.7358 9.34448 19.0434 8.65206 18.1893 8.65206H15.5238C14.6816 8.65206 13.8653 8.35347 13.2224 7.80912L12.2978 7.026L10.7408 5.70769C10.5725 5.56543 10.4401 5.38442 10.3563 5.18091L9.36682 2.79428L7.86749 3.43228L7.86681 3.43296L6.88086 3.85201L7.73084 6.28232C7.9703 6.96612 8.36884 7.58231 8.89562 8.08024L10.7147 9.80064L13.1758 12.126C13.3481 12.2887 13.4457 12.5152 13.4457 12.7522V17.2901L17.9711 17.2902L19.7358 13.7383L18.5415 12.5222L19.7358 10.9096V10.1986H19.7358Z" fill="#FE5694"/>
<path d="M18.1905 8.65219H16.4258C17.2793 8.65219 17.9718 9.34467 17.9718 10.1989V17.2903H19.7365V10.1988C19.7365 9.3446 19.044 8.65219 18.1905 8.65219Z" fill="#FD3581"/>
<path d="M28.2286 12.5964H27.7903V12.1582C27.7903 11.8664 27.5539 11.63 27.2622 11.63C26.9705 11.63 26.734 11.8665 26.734 12.1582V12.5964H26.2957C26.004 12.5964 25.7676 12.8329 25.7676 13.1245C25.7676 13.4162 26.004 13.6527 26.2957 13.6527H26.734V14.091C26.734 14.3828 26.9705 14.6192 27.2622 14.6192C27.5539 14.6192 27.7903 14.3827 27.7903 14.091V13.6527H28.2286C28.5203 13.6527 28.7567 13.4162 28.7567 13.1245C28.7567 12.8329 28.5203 12.5964 28.2286 12.5964Z" fill="#D8ECFE"/>
<path d="M23.8563 16.7253C24.148 16.7253 24.3844 16.4888 24.3844 16.1972C24.3844 15.9055 24.148 15.669 23.8563 15.669C23.5646 15.669 23.3281 15.9055 23.3281 16.1972C23.3281 16.4888 23.5646 16.7253 23.8563 16.7253Z" fill="#D8ECFE"/>
</g>
<defs>
<clipPath id="clip0_850_51308">
<rect width="35" height="35" fill="white" transform="translate(0 0.5)"/>
</clipPath>
</defs>
</svg>
