<svg width="35" height="36" viewBox="0 0 35 36" fill="none" xmlns="http://www.w3.org/2000/svg">
<g clip-path="url(#clip0_850_51238)">
<path d="M34.8116 9.3233C34.3858 8.68113 33.511 8.59391 32.969 9.09484L29.7967 12.0302C29.6179 12.1956 29.3575 12.2381 29.1355 12.1381L26.4465 10.9281C26.1774 10.807 25.8651 10.9018 25.6971 11.1444C25.09 12.021 24.1387 12.4523 23.355 12.1233C22.5445 11.7831 22.1855 10.7455 22.4321 9.65813C22.496 9.37621 22.3572 9.08794 22.0936 8.96934L19.151 7.64521C18.0785 7.16259 16.8239 7.34313 15.931 8.10842L12.61 10.955C12.1511 11.3483 11.9944 12.0262 12.3086 12.5425C12.7093 13.2007 13.5807 13.321 14.1407 12.8404L17.5112 9.95152C17.6897 9.79847 17.9407 9.76231 18.1553 9.85883L19.5558 10.489C20.173 10.7667 20.4438 11.4955 20.1578 12.1089L15.3644 22.3884C15.234 22.6678 14.9158 22.8059 14.6224 22.7075L9.79077 21.1L8.96875 23.384L14.28 25.1498C14.5974 25.2556 14.9209 25.3062 15.2401 25.3062C16.3907 25.3062 17.4792 24.6478 17.9895 23.5535L19.3437 20.908L24.9646 23.2317C25.1317 23.3014 25.2579 23.4404 25.3113 23.6136L27.3089 29.8342H29.7364L27.5065 22.4046C27.2404 21.5399 26.6089 20.8441 25.7732 20.4956L22.7623 19.2412L25.0735 14.2851C25.3541 13.6833 26.0661 13.4188 26.6715 13.6912L28.1391 14.3516C28.5397 14.5318 28.9641 14.6198 29.3855 14.6198C30.1341 14.6198 30.872 14.3421 31.4453 13.8121L34.5717 10.9195C35.015 10.5095 35.1453 9.82656 34.8116 9.3233Z" fill="#F5C882"/>
<path d="M15.6262 21.8284L15.365 22.3884C15.2346 22.6678 14.9164 22.8059 14.623 22.7075L15.4905 22.9858C16.0326 23.1596 16.6187 22.898 16.8512 22.3783L16.8676 22.3416L15.6262 21.8284Z" fill="#F5AF73"/>
<path d="M16.3858 16.4825H0.606896C0.271456 16.4825 0 16.2108 0 15.8756C0 15.5405 0.271456 15.2687 0.606896 15.2687H16.3858C16.7212 15.2687 16.9927 15.5405 16.9927 15.8756C16.9927 16.2108 16.7212 16.4825 16.3858 16.4825Z" fill="#D5DCED"/>
<path d="M10.3154 14.0553L5.46041 14.055C5.12497 14.055 4.85352 13.7833 4.85352 13.4481C4.85352 13.1129 5.12552 12.8412 5.46041 12.8412L10.3154 12.8415C10.6509 12.8415 10.9223 13.1132 10.9223 13.4484C10.9223 13.7836 10.6503 14.0553 10.3154 14.0553Z" fill="#E4EAF8"/>
<path d="M8.49557 11.6278C8.16074 11.6278 7.88867 11.356 7.88867 11.0209C7.88867 10.6857 8.16013 10.414 8.49557 10.414L10.3162 10.4137C10.651 10.4137 10.9231 10.6854 10.9231 11.0206C10.9231 11.3558 10.6516 11.6275 10.3162 11.6275L8.49557 11.6278Z" fill="#E4EAF8"/>
<path d="M15.1705 18.91H5.46041C5.12497 18.91 4.85352 18.6383 4.85352 18.3031C4.85352 17.968 5.12497 17.6962 5.46041 17.6962H15.1705C15.5059 17.6962 15.7774 17.968 15.7774 18.3031C15.7774 18.6383 15.5059 18.91 15.1705 18.91Z" fill="#E4EAF8"/>
<path d="M3.03358 14.055H1.81979C1.48435 14.055 1.21289 13.7833 1.21289 13.4481C1.21289 13.1129 1.48435 12.8412 1.81979 12.8412H3.03358C3.36902 12.8412 3.64047 13.1129 3.64047 13.4481C3.64047 13.7833 3.36902 14.055 3.03358 14.055Z" fill="#E4EAF8"/>
<path d="M31.5567 32.2617H27.3086V29.8342H29.7361C30.7416 29.8342 31.5567 30.6493 31.5567 31.6548V32.2617Z" fill="#D5DCED"/>
<path d="M6.06836 24.2754L7.50658 20.278L9.79074 21.0999L8.96885 23.3841C8.62842 24.3302 7.58546 24.8213 6.63937 24.4808L6.06836 24.2754Z" fill="#D5DCED"/>
<path d="M26.0955 9.20025C24.7548 9.20025 23.668 8.1134 23.668 6.77274V5.55895C23.668 4.55345 24.4831 3.73833 25.4886 3.73833H28.2196C28.3871 3.73833 28.523 3.87423 28.523 4.04177V6.77274C28.523 8.1134 27.4361 9.20025 26.0955 9.20025Z" fill="#F5C882"/>
<path d="M25.0738 14.2852C25.3544 13.6834 26.0664 13.4189 26.6718 13.6913L27.089 13.879L28.1294 11.6853L26.4466 10.9281C26.1775 10.807 25.8652 10.9018 25.6972 11.1444C25.09 12.021 24.1387 12.4522 23.3551 12.1233C22.5446 11.7831 22.1856 10.7454 22.4321 9.65812C22.4961 9.37621 22.3572 9.08794 22.0936 8.96933L20.2255 8.12865L19.1853 10.3223L19.5557 10.489C20.1729 10.7667 20.4437 11.4955 20.1578 12.1089L17.791 17.1842L22.7632 19.2397L25.0738 14.2852Z" fill="#7DF5A5"/>
<path d="M22.7648 19.2397L17.7926 17.1842L15.627 21.8284L18.3069 22.9363L19.3452 20.908L23.9203 22.7993L24.9761 20.1629L22.764 19.2412L22.7648 19.2397Z" fill="#5B5D6E"/>
<path opacity="0.27" d="M20.7049 10.9749L19.5577 10.489C20.1749 10.7667 20.4457 11.4955 20.1597 12.1089L17.793 17.1842L18.9598 17.6666L21.289 12.4592C21.5443 11.8882 21.281 11.2188 20.7049 10.9749Z" fill="#5B5D6E"/>
<path d="M18.9594 17.6666L17.7926 17.1842L15.627 21.8284L16.8683 22.3416L18.9594 17.6666Z" fill="#464655"/>
<path d="M20.1578 12.1089L17.791 17.1842L18.9578 17.6666L21.2871 12.4592C21.5424 11.8882 21.2791 11.2188 20.7031 10.9749L19.5558 10.489C20.173 10.7668 20.4438 11.4956 20.1578 12.1089Z" fill="#64DCA0"/>
<path d="M25.4886 6.77274V5.55895C25.4886 4.55345 26.3037 3.73833 27.3092 3.73833H25.4886C24.4831 3.73833 23.668 4.55345 23.668 5.55895V6.77274C23.668 8.1134 24.7548 9.20025 26.0955 9.20025C26.4179 9.20025 26.7243 9.13442 27.0058 9.02026C26.1169 8.6598 25.4886 7.79102 25.4886 6.77274Z" fill="#F5AF73"/>
<path d="M25.4886 3.73833C24.4831 3.73833 23.668 4.55345 23.668 5.55895V6.77274C23.668 6.98356 23.7032 7.1846 23.7538 7.37963H24.839C25.2449 7.37963 25.6238 7.17681 25.849 6.83911L26.3421 6.09946C26.5672 5.76184 26.9461 5.55895 27.352 5.55895H28.5231V4.04177C28.5231 3.87423 28.3872 3.73833 28.2196 3.73833H25.4886Z" fill="#6E4848"/>
<path d="M23.668 5.55895V6.77274C23.668 6.98356 23.7032 7.1846 23.7538 7.37963H24.839C25.0875 7.37963 25.3211 7.2961 25.5203 7.15958C25.5001 7.03353 25.4886 6.9046 25.4886 6.77281V5.55895C25.4886 4.55345 26.3037 3.73833 27.3092 3.73833H25.4886C24.4831 3.73833 23.668 4.55345 23.668 5.55895Z" fill="#643C3E"/>
</g>
<defs>
<clipPath id="clip0_850_51238">
<rect width="35" height="35" fill="white" transform="translate(0 0.5)"/>
</clipPath>
</defs>
</svg>
