<svg width="32" height="33" viewBox="0 0 32 33" fill="none" xmlns="http://www.w3.org/2000/svg">
<g clip-path="url(#clip0_850_51275)">
<path d="M14.0938 11.2281C14.9665 10.6724 16.1132 10.8605 16.1132 10.8605C16.3717 10.838 16.6216 10.8799 16.8474 10.9721V10.8898C15.8477 9.55244 16.3524 7.94263 16.3524 7.94263L16.3517 7.7715L15.7109 6.71982L15.7684 6.09494C15.8051 5.6955 15.4901 5.35107 15.0891 5.35207L14.4799 5.35357C14.4799 5.35357 12.5474 4.89925 11.4307 4.036H11.3705C11.0807 4.86275 11.0288 5.9405 11.0288 5.9405L10.6169 6.91394C10.5488 7.07494 10.6366 7.25932 10.8046 7.30788C10.9706 7.38219 11.4584 7.36513 11.5437 7.82319C11.6376 8.32738 11.9272 9.25219 12.7957 9.37625C13.6453 9.49757 14.0463 10.3933 14.0938 11.2281Z" fill="#F4D44E"/>
<path d="M15.3803 10.8392C15.3107 10.0104 14.8998 9.14893 14.0594 9.02887C12.9502 8.87043 12.1158 7.169 12.7179 4.76106C12.2661 4.56587 11.8031 4.32375 11.4307 4.03593H11.3705C11.0807 4.86268 11.0288 5.94043 11.0288 5.94043L10.6169 6.91387C10.5488 7.07487 10.6366 7.25925 10.8046 7.30781C10.9698 7.38181 11.4584 7.36493 11.5437 7.82312C11.6376 8.32731 11.9272 9.25212 12.7957 9.37618C13.6399 9.49681 14.0457 10.3844 14.0938 11.2281C14.4747 10.9856 14.9335 10.8707 15.3803 10.8392Z" fill="#E8C842"/>
<path d="M16.112 10.7318C16.112 10.7318 14.114 10.4028 13.3856 11.8911C12.7411 13.208 12.108 16.6542 12.6861 19.2495H16.3358L16.112 10.7318Z" fill="#DB4E33"/>
<path d="M22.3636 26.8146L21.3026 26.3342L19.5488 28.6861C19.5485 29.9846 20.1401 31.2666 20.8716 31.7152C21.2836 31.9679 21.8175 31.702 21.861 31.2207L22.7637 27.5549C22.8119 27.2462 22.6482 26.9434 22.3636 26.8146Z" fill="#656566"/>
<path d="M20.5436 27.352L19.5488 28.6861C19.5485 29.9847 20.1401 31.2666 20.8716 31.7153C21.2836 31.9679 21.8174 31.7021 21.861 31.2208L22.162 29.9986C21.4645 29.9781 20.6869 28.6718 20.5436 27.352Z" fill="#545456"/>
<path d="M17.9521 24.2077C17.6274 24.0016 17.4483 23.6269 17.4963 23.2453C17.6996 21.628 16.8644 20.3231 16.8644 20.3231L16.7646 20.3839C16.6018 21.2201 16.1774 22.6225 15.0912 23.5814C14.8667 23.7796 14.7441 24.0692 14.7441 24.3687V25.8713L18.9315 28.5983C19.2713 28.8201 19.7265 28.7254 19.9497 28.3866L21.3021 26.3342L17.9521 24.2077Z" fill="#5085BA"/>
<path d="M19.5546 27.3154L14.8636 23.8791C14.6668 24.2634 14.7761 24.5061 14.7453 25.8712L18.9326 28.5982C19.2725 28.8199 19.7276 28.7253 19.9509 28.3864L20.5182 27.5256C20.1933 27.5918 19.843 27.527 19.5546 27.3154Z" fill="#3A77AA"/>
<path d="M14.4209 19.1851H12.6724C11.9268 21.0744 11.0558 22.0639 11.1822 23.9096L11.5899 29.9261H14.8727V24.4331C14.8727 24.127 15.0054 23.8369 15.2339 23.6334C16.8582 22.1861 16.9914 19.7448 16.9914 19.7448C15.2133 19.3205 14.9775 19.1851 14.4209 19.1851Z" fill="#5085BA"/>
<path d="M14.3899 19.1851H12.6724C11.9268 21.0744 11.0558 22.0639 11.1822 23.9096L11.5899 29.9261H13.3075L12.8998 23.9096C12.7734 22.0636 13.6432 21.0771 14.3899 19.1851Z" fill="#3A77AA"/>
<path d="M11.5913 29.8616C10.3323 30.154 9.51438 30.97 9.25888 31.7226C9.11494 32.1464 9.50376 32.5619 9.98107 32.4923L14.5803 32.4701C14.8913 32.4434 14.9738 32.2009 14.9738 31.8731L14.8741 29.8616L11.5913 29.8616Z" fill="#656566"/>
<path d="M11.7613 31.5892C11.9713 30.9707 12.5059 30.3158 13.3155 29.8616H11.5913C10.3324 30.154 9.51438 30.97 9.25888 31.7226C9.11494 32.1464 9.50376 32.5619 9.98107 32.4923L12.3098 32.4811C11.9005 32.3913 11.624 31.9936 11.7613 31.5892Z" fill="#545456"/>
<path d="M17.9697 16.6342C18.0047 16.083 18.0316 14.6524 17.6057 13.7325L15.1614 13.9452C15.1614 13.9452 15.1377 15.5317 15.5384 16.8386C15.6047 17.0549 15.5677 17.2894 15.4413 17.477C13.1571 20.8685 13.4801 20.6084 13.2756 20.7237L12.3059 21.2707C12.0666 21.4058 11.9792 21.7076 12.1095 21.9496C12.2193 22.1536 12.0712 22.3268 12.0737 22.3204C11.7274 22.7637 11.8682 23.4127 12.3672 23.6726C12.9448 23.9734 13.6566 23.7846 14.0091 23.2369C14.672 22.2069 14.7012 22.1158 14.932 21.9416C15.453 21.5482 17.0463 20.2276 17.6595 18.3716C17.7157 18.2014 17.7774 18.033 17.8515 17.8697C18.0862 17.3536 17.9411 17.0856 17.9697 16.6342Z" fill="#F4D44E"/>
<path d="M16.4972 18.2325C16.5534 18.0623 16.6151 17.8939 16.6892 17.7307C16.9238 17.2143 16.7788 16.9463 16.8074 16.4949C16.8396 15.9881 16.8646 14.7384 16.5376 13.8253L15.1609 13.9451C15.1609 13.9451 15.1372 15.5316 15.5379 16.8384C15.6042 17.0548 15.5671 17.2893 15.4408 17.4769C13.1566 20.8684 13.4796 20.6083 13.2751 20.7236L12.3054 21.2706C12.0661 21.4056 11.9787 21.7074 12.1091 21.9494C12.2183 22.1523 12.0759 22.3138 12.0734 22.3202C11.7587 22.723 11.8472 23.2944 12.24 23.5908C12.4819 23.4977 12.697 23.3304 12.8469 23.0976C13.5098 22.0676 13.5391 21.9765 13.7698 21.8023C14.2907 21.4092 15.884 20.0886 16.4972 18.2325Z" fill="#E8C842"/>
<path d="M17.9466 13.4554L17.8355 12.1781C17.7808 11.5499 17.3626 11.0364 16.807 10.8271C16.4157 11.1527 16.1825 11.6702 16.231 12.2282C16.3913 13.7556 16.3082 13.8194 16.4605 13.961L17.6057 13.8613C17.8119 13.8434 17.9645 13.6617 17.9466 13.4554Z" fill="#ED694A"/>
<path d="M16.7336 13.9373C16.5854 13.9502 16.4544 13.8355 16.441 13.6811L16.3154 12.2387C16.2673 11.686 16.5134 11.1752 16.9181 10.8739C15.8262 10.3656 14.6321 11.2221 14.7325 12.3764L14.858 13.8189C14.8714 13.9732 15.0075 14.0875 15.1619 14.0741C16.6034 13.9487 16.1623 13.9871 17.6062 13.8614L16.7336 13.9373Z" fill="#DB4E33"/>
<path d="M16.3223 1.32275C16.3223 1.32275 13.6048 -0.739247 11.2 1.66557C8.77322 4.09232 14.4159 5.41794 14.4159 5.41794L15.025 5.41644C15.4262 5.41544 15.7411 5.75988 15.7043 6.15932C15.6722 6.50838 15.6183 6.73732 15.7922 7.02263L16.3528 7.94263C20.5289 3.45319 16.3223 1.32275 16.3223 1.32275Z" fill="#CC9D72"/>
<path d="M12.8097 2.61531C14.3075 1.1175 15.9264 1.35256 16.9347 1.74288C16.5961 1.46175 16.3223 1.32281 16.3223 1.32281C16.3223 1.32281 13.6048 -0.739186 11.2 1.66563C9.68064 3.18494 11.3243 4.27263 12.766 4.87363C12.1258 4.28444 11.8973 3.52769 12.8097 2.61531Z" fill="#C19067"/>
</g>
<defs>
<clipPath id="clip0_850_51275">
<rect width="32" height="32" fill="white" transform="translate(0 0.5)"/>
</clipPath>
</defs>
</svg>
