<svg width="37" height="24" viewBox="0 0 37 24" fill="none" xmlns="http://www.w3.org/2000/svg">
<path d="M1 1H22.4519V22.4519H1V1Z" stroke="#231F20"/>
<path d="M23.7896 21.3137C24.1912 21.3137 24.5168 20.9881 24.5168 20.5865C24.5168 20.1849 24.1912 19.8594 23.7896 19.8594C23.3881 19.8594 23.0625 20.1849 23.0625 20.5865C23.0625 20.9881 23.3881 21.3137 23.7896 21.3137Z" fill="#ED2024"/>
<path d="M23.7896 19.5705C24.1912 19.5705 24.5168 19.2449 24.5168 18.8434C24.5168 18.4418 24.1912 18.1162 23.7896 18.1162C23.3881 18.1162 23.0625 18.4418 23.0625 18.8434C23.0625 19.2449 23.3881 19.5705 23.7896 19.5705Z" fill="#ED2024"/>
<path d="M23.7896 17.8271C24.1912 17.8271 24.5168 17.5015 24.5168 17.0999C24.5168 16.6984 24.1912 16.3728 23.7896 16.3728C23.3881 16.3728 23.0625 16.6984 23.0625 17.0999C23.0625 17.5015 23.3881 17.8271 23.7896 17.8271Z" fill="#ED2024"/>
<path d="M23.7896 16.0837C24.1912 16.0837 24.5168 15.7581 24.5168 15.3565C24.5168 14.9549 24.1912 14.6294 23.7896 14.6294C23.3881 14.6294 23.0625 14.9549 23.0625 15.3565C23.0625 15.7581 23.3881 16.0837 23.7896 16.0837Z" fill="#ED2024"/>
<path d="M25.5338 14.3405C25.9354 14.3405 26.2609 14.015 26.2609 13.6134C26.2609 13.2118 25.9354 12.8862 25.5338 12.8862C25.1322 12.8862 24.8066 13.2118 24.8066 13.6134C24.8066 14.015 25.1322 14.3405 25.5338 14.3405Z" fill="#ED2024"/>
<path d="M27.276 14.3405C27.6776 14.3405 28.0031 14.015 28.0031 13.6134C28.0031 13.2118 27.6776 12.8862 27.276 12.8862C26.8744 12.8862 26.5488 13.2118 26.5488 13.6134C26.5488 14.015 26.8744 14.3405 27.276 14.3405Z" fill="#ED2024"/>
<path d="M29.0182 14.3405C29.4197 14.3405 29.7453 14.015 29.7453 13.6134C29.7453 13.2118 29.4197 12.8862 29.0182 12.8862C28.6166 12.8862 28.291 13.2118 28.291 13.6134C28.291 14.015 28.6166 14.3405 29.0182 14.3405Z" fill="#ED2024"/>
<path d="M30.7642 14.3405C31.1658 14.3405 31.4914 14.015 31.4914 13.6134C31.4914 13.2118 31.1658 12.8862 30.7642 12.8862C30.3627 12.8862 30.0371 13.2118 30.0371 13.6134C30.0371 14.015 30.3627 14.3405 30.7642 14.3405Z" fill="#ED2024"/>
<path d="M32.5064 16.0837C32.908 16.0837 33.2336 15.7581 33.2336 15.3565C33.2336 14.9549 32.908 14.6294 32.5064 14.6294C32.1048 14.6294 31.7793 14.9549 31.7793 15.3565C31.7793 15.7581 32.1048 16.0837 32.5064 16.0837Z" fill="#ED2024"/>
<path d="M32.5064 17.8271C32.908 17.8271 33.2336 17.5015 33.2336 17.0999C33.2336 16.6984 32.908 16.3728 32.5064 16.3728C32.1048 16.3728 31.7793 16.6984 31.7793 17.0999C31.7793 17.5015 32.1048 17.8271 32.5064 17.8271Z" fill="#ED2024"/>
<path d="M32.5064 19.5705C32.908 19.5705 33.2336 19.2449 33.2336 18.8434C33.2336 18.4418 32.908 18.1162 32.5064 18.1162C32.1048 18.1162 31.7793 18.4418 31.7793 18.8434C31.7793 19.2449 32.1048 19.5705 32.5064 19.5705Z" fill="#ED2024"/>
<path d="M32.5064 21.3137C32.908 21.3137 33.2336 20.9881 33.2336 20.5865C33.2336 20.1849 32.908 19.8594 32.5064 19.8594C32.1048 19.8594 31.7793 20.1849 31.7793 20.5865C31.7793 20.9881 32.1048 21.3137 32.5064 21.3137Z" fill="#ED2024"/>
<path d="M30.7643 23.0571C31.1658 23.0571 31.4914 22.7315 31.4914 22.3299C31.4914 21.9283 31.1658 21.6028 30.7643 21.6028C30.3627 21.6028 30.0371 21.9283 30.0371 22.3299C30.0371 22.7315 30.3627 23.0571 30.7643 23.0571Z" fill="#ED2024"/>
<path d="M29.0182 23.0571C29.4197 23.0571 29.7453 22.7315 29.7453 22.3299C29.7453 21.9283 29.4197 21.6028 29.0182 21.6028C28.6166 21.6028 28.291 21.9283 28.291 22.3299C28.291 22.7315 28.6166 23.0571 29.0182 23.0571Z" fill="#ED2024"/>
<path d="M27.276 23.0571C27.6776 23.0571 28.0031 22.7315 28.0031 22.3299C28.0031 21.9283 27.6776 21.6028 27.276 21.6028C26.8744 21.6028 26.5488 21.9283 26.5488 22.3299C26.5488 22.7315 26.8744 23.0571 27.276 23.0571Z" fill="#ED2024"/>
<path d="M25.5338 23.0571C25.9354 23.0571 26.2609 22.7315 26.2609 22.3299C26.2609 21.9283 25.9354 21.6028 25.5338 21.6028C25.1322 21.6028 24.8066 21.9283 24.8066 22.3299C24.8066 22.7315 25.1322 23.0571 25.5338 23.0571Z" fill="#ED2024"/>
<path d="M23.7896 14.3405C24.1912 14.3405 24.5168 14.015 24.5168 13.6134C24.5168 13.2118 24.1912 12.8862 23.7896 12.8862C23.3881 12.8862 23.0625 13.2118 23.0625 13.6134C23.0625 14.015 23.3881 14.3405 23.7896 14.3405Z" fill="#ED2024"/>
<path d="M32.5064 14.3405C32.908 14.3405 33.2336 14.015 33.2336 13.6134C33.2336 13.2118 32.908 12.8862 32.5064 12.8862C32.1048 12.8862 31.7793 13.2118 31.7793 13.6134C31.7793 14.015 32.1048 14.3405 32.5064 14.3405Z" fill="#ED2024"/>
<path d="M32.5064 23.0571C32.908 23.0571 33.2336 22.7315 33.2336 22.3299C33.2336 21.9283 32.908 21.6028 32.5064 21.6028C32.1048 21.6028 31.7793 21.9283 31.7793 22.3299C31.7793 22.7315 32.1048 23.0571 32.5064 23.0571Z" fill="#ED2024"/>
<path d="M23.7896 23.0571C24.1912 23.0571 24.5168 22.7315 24.5168 22.3299C24.5168 21.9283 24.1912 21.6028 23.7896 21.6028C23.3881 21.6028 23.0625 21.9283 23.0625 22.3299C23.0625 22.7315 23.3881 23.0571 23.7896 23.0571Z" fill="#ED2024"/>
<path d="M35.9994 18.2648L24.8106 18.2294M27.5201 20.7442L24.7578 18.22L27.5406 15.7144" stroke="#231F20" stroke-width="0.75" stroke-linecap="round" stroke-linejoin="round"/>
</svg>
