<svg width="37" height="21" viewBox="0 0 37 21" fill="none" xmlns="http://www.w3.org/2000/svg">
<path d="M26.6419 10.2969C26.6419 10.3015 26.6419 10.3065 26.6414 10.3111H25.918V9.573C26.3177 9.573 26.6419 9.8967 26.6419 10.2969ZM25.918 10.3111H26.6414C26.6343 10.7042 26.3132 11.0208 25.918 11.0208V10.3111Z" fill="#444041"/>
<path d="M25.9173 0.469238C26.317 0.469238 26.6412 0.793448 26.6412 1.19364C26.6412 1.59333 26.317 1.91754 25.9173 1.91754V1.19314H25.1934C25.1939 0.792941 25.5176 0.469238 25.9173 0.469238ZM25.9173 1.98644C26.317 1.98644 26.6412 2.31065 26.6412 2.71085C26.6412 3.11054 26.317 3.43475 25.9173 3.43475V1.98644ZM25.9173 3.50364C26.317 3.50364 26.6412 3.82785 26.6412 4.22805C26.6412 4.62774 26.317 4.95195 25.9173 4.95195V3.50364ZM25.9173 5.02084C26.317 5.02084 26.6412 5.34505 26.6412 5.74525C26.6412 6.14494 26.317 6.46915 25.9173 6.46915V5.02084ZM25.9173 6.53805C26.317 6.53805 26.6412 6.86226 26.6412 7.26245C26.6412 7.66214 26.317 7.98635 25.9173 7.98635V6.53805ZM25.9173 12.6074C26.317 12.6074 26.6412 12.9311 26.6412 13.3313C26.6412 13.7309 26.317 14.0552 25.9173 14.0552V12.6074ZM25.9173 14.1246C26.317 14.1246 26.6412 14.4488 26.6412 14.8485C26.6412 15.2487 26.317 15.5724 25.9173 15.5724V14.1246ZM25.9173 15.6418C26.317 15.6418 26.6412 15.966 26.6412 16.3657C26.6412 16.7659 26.317 17.0896 25.9173 17.0896V15.6418ZM25.9173 17.159C26.317 17.159 26.6412 17.4832 26.6412 17.8829C26.6412 18.2831 26.317 18.6068 25.9173 18.6068V17.159ZM25.9173 18.6762C26.317 18.6762 26.6412 19.0003 26.6412 19.4001C26.6412 19.8002 26.317 20.124 25.9173 20.124C25.5171 20.124 25.1934 19.8002 25.1934 19.4001H25.9173V18.6762Z" fill="#ED2024"/>
<path d="M25.9173 18.6762V19.4001H25.1934C25.1934 19.0004 25.5171 18.6762 25.9173 18.6762ZM25.9173 17.159V18.6068C25.5176 18.6068 25.1934 18.2831 25.1934 17.8829C25.1934 17.4832 25.5176 17.159 25.9173 17.159ZM25.9173 15.6418V17.0896C25.5176 17.0896 25.1934 16.7659 25.1934 16.3657C25.1934 15.966 25.5176 15.6418 25.9173 15.6418ZM25.9173 14.1246V15.5724C25.5176 15.5724 25.1934 15.2487 25.1934 14.8485C25.1934 14.4488 25.5176 14.1246 25.9173 14.1246ZM25.9173 12.6074V14.0552C25.5176 14.0552 25.1934 13.731 25.1934 13.3313C25.1934 12.9311 25.5176 12.6074 25.9173 12.6074Z" fill="#ED2024"/>
<path d="M25.9173 10.3111V11.0208C25.5221 11.0208 25.201 10.7042 25.1939 10.3111H25.9173ZM25.9173 9.573V10.3111H25.1939C25.1934 10.3065 25.1934 10.3015 25.1934 10.2969C25.1934 9.8967 25.5176 9.573 25.9173 9.573Z" fill="#444041"/>
<path d="M25.9178 6.53805V7.98635C25.5181 7.98635 25.194 7.66214 25.194 7.26245C25.1939 6.86226 25.5181 6.53805 25.9178 6.53805ZM25.9178 5.02084V6.46915C25.5181 6.46915 25.194 6.14494 25.194 5.74525C25.1939 5.34505 25.5181 5.02084 25.9178 5.02084ZM25.9178 3.50364V4.95195C25.5181 4.95195 25.194 4.62774 25.194 4.22805C25.1939 3.82785 25.5181 3.50364 25.9178 3.50364ZM25.9178 1.98644V3.43475C25.5181 3.43475 25.194 3.11054 25.194 2.71085C25.1939 2.31065 25.5181 1.98644 25.9178 1.98644ZM25.1939 1.19314H25.9178V1.91754C25.5181 1.91754 25.1939 1.59333 25.1939 1.19364V1.19314ZM24.3697 0.469238C24.7699 0.469238 25.0936 0.793448 25.0936 1.19314H23.6458C23.6458 0.793448 23.97 0.469238 24.3697 0.469238ZM24.3697 18.6762C24.7694 18.6762 25.0936 19.0003 25.0936 19.4001H23.6458C23.6458 19.0004 23.97 18.6762 24.3697 18.6762ZM23.6458 1.19314H25.0936C25.0936 1.59334 24.7699 1.91754 24.3697 1.91754C23.97 1.91754 23.6458 1.59334 23.6458 1.19314ZM23.6458 19.4001H25.0936C25.0936 19.8002 24.7694 20.124 24.3697 20.124C23.97 20.124 23.6458 19.8003 23.6458 19.4001ZM22.8216 0.469238C23.2218 0.469238 23.5455 0.793448 23.5455 1.19314H22.0977C22.0977 0.793448 22.4219 0.469238 22.8216 0.469238ZM22.8216 18.6762C23.2213 18.6762 23.5455 19.0003 23.5455 19.4001H22.0977C22.0977 19.0004 22.4219 18.6762 22.8216 18.6762ZM22.0977 1.19314H23.5455C23.5455 1.59334 23.2218 1.91754 22.8216 1.91754C22.4219 1.91754 22.0977 1.59334 22.0977 1.19314ZM22.0977 19.4001H23.5455C23.5455 19.8002 23.2213 20.124 22.8216 20.124C22.4219 20.124 22.0977 19.8003 22.0977 19.4001ZM21.2735 0.469238C21.6737 0.469238 21.9974 0.793448 21.9974 1.19314H20.5496C20.5496 0.793448 20.8738 0.469238 21.2735 0.469238ZM21.2735 18.6762C21.6737 18.6762 21.9974 19.0003 21.9974 19.4001H20.5496C20.5496 19.0004 20.8738 18.6762 21.2735 18.6762ZM20.5496 1.19314H21.9974C21.9974 1.59334 21.6737 1.91754 21.2735 1.91754C20.8738 1.91754 20.5496 1.59334 20.5496 1.19314ZM20.5496 19.4001H21.9974C21.9974 19.8002 21.6737 20.124 21.2735 20.124C20.8738 20.124 20.5496 19.8003 20.5496 19.4001ZM19.7254 0.469238C20.1256 0.469238 20.4498 0.793448 20.4498 1.19314H19.0015C19.0015 0.793448 19.3257 0.469238 19.7254 0.469238ZM19.7254 18.6762C20.1256 18.6762 20.4498 19.0003 20.4498 19.4001H19.0015C19.0015 19.0004 19.3257 18.6762 19.7254 18.6762ZM19.0015 1.19314H20.4498C20.4498 1.59334 20.1256 1.91754 19.7254 1.91754C19.3257 1.91754 19.0015 1.59334 19.0015 1.19314ZM19.0015 19.4001H20.4498C20.4498 19.8002 20.1256 20.124 19.7254 20.124C19.3257 20.124 19.0015 19.8003 19.0015 19.4001ZM18.1773 0.469238C18.5775 0.469238 18.9017 0.793448 18.9017 1.19314H17.4534C17.4534 0.793448 17.7776 0.469238 18.1773 0.469238ZM18.1773 18.6762C18.5775 18.6762 18.9017 19.0003 18.9017 19.4001H17.4534C17.4534 19.0004 17.7776 18.6762 18.1773 18.6762ZM17.4534 1.19314H18.9017C18.9017 1.59334 18.5775 1.91754 18.1773 1.91754C17.7776 1.91754 17.4534 1.59334 17.4534 1.19314ZM17.4534 19.4001H18.9017C18.9017 19.8002 18.5775 20.124 18.1773 20.124C17.7776 20.124 17.4534 19.8003 17.4534 19.4001ZM16.6297 0.469238C17.0294 0.469238 17.3536 0.793448 17.3536 1.19314H15.9053C15.9053 0.793448 16.2295 0.469238 16.6297 0.469238ZM16.6292 18.6762C17.0294 18.6762 17.3536 19.0003 17.3536 19.4001H15.9053C15.9053 19.0004 16.2295 18.6762 16.6292 18.6762ZM15.9053 1.19314H17.3536C17.3536 1.59334 17.0294 1.91754 16.6297 1.91754C16.2295 1.91754 15.9053 1.59334 15.9053 1.19314ZM15.9053 19.4001H17.3536C17.3536 19.8002 17.0294 20.124 16.6292 20.124C16.2295 20.124 15.9053 19.8003 15.9053 19.4001ZM15.0816 0.469238C15.4813 0.469238 15.8055 0.793448 15.8055 1.19314H14.3572C14.3572 0.793448 14.6814 0.469238 15.0816 0.469238ZM15.0816 18.6762C15.4813 18.6762 15.8055 19.0003 15.8055 19.4001H14.3572C14.3572 19.0004 14.6814 18.6762 15.0816 18.6762ZM14.3572 1.19314H15.8055C15.8055 1.59334 15.4813 1.91754 15.0816 1.91754C14.6814 1.91754 14.3572 1.59334 14.3572 1.19314ZM14.3572 19.4001H15.8055C15.8055 19.8002 15.4813 20.124 15.0816 20.124C14.6814 20.124 14.3572 19.8003 14.3572 19.4001ZM13.5335 0.469238C13.9332 0.469238 14.2574 0.793448 14.2574 1.19314H12.8091C12.8091 0.793448 13.1333 0.469238 13.5335 0.469238ZM13.5335 18.6762C13.9332 18.6762 14.2574 19.0003 14.2574 19.4001H12.8091C12.8091 19.0004 13.1333 18.6762 13.5335 18.6762ZM12.8091 1.19314H14.2574C14.2574 1.59334 13.9332 1.91754 13.5335 1.91754C13.1333 1.91754 12.8091 1.59334 12.8091 1.19314ZM12.8091 19.4001H14.2574C14.2574 19.8002 13.9332 20.124 13.5335 20.124C13.1333 20.124 12.8091 19.8003 12.8091 19.4001ZM11.9854 0.469238C12.3851 0.469238 12.7093 0.793448 12.7093 1.19314H11.2615C11.2615 0.793448 11.5852 0.469238 11.9854 0.469238ZM11.9854 18.6762C12.3851 18.6762 12.7093 19.0003 12.7093 19.4001H11.2615C11.2615 19.0004 11.5852 18.6762 11.9854 18.6762ZM11.2615 1.19314H12.7093C12.7093 1.59334 12.3851 1.91754 11.9854 1.91754C11.5852 1.91754 11.2615 1.59334 11.2615 1.19314ZM11.2615 19.4001H12.7093C12.7093 19.8002 12.3851 20.124 11.9854 20.124C11.5852 20.124 11.2615 19.8003 11.2615 19.4001ZM10.4373 0.469238C10.837 0.469238 11.1612 0.793448 11.1612 1.19314H9.71339C9.71339 0.793448 10.0376 0.469238 10.4373 0.469238ZM10.4373 18.6762C10.837 18.6762 11.1612 19.0003 11.1612 19.4001H9.71339C9.71339 19.0004 10.0371 18.6762 10.4373 18.6762ZM9.71339 1.19314H11.1612C11.1612 1.59334 10.837 1.91754 10.4373 1.91754C10.0376 1.91754 9.71339 1.59334 9.71339 1.19314ZM9.71339 19.4001H11.1612C11.1612 19.8002 10.837 20.124 10.4373 20.124C10.0371 20.124 9.71339 19.8003 9.71339 19.4001ZM8.88919 0.469238C9.28939 0.469238 9.61309 0.793448 9.61309 1.19314H8.16529C8.16529 0.793448 8.4895 0.469238 8.88919 0.469238ZM8.88919 18.6762C9.28888 18.6762 9.61309 19.0003 9.61309 19.4001H8.16529C8.16529 19.0004 8.4895 18.6762 8.88919 18.6762ZM8.16529 1.19314H9.61309C9.61309 1.59334 9.28939 1.91754 8.88919 1.91754C8.4895 1.91754 8.16529 1.59334 8.16529 1.19314ZM8.16529 19.4001H9.61309C9.61309 19.8002 9.28888 20.124 8.88919 20.124C8.4895 20.124 8.16529 19.8003 8.16529 19.4001ZM7.34109 0.469238C7.74128 0.469238 8.06499 0.793448 8.06499 1.19314H7.34109V1.91754C6.9414 1.91754 6.61719 1.59334 6.61719 1.19314C6.61719 0.793448 6.9414 0.469238 7.34109 0.469238Z" fill="#ED2024"/>
<path d="M8.06374 10.2969C8.06374 10.3015 8.06374 10.3065 8.06324 10.3111H7.33984V9.573C7.73953 9.573 8.06374 9.8967 8.06374 10.2969Z" fill="#444041"/>
<path d="M7.33984 18.6764C7.73953 18.6764 8.06374 19.0005 8.06374 19.4003H7.33984V18.6764ZM7.33984 1.19336H8.06374C8.06374 1.59356 7.74004 1.91777 7.33984 1.91777V1.19336Z" fill="#ED2024"/>
<path d="M7.34109 19.4002H8.06499C8.06499 19.7999 7.74078 20.1241 7.34109 20.1241C6.9414 20.1241 6.61719 19.7999 6.61719 19.4002C6.61719 19.0004 6.9414 18.6763 7.34109 18.6763V19.4002Z" fill="#ED2024"/>
<path d="M7.33984 10.311H8.06324C8.05615 10.7041 7.73497 11.0208 7.33984 11.0208V10.311Z" fill="#444041"/>
<path d="M7.34109 1.98633C7.74078 1.98633 8.06499 2.31054 8.06499 2.71023C8.06499 3.11043 7.74078 3.43464 7.34109 3.43464V1.98633ZM7.34109 3.50353C7.74078 3.50353 8.06499 3.82774 8.06499 4.22794C8.06499 4.62763 7.74078 4.95184 7.34109 4.95184V3.50353ZM7.34109 5.02073C7.74078 5.02073 8.06499 5.34494 8.06499 5.74514C8.06499 6.14483 7.74078 6.46904 7.34109 6.46904V5.02073ZM7.34109 6.53793C7.74078 6.53793 8.06499 6.86214 8.06499 7.26234C8.06499 7.66203 7.74078 7.98624 7.34109 7.98624V6.53793ZM7.34109 12.6072C7.74078 12.6072 8.06499 12.931 8.06499 13.3311C8.06499 13.7308 7.74078 14.055 7.34109 14.055V12.6072ZM7.34109 14.1244C7.74078 14.1244 8.06499 14.4487 8.06499 14.8484C8.06499 15.2481 7.74078 15.5722 7.34109 15.5722V14.1244ZM7.34109 15.6417C7.74078 15.6417 8.06499 15.9659 8.06499 16.3656C8.06499 16.7653 7.74078 17.0895 7.34109 17.0895V15.6417ZM7.34109 17.1589C7.74078 17.1589 8.06499 17.4831 8.06499 17.8828C8.06499 18.283 7.74078 18.6067 7.34109 18.6067V17.1589ZM7.34109 17.1589V18.6067C6.9414 18.6067 6.61719 18.283 6.61719 17.8828C6.61719 17.4831 6.9414 17.1589 7.34109 17.1589ZM7.34109 15.6417V17.0895C6.9414 17.0895 6.61719 16.7653 6.61719 16.3656C6.61719 15.9659 6.9414 15.6417 7.34109 15.6417ZM7.34109 14.1244V15.5722C6.9414 15.5722 6.61719 15.2481 6.61719 14.8484C6.61719 14.4487 6.9414 14.1244 7.34109 14.1244ZM7.34109 12.6072V14.055C6.9414 14.055 6.61719 13.7308 6.61719 13.3311C6.61719 12.931 6.9414 12.6072 7.34109 12.6072Z" fill="#ED2024"/>
<path d="M7.34109 10.3111V11.0208C6.94596 11.0208 6.62479 10.7042 6.61769 10.3111H7.34109ZM7.34109 9.573V10.3111H6.61769C6.61719 10.3065 6.61719 10.3015 6.61719 10.2969C6.61719 9.8967 6.9414 9.573 7.34109 9.573Z" fill="#444041"/>
<path d="M7.34109 6.53793V7.98624C6.9414 7.98624 6.61719 7.66203 6.61719 7.26234C6.61719 6.86214 6.9414 6.53793 7.34109 6.53793ZM7.34109 5.02073V6.46904C6.9414 6.46904 6.61719 6.14483 6.61719 5.74514C6.61719 5.34494 6.9414 5.02073 7.34109 5.02073ZM7.34109 3.50353V4.95184C6.9414 4.95184 6.61719 4.62763 6.61719 4.22794C6.61719 3.82774 6.9414 3.50353 7.34109 3.50353ZM7.34109 1.98633V3.43464C6.9414 3.43464 6.61719 3.11043 6.61719 2.71023C6.61719 2.31054 6.9414 1.98633 7.34109 1.98633Z" fill="#ED2024"/>
<path d="M0.324219 10.3111H35.1905M28.2939 16.4802L35.3242 10.2883L28.2828 4.09839" stroke="#231F20" stroke-width="1.5"/>
</svg>
