<svg width="16" height="35" viewBox="0 0 16 35" fill="none" xmlns="http://www.w3.org/2000/svg">
<path d="M7.78906 0.605225V18.8016V0.605225Z" fill="white"/>
<path d="M7.78906 0.605225V18.8016" stroke="#231F20"/>
<path d="M13.9691 12.8523L7.76544 18.9172L1.56445 12.8428" stroke="#231F20"/>
<path d="M14.6332 33.1775C15.0045 33.1775 15.3054 32.8765 15.3054 32.5053C15.3054 32.134 15.0045 31.833 14.6332 31.833C14.2619 31.833 13.9609 32.134 13.9609 32.5053C13.9609 32.8765 14.2619 33.1775 14.6332 33.1775Z" fill="#ED2024"/>
<path d="M14.6332 31.7158C15.0045 31.7158 15.3054 31.4149 15.3054 31.0436C15.3054 30.6723 15.0045 30.3713 14.6332 30.3713C14.2619 30.3713 13.9609 30.6723 13.9609 31.0436C13.9609 31.4149 14.2619 31.7158 14.6332 31.7158Z" fill="#ED2024"/>
<path d="M14.6332 30.2544C15.0045 30.2544 15.3054 29.9534 15.3054 29.5822C15.3054 29.2109 15.0045 28.9099 14.6332 28.9099C14.2619 28.9099 13.9609 29.2109 13.9609 29.5822C13.9609 29.9534 14.2619 30.2544 14.6332 30.2544Z" fill="#ED2024"/>
<path d="M14.6332 28.7927C15.0045 28.7927 15.3054 28.4918 15.3054 28.1205C15.3054 27.7492 15.0045 27.4482 14.6332 27.4482C14.2619 27.4482 13.9609 27.7492 13.9609 28.1205C13.9609 28.4918 14.2619 28.7927 14.6332 28.7927Z" fill="#ED2024"/>
<path d="M14.6332 27.3313C15.0045 27.3313 15.3054 27.0303 15.3054 26.6591C15.3054 26.2878 15.0045 25.9868 14.6332 25.9868C14.2619 25.9868 13.9609 26.2878 13.9609 26.6591C13.9609 27.0303 14.2619 27.3313 14.6332 27.3313Z" fill="#ED2024"/>
<path d="M14.6332 25.8697C15.0045 25.8697 15.3054 25.5687 15.3054 25.1974C15.3054 24.8261 15.0045 24.5251 14.6332 24.5251C14.2619 24.5251 13.9609 24.8261 13.9609 25.1974C13.9609 25.5687 14.2619 25.8697 14.6332 25.8697Z" fill="#ED2024"/>
<path d="M14.6332 24.408C15.0045 24.408 15.3054 24.107 15.3054 23.7357C15.3054 23.3645 15.0045 23.0635 14.6332 23.0635C14.2619 23.0635 13.9609 23.3645 13.9609 23.7357C13.9609 24.107 14.2619 24.408 14.6332 24.408Z" fill="#ED2024"/>
<path d="M13.2758 22.9466C13.647 22.9466 13.948 22.6456 13.948 22.2743C13.948 21.903 13.647 21.6021 13.2758 21.6021C12.9045 21.6021 12.6035 21.903 12.6035 22.2743C12.6035 22.6456 12.9045 22.9466 13.2758 22.9466Z" fill="#ED2024"/>
<path d="M11.9164 22.9466C12.2877 22.9466 12.5886 22.6456 12.5886 22.2743C12.5886 21.903 12.2877 21.6021 11.9164 21.6021C11.5451 21.6021 11.2441 21.903 11.2441 22.2743C11.2441 22.6456 11.5451 22.9466 11.9164 22.9466Z" fill="#ED2024"/>
<path d="M10.559 22.9466C10.9302 22.9466 11.2312 22.6456 11.2312 22.2743C11.2312 21.903 10.9302 21.6021 10.559 21.6021C10.1877 21.6021 9.88672 21.903 9.88672 22.2743C9.88672 22.6456 10.1877 22.9466 10.559 22.9466Z" fill="#ED2024"/>
<path d="M9.20155 22.9466C9.57282 22.9466 9.8738 22.6456 9.8738 22.2743C9.8738 21.903 9.57282 21.6021 9.20155 21.6021C8.83027 21.6021 8.5293 21.903 8.5293 22.2743C8.5293 22.6456 8.83027 22.9466 9.20155 22.9466Z" fill="#ED2024"/>
<path d="M7.84413 22.9466C8.2154 22.9466 8.51638 22.6456 8.51638 22.2743C8.51638 21.903 8.2154 21.6021 7.84413 21.6021C7.47285 21.6021 7.17188 21.903 7.17188 22.2743C7.17188 22.6456 7.47285 22.9466 7.84413 22.9466Z" fill="#ED2024"/>
<path d="M6.48475 22.9466C6.85603 22.9466 7.15701 22.6456 7.15701 22.2743C7.15701 21.903 6.85603 21.6021 6.48475 21.6021C6.11348 21.6021 5.8125 21.903 5.8125 22.2743C5.8125 22.6456 6.11348 22.9466 6.48475 22.9466Z" fill="#ED2024"/>
<path d="M5.12733 22.9466C5.49861 22.9466 5.79959 22.6456 5.79959 22.2743C5.79959 21.903 5.49861 21.6021 5.12733 21.6021C4.75606 21.6021 4.45508 21.903 4.45508 22.2743C4.45508 22.6456 4.75606 22.9466 5.12733 22.9466Z" fill="#ED2024"/>
<path d="M3.76991 22.9466C4.14118 22.9466 4.44216 22.6456 4.44216 22.2743C4.44216 21.903 4.14118 21.6021 3.76991 21.6021C3.39863 21.6021 3.09766 21.903 3.09766 22.2743C3.09766 22.6456 3.39863 22.9466 3.76991 22.9466Z" fill="#ED2024"/>
<path d="M2.41249 22.9466C2.78376 22.9466 3.08474 22.6456 3.08474 22.2743C3.08474 21.903 2.78376 21.6021 2.41249 21.6021C2.04121 21.6021 1.74023 21.903 1.74023 22.2743C1.74023 22.6456 2.04121 22.9466 2.41249 22.9466Z" fill="#ED2024"/>
<path d="M1.05311 24.4082C1.42439 24.4082 1.72536 24.1072 1.72536 23.736C1.72536 23.3647 1.42439 23.0637 1.05311 23.0637C0.681837 23.0637 0.380859 23.3647 0.380859 23.736C0.380859 24.1072 0.681837 24.4082 1.05311 24.4082Z" fill="#ED2024"/>
<path d="M1.05311 25.8697C1.42439 25.8697 1.72536 25.5687 1.72536 25.1974C1.72536 24.8261 1.42439 24.5251 1.05311 24.5251C0.681837 24.5251 0.380859 24.8261 0.380859 25.1974C0.380859 25.5687 0.681837 25.8697 1.05311 25.8697Z" fill="#ED2024"/>
<path d="M1.05311 27.3313C1.42439 27.3313 1.72536 27.0303 1.72536 26.6591C1.72536 26.2878 1.42439 25.9868 1.05311 25.9868C0.681837 25.9868 0.380859 26.2878 0.380859 26.6591C0.380859 27.0303 0.681837 27.3313 1.05311 27.3313Z" fill="#ED2024"/>
<path d="M1.05311 28.7927C1.42439 28.7927 1.72536 28.4918 1.72536 28.1205C1.72536 27.7492 1.42439 27.4482 1.05311 27.4482C0.681837 27.4482 0.380859 27.7492 0.380859 28.1205C0.380859 28.4918 0.681837 28.7927 1.05311 28.7927Z" fill="#ED2024"/>
<path d="M1.05311 30.2544C1.42439 30.2544 1.72536 29.9534 1.72536 29.5822C1.72536 29.2109 1.42439 28.9099 1.05311 28.9099C0.681837 28.9099 0.380859 29.2109 0.380859 29.5822C0.380859 29.9534 0.681837 30.2544 1.05311 30.2544Z" fill="#ED2024"/>
<path d="M1.05311 31.7161C1.42439 31.7161 1.72536 31.4151 1.72536 31.0438C1.72536 30.6726 1.42439 30.3716 1.05311 30.3716C0.681837 30.3716 0.380859 30.6726 0.380859 31.0438C0.380859 31.4151 0.681837 31.7161 1.05311 31.7161Z" fill="#ED2024"/>
<path d="M1.05311 33.1775C1.42439 33.1775 1.72536 32.8765 1.72536 32.5053C1.72536 32.134 1.42439 31.833 1.05311 31.833C0.681837 31.833 0.380859 32.134 0.380859 32.5053C0.380859 32.8765 0.681837 33.1775 1.05311 33.1775Z" fill="#ED2024"/>
<path d="M2.41249 34.6392C2.78376 34.6392 3.08474 34.3382 3.08474 33.9669C3.08474 33.5957 2.78376 33.2947 2.41249 33.2947C2.04121 33.2947 1.74023 33.5957 1.74023 33.9669C1.74023 34.3382 2.04121 34.6392 2.41249 34.6392Z" fill="#ED2024"/>
<path d="M3.76991 34.6392C4.14118 34.6392 4.44216 34.3382 4.44216 33.9669C4.44216 33.5957 4.14118 33.2947 3.76991 33.2947C3.39863 33.2947 3.09766 33.5957 3.09766 33.9669C3.09766 34.3382 3.39863 34.6392 3.76991 34.6392Z" fill="#ED2024"/>
<path d="M5.12733 34.6392C5.49861 34.6392 5.79959 34.3382 5.79959 33.9669C5.79959 33.5957 5.49861 33.2947 5.12733 33.2947C4.75606 33.2947 4.45508 33.5957 4.45508 33.9669C4.45508 34.3382 4.75606 34.6392 5.12733 34.6392Z" fill="#ED2024"/>
<path d="M6.48475 34.6392C6.85603 34.6392 7.15701 34.3382 7.15701 33.9669C7.15701 33.5957 6.85603 33.2947 6.48475 33.2947C6.11348 33.2947 5.8125 33.5957 5.8125 33.9669C5.8125 34.3382 6.11348 34.6392 6.48475 34.6392Z" fill="#ED2024"/>
<path d="M7.84413 34.6392C8.2154 34.6392 8.51638 34.3382 8.51638 33.9669C8.51638 33.5957 8.2154 33.2947 7.84413 33.2947C7.47285 33.2947 7.17188 33.5957 7.17188 33.9669C7.17188 34.3382 7.47285 34.6392 7.84413 34.6392Z" fill="#ED2024"/>
<path d="M9.20155 34.6392C9.57282 34.6392 9.8738 34.3382 9.8738 33.9669C9.8738 33.5957 9.57282 33.2947 9.20155 33.2947C8.83027 33.2947 8.5293 33.5957 8.5293 33.9669C8.5293 34.3382 8.83027 34.6392 9.20155 34.6392Z" fill="#ED2024"/>
<path d="M10.559 34.6392C10.9302 34.6392 11.2312 34.3382 11.2312 33.9669C11.2312 33.5957 10.9302 33.2947 10.559 33.2947C10.1877 33.2947 9.88672 33.5957 9.88672 33.9669C9.88672 34.3382 10.1877 34.6392 10.559 34.6392Z" fill="#ED2024"/>
<path d="M11.9164 34.6392C12.2877 34.6392 12.5886 34.3382 12.5886 33.9669C12.5886 33.5957 12.2877 33.2947 11.9164 33.2947C11.5451 33.2947 11.2441 33.5957 11.2441 33.9669C11.2441 34.3382 11.5451 34.6392 11.9164 34.6392Z" fill="#ED2024"/>
<path d="M13.2758 34.6392C13.647 34.6392 13.948 34.3382 13.948 33.9669C13.948 33.5957 13.647 33.2947 13.2758 33.2947C12.9045 33.2947 12.6035 33.5957 12.6035 33.9669C12.6035 34.3382 12.9045 34.6392 13.2758 34.6392Z" fill="#ED2024"/>
<path d="M14.6332 22.9466C15.0045 22.9466 15.3054 22.6456 15.3054 22.2743C15.3054 21.903 15.0045 21.6021 14.6332 21.6021C14.2619 21.6021 13.9609 21.903 13.9609 22.2743C13.9609 22.6456 14.2619 22.9466 14.6332 22.9466Z" fill="#ED2024"/>
<path d="M1.05311 22.9466C1.42439 22.9466 1.72536 22.6456 1.72536 22.2743C1.72536 21.903 1.42439 21.6021 1.05311 21.6021C0.681837 21.6021 0.380859 21.903 0.380859 22.2743C0.380859 22.6456 0.681837 22.9466 1.05311 22.9466Z" fill="#ED2024"/>
<path d="M1.05311 34.6392C1.42439 34.6392 1.72536 34.3382 1.72536 33.9669C1.72536 33.5957 1.42439 33.2947 1.05311 33.2947C0.681837 33.2947 0.380859 33.5957 0.380859 33.9669C0.380859 34.3382 0.681837 34.6392 1.05311 34.6392Z" fill="#ED2024"/>
<path d="M14.6332 34.6389C15.0045 34.6389 15.3054 34.338 15.3054 33.9667C15.3054 33.5954 15.0045 33.2944 14.6332 33.2944C14.2619 33.2944 13.9609 33.5954 13.9609 33.9667C13.9609 34.338 14.2619 34.6389 14.6332 34.6389Z" fill="#ED2024"/>
</svg>
