<svg width="15" height="35" viewBox="0 0 15 35" fill="none" xmlns="http://www.w3.org/2000/svg">
<path d="M7.51562 34.0339V15.8376V34.0339Z" fill="white"/>
<path d="M7.51562 34.0339V15.8376" stroke="#231F20"/>
<path d="M1.33563 21.7869L7.53925 15.7219L13.7402 21.7964" stroke="#231F20"/>
<path d="M0.671497 1.46165C0.300222 1.46165 -0.000755429 1.76262 -0.000755429 2.1339C-0.000755429 2.50517 0.300222 2.80615 0.671497 2.80615C1.04277 2.80615 1.34375 2.50517 1.34375 2.1339C1.34375 1.76262 1.04277 1.46165 0.671497 1.46165Z" fill="#ED2024"/>
<path d="M0.671497 2.92331C0.300222 2.92331 -0.000755429 3.22429 -0.000755429 3.59557C-0.000755429 3.96684 0.300222 4.26782 0.671497 4.26782C1.04277 4.26782 1.34375 3.96684 1.34375 3.59557C1.34375 3.22429 1.04277 2.92331 0.671497 2.92331Z" fill="#ED2024"/>
<path d="M0.671497 4.38474C0.300222 4.38474 -0.000755429 4.68572 -0.000755429 5.05699C-0.000755429 5.42827 0.300222 5.72925 0.671497 5.72925C1.04277 5.72925 1.34375 5.42827 1.34375 5.05699C1.34375 4.68572 1.04277 4.38474 0.671497 4.38474Z" fill="#ED2024"/>
<path d="M0.671497 5.84641C0.300222 5.84641 -0.000755429 6.14739 -0.000755429 6.51867C-0.000755429 6.88994 0.300222 7.19092 0.671497 7.19092C1.04277 7.19092 1.34375 6.88994 1.34375 6.51867C1.34375 6.14739 1.04277 5.84641 0.671497 5.84641Z" fill="#ED2024"/>
<path d="M0.671497 7.30784C0.300222 7.30784 -0.000755429 7.60882 -0.000755429 7.98009C-0.000755429 8.35137 0.300222 8.65234 0.671497 8.65234C1.04277 8.65234 1.34375 8.35137 1.34375 7.98009C1.34375 7.60882 1.04277 7.30784 0.671497 7.30784Z" fill="#ED2024"/>
<path d="M0.671497 8.76951C0.300222 8.76951 -0.000755429 9.07049 -0.000755429 9.44176C-0.000755429 9.81304 0.300222 10.114 0.671497 10.114C1.04277 10.114 1.34375 9.81304 1.34375 9.44176C1.34375 9.07049 1.04277 8.76951 0.671497 8.76951Z" fill="#ED2024"/>
<path d="M0.671497 10.2312C0.300222 10.2312 -0.000755429 10.5322 -0.000755429 10.9034C-0.000755429 11.2747 0.300222 11.5757 0.671497 11.5757C1.04277 11.5757 1.34375 11.2747 1.34375 10.9034C1.34375 10.5322 1.04277 10.2312 0.671497 10.2312Z" fill="#ED2024"/>
<path d="M2.02892 11.6926C1.65764 11.6926 1.35666 11.9936 1.35666 12.3649C1.35666 12.7361 1.65764 13.0371 2.02892 13.0371C2.40019 13.0371 2.70117 12.7361 2.70117 12.3649C2.70117 11.9936 2.40019 11.6926 2.02892 11.6926Z" fill="#ED2024"/>
<path d="M3.38829 11.6926C3.01702 11.6926 2.71604 11.9936 2.71604 12.3649C2.71604 12.7361 3.01702 13.0371 3.38829 13.0371C3.75957 13.0371 4.06055 12.7361 4.06055 12.3649C4.06055 11.9936 3.75957 11.6926 3.38829 11.6926Z" fill="#ED2024"/>
<path d="M4.74572 11.6926C4.37444 11.6926 4.07346 11.9936 4.07346 12.3649C4.07346 12.7361 4.37444 13.0371 4.74572 13.0371C5.11699 13.0371 5.41797 12.7361 5.41797 12.3649C5.41797 11.9936 5.11699 11.6926 4.74572 11.6926Z" fill="#ED2024"/>
<path d="M6.10314 11.6926C5.73186 11.6926 5.43088 11.9936 5.43088 12.3649C5.43088 12.7361 5.73186 13.0371 6.10314 13.0371C6.47441 13.0371 6.77539 12.7361 6.77539 12.3649C6.77539 11.9936 6.47441 11.6926 6.10314 11.6926Z" fill="#ED2024"/>
<path d="M7.46056 11.6926C7.08928 11.6926 6.78831 11.9936 6.78831 12.3649C6.78831 12.7361 7.08928 13.0371 7.46056 13.0371C7.83183 13.0371 8.13281 12.7361 8.13281 12.3649C8.13281 11.9936 7.83183 11.6926 7.46056 11.6926Z" fill="#ED2024"/>
<path d="M8.81993 11.6926C8.44866 11.6926 8.14768 11.9936 8.14768 12.3649C8.14768 12.7361 8.44866 13.0371 8.81993 13.0371C9.19121 13.0371 9.49219 12.7361 9.49219 12.3649C9.49219 11.9936 9.19121 11.6926 8.81993 11.6926Z" fill="#ED2024"/>
<path d="M10.1774 11.6926C9.80608 11.6926 9.5051 11.9936 9.5051 12.3649C9.5051 12.7361 9.80608 13.0371 10.1774 13.0371C10.5486 13.0371 10.8496 12.7361 10.8496 12.3649C10.8496 11.9936 10.5486 11.6926 10.1774 11.6926Z" fill="#ED2024"/>
<path d="M11.5348 11.6926C11.1635 11.6926 10.8625 11.9936 10.8625 12.3649C10.8625 12.7361 11.1635 13.0371 11.5348 13.0371C11.9061 13.0371 12.207 12.7361 12.207 12.3649C12.207 11.9936 11.9061 11.6926 11.5348 11.6926Z" fill="#ED2024"/>
<path d="M12.8922 11.6926C12.5209 11.6926 12.2199 11.9936 12.2199 12.3649C12.2199 12.7361 12.5209 13.0371 12.8922 13.0371C13.2635 13.0371 13.5645 12.7361 13.5645 12.3649C13.5645 11.9936 13.2635 11.6926 12.8922 11.6926Z" fill="#ED2024"/>
<path d="M14.2516 10.2309C13.8803 10.2309 13.5793 10.5319 13.5793 10.9032C13.5793 11.2745 13.8803 11.5754 14.2516 11.5754C14.6229 11.5754 14.9238 11.2745 14.9238 10.9032C14.9238 10.5319 14.6229 10.2309 14.2516 10.2309Z" fill="#ED2024"/>
<path d="M14.2516 8.76951C13.8803 8.76951 13.5793 9.07049 13.5793 9.44176C13.5793 9.81304 13.8803 10.114 14.2516 10.114C14.6229 10.114 14.9238 9.81304 14.9238 9.44176C14.9238 9.07049 14.6229 8.76951 14.2516 8.76951Z" fill="#ED2024"/>
<path d="M14.2516 7.30784C13.8803 7.30784 13.5793 7.60882 13.5793 7.98009C13.5793 8.35137 13.8803 8.65234 14.2516 8.65234C14.6229 8.65234 14.9238 8.35137 14.9238 7.98009C14.9238 7.60882 14.6229 7.30784 14.2516 7.30784Z" fill="#ED2024"/>
<path d="M14.2516 5.84641C13.8803 5.84641 13.5793 6.14739 13.5793 6.51867C13.5793 6.88994 13.8803 7.19092 14.2516 7.19092C14.6229 7.19092 14.9238 6.88994 14.9238 6.51867C14.9238 6.14739 14.6229 5.84641 14.2516 5.84641Z" fill="#ED2024"/>
<path d="M14.2516 4.38474C13.8803 4.38474 13.5793 4.68572 13.5793 5.057C13.5793 5.42827 13.8803 5.72925 14.2516 5.72925C14.6229 5.72925 14.9238 5.42827 14.9238 5.057C14.9238 4.68572 14.6229 4.38474 14.2516 4.38474Z" fill="#ED2024"/>
<path d="M14.2516 2.92307C13.8803 2.92307 13.5793 3.22405 13.5793 3.59533C13.5793 3.9666 13.8803 4.26758 14.2516 4.26758C14.6229 4.26758 14.9238 3.9666 14.9238 3.59533C14.9238 3.22405 14.6229 2.92307 14.2516 2.92307Z" fill="#ED2024"/>
<path d="M14.2516 1.46164C13.8803 1.46164 13.5793 1.76262 13.5793 2.1339C13.5793 2.50517 13.8803 2.80615 14.2516 2.80615C14.6229 2.80615 14.9238 2.50517 14.9238 2.1339C14.9238 1.76262 14.6229 1.46164 14.2516 1.46164Z" fill="#ED2024"/>
<path d="M12.8922 -2.30074e-05C12.5209 -2.30074e-05 12.2199 0.300955 12.2199 0.67223C12.2199 1.0435 12.5209 1.34448 12.8922 1.34448C13.2635 1.34448 13.5645 1.0435 13.5645 0.67223C13.5645 0.300955 13.2635 -2.30074e-05 12.8922 -2.30074e-05Z" fill="#ED2024"/>
<path d="M11.5348 -2.30074e-05C11.1635 -2.30074e-05 10.8625 0.300955 10.8625 0.67223C10.8625 1.0435 11.1635 1.34448 11.5348 1.34448C11.9061 1.34448 12.207 1.0435 12.207 0.67223C12.207 0.300955 11.9061 -2.30074e-05 11.5348 -2.30074e-05Z" fill="#ED2024"/>
<path d="M10.1774 -2.30074e-05C9.80608 -2.30074e-05 9.5051 0.300955 9.5051 0.67223C9.5051 1.0435 9.80608 1.34448 10.1774 1.34448C10.5486 1.34448 10.8496 1.0435 10.8496 0.67223C10.8496 0.300955 10.5486 -2.30074e-05 10.1774 -2.30074e-05Z" fill="#ED2024"/>
<path d="M8.81993 -2.30074e-05C8.44866 -2.30074e-05 8.14768 0.300955 8.14768 0.67223C8.14768 1.0435 8.44866 1.34448 8.81993 1.34448C9.19121 1.34448 9.49219 1.0435 9.49219 0.67223C9.49219 0.300955 9.19121 -2.30074e-05 8.81993 -2.30074e-05Z" fill="#ED2024"/>
<path d="M7.46056 -2.30074e-05C7.08928 -2.30074e-05 6.78831 0.300955 6.78831 0.67223C6.78831 1.0435 7.08928 1.34448 7.46056 1.34448C7.83183 1.34448 8.13281 1.0435 8.13281 0.67223C8.13281 0.300955 7.83183 -2.30074e-05 7.46056 -2.30074e-05Z" fill="#ED2024"/>
<path d="M6.10314 -2.30074e-05C5.73186 -2.30074e-05 5.43089 0.300955 5.43089 0.67223C5.43089 1.0435 5.73186 1.34448 6.10314 1.34448C6.47441 1.34448 6.77539 1.0435 6.77539 0.67223C6.77539 0.300955 6.47441 -2.30074e-05 6.10314 -2.30074e-05Z" fill="#ED2024"/>
<path d="M4.74572 -2.30074e-05C4.37444 -2.30074e-05 4.07346 0.300955 4.07346 0.67223C4.07346 1.0435 4.37444 1.34448 4.74572 1.34448C5.11699 1.34448 5.41797 1.0435 5.41797 0.67223C5.41797 0.300955 5.11699 -2.30074e-05 4.74572 -2.30074e-05Z" fill="#ED2024"/>
<path d="M3.38829 -2.30074e-05C3.01702 -2.30074e-05 2.71604 0.300955 2.71604 0.67223C2.71604 1.0435 3.01702 1.34448 3.38829 1.34448C3.75957 1.34448 4.06055 1.0435 4.06055 0.67223C4.06055 0.300955 3.75957 -2.30074e-05 3.38829 -2.30074e-05Z" fill="#ED2024"/>
<path d="M2.02892 -2.30074e-05C1.65764 -2.30074e-05 1.35667 0.300955 1.35667 0.67223C1.35667 1.0435 1.65764 1.34448 2.02892 1.34448C2.40019 1.34448 2.70117 1.0435 2.70117 0.67223C2.70117 0.300955 2.40019 -2.30074e-05 2.02892 -2.30074e-05Z" fill="#ED2024"/>
<path d="M0.671497 11.6926C0.300222 11.6926 -0.000755429 11.9936 -0.000755429 12.3649C-0.000755429 12.7361 0.300222 13.0371 0.671497 13.0371C1.04277 13.0371 1.34375 12.7361 1.34375 12.3649C1.34375 11.9936 1.04277 11.6926 0.671497 11.6926Z" fill="#ED2024"/>
<path d="M14.2516 11.6926C13.8803 11.6926 13.5793 11.9936 13.5793 12.3649C13.5793 12.7361 13.8803 13.0371 14.2516 13.0371C14.6229 13.0371 14.9238 12.7361 14.9238 12.3649C14.9238 11.9936 14.6229 11.6926 14.2516 11.6926Z" fill="#ED2024"/>
<path d="M14.2516 -2.30074e-05C13.8803 -2.30074e-05 13.5793 0.300955 13.5793 0.67223C13.5793 1.0435 13.8803 1.34448 14.2516 1.34448C14.6229 1.34448 14.9238 1.0435 14.9238 0.67223C14.9238 0.300955 14.6229 -2.30074e-05 14.2516 -2.30074e-05Z" fill="#ED2024"/>
<path d="M0.671497 0.000221133C0.300222 0.000221133 -0.000755429 0.301199 -0.000755429 0.672474C-0.000755429 1.04375 0.300222 1.34473 0.671497 1.34473C1.04277 1.34473 1.34375 1.04375 1.34375 0.672474C1.34375 0.301199 1.04277 0.000221133 0.671497 0.000221133Z" fill="#ED2024"/>
</svg>
